<svg xmlns="http://www.w3.org/2000/svg" width="24" height="24" viewBox="0 0 24 24"><path d="M19 0h-14c-2.761 0-5 2.239-5 5v14c0 2.761 2.239 5 5 5h14c2.762 0 5-2.239 5-5v-14c0-2.761-2.238-5-5-5zm-1.243 8.148c-.102.114-.221.236-.345.236l-.146-.061c-.638-.552-1.224-.932-1.845-1.195-.781-.33-1.611-.498-2.468-.498-.756 0-1.586.158-2.336.444-.234.089-.354-.219-.4-.335-.056-.144-.078-.253-.069-.337.01-.088.057-.151.136-.182.733-.317 1.731-.506 2.669-.506.98 0 1.931.192 2.826.571.823.348 1.49.779 2.099 1.355.166.159.05.318-.121.508zm-6.015 4.176c-.094-.1-.056-.225.125-.405.104-.104.197-.157.275-.157l.114.046.586.587.581-.581c.101-.094.258-.051.422.112.113.113.227.26.098.398l-.583.588.56.56c.058.063.177.195-.062.438-.101.103-.198.155-.286.155-.064-.001-.119-.03-.171-.088l-.552-.551-.586.591-.133.049c-.087 0-.182-.05-.281-.147l-.018-.018c-.058-.056-.155-.148-.156-.255 0-.053.023-.105.071-.153l.584-.584-.588-.585zm.056 2.981c.035-.114.141-.461.391-.387.018.004.451.11.69.11 1.237 0 2.206-.966 2.206-2.198 0-.578-.226-1.12-.637-1.527-.414-.41-.969-.636-1.564-.636-.614 0-1.178.254-1.586.716-.358.403-.571.938-.571 1.43l-.003 3.689c.64.39 1.386.596 2.159.596 1.142 0 2.252-.456 3.047-1.251.806-.805 1.249-1.878 1.249-3.02 0-1.138-.445-2.21-1.256-3.02-.807-.807-1.881-1.252-3.028-1.252-1.152 0-2.23.444-3.037 1.251-.005.005-.522.525-.688.771l-.015.02c-.108.15-.21.291-.652.197-.227-.048-.471-.19-.471-.385v-6.068c.001-.164.133-.341.346-.341h7.828c.265.003.265.371.265.492s0 .489-.263.492h-7.241l.003 4.307c.504-.52 1.366-1.074 1.875-1.29.637-.269 1.352-.411 2.067-.411.706 0 1.393.138 2.038.411.625.264 1.185.642 1.665 1.123.481.481.858 1.041 1.122 1.665.273.646.412 1.332.412 2.039 0 .707-.139 1.393-.412 2.039-.264.624-.641 1.184-1.122 1.665-.481.48-1.04.858-1.665 1.122-.646.273-1.332.412-2.038.412-.707 0-1.393-.138-2.039-.412-.624-.264-1.184-.642-1.665-1.122-.481-.481-.858-1.041-1.122-1.664l-.136-.356c-.076-.25.27-.356.383-.391.26-.08.451-.12.535.104.215.568.543 1.128.871 1.492 0-.726.002-2.937.005-3.03v-.019c0-.749.329-1.502.904-2.067.604-.594 1.407-.92 2.262-.92 1.746 0 3.166 1.411 3.166 3.144 0 1.748-1.422 3.17-3.168 3.17-.343 0-.604-.023-1.002-.147-.041-.016-.242-.103-.108-.543zm6.363 2.505l-.057.06c-.668.668-1.447 1.192-2.312 1.559-.896.379-1.85.571-2.831.571-.982 0-1.935-.192-2.831-.572-.866-.366-1.644-.891-2.312-1.558-.667-.667-1.192-1.445-1.558-2.312-.228-.539-.391-1.11-.482-1.688-.033-.25.313-.302.427-.32.274-.042.464-.027.504.18l.007.039c.031.176.125.711.412 1.422.294.729.751 1.406 1.356 2.012.582.582 1.259 1.038 2.013 1.357.78.33 1.609.497 2.464.497.854 0 1.684-.167 2.463-.497.754-.319 1.432-.775 2.014-1.357l.055-.056c.059-.059.136-.078.221-.053.084.024.181.09.293.203.293.293.228.433.154.513z"/></svg>