<svg xmlns="http://www.w3.org/2000/svg" width="24" height="24" viewBox="0 0 24 24"><path d="M12 0c-6.627 0-12 5.373-12 12s5.373 12 12 12 12-5.373 12-12-5.373-12-12-12zm4.537 8.63c-.089.1-.193.207-.302.207l-.128-.053c-.558-.483-1.07-.815-1.614-1.045-.684-.289-1.41-.436-2.16-.436-.661 0-1.388.138-2.044.389-.204.078-.31-.192-.351-.293-.047-.128-.068-.223-.059-.296.009-.077.05-.132.119-.159.642-.278 1.515-.444 2.335-.444.858 0 1.69.168 2.473.5.721.305 1.305.682 1.837 1.186.145.138.044.277-.106.444zm-5.264 3.653c-.082-.087-.048-.196.109-.354.093-.091.173-.138.241-.138l.099.04.514.514.509-.508c.088-.082.226-.045.369.098.099.099.198.228.085.349l-.51.515.489.489c.051.056.155.171-.054.384-.088.09-.173.136-.25.136-.057-.001-.104-.026-.149-.077l-.483-.482-.514.517-.116.042c-.075 0-.159-.043-.246-.129l-.016-.016c-.051-.048-.135-.13-.137-.223l.063-.134.511-.512-.514-.511zm.05 2.609c.03-.1.123-.404.342-.338.016.004.395.096.604.096 1.083 0 1.931-.845 1.931-1.923 0-.506-.197-.98-.557-1.336-.362-.359-.848-.557-1.369-.557-.537 0-1.03.222-1.388.626-.312.353-.499.821-.499 1.251l-.004 3.228c.561.341 1.214.521 1.89.521.999 0 1.971-.399 2.666-1.095.705-.704 1.093-1.643 1.093-2.643 0-.996-.39-1.934-1.099-2.642-.706-.706-1.646-1.095-2.649-1.095-1.008 0-1.951.389-2.657 1.095-.005.004-.457.459-.602.675l-.014.017c-.094.131-.183.255-.57.172-.198-.042-.412-.167-.412-.337v-5.308c-.001-.144.116-.299.302-.299h6.85c.231.002.231.324.231.43s0 .428-.23.43h-6.335l.002 3.769c.44-.455 1.195-.94 1.641-1.129.557-.235 1.183-.36 1.809-.36.618 0 1.219.121 1.783.36.547.231 1.037.562 1.457.982.422.421.751.911.982 1.457.239.565.36 1.166.36 1.784 0 .619-.121 1.219-.36 1.784-.231.546-.561 1.036-.982 1.457-.421.42-.91.751-1.457.982-.564.239-1.165.36-1.783.36s-1.219-.121-1.783-.36c-.547-.23-1.036-.562-1.458-.982-.42-.42-.75-.911-.98-1.456l-.12-.311c-.066-.219.236-.312.335-.342.229-.07.396-.105.469.09.188.498.475.987.762 1.306.001-.635.003-2.57.006-2.651v-.016c0-.656.288-1.315.791-1.809.528-.52 1.23-.806 1.979-.806 1.528 0 2.771 1.234 2.771 2.751 0 1.529-1.244 2.773-2.771 2.773-.301 0-.528-.021-.877-.128-.041-.012-.218-.089-.1-.473zm5.568 2.192l-.049.052c-.585.584-1.267 1.043-2.023 1.364-.785.332-1.619.5-2.477.5-.859 0-1.693-.168-2.479-.5-.757-.32-1.437-.779-2.021-1.363-.584-.584-1.043-1.265-1.363-2.022-.2-.472-.342-.972-.423-1.477-.028-.218.274-.265.375-.28.239-.037.405-.024.44.157l.005.034c.027.154.109.622.361 1.245.258.638.657 1.23 1.188 1.761.508.509 1.101.908 1.76 1.187.684.289 1.408.435 2.157.435.747 0 1.473-.146 2.155-.435.659-.279 1.252-.678 1.762-1.187l.048-.049c.051-.052.118-.068.193-.046.073.021.157.079.256.178.257.253.2.376.135.446z"/></svg>