<svg width="24" height="24" xmlns="http://www.w3.org/2000/svg" fill-rule="evenodd" clip-rule="evenodd"><path d="M7 9.866v2.392c-1.221 1.009-2 2.535-2 4.242 0 3.035 2.464 5.5 5.5 5.5 2.256 0 4.197-1.362 5.045-3.308l1.248 1.887c-1.338 2.058-3.658 3.421-6.293 3.421-4.14 0-7.5-3.361-7.5-7.5 0-2.876 1.622-5.376 4-6.634zm10 .134c.552 0 1 .448 1 1s-.448 1-1 1c-1.185 0-3.224.005-4 0 0 2.62 3.641.927 5.274 3.443.726 1.119 1.953 2.998 2.59 4.091.088.151.132.303.136.466.007.352-.174.711-.502.9-.23.132-.933.287-1.366-.366-.67-1.011-1.45-2.211-1.996-3.025-.782-1.166-1.308-1.459-4.136-1.509-2.039-.036-4-.43-4-3v-4c0-.531.21-1.039.586-1.414.375-.376.883-.586 1.414-.586.53 0 1.039.21 1.414.586.375.375.586.883.586 1.414v1h4zm-6-10c1.656 0 3 1.344 3 3s-1.344 3-3 3-3-1.344-3-3 1.344-3 3-3z"/></svg>