<svg xmlns="http://www.w3.org/2000/svg" width="24" height="24" viewBox="0 0 24 24"><path d="M6.41 20.774c-.293-.293-.292-.768 0-1.061.293-.293.768-.293 1.061 0s.293.768 0 1.061c-.292.293-.768.293-1.061 0zm-.53-1.591c.293-.293.293-.768 0-1.061-.292-.292-.768-.293-1.061 0-.292.293-.292.769 0 1.061.293.293.769.293 1.061 0zm1.415-1.414c.292-.293.293-.768 0-1.061s-.769-.293-1.061 0c-.293.293-.293.768 0 1.061s.768.293 1.061 0zm-4.066-1.237c-.293.292-.293.768 0 1.061s.768.292 1.061 0c.293-.293.293-.768 0-1.061s-.769-.293-1.061 0zm2.474-.354c.293-.292.293-.768 0-1.061s-.768-.292-1.061 0c-.293.293-.293.768 0 1.061s.768.293 1.061 0zm14.011-8.707c.293.293.768.293 1.061 0 .293-.292.293-.768 0-1.061s-.768-.292-1.061 0c-.293.293-.293.768 0 1.061zm4.286-.436c0 .97-.343 1.796-.928 2.381l-5.6 5.6c-.513-.455-1.101-.823-1.746-1.083l1.688-1.689-5.656-5.656-5.171 5.171 3.111 3.111c-.518.427-.963.938-1.314 1.514l-3.211-3.211-2.829 2.828c-.686.686-.429 2.4 1.397 4.227 1.803 1.803 3.483 2.095 4.201 1.472.252.634.604 1.214 1.043 1.722-.533.366-1.196.578-1.95.578-1.375 0-3.038-.69-4.707-2.358-1.645-1.646-2.328-3.297-2.328-4.667 0-.971.343-1.801.93-2.388l13.657-13.657c.587-.587 1.416-.93 2.388-.93 1.37 0 3.021.683 4.667 2.328 1.668 1.669 2.358 3.332 2.358 4.707zm-3.772-3.293c-1.826-1.826-3.541-2.083-4.227-1.397l-2.828 2.829 5.656 5.656 2.829-2.828c.686-.686.417-2.412-1.43-4.26zm-1.928 4.083c-.293.292-.293.768 0 1.061.292.292.768.292 1.061 0 .293-.293.293-.769 0-1.062s-.768-.292-1.061.001zm-1.592-1.591c-.293.292-.293.768 0 1.061s.768.292 1.061 0c.293-.293.293-.769 0-1.062-.292-.292-.768-.292-1.061.001zm.885-1.945c.292-.293.293-.768 0-1.061s-.769-.293-1.061 0c-.293.293-.293.768 0 1.061s.768.293 1.061 0zm-2.476.354c-.292.293-.293.768 0 1.061s.769.293 1.061 0c.293-.293.294-.768.001-1.061s-.769-.293-1.062 0zm4.066 1.237c.293-.292.293-.768 0-1.061-.292-.292-.768-.292-1.061 0-.293.293-.292.769 0 1.061.293.293.768.293 1.061 0zm-5.683 9.12c-2.486 0-4.5 2.015-4.5 4.5s2.014 4.5 4.5 4.5c2.484 0 4.5-2.015 4.5-4.5s-2.016-4.5-4.5-4.5zm-.469 6.484l-1.688-1.637.695-.697.992.94 2.115-2.169.697.696-2.811 2.867z"/></svg>