<svg xmlns="http://www.w3.org/2000/svg" width="24" height="24" viewBox="0 0 24 24"><path d="M11.579 9.516c.242-.243.639-.245.883 0 .244.244.243.641 0 .884-.244.245-.641.245-.885.001-.244-.245-.243-.64.002-.885zm-2.063 2.063c.244-.244.64-.245.884 0 .244.244.244.64 0 .884s-.641.244-.884 0c-.245-.245-.245-.64 0-.884zm5.721.03v.29c-.798.094-1.504.366-2.19 1.054-.688.688-.962 1.395-1.056 2.191h-.289c-.175-.838-.107-1.993.718-2.818.825-.824 1.979-.891 2.817-.717zm6.405-9.281c-1.646-1.645-3.297-2.328-4.667-2.328-.972 0-1.801.343-2.388.93l-13.657 13.657c-.587.586-.93 1.416-.93 2.388 0 1.37.683 3.021 2.328 4.667 1.669 1.668 3.332 2.358 4.707 2.358.97 0 1.796-.343 2.381-.928l13.656-13.656c.585-.585.928-1.411.928-2.381 0-1.375-.69-3.038-2.358-4.707zm-1.414 1.414c1.848 1.848 2.116 3.574 1.431 4.26l-2.829 2.828-5.656-5.656 2.828-2.829c.685-.686 2.399-.429 4.226 1.397zm-2.813 8.502l-5.171 5.171-5.656-5.656 5.171-5.171 5.656 5.656zm-13.673 7.984c-1.826-1.826-2.083-3.541-1.397-4.227l2.829-2.828 5.656 5.656-2.828 2.829c-.686.686-2.412.417-4.26-1.43zm1.961-4.05c-.293.293-.768.293-1.061 0s-.293-.768 0-1.061c.293-.292.768-.293 1.061 0s.293.769 0 1.061zm3.183 2.122c-.293-.293-.769-.293-1.061 0-.293.293-.293.768 0 1.061.292.292.768.293 1.061 0 .292-.294.292-.769 0-1.061zm-1.591-1.592c-.293-.293-.769-.293-1.061 0-.293.293-.293.768 0 1.061s.768.293 1.061 0c.292-.293.293-.768 0-1.061zm-3.006.885c-.293.292-.768.293-1.061 0s-.293-.769 0-1.061c.293-.293.768-.293 1.061 0s.293.768 0 1.061zm3.182 2.121c-.293-.293-.768-.293-1.061 0-.292.293-.293.768 0 1.061s.769.293 1.061 0c.293-.294.293-.768 0-1.061zm-1.591-1.592c-.292-.292-.768-.293-1.061 0-.292.293-.292.769 0 1.061.293.293.769.293 1.061 0 .293-.293.293-.768 0-1.061zm11.713-13.833c-.293.293-.768.293-1.061 0s-.293-.768 0-1.061c.292-.293.768-.293 1.061 0s.292.768 0 1.061zm3.181 2.121c-.293-.293-.768-.292-1.061 0-.293.293-.293.768 0 1.061s.768.293 1.061 0c.293-.292.293-.768 0-1.061zm-1.591-1.591c-.292-.292-.768-.292-1.061 0-.293.293-.292.769 0 1.061.293.293.768.293 1.061 0 .293-.292.293-.768 0-1.061zm-3.005.884c-.292.293-.768.293-1.061 0s-.292-.768 0-1.061c.293-.293.769-.293 1.062 0s.292.768-.001 1.061zm3.182 2.121c-.293-.293-.768-.292-1.061.001-.293.292-.293.768 0 1.061.292.292.768.292 1.061 0 .293-.293.293-.769 0-1.062zm-1.591-1.591c-.292-.292-.768-.292-1.061.001-.293.292-.293.768 0 1.061s.768.292 1.061 0c.293-.293.293-.769 0-1.062z"/></svg>