<svg xmlns="http://www.w3.org/2000/svg" width="24" height="24" viewBox="0 0 24 24"><path d="M16.396 4.916c.244.244.244.641 0 .885s-.641.244-.885 0c-.243-.244-.243-.641 0-.884.244-.244.64-.244.885-.001zm-7.945 14.153c.244-.244.243-.64 0-.884-.244-.244-.641-.244-.885 0s-.244.64 0 .884c.245.243.641.244.885 0zm12.096-12.107c.244-.244.244-.641 0-.884-.244-.244-.639-.244-.883 0s-.244.64 0 .884c.243.244.639.244.883 0zm-2.651-2.652c.244-.244.243-.64 0-.883-.243-.244-.64-.244-.884 0s-.244.64 0 .883c.244.244.639.244.884 0zm-1.059 1.932c-.244.244-.244.641 0 .885s.641.243.884 0c.244-.244.245-.641.001-.885s-.641-.244-.885 0zm2.21 2.211c.244-.244.244-.641.001-.885-.244-.244-.641-.244-.885 0s-.244.641 0 .885c.244.243.641.243.884 0zm.174-2.817c.244-.244.244-.64 0-.884-.243-.243-.639-.244-.883 0s-.244.64 0 .884.639.244.883 0zm-15.807 11.394c-.244.244-.244.641 0 .884.243.243.639.244.883 0s.244-.641.001-.884c-.243-.244-.64-.244-.884 0zm1.325 1.326c-.244.244-.243.64 0 .883.244.244.64.244.884 0s.244-.64 0-.884c-.243-.243-.64-.243-.884.001zm.176-2.823c-.244.244-.243.641 0 .885.243.243.64.244.884 0s.244-.641 0-.885c-.244-.243-.64-.244-.884 0zm2.21 2.21c.244-.244.244-.64 0-.884s-.641-.244-.885 0-.243.641 0 .884c.244.244.641.244.885 0zm-1.06 1.939c-.244.244-.244.639 0 .883.243.244.64.244.884 0s.244-.641 0-.884c-.244-.244-.639-.243-.884.001zm2.706 3.323c-.623.623-1.498.995-2.502.995-1.274 0-2.758-.599-4.2-2.041-1.464-1.462-2.069-2.957-2.069-4.238 0-1.002.371-1.873.992-2.494l14.237-14.233c.624-.623 1.499-.994 2.502-.994 1.274 0 2.759.599 4.2 2.041 1.464 1.462 2.069 2.958 2.069 4.238 0 1.002-.371 1.874-.992 2.495l-14.237 14.231zm4.643-17.369l4.95 4.949 3.229-3.226c.681-.682.636-2.193-1.076-3.904-1.614-1.615-3.171-1.748-3.874-1.046l-3.229 3.227zm-1.414 11.313l4.949-4.949-4.949-4.949-4.949 4.949 4.949 4.949zm-1.414 1.414l-4.95-4.948-3.229 3.226c-.681.682-.636 2.193 1.075 3.904 1.615 1.615 3.172 1.748 3.875 1.046l3.229-3.228zm8.718.968c.244-.244.244-.64 0-.884s-.639-.244-.883 0-.244.64 0 .884.64.243.883 0zm-13.588-10.948c.244-.244.244-.641 0-.885s-.641-.243-.884 0c-.243.244-.244.641 0 .885s.64.243.884 0zm9.878 9.899c-.243.244-.243.641 0 .884.244.244.641.244.885.001.244-.244.244-.641 0-.885s-.641-.244-.885 0zm3.537-1.767c.243-.244.243-.641-.001-.885-.243-.243-.64-.243-.884 0-.244.244-.244.641 0 .885s.641.244.885 0zm-1.326 1.326c.244-.244.243-.641-.001-.885-.243-.243-.64-.244-.884 0s-.244.641 0 .885.641.244.885 0zm.174 2.815c.243-.243.244-.639 0-.883s-.64-.244-.884 0c-.244.243-.244.639 0 .883s.64.244.884 0zm-9.611-14.925c.243-.244.244-.64 0-.884s-.641-.243-.885 0c-.244.244-.244.64 0 .884s.641.244.885 0zm12.473 7.33l-1.415 1.415 2.168 2.165c.681.682.636 2.193-1.076 3.904-1.614 1.615-3.171 1.748-3.874 1.046l-2.168-2.167-1.414 1.414 2.168 2.168c.623.623 1.498.994 2.501.994 1.274 0 2.759-.599 4.2-2.041 1.464-1.462 2.069-2.958 2.069-4.238 0-1.002-.371-1.874-.992-2.495l-2.167-2.165zm-.211 4.944c.244-.243.244-.64 0-.884s-.64-.244-.883 0c-.244.244-.244.64 0 .884s.639.244.883 0zm-17.299-12.002c-.244.243-.244.64 0 .884s.641.244.884 0c.243-.243.243-.64-.001-.884s-.64-.243-.883 0zm2.826.17c-.243.243-.244.64 0 .884s.641.244.885 0 .244-.64 0-.884-.641-.244-.885 0zm-2.998 4.766l1.415-1.415-2.167-2.165c-.68-.682-.636-2.193 1.075-3.904 1.615-1.615 3.172-1.748 3.875-1.046l2.168 2.167 1.414-1.414-2.168-2.167c-.623-.623-1.498-.995-2.502-.995-1.274 0-2.758.599-4.2 2.041-1.464 1.462-2.069 2.957-2.069 4.238 0 1.002.371 1.873.992 2.494l2.167 2.166zm2.381-5.377c.244-.244.244-.64 0-.884s-.64-.244-.884 0c-.243.243-.244.639 0 .883s.641.244.884.001zm.442-2.21c-.244.244-.244.639 0 .883s.64.245.884.001c.244-.243.244-.64 0-.884s-.64-.245-.884 0z"/></svg>