<svg xmlns="http://www.w3.org/2000/svg" width="24" height="24" viewBox="0 0 24 24"><path d="M.992 15.227c-.621.621-.992 1.492-.992 2.494 0 1.281.605 2.776 2.068 4.238 1.443 1.442 2.926 2.041 4.201 2.041 1.005 0 1.88-.372 2.503-.995l14.236-14.232c.621-.621.992-1.492.992-2.494 0-1.28-.605-2.775-2.068-4.238-1.442-1.442-2.926-2.041-4.201-2.041-1.004 0-1.879.371-2.502.994l-14.237 14.233zm15.46-12.615c.343-.343.899-.343 1.242 0 .342.342.346.899 0 1.242-.344.344-.899.344-1.242 0-.344-.342-.344-.898 0-1.242zm-2.113 2.097c.343-.343.902-.343 1.246-.001.342.343.342.901 0 1.245-.344.343-.903.343-1.246 0-.342-.344-.342-.902 0-1.244zm-9.646 9.598c.344-.343.9-.342 1.243 0 .344.344.344.901 0 1.245-.343.344-.9.342-1.243 0-.341-.344-.342-.902 0-1.245zm-.869 3.348c-.344.343-.899.342-1.242 0-.343-.342-.343-.9 0-1.243.344-.344.901-.344 1.243 0 .343.342.343.9-.001 1.243zm1.865 1.865c-.343.343-.899.343-1.243 0-.342-.342-.344-.898 0-1.242.344-.343.901-.343 1.243-.001.344.343.344.899 0 1.243zm1.866 1.865c-.343.343-.9.343-1.243 0s-.343-.898 0-1.242c.344-.343.9-.345 1.243-.001.343.342.343.9 0 1.243zm.248-3.969c-.344.343-.901.343-1.245 0-.342-.342-.343-.9 0-1.243.344-.343.901-.343 1.245 0 .343.343.343.899 0 1.243zm1.865 1.865c-.344.344-.901.342-1.245 0-.343-.343-.343-.899 0-1.243.344-.343.901-.343 1.245 0 .342.343.344.9 0 1.243zm2.332-2.332l-4.949-4.949 4.949-4.949 4.949 4.949-4.949 4.949zm5.448-9.131c-.342.342-.9.343-1.243 0-.344-.343-.344-.901 0-1.245.343-.344.901-.344 1.245 0 .344.344.343.902-.002 1.245zm1.865 1.866c-.342.342-.898.342-1.242 0-.344-.343-.344-.901 0-1.244.344-.345.9-.345 1.245 0 .341.343.341.9-.003 1.244zm.247-3.964c-.345.343-.899.343-1.242 0-.345-.344-.345-.9 0-1.243.343-.343.9-.342 1.242 0 .342.343.342.899 0 1.243zm1.866 1.866c-.345.343-.901.343-1.244 0-.342-.344-.342-.9 0-1.244.344-.343.899-.343 1.244 0 .343.343.343.9 0 1.244zm-18.267 3.353l7.78-7.777-2.168-2.168c-.624-.623-1.499-.994-2.502-.994-1.274 0-2.759.599-4.2 2.041-1.464 1.462-2.069 2.958-2.069 4.238 0 1.002.371 1.874.992 2.495l2.167 2.165zm3.147-8.327c.343-.343.899-.343 1.242 0 .344.343.344.9 0 1.242-.343.344-.898.344-1.242 0-.346-.343-.342-.899 0-1.242zm-1.866 1.865c.342-.342.899-.343 1.242 0 .345.343.345.899 0 1.243-.343.343-.897.343-1.242 0-.342-.344-.342-.9 0-1.243zm-1.866 1.865c.345-.343.9-.343 1.244 0 .342.344.342.9 0 1.244-.343.343-.899.343-1.244 0-.343-.344-.343-.901 0-1.244zm18.267 6.719l-7.78 7.778 2.168 2.167c.623.622 1.498.994 2.502.994 1.274 0 2.758-.599 4.2-2.041 1.464-1.462 2.069-2.957 2.069-4.238 0-1.002-.371-1.873-.992-2.494l-2.167-2.166zm-3.153 8.324c-.343.343-.9.343-1.243 0-.344-.343-.344-.901 0-1.243.343-.343.899-.342 1.243.001.343.343.343.899 0 1.242zm1.866-1.865c-.344.343-.9.343-1.243 0-.344-.344-.344-.9 0-1.243.342-.342.899-.342 1.243.001.343.343.342.899 0 1.242zm1.864-1.865c-.343.342-.898.343-1.242 0s-.344-.901-.001-1.243c.342-.344.899-.344 1.243 0 .343.343.343.901 0 1.243z"/></svg>