<svg xmlns="http://www.w3.org/2000/svg" width="24" height="24" viewBox="0 0 24 24"><path d="M15 13.104c.002-.802-.401-1.772-1.374-2.746-.96-.96-1.924-1.357-2.724-1.358-.566 0-1.05.201-1.392.542l-7.967 7.968c-.342.342-.543.827-.543 1.392 0 .799.399 1.763 1.358 2.721.974.975 1.945 1.377 2.746 1.377.565.001 1.049-.2 1.388-.541l7.968-7.965c.342-.343.54-.825.54-1.39zm-1.431-.197c.228.228.228.597 0 .825-.228.228-.597.227-.824 0-.229-.229-.229-.597 0-.825.228-.227.596-.228.824 0zm-1.237 1.238c.229.227.229.597 0 .825-.228.227-.598.228-.825 0-.229-.229-.227-.598 0-.825.228-.228.597-.228.825 0zm-.001-2.476c.229.229.228.597.001.824-.229.229-.597.229-.826.001-.227-.228-.226-.597.001-.826.228-.226.597-.226.824.001zm-1.237 1.238c.229.229.228.597.001.825-.228.228-.597.229-.826 0-.227-.228-.226-.597.002-.825.227-.227.596-.227.823 0zm.001-2.474c.227.227.228.597 0 .824-.227.229-.599.229-.824 0-.229-.227-.228-.597 0-.825s.596-.227.824.001zm-1.237 1.236c.226.228.227.598 0 .825-.228.228-.6.228-.826 0-.228-.228-.227-.598.001-.826.227-.226.597-.226.825.001zm-7.426 7.425c-.229-.228-.229-.597 0-.825.228-.228.597-.228.825 0 .228.228.228.597 0 .825-.229.228-.597.227-.825 0zm1.237-1.237c-.228-.228-.228-.597 0-.825s.597-.228.825 0c.228.228.228.598 0 .826-.228.226-.598.226-.825-.001zm.001 2.474c-.228-.227-.229-.597-.001-.824.228-.229.599-.228.825 0 .228.227.228.597 0 .825-.228.228-.598.227-.824-.001zm1.236-1.237c-.227-.228-.228-.597 0-.825.228-.228.599-.227.825 0 .228.228.228.598 0 .826-.227.227-.597.226-.825-.001zm0 2.474c-.228-.227-.228-.596 0-.824.228-.229.598-.229.825 0s.228.597 0 .826c-.227.227-.597.227-.825-.002zm1.238-1.236c-.228-.228-.228-.597 0-.825.229-.228.598-.228.825 0 .228.228.228.598.002.824-.23.229-.599.229-.827.001zm2.001-1.173l-3.302-3.299 3.017-3.016 3.301 3.299-3.016 3.016zm8.33-5.776l.025-.279c.002-.904-.311-2.303-1.813-3.806-.973-.973-1.904-1.438-2.687-1.646v-2.586c2.233 1.389 4.609 2.13 6.649 2.519-.435 2.215-1.238 4.144-2.174 5.798zm6.525-9.383c0 8.583-5.068 16.097-11 20-.952-.627-1.878-1.356-2.769-2.158l1.417-1.417c.449.403.901.781 1.352 1.124 4.021-3.062 8.254-8.603 8.912-15.656-2.455-.245-5.947-1.011-8.912-3.249-2.965 2.238-6.457 3.004-8.912 3.25.213 2.276.801 4.391 1.63 6.319l-1.5 1.5c-1.379-2.953-2.218-6.242-2.218-9.713 3.514 0 8.005-1.005 11-4 2.995 2.995 7.486 4 11 4z"/></svg>