<svg xmlns="http://www.w3.org/2000/svg" width="24" height="24" viewBox="0 0 24 24"><path d="M24 13.104c.001-.802-.402-1.772-1.375-2.746-.96-.961-1.923-1.358-2.723-1.358-.566 0-1.051.201-1.393.542l-7.967 7.967c-.342.343-.541.826-.542 1.393 0 .799.398 1.762 1.358 2.722.974.973 1.945 1.376 2.746 1.376.566 0 1.049-.2 1.389-.541l7.967-7.966c.341-.342.54-.824.54-1.389zm-1.431-.197c.228.227.228.597 0 .825-.229.228-.598.228-.825 0s-.228-.597 0-.825.597-.228.825 0zm-1.237 1.237c.228.227.228.597 0 .825-.229.228-.598.228-.825 0-.228-.228-.228-.597 0-.825s.597-.228.825 0zm0-2.475c.228.228.228.597 0 .825-.229.228-.598.228-.825 0-.228-.227-.228-.597 0-.825.227-.228.597-.228.825 0zm-1.237 1.237c.228.228.227.598 0 .825-.229.228-.598.229-.826 0-.227-.228-.227-.598.001-.825s.596-.227.825 0zm0-2.474c.228.228.228.597 0 .825-.229.228-.598.228-.825 0s-.228-.597 0-.825c.227-.228.596-.228.825 0zm-1.238 1.237c.228.228.227.598 0 .825-.229.228-.598.229-.826 0-.228-.228-.227-.598.001-.825s.597-.228.825 0zm-7.424 7.424c-.229-.228-.229-.597 0-.825.228-.228.597-.228.824 0 .229.228.229.597 0 .825-.228.228-.597.228-.824 0zm1.237-1.237c-.229-.228-.229-.597 0-.825.228-.228.597-.228.824 0 .229.228.229.597 0 .825-.227.228-.597.228-.824 0zm0 2.475c-.229-.227-.229-.597 0-.825.228-.228.597-.228.824 0 .229.228.229.597 0 .825-.227.228-.597.228-.824 0zm1.236-1.238c-.228-.227-.228-.597 0-.825.229-.228.598-.228.825 0 .228.228.228.597 0 .825s-.596.228-.825 0zm0 2.475c-.228-.228-.228-.597 0-.825.229-.228.598-.228.825 0 .228.227.228.597 0 .825-.227.228-.596.228-.825 0zm1.239-1.237c-.229-.228-.228-.598 0-.825s.597-.228.825 0c.228.228.228.598 0 .825-.229.228-.598.228-.825 0zm1.999-1.172l-3.301-3.3 3.017-3.016 3.3 3.3-3.016 3.016zm-8.492.841h-6.652v-13h18v.504c.537.013 1.227.139 2 .536v-7.04h-22v21h9.694c-.569-.722-.883-1.403-1.042-2zm10.348-17c.553 0 1 .448 1 1s-.447 1-1 1-1-.448-1-1 .447-1 1-1zm-3 0c.553 0 1 .448 1 1s-.447 1-1 1-1-.448-1-1 .447-1 1-1zm-3 0c.553 0 1 .448 1 1s-.447 1-1 1-1-.448-1-1 .447-1 1-1zm9 15.073v3.927h-3.928l3.928-3.927z"/></svg>