<svg xmlns="http://www.w3.org/2000/svg" width="24" height="24" viewBox="0 0 24 24"><path d="M24 7.192c0 4.661-5.57 9.427-12 15.808-.851-.844-1.677-1.65-2.486-2.44l1.415-1.415 1.071 1.047c5.256-5.149 10-9.558 10-13 0-2.873-2.216-4.182-4.274-4.182-3.257 0-4.976 3.475-5.726 5.021-.747-1.54-2.484-5.03-5.72-5.031-2.315-.001-4.28 1.516-4.28 4.192 0 1.398.794 2.96 2.077 4.663l-1.431 1.431c-1.639-2.126-2.646-4.12-2.646-6.094 0-4.005 3.098-6.192 6.281-6.192 2.197 0 4.434 1.042 5.719 3.248 1.279-2.195 3.521-3.238 5.726-3.238 3.177 0 6.274 2.171 6.274 6.182zm-10.539 7.301l-7.968 7.965c-.339.341-.822.542-1.388.541-.802 0-1.772-.402-2.746-1.376-.959-.958-1.358-1.922-1.358-2.721 0-.565.201-1.051.543-1.392l7.967-7.968c.342-.342.826-.543 1.392-.543.8.001 1.764.398 2.724 1.358.973.973 1.376 1.943 1.374 2.746 0 .565-.198 1.047-.54 1.39zm-1.715-1.587c-.229.228-.229.597 0 .825.228.227.597.228.824 0 .228-.229.228-.598 0-.825-.228-.228-.596-.227-.824 0zm-1.238 1.238c-.227.227-.229.596 0 .825.228.228.598.227.825 0 .229-.228.229-.598 0-.825-.229-.228-.597-.228-.825 0zm0-2.476c-.227.229-.228.598-.001.826.229.228.598.228.826-.001.227-.227.229-.596-.001-.824-.227-.228-.596-.228-.824-.001zm-1.237 1.238c-.228.228-.229.598-.002.825.229.229.599.227.826 0 .227-.228.228-.596-.001-.825-.226-.227-.595-.227-.823 0zm0-2.475c-.228.228-.229.598 0 .825.226.228.598.228.824 0 .228-.227.227-.597 0-.824-.227-.228-.596-.228-.824-.001zm-1.237 1.237c-.228.228-.229.598-.001.826.227.227.599.227.826 0 .227-.228.226-.597 0-.825-.228-.228-.598-.228-.825-.001zm-5.776 7.425c.228-.228.228-.597 0-.825-.229-.228-.598-.228-.825 0-.229.228-.229.597 0 .825.228.227.596.228.825 0zm1.237-1.237c.228-.228.228-.598 0-.826-.229-.228-.598-.228-.825 0s-.228.597 0 .825c.227.228.597.228.825.001zm0 2.475c.228-.228.228-.598 0-.825-.227-.228-.598-.229-.825 0-.228.227-.227.598.001.824.226.228.596.229.824.001zm1.237-1.237c.228-.228.228-.598 0-.826-.227-.227-.598-.228-.825 0-.228.228-.227.598 0 .825.228.227.598.228.825.001zm0 2.475c.228-.229.228-.598 0-.826s-.598-.228-.825 0c-.228.228-.228.597 0 .824.228.229.598.229.825.002zm1.24-1.239c.226-.226.226-.596-.002-.824-.228-.228-.597-.228-.825 0-.228.228-.228.597 0 .825.228.228.597.228.827-.001zm4.189-4.188l-3.301-3.299-3.017 3.016 3.302 3.299 3.016-3.016z"/></svg>