<svg xmlns="http://www.w3.org/2000/svg" width="24" height="24" viewBox="0 0 24 24"><path d="M21.643 2.328c-1.647-1.646-3.298-2.328-4.668-2.328-.971.001-1.801.344-2.387.93l-13.657 13.657c-.588.587-.931 1.417-.931 2.387 0 1.37.683 3.021 2.329 4.667 1.668 1.669 3.332 2.359 4.707 2.359.97 0 1.795-.343 2.38-.928l13.656-13.656c.586-.586.928-1.411.928-2.381 0-1.375-.69-3.038-2.357-4.707zm-1.415 1.414c1.849 1.848 2.116 3.574 1.431 4.26l-2.829 2.828-5.657-5.657 2.828-2.828c.687-.687 2.4-.429 4.227 1.397zm-2.812 8.502l-5.171 5.171-5.657-5.657 5.171-5.171 5.657 5.657zm-13.673 7.983c-1.826-1.827-2.083-3.541-1.398-4.227l2.829-2.828 5.657 5.657-2.829 2.829c-.685.686-2.412.418-4.259-1.431zm7.198-9.286c-.293.293-.768.293-1.061 0-.293-.295-.293-.768 0-1.061.293-.292.768-.293 1.061 0 .293.294.293.769 0 1.061zm3.183 2.122c-.292-.294-.769-.294-1.062-.001-.292.293-.292.768.001 1.062.292.29.768.293 1.061 0 .292-.294.292-.769 0-1.061zm-1.591-1.591c-.293-.294-.77-.294-1.061 0-.293.293-.293.767 0 1.06.293.294.768.294 1.061 0 .292-.294.293-.767 0-1.06zm-.178-1.947c-.293.293-.768.292-1.061 0-.293-.293-.293-.768 0-1.061s.768-.293 1.061 0c.292.293.293.768 0 1.061zm3.182 2.121c-.293-.293-.768-.292-1.061 0-.293.293-.293.768 0 1.061s.768.293 1.061 0c.293-.292.293-.768 0-1.061zm-1.59-1.591c-.293-.292-.77-.292-1.062.001-.292.292-.292.769 0 1.061.294.292.769.293 1.062.001.291-.295.293-.77 0-1.063zm-4.42 2.301c-.293.292-.768.292-1.061 0-.293-.293-.293-.769 0-1.061.293-.293.768-.293 1.061 0 .293.293.293.768 0 1.061zm3.182 2.121c-.294-.293-.768-.293-1.061 0s-.292.768 0 1.061c.293.294.769.294 1.061 0 .293-.294.293-.767 0-1.061zm-1.591-1.592c-.291-.291-.768-.293-1.061 0-.291.294-.291.77 0 1.061.293.293.769.293 1.061 0 .293-.294.293-.768 0-1.061z"/></svg>