<svg xmlns="http://www.w3.org/2000/svg" width="24" height="24" viewBox="0 0 24 24"><path d="M24 7.034c0-1.375-.69-3.038-2.358-4.707-1.646-1.646-3.297-2.328-4.667-2.328-.971 0-1.801.344-2.387.93l-13.657 13.658c-.587.586-.93 1.416-.931 2.387 0 1.37.683 3.021 2.329 4.667 1.669 1.668 3.333 2.358 4.707 2.358.97 0 1.796-.343 2.381-.928l13.656-13.656c.585-.586.927-1.411.927-2.381zm-2.453-.338c.39.39.391 1.023 0 1.414s-1.024.39-1.414 0c-.391-.391-.391-1.023 0-1.414s1.023-.39 1.414 0zm-2.121 2.121c.39.39.39 1.023 0 1.414-.391.391-1.024.391-1.415 0s-.39-1.023 0-1.414c.391-.39 1.024-.39 1.415 0zm-.001-4.243c.391.391.391 1.023 0 1.414s-1.023.391-1.414 0c-.39-.39-.391-1.023 0-1.414s1.024-.389 1.414 0zm-2.121 2.121c.391.391.39 1.024 0 1.414-.39.391-1.024.392-1.414.001-.39-.391-.39-1.024 0-1.415.39-.389 1.024-.389 1.414 0zm0-4.242c.391.391.391 1.023 0 1.414s-1.023.391-1.414 0-.391-1.023 0-1.414 1.024-.391 1.414 0zm-2.121 2.121c.391.391.39 1.024 0 1.414-.391.391-1.024.392-1.415.001s-.39-1.024 0-1.415c.391-.389 1.024-.39 1.415 0zm-12.728 12.728c-.391-.391-.391-1.023 0-1.414s1.023-.391 1.414 0 .391 1.023 0 1.414-1.023.39-1.414 0zm2.121-2.121c-.391-.391-.39-1.023 0-1.414s1.023-.391 1.414 0 .39 1.023 0 1.414c-.39.39-1.023.39-1.414 0zm0 4.242c-.39-.39-.391-1.023 0-1.414s1.024-.39 1.414 0c.391.391.391 1.023 0 1.414s-1.023.39-1.414 0zm2.121-2.121c-.39-.39-.39-1.023 0-1.414s1.024-.391 1.414 0c.391.391.39 1.023 0 1.414-.39.39-1.023.39-1.414 0zm.001 4.243c-.391-.391-.391-1.023 0-1.414s1.023-.391 1.414 0c.39.39.391 1.023 0 1.414s-1.024.39-1.414 0zm2.121-2.121c-.391-.391-.39-1.024 0-1.415.39-.39 1.023-.391 1.414 0 .39.391.39 1.024 0 1.414-.39.39-1.024.39-1.414.001zm3.427-2.01l-5.657-5.657 5.17-5.17 5.657 5.656-5.17 5.171z"/></svg>