<svg xmlns="http://www.w3.org/2000/svg" width="24" height="24" viewBox="0 0 24 24"><path d="M8.771 23.006c-.623.622-1.498.995-2.501.994-1.275.001-2.758-.599-4.201-2.04-1.463-1.463-2.069-2.959-2.069-4.238 0-1.002.371-1.873.992-2.494l14.238-14.234c.621-.622 1.498-.992 2.5-.994 1.275.002 2.76.599 4.201 2.042 1.464 1.462 2.069 2.957 2.069 4.237 0 1.003-.371 1.874-.992 2.495l-14.237 14.232zm4.643-17.369l4.949 4.948 3.23-3.225c.682-.682.635-2.193-1.076-3.904-1.613-1.615-3.17-1.749-3.875-1.047l-3.228 3.228zm-1.414 11.313l4.949-4.95-4.949-4.949-4.949 4.949 4.949 4.95zm-1.414 1.413l-4.95-4.948-3.229 3.227c-.681.681-.636 2.193 1.075 3.904 1.615 1.615 3.172 1.748 3.875 1.046l3.229-3.229zm10.256-5.302l-1.416 1.415 2.168 2.166c.682.682.637 2.192-1.076 3.904-1.615 1.615-3.17 1.747-3.875 1.045l-2.166-2.166-1.414 1.414 2.168 2.167c.623.624 1.498.995 2.502.994 1.273.001 2.758-.599 4.199-2.04 1.463-1.463 2.068-2.958 2.068-4.238 0-1.002-.371-1.873-.992-2.494l-2.166-2.167zm-17.682-2.122l1.414-1.415-2.166-2.165c-.681-.682-.637-2.194 1.074-3.905 1.615-1.615 3.172-1.746 3.876-1.045l2.167 2.167 1.414-1.413-2.168-2.168c-.623-.623-1.498-.994-2.502-.995-1.274.001-2.757.599-4.2 2.04-1.464 1.463-2.069 2.957-2.069 4.239 0 1.003.371 1.874.992 2.493l2.168 2.167zm10.61 2.832c.244-.244.244-.639 0-.885-.244-.244-.641-.243-.885.001s-.244.64 0 .884c.244.242.64.244.885 0zm-5.038-2.041c-.244.244-.244.641 0 .884.242.243.639.244.883 0s.244-.641.001-.885c-.243-.242-.639-.242-.884.001zm1.325 1.327c-.243.243-.242.641.001.884.245.244.64.244.884 0s.245-.641 0-.885c-.243-.243-.64-.244-.885.001zm.177-2.823c-.244.244-.244.641-.001.884s.64.244.884 0 .244-.641 0-.884-.638-.244-.883 0zm2.209 2.21c.244-.244.244-.64 0-.885-.244-.243-.641-.243-.885.001s-.242.641 0 .884c.245.244.641.244.885 0zm2.825-.173c.244-.244.246-.639 0-.883-.244-.245-.639-.244-.883 0s-.246.639 0 .884c.242.243.638.243.883-.001zm-3.536-3.536c-.244.244-.242.641 0 .885.242.242.64.244.885-.001.243-.243.243-.64 0-.884-.245-.244-.64-.244-.885 0zm2.209 2.209c.244-.244.246-.639 0-.883-.242-.244-.639-.244-.883 0s-.244.641 0 .884c.243.243.639.243.883-.001zm-2.557 3.438c-.245.245-.244.641 0 .885.243.242.64.243.884 0 .244-.244.244-.642 0-.885-.245-.244-.641-.243-.884 0z"/></svg>