<svg width="24" height="24" xmlns="http://www.w3.org/2000/svg" fill-rule="evenodd" clip-rule="evenodd"><path d="M8.801 9l-2.602-6h3.688l6.182 6c1.373 0 2.93-.012 4.303.001 1.622.057 3.628 1.465 3.628 2.996 0 1.557-2.038 2.97-3.67 3.003h-4.236l-6.208 6h-3.658l2.594-6h-3.506l-2.164 2h-3.152l1.742-4.998-1.742-5.002h3.142l2.149 2h3.51zm3.034 2l-7.205-.004-2.017-1.996 1.26 2.998-1.283 3.002 1.997-2h7.246l-2.472 5.727 5.924-5.727c1.633 0 3.452.077 5.082-.002.791-.058 1.615-.809 1.615-.996 0-.211-.915-.995-1.694-1.002h-5.03l-5.909-5.735"/></svg>