<svg width="24" height="24" xmlns="http://www.w3.org/2000/svg" fill-rule="evenodd" clip-rule="evenodd"><path d="M23 8c0-.552-.448-1-1-1h-12c-.552 0-1 .448-1 1v15c0 .552.448 1 1 1h12c.552 0 1-.448 1-1v-15zm-3 12h-8v1h8v-1zm-10-15c-1.657 0-3 1.343-3 3v11.583l-5.906-12.666c-.067-.143-.097-.295-.094-.443.008-.369.22-.719.578-.886l11.782-5.494c.136-.064.279-.094.421-.094.377 0 .738.213.908.578l2.062 4.422h-6.751zm7.082 10.667h-2.164c.309 1.234.849 2 1.082 2.333.233-.333.773-1.1 1.082-2.333zm2.555 0h-1.87c-.178.79-.487 1.555-.926 2.244 1.246-.267 2.276-1.114 2.796-2.244zm-5.404 0h-1.87c.52 1.13 1.55 1.977 2.796 2.244-.436-.685-.746-1.449-.926-2.244zm2.981-2.667h-2.427c-.097.662-.097 1.338 0 2h2.426c.097-.662.097-1.338.001-2zm-3.1 0h-1.988c-.082.32-.126.655-.126 1s.044.681.126 1h1.988c-.088-.663-.088-1.337 0-2zm5.76 0h-1.988c.088.663.088 1.337 0 2h1.988c.082-.319.126-.655.126-1s-.044-.68-.126-1zm-2.792-.667c-.267-1.067-.684-1.764-1.082-2.333-.233.333-.774 1.099-1.082 2.333h2.164zm-2.849 0c.188-.832.513-1.598.926-2.244-1.245.267-2.276 1.114-2.796 2.244h1.87zm5.404 0c-.52-1.13-1.551-1.977-2.796-2.244.422.661.74 1.423.926 2.244h1.87z"/></svg>