<svg width="24" height="24" xmlns="http://www.w3.org/2000/svg" fill-rule="evenodd" clip-rule="evenodd"><path d="M4.058 5.284c1.3.313 14.092 3.764 19.2 5.128.447.131.703.484.738.877.009.1 0 .198-.019.298-.863 3.579-1.906 7.115-2.86 10.673-.133.45-.49.702-.878.736-.101.01-.198.002-.298-.017-6.439-1.551-12.8-3.418-19.199-5.128-.456-.134-.704-.492-.738-.877-.009-.1 0-.199.018-.297.864-3.581 1.907-7.117 2.86-10.674.157-.525.631-.82 1.176-.719m-1.832 10.893l17.216 4.601 2.331-8.692c-4.785-1.279-17.215-4.599-17.215-4.599-.778 2.896-1.555 5.794-2.332 8.69m16.148 3.479l.258-.963-2.717-.717-.259.965 2.718.715zm-5.019-1.325l.966.262.444-1.658-.965-.262-.445 1.658zm5.708-1.328l.259-.965-2.718-.717-.26.965 2.719.717zm-12.949-3.539l2.176-.869-2-2 .689-.276 3.381 1.448 1.725-.689c.456-.185 1.173-.068 1.311.276l.023.18c-.028.338-.403.77-.782.924l-1.725.688-1.449 3.379-.691.275.07-2.827-2.177.869-.514 1.006-.484.192-.037-1.585-1.065-1.172.482-.193 1.067.374zm7.945 2.242l.966.262.503-1.875-.967-.261-.502 1.874zm5.449-.434l.259-.966-2.719-.716-.258.965 2.718.717zm.465-1.768l.259-.965-2.718-.717-.259.966 2.718.716zm-5.153-.638l.967.261.444-1.658-.966-.261-.445 1.658zm-7.641-8.495c4.259-1.125 8.533-2.2 12.788-3.337.143-.035.208-.035.299-.034.427.028.765.27.912.691.678 2.297 1.28 4.614 1.88 6.931l-2.256-.604-1.283-4.794-8.318 2.223-4.022-1.076z"/></svg>