<svg width="24" height="24" xmlns="http://www.w3.org/2000/svg" fill-rule="evenodd" clip-rule="evenodd"><path d="M1.916 6.723c1.532 1.538 3.813 3.221 5.791 4.147-1.597 1.158-3.19 1.908-4.707 2.13-.445 1.581.193 3.516 1.738 4.039.644.218 1.115.402 1.482.961 1.418 2.162 3.34 4 5.78 4 2.44 0 4.199-1.39 5.775-4 .233-.386.602-.665 1.487-.961 1.946-.651 2.447-2.916 1.738-4.039-1.522-.188-3.097-.965-4.681-2.137 1.934-.916 4.21-2.48 5.769-4.134 1.229 1.838 1.912 4.128 1.912 6.752 0 2.644-.73 5.332-1.784 7.609-.501 1.079-1.074 2.065-1.678 2.91l-3.504-2c-1.436 1.097-3.11 2-5.034 2-1.84 0-3.531-.9-4.992-2l-3.546 2c-.604-.845-1.177-1.831-1.678-2.91-1.054-2.277-1.784-4.965-1.784-7.609 0-2.626.685-4.918 1.916-6.758zm12.853 10.815c-.002.009-.71 2.173-2.769 2.173-1.984 0-2.766-2.164-2.769-2.173h5.538zm-5.769-5.538c-.637 0-1.154.619-1.154 1.385 0 .764.517 1.384 1.154 1.384.637 0 1.154-.62 1.154-1.384 0-.766-.517-1.385-1.154-1.385zm7.154 1.385c0 .764-.517 1.384-1.154 1.384-.637 0-1.154-.62-1.154-1.384 0-.766.517-1.385 1.154-1.385.637 0 1.154.619 1.154 1.385zm-1.154-13.385c2.102 1.238 4.691 3.331 6 5-2.267 2.222-6.002 4.995-9 5-2.998.005-6.603-2.746-9-5 1.434-1.699 3.946-3.779 6-5l3 2 3-2z"/></svg>