<svg width="24" height="24" xmlns="http://www.w3.org/2000/svg" fill-rule="evenodd" clip-rule="evenodd"><path d="M23 8c0-.552-.447-1-1-1h-12c-.552 0-1 .448-1 1v15c0 .553.448 1 1 1h12c.553 0 1-.447 1-1v-15zm-12 14h10v-13h-10v13zm2-2h6v-1h-6v1zm3.751-15h-2.207l-1.245-2.671-9.97 4.649 3.671 7.873v4.731l-5.906-12.665c-.064-.137-.094-.28-.094-.422 0-.376.214-.737.578-.907l11.781-5.494c.137-.064.281-.094.422-.094.377 0 .738.214.907.578l2.063 4.422zm-.751 5.086c2.208 0 4 1.792 4 4s-1.792 4-4 4-4-1.792-4-4 1.792-4 4-4m-1.587 5.331l.005.025c.121.53.27.968.542 1.488-.759-.28-1.327-.767-1.723-1.513h1.176zm2.255 0c-.147.575-.353 1.02-.668 1.504-.329-.5-.525-.951-.668-1.504h1.336zm2.094 0c-.391.736-1.001 1.241-1.717 1.502.26-.496.439-1.012.542-1.502h1.175zm.299-1.938h-1.361c.031.32.034.726.013 1.042h1.348c.056-.346.055-.696 0-1.042m-2.261 0h-1.601c-.037.364-.038.757-.013 1.042h1.628c.027-.342.02-.703-.014-1.042m-2.5 0h-1.361c-.056.346-.056.696 0 1.042h1.348c-.023-.368-.017-.667.01-1.016l.003-.026zm4.462-.896c-.398-.745-.999-1.245-1.748-1.513.247.485.413.97.539 1.492l.005.021h1.204zm-2.127 0c-.155-.565-.346-1.01-.635-1.497-.271.428-.507 1.011-.636 1.497h1.271zm-3.398 0h1.205c.117-.521.32-1.065.548-1.523-.772.273-1.353.772-1.753 1.523"/></svg>