<svg width="24" height="24" xmlns="http://www.w3.org/2000/svg" fill-rule="evenodd" clip-rule="evenodd"><path d="M20.012 18v2h-20v-2h20zm3.973-13.118c.154 1.349-.884 2.615-1.927 3.491-.877.735-9.051 6.099-9.44 6.307-1.756.936-3.332 1.306-4.646 1.32-1.36.014-2.439-.354-3.144-.872l-4.784-3.977 3.742-2.373 4.203 1.445.984-.578-4.973-3.645 3.678-2.124 7.992 1.545c.744-.445 1.482-.9 2.225-1.348 1.049-.623 2.056-1.055 3.387-1.055 1.321 0 2.552.52 2.703 1.864zm-4.341.512c-.419.192-3.179 1.882-3.615 2.144l-8.01-1.55-.418.241 5.288 3.307-4.683 2.876-4.214-1.448-.69.395c.917.729 1.787 1.522 2.751 2.186 1.472.962 4.344.22 5.685-.663.9-.592 7.551-4.961 8.436-5.582.605-.431 1.797-1.414 1.824-2.152l.001-.004c-.644-.287-1.716-.041-2.355.25z"/></svg>