<svg width="24" height="24" xmlns="http://www.w3.org/2000/svg" fill-rule="evenodd" clip-rule="evenodd"><path d="M0 13c.002-1.366.619-2.93 2.075-3.521-.726-1.435-1.752-2.587-.327-3.88 2.454-2.226 6.792-5.599 10.252-5.599 3.46 0 7.9 3.431 10.211 5.57 1.597 1.478.607 2.275-.286 3.909 1.525.596 2.075 2.105 2.075 3.521 0 2.232-1.094 4.349-3.139 5.218-2.063 3.295-4.987 5.782-8.861 5.782-3.742 0-6.846-2.563-8.862-5.782-2.034-.864-3.141-2.915-3.138-5.218zm14.4 5h-4.8c.005.015.684 1.883 2.4 1.883 1.781 0 2.395-1.868 2.4-1.883zm7.593-5.356c-.02.005-.7.54-1.777.229-1.54-.444-3.52-1.511-8.216-1.498-4.695-.013-6.678 1.048-8.216 1.498-.687.186-1.305.119-1.774-.199-.152 1.313.416 3.207 2.123 3.785.223.075.413.228.536.43.655 1.085 1.354 1.98 2.085 2.722.923.633 1.056-1.875 1.668-2.721.686-.949 2.454-1.126 3.578-.322 1.123-.804 2.892-.627 3.578.322.611.846.745 3.354 1.667 2.72.732-.741 1.43-1.636 2.086-2.721.123-.202.312-.355.536-.43 1.702-.577 2.299-2.496 2.126-3.815zm-13.243-.644c-.69 0-1.25.671-1.25 1.5 0 .828.56 1.5 1.25 1.5s1.25-.672 1.25-1.5c0-.829-.56-1.5-1.25-1.5zm7.75 1.5c0 .828-.56 1.5-1.25 1.5s-1.25-.672-1.25-1.5c0-.829.56-1.5 1.25-1.5s1.25.671 1.25 1.5zm3.993-5.037c-5.415-1.943-11.54-2.028-16.919 0l.758 1.537c4.61-1.469 10.65-1.504 15.295 0l.866-1.537zm-7.057-5.463c-.316-.453-.842-.75-1.436-.75s-1.12.297-1.436.75h-3.079l1.515 2h1.564c.316.453.842.75 1.436.75s1.12-.297 1.436-.75h1.57l1.499-2h-3.069z"/></svg>