<svg width="24" height="24" xmlns="http://www.w3.org/2000/svg" fill-rule="evenodd" clip-rule="evenodd"><path d="M12.716 9.927l5.403 1.661 2.447-1.245c1.325-.595 3.421-.105 3.434 1.45.009.856-.595 1.927-1.495 2.425l-2.405 1.225-1.836 5.361-2.493 1.196-.263-4.219-1.707.869-.674 1.809-2.19 1.022-.465-3.566-2.617-2.554 2.126-1.093 1.839.527 1.709-.87-3.289-2.73 2.476-1.268zm-3.612 10.639c-4.86 1.436-8.711-3.301-9.104-5.566 1.498 1.65 4.118 2.901 7.188 2.084l1.111 1.085c-1.034.424-2.599.681-3.932.407 1.385.872 2.688 1.133 4.562.653l.175 1.337zm13.177-8.665c-.14-.06-.656-.194-.961-.02l-3.068 1.559-5.094-1.767 3.428 2.615-4.463 2.275-1.616-.704 1.465 1.321.085 1.839.566-1.667 4.289-2.124.221 3.92 1.562-4.865s2.713-1.424 3.104-1.637c.372-.204.482-.745.482-.745m-22.268.61l-.013-.511c0-5.522 4.477-10 10-10 4.462 0 8.243 2.924 9.529 6.961 0 0-1.078.561-1.576.815-.055-.113-4.737-1.474-4.737-1.474-.372-.112-.75-.137-1.372.161l-.271-.404c-.096-.063-.844-.588-.64-.245l.657.654c-.032.022-.172-.239-.172-.048.027-.074.026.152-.007.265l-.073.037-.008-.014c-.045-.074.074-.115.005-.223 0-.071-.188-.14-.226-.188-.105-.129-.381-.414-.531-.483-.042-.019-.637.073-.687.092l-.149.259c-.124.046-.239.105-.349.179l-.131.293c-.058.051-.638.243-.641.25.025-.063-.406-.143-.378-.268.032-.137.178-.566.14-.723-.04-.165.895.237.957-.197.023-.186.037-.405-.262-.437.056.006.579-.205.665-.3.122-.14.401-.369.604-.369.237 0 .185-.344.294-.513.109.044-.058.313.073.423-.009-.086.37.047.407.027.088-.046.571-.019.496-.247-.084-.23.042-.162.151-.21-.02.007.282-.516.335-.344-.036-.177-.351.061-.461.053-.253-.021-.147-.434-.05-.555.074-.096-.203-.213-.206-.03-.005.274-.26.522-.202.887.092.55-.612-.132-.673-.095-.233.141-.424-.178-.303-.371.123-.195.42-.185.543-.395.086-.149.187-.321.321-.434.446-.374.569-.074 1.012-.034.436.04.147.104.088.27-.058.159.238.215.341.083.057-.077.191-.269.248-.412.074-.185.751-.164.278-.447-.311-.185-1.67-.56-2.58-.56-.196 0-.334.219-.484.344-.297.246-1.055.728-1.479.582-.432-.15-1.358.549-1.507.555-.055.002.002-.53.298-.568-.129.018 1.039-.59 1.008-.717-.039-.15-2.333.685-2.231.854.048.075.25.075-.013.245-.15.089-.311.666-.452.666-.421.184-.447-.362-.915.341l-.745.301c-1.106 1.175-1.872 2.664-2.15 4.319-.011.066.279.187.316.233.093.112.093.594.139.751.116.398.399.62.617.982.128.216.342.762.274.989.091-.148.893.679 1.039.852.303.357.546.78.217 1.151-2.727-.374-4.378-3.058-4.378-3.058m7.265 1.234c-.682-.452-.875-1.46-.632-2.23.031-.159-.095-.452-.04-.574.131-.294.401-.623.635-.846.132-.125.301-.093.456-.19.239-.15.242-.46.477-.65.333-.272.788-.266 1.223-.324.232-.031 1.113-.222 1.253-.05l.041.173-1.225.627c-.908.498-1.143 1.516-.75 2.267.168.318.654.734.654.734-.084.034-2.092 1.063-2.092 1.063m1.882-7.496l.09-.026-.042.114c.071.129.018.207.007.277l-.125.076c-.044.056.215.064.218.071.009.028-.313.074-.253.143.079.113.687-.163.59-.147.187-.094.025-.104-.081-.159-.036-.178-.065-.455-.177-.566l.073-.084c-.172-.25-.3.301-.3.301m-.429.455c-.072.029-.142-.017-.073-.087l.073-.088-.007-.04.058-.073.06-.015.124-.087c.036.008.122.079.092.123l-.066.082c-.015.139-.155.138-.259.184l-.002.001.002-.001-.002.001"/></svg>