<svg width="24" height="24" xmlns="http://www.w3.org/2000/svg" fill-rule="evenodd" clip-rule="evenodd"><path d="M12 0c-5.522 0-10 4.394-10 9.815 0 5.505 4.375 9.268 10 14.185 5.625-4.917 10-8.68 10-14.185 0-5.421-4.478-9.815-10-9.815zm0 18c-4.419 0-8-3.582-8-8s3.581-8 8-8c4.419 0 8 3.582 8 8s-3.581 8-8 8zm-3.61-7.202l2.831-1.402-2.902-2.475.898-.444 4.697 1.586 2.244-1.111c.592-.297 1.569-.217 1.791.231.035.071.051.152.051.239-.002.458-.46 1.078-.953 1.325l-2.244 1.111-1.586 4.698-.898.444-.209-3.808-2.832 1.401-.584 1.408-.628.31-.219-2.126-1.559-1.464.628-.311 1.474.388z"/></svg>