<svg xmlns="http://www.w3.org/2000/svg" width="24" height="24" viewBox="0 0 24 24"><path d="M12 0c-6.627 0-12 5.373-12 12s5.373 12 12 12 12-5.373 12-12-5.373-12-12-12zm.919 7.433c-.224-.338-.656-.478-1.035-.478-.703 0-1.328.36-1.482 1.107-.032.167-.153.331-.321.339l-1.786-.194c-.151-.033-.319-.155-.275-.385.411-2.168 2.368-2.822 4.122-2.822.897 0 2.069.239 2.776.918.897.838.812 1.955.812 3.172v2.872c0 .864.359 1.243.695 1.708.119.167.144.368-.006.49-.377.316-1.046.897-1.413 1.224-.122.11-.304.113-.439.039-.614-.509-.722-.744-1.058-1.229-1.012 1.031-1.728 1.34-3.039 1.34-1.552 0-2.76-.957-2.76-2.873 0-1.497.811-2.513 1.966-3.012 1-.44 2.397-.52 3.466-.639v-.239c0-.439.035-.958-.223-1.338zm4.366 9.529c-1.43 1.33-3.503 2.038-5.289 2.038-2.502 0-4.755-1.166-6.46-3.107-.134-.152-.015-.36.146-.242 1.84 1.349 4.115 2.162 6.464 2.162 1.585 0 3.328-.413 4.931-1.272.242-.13.445.201.208.421zm.363.957c-.12.1-.234.047-.181-.086.176-.438.569-1.421.382-1.659-.186-.239-1.23-.113-1.7-.057-.142.017-.164-.107-.036-.197.833-.585 2.198-.416 2.357-.22.161.197-.041 1.566-.822 2.219zm-4.506-7.432v.399c0 .719.017 1.316-.345 1.955-.293.52-.759.839-1.275.839-.708 0-1.121-.539-1.121-1.337-.001-1.571 1.408-1.856 2.741-1.856z"/></svg>