<svg xmlns="http://www.w3.org/2000/svg" width="24" height="24" viewBox="0 0 24 24"><path d="M12 2c5.514 0 10 4.486 10 10s-4.486 10-10 10-10-4.486-10-10 4.486-10 10-10zm0-2c-6.627 0-12 5.373-12 12s5.373 12 12 12 12-5.373 12-12-5.373-12-12-12zm3.792 13.432c-.288-.399-.596-.724-.596-1.464v-2.462c0-1.043.073-2.001-.696-2.719-.605-.582-1.61-.787-2.378-.787-1.503 0-3.181.561-3.533 2.419-.038.197.107.302.236.33l1.531.166c.144-.007.247-.148.275-.291.132-.639.668-.948 1.27-.948.325 0 .695.12.887.41.221.326.192.77.192 1.147v.205c-.916.102-2.114.17-2.971.547-.99.427-1.685 1.299-1.685 2.582 0 1.642 1.035 2.463 2.365 2.463 1.123 0 1.737-.265 2.604-1.149.288.415.381.617.907 1.053.116.064.272.061.377-.033.314-.281.888-.779 1.211-1.049.128-.105.106-.277.004-.42zm-2.813-2.387c0 .616.014 1.128-.296 1.676-.251.445-.65.719-1.093.719-.607 0-.961-.462-.961-1.146 0-1.346 1.208-1.591 2.35-1.591v.342zm3.373 4.847c-1.374.736-2.868 1.09-4.226 1.09-2.013 0-3.963-.697-5.54-1.853-.138-.101-.241.077-.125.208 1.46 1.663 3.391 2.663 5.536 2.663 1.53 0 3.307-.607 4.533-1.747.203-.188.029-.472-.178-.361zm.334 1.108c-.046.114.052.16.155.074.669-.56.842-1.733.705-1.902-.136-.168-1.306-.313-2.02.189-.11.077-.091.183.031.169.402-.048 1.297-.156 1.457.049.16.203-.177 1.045-.328 1.421z"/></svg>