<svg xmlns="http://www.w3.org/2000/svg" width="24" height="24" viewBox="0 0 24 24"><path d="M20 12c-2.436 3.599-4 5.85-4 8.037 0 2.19 1.789 3.963 4 3.963s4-1.773 4-3.963c0-2.187-1.564-4.438-4-8.037zm-.014 2.56c.234.363.514.994.514 1.66 0 1.954-2 2.274-2 1.085 0-.817.994-2.022 1.486-2.745zm-5.801 6.919c-1.784.605-3.621.732-5.179.246l6.709-13.886c1.049-2.148 2.947-1.474 3.949-3.521.207-.423.305-.872.305-1.314 0-1.682-1.366-3.004-2.995-3.004-1.734 0-2.974 1.445-2.974 3.055 0 1.274.716 2.272-.082 3.903l-6.709 13.889c-1.762-1.229-3-3.596-3.449-6.104l1.848-.146-3.134-4.542-2.474 4.924 1.746-.156c.602 3.721 2.521 6.808 5.482 8.258 1.264.619 2.62.919 4.016.919 1.227 0 2.484-.254 3.738-.703-.363-.55-.633-1.163-.797-1.818zm2.815-19.48c.547 0 1 .444 1 1.001 0 .54-.441.999-1.004.999-.551 0-.996-.449-.996-1.002 0-.547.443-.998 1-.998z"/></svg>