<svg xmlns="http://www.w3.org/2000/svg" width="24" height="24" viewBox="0 0 24 24"><path d="M20 14l-3 4h2c0 2.841-1.388 4-3 4-1.316 0-3-1.002-3-3.174v-7.826h3v-2h-3v-1.103c0-2.39 2-2.619 2-4.897 0-1.654-1.346-3-3-3s-3 1.346-3 3c0 2.297 2 2.487 2 4.897v1.103h-3v2h3v7.826c0 2.172-1.684 3.174-3 3.174-1.585 0-3-1.108-3-4h2l-3-4-3 4h2c0 4.075 2.355 6 5 6 1.374 0 3.1-.623 4.001-1.835.865 1.165 2.54 1.835 3.999 1.835 2.633 0 5-1.905 5-6h2l-3-4zm-8-12c.552 0 1 .449 1 1s-.448 1-1 1-1-.449-1-1 .448-1 1-1z"/></svg>