<svg xmlns="http://www.w3.org/2000/svg" width="24" height="24" viewBox="0 0 24 24"><path d="M12 2c5.514 0 10 4.486 10 10s-4.486 10-10 10-10-4.486-10-10 4.486-10 10-10zm0-2c-6.627 0-12 5.373-12 12s5.373 12 12 12 12-5.373 12-12-5.373-12-12-12zm3.593 14.24l1.117.647c-1.056 1.438-2.523 2.484-4.01 2.712v-7.071c0-1.673 1.399-1.833 1.399-3.428.001-1.158-.941-2.1-2.099-2.1s-2.1.942-2.1 2.101c0 1.607 1.399 1.74 1.399 3.428v7.071c-1.486-.229-2.954-1.259-4.01-2.697l1.117-.662-3.406-1.968v3.935l1.05-.636c1.524 2.154 3.642 3.428 5.95 3.428s4.396-1.26 5.921-3.413l1.079.621v-3.935l-3.407 1.967zm-4.293-7.139c0-.386.314-.7.7-.7s.7.314.7.7c0 .385-.314.7-.7.7s-.7-.315-.7-.7z"/></svg>