<svg xmlns="http://www.w3.org/2000/svg" width="24" height="24" viewBox="0 0 24 24"><path d="M12.7 7.101c0 .385-.314.7-.7.7s-.7-.314-.7-.7c0-.386.314-.7.7-.7s.7.314.7.7zm11.3 4.899c0 6.627-5.373 12-12 12s-12-5.373-12-12 5.373-12 12-12 12 5.373 12 12zm-5 .273l-3.407 1.967 1.117.647c-1.056 1.438-2.523 2.484-4.01 2.712v-7.071c0-1.673 1.399-1.833 1.399-3.428.001-1.158-.941-2.1-2.099-2.1s-2.1.942-2.1 2.101c0 1.607 1.399 1.74 1.399 3.428v7.071c-1.486-.229-2.954-1.259-4.01-2.697l1.117-.662-3.406-1.968v3.935l1.05-.636c1.524 2.154 3.642 3.428 5.95 3.428s4.396-1.26 5.921-3.413l1.079.621v-3.935z"/></svg>