<svg xmlns="http://www.w3.org/2000/svg" width="24" height="24" viewBox="0 0 24 24"><path d="M16.949 16.132h2.332c-1.092 1.728-3.605 3.638-6.281 3.852v-4.096c1.492-.38 3.027-1.302 4.245-2.963l-1.613-1.183c-.778 1.062-1.711 1.711-2.632 2.056v-3.805l.354-.088c2.472-.598 5.027-1.215 5.613-3.431.558-2.107-.952-3.66-3.061-4.319.162.756.109 1.378-.123 2.085.802.347 1.473.874 1.25 1.723-.275 1.042-2.169 1.518-4.033 1.97v-.036c0-2.39 2-2.619 2-4.897 0-1.654-1.346-3-3-3s-3 1.346-3 3c0 2.297 2 2.487 2 4.897v.556c-2.066.617-3.903 1.567-4.039 3.798-.116 1.893 1.34 3.645 4.039 3.818v3.931c-2.639-.18-5.133-2.053-6.281-3.868h2.332l-5.051-3.132v5.912l1.269-1.8c2.702 4.503 6.379 4.305 8.731 6.888 2.352-2.583 6.029-2.385 8.731-6.889l1.269 1.8v-5.911l-5.051 3.132zm-4.949-14.132c.552 0 1 .449 1 1s-.448 1-1 1-1-.449-1-1 .448-1 1-1zm-3.043 10.374c.053-.866.809-1.384 2.043-1.814v3.516c-1.539-.159-2.087-.985-2.043-1.702z"/></svg>