<svg xmlns="http://www.w3.org/2000/svg" width="24" height="24" viewBox="0 0 24 24"><path d="M13.394 21.711c-1.528.393-3.06.428-4.388.013l6.709-13.886c1.049-2.148 2.947-1.474 3.949-3.521.207-.423.305-.872.305-1.314 0-1.681-1.366-3.003-2.995-3.003-1.734 0-2.974 1.445-2.974 3.055 0 1.274.716 2.272-.082 3.903l-6.709 13.889c-1.762-1.229-3-3.596-3.449-6.104l1.848-.146-3.134-4.542-2.474 4.924 1.746-.156c.602 3.721 2.521 6.808 5.482 8.258 1.264.619 2.62.919 4.016.919 1.031 0 2.086-.179 3.141-.498-.42-.536-.755-1.139-.991-1.791zm3.606-19.712c.547 0 1 .444 1 1.001 0 .54-.441.999-1.004.999-.551 0-.996-.449-.996-1.002 0-.547.443-.998 1-.998zm2.5 13.001c-2.486 0-4.5 2.015-4.5 4.5s2.014 4.5 4.5 4.5c2.484 0 4.5-2.015 4.5-4.5s-2.016-4.5-4.5-4.5zm-.469 6.484l-1.688-1.637.695-.697.992.94 2.115-2.169.697.696-2.811 2.867z"/></svg>