<svg xmlns="http://www.w3.org/2000/svg" width="24" height="24" viewBox="0 0 24 24"><path d="M13.8 7.3c0 .165-.134.3-.301.3-.165 0-.299-.135-.299-.3 0-.165.134-.3.3-.3s.3.135.3.3zm-3.3-.3c-.166 0-.3.135-.3.301 0 .165.134.3.301.3.165 0 .299-.135.299-.3 0-.166-.134-.301-.3-.301zm13.5 5c0 6.627-5.373 12-12 12s-12-5.373-12-12 5.373-12 12-12 12 5.373 12 12zm-16.2-1.718c0-.483-.417-.883-.9-.882-.483-.001-.9.4-.9.883v3.663c0 .484.417.854.899.854.483 0 .9-.37.9-.854v-3.664zm7.801-.882h-7.202l.001 5.666c0 .517.418.934.935.934h.266v2.125c-.001.482.422.875.905.875.483 0 .894-.393.895-.875v-2.125h1.199v2.125c0 .482.425.875.907.875.483 0 .893-.393.893-.876v-2.124h.268c.514 0 .934-.418.934-.934v-5.666zm0-.602c0-1.353-.723-2.283-1.829-2.903l.563-1.115c.029-.059.011-.132-.045-.166-.055-.032-.122-.01-.152.049l-.57 1.127c-.918-.442-2.126-.487-3.137 0l-.569-1.127c-.03-.059-.097-.08-.152-.049-.056.033-.074.107-.045.166l.563 1.115c-1.106.62-1.829 1.55-1.829 2.903h7.202zm2.399 1.484c0-.483-.417-.883-.899-.882-.483-.001-.9.4-.9.883v3.663c0 .484.417.854.9.854.482 0 .899-.37.899-.854v-3.664z"/></svg>