<svg xmlns="http://www.w3.org/2000/svg" width="24" height="24" viewBox="0 0 24 24"><path d="M12 2c5.514 0 10 4.486 10 10s-4.486 10-10 10-10-4.486-10-10 4.486-10 10-10zm0-2c-6.627 0-12 5.373-12 12s5.373 12 12 12 12-5.373 12-12-5.373-12-12-12zm-3.001 10l.001 4.722c0 .43.349.777.778.777h.223v1.771c-.001.403.353.73.754.73.402 0 .744-.327.745-.729v-1.771h1v1.771c0 .401.354.729.755.729.403 0 .744-.327.744-.729v-1.771h.223c.43 0 .779-.348.779-.778v-4.722h-6.002zm8.001.735c0-.402-.347-.735-.749-.735-.403-.001-.75.333-.75.736v3.053c0 .403.347.711.75.711.402 0 .749-.308.749-.711v-3.054zm-8.501 0c0-.403-.347-.735-.75-.735-.402 0-.749.333-.749.736v3.053c0 .403.347.711.749.711.403 0 .75-.308.75-.711v-3.054zm4.978-3.655l.47-.93c.023-.049.009-.11-.037-.138-.047-.026-.103-.008-.127.041l-.476.939c-.765-.369-1.771-.406-2.613 0l-.476-.939c-.024-.049-.08-.067-.127-.041-.046.028-.061.089-.037.138l.47.93c-.921.516-1.525 1.291-1.525 2.419h6.002c0-1.128-.604-1.903-1.524-2.419zm-2.726 1.42c-.14 0-.25-.112-.25-.25s.11-.25.249-.25.249.113.249.251c0 .137-.11.249-.248.249zm2.498 0c-.138 0-.248-.112-.248-.25s.11-.25.249-.25.249.113.249.251c0 .137-.11.249-.25.249z"/></svg>