<svg xmlns="http://www.w3.org/2000/svg" width="24" height="24" viewBox="0 0 24 24"><path d="M6.15 5.218l10.618 10.617c-6.542.955-11.588-3.958-10.618-10.617zm-1-3.829c-4.398 10.774 4.776 19.805 15.444 15.443l-15.444-15.443zm-3.15 22.611h2.949c1-.923 2.004-2 3.551-2s2.551 1.077 3.551 2h2.949l-6.5-6-6.5 6zm11.081-17.493l2.411 2.412c.666-.666.666-1.746 0-2.412s-1.745-.666-2.411 0zm.919-6.507v1.592c3.783 0 6.408 2.584 6.408 6.408h1.592c0-4.734-3.362-8-8-8zm0 3.014v1.605c2.13 0 3.381 1.242 3.381 3.381h1.605c0-3.017-1.966-4.986-4.986-4.986z"/></svg>