<svg xmlns="http://www.w3.org/2000/svg" width="24" height="24" viewBox="0 0 24 24"><path d="M15 0v1.592c3.783 0 6.408 2.584 6.408 6.408h1.592c0-4.734-3.362-8-8-8zm0 3.014v1.605c2.13 0 3.381 1.242 3.381 3.381h1.605c0-3.017-1.966-4.986-4.986-4.986zm-14 20.986h2.5c.795-.641 1.777-1.583 3-1.583 1.225 0 2.203.943 3 1.583h2.5l-5.5-4.75-5.5 4.75zm16.25-6.367c0 2.587-4.638 2.681-7.747 1.417-5.412-2.201-7.623-7.75-6.189-12.01.665-1.976 1.464-3.04 5.013-.73.87.567 1.796 1.305 2.721 2.154l-1.36.914c-6.11-5.549-5.536-1.612-.777 3.602 4.638 5.081 9.235 6.82 4.563.568l.949-1.382c.969 1.293 2.827 3.857 2.827 5.467zm-.814-9.845c-.001.656-.536 1.185-1.192 1.181-.177-.001-.344-.044-.497-.115l-3.031 4.47c-.62-.439-1.578-1.399-2.017-2.022l4.5-2.984c-.085-.164-.137-.345-.135-.542.004-.656.538-1.186 1.193-1.181.654.003 1.185.537 1.179 1.193z"/></svg>