<svg xmlns="http://www.w3.org/2000/svg" width="24" height="24" viewBox="0 0 24 24"><path d="M6.505 3.556l11.908 11.932c-7.807 2.25-14.244-3.848-11.908-11.932zm-.723-3.556c-6.058 11.828 4.487 22.205 16.18 16.211l-16.18-16.211zm-.832 24h-2.95l6.5-6 6.5 6h-2.949c-1-.923-2.004-2-3.55-2-1.548 0-2.551 1.077-3.551 2zm17.05-22.493c-.004.829-.679 1.497-1.507 1.493-.226-.001-.437-.056-.629-.146l-3.266 5.144-2.549-2.554 5.12-3.268c-.106-.206-.17-.436-.169-.684.005-.828.68-1.497 1.508-1.492.828.004 1.497.679 1.492 1.507z"/></svg>