<svg xmlns="http://www.w3.org/2000/svg" width="24" height="24" viewBox="0 0 24 24"><path d="M12 2c5.514 0 10 4.486 10 10s-4.486 10-10 10-10-4.486-10-10 4.486-10 10-10zm0-2c-6.627 0-12 5.373-12 12s5.373 12 12 12 12-5.373 12-12-5.373-12-12-12zm5 13.804c-.393 1.14-1.569 3.159-2.782 3.18-.804.016-1.062-.476-1.98-.476s-1.207.461-1.967.492c-1.286.048-3.271-2.915-3.271-5.498 0-2.374 1.654-3.55 3.099-3.572.774-.014 1.507.522 1.98.522.475 0 1.364-.645 2.298-.55.391.016 1.488.158 2.195 1.189-1.873 1.221-1.581 3.774.428 4.713zm-2.611-8.804c-1.413.058-2.566 1.54-2.404 2.765 1.304.102 2.558-1.362 2.404-2.765z"/></svg>