<svg xmlns="http://www.w3.org/2000/svg" width="24" height="24" viewBox="0 0 24 24"><path d="M19 0h-14c-2.761 0-5 2.239-5 5v14c0 2.761 2.239 5 5 5h14c2.762 0 5-2.239 5-5v-14c0-2.761-2.238-5-5-5zm-3.814 3c.205 1.871-1.467 3.823-3.207 3.687-.215-1.634 1.322-3.611 3.207-3.687zm-.229 15.979c-1.072.021-1.416-.635-2.641-.635s-1.607.616-2.621.656c-1.715.065-4.361-3.886-4.361-7.331 0-3.165 2.205-4.734 4.132-4.762 1.033-.019 2.009.696 2.64.696.633 0 1.819-.86 3.065-.733.52.021 1.984.21 2.926 1.585-2.496 1.627-2.107 5.032.57 6.284-.524 1.519-2.093 4.211-3.71 4.24z"/></svg>