<svg xmlns="http://www.w3.org/2000/svg" width="24" height="24" viewBox="0 0 24 24"><path d="M14.635 14.932c-.738.506-1.049.831-1.994 1.004.47 3.017 1.751 5.765 3.76 8.064.116-.82.449-1.614.767-2.25.883.465 1.979.667 2.833.56-2.124-2.212-3.182-4.499-3.495-7.549-.687.222-1.147.171-1.871.171zm-7.14-.172c-.313 3.051-1.371 5.337-3.495 7.55.854.107 1.95-.094 2.833-.56.317.636.65 1.43.767 2.25 2.009-2.299 3.29-5.047 3.76-8.064-.945-.173-1.256-.498-1.994-1.004-.725 0-1.185.051-1.871-.172zm4.505-11.76c-2.205 0-4 1.795-4 4s1.795 4 4 4c2.206 0 4-1.794 4-4s-1.794-4-4-4zm6.926 5.278c.051.146.074.296.074.445 0 .449-.222.883-.615 1.156-1.256.87-1.09.651-1.562 2.067-.198.591-.77.99-1.414.99h-.004c-1.549-.005-1.279-.088-2.528.789-.262.183-.569.275-.877.275s-.615-.092-.876-.275c-1.249-.878-.98-.794-2.528-.789h-.004c-.645 0-1.216-.399-1.413-.99-.473-1.417-.311-1.198-1.562-2.067-.395-.274-.617-.708-.617-1.157 0-.148.024-.298.074-.444.483-1.411.484-1.139 0-2.555-.05-.147-.074-.297-.074-.445 0-.45.222-.883.616-1.157 1.251-.868 1.089-.648 1.562-2.067.197-.591.769-.99 1.413-.99h.004c1.545.005 1.271.095 2.528-.79.262-.182.569-.274.877-.274s.615.091.876.274c1.249.878.98.795 2.528.79h.004c.645 0 1.216.399 1.414.99.473 1.416.307 1.197 1.562 2.067.394.274.616.707.616 1.156 0 .148-.023.299-.074.445-.483 1.411-.485 1.139 0 2.556zm-1.926-1.278c0-2.761-2.238-5-5-5-2.761 0-5 2.239-5 5s2.239 5 5 5c2.762 0 5-2.238 5-5z"/></svg>