<svg xmlns="http://www.w3.org/2000/svg" width="24" height="24" viewBox="0 0 24 24"><path d="M16 7c0 2.206-1.795 4-4 4s-4-1.794-4-4 1.795-4 4-4 4 1.794 4 4zm-3.011.424l1.011-.971-1.389-.191-.611-1.262-.611 1.261-1.389.192 1.011.971-.247 1.38 1.236-.661 1.236.661-.247-1.38zm6.011-.424c0 3.866-3.135 7-7 7s-7-3.134-7-7 3.135-7 7-7 7 3.134 7 7zm-2 0c0-2.761-2.238-5-5-5s-5 2.239-5 5 2.238 5 5 5 5-2.239 5-5zm-10.63 7.016c-.871 2.358-2.227 4.128-4.37 5.693.823.254 1.937.246 2.888-.059.202.682.391 1.522.363 2.35 1.048-.845 1.962-1.806 2.749-2.858v-4.088c-.581-.29-1.129-.635-1.63-1.038zm5.63 1.984c-1.054 0-2.061-.19-3-.523v8.523l3.042-1.95 2.958 1.95v-8.523c-.939.333-1.946.523-3 .523zm5.63-1.984c-.501.403-1.049.748-1.63 1.038v4.088c.787 1.052 1.701 2.014 2.749 2.858-.028-.828.161-1.668.363-2.349.951.305 2.064.312 2.888.059-2.143-1.566-3.499-3.336-4.37-5.694z"/></svg>