<svg xmlns="http://www.w3.org/2000/svg" width="24" height="24" viewBox="0 0 24 24"><path d="M12 0c-3.865 0-7 3.134-7 7s3.135 7 7 7 7-3.134 7-7-3.135-7-7-7zm0 12c-2.762 0-5-2.239-5-5s2.238-5 5-5 5 2.239 5 5-2.238 5-5 5zm1.484-4.315l1.516-1.457-2.083-.287-.917-1.892-.917 1.892-2.083.287 1.516 1.457-.369 2.07 1.853-.992 1.854.992-.37-2.07zm-1.734 8.302l-3.724 8.013-1.34-3.686-3.686 1.342 3.606-7.759c.505.461 1.064.862 1.675 1.184l-1.48 3.188 1.371.639 1.51-3.25c.657.196 1.351.307 2.068.329zm9.25 5.675l-3.66-1.345-1.34 3.683-3.752-8.013c.718-.022 1.414-.132 2.072-.332l1.523 3.251 1.353-.645-1.484-3.178c.61-.32 1.17-.72 1.674-1.18l3.614 7.759z"/></svg>