<svg xmlns="http://www.w3.org/2000/svg" width="24" height="24" viewBox="0 0 24 24"><path d="M11.178 9.804c0 .217-.123.326-.37.326h-.131v-.596h.139c.241 0 .362.09.362.27zm-10.178 12.196h2.312l1.146 2 2.401-3.724c-1.205-.604-2.287-1.41-3.204-2.379l-2.655 4.103zm17.526-4.339l-2.213-.304-.84 2.04-1.977-1.031-1.496 1.634-1.497-1.634-1.977 1.031-.84-2.04-2.213.304-.079-2.2-2.186-.461.687-2.095-1.895-1.168 1.374-1.737-1.374-1.737 1.895-1.168-.687-2.095 2.187-.46.079-2.2 2.213.304.84-2.04 1.977 1.031 1.496-1.635 1.497 1.634 1.977-1.031.84 2.04 2.213-.304.079 2.2 2.186.461-.687 2.095 1.895 1.168-1.374 1.737 1.374 1.737-1.895 1.168.687 2.095-2.187.46-.079 2.201zm.474-7.661c0-3.866-3.134-7-7-7s-7 3.134-7 7 3.134 7 7 7 7-3.134 7-7zm1.345 7.897c-.917.969-1.999 1.775-3.204 2.379l2.401 3.724 1.146-2h2.312l-2.655-4.103zm-2.345-7.897c0 3.309-2.691 6-6 6s-6-2.691-6-6 2.691-6 6-6 6 2.691 6 6zm-8.458-1h-1.542v2.61h.695v-.98h.781v-.565h-.781v-.5h.847v-.565zm2.666 2.61l-.761-1.137c.295-.166.443-.399.443-.702.001-.514-.356-.771-1.064-.771h-.855v2.61h.706v-.95h.178l.554.95h.799zm1.787-2.61h-1.55v2.61h1.55v-.575h-.845v-.493h.781v-.565h-.781v-.412h.845v-.565zm2.005 0h-1.55v2.61h1.55v-.575h-.844v-.493h.781v-.565h-.781v-.412h.844v-.565z"/></svg>