<svg xmlns="http://www.w3.org/2000/svg" width="24" height="24" viewBox="0 0 24 24"><path d="M11.371 15.968l-3.746 8.032-.967-2.658-2.658.968 3.568-7.651c1.105.737 2.404 1.2 3.803 1.309zm1.284-.001l3.745 8.033.967-2.658 2.633.968-3.548-7.663c-1.102.739-2.399 1.206-3.797 1.32zm-.655-12.967c-2.205 0-4 1.794-4 4s1.795 4 4 4 4-1.794 4-4-1.795-4-4-4zm1.236 5.804l-1.236-.661-1.236.661.247-1.38-1.011-.971 1.389-.191.611-1.262.611 1.261 1.389.192-1.011.971.247 1.38zm-1.236-8.804c-3.865 0-7 3.134-7 7s3.135 7 7 7 7-3.134 7-7-3.135-7-7-7zm0 12c-2.762 0-5-2.239-5-5s2.238-5 5-5 5 2.239 5 5-2.238 5-5 5z"/></svg>