<svg xmlns="http://www.w3.org/2000/svg" width="24" height="24" viewBox="0 0 24 24"><path d="M20.626 10l1.374-1.737-1.895-1.168.687-2.095-2.187-.46-.079-2.2-2.213.304-.84-2.04-1.977 1.031-1.496-1.635-1.497 1.634-1.977-1.03-.84 2.04-2.212-.305-.079 2.2-2.187.461.687 2.095-1.895 1.168 1.374 1.737-1.374 1.737 1.895 1.168-.687 2.095 2.187.46.079 2.2 2.213-.304.84 2.04 1.977-1.031 1.496 1.635 1.497-1.634 1.977 1.031.84-2.04 2.213.304.079-2.2 2.186-.461-.687-2.095 1.895-1.168-1.374-1.737zm-8.626 7c-3.866 0-7-3.134-7-7s3.134-7 7-7 7 3.134 7 7-3.134 7-7 7zm5.141 3.276l2.401 3.724 1.146-2h2.312l-2.655-4.103c-.917.969-1.999 1.775-3.204 2.379zm-13.486-2.379l-2.655 4.103h2.312l1.146 2 2.401-3.724c-1.205-.604-2.287-1.41-3.204-2.379zm8.345-12.897c2.757 0 5 2.243 5 5s-2.243 5-5 5-5-2.243-5-5 2.243-5 5-5zm0-1c-3.314 0-6 2.687-6 6s2.686 6 6 6 6-2.687 6-6-2.686-6-6-6z"/></svg>