<svg xmlns="http://www.w3.org/2000/svg" width="24" height="24" viewBox="0 0 24 24"><path d="M8 15.054v4.088c-.787 1.052-1.701 2.013-2.749 2.858.028-.828-.161-1.668-.363-2.349-.951.305-2.065.312-2.888.058 2.143-1.565 3.499-3.336 4.37-5.693.501.403 1.049.748 1.63 1.038zm9.63-1.038c-.501.403-1.049.748-1.63 1.038v4.088c.787 1.052 1.701 2.014 2.749 2.858-.028-.828.161-1.668.363-2.349.951.305 2.064.312 2.888.059-2.143-1.566-3.499-3.336-4.37-5.694zm1.37-7.016c0 3.866-3.135 7-7 7s-7-3.134-7-7 3.135-7 7-7 7 3.134 7 7zm-2 0c0-2.761-2.238-5-5-5s-5 2.239-5 5 2.238 5 5 5 5-2.239 5-5zm-3.146 2.755l-1.854-.992-1.854.992.369-2.07-1.515-1.457 2.083-.287.917-1.892.917 1.892 2.083.287-1.516 1.457.37 2.07zm-.854 6.176v4.356l-.943-.622-1.057.678v-4.412c-.699-.087-1.369-.263-2-.518v8.587l3.042-1.95 2.958 1.95v-8.587c-.631.255-1.301.43-2 .518z"/></svg>