<svg xmlns="http://www.w3.org/2000/svg" width="24" height="24" viewBox="0 0 24 24"><path d="M12 0c-3.865 0-7 3.134-7 7s3.135 7 7 7 7-3.134 7-7-3.135-7-7-7zm0 12c-2.762 0-5-2.239-5-5s2.238-5 5-5 5 2.239 5 5-2.238 5-5 5zm1.484-4.315l1.516-1.457-2.083-.287-.917-1.892-.917 1.892-2.083.287 1.516 1.457-.369 2.07 1.853-.992 1.854.992-.37-2.07zm2.516 7.365v8.95l-3.957-3-4.043 3v-8.95c.629.314 1.299.558 2 .718v4.825l1-.656v-3.996c.328.037.662.059 1 .059s.672-.022 1-.059v3.996l1 .656v-4.825c.702-.16 1.371-.404 2-.718z"/></svg>