<svg xmlns="http://www.w3.org/2000/svg" width="24" height="24" viewBox="0 0 24 24"><path d="M14 15v5.594l-1-.656v-3.938h-2v3.938l-1 .656v-5.594h-2v9l4.043-3 3.957 3v-9h-2zm4.926-9.278c-.482 1.41-.484 1.139 0 2.555.05.147.074.297.074.445 0 .449-.222.883-.615 1.156-1.256.87-1.09.651-1.562 2.067-.198.591-.77.99-1.415.99h-.003c-1.549-.005-1.28-.088-2.528.789-.262.184-.569.276-.877.276s-.615-.092-.876-.275c-1.249-.878-.98-.794-2.528-.789h-.004c-.645 0-1.216-.399-1.413-.99-.473-1.417-.311-1.198-1.562-2.067-.395-.274-.617-.708-.617-1.157 0-.148.024-.298.074-.444.483-1.411.484-1.139 0-2.555-.05-.147-.074-.297-.074-.445 0-.45.222-.883.616-1.157 1.251-.868 1.089-.648 1.562-2.067.197-.591.769-.99 1.413-.99h.004c1.545.005 1.271.095 2.528-.79.262-.183.569-.274.877-.274s.615.091.876.274c1.248.878.98.795 2.528.79h.003c.646 0 1.217.399 1.415.99.473 1.416.307 1.197 1.562 2.067.394.273.616.707.616 1.156 0 .148-.024.299-.074.445zm-1.926 1.278c0-2.761-2.238-5-5-5s-5 2.239-5 5 2.238 5 5 5 5-2.24 5-5zm-5-3c1.653 0 2.999 1.346 2.999 3s-1.346 3-2.999 3c-1.654 0-3-1.346-3-3s1.346-3 3-3zm0-1c-2.209 0-4 1.791-4 4s1.791 4 4 4c2.208 0 3.999-1.791 3.999-4s-1.791-4-3.999-4z"/></svg>