<svg xmlns="http://www.w3.org/2000/svg" width="24" height="24" viewBox="0 0 24 24"><path d="M12 16c1.438 0 2.793-.348 4-.95v8.95l-3.958-3-4.042 3v-8.95c1.207.602 2.562.95 4 .95zm4-9c0 2.206-1.795 4-4 4-2.206 0-4-1.794-4-4s1.794-4 4-4c2.205 0 4 1.794 4 4zm-3.011.424l1.011-.971-1.389-.191-.611-1.262-.611 1.261-1.389.192 1.011.971-.247 1.38 1.236-.661 1.236.661-.247-1.38zm6.011-.424c0 3.866-3.135 7-7 7-3.866 0-7-3.134-7-7s3.134-7 7-7c3.865 0 7 3.134 7 7zm-2 0c0-2.761-2.238-5-5-5-2.761 0-5 2.239-5 5s2.239 5 5 5c2.762 0 5-2.239 5-5z"/></svg>