<svg xmlns="http://www.w3.org/2000/svg" width="24" height="24" viewBox="0 0 24 24"><path d="M9.815 15.392l-1.644 3.515-1.371-.639 1.521-3.253c-.682-.122-1.311-.404-1.846-.812l-3.475 7.453 3.687-1.342 1.339 3.686 3.738-8.018c-.69-.037-1.35-.238-1.949-.59zm5.88-.382l1.501 3.251-1.353.645-1.639-3.526c-.592.354-1.253.559-1.945.601l3.741 8.019 1.34-3.683 3.66 1.345-3.46-7.472c-.534.41-1.162.695-1.845.82zm3.231-9.288c-.482 1.41-.484 1.139 0 2.555.05.147.074.297.074.445 0 .449-.222.883-.615 1.156-1.256.87-1.09.651-1.562 2.067-.198.591-.77.99-1.415.99h-.003c-1.549-.005-1.28-.088-2.528.789-.262.184-.569.276-.877.276s-.615-.092-.876-.275c-1.249-.878-.98-.794-2.528-.789h-.004c-.645 0-1.216-.399-1.413-.99-.473-1.417-.311-1.198-1.562-2.067-.395-.274-.617-.708-.617-1.157 0-.148.024-.298.074-.444.483-1.411.484-1.139 0-2.555-.05-.147-.074-.297-.074-.445 0-.45.222-.883.616-1.157 1.251-.868 1.089-.648 1.562-2.067.197-.591.769-.99 1.413-.99h.004c1.545.005 1.271.095 2.528-.79.262-.183.569-.274.877-.274s.615.091.876.274c1.248.878.98.795 2.528.79h.003c.646 0 1.217.399 1.415.99.473 1.416.307 1.197 1.562 2.067.394.273.616.707.616 1.156 0 .148-.024.299-.074.445zm-1.926 1.278c0-2.761-2.238-5-5-5s-5 2.239-5 5 2.238 5 5 5 5-2.24 5-5zm-5-3c1.653 0 2.999 1.346 2.999 3s-1.346 3-2.999 3c-1.654 0-3-1.346-3-3s1.346-3 3-3zm0-1c-2.209 0-4 1.791-4 4s1.791 4 4 4c2.208 0 3.999-1.791 3.999-4s-1.791-4-3.999-4z"/></svg>