<svg width="24" height="24" xmlns="http://www.w3.org/2000/svg" fill-rule="evenodd" clip-rule="evenodd"><path d="M7.538 21.049c-.502.873-1.711 1.206-2.587.697-.908-.526-1.22-1.696-.696-2.608l.456-.79 3.286 1.903-.459.798zm-.369-17.932l1.83-.657 1.285 2.353-4.326 11.028 1.211-12.724zm8.085 4.372l-7.696 9.755 4.544-11.586 2.268-.293.884 2.124zm4.581 2.967l-10.2 7.386 7.264-9.207 2.643-.059.293 1.88zm2.165.902l-.749-4.82-4.185.094-1.436-3.445-3.694.477-2.001-3.664-4.638 1.664-1.329 13.962-1.448 2.517c-.352.612-.52 1.282-.52 1.943 0 1.351.699 2.667 1.947 3.39.592.343 1.265.524 1.947.524 1.39 0 2.685-.749 3.379-1.955l1.453-2.524 11.274-8.163z"/></svg>