<svg xmlns="http://www.w3.org/2000/svg" width="24" height="24" viewBox="0 0 24 24"><path d="M4 8v12h20v-12h-20zm10 10c-2.209 0-4-1.792-4-4s1.791-4 4-4 4 1.792 4 4-1.791 4-4 4zm.2-2.021v.421h-.4v-.399c-.413-.007-.843-.105-1.2-.291l.183-.657c.383.148.892.306 1.289.216.46-.104.555-.577.047-.805-.373-.172-1.512-.322-1.512-1.297 0-.546.415-1.034 1.193-1.141v-.426h.4v.407c.289.008.614.058.978.168l-.146.659c-.307-.107-.646-.206-.977-.185-.596.035-.649.551-.232.767.684.321 1.577.561 1.577 1.418 0 .687-.537 1.053-1.2 1.145zm7.8-8.979h-19v11h-1v-12h20v1zm-2-2h-19v11h-1v-12h20v1z"/></svg>