<svg xmlns="http://www.w3.org/2000/svg" width="24" height="24" viewBox="0 0 24 24"><path d="M4 8v12h20v-12h-20zm10 10c-2.209 0-4-1.791-4-4s1.791-4 4-4 4 1.791 4 4-1.791 4-4 4zm.2-2.021v.421h-.4v-.4c-.414-.007-.843-.105-1.2-.291l.183-.657c.382.148.891.305 1.29.216.46-.104.555-.577.046-.806-.373-.172-1.512-.321-1.512-1.296 0-.545.415-1.034 1.193-1.141v-.425h.4v.407c.289.007.615.058.978.168l-.146.658c-.307-.107-.647-.206-.977-.185-.595.035-.648.551-.232.767.685.321 1.578.561 1.578 1.418 0 .687-.538 1.054-1.201 1.146zm6.8-9.979h-19v11h-2v-13h21v2z"/></svg>