<svg xmlns="http://www.w3.org/2000/svg" width="24" height="24" viewBox="0 0 24 24"><path d="M24 15.01c-6.857 3.941-12.399-1.424-19.5 5.99l-4.5-9.97 1.402-1.463 3.807 8.406-.002.007c7.445-5.595 11.195-1.176 18.109-4.563.294.648.565 1.332.684 1.593zm-8.904-6.21c-.47-1.095-1.783-1.827-2.932-1.636-1.15.191-1.702 1.233-1.231 2.328.498 1.155 1.921 1.895 3.094 1.603 1.038-.257 1.517-1.252 1.069-2.295zm-1.448 1.363l.104.229-.218.045-.097-.219c-.225.041-.482.035-.719-.027l-.065-.387c.195.03.438.058.623.02l.125-.041c.221-.109.153-.387-.176-.453-.244-.054-.893-.014-1.135-.552-.136-.304-.035-.621.356-.766l-.108-.239.217-.045.104.229c.159-.026.345-.036.563-.017l.087.383c-.169-.021-.353-.041-.512-.008l-.06.016c-.309.082-.21.375.064.446.453.105.994.139 1.208.612.172.385-.028.648-.361.774zm5.644-4.817l2.417 5.211c-4.279 2.284-9.871-.34-15 2.501l-2.313-5.065c3.873-2.694 9.197-.035 14.896-2.647zm.902-2.346c-6.179 4.004-13.007-.318-17.951 4.454l3.765 8.22c5.298-4.492 12.519-.238 17.952-4.455l-3.766-8.219z"/></svg>