<svg xmlns="http://www.w3.org/2000/svg" width="24" height="24" viewBox="0 0 24 24"><path d="M14 11c-1.656 0-3 1.344-3 3s1.344 3 3 3 3-1.344 3-3-1.344-3-3-3zm.15 4.484v.315h-.3v-.299c-.311-.005-.632-.079-.899-.217l.135-.493c.287.11.669.229.968.162.345-.078.415-.433.034-.604-.279-.129-1.133-.242-1.133-.973 0-.409.313-.775.895-.855v-.319h.301v.305c.217.006.461.043.732.126l-.108.493c-.23-.08-.485-.154-.733-.139-.446.026-.486.413-.174.575.514.242 1.182.42 1.182 1.063.001.516-.403.791-.9.86zm-10.15-7.484v12h20v-12h-20zm18 8.018c-.959.42-1.395 1.022-1.814 1.982h-12.371c-.42-.959-.856-1.562-1.815-1.982v-4.036c.959-.42 1.395-1.022 1.815-1.982h12.371c.42.959.855 1.562 1.814 1.982v4.036zm-1-10.018h-19v11h-2v-13h21v2z"/></svg>