<svg xmlns="http://www.w3.org/2000/svg" width="24" height="24" viewBox="0 0 24 24"><path d="M0 5v14h24v-14h-24zm12 12c-2.761 0-5-2.239-5-5s2.239-5 5-5 5 2.239 5 5-2.239 5-5 5zm.25-2.526v.526h-.5v-.499c-.517-.009-1.054-.132-1.5-.363l.228-.821c.478.185 1.114.382 1.612.27.575-.13.693-.721.058-1.006-.466-.215-1.89-.402-1.89-1.621 0-.682.52-1.292 1.492-1.426v-.534h.5v.509c.362.009.769.072 1.222.21l-.181.824c-.384-.134-.809-.257-1.222-.232-.744.044-.811.688-.291.958.855.402 1.972.701 1.972 1.772.001.859-.671 1.317-1.5 1.433z"/></svg>