<svg xmlns="http://www.w3.org/2000/svg" width="24" height="24" viewBox="0 0 24 24"><path d="M20 11.999c1.654 0 3 1.347 3 3.001s-1.346 3-3 3-3-1.346-3-3 1.346-3.001 3-3.001zm0-1c-2.209 0-4 1.792-4 4.001s1.791 4 4 4 4-1.791 4-4-1.791-4.001-4-4.001zm.167 5.65v.351h-.334v-.333c-.344-.006-.702-.088-1-.242l.152-.548c.319.124.743.255 1.074.18.383-.086.462-.48.039-.67-.311-.145-1.26-.269-1.26-1.081 0-.455.346-.861.994-.95v-.356h.334v.339c.24.006.512.049.814.141l-.121.548c-.256-.089-.539-.171-.814-.153-.496.029-.541.459-.193.639.569.268 1.314.467 1.314 1.181.001.572-.446.877-.999.954zm-10.344-6.234c-.417-.216-.363-.731.232-.767.33-.021.67.078.977.186l.146-.659c-.363-.11-.688-.16-.978-.168v-.407h-.4v.427c-.778.107-1.193.594-1.193 1.14 0 .975 1.139 1.125 1.512 1.297.508.229.413.701-.047.805-.397.09-.906-.067-1.289-.216l-.183.657c.357.185.787.283 1.2.291v.399h.4v-.421c.663-.093 1.2-.459 1.2-1.147 0-.856-.893-1.096-1.577-1.417zm4.927 4.585c0-2.896 2.355-5.251 5.25-5.251v-4.749h-20v12h15.15c-.255-.617-.4-1.292-.4-2zm-4.75 0c-2.209 0-4-1.791-4-4s1.791-4.001 4-4.001 4 1.792 4 4.001-1.791 4-4 4z"/></svg>