<svg xmlns="http://www.w3.org/2000/svg" width="24" height="24" viewBox="0 0 24 24"><path d="M11.141 9.435l.171.38c.263-.044.574-.06.936-.028l.146.637c-.283-.036-.586-.068-.852-.013l-.101.025c-.513.135-.35.623.107.741.753.174 1.651.23 2.006 1.017.285.637-.045 1.073-.598 1.283l.171.381-.36.074-.163-.363c-.373.067-.801.058-1.193-.044l-.11-.644c.325.05.728.096 1.037.033l.205-.066c.368-.181.256-.642-.291-.751-.406-.091-1.483-.023-1.885-.917-.227-.504-.059-1.032.592-1.272l-.179-.398.361-.075m4.22 1.78c-.78-1.817-2.962-3.034-4.872-2.716-1.909.317-2.825 2.047-2.044 3.866.824 1.918 3.191 3.146 5.14 2.662 1.727-.429 2.52-2.081 1.776-3.812zm4.478-6.215l4.161 9.08c-6.004 4.656-13.984-.042-19.839 4.92l-4.161-9.08c5.463-5.271 13.01-.497 19.839-4.92z"/></svg>