<svg xmlns="http://www.w3.org/2000/svg" width="24" height="24" viewBox="0 0 24 24"><path d="M20.167 16.649v.351h-.334v-.333c-.344-.006-.702-.088-1-.242l.152-.548c.254.099.574.202.861.202l.213-.022c.383-.086.462-.48.039-.67-.311-.145-1.26-.269-1.26-1.081 0-.455.346-.861.994-.95v-.356h.334v.339c.24.006.512.049.814.141l-.121.548c-.232-.081-.487-.156-.738-.156l-.076.002c-.496.029-.541.459-.193.639.569.268 1.314.467 1.314 1.181.001.573-.446.878-.999.955zm3.833-1.649c0 2.209-1.791 4-4 4s-4-1.791-4-4 1.791-4.001 4-4.001 4 1.792 4 4.001zm-1 0c0-1.654-1.346-3.001-3-3.001s-3 1.347-3 3.001 1.346 3 3 3 3-1.346 3-3zm-16-4c0 1.656 1.344 3 3 3s3-1.344 3-3-1.344-3-3-3-3 1.344-3 3zm3.883-1.368l-.108.493c-.23-.08-.485-.154-.733-.139-.446.026-.486.413-.174.575.514.242 1.182.42 1.182 1.063.002.515-.401.791-.898.86v.315h-.302v-.299c-.311-.005-.632-.079-.898-.217l.135-.493c.287.11.669.229.968.162.345-.078.415-.433.034-.604-.279-.129-1.133-.242-1.133-.973 0-.409.312-.775.895-.855v-.319h.301v.305c.215.005.459.043.731.126zm3.917 5.368h-12.8v-8h16v3.201c.616-.258 1.291-.402 2-.402v-4.799h-20v12h15.202c-.258-.616-.402-1.292-.402-2z"/></svg>