<svg xmlns="http://www.w3.org/2000/svg" width="24" height="24" viewBox="0 0 24 24"><path d="M22 7h-19v11h-1v-12h20v1zm-2-2h-19v11h-1v-12h20v1zm-6 6c-1.656 0-3 1.344-3 3s1.344 3 3 3 3-1.344 3-3-1.344-3-3-3zm.15 4.484v.315h-.3v-.299c-.311-.005-.632-.079-.898-.217l.135-.493c.287.11.669.229.968.162.345-.078.415-.433.034-.604-.279-.129-1.133-.242-1.133-.973 0-.409.312-.775.895-.855v-.319h.301v.305c.217.006.461.043.732.126l-.108.493c-.23-.08-.485-.154-.733-.139-.446.026-.486.413-.174.575.514.242 1.182.42 1.182 1.063 0 .516-.404.791-.901.86zm-10.15-7.484v12h20v-12h-20zm18 10h-16v-8h16v8z"/></svg>