<svg xmlns="http://www.w3.org/2000/svg" width="24" height="24" viewBox="0 0 24 24"><path d="M20.667 14c1.781 0 3.333-.671 3.333-1.5s-1.552-1.5-3.333-1.5c-1.781 0-3.333.671-3.333 1.5s1.551 1.5 3.333 1.5zm.062-1.34c-.199-.06-.81-.111-.81-.45 0-.189.223-.358.639-.396v-.148h.214v.141c.156.004.33.021.523.06l-.078.229c-.147-.034-.311-.066-.472-.066l-.048.001c-.321.013-.347.191-.125.267.364.112.844.195.844.493 0 .238-.289.366-.645.397v.146h-.214v-.139c-.22-.002-.451-.038-.642-.102l.098-.229c.163.042.367.084.552.084l.139-.01c.247-.034.296-.199.025-.278zm-.062 5.34c1.261 0 2.57-.323 3.333-.934v.434c0 .829-1.552 1.5-3.333 1.5-1.781 0-3.333-.671-3.333-1.5v-.434c.763.611 2.071.934 3.333.934zm0-3.333c1.261 0 2.57-.323 3.333-.934v.434c0 .829-1.552 1.5-3.333 1.5-1.781 0-3.333-.671-3.333-1.5v-.434c.763.611 2.071.934 3.333.934zm0 1.666c1.261 0 2.57-.323 3.333-.935v.435c0 .828-1.552 1.5-3.333 1.5-1.781 0-3.333-.672-3.333-1.5v-.435c.763.612 2.071.935 3.333.935zm-12.167-3.833c0 1.38 1.12 2.5 2.5 2.5s2.5-1.12 2.5-2.5-1.12-2.5-2.5-2.5-2.5 1.12-2.5 2.5zm3.236-1.14l-.09.411c-.192-.067-.405-.128-.611-.116-.372.022-.405.344-.145.479.428.201.985.35.985.886.001.429-.334.659-.749.716v.264h-.251v-.25c-.259-.004-.526-.066-.749-.181l.113-.411c.239.092.558.191.807.135.287-.065.346-.36.028-.503-.233-.108-.944-.201-.944-.811 0-.341.261-.646.746-.713v-.266h.251v.254c.179.005.382.037.609.106zm6.264-5.36h-17v10h-1v-11h18v1zm2 1v2.834c-.715.059-1.401.214-2 .458v-1.292h-14v7h12v2h-14v-11h18z"/></svg>