<svg xmlns="http://www.w3.org/2000/svg" width="24" height="24" viewBox="0 0 24 24"><path d="M19 8.025v-3.025h2v3.181c-.482-.114-.982-.181-1.5-.181l-.5.025zm5 1.791v-4.816h-1v4.028c.359.231.693.494 1 .788zm-7-1.316v-3.5h-1v4.028c.316-.202.649-.382 1-.528zm-13 8.5h2v-12h-2v12zm9-2.5c0-1.271.37-2.452 1-3.453v-6.047h-3v12h2.5c-.321-.77-.5-1.614-.5-2.5zm-5 2.5h1v-12h-1v12zm-8 0h2v-12h-2v12zm24-2.5c0 2.485-2.016 4.5-4.5 4.5-2.486 0-4.5-2.015-4.5-4.5s2.014-4.5 4.5-4.5c2.484 0 4.5 2.015 4.5 4.5zm-2.156-.882l-.697-.696-2.115 2.169-.992-.94-.695.697 1.688 1.637 2.811-2.867z"/></svg>