<svg width="24" height="24" xmlns="http://www.w3.org/2000/svg" fill-rule="evenodd" clip-rule="evenodd"><path d="M20.067 3.139c-.703.988-1.258 1.978-1.696 2.958l.743.272-.346.941-.783-.289c-.204.532-.374 1.062-.515 1.59l.873.177-.2.983-.894-.182c-.121.639-.196 1.275-.223 1.91h.986v1.002h-.994c.02.638.085 1.277.2 1.912l.908-.183.202.982-.896.181c.138.533.312 1.067.518 1.6l.818-.302.346.94-.776.286c.452.987 1.022 1.976 1.712 2.96 2.419-2.196 3.95-5.354 3.95-8.877 0-3.513-1.523-6.666-3.933-8.861m-3.61 15.47l-1.105.406-.347-.94 1.068-.393c-.239-.628-.443-1.259-.603-1.891l-1.073.218-.199-.983 1.066-.216c-.14-.768-.219-1.537-.241-2.309h-1.019v-1.002h1.026c.031-.767.119-1.536.265-2.306l-1.08-.219.2-.982 1.096.222c.16-.627.358-1.255.597-1.883l-1.103-.404.347-.941 1.138.419c.511-1.169 1.13-2.333 1.965-3.508-1.866-1.195-4.077-1.897-6.455-1.897-2.383 0-4.599.705-6.467 1.904.841 1.173 1.467 2.335 1.977 3.501l1.138-.419.345.941-1.101.404c.238.628.437 1.256.597 1.883l1.096-.222.199.982-1.08.219c.147.77.236 1.539.266 2.306h1.025v1.002h-1.019c-.021.772-.101 1.541-.241 2.309l1.066.216-.199.983-1.074-.218c-.158.632-.362 1.263-.601 1.891l1.066.393-.345.94-1.104-.406c-.52 1.168-1.145 2.328-2.021 3.481 1.87 1.203 4.089 1.91 6.477 1.91 2.384 0 4.603-.706 6.471-1.907-.867-1.154-1.497-2.315-2.014-3.484m-12.507 2.269c-2.421-2.196-3.951-5.354-3.951-8.878 0-3.518 1.526-6.674 3.942-8.87.698.971 1.244 1.976 1.688 2.967l-.744.272.347.941.784-.289c.203.532.374 1.062.513 1.59l-.873.177.2.983.895-.182c.121.639.196 1.275.224 1.91h-.988v1.002h.995c-.021.638-.086 1.277-.201 1.912l-.908-.183-.2.982.894.181c-.137.533-.312 1.067-.516 1.6l-.819-.302-.347.94.777.286c-.45.984-1.003 1.964-1.712 2.961"/></svg>