<svg xmlns="http://www.w3.org/2000/svg" width="24" height="24" viewBox="0 0 24 24"><path d="M4.558 7l4.701-4.702c.199-.198.46-.298.721-.298.613 0 1.02.505 1.02 1.029 0 .25-.092.504-.299.711l-3.26 3.26h-2.883zm12.001 0h2.883l-4.701-4.702c-.199-.198-.46-.298-.721-.298-.613 0-1.02.505-1.02 1.029 0 .25.092.504.299.711l3.26 3.26zm3.703 4l-.016.041-3.598 8.959h-9.296l-3.597-8.961-.016-.039h16.523zm3.738-2h-24v2h.643c.534 0 1.021.304 1.256.784l4.101 10.216h12l4.102-10.214c.233-.481.722-.786 1.256-.786h.642v-2z"/></svg>