<svg xmlns="http://www.w3.org/2000/svg" width="24" height="24" viewBox="0 0 24 24"><path d="M24 6v2h-.642c-.534 0-1.022.305-1.257.786l-4.101 10.214h-12l-4.102-10.216c-.234-.48-.72-.784-1.255-.784h-.643v-2h3l4.352 11h9.297l4.351-11h3zm-12.077-1c-2.247 0-4.069 1.752-4.069 4h-1.053l1.714 1.787 1.716-1.787h-1.074c0-1.528 1.238-2.696 2.766-2.696.765 0 1.455.31 1.957.81l.922-.922c-.737-.736-1.755-1.192-2.879-1.192zm4.024 4c0 2.248-1.822 4-4.071 4-1.124 0-2.141-.456-2.878-1.192l.922-.922c.501.5 1.191.811 1.956.811 1.527 0 2.767-1.168 2.767-2.696h-1.074l1.717-1.787 1.714 1.786h-1.053z"/></svg>