<svg xmlns="http://www.w3.org/2000/svg" width="24" height="24" viewBox="0 0 24 24"><path d="M24 6v2h-.642c-.534 0-1.022.305-1.257.786l-4.101 10.214h-12l-4.102-10.216c-.234-.48-.72-.784-1.255-.784h-.643v-2h3l4.352 11h9.297l4.351-11h3zm-7.021 3.882c.008.34-.019.675-.079 1.009l-1.06-.272c.039-.247.056-.491.049-.736h1.09zm-.262 1.712l-1.061-.272c-.086.238-.194.465-.324.68l.891.633c.203-.325.369-.673.494-1.041zm-1.821 2.453c.332-.239.634-.517.897-.827l-.893-.635c-.168.189-.355.362-.558.516l.554.946zm-7.896-4.057c0 2.756 2.234 4.99 4.99 4.99.823 0 1.602-.2 2.285-.554l-.551-.943c-.522.26-1.111.406-1.734.406-2.154 0-3.899-1.746-3.899-3.899 0-2.154 1.745-3.899 3.899-3.899 1.061 0 2.119.423 2.822 1.11l-.869.868 3.057.558-.558-3.056-.858.859c-.9-.884-2.232-1.43-3.594-1.43-2.756 0-4.99 2.234-4.99 4.99zm6.273 1.443v-.636h-1.16v-.578l1.217-1.634h.576v1.649h.364v.562h-.364v.636h-.633zm0-1.199v-.757l-.564.758h.564zm-3.473 1.199c0-.431.123-.765.552-1.082.505-.375.89-.521.89-.867 0-.229-.138-.371-.358-.371-.309 0-.384.324-.384.631h-.637c-.026-.798.426-1.214 1.047-1.214.574 0 .992.383.992.91 0 .263-.082.472-.258.657-.278.293-.694.44-.967.752h1.24v.583h-2.117z"/></svg>