<svg width="24" height="24" xmlns="http://www.w3.org/2000/svg" fill-rule="evenodd" clip-rule="evenodd"><path d="M15.062 21.518c.426-2.809.573-5.6.444-8.338 2.788.488 3.993 3.112 4.729 4.484-1.239 1.799-3.052 3.17-5.173 3.854m-8.502-1.136c2.47-2.684 4.118-6.227 6.946-7.078.132 2.833-.04 5.73-.533 8.648-2.354.221-4.56-.364-6.413-1.57m-4.479-7.167c3.397-1.758 7.199-2.832 11.13-3.21.059.433.115.867.159 1.304-4.026 1.006-5.615 4.88-8.375 7.82-1.575-1.547-2.634-3.61-2.914-5.914m2.509-7.911c2.405.211 5.2 1.617 8.112 1.776.065.296.116.596.173.894-4.045.398-7.957 1.579-10.824 3.004.222-2.175 1.15-4.137 2.539-5.674m8.765-3.201c1.318.18 2.553.613 3.656 1.255-.898.805-1.432 1.341-2.761 1.633-.261-.978-.555-1.942-.895-2.888m-2.156-.062c.378.986.701 1.996.989 3.019-1.799-.22-3.579-.967-5.625-1.444 1.355-.881 2.935-1.44 4.636-1.575m10.044 6.149c-2.579-.38-4.559-.423-6.351-.352l-.161-.889c2.079-.453 2.698-1.557 3.99-2.334 1.083.986 1.953 2.2 2.522 3.575m-6.021 1.684c2.198-.073 4.42.06 6.624.441.291 1.705.178 3.412-.495 5.201-1.313-2.234-3.378-4.226-5.992-4.401-.041-.415-.083-.829-.137-1.241m-3.223-9.874c-6.623 0-12 5.377-12 12s5.377 12 12 12c6.624 0 12.001-5.377 12.001-12s-5.377-12-12.001-12"/></svg>