<svg width="24" height="24" xmlns="http://www.w3.org/2000/svg" fill-rule="evenodd" clip-rule="evenodd"><path d="M10.361.125c-2.504.344-4.758 1.457-6.523 3.099 3.332.159 5.773 1.521 8.351 1.836-.618-2.186-1.2-3.643-1.828-4.935m2.85 9.88c-4.936.474-9.392 2.043-12.988 4.279.463 2.396 1.634 4.541 3.295 6.201 3.802-2.97 5.168-8.005 9.853-9.176-.045-.437-.1-.871-.16-1.304m-.509-2.925c-3.857-.211-7.25-2.45-10.442-2.068-1.417 1.969-2.26 4.379-2.26 6.988l.007.158c3.347-2.259 8.54-3.758 12.868-4.184-.056-.298-.108-.598-.173-.894m11.236 3.703c-2.843-.707-5.834-1.005-8.716-.909.055.412.096.826.137 1.241 3.412.228 6.002 3.617 7.084 6.78.986-1.743 1.557-3.751 1.557-5.895 0-.411-.022-.817-.062-1.217m-3.539-7.343c-2.114.799-2.941 2.915-5.667 3.509l.16.889c2.507-.099 5.161.065 8.607.746-.587-1.975-1.666-3.737-3.1-5.144m-6.893 9.864c-3.361 1.011-5.057 5.821-8.444 8.473 1.961 1.395 4.351 2.223 6.938 2.223l.554-.028c.756-3.443 1.132-6.819.952-10.668m2-.124c.169 3.603-.16 7.068-.856 10.516 2.628-.594 4.932-2.043 6.594-4.05-1.005-2.781-2.837-5.958-5.738-6.466m3.161-11.154c-2.243 1.588-2.462 2.536-4.417 2.965-.444-1.67-1.025-3.375-1.74-4.965 2.271.096 4.382.811 6.157 2"/></svg>