<svg xmlns="http://www.w3.org/2000/svg" width="24" height="24" viewBox="0 0 24 24"><path d="M21.753 15.467c1.301 1.821.939 3.104 2.247 4.938l-5.041 3.595c-2.723-2.027-5.072-2.677-5.83-2.932-.723-.243-1.189-.706-1.029-1.289.163-.589.779-.764 1.286-.741.765.035 1.386.265 1.386.265l-3.516-4.93c-.313-.44-.211-1.051.229-1.365.439-.314 1.049-.211 1.363.229l2.382 3.333c.114.161.338.199.498.084.162-.115.199-.339.085-.5l-.587-.823.944-.235c.248-.06.507.036.655.244l.48.673c.115.161.338.199.499.084s.197-.338.083-.5l-.555-.777.928-.208c.243-.052.495.045.64.247l.407.572c.114.161.339.198.5.084.16-.115.198-.339.084-.5l-.458-.641.273-.048c.953-.167 1.469.329 2.047 1.141zm-10.838-3.248c.61-.436 1.399-.45 1.987.002-.334-1.121-1.676-1.583-2.629-.902-.955.682-.952 2.1-.002 2.779-.236-.703.034-1.444.644-1.879zm5.644-7.219h2.883l-4.702-4.702c-.198-.198-.459-.298-.72-.298-.613 0-1.02.505-1.02 1.029 0 .25.092.504.299.711l3.26 3.26zm-5.858-3.26c.207-.206.299-.461.299-.711 0-.524-.407-1.029-1.02-1.029-.261 0-.522.1-.721.298l-4.701 4.702h2.883l3.26-3.26zm.184 16.26h-3.533l-3.613-9h16.522l-1.381 3.44c.803-.144 1.282-.252 2.153.002l1.067-2.657c.236-.48.724-.785 1.258-.785h.642v-2h-24v2h.643c.534 0 1.021.304 1.256.784l4.101 10.216h4.086c-.004-.79.273-1.456.799-2z"/></svg>