<svg xmlns="http://www.w3.org/2000/svg" width="24" height="24" viewBox="0 0 24 24"><path d="M4.558 7l4.701-4.702c.199-.198.46-.298.721-.298.613 0 1.02.505 1.02 1.029 0 .25-.092.504-.299.711l-3.26 3.26h-2.883zm12.001 0h2.883l-4.702-4.702c-.198-.198-.459-.298-.72-.298-.613 0-1.02.505-1.02 1.029 0 .25.092.504.299.711l3.26 3.26zm7.441 2v2h-.642c-.534 0-1.022.305-1.257.786l-4.101 10.214h-12l-4.101-10.216c-.234-.48-.722-.784-1.256-.784h-.643v-2h24zm-15 4c0-.552-.448-1-1-1s-1 .448-1 1v5c0 .552.448 1 1 1s1-.448 1-1v-5zm4 0c0-.552-.448-1-1-1s-1 .448-1 1v5c0 .552.448 1 1 1s1-.448 1-1v-5zm4 0c0-.552-.447-1-1-1s-1 .448-1 1v5c0 .552.447 1 1 1s1-.448 1-1v-5z"/></svg>