<svg xmlns="http://www.w3.org/2000/svg" width="24" height="24" viewBox="0 0 24 24"><path d="M21 11h-21v12h21v-12zm1 9h.75c.69 0 1.25-.56 1.25-1.25v-3.5c0-.69-.56-1.25-1.25-1.25h-.75v6zm-4.815-14.958c.026.981-.524 1.7-1.169 1.982-1.956-.591.85-4.422-4.485-5.749 1.07 1.327.847 3.485-.875 4.213-1.832-.834.337-3.938-5.116-4.488 2.547 2.315-1.482 3.768.052 5.847-.845-.139-1.53-1.177-1.148-2.295-1.016.608-1.444 1.537-1.444 2.422 0 .804.354 1.571.94 2.026h3.824c-.78-.909 1.38-1.663-.009-2.681 2.998.245 1.807 1.622 2.813 1.992.946-.323 1.34-1.145.76-1.954 2.03.382 2.239 1.998 1.674 2.643h3.971c.713-.532 1.027-1.245 1.027-1.97 0-.703-.297-1.418-.815-1.988z"/></svg>