<svg xmlns="http://www.w3.org/2000/svg" width="24" height="24" viewBox="0 0 24 24"><path d="M19 8v8h-17v-8h17zm2-2h-21v12h21v-12zm1 9h.75c.69 0 1.25-.56 1.25-1.25v-3.5c0-.69-.56-1.25-1.25-1.25h-.75v6zm-12.862-3.372l2.215 1.508v-.877l1.481.436-2.151-1.575v.956l-1.545-.448zm.83 2.58c.151.07.31.124.471.161l-.086.564c-.234-.05-.463-.129-.682-.236l.297-.489zm-1.344-2.72l-.599.116c-.027.197-.031.396-.02.594l.561-.126c-.004-.197.015-.392.058-.584zm.979-1.452c.942-.655 2.247-.568 3.086.271.943.942.943 2.476.001 3.419-.466.465-1.075.699-1.686.705l-.086.569c.784.016 1.574-.273 2.173-.872 1.166-1.166 1.166-3.057 0-4.223-1.063-1.063-2.728-1.153-3.896-.277l-.629-.628-.385 1.994 1.994-.385-.572-.573zm-.77 3.081c-.079-.155-.143-.315-.187-.48l-.552.123c.057.22.139.435.245.64l.494-.283zm.649.795c-.188-.149-.222-.195-.331-.322l-.503.29c.168.211.315.353.538.521l.296-.489z"/></svg>