<svg xmlns="http://www.w3.org/2000/svg" width="24" height="24" viewBox="0 0 24 24"><path d="M18 21.224v-12.772c1.106-.594 1.707-1.762 1.707-3.104 0-1.874-1.472-3.411-3.319-3.515-.771-1.072-2.061-1.833-3.575-1.833-.971 0-1.945.322-2.746.964-1.401-.456-2.995-.092-4.051 1.042-1.423.027-2.663.527-3.366 1.75-.511.889-.586 1.892-.623 2.929-.064 1.847-2.027 1.867-2.027 4.272 0 2.019 1.542 3.559 4 2.802v7.466c0 .664-.336 1.203-1 1.203v1.572h16v-1.573c-.665 0-1-.539-1-1.203zm-16.412-10.484c.23-1.539 1.933-1.662 2.015-4 .063-1.792.22-3.414 3.193-3.126.384-.751 1.164-1.265 2.065-1.265.591 0 1.131.222 1.54.586.494-.814 1.39-1.359 2.412-1.359 1.256 0 2.319.82 2.685 1.955.214-.082.446-.126.689-.126 1.073 0 1.944.871 1.944 1.944s-.871 1.944-1.944 1.944c-.627 0-1.184-.296-1.539-.756-1.199 1.028-3.019.875-4.025-.366-.795.93-2.196 1.146-3.329.202-.38-.316-.744-.456-1.08-.456-1.389 0-2.289 2.391-1.779 4.53.666 2.802-3.164 2.407-2.847.293zm4.421 1.26c.106-.499.095-1.345-.041-1.917-.138-.577-.135-1.232.009-1.798.09-.355.21-.583.298-.709l.011.008c.765.638 1.662.976 2.594.976.588 0 1.161-.135 1.681-.388.672.402 1.447.62 2.254.62.588 0 1.166-.119 1.7-.343.48.26.921.405 1.485.419v3.132h-9.991zm12.991 7.42v-2.16c3.154-1.83 3.901-6.26 1.485-6.26h-1.485v-1.995h1.845c2.145 0 3.155 1.534 3.155 3.452 0 2.539-1.791 5.75-5 6.963z"/></svg>