<svg xmlns="http://www.w3.org/2000/svg" width="24" height="24" viewBox="0 0 24 24"><path d="M19.688 1.472c-2.05-1.959-13.323-1.964-15.378 0-1.006 2.447-1.31 7.36-1.31 10.221 0 4.315.493 8.581 1.447 10.375 1.233 1.287 4.395 1.932 7.555 1.932 3.159 0 6.317-.644 7.552-1.932.953-1.793 1.446-6.059 1.446-10.373 0-3.008-.321-7.812-1.312-10.223zm-7.61.479c3.129 0 5.665.354 5.665.791 0 .436-2.536.79-5.665.79-3.128 0-5.664-.354-5.664-.79 0-.437 2.536-.791 5.664-.791zm5.842 18.891c-.721.502-2.732 1.158-5.918 1.158-3.188 0-5.201-.657-5.921-1.159-.543-1.334-1.081-4.602-1.081-9.148 0-2.544.183-4.947.494-6.811 3.398.9 9.688.872 13.001-.065.318 1.871.505 4.304.505 6.878 0 4.545-.537 7.812-1.08 9.147zm-8.186-.967c-.926-.113-1.598-.284-2.032-.43-.474-2.734-.93-7.611-.363-12.171.649.084 1.336.15 2.058.195-.49 4.325-.382 8.341.337 12.406z"/></svg>