<svg xmlns="http://www.w3.org/2000/svg" width="24" height="24" viewBox="0 0 24 24"><path d="M15.111 1.43c-.765-.883-1.924-1.43-3.186-1.43-1.159 0-2.237.458-3.002 1.228-2.087-.234-3.923 1.315-3.923 3.299 0 .899.38 1.715.994 2.314.042 3.466 1.751 6.327 2 9.349.141 1.689-.282 4.186-.593 5.713-.284 1.399 2.165 2.097 4.616 2.097 2.455 0 4.913-.7 4.63-2.096-.311-1.528-.733-4.024-.595-5.713.251-3.022 1.961-5.885 2.001-9.353.586-.579.947-1.362.947-2.225 0-1.951-1.834-3.468-3.889-3.183zm-4.295 20.724c-.271-.014-.543-.035-.799-.067-.351-.044-.588-.099-.743-.146.35-1.781.706-4.151.562-5.886-.127-1.532-.561-2.945-.98-4.312-.323-1.058-.796-2.575-.954-3.943.587.097 1.168.053 1.719-.122.249 2.63 1.557 4.923 1.756 7.759.171 2.447-.129 5.123-.561 6.717zm4.026-15.936c-1.058.962.162 2.555.255 3.419.097.896-.49 1.572-1.415 1.572-.9 0-1.43-.721-1.358-1.572.067-.806 1.26-2.346.367-3.41-.888.261-1.888.058-2.588-.604-.358.467-.939.77-1.592.77-1.089 0-1.971-.835-1.971-1.865s.882-1.865 1.971-1.865c.381 0 .738.103 1.04.282.393-.874 1.308-1.487 2.374-1.487 1.19 0 2.192.765 2.488 1.804.322-.254.736-.408 1.189-.408 1.026 0 1.857.788 1.857 1.759.001 1.284-1.401 2.123-2.617 1.605z"/></svg>