<svg xmlns="http://www.w3.org/2000/svg" width="24" height="24" viewBox="0 0 24 24"><path d="M19.035 1.471c-1.876-1.959-12.195-1.964-14.074 0-.441 1.17-.758 2.91-.955 4.903 1.106.812 3.777 1.606 7.408 1.742 3.775.141 7.038-.503 8.585-1.642-.196-2.034-.517-3.814-.964-5.003zm-6.966 2.11c-2.863 0-5.184-.354-5.184-.79.001-.437 2.321-.791 5.184-.791 2.862 0 5.184.354 5.184.791 0 .436-2.321.79-5.184.79zm7.974 13.207c-2.108 1.114-5.208 1.438-7.6 1.438-2.751 0-5.972-.316-8.469-1.542-.927-.455-1.032 1.771.313 2.482.206 1.227.473 2.235.796 2.902 2.257 2.575 11.566 2.578 13.826 0 .312-.644.572-1.607.775-2.776 1.372-.692 1.275-2.935.359-2.504zm.101-1.796c-1.48 1.208-4.831 1.9-8.729 1.754-3.821-.143-6.579-1.016-7.569-1.87-.075-1.387-.1-2.846-.074-4.289-.513-.305-.772-.974-.772-1.581 0-.726.377-1.273.874-1.007 0 0 2.778 1.595 8.569 1.595 2.402 0 5.567-.328 7.684-1.482.966-.511 1.307 1.881.1 2.591.022 1.445-.005 2.905-.083 4.289z"/></svg>