<svg xmlns="http://www.w3.org/2000/svg" width="24" height="24" viewBox="0 0 24 24"><path d="M17 21.224v-12.772c1.106-.594 1.674-1.762 1.674-3.104 0-1.874-1.473-3.411-3.32-3.515-.768-1.068-2.221-1.833-3.739-1.833-.971 0-1.78.322-2.582.964-1.292-.422-2.747-.143-3.795.792-2.155-.342-4.238 1.244-4.238 3.501 0 1.396.819 2.581 2 3.15v12.817c0 .664-.336 1.203-1 1.203v1.573h16v-1.573c-.664 0-1-.539-1-1.203zm-9-.224h-2v-12.719c.672.422 1.516.406 2 .267v12.452zm7.154-13.707c-.627 0-1.184-.296-1.539-.756l-.451.316c-1.522 1.178-.113 3.303-.01 4.324.102.977-.505 1.712-1.458 1.712-.93 0-1.475-.786-1.401-1.712.078-.978 1.562-2.918-.083-4.438l-.623-.568c-.425.497-1.056.813-1.761.813-.605 0-1.155-.231-1.568-.611-.354.487-.927.804-1.575.804-2.716 0-2.817-3.889 0-3.889.398 0 .77.12 1.077.326.384-.751 1.163-1.266 2.065-1.266.591 0 1.131.222 1.54.586.494-.814 1.39-1.359 2.412-1.359 1.255 0 2.32.82 2.685 1.955.213-.082.445-.126.689-.126 1.072 0 1.943.871 1.943 1.944s-.869 1.945-1.942 1.945zm7.846 5.159c0 2.539-1.791 5.75-5 6.963v-2.16c3.154-1.83 3.969-6.255 1.553-6.255h-1.553v-2h1.912c2.144 0 3.088 1.534 3.088 3.452z"/></svg>