<svg xmlns="http://www.w3.org/2000/svg" width="24" height="24" viewBox="0 0 24 24"><path d="M15.946 15.36c.276-3.767 2.054-6.188 2.054-10.232 0-1.086-.128-2.289-.448-3.666-1.561-.945-3.541-1.462-5.564-1.462-1.914 0-3.866.462-5.539 1.462-.32 1.38-.449 2.584-.449 3.671 0 4.042 1.778 6.452 2.055 10.228.137 1.869-.277 4.63-.581 6.321-.279 1.546 2.12 2.318 4.52 2.318 2.404 0 4.811-.774 4.533-2.319-.303-1.69-.717-4.452-.581-6.321zm-6.281-9.373c0 3.36 1.478 4.926 1.702 8.54.174 2.807-.148 5.885-.596 7.621-.458-.028-1.138-.096-1.56-.273.351-1.973.728-4.685.583-6.641-.141-1.922-.617-3.483-1.079-4.993-.712-2.333-1.334-4.37-.725-7.628 1.19-.571 2.558-.87 3.998-.87 1.444 0 2.847.305 4.022.867.258 1.378.294 2.539.197 3.597-1.849-.904-5.066-.962-6.542-.22z"/></svg>