<svg xmlns="http://www.w3.org/2000/svg" width="24" height="24" viewBox="0 0 24 24"><path d="M19.688 1.472c-2.05-1.959-13.323-1.964-15.378 0-.882 2.143-1.31 6.203-1.31 10.221 0 4.315.493 8.581 1.447 10.375 2.465 2.575 12.638 2.578 15.106 0 .954-1.793 1.447-6.059 1.447-10.373 0-4.018-.428-8.079-1.312-10.223zm-13.024 19.156c-.596-2.462-1.506-9.642-.293-15.547.67.141 1.364.247 1.981.301-.846 5.633-.743 10.673.367 15.868-1.088-.136-2.055-.622-2.055-.622zm5.414-17.097c-3.128 0-5.664-.354-5.664-.79 0-.437 2.536-.791 5.664-.791 3.129 0 5.665.354 5.665.791 0 .436-2.536.79-5.665.79z"/></svg>