<svg xmlns="http://www.w3.org/2000/svg" width="24" height="24" viewBox="0 0 24 24"><path d="M8.228 15.01h-2.228v-2.01h2.261c1.878 0 2.003 2.01-.033 2.01zm6.758-2.677h3.018c-.117-1.715-2.73-1.977-3.018 0zm-6.804-3.333h-2.182v2h2.389c1.673 0 1.937-2-.207-2zm15.818-4v14c0 2.761-2.238 5-5 5h-14c-2.762 0-5-2.239-5-5v-14c0-2.761 2.238-5 5-5h14c2.762 0 5 2.239 5 5zm-10 3h5v-1h-5v1zm-3.552 3.618c1.907-.974 1.837-4.55-1.813-4.604h-4.635v9.978h4.311c4.522 0 4.445-4.534 2.137-5.374zm9.487.602c-.274-1.763-1.528-2.95-3.583-2.95-2.094 0-3.352 1.34-3.352 3.947 0 2.631 1.367 3.783 3.416 3.783s3.106-1.135 3.4-2h-2.111c-.736.855-2.893.521-2.767-1.353h5.06c.01-.634-.012-1.089-.063-1.427z"/></svg>