<svg xmlns="http://www.w3.org/2000/svg" width="24" height="24" viewBox="0 0 24 24"><path d="M18.003 12.333h-3.018c.289-1.977 2.902-1.715 3.018 0zm-9.742.667h-2.261v2.01h2.228c2.036 0 1.911-2.01.033-2.01zm-.08-4h-2.181v2h2.389c1.673 0 1.938-2-.208-2zm15.819-9v24h-24v-24h24zm-10 8h5v-1h-5v1zm-3.552 3.618c1.907-.974 1.837-4.55-1.813-4.604h-4.635v9.978h4.311c4.522 0 4.445-4.534 2.137-5.374zm9.487.602c-.274-1.763-1.529-2.95-3.583-2.95-2.095 0-3.352 1.34-3.352 3.947 0 2.631 1.368 3.783 3.417 3.783 2.048 0 3.106-1.135 3.4-2h-2.112c-.737.855-2.893.521-2.767-1.353h5.059c.01-.634-.011-1.089-.062-1.427z"/></svg>