<svg xmlns="http://www.w3.org/2000/svg" width="24" height="24" viewBox="0 0 24 24"><path d="M8 21h6c0 1.598-1.392 3-2.971 3s-3.029-1.402-3.029-3zm5.816-2h-12.816v-1.749c4.877-1.591 2.194-10.597 6.863-13.306.645-.374 1.042-1.069 1.041-1.82v-.003c-.001-1.172.938-2.122 2.096-2.122s2.097.95 2.097 2.122v.003c-.001.75.396 1.447 1.041 1.82 1.545.896 2.279 2.485 2.754 4.264-.667.17-1.291.441-1.857.799-.369-1.493-.884-2.743-1.9-3.333-1.312-.76-2.887-.801-4.267 0-1.486.862-1.908 3.119-2.355 5.51-.359 1.924-.775 4.148-1.964 5.815h7.951c.312.749.763 1.424 1.316 2zm-3.816-17c0 .552.448 1 1 1s1-.448 1-1c0-.551-.448-1-1-1s-1 .449-1 1zm13 12.5c0 2.485-2.016 4.5-4.5 4.5-2.486 0-4.5-2.015-4.5-4.5s2.014-4.5 4.5-4.5c2.484 0 4.5 2.015 4.5 4.5zm-2.156-.882l-.697-.696-2.115 2.169-.992-.94-.695.697 1.688 1.637 2.811-2.867z"/></svg>