<svg xmlns="http://www.w3.org/2000/svg" width="24" height="24" viewBox="0 0 24 24"><path d="M22.656 6.383c-.216-.817.023-1.696.627-2.298l.003-.003c.475-.474.714-1.095.714-1.712 0-1.305-1.051-2.37-2.37-2.37-.618 0-1.239.238-1.714.712l-.002.003c-.604.604-1.48.844-2.299.626-5.93-1.57-11.011 7.819-16.211 5.179l-1.404 1.406 16.073 16.074 1.405-1.406c-2.64-5.198 6.751-10.28 5.178-16.211zm-.154-4.887c.444.443.444 1.165 0 1.608-.443.443-1.163.442-1.606-.001s-.444-1.164 0-1.606c.443-.444 1.164-.444 1.606-.001zm-11.731 20.504c-.646.646-1.535 1-2.422 1-.874 0-1.746-.346-2.376-.976-1.27-1.27-1.308-3.563-.024-4.846l4.822 4.822z"/></svg>