<svg xmlns="http://www.w3.org/2000/svg" width="24" height="24" viewBox="0 0 24 24"><path d="M10.771 22c-.646.646-1.535 1-2.422 1-.874 0-1.746-.346-2.376-.976-1.27-1.27-1.308-3.563-.024-4.846l4.822 4.822zm10.859-22c-.618 0-1.238.237-1.713.711l-.002.003c-.604.605-1.48.845-2.3.627-5.929-1.574-11.011 7.82-16.21 5.179l-1.405 1.406 16.075 16.074 1.404-1.406c-2.641-5.197 6.756-10.28 5.179-16.21-.217-.817.023-1.696.627-2.298l.002-.003c.475-.476.713-1.096.713-1.714 0-1.31-1.055-2.369-2.37-2.369zm-3.479 13.443c-2.026 2.957-2.729 4.233-3.14 6.668l-11.123-11.125.527-.088c2.237-.374 4.312-1.795 6.144-3.049 2.212-1.516 4.503-3.122 6.544-2.575 1.793.475 3.147 1.829 3.624 3.624.535 2.01-.976 4.213-2.576 6.545zm4.353-10.339c-.444.443-1.163.442-1.607-.001-.443-.443-.444-1.163 0-1.606.444-.444 1.164-.444 1.607-.001.443.443.443 1.165 0 1.608z"/></svg>