<svg xmlns="http://www.w3.org/2000/svg" width="24" height="24" viewBox="0 0 24 24"><path d="M22 17.251v1.749h-13.065l9.444-8.566c.565 2.995 1.013 5.966 3.621 6.817zm-9.971 6.749c1.578 0 2.971-1.402 2.971-3h-6c0 1.598 1.449 3 3.029 3zm10.971-19.802l-20.654 18.735-1.346-1.48 2.705-2.453h-1.705v-1.749c4.877-1.591 2.195-10.594 6.863-13.306.645-.374 1.041-1.069 1.04-1.82v-.003c0-1.172.939-2.122 2.097-2.122s2.097.95 2.097 2.122v.003c-.001.75.396 1.447 1.04 1.82 1.064.618 1.743 1.565 2.22 2.674l4.302-3.901 1.341 1.48zm-12-2.198c0 .552.448 1 1 1s1-.448 1-1c0-.551-.448-1-1-1s-1 .449-1 1z"/></svg>