<svg xmlns="http://www.w3.org/2000/svg" width="24" height="24" viewBox="0 0 24 24"><path d="M18 8c-3.169 0-6 2.113-6 5.003 0 1.025.37 2.032 1.023 2.812.027.916-.511 2.228-.997 3.184 1.302-.234 3.15-.754 3.989-1.268.709.173 1.388.252 2.03.252 3.542 0 5.954-2.418 5.954-4.98.001-2.906-2.85-5.003-5.999-5.003zm-.888 7h-2.291v-.492l1.251-1.815v-.01h-1.159v-.683h2.156v.527l-1.224 1.789v.011h1.267v.673zm4.047 0h-3.188v-.674l1.741-2.379v-.014h-1.712v-.933h3v.717l-1.604 2.341v.016h1.763v.926zm-14.159 6h6c0 1.598-1.393 3-2.971 3-1.58 0-3.029-1.402-3.029-3zm3.73-4h-7.181c1.189-1.667 1.605-3.891 1.965-5.815.446-2.39.868-4.648 2.354-5.509 1.379-.801 2.955-.76 4.267 0 .58.336.994.889 1.314 1.576.558-.338 1.167-.612 1.813-.819-.472-1.025-1.123-1.905-2.125-2.486-.644-.374-1.041-1.07-1.04-1.82v-.003c0-1.174-.939-2.124-2.097-2.124s-2.097.95-2.097 2.122v.003c.001.751-.396 1.446-1.04 1.82-4.669 2.709-1.986 11.715-6.863 13.306v1.749h9.782c.356-.699.691-1.318.948-2zm-.73-16c.552 0 1 .449 1 1 0 .552-.448 1-1 1s-1-.448-1-1c0-.551.448-1 1-1z"/></svg>