<svg xmlns="http://www.w3.org/2000/svg" width="24" height="24" viewBox="0 0 24 24"><path d="M10.771 22c-.646.646-1.535 1-2.422 1-.874 0-1.746-.346-2.376-.976-1.27-1.27-1.308-3.563-.024-4.846l4.822 4.822zm11.887-15.617c-.217-.817.023-1.696.627-2.299l.002-.003c.475-.474.713-1.095.713-1.713 0-1.313-1.057-2.368-2.369-2.368-.617 0-1.238.238-1.713.712l-.003.003c-.604.605-1.48.845-2.299.627-5.93-1.572-11.012 7.819-16.211 5.177l-1.405 1.406 16.075 16.075 1.405-1.406c-2.64-5.198 6.751-10.279 5.178-16.211zm-15.096 4.282l-1.511-1.512c3.202-1.204 7.949-6.537 11.676-5.451-3.078.245-6.794 5.267-10.165 6.963zm13.334-7.562c-.442-.443-.444-1.164 0-1.606s1.164-.444 1.607-.001c.444.444.444 1.166 0 1.608s-1.162.442-1.607-.001z"/></svg>