<svg xmlns="http://www.w3.org/2000/svg" width="24" height="24" viewBox="0 0 24 24"><path d="M12 14.5c0-3.033 2.081-5.574 4.891-6.291-.476-1.777-1.209-3.367-2.753-4.264-.644-.374-1.042-1.07-1.041-1.82v-.003c0-1.172-.939-2.122-2.097-2.122s-2.097.95-2.097 2.122v.003c.001.751-.396 1.446-1.041 1.82-4.667 2.712-1.985 11.715-6.862 13.306v1.749h12.816c-1.122-1.168-1.816-2.752-1.816-4.5zm-1-11.5c-.552 0-1-.448-1-1 0-.551.448-1 1-1s1 .449 1 1c0 .552-.448 1-1 1zm-3 18h6c0 1.598-1.392 3-2.971 3s-3.029-1.402-3.029-3zm10.5-11c-2.486 0-4.5 2.015-4.5 4.5s2.014 4.5 4.5 4.5c2.484 0 4.5-2.015 4.5-4.5s-2.016-4.5-4.5-4.5zm-.469 6.484l-1.688-1.637.695-.697.992.94 2.115-2.169.697.696-2.811 2.867z"/></svg>