<svg xmlns="http://www.w3.org/2000/svg" width="24" height="24" viewBox="0 0 24 24"><path d="M15.137 3.945c-.644-.374-1.041-1.07-1.04-1.82v-.003c0-1.172-.939-2.122-2.097-2.122s-2.097.95-2.097 2.122v.003c.001.751-.396 1.446-1.041 1.82-4.667 2.712-1.985 11.715-6.862 13.306v1.749h20v-1.749c-4.877-1.591-2.195-10.594-6.863-13.306zm-6.728 12.055h-1.882c1.245-2.741.879-9.012 3.873-10.655-1.761 2.067-.95 7.504-1.991 10.655zm3.591-13c-.552 0-1-.448-1-1 0-.551.448-1 1-1s1 .449 1 1c0 .552-.448 1-1 1zm-3 18h6c0 1.598-1.393 3-2.971 3-1.579 0-3.029-1.402-3.029-3z"/></svg>