<svg xmlns="http://www.w3.org/2000/svg" width="24" height="24" viewBox="0 0 24 24"><path d="M16.871 4.312c-.282-.764-1.01-1.312-1.871-1.312-1.298 0-2.313 1.244-1.904 2.582 1.111-.395 2.346-1.103 3.775-1.27zm-3.871 8.688c0-.552-.447-1-1-1s-1 .448-1 1 .447 1 1 1 1-.448 1-1zm5.318 4.873c1.463-.311 2.471-1.49 2.146-3.227 1.399 1.517-.155 3.949-2.146 3.227zm-14.001 0c1.463-.311 2.471-1.49 2.146-3.227 1.399 1.517-.156 3.949-2.146 3.227zm4.683-14.873c-.861 0-1.589.548-1.871 1.312 1.429.168 2.664.875 3.775 1.27.409-1.338-.606-2.582-1.904-2.582zm1.134 5.494c1.208.396 2.517.398 3.731 0 2.615-.854 3.515-1.986 4.452-.331.392.691 1.332 2.337 1.665 2.934-2.854-.575-5.572 1.416-5.94 4.254-1.233-.62-2.794-.647-4.084 0-.369-2.839-3.086-4.829-5.941-4.254.414-.738 1.183-2.081 1.665-2.933.936-1.655 1.834-.526 4.452.33zm7.171-3.175c-1.393 0-2.86.881-4.062 1.274-.812.266-1.685.263-2.486 0-1.201-.393-2.669-1.274-4.062-1.274-.998 0-1.958.452-2.754 1.859-2.406 4.255-3.941 6.687-3.941 8.822 0 2.761 2.238 5 5 5 4.039 0 4.156-4.123 7-4.123s2.961 4.123 7 4.123c2.762 0 5-2.239 5-5 0-2.135-1.535-4.567-3.941-8.821-.797-1.408-1.756-1.86-2.754-1.86zm1.695 13.681c-1.654 0-3-1.346-3-3s1.346-3 3-3 3 1.346 3 3-1.346 3-3 3zm-14 0c-1.654 0-3-1.346-3-3s1.346-3 3-3 3 1.346 3 3-1.346 3-3 3z"/></svg>