<svg xmlns="http://www.w3.org/2000/svg" width="24" height="24" viewBox="0 0 24 24"><path d="M16.871 3.312c-.282-.764-1.01-1.312-1.871-1.312-1.298 0-2.314 1.244-1.904 2.582 1.111-.395 2.346-1.102 3.775-1.27zm7.129 13.688c0 2.761-2.238 5-5 5-4.039 0-4.156-4.123-7-4.123-2.844 0-2.961 4.123-7 4.123-2.762 0-5-2.239-5-5 0-2.135 1.896-6.417 3.941-10.821 1.632-3.514 4.754-1.26 6.815-.585.781.256 1.654.272 2.486 0 2.061-.674 5.188-2.931 6.815.585 1.999 4.315 3.943 8.686 3.943 10.821zm-16 0c0-1.654-1.346-3-3-3s-3 1.346-3 3 1.346 3 3 3 3-1.346 3-3zm5-2c0-.552-.447-1-1-1-.553 0-1 .448-1 1s.447 1 1 1c.553 0 1-.448 1-1zm9 2c0-1.654-1.346-3-3-3s-3 1.346-3 3 1.346 3 3 3 3-1.346 3-3zm-13-15c-.861 0-1.589.548-1.871 1.312 1.429.168 2.664.875 3.775 1.27.409-1.338-.606-2.582-1.904-2.582z"/></svg>