<svg xmlns="http://www.w3.org/2000/svg" width="24" height="24" viewBox="0 0 24 24"><path d="M19.286 6.368c-.902-1.642-2.306-2.368-3.69-2.368-1.394 0-2.769.735-3.596 2.008-.826-1.273-2.202-2.008-3.596-2.008-1.384 0-2.788.725-3.69 2.368-3.738 6.803-4.714 8.355-4.714 9.828 0 2.234 1.968 3.804 3.97 3.804 2.274 0 3.365-1.825 4.752-4.249.59.619 1.933 1.239 3.271 1.239h.016c1.338 0 2.681-.619 3.271-1.238 1.385 2.424 2.476 4.248 4.75 4.248 2.002 0 3.97-1.57 3.97-3.804 0-1.499-1.033-3.13-4.714-9.828zm-15.316 11.632c-1.106 0-2.008-.897-2.008-2s.901-2 2.008-2 2.008.897 2.008 2-.902 2-2.008 2zm12.6-4.017l-1.256-2.155c-.585 4.198-6.039 4.234-6.629 0l-1.255 2.155c-.766-1.303-2.189-2.034-3.537-1.982.58-1.067 2.162-3.921 2.574-4.67 1.221-2.223 3.55-1.585 5.533 1.669 1.979-3.25 4.311-3.893 5.533-1.669.659 1.199 2.573 4.668 2.574 4.67-1.345-.052-2.77.677-3.537 1.982zm3.46 4.017c-1.106 0-2.008-.897-2.008-2s.901-2 2.008-2 2.008.897 2.008 2-.901 2-2.008 2zm-7.03-5.594c0 .552-.447 1-1 1s-1-.448-1-1 .447-1 1-1 1 .448 1 1z"/></svg>