<svg xmlns="http://www.w3.org/2000/svg" width="24" height="24" viewBox="0 0 24 24"><path d="M12 2c5.514 0 10 4.486 10 10s-4.486 10-10 10-10-4.486-10-10 4.486-10 10-10zm0-2c-6.627 0-12 5.373-12 12s5.373 12 12 12 12-5.373 12-12-5.373-12-12-12zm-.5 12.497v2.503c1.984 0 3.344-.188 3.344-1.258 0-1.148-1.469-1.245-3.344-1.245zm2.789-2.247c0-1-1.039-1.25-2.789-1.25v2.5c1.105 0 2.789-.078 2.789-1.25zm-2.289-7.25c-4.971 0-9 4.029-9 9s4.029 9 9 9 9-4.029 9-9-4.029-9-9-9zm1 13.5v1.5h-1v-1.511h-.5v1.511h-1v-1.511h-2.484l.25-1.489h.539c.442 0 .695-.425.695-.854v-4.444c0-.416-.242-.702-.683-.702h-.817v-1.5h2.5v-1.5h1v1.5h.5v-1.5h1v1.526c2.158.073 3.012.891 3.257 1.812.29 1.09-.429 2.005-1.046 2.228.75.192 1.789.746 1.789 2.026 0 1.741-1.344 2.908-4 2.908z"/></svg>