<svg xmlns="http://www.w3.org/2000/svg" width="24" height="24" viewBox="0 0 24 24"><path d="M13.193 11.961c1.824-.242 3.818-.972 3.818-3.181 0-2.968-4.141-2.78-6.131-2.78h-.88v12h.88c3.578 0 7.153-.146 7.153-2.795 0-2.494-2.375-3.099-4.84-3.244zm-1.193-3.942c1.625 0 2.911.09 2.911 1.016 0 .958-1.229 1.024-2.911 1.024v-2.04zm1.896 7.969h-1.896v-2.065h1.938c2.265 0 2.458 2.065-.042 2.065zm5.793-5.045c.855-1.03 1.326-2.527.91-4.097-.439-1.647-1.482-3.617-5.599-4.015v-2.831h-8v3h-4v5h2.744c.181 0 .256 0 .256.291v7.139c0 .269-.119.57-.279.57h-1.926l-.795 5h4v3h8v-2.75c4.629-.287 7-2.604 7-6.32 0-1.695-.84-3.107-2.311-3.987zm-6.048 8.057h-.641v3h-1v-3h-2v3h-1v-3h-3.79l.125-1h.386c1.3 0 2.279-1.105 2.279-2.57v-7.139c0-1.349-.928-2.291-2.256-2.291h-.744v-1h4v-3h1v3h2v-3h1v3h.606c6.027.203 6.235 4.349 3.815 6.5 1.141.516 2.579 1.334 2.579 3.43 0 3.785-3.984 4.07-6.359 4.07z"/></svg>