<svg xmlns="http://www.w3.org/2000/svg" width="24" height="24" viewBox="0 0 24 24"><path d="M16 15c0 .553-.442 1-.987 1h-6.026c-.545 0-.987-.448-.987-1s.442-1 .987-1h6.026c.545 0 .987.447.987 1zm-7.076-5h2.819c.511 0 .924-.448.924-1s-.413-1-.924-1h-2.819c-.51 0-.924.448-.924 1s.414 1 .924 1zm15.076-10v24h-24v-24h24zm-4 10.812c0-.438-.354-.792-.79-.792h-1.301c-.666 0-.789-.509-.789-1.138 0-2.696-2.182-4.882-4.873-4.882h-3.374c-2.692 0-4.873 2.186-4.873 4.883v6.234c0 2.697 2.181 4.883 4.873 4.883h6.255c2.69 0 4.872-2.186 4.872-4.883v-4.305z"/></svg>