<svg xmlns="http://www.w3.org/2000/svg" width="24" height="24" viewBox="0 0 24 24"><path d="M8 9c0-.552.414-1 .924-1h2.818c.512 0 .924.448.924 1s-.412 1-.924 1h-2.818c-.51 0-.924-.448-.924-1zm7.013 5h-6.027c-.545 0-.986.447-.986 1s.441 1 .986 1h6.026c.546 0 .988-.448.988-1s-.442-1-.987-1zm8.987-9v14c0 2.761-2.238 5-5 5h-14c-2.762 0-5-2.239-5-5v-14c0-2.761 2.238-5 5-5h14c2.762 0 5 2.239 5 5zm-4 5.812c0-.438-.354-.792-.79-.792h-1.301c-.666 0-.789-.509-.789-1.138 0-2.696-2.182-4.882-4.873-4.882h-3.374c-2.691 0-4.873 2.186-4.873 4.883v6.234c0 2.697 2.182 4.883 4.873 4.883h6.255c2.69 0 4.872-2.186 4.872-4.883v-4.305z"/></svg>