<svg xmlns="http://www.w3.org/2000/svg" width="24" height="24" viewBox="0 0 24 24"><path d="M12 2c5.514 0 10 4.486 10 10s-4.486 10-10 10-10-4.486-10-10 4.486-10 10-10zm0-2c-6.627 0-12 5.373-12 12s5.373 12 12 12 12-5.373 12-12-5.373-12-12-12zm5.407 10.516h-.975c-.5 0-.592-.382-.592-.854.001-2.023-1.636-3.662-3.655-3.662h-2.53c-2.018 0-3.655 1.639-3.655 3.662v4.676c0 2.023 1.637 3.662 3.654 3.662h4.692c2.017 0 3.654-1.639 3.654-3.662v-3.229c0-.328-.267-.593-.593-.593zm-7.714-1.516h2.113c.384 0 .694.335.694.75s-.31.75-.693.75h-2.114c-.382 0-.693-.335-.693-.75s.311-.75.693-.75zm4.566 6h-4.519c-.409 0-.74-.335-.74-.75 0-.414.331-.75.74-.75h4.519c.41 0 .741.335.741.75s-.331.75-.741.75z"/></svg>