<svg xmlns="http://www.w3.org/2000/svg" width="24" height="24" viewBox="0 0 24 24"><path d="M15.5 14.625c0 .484-.387.875-.864.875h-5.273c-.477 0-.863-.392-.863-.875s.387-.875.863-.875h5.272c.478 0 .865.391.865.875zm-6.191-4.375h2.466c.448 0 .809-.392.809-.875s-.361-.875-.81-.875h-2.465c-.447 0-.809.392-.809.875s.362.875.809.875zm14.691 1.75c0 6.627-5.373 12-12 12s-12-5.373-12-12 5.373-12 12-12 12 5.373 12 12zm-5-1.039c0-.383-.311-.692-.691-.692h-1.138c-.583 0-.69-.446-.69-.996-.001-2.36-1.91-4.273-4.265-4.273h-2.952c-2.355 0-4.264 1.913-4.264 4.272v5.455c0 2.36 1.909 4.273 4.264 4.273h5.474c2.353 0 4.262-1.913 4.262-4.272v-3.767z"/></svg>