<svg xmlns="http://www.w3.org/2000/svg" width="24" height="24" viewBox="0 0 24 24"><path d="M16 10.975v13.025l-6-5.269-6 5.269v-24h6.816c-1.123 1.168-1.816 2.752-1.816 4.5 0 3.736 3.162 6.768 7 6.475zm4-6.475c0 2.485-2.017 4.5-4.5 4.5s-4.5-2.015-4.5-4.5 2.017-4.5 4.5-4.5 4.5 2.015 4.5 4.5zm-6.677 1.449l1.302-1.449h-.875c0-.965.785-1.75 1.75-1.75.473 0 .902.189 1.218.496l.584-.651c-.471-.445-1.104-.72-1.802-.72-1.45 0-2.625 1.175-2.625 2.625h-.875l1.323 1.449zm5.677-1.449l-1.323-1.449-1.302 1.449h.875c0 .965-.785 1.75-1.75 1.75-.473 0-.902-.189-1.218-.496l-.584.651c.47.445 1.104.72 1.802.72 1.45 0 2.625-1.175 2.625-2.625h.875z"/></svg>