<svg xmlns="http://www.w3.org/2000/svg" width="24" height="24" viewBox="0 0 24 24"><path d="M5.495 2h16.505v-2h-17c-1.657 0-3 1.343-3 3v18c0 1.657 1.343 3 3 3h17v-20h-16.505c-1.375 0-1.375-2 0-2zm.505 4h14v16h-14v-16zm6.23 10.428c-.406-.55-.465-1.514-.405-2.107 1.115.268 2.455.217 3.437-.473 1.28-.898 1.505-3.848-1.404-3.848-1.631 0-3 1.147-3.572 2.491-.615 1.443-.702 3.5.405 4.633 1.295 1.325 3.613 1.253 5.051-.953l-.486-.5c-.771 1.222-2.21 1.864-3.026.757zm1.432-5.591c.986 0 .872 1.532.155 2.31-.594.645-1.553.607-1.938.607.137-1.118.654-2.917 1.783-2.917z"/></svg>