<svg xmlns="http://www.w3.org/2000/svg" width="24" height="24" viewBox="0 0 24 24"><path d="M18.397 17.899l1.019 6.101-7.416-4.554-7.416 4.554 1.48-8.866-6.064-5.828 8.332-1.15 3.668-8.156 3.047 6.773c-.558.526-1.021 1.148-1.365 1.842l-1.682-3.739-2.298 5.109-5.342.738 3.851 3.7-.931 5.575 4.72-2.898 4.72 2.898-.481-2.882c.656.382 1.383.651 2.158.783zm1.103-10.899c-2.486 0-4.5 2.015-4.5 4.5s2.014 4.5 4.5 4.5c2.484 0 4.5-2.015 4.5-4.5s-2.016-4.5-4.5-4.5zm-.469 6.484l-1.688-1.637.695-.697.992.94 2.115-2.169.697.696-2.811 2.867z"/></svg>