<svg xmlns="http://www.w3.org/2000/svg" width="24" height="24" viewBox="0 0 24 24"><path d="M5.495 2h16.505v-2h-17c-1.656 0-3 1.343-3 3v18c0 1.657 1.344 3 3 3h17v-20h-16.505c-1.376 0-1.376-2 0-2zm7.561 7.273c.438-.372 1.084-.363 1.446.018.361.382.302.992-.135 1.364-.437.372-1.084.364-1.446-.018-.361-.382-.302-.992.135-1.364zm.583 4.567c-.627 1.508-1.075 2.525-1.331 3.31-.374 1.144.569.68 1.493-.173.127.206.167.271.294.508-2.054 1.953-4.331 2.125-3.623-.12.464-1.469 1.342-3.229 1.496-3.675.225-.646-.174-.934-1.429.171l-.278-.525c1.431-1.558 4.381-1.91 3.378.504z"/></svg>