<svg xmlns="http://www.w3.org/2000/svg" width="24" height="24" viewBox="0 0 24 24"><path d="M22 13h-2v-4h2v4zm0-9h-2v4h2v-4zm0 10h-2v4h2v-4zm0 5h-2v4h2v-4zm-7.928-2.246l-.342-.496c-.513.296-1.125.567-2.129.567-1.713 0-2.865-1.099-2.865-2.736 0-2.857 3.199-3.379 4.605-2.536 1.312.822 1.264 2.789.292 3.542-.519.413-1.1.399-.912-.379 0 0 .606-2.244.678-2.486h-.681l-.137.475c-.139-.392-.472-.647-.954-.647-1.01 0-1.862 1.095-1.862 2.392 0 .865.458 1.401 1.189 1.401.643 0 .977-.362 1.183-.687-.15 1.451 2.863.78 2.863-1.761 0-1.622-1.314-2.8-3.129-2.8-2.481 0-3.871 1.574-3.871 3.536 0 1.835 1.232 3.258 3.512 3.258 1.26 0 2.061-.363 2.56-.643zm-1.713-3.49c0 .396-.134.915-.342 1.321-.506.989-1.531.982-1.531-.07 0-.393.134-.899.342-1.29.512-.962 1.531-.812 1.531.039zm-6.864-9.264h13.505v20h-14c-1.656 0-3-1.343-3-3v-18c0-1.657 1.344-3 3-3h17v2h-16.505c-1.376 0-1.376 2 0 2zm.505 18h11v-16h-11v16z"/></svg>