<svg xmlns="http://www.w3.org/2000/svg" width="24" height="24" viewBox="0 0 24 24"><path d="M16 10.975v13.025l-6-5.269-6 5.269v-24h6.816c-.553.576-1.004 1.251-1.316 2h-3.5v17.582l4-3.512 4 3.512v-8.763c.805.19 1.379.203 2 .156zm-.5-10.975c-2.483 0-4.5 2.015-4.5 4.5s2.017 4.5 4.5 4.5 4.5-2.015 4.5-4.5-2.017-4.5-4.5-4.5zm-3.5 4.5h.875c0-1.45 1.175-2.625 2.625-2.625.698 0 1.332.275 1.802.72l-.584.651c-.316-.307-.745-.496-1.218-.496-.965 0-1.75.785-1.75 1.75h.875l-1.302 1.449-1.323-1.449zm6.125 0c0 1.45-1.175 2.625-2.625 2.625-.699 0-1.332-.275-1.802-.72l.584-.651c.316.307.745.496 1.218.496.965 0 1.75-.785 1.75-1.75h-.875l1.302-1.449 1.323 1.449h-.875z"/></svg>