<svg xmlns="http://www.w3.org/2000/svg" width="24" height="24" viewBox="0 0 24 24"><path d="M5.495 2h16.505v-2h-17c-1.656 0-3 1.343-3 3v18c0 1.657 1.344 3 3 3h17v-20h-16.505c-1.376 0-1.376-2 0-2zm.505 4h14v16h-14v-16zm8.084 11.958c0 .575-.466 1.042-1.042 1.042-.573 0-1.04-.467-1.04-1.042 0-.576.467-1.042 1.04-1.042.576.001 1.042.467 1.042 1.042zm-1.008-8.958c-1.68 0-2.942 1.122-2.942 3.333h1.648c0-.96.377-1.746 1.26-1.746.52 0 1.07.345 1.118 1.004.051.694-.319 1.046-.788 1.493-1.219 1.158-1.174 1.688-1.174 2.999h1.644c0-.605-.066-1.045.766-1.941.554-.598 1.244-1.342 1.259-2.477.019-1.65-1.147-2.665-2.791-2.665z"/></svg>