<svg xmlns="http://www.w3.org/2000/svg" width="24" height="24" viewBox="0 0 24 24"><path d="M10.879 13.754c.137-1.119.653-2.917 1.782-2.917.986 0 .872 1.532.155 2.31-.593.645-1.552.607-1.937.607zm-5.384-9.754h16.505v20h-17c-1.657 0-3-1.343-3-3v-18c0-1.657 1.343-3 3-3h17v2h-16.505c-1.375 0-1.375 2 0 2zm4.195 13.124c1.295 1.325 3.613 1.253 5.051-.953l-.486-.5c-.77 1.221-2.209 1.863-3.025.756-.406-.55-.465-1.514-.405-2.107 1.115.268 2.455.217 3.437-.473 1.28-.897 1.505-3.847-1.404-3.847-1.631 0-3 1.147-3.572 2.491-.615 1.444-.702 3.5.404 4.633z"/></svg>