<svg xmlns="http://www.w3.org/2000/svg" width="24" height="24" viewBox="0 0 24 24"><path d="M18.376 13.896l-2.376.479.479-2.375 1.897 1.896zm-1.425-2.368l1.896 1.896 5.153-5.153-1.896-1.896-5.153 5.153zm3.31 3.311l-.094.08v2.241c-3.927.269-6.853 1.148-8.25 1.649v-11.74c2.705-1.602 7.582-2.172 10.083-2.303v-1.766c-4.202.128-8.307.804-11 2.481-2.693-1.677-6.798-2.353-11-2.481v15.904c3.608.11 7.146.624 9.778 1.829.775.355 1.666.356 2.444 0 2.633-1.205 6.169-1.718 9.777-1.829v-5.804l-1.738 1.739zm-10.178 3.969c-1.397-.5-4.322-1.38-8.25-1.649v-12.228c4.727.356 6.9 1.341 8.25 2.14v11.737zm4.959-4.263l.177-1.066-2.219.549v1.019l2.042-.502z"/></svg>