<svg xmlns="http://www.w3.org/2000/svg" width="24" height="24" viewBox="0 0 24 24"><path d="M5.495 2h16.505v-2h-17c-1.657 0-3 1.343-3 3v18c0 1.657 1.343 3 3 3h17v-20h-16.505c-1.375 0-1.375-2 0-2zm6.681 17c-.573 0-1.04-.467-1.04-1.042 0-.576.467-1.042 1.04-1.042.576 0 1.042.466 1.042 1.042 0 .575-.466 1.042-1.042 1.042zm.034-10c1.644 0 2.81 1.015 2.79 2.666-.015 1.134-.705 1.878-1.259 2.477-.832.896-.766 1.336-.766 1.941h-1.644c0-1.311-.045-1.84 1.174-2.999.469-.446.839-.799.788-1.493-.048-.66-.599-1.004-1.118-1.004-.883 0-1.26.785-1.26 1.746h-1.647c0-2.212 1.262-3.334 2.942-3.334z"/></svg>