<svg xmlns="http://www.w3.org/2000/svg" width="24" height="24" viewBox="0 0 24 24"><path d="M17 7h-10v1h10v-1zm0 2h-10v1h10v-1zm-4 2h-6v1h6v-1zm9.042 4.638c.06.255-.277.414-.391.144-.136-.33-.356-1.734-.547-3.146-.103-.756-1.107-.663-1.104.118.003 1.215.002 2.228 0 4.027-.002 1.535.697 1.565 1.213 3.287.088.296.164.618.226.933l2.561-.895c-.893-1.747-.462-3.126-.373-4.255.122-1.543-.288-1.693-2.192-3.548.114.816.352 2.265.607 3.335zm-19.477-3.334c-1.904 1.854-2.314 2.005-2.192 3.548.089 1.128.52 2.507-.373 4.254l2.562.894c.062-.314.138-.637.226-.933.515-1.721 1.214-1.752 1.212-3.287-.002-1.8-.003-2.812 0-4.027.003-.781-1.002-.874-1.104-.118-.19 1.412-.411 2.816-.547 3.146-.113.271-.45.111-.391-.144.255-1.069.493-2.518.607-3.333zm2.435 4.696l.004-2h13.992l.004 2h-14zm-2-5.819v-6.681c0-.828.672-1.5 1.5-1.5h15c.828 0 1.5.672 1.5 1.5v6.681c-.138-.04-.282-.065-.436-.065-.41-.001-.812.166-1.102.457-.289.29-.449.686-.463 1.118v-7.691h-13.999v7.689c-.014-.432-.174-.827-.463-1.117-.29-.291-.691-.457-1.102-.457-.152 0-.296.026-.435.066z"/></svg>