<svg width="24" height="24" xmlns="http://www.w3.org/2000/svg" fill-rule="evenodd" clip-rule="evenodd"><path d="M12 0c6.623 0 12 5.377 12 12s-5.377 12-12 12-12-5.377-12-12 5.377-12 12-12zm1.11 9.349c1.165 0 2.11 1.042 2.11 2.325 0 1.284-.945 2.326-2.11 2.326-1.164 0-2.11-1.042-2.11-2.326 0-1.283.946-2.325 2.11-2.325zm5.781-1.914c.607 1.071.575 2.238-.072 2.605-.647.366-1.665-.206-2.272-1.277-.607-1.071-.575-2.238.072-2.605.647-.366 1.665.206 2.272 1.277zm-7.677-3.435c1.222 0 2.214.704 2.214 1.571s-.992 1.57-2.214 1.57-2.214-.703-2.214-1.57c0-.867.992-1.571 2.214-1.571z"/></svg>