<svg width="24" height="24" xmlns="http://www.w3.org/2000/svg" fill-rule="evenodd" clip-rule="evenodd"><path d="M10.381 21.275l-6.631-3.787 1.391-2.384 6.631 3.787-1.391 2.384zm7.82-19.68c-1.957-1.134-3.641-1.665-5.032-1.588-2.093.117-3.933 1.233-3.621 4.89-.394-2.267-1.817-4.178-3.5-3.869-2.234.41-1.649 3.302-1.435 5.706.191 2.155.408 4.598-.7 6.502l-2.913 4.991 10.11 5.773 2.907-4.984c1.429-2.435 3.055-3.631 4.63-4.789 1.068-.787 4.353-2.998 4.353-6.193 0-2.645-2.251-4.962-4.799-6.439"/></svg>