<svg width="24" height="24" xmlns="http://www.w3.org/2000/svg" fill-rule="evenodd" clip-rule="evenodd"><path d="M20.554 9.583c-.729 1.291-1.823 2.096-3.092 3.027-1.483 1.091-3.142 2.319-4.647 4.567l-6.727-3.841c.919-2.241.7-4.73.518-6.78-.186-2.099-.259-3.417.434-3.651 1.123-.379 2.501 2.097 3.192 4.095 1.137-4.59 2.047-6.521 6.967-3.669 1.216.707 5.053 3.24 3.355 6.252m-10.173 11.692l-6.631-3.787 1.391-2.384 6.631 3.787-1.391 2.384zm7.82-19.68c-1.957-1.134-3.641-1.665-5.032-1.588-1.524.085-2.684.909-3.337 2.296-.924-1.13-2.122-1.793-3.496-1.275-2.158.814-1.937 3.302-1.723 5.706.191 2.155.408 4.598-.7 6.502l-2.913 4.991 10.11 5.773 2.907-4.984c1.429-2.435 3.055-3.631 4.63-4.789 1.068-.787 4.353-2.998 4.353-6.193 0-2.645-2.251-4.962-4.799-6.439"/></svg>