<svg xmlns="http://www.w3.org/2000/svg" width="24" height="24" viewBox="0 0 24 24"><path d="M10.394 4.556c-.375-.403-.28-.915.304-1.255.714-.415 1.881-.415 2.6 0 .592.342.69.858.312 1.262-.083-.089-.182-.175-.312-.251-.719-.415-1.886-.415-2.6 0-.128.073-.223.157-.304.244zm4.523 2.028c.714-.415 1.881-.415 2.6 0 .131.076.229.162.312.251.378-.404.279-.92-.312-1.262-.719-.415-1.886-.415-2.6 0-.584.34-.679.852-.304 1.255.081-.087.177-.17.304-.244zm8.083-.508v12.055l-11 5.869-11-5.869v-12.117l.009.005-.009-.019 11-6 11 6.076zm-20.885.46l9.903 5.448 9.896-5.385-9.917-5.458-9.882 5.395zm.885 10.196l8 4.268v-7l-8-4.401v7.133zm10 4.268l8-4.268v-7.085l-8 4.353v7zm.609-11.859c.378-.404.279-.92-.312-1.262-.719-.415-1.886-.415-2.6 0-.584.34-.679.852-.304 1.255.081-.087.177-.17.304-.244.714-.415 1.881-.415 2.6 0 .131.075.229.161.312.251zm-4.68-3.568c-.719-.415-1.886-.415-2.6 0-.584.34-.679.852-.304 1.255.081-.087.177-.17.304-.244.714-.415 1.881-.415 2.6 0 .131.076.229.162.312.251.378-.404.28-.92-.312-1.262z"/></svg>