<svg xmlns="http://www.w3.org/2000/svg" width="24" height="24" viewBox="0 0 24 24"><path d="M0 7v15h24v-15h-24zm9.889 5.417c.172 0 .334-.088.427-.239.054-.089.077-.189.072-.289.173-.021.352.024.483.157.229.229.228.597 0 .825s-.597.228-.825 0c-.125-.125-.175-.292-.162-.455l.005.001zm3.798 3.063l-.206.206-2.063-2.062.206-.206 2.063 2.062zm-1.651-2.475l.206-.206 2.062 2.062-.206.206-2.062-2.062zm.207 2.269l-.207.206-1.237-1.237.206-.207 1.238 1.238zm-3.305-4.171c-1.177-.517-1.757-1.384-2.051-2.103h2.093c-.195.7-.225 1.435-.042 2.103zm13.062 8.897h-20v-11h3.825c.414 1.273 1.4 2.572 3.176 3.182v1.913l3.905 3.905 3.094-3.093-3.906-3.907h-2.128c-.204-.583-.217-1.312.045-2h11.989v11zm-13-14h-2v-2c0-1.104.896-2 2-2h6c1.104 0 2 .896 2 2v2h-2v-1.5c0-.276-.224-.5-.5-.5h-5c-.276 0-.5.224-.5.5v1.5z"/></svg>