<svg xmlns="http://www.w3.org/2000/svg" width="24" height="24" viewBox="0 0 24 24"><path d="M22 9v1.528c-.476.69-3.815 1.971-9.77 1.971-6.239 0-9.736-1.358-10.23-2.088v-1.411h20zm2-2h-24v3.491c0 2.657 6.154 4.009 12.23 4.009 5.922 0 11.77-1.284 11.77-3.895v-3.605zm-2 8.074v4.926h-20v-5.001c-.823-.337-1.478-.711-2-1.096v8.097h24v-7.949c-.583.402-1.262.741-2 1.023zm-8 1.958c0 1.087-.896 1.968-2 1.968s-2-.881-2-1.968v-1.032h4v1.032zm-5-15.032c-1.104 0-2 .896-2 2v2h2v-1.5c0-.276.224-.5.5-.5h5c.276 0 .5.224.5.5v1.5h2v-2c0-1.104-.896-2-2-2h-6z"/></svg>