<svg xmlns="http://www.w3.org/2000/svg" width="24" height="24" viewBox="0 0 24 24"><path d="M9 6h-2v-2c0-1.104.896-2 2-2h6c1.104 0 2 .896 2 2v2h-2v-1.5c0-.276-.224-.5-.5-.5h-5c-.276 0-.5.224-.5.5v1.5zm9.847 5.723c-.265 0-.48.349-.48.779 0 .43.215.778.48.778s.48-.349.48-.778c0-.431-.215-.779-.48-.779zm5.153-4.723v15h-24v-15h24zm-18 5h-2v1h2v-1zm3 0h-2v1h2v-1zm3 0h-2v1h2v-1zm3 0h-2v1h2v-1zm5 .479c-.004-.786-.536-1.479-1.235-1.479-.352 0-2.405.858-2.765 1v1c.351.139 2.38 1 2.733 1 .721 0 1.271-.728 1.267-1.521z"/></svg>