<svg xmlns="http://www.w3.org/2000/svg" width="24" height="24" viewBox="0 0 24 24"><path d="M21 9c.552 0 1 .449 1 1v9c0 .551-.448 1-1 1h-18c-.552 0-1-.449-1-1v-9c0-.551.448-1 1-1h18zm0-2h-18c-1.657 0-3 1.343-3 3v9c0 1.657 1.343 3 3 3h18c1.657 0 3-1.343 3-3v-9c0-1.657-1.343-3-3-3zm-12-5c-1.104 0-2 .896-2 2v2h2v-1.5c0-.276.224-.5.5-.5h5c.276 0 .5.224.5.5v1.5h2v-2c0-1.104-.896-2-2-2h-6zm10.5 9h-15c-.276 0-.5.224-.5.5s.224.5.5.5h15c.276 0 .5-.224.5-.5s-.224-.5-.5-.5zm0 3h-15c-.276 0-.5.224-.5.5s.224.5.5.5h15c.276 0 .5-.224.5-.5s-.224-.5-.5-.5zm0 3h-15c-.276 0-.5.224-.5.5s.224.5.5.5h15c.276 0 .5-.224.5-.5s-.224-.5-.5-.5z"/></svg>