<svg xmlns="http://www.w3.org/2000/svg" width="24" height="24" viewBox="0 0 24 24"><path d="M22 9v11h-20v-11h20zm2-2h-24v15h24v-15zm-15-5c-1.104 0-2 .896-2 2v2h2v-1.5c0-.276.224-.5.5-.5h5c.276 0 .5.224.5.5v1.5h2v-2c0-1.104-.896-2-2-2h-6zm-3 11h-2v-1h2v1zm3-1h-2v1h2v-1zm3 0h-2v1h2v-1zm3 0h-2v1h2v-1zm5 .479c.004.793-.546 1.521-1.267 1.521-.353 0-2.382-.861-2.733-1v-1c.36-.141 2.413-1 2.765-1 .699 0 1.231.693 1.235 1.479zm-.673.022c0-.43-.215-.779-.48-.779s-.48.349-.48.779c0 .43.215.778.48.778s.48-.348.48-.778z"/></svg>