<svg xmlns="http://www.w3.org/2000/svg" width="24" height="24" viewBox="0 0 24 24"><path d="M12 9c1.654 0 3 1.346 3 3s-1.346 3-3 3-3-1.346-3-3 1.346-3 3-3zm0-2c-2.762 0-5 2.238-5 5s2.238 5 5 5 5-2.238 5-5-2.238-5-5-5zm0-2c.34 0 .672.033 1 .08v-2.08h-2v2.08c.328-.047.66-.08 1-.08zm-4.184 1.401l-1.472-1.473-1.414 1.415 1.473 1.473c.401-.537.876-1.013 1.413-1.415zm9.782 1.414l1.473-1.473-1.414-1.414-1.473 1.473c.537.402 1.012.878 1.414 1.414zm-5.598 11.185c-.34 0-.672-.033-1-.08v2.08h2v-2.08c-.328.047-.66.08-1 .08zm4.185-1.402l1.473 1.473 1.415-1.415-1.473-1.472c-.403.536-.879 1.012-1.415 1.414zm-11.185-5.598c0-.34.033-.672.08-1h-2.08v2h2.08c-.047-.328-.08-.66-.08-1zm13.92-1c.047.328.08.66.08 1s-.033.672-.08 1h2.08v-2h-2.08zm-12.519 5.184l-1.473 1.473 1.414 1.414 1.473-1.473c-.536-.402-1.012-.877-1.414-1.414z"/></svg>