<svg xmlns="http://www.w3.org/2000/svg" width="24" height="24" viewBox="0 0 24 24"><path d="M6.402 7.815l-3.594-3.594 1.415-1.414 3.594 3.594c-.538.402-1.013.878-1.415 1.414zm14.79-3.594l-16.969 16.97-1.414-1.414 5.035-5.036c-.528-.785-.844-1.721-.844-2.741 0-2.762 2.238-5 5-5 1.02 0 1.956.316 2.741.844l5.037-5.038 1.414 1.415zm-11.891 9.064l3.984-3.984c-.389-.19-.823-.301-1.285-.301-1.654 0-3 1.346-3 3 0 .462.111.896.301 1.285zm3.699-8.205v-5.08h-2v5.08c.328-.047.66-.08 1-.08s.672.033 1 .08zm-8 6.92c0-.34.033-.672.08-1h-5.08v2h5.08c-.047-.328-.08-.66-.08-1zm11.185 5.598l3.594 3.593 1.415-1.414-3.594-3.593c-.403.536-.879 1.012-1.415 1.414zm.629-6.878l-1.875 1.875c-.237 1.178-1.167 2.107-2.345 2.345l-1.874 1.874c.412.109.835.186 1.28.186 2.762 0 5-2.238 5-5 0-.445-.077-.869-.186-1.28zm2.106.28c.047.328.08.66.08 1s-.033.672-.08 1h5.08v-2h-5.08zm-7.92 7.92v5.08h2v-5.08c-.328.047-.66.08-1 .08s-.672-.033-1-.08z"/></svg>