<svg xmlns="http://www.w3.org/2000/svg" width="24" height="24" viewBox="0 0 24 24"><path d="M17 11.006c0 .239-.196.432-.439.432h-.995c-.231 0-.479.138-.532.473-.043.269.112.484.318.576l1.009.449c.221.098.318.354.22.572-.102.217-.361.314-.581.216l-1.068-.475c-.139-.063-.292-.029-.4.151-.446.735-1.31 1.464-2.532 1.6-1.246-.139-2.12-.894-2.557-1.643-.089-.152-.247-.164-.374-.107l-1.068.475c-.221.098-.479.001-.581-.216-.099-.218-.001-.474.22-.572l1.009-.449c.218-.097.359-.306.313-.609-.046-.285-.29-.44-.527-.44h-.996c-.243-.001-.439-.194-.439-.433s.196-.432.439-.432h1.001c.229 0 .47-.147.514-.462.034-.242-.114-.451-.322-.531l-.929-.362c-.226-.088-.337-.338-.248-.56.09-.222.345-.332.57-.244l.956.371c.123.047.298.032.392-.183.076-.169.16-.328.25-.477.713.416 1.497.624 2.377.624.867 0 1.661-.212 2.374-.625.095.154.183.318.259.494.081.183.249.221.386.168l.956-.371c.226-.088.48.021.57.244.089.222-.022.472-.248.56l-.929.361c-.2.077-.358.273-.32.556.038.274.272.438.512.438h1.001c.243-.001.439.192.439.431zm-6.587-4.847c.134.03.25.112.321.228.258.429-.078.796-.391 1.179.504.235 1.046.351 1.657.351.602 0 1.148-.119 1.654-.353-.308-.377-.644-.753-.389-1.177.071-.116.188-.198.321-.228.265-.058.465-.291.465-.573.001-.323-.265-.586-.595-.586-.393 0-.677.369-.575.74.038.141.018.29-.057.415-.169.279-.457.447-.824.449-.372-.002-.656-.172-.824-.449-.074-.125-.095-.274-.057-.415.102-.372-.182-.74-.575-.74-.33 0-.596.263-.596.586 0 .282.2.515.465.573zm1.587-4.159c4.411 0 8 3.589 8 8s-3.589 8-8 8-8-3.589-8-8 3.589-8 8-8zm0-2c-5.523 0-10 4.477-10 10 0 5.625 5.04 9.864 10 14 4.844-3.969 10-8.375 10-14 0-5.523-4.478-10-10-10z"/></svg>