<svg xmlns="http://www.w3.org/2000/svg" width="24" height="24" viewBox="0 0 24 24"><path d="M12 0c-6.627 0-12 5.373-12 12s5.373 12 12 12 12-5.373 12-12-5.373-12-12-12zm-1.748 6c.472 0 .813.441.69.888-.046.168-.021.348.069.498.2.332.542.536.988.539.44-.002.786-.204.988-.539.09-.15.115-.329.069-.498-.121-.446.219-.888.692-.888.395 0 .715.315.715.704 0 .337-.241.617-.559.687-.161.036-.3.134-.385.274-.307.508.097.958.465 1.412-.605.281-1.261.423-1.984.423-.734 0-1.385-.139-1.987-.42.374-.46.777-.901.468-1.415-.085-.14-.224-.238-.385-.274-.317-.07-.559-.35-.559-.687 0-.389.32-.704.715-.704zm7.221 7.726h-1.193c-.279 0-.574.166-.639.568-.052.322.135.581.382.691l1.21.539c.266.118.383.425.264.686-.121.261-.434.376-.697.259l-1.281-.57c-.167-.075-.351-.034-.481.182-.534.881-1.571 1.756-3.038 1.919-1.496-.167-2.545-1.073-3.067-1.972-.106-.183-.297-.197-.45-.129l-1.281.57c-.265.118-.576.002-.697-.259-.119-.261-.002-.568.264-.686l1.21-.539c.262-.117.432-.367.376-.731-.054-.342-.347-.528-.633-.528h-1.195c-.291 0-.527-.232-.527-.518s.236-.519.527-.519h1.201c.275 0 .564-.176.617-.555.041-.29-.139-.541-.387-.637l-1.115-.433c-.271-.105-.404-.406-.297-.673.106-.267.412-.397.684-.292l1.146.445c.148.057.357.038.471-.219.091-.204.192-.394.301-.573.855.499 1.795.748 2.852.748 1.04 0 1.993-.255 2.85-.751.112.186.218.382.311.594.096.219.298.265.463.201l1.146-.445c.271-.105.577.025.684.292.107.267-.026.567-.297.673l-1.115.433c-.24.093-.429.328-.383.667.045.329.326.526.613.526h1.201c.291 0 .527.232.527.519s-.236.517-.527.517z"/></svg>