<svg xmlns="http://www.w3.org/2000/svg" width="24" height="24" viewBox="0 0 24 24"><path d="M12 2c5.514 0 10 4.486 10 10s-4.486 10-10 10-10-4.486-10-10 4.486-10 10-10zm0-2c-6.627 0-12 5.373-12 12s5.373 12 12 12 12-5.373 12-12-5.373-12-12-12zm-2.463 6.704c0-.389.32-.704.715-.704.472 0 .813.441.69.888-.046.168-.021.348.069.498.2.332.542.536.988.539.44-.002.786-.204.988-.539.09-.15.115-.329.069-.498-.121-.446.219-.888.692-.888.395 0 .715.315.715.704 0 .337-.241.617-.559.687-.161.036-.3.134-.385.274-.307.508.097.958.465 1.412-.605.281-1.261.423-1.984.423-.734 0-1.385-.139-1.987-.42.374-.46.777-.901.468-1.415-.085-.14-.224-.238-.385-.274-.318-.07-.559-.349-.559-.687zm6.742 7.022h1.193c.291 0 .527-.232.527-.519s-.236-.519-.527-.519h-1.201c-.287 0-.568-.197-.613-.526-.046-.339.143-.574.383-.667l1.115-.433c.271-.105.404-.406.297-.673-.106-.267-.412-.397-.684-.292l-1.146.445c-.165.063-.367.018-.463-.201-.093-.211-.198-.408-.311-.594-.856.498-1.809.753-2.849.753-1.057 0-1.997-.249-2.852-.748-.108.18-.21.369-.301.573-.113.257-.322.276-.471.219l-1.146-.445c-.271-.105-.577.025-.684.292-.107.267.026.567.297.673l1.115.433c.248.096.428.347.387.637-.053.379-.342.555-.617.555h-1.201c-.291 0-.527.232-.527.519s.236.519.527.519h1.193c.286 0 .579.186.633.528.056.364-.114.614-.376.731l-1.21.539c-.266.118-.383.425-.264.686.121.261.433.376.697.259l1.281-.57c.153-.068.344-.054.45.129.524.898 1.573 1.804 3.069 1.971 1.467-.163 2.504-1.038 3.036-1.919.131-.216.314-.257.481-.182l1.281.57c.264.118.576.002.697-.259.119-.261.002-.568-.264-.686l-1.21-.539c-.247-.11-.434-.369-.382-.691.066-.402.361-.568.64-.568z"/></svg>