<svg xmlns="http://www.w3.org/2000/svg" width="24" height="24" viewBox="0 0 24 24"><path d="M13 9.406c0 .215-.177.389-.396.389h-.896c-.208 0-.431.125-.479.426-.038.241.102.435.287.519l.907.404c.199.088.287.318.198.514-.092.196-.325.283-.522.194l-.962-.427c-.125-.057-.263-.026-.36.136-.4.661-1.177 1.316-2.277 1.439-1.121-.125-1.908-.805-2.301-1.479-.08-.137-.223-.148-.337-.097l-.962.428c-.198.088-.431.001-.522-.194-.089-.196-.001-.426.198-.514l.907-.404c.196-.088.323-.275.282-.548-.04-.257-.26-.398-.474-.398h-.895c-.219 0-.396-.173-.396-.388 0-.216.177-.389.396-.389h.901c.206 0 .422-.132.462-.416.03-.217-.103-.406-.29-.478l-.836-.326c-.203-.079-.303-.304-.224-.504.081-.2.311-.298.514-.219l.86.334c.111.042.269.028.353-.165.068-.152.144-.294.224-.429.642.374 1.348.561 2.14.561.78 0 1.495-.191 2.137-.563.085.139.164.287.232.445.073.164.225.199.348.151l.86-.334c.203-.079.433.019.514.219.079.2-.021.425-.224.504l-.836.325c-.18.069-.322.246-.288.5.034.247.245.394.46.394h.901c.219.001.396.174.396.39zm-5.928-4.363c.12.027.225.101.289.205.232.386-.07.717-.351 1.062.452.211.94.315 1.49.315.541 0 1.033-.107 1.489-.318-.277-.339-.579-.677-.35-1.058.064-.104.169-.179.289-.206.238-.052.419-.262.419-.516 0-.29-.24-.527-.536-.527-.354 0-.61.332-.518.666.034.127.016.261-.051.373-.152.251-.412.402-.742.404-.335-.002-.591-.155-.742-.404-.067-.112-.085-.246-.051-.373.092-.334-.164-.666-.518-.666-.296 0-.536.237-.536.528 0 .253.181.463.419.515zm14.097 14.711c.522-.79.831-1.735.831-2.754 0-2.761-2.238-5-5-5s-5 2.239-5 5 2.238 5 5 5c1.019 0 1.964-.309 2.755-.832l2.831 2.832 1.414-1.414-2.831-2.832zm-4.169.246c-1.654 0-3-1.346-3-3s1.346-3 3-3 3 1.346 3 3-1.346 3-3 3zm-4.89 2h-7.11l2.599-3h2.696c.345 1.152.976 2.18 1.815 3zm-2.11-5h-10v-17h22v12.11c-.574-.586-1.251-1.068-2-1.425v-8.685h-18v13h8.295c-.19.634-.295 1.305-.295 2z"/></svg>