<svg xmlns="http://www.w3.org/2000/svg" width="24" height="24" viewBox="0 0 24 24"><path d="M5.895 3.173c0-.648.534-1.173 1.192-1.173.785 0 1.355.736 1.15 1.48-.077.281-.035.58.116.829.334.553.903.895 1.647.898.733-.003 1.31-.34 1.647-.898.151-.25.193-.548.115-.829-.205-.743.364-1.48 1.151-1.48.658 0 1.192.525 1.192 1.173 0 .563-.402 1.029-.932 1.146-.268.059-.5.225-.64.457-.511.847.161 1.598.775 2.353-1.009.468-2.103.704-3.308.704-1.223 0-2.309-.231-3.312-.7.624-.767 1.296-1.502.779-2.358-.141-.232-.372-.397-.64-.457-.53-.116-.932-.582-.932-1.145zm4.105 12.827c0-3.327 2.042-6.184 4.939-7.389l-.189-.363c-1.429.827-3.017 1.252-4.75 1.252-1.761 0-3.329-.415-4.752-1.246-.181.299-.351.615-.5.954-.189.429-.539.46-.785.365l-1.913-.742c-.451-.176-.961.043-1.139.487-.178.444.044.946.495 1.121l1.86.722c.413.16.712.578.644 1.062-.088.631-.569.926-1.029.926h-2.003c-.485-.001-.878.386-.878.864 0 .477.393.864.878.864h1.989c.478 0 .966.31 1.055.88.093.607-.19 1.024-.626 1.218l-2.017.898c-.442.197-.638.709-.438 1.144s.721.628 1.162.431l2.134-.95c.256-.114.573-.088.75.216.871 1.497 2.62 3.009 5.113 3.286.783-.087 1.484-.306 2.117-.598-1.31-1.425-2.117-3.319-2.117-5.402zm14 0c0 3.314-2.686 6-6 6s-6-2.686-6-6 2.686-6 6-6 6 2.686 6 6zm-2.142 1h-1.858v-2h1.858c-.364-1.399-1.459-2.494-2.858-2.858v1.858h-2v-1.858c-1.399.364-2.494 1.459-2.858 2.858h1.858v2h-1.858c.364 1.399 1.459 2.494 2.858 2.858v-1.858h2v1.858c1.399-.364 2.494-1.459 2.858-2.858z"/></svg>