<svg xmlns="http://www.w3.org/2000/svg" width="24" height="24" viewBox="0 0 24 24"><path d="M14.949 8h-7.86c.223-1.72 1.897-3.051 3.93-3.051 2.034 0 3.708 1.331 3.93 3.051zm-2.949-4.075v-.964c-.217-.052-.378-.248-.378-.481 0-.233.161-.428.378-.48v-1h-2v2.925c.352-.073.717-.112 1.092-.112s.556.04.908.112zm-6 5.075h10v15h-10v-15zm3.769 4.352c0 .168.12.309.279.343.081.018.15.067.192.137.155.257-.047.478-.234.708.302.141.627.21.994.21.361 0 .689-.071.992-.211-.184-.227-.386-.452-.232-.706.042-.07.112-.119.192-.137.159-.035.279-.175.279-.343 0-.195-.16-.352-.357-.352-.236 0-.407.221-.345.444.023.084.011.173-.035.249-.101.166-.274.267-.494.268-.224-.001-.394-.103-.494-.269-.045-.075-.058-.165-.035-.249.062-.223-.109-.444-.345-.444-.197 0-.357.157-.357.352zm-1.769 3.252c0 .143.118.259.264.259h.596c.143 0 .29.093.316.264.028.182-.057.308-.188.366l-.605.27c-.133.059-.191.212-.131.343.06.13.216.188.349.129l.64-.285c.076-.035.172-.027.225.064.262.449.786.903 1.534.986.733-.082 1.252-.519 1.519-.959.065-.108.156-.128.24-.091l.64.285c.132.059.289.002.349-.129s.001-.284-.131-.343l-.605-.27c-.124-.055-.217-.185-.191-.346.032-.201.18-.284.319-.284h.597c.146 0 .264-.116.264-.259s-.118-.259-.264-.259h-.601c-.144 0-.284-.099-.307-.264-.023-.169.071-.287.191-.333l.558-.217c.136-.052.202-.204.148-.336-.053-.133-.206-.199-.342-.146l-.573.223c-.082.032-.184.009-.231-.1l-.155-.297c-.428.248-.905.375-1.425.375-.528 0-.999-.125-1.426-.374l-.15.287c-.057.128-.162.138-.236.109l-.573-.223c-.136-.053-.289.013-.342.146-.053.133.013.284.148.336l.558.217c.124.048.214.173.193.318-.026.19-.17.278-.309.278h-.599c-.146.001-.264.117-.264.26zm9.5-15.604c.276 0 .5-.224.5-.5s-.224-.5-.5-.5-.5.224-.5.5.224.5.5.5zm-4 2c.276 0 .5-.224.5-.5s-.224-.5-.5-.5-.5.224-.5.5.224.5.5.5zm4 1c-.276 0-.5.224-.5.5s.224.5.5.5.5-.224.5-.5-.224-.5-.5-.5zm-2-3c-.276 0-.5.224-.5.5s.224.5.5.5.5-.224.5-.5-.224-.5-.5-.5zm2 1c-.276 0-.5.224-.5.5s.224.5.5.5.5-.224.5-.5-.224-.5-.5-.5zm-2 1c-.276 0-.5.224-.5.5s.224.5.5.5.5-.224.5-.5-.224-.5-.5-.5z"/></svg>