<svg xmlns="http://www.w3.org/2000/svg" width="24" height="24" viewBox="0 0 24 24"><path d="M14.568.075c2.202 1.174 5.938 4.883 7.432 6.881-1.286-.9-4.044-1.657-6.091-1.179.222-1.468-.185-4.534-1.341-5.702zm7.432 10.925v13h-20v-24h8.409c4.857 0 3.335 8 3.335 8 3.009-.745 8.256-.419 8.256 3zm-12.052-.414c0 .282.2.515.465.573.134.03.25.112.321.228.258.429-.078.796-.391 1.179.503.234 1.045.351 1.656.351.602 0 1.148-.119 1.654-.353-.308-.377-.644-.753-.389-1.177.071-.116.188-.198.321-.228.265-.058.465-.291.465-.573 0-.323-.266-.586-.596-.586-.393 0-.677.369-.575.74.038.141.018.29-.057.415-.169.279-.457.447-.824.449-.372-.002-.656-.172-.824-.449-.074-.125-.095-.274-.057-.415.102-.372-.183-.74-.575-.74-.328 0-.594.263-.594.586zm7.052 5.42c0-.239-.196-.432-.439-.432h-1.001c-.239 0-.474-.164-.512-.438-.038-.283.12-.479.32-.556l.929-.361c.226-.088.337-.338.248-.56-.09-.222-.345-.332-.57-.244l-.956.371c-.137.053-.305.015-.386-.168-.076-.176-.164-.34-.259-.494-.713.414-1.507.626-2.374.626-.88 0-1.664-.208-2.377-.623-.09.149-.174.308-.25.477-.094.214-.269.23-.392.183l-.956-.371c-.226-.088-.48.021-.57.244-.089.222.022.472.248.56l.929.361c.208.08.356.29.322.531-.044.315-.284.462-.514.462h-1.001c-.243 0-.439.193-.439.432s.196.432.439.432h.995c.237 0 .481.155.527.44.046.303-.096.512-.313.609l-1.008.45c-.221.098-.318.354-.22.572.102.217.36.314.581.216l1.068-.475c.127-.057.285-.044.374.107.437.749 1.311 1.504 2.557 1.643 1.222-.136 2.086-.865 2.53-1.599.108-.18.262-.214.4-.151l1.068.475c.22.098.479.001.581-.216.099-.218.001-.474-.22-.572l-1.009-.449c-.206-.092-.361-.308-.318-.576.054-.335.301-.473.532-.473h.995c.245-.001.441-.194.441-.433z"/></svg>