<svg xmlns="http://www.w3.org/2000/svg" width="24" height="24" viewBox="0 0 24 24"><path d="M7.074 1.408c0-.778.641-1.408 1.431-1.408.942 0 1.626.883 1.38 1.776-.093.336-.042.695.138.995.401.664 1.084 1.073 1.977 1.078.88-.004 1.572-.408 1.977-1.078.181-.299.231-.658.138-.995-.246-.892.436-1.776 1.38-1.776.79 0 1.431.63 1.431 1.408 0 .675-.482 1.234-1.118 1.375-.322.071-.6.269-.769.548-.613 1.017.193 1.917.93 2.823-1.21.562-2.524.846-3.969.846-1.468 0-2.771-.277-3.975-.84.748-.92 1.555-1.803.935-2.83-.168-.279-.446-.477-.768-.548-.636-.14-1.118-.699-1.118-1.374zm6.287 20.21c-.42.159-.864.293-1.361.366-6.151-.893-6.195-8.934-4.872-11.866 1.517.586 3.148.882 4.872.882 1.708 0 3.335-.298 4.859-.887.357.809.607 1.943.681 3.191.619-.197 1.277-.304 1.96-.304l.171.009c-.178-.175-.315-.398-.354-.683-.092-.677.286-1.147.765-1.333l2.231-.866c.541-.21.807-.813.594-1.346-.164-.408-.561-.657-.98-.657-.496 0-2.568 1.016-2.958 1.016-.255 0-.509-.135-.648-.454-.185-.423-.396-.816-.62-1.188-1.715.992-3.621 1.502-5.701 1.502-2.113 0-3.995-.498-5.703-1.496-.217.359-.421.738-.601 1.146-.161.366-.421.491-.663.491-.241 0-2.341-.854-2.573-.944-.543-.212-1.154.054-1.367.584-.213.533.053 1.136.594 1.346l2.231.866c.496.192.854.694.773 1.274-.106.758-.683 1.111-1.235 1.111h-2.402c-.582 0-1.054.464-1.054 1.037s.472 1.037 1.054 1.037h2.387c.573 0 1.159.372 1.265 1.057.112.728-.228 1.229-.751 1.462l-2.42 1.078c-.53.236-.766.851-.526 1.373.239.52.86.754 1.395.518l2.561-1.14c.336-.15.701-.083.901.259 1.043 1.795 3.143 3.608 6.134 3.941.843-.094 1.606-.315 2.304-.611-.4-.534-.72-1.129-.943-1.771zm10.639-2.118c0 2.485-2.017 4.5-4.5 4.5s-4.5-2.015-4.5-4.5 2.017-4.5 4.5-4.5 4.5 2.015 4.5 4.5zm-3.792 0l1.414-1.414-.708-.708-1.414 1.414-1.414-1.414-.707.708 1.414 1.414-1.414 1.414.707.708 1.414-1.414 1.414 1.414.708-.708-1.414-1.414z"/></svg>