<svg width="24" height="24" xmlns="http://www.w3.org/2000/svg" fill-rule="evenodd" clip-rule="evenodd"><path d="M24 24h-24v-2h24v2zm-1-3h-22v-1h22v1zm-17-1.999h-4v-6.001c-.552 0-1-.448-1-1s.448-1 1-1h4c.552 0 1 .448 1 1s-.448 1-1 1v6.001zm8 0h-4v-6.001c-.552 0-1-.448-1-1s.448-1 1-1h4c.552 0 1 .448 1 1s-.448 1-1 1v6.001zm8 0h-4v-6.001c-.552 0-1-.448-1-1s.448-1 1-1h4c.552 0 1 .448 1 1s-.448 1-1 1v6.001zm2.001-9.001h-24.001l12-10 12.001 10zm-18.477-2h12.953l-6.477-5.397-6.476 5.397zm6.471-4c.966 0 1.75.784 1.75 1.75s-.784 1.75-1.75 1.75-1.75-.784-1.75-1.75.784-1.75 1.75-1.75z"/></svg>