<svg width="24" height="24" xmlns="http://www.w3.org/2000/svg" fill-rule="evenodd" clip-rule="evenodd"><path d="M24 24h-24v-2h24v2zm-1-3h-22v-1h22v1zm-17-1.999h-4v-7.001c-.552 0-1-.448-1-1s.448-1 1-1h4c.552 0 1 .448 1 1s-.448 1-1 1v7.001zm8 0h-4v-7.001c-.552 0-1-.448-1-1s.448-1 1-1h4c.552 0 1 .448 1 1s-.448 1-1 1v7.001zm8 0h-4v-7.001c-.552 0-1-.448-1-1s.448-1 1-1h4c.552 0 1 .448 1 1s-.448 1-1 1v7.001zm-10-19.001l-12 9h24.001l-12.001-9zm0 3c1.104 0 2 .896 2 2s-.896 2-2 2-2-.896-2-2 .896-2 2-2z"/></svg>