<svg width="24" height="24" xmlns="http://www.w3.org/2000/svg" fill-rule="evenodd" clip-rule="evenodd"><path d="M11 23h-7c-.553 0-.999-.448-.999-1 0-.265.106-.52.293-.707.188-.188.442-.293.708-.293h5.002v-5h5.996v5h5.009c.265 0 .52.105.707.293.188.187.293.442.293.707 0 .552-.456 1-1.009 1h-7l.006-5h-2.006v5zm-4-3h-2.998c-.553 0-1.001-.448-1.001-1s.448-1 1.001-1h2.998v2zm14.009-1c0 .552-.448 1-1 1h-3.001v-2h3.001c.552 0 1 .448 1 1zm-14.009-2h-2.998c-.553 0-1.001-.448-1.001-1v-3l8.985-8c1.313 1.167 2.63 2.333 3.947 3.5l1.129 1c1.318 1.167 2.634 2.333 3.947 3.5v3c0 .552-.448 1-1 1h-3.001v-2h2v-1.113l-7.022-6.211-6.984 6.222-.002 1.102h2v2zm5.005-6c1.105 0 2.001.896 2.001 2s-.896 2-2.001 2c-1.104 0-2.001-.896-2.001-2s.897-2 2.001-2zm-.005-10s9.038 7.911 11.664 10.244c.413.367.45.999.083 1.412-.367.413-.995.445-1.412.083-2.421-2.105-10.343-9.063-10.343-9.063s-7.899 6.893-10.327 9.051c-.413.367-1.045.329-1.412-.083-.367-.413-.33-1.045.083-1.412 2.626-2.333 11.664-10.232 11.664-10.232zm7.005 2h3.001v5.134l-3.001-2.596v-2.538z"/></svg>