<svg width="24" height="24" xmlns="http://www.w3.org/2000/svg" fill-rule="evenodd" clip-rule="evenodd"><path d="M24 24h-24v-2h1c2.996-4.904 3.945-12.985 4-16h7c.054 2.94 1.005 10.982 4 16h1.742l-.642-1.093c-1.195-2.145-1.948-4.546-2.501-6.924.268-1.659.385-3.106.401-3.983h5c.04 2.205.753 8.236 3 12h1v2zm-18.287-6h2l-1.167 3 4.167-5h-2l1.167-3-4.167 5zm12.924-12.915c.238-.522.759-.885 1.363-.885s1.125.363 1.363.885c.154-.08.328-.125.512-.125.621 0 1.125.511 1.125 1.14 0 .629-.504 1.14-1.125 1.14-.184 0-.358-.045-.512-.125-.238.522-.759.885-1.363.885s-1.125-.363-1.363-.885c-.154.08-.328.125-.512.125-.621 0-1.125-.511-1.125-1.14 0-.629.504-1.14 1.125-1.14.184 0 .358.045.512.125zm-10.637-.085c.198-2.182 1.785-4 3.5-4 .246 0 .478.059.683.164.316-.687 1.011-1.164 1.817-1.164s1.501.477 1.817 1.164c.205-.105.437-.164.683-.164.828 0 1.5.672 1.5 1.5s-.672 1.5-1.5 1.5c-.246 0-.478-.059-.683-.164-.316.687-1.011 1.164-1.817 1.164-2.345 0-3.722-2.951-5 0h-1z"/></svg>