<svg width="24" height="24" xmlns="http://www.w3.org/2000/svg" fill-rule="evenodd" clip-rule="evenodd"><path d="M7 23h-5v-8.766l5.698-4.921 1.711 1.384 6.591-5.697 6 5.236v12.764h-5v-3h-2v3h-6v-3h-2v3zm13-2v-9.855l-4.006-3.496-6.542 5.655-1.712-1.385-3.74 3.231v5.85h1v-3h6v3h2v-3h6v3h1zm-7-6h2v2h-2v-2zm-8 0h2v2h-2v-2zm12 0h2v2h-2v-2zm-6 0v2h-2v-2h2zm2-3h2v2h-2v-2zm4 0h2v2h-2v-2zm-7.642-5.253l6.642-5.747 8 7-1.329 1.495-6.671-5.819-6.624 5.738-1.678-1.414-6.369 5.495-1.329-1.495 7.698-6.676 1.66 1.423z"/></svg>