<svg width="24" height="24" xmlns="http://www.w3.org/2000/svg" fill-rule="evenodd" clip-rule="evenodd"><path d="M14 24h-4v-3c0-.53-.211-1.039-.586-1.414s-.884-.586-1.414-.586c-.53 0-1.039.211-1.414.586s-.586.884-.586 1.414v3h-4v-14.725l6-5.275 6 5.275v14.725zm2.415-5h-1.415v-3h2c3.37 0 2.936 6 7 6v2h-1c-4.601 0-4.402-5-6.585-5zm-1.415-5h2.5c.133 0 .26.053.354.146.093.094.146.221.146.354 0 .133-.053.26-.146.354-.094.093-.221.146-.354.146h-2.5v-1zm-5 1v-4c0-1.104-.896-2-2-2s-2 .896-2 2v4h4zm-2-15.029l8 7.108-1.328 1.492-6.672-5.927-6.672 5.927-1.328-1.492 8-7.108z"/></svg>