<svg width="24" height="24" xmlns="http://www.w3.org/2000/svg" fill-rule="evenodd" clip-rule="evenodd"><path d="M24 24h-24v-2h1v-7c-.014-.563-.427-.985-1-1v-5h2v2h2v-2h2v3h1v-6h2v2h2v-8l5 2-4 2v2h1v2h2v-2h2v6h1v-3h2v2h2v-2h2v5c-.523 0-.982.392-1 .999v7.001h1v2zm-11-1v-4c0-.552-.448-1-1-1s-1 .448-1 1v4h2zm2-13h-6v4h-5v-1h-1.764c.509.587.746 1.218.764 1.975v7.025h6v-3c0-1.656 1.344-3 3-3 1.655 0 3 1.345 3 3v3h6v-7.026c.019-.748.251-1.389.764-1.974h-1.764v1h-5v-4zm-8 9h-2v-2c0-.552.448-1 1-1s1 .448 1 1v2zm12 0h-2v-2c0-.552.448-1 1-1s1 .448 1 1v2zm-6-5h-2v-2c0-.552.448-1 1-1s1 .448 1 1v2z"/></svg>