<svg width="24" height="24" xmlns="http://www.w3.org/2000/svg" fill-rule="evenodd" clip-rule="evenodd"><path d="M24 8h-2v14h2v2h-24v-2h2v-14h-2v-2h24v2zm-16 15h3v-5h-3v5zm5 0h3v-5h-3v5zm-3-8h4v-6h-4v6zm-5 0h4v-6h-4v6zm10 0h4v-6h-4v6zm-6-12v1c0 .551-.447 1-1 1-.552 0-1-.448-1-1v-3c0-.552.448-1 1-1 .553 0 1 .449 1 1v1h6v-1c0-.551.447-1 1-1 .553 0 1 .449 1 1v3c0 .551-.447 1-1 1-.553 0-1-.449-1-1v-1h-6zm9.5 0v.5c0 .276-.224.5-.5.5s-.5-.224-.5-.5v-2c0-.276.224-.5.5-.5s.5.224.5.5v.5h.5v1h-.5zm-13-1v-.5c0-.276.224-.5.5-.5s.5.224.5.5v2c0 .276-.224.5-.5.5s-.5-.224-.5-.5v-.5h-.5v-1h.5z"/></svg>