<svg width="24" height="24" xmlns="http://www.w3.org/2000/svg" fill-rule="evenodd" clip-rule="evenodd"><path d="M11 23l-7.981.014v-10l8.981-8c3 2.668 6 5.319 9 7.986v10l-7.981.014v-2c0-.018.011-.72-.001-1.052-.027-.421-.29-.743-.634-.88-.237-.09-.5-.089-.73 0-.344.137-.627.425-.654.845-.013.351 0 1.073 0 1.073v2zm4-2h4l.019-7.098-7.019-6.212-7 6.232v7.078h4l.019-.986c.017-1.379.889-2.421 1.969-2.816.657-.244 1.405-.244 2.062 0 1.097.401 1.933 1.437 1.95 2.802v1zm-3.739-8h1.478c1.171.017 1.265-.986 2.261-.986.644 0 .996.524 1 1 .004.476-.28.826-.623.997.328.177.62.527.623 1.003.003.476-.348 1-1 1-.996 0-1.09-1.031-2.261-1.014h-1.465c-1.171-.017-1.278 1.014-2.274 1.014-.652 0-1.003-.524-1-1 .003-.476.295-.826.623-1.003-.343-.171-.627-.521-.623-.997.004-.476.357-1 1-1 .996 0 1.09 1.003 2.261.986m.739-12l12 10.674-1.31 1.481-10.68-9.494-10.681 9.494-1.329-1.495 12-10.66z"/></svg>