<svg width="24" height="24" xmlns="http://www.w3.org/2000/svg" fill-rule="evenodd" clip-rule="evenodd"><path d="M7 24h-5v-14.725l6-5.275 6 5.275v14.725h-5v-3c0-.552-.448-1-1-1s-1 .448-1 1v3zm17 0h-1c-4.601 0-4.402-5-6.585-5h-1.415v-3h2c3.37 0 2.936 6 7 6v2zm-12-2v-12l-4-3.329-4 3.329v12h1v-1c0-1.656 1.344-3 3-3s3 1.344 3 3v1h1zm-1-5h-6v-4c0-1.656 1.344-3 3-3s3 1.344 3 3v4zm-2-2v-2c0-.552-.448-1-1-1s-1 .448-1 1v2h2zm8.5 0h-2.5v-1h2.5c.133 0 .26.053.354.146.093.094.146.221.146.354 0 .133-.053.26-.146.354-.094.093-.221.146-.354.146zm-9.5-15.029l8 7.108-1.328 1.492-6.672-5.927-6.672 5.927-1.328-1.492 8-7.108z"/></svg>