<svg width="24" height="24" xmlns="http://www.w3.org/2000/svg" fill-rule="evenodd" clip-rule="evenodd"><path d="M24 24h-24v-2h.998l.009-6h21.993v6h1v2zm-3-6h-18v4h2v-2c0-.552.448-1 1-1s1 .448 1 1v2h2v-2c0-.552.448-1 1-1s1 .448 1 1v2h2v-2c0-.552.448-1 1-1s1 .448 1 1v2h2v-2c0-.552.448-1 1-1s1 .448 1 1v2h2v-4zm2-3h-21.991l.003-2h3.988v-3h2v3h2v-3h2v3h2v-3h2v3h2v-3h2v3h4v2zm-8-13h-3v1c2.966 0 6.158 1.979 7 6h-14c.547-3.78 3.638-5.827 6-6v-3h4v2zm.954 5c-.88-1.1-2.229-2-3.954-2-1.96 0-3.264.837-4.086 2h8.04z"/></svg>