<svg width="24" height="24" xmlns="http://www.w3.org/2000/svg" fill-rule="evenodd" clip-rule="evenodd"><path d="M21 24h-18v-4.144l4-3.536v-3.9l5-4.42 5 4.42v3.904l4 3.536v4.14zm-8-1v-3c0-.552-.448-1-1-1s-1 .448-1 1v3h2zm2-1h4v-1.239l-4-3.535v-3.905l-3-2.652-3 2.652v3.901l-4 3.535v1.243h4v-2c0-1.656 1.344-3 3-3s3 1.344 3 3v2zm3-8.849l6 5.356-1.328 1.493-4.672-4.184v-2.665zm-12 0l-6 5.356 1.328 1.493 4.672-4.184v-2.665zm7 2.849h-2v-2c0-.552.448-1 1-1s1 .448 1 1v2zm0-14h2v2h-2v.751l7 6.249-1.328 1.493-6.672-5.975-6.672 5.975-1.328-1.493 7-6.22v-.78h-2v-2h2v-2h2v2z"/></svg>