<svg xmlns="http://www.w3.org/2000/svg" width="24" height="24" viewBox="0 0 24 24"><path d="M24 7v-2c0-2.761-2.238-5-5-5h-14c-2.761 0-5 2.239-5 5v2h10v2h-10v6h4v2h-4v2c0 2.761 2.239 5 5 5h14c2.762 0 5-2.239 5-5v-2h-8v-2h8v-6h-5v-2h5zm-16 11c0 .552-.447 1-1 1s-1-.448-1-1v-4c0-.552.447-1 1-1s1 .448 1 1v4zm3 0c0 .552-.447 1-1 1s-1-.448-1-1v-4c0-.552.447-1 1-1s1 .448 1 1v4zm3 0c0 .552-.447 1-1 1s-1-.448-1-1v-4c0-.552.447-1 1-1s1 .448 1 1v4zm0-8c0 .552-.447 1-1 1s-1-.448-1-1v-4c0-.552.447-1 1-1s1 .448 1 1v4zm3 0c0 .552-.447 1-1 1s-1-.448-1-1v-4c0-.552.447-1 1-1s1 .448 1 1v4z"/></svg>