<svg xmlns="http://www.w3.org/2000/svg" width="24" height="24" viewBox="0 0 24 24"><path d="M19.131 24c-.124-.621-.273-1.258-.447-1.841-1.019-3.401-2.688-3.461-2.684-6.494.007-3.556.008-6.055 0-8.455-.003-.824.566-1.26 1.127-1.26.489 0 .973.332 1.067 1.026.38 2.792.877 6.04 1.083 6.715.294.964 1.664.452 1.105-.461-.39-.636-.926-2.198-1.146-3.555 3.756 2.461 4.35 2.074 3.859 5.911-.244 1.912-.426 4.173.904 6.775l-4.868 1.639zm-16.131-21v5h11v-5h-11zm8 15h3v-5h-3v5zm4.499 2.186c-.246-.363-.502-.747-.733-1.186h-12.766v-17h13v2.807c.541-.512 1.257-.812 2-.844v-3.963h-17v21h16.017c-.167-.285-.34-.551-.518-.814zm-5.499-7.186h-3v2h3v-2zm1-1h3v-2h-3v2zm-5-2h-3v2h3v-2zm-3 8h3v-2h-3v2zm3-5h-3v2h3v-2zm1 5h3v-2h-3v2zm3-8h-3v2h3v-2z"/></svg>