<svg width="24" height="24" xmlns="http://www.w3.org/2000/svg" fill-rule="evenodd" clip-rule="evenodd"><path d="M1 24v-5h22v5h-22zm20.453-11c1.256.011 2.534 1.051 2.547 2.5.012 1.38-1.176 2.5-2.625 2.5-1.028 0-1.92-.564-2.35-1.386-.43.822-1.322 1.386-2.35 1.386-1.019 0-1.903-.554-2.337-1.362-.436.808-1.319 1.362-2.338 1.362-1.019 0-1.902-.554-2.337-1.362-.435.808-1.319 1.362-2.338 1.362-1.028 0-1.919-.564-2.35-1.386-.431.822-1.322 1.386-2.35 1.386-1.449 0-2.637-1.12-2.625-2.5.013-1.449 1.292-2.489 2.546-2.5h18.907zm-16.708-6h14.695v.005c1.427.082 2.56 1.213 2.56 2.594 0 1.434-1.222 2.599-2.726 2.599-1.029 0-1.925-.751-2.389-1.553-.465.802-1.361 1.553-2.389 1.553-1.116 0-2.076-.64-2.498-1.555-.422.915-1.382 1.555-2.497 1.555-1.027 0-1.922-.75-2.387-1.551-.465.801-1.36 1.551-2.388 1.551-1.504 0-2.726-1.165-2.726-2.599 0-1.434 1.222-2.599 2.726-2.599h.019zm7.255-4.146c-.454-1.947-2.479-.955-1.531.577.765 1.237 1.095 1.951 1.126 3.103-1.378-1.716-3.597-2.838-3.595-4.519.002-1.287.941-2.015 2.001-2.015.704 0 1.521.257 1.999.883.485-.6 1.313-.876 2-.882 1.06-.009 1.998.669 2 2.014.002 1.681-2.146 2.784-3.595 4.519.031-1.152.361-1.866 1.126-3.103.948-1.532-1.089-2.508-1.531-.577z"/></svg>