<svg width="24" height="24" xmlns="http://www.w3.org/2000/svg" fill-rule="evenodd" clip-rule="evenodd"><path d="M13 24h-2v-11.077c-2.619-.405-4.723-2.375-5.326-4.923h-.508c-.109-.489-.166-.998-.166-1.519 0-.508.054-1.004.157-1.481h.517c.678-2.865 3.255-5 6.326-5 3.071 0 5.648 2.135 6.326 5h.517c.103.477.157.973.157 1.481 0 .521-.057 1.03-.166 1.519h-.508c-.603 2.548-2.708 4.518-5.326 4.923v11.077zm-4.727-16.546c-.176-.451-.273-.941-.273-1.454 0-2.208 1.792-4 4-4 .348 0 .686.045 1.009.128-2.545.536-4.497 2.685-4.736 5.326z"/></svg>