<svg width="24" height="24" xmlns="http://www.w3.org/2000/svg" fill-rule="evenodd" clip-rule="evenodd"><path d="M17.997 8.252c3.45.888 6.003 4.022 6.003 7.748 0 4.415-3.585 8-8 8-3.726 0-6.86-2.553-7.748-6.003.688-.017 1.359-.104 2.006-.253.747 2.462 3.037 4.256 5.742 4.256 3.311 0 6-2.689 6-6 0-2.705-1.794-4.995-4.256-5.742.149-.647.236-1.318.253-2.006zm-4.148 8.748c.552 0 1 .448 1 1s-.448 1-1 1-1-.448-1-1 .448-1 1-1zm4.651-1c.828 0 1.5.672 1.5 1.5s-.672 1.5-1.5 1.5-1.5-.672-1.5-1.5.672-1.5 1.5-1.5zm-2.5-7.997c0 4.392-3.563 7.997-8.003 7.997-4.291 0-7.966-3.433-7.997-8 2.798.817 5.02-1.351 4-4 3.142.433 4.672-1.353 4.052-4 4.567.065 7.948 3.74 7.948 8.003zm1 4.997c.552 0 1 .448 1 1s-.448 1-1 1-1-.448-1-1 .448-1 1-1zm-10.789-7.055c-.238 1.945-1.725 3.651-3.85 4.109.814 2.265 3.026 3.946 5.64 3.946 3.304 0 5.999-2.686 5.999-6 0-2.628-1.691-4.825-3.948-5.639-.542 2.035-1.985 3.226-3.841 3.584zm.789 4.388c.552 0 1 .448 1 1s-.448 1-1 1-1-.448-1-1 .448-1 1-1zm3.667-2c.736 0 1.333.598 1.333 1.334 0 .736-.597 1.333-1.333 1.333s-1.334-.597-1.334-1.333.598-1.334 1.334-1.334zm-3-1.333c.368 0 .666.299.666.667 0 .368-.298.666-.666.666-.368 0-.667-.298-.667-.666 0-.368.299-.667.667-.667zm3.333-2c.552 0 1 .448 1 1s-.448 1-1 1-1-.448-1-1 .448-1 1-1zm-10-1c.552 0 1 .448 1 1s-.448 1-1 1-1-.448-1-1 .448-1 1-1zm4-3.333c.552 0 1 .448 1 1s-.448 1-1 1-1-.448-1-1 .448-1 1-1zm-3.333.333c.368 0 .666.299.666.667 0 .368-.298.666-.666.666-.368 0-.667-.298-.667-.666 0-.368.299-.667.667-.667z"/></svg>