<svg width="24" height="24" xmlns="http://www.w3.org/2000/svg" fill-rule="evenodd" clip-rule="evenodd"><path d="M16.722 12c-.004.014-2.684 8.626-3.428 11.046-.175.567-.699.954-1.293.954h-.002c-.594 0-1.118-.387-1.293-.954-.745-2.422-3.428-11.046-3.428-11.046h-.781c-.827-.002-1.497-.673-1.497-1.5s.67-1.498 1.497-1.5h11.003c.828 0 1.5.672 1.5 1.5s-.672 1.5-1.5 1.5h-.778zm.936-4h-11.316c-.221-.626-.342-1.299-.342-2 0-3.311 2.689-6 6-6s6 2.689 6 6c0 .701-.121 1.374-.342 2zm-5.158-2c.276 0 .5.224.5.5s-.224.5-.5.5-.5-.224-.5-.5.224-.5.5-.5zm-4.25-1.5c.414 0 .75.336.75.75s-.336.75-.75.75-.75-.336-.75-.75.336-.75.75-.75zm6.965-.973c.552 0 1 .449 1 1 0 .552-.448 1-1 1s-1-.448-1-1c0-.551.448-1 1-1zm-4.215.473c.276 0 .5.224.5.5s-.224.5-.5.5-.5-.224-.5-.5.224-.5.5-.5zm2.25-2.5c.414 0 .75.336.75.75s-.336.75-.75.75-.75-.336-.75-.75.336-.75.75-.75zm-2.75 0c.276 0 .5.224.5.5s-.224.5-.5.5-.5-.224-.5-.5.224-.5.5-.5z"/></svg>