<svg width="24" height="24" xmlns="http://www.w3.org/2000/svg" fill-rule="evenodd" clip-rule="evenodd"><path d="M12 0c6.623 0 12 5.377 12 12s-5.377 12-12 12-12-5.377-12-12 5.377-12 12-12zm0 2c5.519 0 10 4.481 10 10s-4.481 10-10 10-10-4.481-10-10 4.481-10 10-10zm-2.49 18.37c.03.269.276.469.555.438l1.987-.233c.268-.033.47-.275.438-.554-.034-.279-.283-.471-.555-.439l-1.987.233c-.27.03-.469.277-.438.555zm7.304-2.093c.154 0 .306.072.405.209.163.229.104.538-.115.697l-1.625 1.166c-.229.162-.541.106-.698-.115-.161-.228-.107-.54.115-.698l.593-.425.438-.315.594-.426c.088-.062.189-.093.29-.093h.003zm-9.111.571c.187.195.504.206.707.012l1.438-1.391c.194-.189.207-.503.012-.706-.196-.201-.51-.203-.707-.012l-1.438 1.39c-.197.188-.205.505-.012.707zm4.332-1.531c-.1.251.021.544.282.649l1.86.734c.252.098.545-.02.648-.281.102-.262-.026-.548-.281-.649l-1.86-.735c-.253-.101-.545.023-.649.282zm4.47-2.317c.089 0 .178.025.259.075l.62.386.458.284.621.385c.233.145.308.45.16.689-.148.239-.457.303-.687.161l-1.699-1.055c-.238-.149-.306-.459-.162-.688.096-.154.26-.237.427-.237h.003zm-9.503.993c.272.001.496.219.498.499 0 .281-.227.499-.498.501l-2 .007c-.28 0-.502-.227-.502-.498.001-.279.226-.502.498-.502l.731-.002.539-.002.73-.003h.004zm4.998-7.993c2.208 0 4 1.792 4 4s-1.792 4-4 4-4-1.792-4-4 1.792-4 4-4zm8.928 5.201c-.14-.232-.447-.312-.688-.167l-1.709 1.039c-.23.141-.313.445-.167.686.147.24.453.31.687.168l1.709-1.039c.233-.14.311-.448.168-.687zm-13.717-1.105c-.218-.161-.532-.116-.698.11l-1.178 1.617c-.157.219-.117.532.11.698.228.164.538.112.699-.11l1.178-1.617c.161-.219.114-.533-.111-.698zm4.789-2.096c1.104 0 2 .896 2 2s-.896 2-2 2-2-.896-2-2 .896-2 2-2zm7.32 2.516c.219-.159.272-.472.107-.699l-1.183-1.613c-.161-.217-.471-.273-.698-.107-.226.167-.27.478-.108.699l1.183 1.613c.16.22.473.271.699.107zm-16.066-2.824c-.236.132-.326.436-.19.682l.98 1.743c.134.235.435.328.68.19.245-.138.326-.442.192-.681l-.981-1.743c-.132-.238-.437-.326-.681-.191zm2.141-2.681c-.265.055-.442.319-.384.594l.419 1.956c.058.264.318.442.593.383.275-.06.442-.326.385-.594l-.419-1.955c-.056-.267-.321-.441-.594-.384zm15.251 2.402c.1-.252-.022-.545-.283-.648l-1.862-.731c-.252-.098-.544.021-.647.282-.102.262.027.549.282.649l1.862.731c.253.1.545-.024.648-.283zm-2.022-3.406c-.142-.231-.45-.308-.689-.161l-1.699 1.055c-.229.144-.309.448-.161.688.149.238.456.306.689.161l1.699-1.055c.232-.142.307-.45.161-.688zm-9.407 1.311c.159-.218.113-.532-.114-.697l-1.622-1.171c-.22-.156-.532-.114-.697.114-.164.228-.11.538.113.698l1.622 1.17c.22.16.533.112.698-.114zm4.783-.818c.002-.271-.219-.499-.5-.5l-2-.002c-.271.002-.499.218-.5.5.001.281.226.5.5.5l2 .002c.272.001.498-.221.5-.5zm2.398-1.402c.099-.252-.024-.544-.285-.647l-1.864-.726c-.253-.096-.544.023-.647.285-.101.262.029.548.285.648l1.864.725c.253.1.544-.025.647-.285zm-4.563-1.634c-.096-.254-.383-.388-.646-.288l-1.868.714c-.252.098-.388.382-.288.645.101.262.39.387.646.289l1.868-.715c.254-.096.386-.384.288-.645z"/></svg>