<svg width="24" height="24" xmlns="http://www.w3.org/2000/svg" fill-rule="evenodd" clip-rule="evenodd"><path d="M5.786 15.237c-.545-1.685-.222-3.742.897-5.571 1.605 3.433 4.177 5.993 7.673 7.637-1.823 1.123-3.877 1.454-5.561.921.043 2.092-.952 4.468-2.249 5.776l-.727-2.182-1.666-.211-.157-1.611-1.634-.181-.18-1.634-2.182-.727c1.316-1.271 3.71-2.196 5.786-2.217m11.484-.827c-.524.841-1.191 1.581-1.945 2.202-3.654-1.578-6.339-4.15-7.95-7.92.621-.764 1.371-1.43 2.197-1.951 1.605 3.446 4.18 6.017 7.698 7.669m-2.031-8.626c.02-2.075.946-4.47 2.215-5.784l.728 2.182 1.634.179.18 1.634 1.612.158.211 1.665 2.181.727c-1.307 1.297-3.682 2.292-5.775 2.249.452 1.427.283 3.119-.462 4.712-3.31-1.538-5.756-3.946-7.287-7.26 1.61-.759 3.322-.927 4.763-.462"/></svg>