<svg width="24" height="24" xmlns="http://www.w3.org/2000/svg" fill-rule="evenodd" clip-rule="evenodd"><path d="M7.29 12.991c-1.282-.106-2.29-1.182-2.29-2.491 0-.998.586-1.86 1.433-2.261-.28-.692-.433-1.448-.433-2.239 0-3.311 2.688-6 6-6 3.311 0 6 2.689 6 6 0 .791-.153 1.547-.433 2.239.847.401 1.433 1.263 1.433 2.261 0 1.309-1.008 2.385-2.289 2.491 0 0-2.076 7.558-2.647 9.471-.332.996-1.168 1.538-2.064 1.538-.864 0-1.686-.504-2.039-1.462-.264-.809-2.214-7.893-2.671-9.547m9.222-2.991h-9.012c-.276 0-.5.224-.5.5s.224.5.5.5h1.327c.093.28 2.913 10.618 3.03 10.899.065.145.239.129.291-.014.095-.293 3.026-10.885 3.026-10.885h1.338c.27-.006.488-.228.488-.5s-.218-.493-.488-.5m-1.047-2c.34-.589.535-1.272.535-2 0-2.208-1.793-4-4-4-2.208 0-4 1.792-4 4 0 .728.195 1.411.536 2h6.929zm-3.965-1.5c.276 0 .5.224.5.5s-.224.5-.5.5-.5-.224-.5-.5.224-.5.5-.5m2.5-1.5c.552 0 1 .448 1 1s-.448 1-1 1-1-.448-1-1 .448-1 1-1m-4-.75c.414 0 .75.336.75.75s-.336.75-.75.75-.75-.336-.75-.75.336-.75.75-.75m2.524-1.25c.414 0 .75.336.75.75s-.336.75-.75.75-.75-.336-.75-.75.336-.75.75-.75"/></svg>