<svg width="24" height="24" xmlns="http://www.w3.org/2000/svg" fill-rule="evenodd" clip-rule="evenodd"><path d="M17.997 8.252c3.45.888 6.003 4.022 6.003 7.748 0 4.415-3.585 8-8 8-3.726 0-6.86-2.553-7.748-6.003 5.319-.132 9.613-4.426 9.745-9.745zm-2.997 10.574c.552 0 1 .448 1 1s-.448 1-1 1-1-.448-1-1 .448-1 1-1zm4.5-1.826c.828 0 1.5.672 1.5 1.5s-.672 1.5-1.5 1.5-1.5-.672-1.5-1.5.672-1.5 1.5-1.5zm-11.448-17c4.391.028 7.948 3.602 7.948 8 0 4.415-3.585 8-8 8s-8-3.585-8-8c2.591.725 4.925-1.596 4-4 2.668.471 4.524-1.815 4.052-4zm11.948 13c.552 0 1 .448 1 1s-.448 1-1 1-1-.448-1-1 .448-1 1-1zm-11-1.667c.552 0 1 .448 1 1s-.448 1-1 1-1-.448-1-1 .448-1 1-1zm-4.558-2c.736 0 1.333.598 1.333 1.334 0 .736-.597 1.333-1.333 1.333s-1.333-.597-1.333-1.333.597-1.334 1.333-1.334zm7.558-2c.736 0 1.333.598 1.333 1.334 0 .736-.597 1.333-1.333 1.333s-1.333-.597-1.333-1.333.597-1.334 1.333-1.334zm-4-.666c.368 0 .667.298.667.666 0 .368-.299.667-.667.667-.368 0-.667-.299-.667-.667 0-.368.299-.666.667-.666zm-7-2.667c.552 0 1 .448 1 1s-.448 1-1 1-1-.448-1-1 .448-1 1-1zm10-.667c.552 0 1 .448 1 1s-.448 1-1 1-1-.448-1-1 .448-1 1-1zm-6-2.666c.552 0 1 .448 1 1s-.448 1-1 1-1-.448-1-1 .448-1 1-1zm-3.333.333c.368 0 .666.299.666.667 0 .368-.298.666-.666.666-.368 0-.667-.298-.667-.666 0-.368.299-.667.667-.667z"/></svg>