<svg width="24" height="24" xmlns="http://www.w3.org/2000/svg" fill-rule="evenodd" clip-rule="evenodd"><path d="M16.441 24h-8.886l-3.555-8h2.999l2 4-.013-4h2.012l1 4 .999-4h2.037l-.037 4 1.999-4h3l-3.555 8zm-5.441-16.941v-2.059h2v2.063c2.783.349 4.844 2.103 5.984 3.937h.016c1.104 0 2 .896 2 2s-.896 2-2 2h-14c-1.104 0-2-.896-2-2 0-1.098.887-1.991 1.983-2 1.131-1.855 3.202-3.604 6.017-3.941zm-2.75 4.441c.414 0 .75.336.75.75s-.336.75-.75.75-.75-.336-.75-.75.336-.75.75-.75zm7.5 0c.414 0 .75.336.75.75s-.336.75-.75.75-.75-.336-.75-.75.336-.75.75-.75zm-3.75-1.5c.552 0 1 .448 1 1s-.448 1-1 1-1-.448-1-1 .448-1 1-1zm-.847-5.477c-1.897-.621-1.351-3.444.89-4.523.08 1.422 1.957 1.566 1.957 3.002 0 .602-.442 1.274-1.084 1.521.154-.509-.185-1.415-.88-1.809-.702.407-1.064 1.302-.883 1.809z"/></svg>