<svg width="24" height="24" xmlns="http://www.w3.org/2000/svg" fill-rule="evenodd" clip-rule="evenodd"><path d="M5.386 13.892c-.866-.829-1.388-2.025-1.386-3.246.002-1.359.631-2.594 1.496-3.3l.004-.004c-.972-3.073 2.66-6.241 4.5-7.342-.206 1.539.008 2.713 1.487 3.758 2.854 2.046 8.504 2.551 8.513 7.161.002 1.18-.591 2.252-1.472 3.131l-.651 4.95h-1.697l-.833 5h-6.694l-.833-5h-1.684l-.75-5.108zm11 1.108h-8.816l.294 2h1.65l.833 5h3.306l.833-5h1.637l.263-2zm-9.8-6.049c-.296.363-.482.814-.561 1.395-.171 1.266.765 2.615 1.992 2.654h8.662c.771-.596 1.367-1.439 1.316-2.409-.215-3.454-6.928-3.022-9.381-6.948-4.177 4.927 3.278 6.279 7.32 7.33l.065.027c-1.681-.052-7.116-.153-9.413-2.049z"/></svg>