<svg width="24" height="24" xmlns="http://www.w3.org/2000/svg" fill-rule="evenodd" clip-rule="evenodd"><path d="M16.722 12c-.004.014-2.684 8.626-3.428 11.046-.175.567-.699.954-1.293.954h-.002c-.594 0-1.118-.387-1.293-.954-.745-2.422-3.428-11.046-3.428-11.046h-.781c-.827-.002-1.497-.673-1.497-1.5s.67-1.498 1.497-1.5h11.003c.828 0 1.5.672 1.5 1.5s-.672 1.5-1.5 1.5h-.778zm2.152-4h-13.748c-.082-.32-.126-.655-.126-1 0-4.091 5.331-5.237 6.581-1 .24-1.945-.847-3.869-3.049-3.994.691-1.198 1.986-2.006 3.468-2.006 1.899 0 3.49 1.326 3.898 3.102 1.776.408 3.102 1.999 3.102 3.898 0 .345-.044.68-.126 1z"/></svg>