<svg width="24" height="24" xmlns="http://www.w3.org/2000/svg" fill-rule="evenodd" clip-rule="evenodd"><path d="M12 0c6.623 0 12 5.377 12 12s-5.377 12-12 12-12-5.377-12-12 5.377-12 12-12m9.136 16.07c-.737-.179-.893-.063-1.203.44-.404.665-.682 1.292-1.368 1.706-.945.578-1.792.212-2.758-.122-.634-.211-.776-.187-1.116.414-.402.737-.671 1.434-1.376 1.918-.8.549-1.972.578-2.813-.108-.948-.773-1.272-2.606-2.054-2.366-.759.233-1.793 1.182-2.865.414-.577-.414-.92-1.025-1.282-1.621-.272-.435-.449-.623-1.306-.394 1.619 3.342 5.045 5.649 9.005 5.649 4.07 0 7.575-2.437 9.136-5.93m.628-1.902c.155-.698.236-1.424.236-2.168 0-5.519-4.48-10-10-10-5.519 0-10 4.481-10 10 0 .852.106 1.678.307 2.467l.025-.007c2.601-.64 3.261.665 3.781 1.658.427.814.541.546 1.225.135.299-.179.598-.271 1.018-.317 1.285-.144 2.088.524 2.659 1.548.158.295.447.921.641 1.168.204.259.45.224.621.041.548-.606.968-2.662 2.708-2.703.763-.018 1.354.176 2.065.424.508.167.509.164.806-.313.572-.961.966-1.744 2.09-2.023.597-.148 1.219-.073 1.818.09m-9.764-6.168c2.208 0 4 1.792 4 4s-1.792 4-4 4-4-1.792-4-4 1.792-4 4-4m0 2c1.104 0 2 .896 2 2s-.896 2-2 2-2-.896-2-2 .896-2 2-2"/></svg>