<svg width="24" height="24" xmlns="http://www.w3.org/2000/svg" fill-rule="evenodd" clip-rule="evenodd"><path d="M9 19.5l-.012-4.5h2.012l1 4.5 1-4.5h2.037l-.037 4.5 2-4.5h3l-3.556 9h-8.888l-3.556-9h3l2 4.5zm10.941-5.5h-15.878s-1.059-.64-1.059-2.154c0-1.853 1.612-3.156 3.176-3.231.77 1.469 3.117 2.435 5.293 2.154-2.507-.558-5.692-3.718-3.9-6.21 1.272-1.77 4.473-1.486 3.9-4.559 2.131.589 3.43 2.167 3.176 4.308h.002c2.104-.101 3.867 1.3 3.173 4.307 1.754 0 3.176 1.447 3.176 3.231 0 1.328-1.051 2.148-1.059 2.154z"/></svg>