<svg width="24" height="24" xmlns="http://www.w3.org/2000/svg" fill-rule="evenodd" clip-rule="evenodd"><path d="M13 19v4c0 .552-.448 1-1 1s-1-.448-1-1v-4h2zm-7-13c0-3.312 2.689-6 6-6s6 2.689 6 6v10.5c0 .398-.158.779-.439 1.061-.282.281-.663.439-1.061.439h-9c-.398 0-.779-.158-1.061-.439-.281-.282-.439-.663-.439-1.061v-10.5zm10 10v-10c0-2.208-1.792-4-4-4s-4 1.792-4 4v10h8zm-3.49-12.717l.063.005c1.381.285 2.427 1.503 2.427 2.964v8.748h-1v-8.748c0-.959-.677-1.762-1.578-1.955-.261-.044-.422-.287-.422-.514 0-.281.229-.501.503-.5h.007z"/></svg>