<svg width="24" height="24" xmlns="http://www.w3.org/2000/svg" fill-rule="evenodd" clip-rule="evenodd"><path d="M21.447 5.918l2.553 1.141-.028.026c-.552.824-2.454 2.453-5.232 2.967.38 4.629-4.096 8.896-8.471 8.471-.77 2.957-2.368 4.907-3.21 5.477l-1.128-2.539-1.65-.237-.121-1.374-1.373-.172-.232-1.585-2.555-1.152c.603-.807 2.532-2.514 5.482-3.16-.445-4.366 3.786-8.926 8.513-8.516l.002.001c.57-2.893 2.164-4.639 2.944-5.265l1.138 2.541 1.592.184.163 1.421 1.397.144.216 1.627zm-7.818 9.764c-2.334-1.25-4.173-2.995-5.408-5.285-.699 1.328-.876 3.054-.227 5.078-1.205.136-2.386.248-4.064.84l.549.187.149 1.269 1.439.167.147 1.425 1.29.17.2.59c.751-1.616.838-4.1.838-4.1 1.925.596 3.698.402 5.087-.341zm2.198-2.149c-2.514-1.334-4.291-3.16-5.451-5.318-.577.321-1.091.736-1.517 1.237 1.137 2.361 3.003 4.259 5.713 5.591.503-.422.928-.93 1.255-1.51zm.413-.91c.441-1.251.485-2.729 0-4.299 0 0 2.585-.105 4.1-.836l-.591-.2-.172-1.289-1.423-.148-.167-1.44-1.269-.148-.186-.549c-.695 1.601-.841 4.064-.841 4.064-1.515-.486-3.067-.45-4.403.025 1.156 2.124 2.851 3.685 4.952 4.82z"/></svg>