<svg width="24" height="24" xmlns="http://www.w3.org/2000/svg" fill-rule="evenodd" clip-rule="evenodd"><path d="M16.536 22c.552 0 1 .448 1 1s-.448 1-1 1h-9.072c-.552 0-1-.448-1-1s.448-1 1-1h.536c1.386-.213 2.006-1.072 2-2.198-4.27-.86-7.561-4.416-8-8.802h20c-.439 4.386-3.73 7.942-8 8.802.016 1.137.614 1.985 2 2.198h.536zm4.302-12h-17.676c-.106-.4-.162-.818-.162-1.25 0-5.114 6.854-6.546 8.461-1.25.309-2.432-1.088-4.836-3.92-4.992.889-1.498 2.554-2.508 4.459-2.508 2.072 0 3.859 1.194 4.674 2.912l2.912-2.912 1.412 1.413-5.526 5.526 1.06 1.061 2.871-2.87c.984.911 1.597 2.196 1.597 3.62 0 .431-.056.85-.162 1.25z"/></svg>