<svg width="24" height="24" xmlns="http://www.w3.org/2000/svg" fill-rule="evenodd" clip-rule="evenodd"><path d="M12 0c6.623 0 12 5.377 12 12s-5.377 12-12 12-12-5.377-12-12 5.377-12 12-12zm-.009 20.743l-.057.003-.725.085-.536.063-.726.085c-.27.031-.469.278-.438.555.031.269.277.47.555.438l1.987-.232c.268-.033.47-.275.438-.555-.031-.258-.247-.441-.495-.442h-.003zm4.376.064c.157.22.469.277.698.114l1.625-1.166c.219-.158.278-.468.115-.696-.165-.228-.475-.275-.698-.116l-1.625 1.166c-.222.158-.276.47-.115.698zm-9.862-.777c.187.195.504.206.707.011l1.438-1.39c.194-.189.207-.503.012-.706-.196-.201-.51-.203-.707-.012l-1.439 1.39c-.196.188-.204.505-.011.707zm5.103-2.211c-.1.252.022.545.282.649l1.861.735c.252.098.544-.02.647-.282.103-.261-.026-.548-.281-.649l-1.86-.734c-.253-.101-.545.022-.649.281zm4.878-2.351c-.166.001-.328.084-.424.237-.144.229-.076.539.161.688l1.7 1.056c.23.141.539.077.687-.162.148-.239.072-.544-.16-.688l-.621-.386-.458-.284-.62-.386c-.082-.051-.172-.075-.262-.075h-.003zm-12.74.713c0 .271.222.498.502.498l2.001-.006c.27-.003.498-.22.497-.502-.002-.281-.227-.499-.501-.498l-2.001.006c-.272 0-.497.223-.498.502zm17.846.029c.219-.159.272-.472.107-.699l-1.183-1.613c-.161-.217-.471-.273-.698-.107-.226.167-.27.478-.108.699l1.183 1.613c.16.22.473.271.699.107zm-9.592-8.21c2.208 0 4 1.792 4 4s-1.792 4-4 4-4-1.792-4-4 1.792-4 4-4zm-5.4 3.501c-.218-.161-.532-.116-.698.11l-1.177 1.617c-.158.219-.118.532.11.698.227.164.537.112.698-.11l1.178-1.617c.161-.219.114-.533-.111-.698zm-4.92-1.051c-.236.132-.327.436-.19.681l.98 1.744c.134.235.435.328.68.19.245-.138.326-.442.192-.681l-.981-1.743c-.132-.238-.437-.326-.681-.191zm17.811.359c-.087.001-.176.024-.256.072l-1.71 1.039c-.23.142-.313.446-.167.687.147.239.453.31.687.168l.624-.38.461-.28.625-.379c.233-.141.31-.448.167-.687-.092-.154-.258-.24-.428-.24h-.003zm.326-2.639c-.197.001-.385.117-.463.317-.102.262.027.548.282.648l.68.267.502.197.68.267c.253.101.545-.024.648-.283.1-.252-.022-.544-.283-.648l-1.862-.731-.181-.034h-.003zm-15.642-1.659l-.102.011c-.265.055-.441.319-.383.594l.419 1.956c.058.264.318.442.593.383.274-.06.442-.326.384-.593l-.153-.715-.113-.527-.153-.714c-.049-.232-.256-.395-.489-.395h-.003zm15.085-.865c-.141-.231-.449-.308-.688-.161l-1.7 1.055c-.229.144-.309.449-.161.688.149.238.456.306.689.162l1.7-1.055c.231-.143.306-.451.16-.689zm-10.661 1.577c.159-.219.113-.533-.114-.698l-1.622-1.17c-.22-.157-.532-.115-.697.113-.164.229-.11.538.113.698l1.622 1.171c.22.16.533.112.698-.114zm5.17-1.71c.001-.271-.219-.499-.5-.5l-2-.002c-.271.002-.499.218-.5.5.001.281.225.5.499.501l2.001.001c.272.001.498-.221.5-.5zm.969-3.081c-.197.002-.384.118-.462.318-.101.262.029.548.284.648l.681.265.502.195.681.265c.253.1.545-.025.647-.285.099-.252-.024-.544-.285-.647l-1.864-.726-.181-.033h-.003zm-4.318.029c-.096-.253-.384-.387-.646-.288l-1.868.715c-.252.098-.388.382-.288.645.101.262.389.387.645.289l1.869-.715c.254-.096.386-.384.288-.646z"/></svg>