<svg width="24" height="24" xmlns="http://www.w3.org/2000/svg" fill-rule="evenodd" clip-rule="evenodd"><path d="M16.444 24h-8.888l-3.556-9h16l-3.556 9zm-7.998-7h-1.505l1.975 5h6.168l1.975-5h-1.505l-1.554 3.48v-3.48h-1.223l-.777 3.48-.777-3.48h-1.223v3.48l-1.554-3.48zm10.909-3h-14.705c-1.119-.71-1.65-1.76-1.65-3 0-1.616 1.335-3.218 3-3.767-.526-4.625 5.593-3.382 5-7.233 1.268.02 3.933.317 4.355 3.452 1.838.346 3.047 1.751 2.947 3.934 1.667.505 2.698 2.021 2.698 3.614 0 1.168-.494 2.248-1.645 3zm-12.355-4.885c-1.296-.237-2.59 1.942-1.687 2.885h13.366c.831-1-.009-3.375-2.637-2.801 1.335-2.622-.905-4.552-2.804-3.814.372-.859.272-2.358-.648-2.989-1.076 2.249-2.945 2.147-4.048 3.189-1.684 1.591.67 3.994 3.458 4.415-1.439.307-4.079.47-5-.885z"/></svg>