<svg xmlns="http://www.w3.org/2000/svg" width="24" height="24" viewBox="0 0 24 24"><path d="M21.739 14.921c-1.347-.39-1.885-.538-3.552-.921 0 0-2.379-2.359-2.832-2.816-.568-.572-1.043-1.184-2.949-1.184h-7.894c-.511 0-.735.547-.069 1-.743.602-1.62 1.38-2.258 2.027-1.436 1.455-2.185 2.385-2.185 4.255 0 1.76 1.042 3.718 3.174 3.718h.01c.413 1.162 1.512 2 2.816 2 1.304 0 2.403-.838 2.816-2h6.367c.413 1.162 1.512 2 2.816 2s2.403-.838 2.816-2h.685c1.994 0 2.5-1.776 2.5-3.165 0-2.041-1.123-2.584-2.261-2.914zm-15.739 6.279c-.662 0-1.2-.538-1.2-1.2s.538-1.2 1.2-1.2 1.2.538 1.2 1.2-.538 1.2-1.2 1.2zm3.576-6.2c-1.071 0-3.5-.106-5.219-.75.578-.75.998-1.222 1.27-1.536.318-.368.873-.714 1.561-.714h2.388v3zm1-3h1.835c.882 0 1.428.493 2.022 1.105.452.466 1.732 1.895 1.732 1.895h-5.588v-3zm7.424 9.2c-.662 0-1.2-.538-1.2-1.2s.538-1.2 1.2-1.2 1.2.538 1.2 1.2-.538 1.2-1.2 1.2zm-10.768-14.135c.71-.751 1.688-1.215 2.768-1.215s2.058.464 2.768 1.215l1.164-1.236c-1.006-1.067-2.397-1.727-3.932-1.727-1.535 0-2.926.66-3.932 1.727l1.164 1.236zm-2.038-2.163c1.23-1.304 2.929-2.11 4.806-2.11s3.576.806 4.806 2.11l1.194-1.266c-1.535-1.629-3.656-2.636-6-2.636s-4.465 1.007-6 2.636l1.194 1.266zm6.806 4.098h-4c.035-.906.749-1.737 2-1.737 1.243 0 1.965.831 2 1.737z"/></svg>