<svg xmlns="http://www.w3.org/2000/svg" width="24" height="24" viewBox="0 0 24 24"><path d="M18.195 4.173l1.298-1.535c.542.434 1.032.925 1.491 1.444l-1.498 1.333c-.396-.448-.821-.87-1.291-1.242zm-.195 6.332v-.255c0-.138-.112-.25-.25-.25h-1.101l.543 1c.345 0 .808-.098.808-.495zm3.931.322h2.001c-.072-.742-.219-1.459-.421-2.155l-1.874.711c.129.47.236.949.294 1.444zm-.8-2.856l1.873-.711c-.304-.702-.668-1.369-1.095-1.994l-1.504 1.338c.28.432.515.893.726 1.367zm.869 4.356c-.175 5.362-4.597 9.673-10 9.673-5.514 0-10-4.486-10-10 0-1.452.314-2.83.875-4.074l.086-.158c1.002.349 2.172.22 3.103-.643 1.597-1.486 1.216-3.62 2.808-5.264.592-.612 1.278-.924 2.037-.996-1.327-.62-2.618-.865-3.809-.865-3.935 0-6.771 2.879-6.174 5.47 1.46-1.837 3.631-2.541 4.445-2.541-3.671 1.544-5.371 5.246-5.371 9.071 0 6.627 5.373 12 12 12 6.517 0 11.825-5.198 12-11.673h-2zm-15.75-2.327c-.138 0-.25.112-.25.25v.255c0 .397.463.495.808.495l.543-1h-1.101zm2.185-.873c.415-.691.631-.854 1.139-.945.767-.137 1.459-.182 2.426-.182s1.659.045 2.426.182c.508.091.725.253 1.139.945.539.899 1.05 1.857 1.465 2.626.32.593.473 1.126.473 1.833 0 .685-.198 1.267-.503 1.991v.923c0 .276-.224.5-.5.5h-.75c-.276 0-.5-.224-.5-.5v-.5h-6.5v.5c0 .276-.224.5-.5.5h-.75c-.276 0-.5-.224-.5-.5v-.924c-.304-.724-.503-1.306-.503-1.991 0-.707.154-1.24.473-1.833.415-.768.926-1.726 1.465-2.625zm.565 4.123c0-.414-.336-.75-.75-.75s-.75.336-.75.75.336.75.75.75.75-.336.75-.75zm5 .5c0-.138-.112-.25-.25-.25h-3.5c-.138 0-.25.112-.25.25s.112.25.25.25h3.5c.138 0 .25-.112.25-.25zm1-.5c0 .414.336.75.75.75s.75-.336.75-.75-.336-.75-.75-.75-.75.336-.75.75zm-6.471-2.264c.82.157 2.155.248 3.471.248s2.65-.092 3.471-.248c0 0-.37-.913-.815-1.571-.101-.149-.258-.251-.435-.283-.756-.136-1.418-.179-2.221-.179-.803 0-1.465.043-2.22.179-.177.032-.334.134-.435.283-.445.658-.816 1.571-.816 1.571z"/></svg>