<svg xmlns="http://www.w3.org/2000/svg" width="24" height="24" viewBox="0 0 24 24"><path d="M11 16v-3h1.247c.882 0 1.235.297 1.828.909.452.465 1.925 2.091 1.925 2.091h-5zm-1-3h-2.243c-.688 0-1.051.222-1.377.581-.316.348-.895.948-1.506 1.671 1.719.644 4.055.748 5.126.748v-3zm14 5.161c0-2.823-2.03-3.41-2.794-3.631-1.142-.331-1.654-.475-3.031-.794-.549-.545-2.051-2.035-2.389-2.375l-.089-.091c-.666-.68-1.421-1.27-3.172-1.27h-7.64c-.547 0-.791.456-.254.944-.534.462-1.945 1.705-2.341 2.107-1.383 1.403-2.29 2.481-2.29 4.604 0 2.461 1.361 4.258 3.179 4.332.41 1.169 1.512 2.013 2.821 2.013 1.304 0 2.403-.838 2.816-2h6.367c.413 1.162 1.512 2 2.816 2 1.308 0 2.409-.843 2.82-2.01 1.934-.056 3.181-1.505 3.181-3.829zm-18 4.039c-.662 0-1.2-.538-1.2-1.2s.538-1.2 1.2-1.2 1.2.538 1.2 1.2-.538 1.2-1.2 1.2zm12 0c-.662 0-1.2-.538-1.2-1.2s.538-1.2 1.2-1.2 1.2.538 1.2 1.2-.538 1.2-1.2 1.2zm2.832-2.15c-.399-1.188-1.509-2.05-2.832-2.05-1.327 0-2.44.868-2.836 2.062h-6.328c-.396-1.194-1.509-2.062-2.836-2.062-1.319 0-2.426.857-2.829 2.04-.586-.114-1.171-1.037-1.171-2.385 0-1.335.47-1.938 1.714-3.199.725-.735 1.309-1.209 2.263-2.025.34-.291.774-.432 1.222-.43h5.173c1.22 0 1.577.385 2.116.892.419.393 2.682 2.665 2.682 2.665s2.303.554 3.48.895c.84.243 1.35.479 1.35 1.71 0 1.195-.396 1.825-1.168 1.887zm-11.05-15.345c0 .477-.215.833-.589.833-.371 0-.597-.338-.597-.819 0-.476.218-.833.593-.833.382.001.593.379.593.819zm2.572 2.68c-.315 2.084-3.109 1.998-3.758.615-.847 1.575-3.412 1.154-3.622-.664-1.126-.227-1.974-1.221-1.974-2.413s.848-2.186 1.974-2.413l-.005-.049c0-1.359 1.102-2.461 2.462-2.461.986 0 1.831.584 2.224 1.421 1.114-1.083 3.022-.421 3.135 1.085 1.15.207 2.025 1.208 2.025 2.418 0 1.358-1.102 2.461-2.461 2.461zm-5.818-2.669c0-.546.342-.811.782-.811.196 0 .353.044.466.091l.113-.44c-.099-.051-.317-.11-.604-.11-.742 0-1.339.466-1.339 1.302 0 .699.436 1.226 1.284 1.226.298 0 .527-.055.629-.106l-.083-.432c-.109.044-.295.08-.462.08-.495 0-.786-.309-.786-.8zm3.832-.029c0-.677-.411-1.241-1.164-1.241-.724 0-1.193.55-1.193 1.284 0 .698.426 1.248 1.153 1.248.716 0 1.204-.487 1.204-1.291zm1.494 1.394h-.625s.595-.435.595-.848c0-.301-.206-.521-.582-.521-.225 0-.419.077-.544.171l.11.278c.087-.066.212-.138.355-.138.192 0 .273.107.273.243-.006.243-.285.471-.758.899v.235h1.177v-.319zm-8.862 1.919c-.552 0-1 .448-1 1s.448 1 1 1 1-.448 1-1-.448-1-1-1zm-1.706 2.621c-.414 0-.75.336-.75.75s.336.75.75.75.75-.336.75-.75-.336-.75-.75-.75zm-.794 2.379c-.276 0-.5.224-.5.5s.224.5.5.5.5-.224.5-.5-.224-.5-.5-.5z"/></svg>