<svg xmlns="http://www.w3.org/2000/svg" width="24" height="24" viewBox="0 0 24 24"><path d="M19.688 5.176c0 .82-.603 1.109-1.423 1.109h-.509v-2.178h.704c.775 0 1.228.283 1.228 1.069zm4.312-1.884v6.417c0 1.265-1.026 2.291-2.292 2.291h-6.417c-1.265 0-2.291-1.026-2.291-2.292v-6.416c0-1.266 1.026-2.292 2.292-2.292h6.417c1.265 0 2.291 1.026 2.291 2.292zm-2.75 1.829c0-.759-.231-1.33-.691-1.713-.461-.383-1.134-.574-2.019-.574h-2.331v7.333h1.547v-2.609h.664c.905 0 1.603-.209 2.094-.627.49-.418.736-1.021.736-1.81zm-4.25 11.378c0 .828.672 1.5 1.5 1.5s1.5-.672 1.5-1.5-.672-1.5-1.5-1.5-1.5.671-1.5 1.5zm-8.5.501c-.276 0-.5.223-.5.499s.224.5.5.5h7c.276 0 .5-.224.5-.5s-.224-.499-.5-.499h-7zm-4.5-.501c0 .828.672 1.5 1.5 1.5s1.5-.672 1.5-1.5-.672-1.5-1.5-1.5-1.5.671-1.5 1.5zm-1.298-6.5h-2.202c-.276 0-.5.224-.5.5v.511c0 .793.926.989 1.616.989l1.086-2zm19.006 4.001h-1.511c.474.89.803 1.655.803 2.972 0 1.673-1.355 3.028-3.026 3.028h-11.948c-1.671 0-3.026-1.355-3.026-3.028 0-1.641.506-2.421 1.184-3.678 1.041.206 3.967.705 7.816.705.877 0 1.728-.029 2.532-.076-1.203-.217-2.227-.933-2.859-1.929-2.895-.023-5.237-.339-6.478-.55.382-.686.779-1.386 1.184-2.061.67-1.117.852-1.149 1.39-1.246 1.011-.181 1.984-.272 3.231-.302v-2.002c-1.382.031-2.451.132-3.585.335-1.381.248-1.965.875-2.751 2.187-.981 1.637-1.913 3.382-2.684 4.812-.687 1.273-.98 2.411-.98 3.805 0 1.318.42 2.415 1 3.817v2.209c0 .553.448 1.002 1 1.002h1.5c.552 0 1-.449 1-1.001v-1h13v1c0 .552.448 1.001 1 1.001h1.5c.552 0 1-.449 1-1.001v-2.209c.58-1.403 1-2.499 1-3.817 0-1.109-.196-2.058-.618-3.041-.221.035-.443.068-.674.068z"/></svg>