<svg xmlns="http://www.w3.org/2000/svg" width="24" height="24" viewBox="0 0 24 24"><path d="M9.5 13.339c0-.414-.336-.75-.75-.75s-.75.336-.75.75.336.75.75.75.75-.336.75-.75zm4.5.5c0-.138-.112-.25-.25-.25h-3.5c-.138 0-.25.112-.25.25s.112.25.25.25h3.5c.138 0 .25-.112.25-.25zm2-.5c0-.414-.336-.75-.75-.75s-.75.336-.75.75.336.75.75.75.75-.336.75-.75zm-8.649-3.25h-1.101c-.138 0-.25.112-.25.25v.255c0 .397.463.495.808.495l.543-1zm9.659 1.584c-.435-.808-.866-1.612-1.342-2.406-.393-.656-.685-.969-1.375-1.093-.698-.125-1.341-.174-2.293-.174s-1.595.049-2.292.174c-.69.124-.982.438-1.375 1.093-.476.794-.906 1.598-1.342 2.406-.345.637-.491 1.206-.491 1.903 0 .659.21 1.207.5 1.909v1.104c0 .276.224.5.5.5h.75c.276 0 .5-.224.5-.5v-.5h6.5v.5c0 .276.224.5.5.5h.75c.276 0 .5-.224.5-.5v-1.104c.29-.701.5-1.25.5-1.909 0-.697-.146-1.266-.49-1.903zm-7.821-1.892c.335-.559.426-.575.695-.623.635-.114 1.228-.158 2.116-.158s1.481.044 2.116.158c.269.048.36.064.695.623.204.341.405.694.597 1.04-.728.11-2.01.268-3.408.268-1.524 0-2.759-.168-3.402-.277.19-.343.389-.694.591-1.031zm5.798 5.308h-5.974c-.836 0-1.513-.677-1.513-1.513 0-.821.253-1.211.592-1.839.52.103 1.984.352 3.908.352 1.74 0 3.28-.227 3.917-.336.332.615.583 1.005.583 1.823 0 .836-.677 1.513-1.513 1.513zm2.763-5c.138 0 .25.112.25.25v.255c0 .397-.463.495-.808.495l-.543-1h1.101zm3.887-.706l1.874-.711c.201.696.348 1.413.421 2.155h-2.001c-.058-.495-.165-.974-.294-1.444zm-1.231-2.779l1.504-1.338c.427.625.791 1.292 1.095 1.994l-1.873.711c-.212-.474-.447-.935-.726-1.367zm-2.211-2.431l1.298-1.535c.542.434 1.032.925 1.491 1.444l-1.498 1.333c-.396-.448-.821-.87-1.291-1.242zm5.805 8.154c-.175 6.475-5.483 11.673-12 11.673-6.627 0-12-5.373-12-12 0-3.646 1.786-7.465 4.782-8.522-.525.507-1.206 1.34-1.482 2.175.378.406.989.391 1.404.006.409-.381.705-.854.943-1.741.445-1.66 1.482-2.353 1.482-2.353-2.49.275-4.791 1.946-6.186 3.814-.724-2.774 2.442-5.379 6.157-5.379 1.191 0 2.482.245 3.809.865-.759.071-1.445.383-2.037.996-1.592 1.644-1.211 3.778-2.808 5.264-.619.574-1.343.823-2.054.823-.358 0-.713-.063-1.048-.18-.452.765-.962 2.527-.962 4.232 0 5.514 4.486 10 10 10 5.403 0 9.825-4.311 10-9.673h2z"/></svg>