<svg xmlns="http://www.w3.org/2000/svg" width="24" height="24" viewBox="0 0 24 24"><path d="M21.739 13.921c-1.347-.39-1.885-.538-3.552-.921 0 0-2.379-2.359-2.832-2.816-.568-.572-1.043-1.184-2.949-1.184h-7.894c-.511 0-.735.547-.069 1-.743.602-1.62 1.38-2.258 2.027-1.436 1.455-2.185 2.385-2.185 4.255 0 1.76 1.042 3.718 3.174 3.718h.01c.413 1.162 1.512 2 2.816 2 1.304 0 2.403-.838 2.816-2h6.367c.413 1.162 1.512 2 2.816 2s2.403-.838 2.816-2h.685c1.994 0 2.5-1.776 2.5-3.165 0-2.041-1.123-2.584-2.261-2.914zm-15.739 6.279c-.662 0-1.2-.538-1.2-1.2s.538-1.2 1.2-1.2 1.2.538 1.2 1.2-.538 1.2-1.2 1.2zm3.576-6.2c-1.071 0-3.5-.106-5.219-.75.578-.75.998-1.222 1.27-1.536.318-.368.873-.714 1.561-.714h2.388v3zm1-3h1.835c.882 0 1.428.493 2.022 1.105.452.466 1.732 1.895 1.732 1.895h-5.588v-3zm7.424 9.2c-.662 0-1.2-.538-1.2-1.2s.538-1.2 1.2-1.2 1.2.538 1.2 1.2-.538 1.2-1.2 1.2zm-3.625-14.7c0 .276-.224.5-.5.5h-1.875v1h-1.889c-.843 0-1.588-.417-2.041-1.057-.418-.59-1.099-.943-1.822-.943h-.019c-4.017 0-5.255 3.215-3.502 5.254l-.735.677c-2.341-2.679-.663-6.931 4.237-6.931h.019c.724 0 1.404-.352 1.822-.943.453-.64 1.198-1.057 2.041-1.057h1.889v1h1.875c.276 0 .5.224.5.5s-.224.5-.5.5h-1.875v1h1.875c.276 0 .5.224.5.5z"/></svg>