<svg xmlns="http://www.w3.org/2000/svg" width="24" height="24" viewBox="0 0 24 24"><path d="M17.75 10c.138 0 .25.112.25.25v.255c0 .397-.463.495-.808.495l-.543-1h1.101zm-.721 1.753c.32.593.473 1.126.473 1.833 0 .685-.198 1.267-.503 1.991v.923c0 .276-.224.5-.5.5h-.75c-.276 0-.5-.224-.5-.5v-.5h-6.5v.5c0 .276-.224.5-.5.5h-.749c-.276 0-.5-.224-.5-.5v-.924c-.304-.724-.503-1.306-.503-1.991 0-.707.154-1.24.473-1.833.414-.768.926-1.726 1.465-2.626.415-.69.631-.853 1.139-.944.767-.137 1.459-.182 2.426-.182s1.659.045 2.426.182c.508.091.725.253 1.139.945.539.9 1.05 1.857 1.464 2.626zm-8.029 1.497c0-.414-.336-.75-.75-.75s-.75.336-.75.75.336.75.75.75.75-.336.75-.75zm5 .5c0-.138-.112-.25-.25-.25h-3.5c-.138 0-.25.112-.25.25s.112.25.25.25h3.5c.138 0 .25-.112.25-.25zm1.471-2.764s-.37-.913-.815-1.571c-.101-.149-.258-.251-.435-.283-.756-.136-1.418-.179-2.221-.179s-1.465.043-2.22.179c-.177.032-.334.134-.435.283-.445.658-.815 1.571-.815 1.571.82.157 2.155.248 3.471.248s2.649-.091 3.47-.248zm1.029 2.264c0-.414-.336-.75-.75-.75s-.75.336-.75.75.336.75.75.75.75-.336.75-.75zm-9.149-3.25h-1.101c-.138 0-.25.112-.25.25v.255c0 .397.463.495.808.495l.543-1zm16.16-1.328l-1.874.711c.129.47.236.949.294 1.444h2.001c-.072-.742-.219-1.459-.421-2.155zm-1.601-3.405l-1.504 1.338c.279.432.514.893.725 1.366l1.873-.711c-.303-.702-.668-1.369-1.094-1.993zm.09 7.06c-.175 5.362-4.597 9.673-10 9.673-5.514 0-10-4.486-10-10 0-1.466.287-3.698 1.797-3.844 1.522-.147 2.203-.484 2.878-1.335.485-.612 1.218-1.525 1.218-1.525l-.997-.797 1.494-1.869c.22-.275.175-.677-.1-.897-.275-.22-.677-.175-.897.1l-1.494 1.87-.997-.797 1.494-1.87c.22-.275.175-.677-.1-.897-.276-.219-.678-.174-.898.101l-1.493 1.87-.997-.797s-.739.876-1.207 1.501c-.625.834-1.082 1.979-.841 3.035.434 1.904-.86 2.422-.86 6.151 0 6.627 5.373 12 12 12 6.517 0 11.825-5.198 12-11.673h-2zm-2.514-6.912l1.498-1.333c-.459-.519-.949-1.011-1.491-1.444l-1.298 1.535c.47.372.895.794 1.291 1.242z"/></svg>