<svg xmlns="http://www.w3.org/2000/svg" width="24" height="24" viewBox="0 0 24 24"><path d="M19.688 4.176c0 .82-.603 1.109-1.423 1.109h-.509v-2.178h.704c.775 0 1.228.283 1.228 1.069zm4.312-1.884v6.417c0 1.265-1.026 2.291-2.292 2.291h-6.417c-1.265 0-2.291-1.026-2.291-2.292v-6.416c0-1.266 1.026-2.292 2.292-2.292h6.417c1.265 0 2.291 1.026 2.291 2.292zm-2.75 1.829c0-.759-.231-1.33-.691-1.713-.461-.383-1.134-.574-2.019-.574h-2.331v7.333h1.547v-2.609h.664c.905 0 1.603-.209 2.094-.627.49-.418.736-1.021.736-1.81zm-18.548 5.879h-2.202c-.276 0-.5.224-.5.5v.511c0 .793.926.989 1.616.989l1.086-2zm19.08 2.993l-.074.007h-6.417c-5.448 0-8.12-.359-10.233-1.027 0 0 .74-1.826 1.631-3.142.202-.298.515-.502.869-.566 1.186-.213 2.261-.31 3.442-.343v-1.908c-1.432.03-2.601.127-3.851.351-1.016.182-1.45.507-2.278 1.889-1.078 1.799-2.101 3.715-2.929 5.252-.639 1.186-.946 2.252-.946 3.666 0 1.37.397 2.533 1.005 3.981v1.847c0 .552.448 1 1 1h1.5c.552 0 1-.448 1-1v-1h13v1c0 .552.448 1 1 1h1.499c.552 0 1-.448 1-1v-1.847c.608-1.448 1.005-2.611 1.005-3.981 0-1.414-.307-2.48-.946-3.666l-.277-.513zm-17.282 5.007c-.828 0-1.5-.672-1.5-1.5s.672-1.5 1.5-1.5 1.5.672 1.5 1.5-.672 1.5-1.5 1.5zm11 0h-7c-.276 0-.5-.224-.5-.5s.224-.5.5-.5h7c.276 0 .5.224.5.5s-.224.5-.5.5zm4 0c-.828 0-1.5-.672-1.5-1.5s.672-1.5 1.5-1.5 1.5.672 1.5 1.5-.672 1.5-1.5 1.5z"/></svg>