<svg xmlns="http://www.w3.org/2000/svg" width="24" height="24" viewBox="0 0 24 24"><path d="M14.5 15h1.5v9l-3.958-3-4.042 3v-9h1.463c.83.582 1.381 1 2.537 1 .975 0 1.88-.415 2.5-1zm4.426-6.723c.051.147.074.297.074.445 0 .449-.222.883-.615 1.156-1.256.87-1.09.651-1.562 2.067-.198.591-.77.99-1.414.99h-.004c-1.549-.005-1.279-.088-2.528.789-.262.184-.569.276-.877.276s-.615-.092-.876-.275c-1.249-.878-.98-.794-2.528-.789h-.004c-.645 0-1.216-.399-1.413-.99-.473-1.417-.311-1.198-1.562-2.067-.395-.274-.617-.708-.617-1.157 0-.148.024-.298.074-.444.483-1.411.484-1.139 0-2.555-.05-.147-.074-.297-.074-.445 0-.45.222-.883.616-1.157 1.251-.868 1.089-.648 1.562-2.067.197-.591.769-.99 1.413-.99h.004c1.545.005 1.271.095 2.528-.79.262-.183.569-.274.877-.274s.615.091.876.274c1.249.878.98.795 2.528.79h.004c.645 0 1.216.399 1.414.99.473 1.416.307 1.197 1.562 2.067.394.273.616.707.616 1.156 0 .148-.023.299-.074.445-.483 1.41-.485 1.139 0 2.555zm-3.426-2.798l-1.084-1.083-3.291 3.374-1.542-1.462-1.083 1.084 2.625 2.545 4.375-4.458z"/></svg>