<svg xmlns="http://www.w3.org/2000/svg" width="24" height="24" viewBox="0 0 24 24"><path d="M23.873 9.81c.087-.251.127-.509.127-.764 0-.77-.38-1.514-1.055-1.981-2.153-1.492-1.868-1.117-2.679-3.543-.34-1.013-1.319-1.697-2.424-1.697h-.007c-2.653.009-2.193.151-4.334-1.354-.446-.314-.974-.471-1.501-.471s-1.055.157-1.502.471c-2.156 1.515-1.686 1.362-4.334 1.353h-.007c-1.104 0-2.084.685-2.422 1.697-.812 2.432-.534 2.056-2.678 3.544-.677.469-1.057 1.212-1.057 1.983 0 .254.042.511.127.762.831 2.428.829 1.962 0 4.38-.085.251-.127.507-.127.762 0 .77.38 1.514 1.057 1.983 2.146 1.49 1.868 1.113 2.679 3.543.338 1.013 1.317 1.697 2.422 1.697h.007c2.653-.009 2.193-.152 4.334 1.353.446.314.974.472 1.501.472s1.055-.158 1.502-.471c2.141-1.504 1.679-1.362 4.334-1.353h.007c1.104 0 2.084-.685 2.424-1.697.811-2.427.525-2.052 2.679-3.543.674-.469 1.054-1.213 1.054-1.983 0-.254-.04-.512-.127-.763-.831-2.428-.827-1.963 0-4.38zm-11.873 10.69c-4.694 0-8.5-3.806-8.5-8.5s3.806-8.5 8.5-8.5 8.5 3.806 8.5 8.5-3.806 8.5-8.5 8.5zm-1.25-4.542l-3.75-3.637 1.549-1.548 2.201 2.088 4.701-4.819 1.549 1.548-6.25 6.368z"/></svg>