<svg xmlns="http://www.w3.org/2000/svg" width="24" height="24" viewBox="0 0 24 24"><path d="M7 9h10v1h-10v-1zm10-4h-10v1h10v-1zm-1 3v-1h-8v1h8zm-6.254 11.359c-.154 1.534-.68 2.685-1.746 3.796.428.053.975-.047 1.416-.28.159.318.326.715.384 1.125 1.005-1.149 1.633-2.527 1.867-4.035-.472-.091-.617-.248-.984-.499-.383 0-.686-.037-.937-.107zm2.692-.497c-.13.092-.284.138-.438.138s-.308-.046-.438-.138c-.625-.439-.49-.397-1.265-.395h-.002c-.322 0-.608-.2-.706-.495-.236-.709-.156-.599-.781-1.033-.197-.136-.308-.354-.308-.578l.037-.222c.242-.705.242-.569 0-1.277l-.037-.223c0-.225.111-.441.309-.578.625-.434.544-.324.781-1.033.098-.296.384-.495.706-.495h.002c.772.002.636.047 1.265-.395.129-.092.283-.138.437-.138s.308.046.438.137c.625.439.49.397 1.265.395h.001c.323 0 .609.199.708.495.236.708.153.598.781 1.033.196.137.308.354.308.578l-.037.223c-.241.705-.242.569 0 1.277l.037.223c0 .225-.111.441-.308.578-.628.435-.545.325-.781 1.033-.099.295-.385.495-.708.495h-.001c-.775-.002-.641-.043-1.265.395zm-.438-1.612c.967 0 1.75-.784 1.75-1.75s-.783-1.75-1.75-1.75-1.75.784-1.75 1.75.783 1.75 1.75 1.75zm1.317 2.216c-.368.253-.521.41-.983.499.234 1.508.862 2.886 1.866 4.036.058-.41.225-.807.384-1.125.441.232.988.333 1.416.28-1.064-1.109-1.584-2.266-1.739-3.797-.252.069-.556.107-.944.107zm-11.317-19.466v21h5c-.168-1.417-.56-3.607-3-4.578v-11.844c1.151-.504 2.074-1.427 2.578-2.578h10.844c.504 1.151 1.427 2.074 2.578 2.578v11.844c-2.44.971-2.832 3.161-3 4.578h5v-21h-20z"/></svg>