<svg xmlns="http://www.w3.org/2000/svg" width="24" height="24" viewBox="0 0 24 24"><path d="M3 22v-20h18v11.543c0 4.107-6 2.457-6 2.457s1.518 6-2.638 6h-9.362zm20-7.614v-14.386h-22v24h12.189c3.163 0 9.811-7.223 9.811-9.614zm-11.037-5.525c-.241.705-.242.569 0 1.277l.037.223c0 .225-.111.441-.308.578-.628.435-.545.325-.781 1.033-.099.295-.385.495-.708.495h-.001c-.774-.003-.64-.044-1.265.395-.129.092-.283.138-.437.138s-.308-.046-.438-.138c-.625-.439-.49-.397-1.265-.395h-.002c-.322 0-.608-.2-.706-.495-.236-.709-.156-.599-.781-1.033-.197-.136-.308-.354-.308-.578l.037-.222c.242-.705.242-.569 0-1.277l-.037-.223c0-.225.111-.441.309-.578.625-.435.544-.325.781-1.034.098-.296.384-.495.706-.495h.002c.772.003.636.047 1.264-.395.13-.091.284-.137.438-.137s.308.046.438.137c.625.439.49.397 1.265.395h.001c.323 0 .609.199.708.495.236.708.153.598.781 1.033.196.137.307.354.307.579l-.037.222zm-1.713.639c0-.966-.783-1.75-1.75-1.75s-1.75.784-1.75 1.75.783 1.75 1.75 1.75 1.75-.784 1.75-1.75zm-3.067 3.966c-.383 0-.686-.037-.937-.107-.154 1.534-.68 2.685-1.746 3.796.428.053.975-.047 1.416-.28.159.318.326.715.384 1.125 1.005-1.149 1.633-2.527 1.867-4.035-.472-.091-.617-.248-.984-.499zm2.634 0c-.368.253-.521.41-.983.499.234 1.508.862 2.886 1.866 4.035.058-.41.225-.807.384-1.125.441.232.988.333 1.416.28-1.064-1.109-1.584-2.266-1.739-3.797-.252.07-.556.108-.944.108zm9.183-7.466h-5v1h5v-1zm0 2h-5v1h5v-1zm0 2h-5v1h5v-1zm-2 2h-3v1h3v-1z"/></svg>