<svg xmlns="http://www.w3.org/2000/svg" width="24" height="24" viewBox="0 0 24 24"><path d="M14.969 13.547l.031.191c0 .193-.096.379-.264.496-.538.372-.467.278-.67.885-.084.253-.33.424-.605.424h-.002c-.664-.002-.549-.038-1.083.338-.112.08-.244.119-.376.119s-.264-.039-.376-.118c-.534-.376-.419-.34-1.083-.338h-.002c-.275 0-.521-.171-.605-.424-.203-.607-.133-.513-.669-.885-.169-.118-.265-.304-.265-.497l.031-.19c.207-.604.208-.488 0-1.094l-.031-.191c0-.193.096-.379.265-.497.536-.372.466-.277.669-.885.084-.253.33-.424.605-.424h.002c.662.002.544.041 1.083-.338.112-.08.244-.119.376-.119s.264.039.376.118c.534.376.419.34 1.083.338h.002c.275 0 .521.171.605.424.203.607.132.513.67.885.168.118.264.304.264.497l-.031.191c-.207.604-.208.488 0 1.094zm-1.469-1.198l-.465-.464-1.41 1.446-.66-.627-.465.464 1.125 1.091 1.875-1.91zm8.5-4.349v14h-20v-14h20zm2-2h-24v18h24v-18zm-5 11h-14v1h14v-1zm0 2h-14v1h14v-1zm-7-19c-.828 0-1.5.671-1.5 1.5s.672 1.5 1.5 1.5 1.5-.671 1.5-1.5-.672-1.5-1.5-1.5zm-4.74 5l2.771-1.979c-.206-.267-.36-.574-.446-.91l-4.045 2.889h1.72zm11.2 0l-4.044-2.889c-.086.336-.24.643-.446.91l2.77 1.979h1.72z"/></svg>