<svg xmlns="http://www.w3.org/2000/svg" width="24" height="24" viewBox="0 0 24 24"><path d="M17.736 9.767c-.538-.374-.467-.28-.67-.886-.085-.253-.33-.425-.605-.425h-.002c-.663.003-.549.038-1.084-.338-.111-.079-.243-.118-.375-.118s-.264.039-.375.118c-.539.379-.422.341-1.084.338h-.002c-.275 0-.521.172-.605.425-.203.608-.133.514-.67.886-.169.117-.264.302-.264.495l.031.19c.208.607.208.49 0 1.095l-.031.191c0 .192.095.378.264.496.537.372.468.278.67.886.085.253.33.424.605.424h.002c.663-.002.549-.038 1.084.338.111.078.243.118.375.118s.264-.04.375-.118c.535-.376.42-.34 1.084-.338h.002c.275 0 .521-.171.605-.424.203-.607.132-.513.67-.886.169-.117.264-.304.264-.496l-.031-.19c-.208-.608-.207-.491 0-1.095l.031-.191c0-.193-.095-.379-.264-.495zm-2.736 2.733c-.828 0-1.5-.671-1.5-1.5s.672-1.5 1.5-1.5 1.5.671 1.5 1.5-.672 1.5-1.5 1.5zm1.065 2.507l.018-.007h.917v7l-1.981-1.285-2.019 1.285v-7h.913c.356.25.592.429 1.087.429.406 0 .799-.174 1.065-.422zm7.935-13.007v18h-5c.099-1.131.387-3.435 3-4.578v-8.844c-1.151-.504-2.074-1.427-2.578-2.578h-14.844c-.504 1.151-1.427 2.074-2.578 2.578v8.844c1.151.504 2.074 1.427 2.578 2.578h6.422v2h-11v-18h24zm-14 9h-5v-1h5v1zm0 1h-5v1h5v-1zm-2 2h-3v1h3v-1zm2-5h-5v-1h5v1z"/></svg>