<svg xmlns="http://www.w3.org/2000/svg" width="24" height="24" viewBox="0 0 24 24"><path d="M19.5 8c-2.485 0-4.5 2.015-4.5 4.5s2.015 4.5 4.5 4.5 4.5-2.015 4.5-4.5-2.015-4.5-4.5-4.5zm-.5 7v-2h-2v-1h2v-2l3 2.5-3 2.5zm-5.701-11.26c-.207-.206-.299-.461-.299-.711 0-.524.407-1.029 1.02-1.029.262 0 .522.1.721.298l3.783 3.783c-.771.117-1.5.363-2.158.726l-3.067-3.067zm-.299 8.76c0-1.29.381-2.489 1.028-3.5h-14.028v2h.643c.535 0 1.021.304 1.256.784l4.101 10.216h12l1.211-3.015c-3.455-.152-6.211-2.993-6.211-6.485zm-2.299-8.76c.207-.206.299-.461.299-.711 0-.524-.407-1.029-1.02-1.029-.261 0-.522.1-.72.298l-4.701 4.702h2.883l3.259-3.26z"/></svg>