<svg xmlns="http://www.w3.org/2000/svg" width="24" height="24" viewBox="0 0 24 24"><path d="M19.5 3c-2.485 0-4.5 2.015-4.5 4.5s2.015 4.5 4.5 4.5 4.5-2.015 4.5-4.5-2.015-4.5-4.5-4.5zm-.5 7v-2h-2v-1h2v-2l3 2.5-3 2.5zm-3.5 8c.828 0 1.5.671 1.5 1.5s-.672 1.5-1.5 1.5-1.5-.671-1.5-1.5c0-.828.672-1.5 1.5-1.5zm-15.5-15l.743 2h1.929l3.474 12h13.239l1.307-3.114c-.387.072-.785.114-1.192.114-3.59 0-6.5-2.91-6.5-6.5 0-.517.067-1.018.181-1.5h-5.993l2.542 9h-2.103l-3.431-12h-4.196zm9 16.5c0 .829.672 1.5 1.5 1.5s1.5-.671 1.5-1.5c0-.828-.672-1.5-1.5-1.5s-1.5.672-1.5 1.5z"/></svg>