<svg xmlns="http://www.w3.org/2000/svg" width="24" height="24" viewBox="0 0 24 24"><path d="M8.502 5c-.257-1.675.04-3.562 1.229-5h7.259c-.522.736-1.768 2.175-1.391 5h-1.154c-.147-1.336.066-2.853.562-4h-4.725c-.666 1.003-.891 2.785-.657 4h-1.123zm10.498-1v20h-14v-20h2.374v.675c0 .732.583 1.325 1.302 1.325h6.647c.721 0 1.304-.593 1.304-1.325v-.675h2.373zm-9 17h-2v1h2v-1zm0-2h-2v1h2v-1zm0-2h-2v1h2v-1zm3 4h-2v1h2v-1zm0-2h-2v1h2v-1zm0-2h-2v1h2v-1zm3 4h-2v1h2v-1zm0-2h-2v1h2v-1zm0-2h-2v1h2v-1zm-6-2h-2v1h2v-1zm3 0h-2v1h2v-1zm3 0h-2v1h2v-1zm1-7h-10v5h10v-5z"/></svg>