<svg xmlns="http://www.w3.org/2000/svg" width="24" height="24" viewBox="0 0 24 24"><path d="M19.864 4h-11.03c.13-.662.359-1.434.693-2h-3.572c-.322.514-.56 1.157-.697 2h-1.122l-2.699 11h21.126l-2.699-11zm-14.228 9.003h-1.267l.199-1.003 1.235.003-.167 1zm.248-1.489l-1.219-.004.198-1.003 1.188.007-.167 1zm.257-1.534l-1.171-.008.198-1.003 1.14.01-.167 1.001zm1.505 3.023h-1.266l.148-1 1.235.003-.117.997zm.175-1.482l-1.22-.004.149-1 1.188.007-.117.997zm.179-1.529l-1.171-.008.149-1 1.14.011-.118.997zm.157-3.623h-2.299c-.202-1.356-.03-2.906.454-3.786h2.249c-.507 1.027-.556 2.747-.404 3.786zm11.315 5.188l-1.22-.004-.152-.974 1.188.006.184.972zm-.281-1.491l-1.172-.008-.151-.975 1.14.011.183.972zm-9.241-4.066h8.436l.396 2h-9.016l.184-2zm2.729 4.549l.008.987-1.22-.004.023-.989 1.189.006zm-1.176-.534l.023-.989 1.14.01.008.986-1.171-.007zm-.815 2.988h-1.266l.073-.993 1.235.002-.042.991zm.062-1.473l-1.22-.004.073-.993 1.188.006-.041.991zm.064-1.52l-1.171-.008.073-.992 1.14.01-.042.99zm.619 2.993l.023-.989 1.235.002.008.986h-1.266zm1.86-3.961l1.14.01.057.983-1.171-.008-.026-.985zm.04 1.511l1.188.006.057.982-1.219-.004-.026-.984zm.063 2.45l-.025-.985 1.235.002.057.982h-1.267zm2.705-3.936l1.14.011.134.976-1.171-.008-.103-.979zm.157 1.501l1.188.006.135.976-1.22-.004-.103-.978zm.153 1.456l3.149.006.183.972h-3.229l-.103-.978zm-16.411 4.976v5h24v-5h-24zm11 2h2v1h-2v-1z"/></svg>