<svg xmlns="http://www.w3.org/2000/svg" width="24" height="24" viewBox="0 0 24 24"><path d="M18 16.538l-4.592-4.548 4.546-4.587-1.416-1.403-4.545 4.589-4.588-4.543-1.405 1.405 4.593 4.552-4.547 4.592 1.405 1.405 4.555-4.596 4.591 4.55 1.403-1.416zm-16.663-10.037c1.11-2.158 2.878-3.985 5.164-5.162l.766 1.848c-1.78.955-3.17 2.394-4.076 4.083l-1.854-.769zm5.932 14.307c-1.689-.905-3.127-2.295-4.082-4.075l-1.848.765c1.175 2.287 3.003 4.055 5.162 5.167l.768-1.857zm-4.847-5.923c-.584-1.933-.549-3.933.005-5.767l-1.857-.769c-.374 1.171-.57 2.401-.57 3.648 0 1.215.186 2.446.573 3.654l1.849-.766zm5.928-14.312l.766 1.849c1.933-.584 3.934-.549 5.767.005l.77-1.856c-1.173-.375-2.402-.571-3.649-.571-1.215 0-2.445.187-3.654.573zm8.381 2.62c1.688.905 3.127 2.295 4.081 4.074l1.848-.766c-1.176-2.286-3.003-4.053-5.161-5.165l-.768 1.857zm4.847 5.922c.584 1.933.549 3.934-.005 5.768l1.856.77c.375-1.171.57-2.401.57-3.648 0-1.215-.186-2.447-.573-3.656l-1.848.766zm-.77 7.616c-.905 1.688-2.295 3.127-4.074 4.082l.766 1.849c2.286-1.176 4.054-3.004 5.164-5.162l-1.856-.769zm-5.923 4.847c-1.934.584-3.934.55-5.768-.005l-.77 1.857c1.172.374 2.402.57 3.65.57 1.215 0 2.445-.186 3.653-.572l-.765-1.85z"/></svg>