<svg xmlns="http://www.w3.org/2000/svg" width="24" height="24" viewBox="0 0 24 24"><path d="M8.503 5c-.258-1.675.039-3.562 1.228-5h7.259c-.522.736-1.768 2.175-1.391 5h-1.154c-.147-1.336.066-2.853.562-4h-4.726c-.665 1.003-.89 2.785-.656 4h-1.122zm8.124-1v.675c0 .732-.583 1.325-1.304 1.325h-6.646c-.72 0-1.303-.593-1.303-1.325v-.675h-2.374v20h14v-20h-2.373zm.373 18h-10v-14h10v14zm-1-13h-8v4h8v-4zm-6 7h-2v1h2v-1zm3 0h-2v1h2v-1zm3 0h-2v1h2v-1zm-6-2h-2v1h2v-1zm3 0h-2v1h2v-1zm3 0h-2v1h2v-1zm-6 4h-2v1h2v-1zm3 0h-2v1h2v-1zm3 0h-2v1h2v-1zm0 2h-2v1h2v-1zm-6 0h-2v1h2v-1zm3 0h-2v1h2v-1z"/></svg>