<svg xmlns="http://www.w3.org/2000/svg" width="24" height="24" viewBox="0 0 24 24"><path d="M11.011 2.39l-1.011-.957 1.389-.189.611-1.244.611 1.244 1.389.189-1.011.957.246 1.36-1.235-.651-1.235.651.246-1.36zm-7.011 16.61l3.214-4h-2.214l3.143-4h-1.875l5.732-6.514 5.732 6.514h-1.875l3.143 4h-2.214l3.214 4h-16zm11.458-5.229l-3.458-4.355-2.729 3.647c2.687-1.375 3.5 1.708 6.187.708zm-4.766-4.771h2.616l-1.308-1.486-1.308 1.486zm.308 15h2v-4h-2v4zm10-13c-.552 0-1 .448-1 1s.448 1 1 1 1-.448 1-1-.448-1-1-1zm-16-7c-.552 0-1 .448-1 1s.448 1 1 1 1-.448 1-1-.448-1-1-1zm15.5 2c-.276 0-.5.224-.5.5s.224.5.5.5.5-.224.5-.5-.224-.5-.5-.5zm-3-2c-.276 0-.5.224-.5.5s.224.5.5.5.5-.224.5-.5-.224-.5-.5-.5zm1 4c-.276 0-.5.224-.5.5s.224.5.5.5.5-.224.5-.5-.224-.5-.5-.5zm-14 1c-.276 0-.5.224-.5.5s.224.5.5.5.5-.224.5-.5-.224-.5-.5-.5zm-2 3c-.276 0-.5.224-.5.5s.224.5.5.5.5-.224.5-.5-.224-.5-.5-.5zm0-5c-.276 0-.5.224-.5.5s.224.5.5.5.5-.224.5-.5-.224-.5-.5-.5z"/></svg>