<svg xmlns="http://www.w3.org/2000/svg" width="24" height="24" viewBox="0 0 24 24"><path d="M5 18.987l4-5h-3l4-5h-2l4-4.487 4 4.487h-2l4 5h-3l4 5h-14zm8 1.013h-2v4h2v-4zm-1.611-18.756l-1.389.189 1.011.957-.246 1.36 1.235-.651 1.235.652-.246-1.36 1.011-.958-1.389-.189-.611-1.244-.611 1.244zm7.611 19.756h-2v3h2v-3zm-2.294-10.231l1.318-1.541 4.937 5.772h-2.533l3.572 5h-2.863l-.828-1h1.739l-3.571-5h2.323l-2.776-3.228-.681.792-.637-.795zm-11.706 13.231h2v-3h-2v3zm1.657-12.436l-.681-.792-2.776 3.228h2.324l-3.571 5h1.739l-.828 1h-2.864l3.571-5h-2.532l4.938-5.772 1.318 1.541-.638.795z"/></svg>