<svg xmlns="http://www.w3.org/2000/svg" width="24" height="24" viewBox="0 0 24 24"><path d="M11.389 1.244l-1.389.189 1.011.957-.246 1.36 1.235-.651 1.235.652-.246-1.36 1.011-.958-1.389-.189-.611-1.244-.611 1.244zm-.389 19.756h2v3h-2v-3zm-8-3.364c1.742-.284 3.624-1.367 4.531-2.878-1.009-.257-1.998-.704-2.789-1.543 1.76-.299 3.51-1.549 4.04-2.686-.733-.254-1.387-.613-1.964-1.362 2.867-.475 4.475-3.112 5.183-4.76.749 1.748 2.29 4.281 5.181 4.76-.578.75-1.229 1.106-1.964 1.362.532 1.138 2.282 2.388 4.04 2.686-.779.827-1.775 1.284-2.79 1.544.907 1.513 2.803 2.596 4.532 2.878-2.406 1.644-5.938 2.363-9.001 2.363-3.062 0-6.593-.718-8.999-2.364zm4.44-.157c1.87.733 7.207.734 9.08 0-2.019-1.287-2.832-3.12-2.897-4.357h1.377c-1.34-.908-2.458-2.899-2.694-3.867h.882c-.417-.42-.876-.869-1.188-1.317-.312.449-.771.897-1.188 1.317h.883c-.239.973-1.358 2.961-2.695 3.867h1.38c-.064 1.163-.892 3.052-2.94 4.357z"/></svg>