<svg xmlns="http://www.w3.org/2000/svg" width="24" height="24" viewBox="0 0 24 24"><path d="M19.634 11.392c-2.413.941-5.148 1.815-2.382 7.283-.562.037-1.54.22-1.706 1.307-.043.281-.176.308-.416.266-.639-.114-1.405.293-1.591.943-.825-1.314-1.071-1.744-1.539-2.903-.468 1.159-1.272 2.659-2.249 3.831-.187-.65-.668-.941-1.308-.827-.24.042-.337.007-.415-.266-.184-.638-.644-.956-1.312-.837-.227.041-.335.019-.416-.266l-.093-.262c3.663-6.271.681-7.294-1.842-8.269.354-.251.569-.736.354-1.347-.08-.225-.073-.336.181-.466.585-.301.8-.826.571-1.474l-.002-.008c.368.039.754.067 1.15.067 1.808 0 2.444-.674 2.444-.674-.801-.792-1.3-1.905-1.3-3.136 0-2.405 1.897-4.354 4.237-4.354s4.237 1.949 4.237 4.354c0 1.232-.499 2.344-1.301 3.136 0 0 .637.674 2.444.674.396 0 .782-.028 1.15-.067l-.003.008c-.227.648-.012 1.173.573 1.474.254.13.262.241.181.467-.217.61-.002 1.095.353 1.346zm-9.678-7.927c0 .401.317.727.708.727s.708-.326.708-.727c0-.402-.317-.728-.708-.728s-.708.326-.708.728zm2.753 9.887c0-.402-.317-.728-.708-.728s-.71.326-.71.728c0 .401.317.727.708.727s.71-.326.71-.727zm0-2.851c0-.402-.317-.728-.708-.728s-.71.326-.71.728c0 .401.317.727.708.727s.71-.326.71-.727zm-2.558-4.028c.158.156.408.152.561-.009.343-.362.751-.531 1.288-.531s.945.169 1.288.531c.151.162.402.166.561.009.157-.157.16-.415.009-.576-.489-.517-1.113-.778-1.858-.778s-1.369.262-1.857.778c-.152.162-.149.419.008.576zm3.893-3.008c0-.402-.317-.728-.708-.728s-.708.326-.708.728c0 .401.317.727.708.727s.708-.325.708-.727zm6.281 4.419c-.295.022-.616.064-.958.11-.012.158-.058.288-.094.39-.082.235-.065.34.182.467.584.3.801.825.57 1.474-.082.233-.066.34.182.467.097.05.222.114.339.227.276-.126.534-.261.759-.413.477-.324.695-.799.695-1.264 0-.785-.625-1.537-1.675-1.458zm-15.78.966c.247-.127.264-.232.182-.467-.037-.101-.082-.231-.094-.389-.342-.046-.663-.088-.958-.11-1.05-.079-1.675.673-1.675 1.458 0 .464.218.94.695 1.263.225.152.482.287.759.413.117-.113.242-.177.339-.227.248-.127.264-.234.182-.467-.231-.649-.014-1.174.57-1.474zm4.033 13.244c-.655.117-1.124-.187-1.311-.837-.083-.285-.19-.305-.416-.265-.564.101-.962-.137-1.164-.474l-.371.573c-.939 1.424-.007 2.909 1.439 2.909.832 0 1.656-.499 2.409-1.239-.097-.145-.138-.29-.169-.401-.078-.272-.177-.308-.417-.266zm8.701-.012c-.281.011-.499.253-.489.542.011.289.246.514.527.503s.5-.253.49-.542c-.01-.289-.245-.514-.528-.503zm1.654.126c-.234.009-.418.211-.409.453s.206.429.44.42c.235-.009.418-.212.41-.453-.01-.242-.207-.43-.441-.42zm-.856-1.584c-.313.012-.558.282-.546.604.012.322.275.573.588.561s.557-.282.546-.604c-.012-.322-.275-.573-.588-.561z"/></svg>