<svg xmlns="http://www.w3.org/2000/svg" width="24" height="24" viewBox="0 0 24 24"><path d="M14.984 2.559c-1.39 0-1.083-2.559-2.984-2.559-1.859 0-1.641 2.559-2.999 2.559l-.001 1.441h5.984v-1.441zm-2.984.441c-.551 0-1-.448-1-1s.449-1 1-1 1 .448 1 1c0 .551-.449 1-1 1zm4.634 19.705c-1.358.816-2.941 1.295-4.634 1.295-4.945 0-9-4.009-9-8.954 0-.464.048-.916.119-1.361 1.267 1.555 3.605 2.522 6.076 3.526 3.313 1.346 6.717 2.737 7.439 5.494zm-9.302-15.406c.816-.639 1.412-1.161 1.668-2.299h6c.408 1.813 1.676 2.06 3.332 3.715 1.62 1.62 2.668 3.858 2.668 6.331 0 .672-.081 1.325-.223 1.955-1.632-2.374-4.816-3.677-7.732-4.862-2.604-1.058-5.062-2.056-5.656-3.517-.158-.387-.168-.828-.057-1.323zm12.419 12.272c-.397.671-.875 1.291-1.429 1.835-1.272-3.155-5.005-4.68-8.373-6.048-3.853-1.565-6.151-2.593-5.729-4.755.343-.587.749-1.129 1.206-1.623.727 2.497 3.527 3.655 6.865 5.011 3.347 1.36 6.787 2.766 7.46 5.58z"/></svg>