<svg xmlns="http://www.w3.org/2000/svg" width="24" height="24" viewBox="0 0 24 24"><path d="M15.264 19.458c1.949-.336 3.574-.894 4.42-1.609.131.775-.09 2.159-.484 2.824.365.408 1.273.828 1.801.822-1.24 1.128-3.477 1.816-5.658 2.179-.331-1.114-.431-3.005-.079-4.216zm-1.493-7.228c-.443 0-.801.497-.801 1.11 0 .613.357 1.11.801 1.11.441 0 .799-.497.799-1.11 0-.613-.357-1.11-.799-1.11zm-8.566-10.906c2.513-1.804 9.555-1.726 12.131 0-.771 1.936-.932 3.806-.512 5.341-2.947-1.361-8.426-1.349-11.324.051.401-1.712.437-3.233-.295-5.392zm1.62.302c.433 1.134.524 2.351.347 3.585l.983-.226c.13-1.027.117-2.205-.386-3.607-.294.056-.645.14-.944.248zm3.788 13.314l-2.955 2.532c-.411.387-.131.99.471.813l3.575-1.154c1.817-.585.665-3.791-1.091-2.191zm-6.014 3.003c.532.215 1.135.398 1.796.546-.739-.991-1.177-2.22-1.177-3.548 0-3.279 2.667-5.947 5.947-5.947 3.279 0 5.947 2.668 5.947 5.947 0 1.301-.42 2.505-1.131 3.485.658-.144 1.252-.315 1.762-.506.412-.908.641-1.917.641-2.979 0-1.348-.369-2.61-1.014-3.689.535-.407.852-.901.852-1.482 0-4.111-14.006-4.112-14.006 0 0 .555.287 1.03.778 1.426-.664 1.092-1.047 2.374-1.047 3.746-.001 1.07.233 2.086.652 3.001zm2.862 1.63c-1.244-.185-2.635-.58-3.606-.998-.527-.226-.838.632-.855 1.636-.017 1.031.276 2.216.854 2.539.667.372 2.066.787 3.494.992-.218-1.26-.237-2.906.113-4.169zm6.684.049c-1.795.22-3.772.26-5.628.08-.385 1.213-.331 2.985-.073 4.17 1.797.173 3.872.183 5.852-.05-.312-1.161-.417-2.864-.151-4.2zm-4.68-6.282c0-.613-.358-1.11-.8-1.11s-.8.497-.8 1.11c0 .613.358 1.11.8 1.11s.8-.497.8-1.11z"/></svg>