<svg xmlns="http://www.w3.org/2000/svg" width="24" height="24" viewBox="0 0 24 24"><path d="M21 8.156l-3-3v-3.156h3v6.156zm-.391 5.844h-17.109l8.5-8.469 8.609 8.469zm-6.609-4.001c0-1.104-.895-2-2-2-1.104 0-2 .896-2 2 0 1.105.896 2.001 2 2.001 1.105 0 2-.896 2-2.001zm6 7.001c.553 0 1-.448 1-1s-.447-1-1-1h-6v5h6c.553 0 1-.448 1-1s-.447-1-1-1h-3v-1h3zm-16 1c-.553 0-1 .448-1 1s.447 1 1 1h6v-5h-6c-.553 0-1 .448-1 1s.447 1 1 1h3v1h-3zm16 3h-16c-.553 0-1 .448-1 1s.447 1 1 1h16c.553 0 1-.448 1-1s-.447-1-1-1zm3.676-8.506l-11.676-11.494-11.676 11.494c-.215.197-.324.466-.324.737 0 .552.448 1 1 1 .241 0 .483-.087.676-.263l10.324-10.156 10.324 10.156c.192.176.435.263.676.263.552 0 1-.448 1-1 0-.271-.109-.54-.324-.737z"/></svg>