<svg xmlns="http://www.w3.org/2000/svg" width="24" height="24" viewBox="0 0 24 24"><path d="M14.984 2.559c-1.39 0-1.083-2.559-2.984-2.559-1.859 0-1.641 2.559-2.999 2.559l-.001 1.441h5.984v-1.441zm-2.984.441c-.551 0-1-.448-1-1s.449-1 1-1 1 .448 1 1c0 .551-.449 1-1 1zm6.332 5.715c-1.656-1.655-2.924-1.902-3.332-3.715h-6c-.408 1.814-1.678 2.061-3.332 3.715-1.62 1.62-2.668 3.858-2.668 6.331 0 4.945 4.055 8.954 9 8.954s9-4.009 9-8.954c0-2.473-1.048-4.711-2.668-6.331zm-7.842 12.119c-6.058-1.636-5.946-10.261.091-11.783-3.438 3.241-3.37 8.607-.091 11.783z"/></svg>