<svg xmlns="http://www.w3.org/2000/svg" width="24" height="24" viewBox="0 0 24 24"><path d="M23.464 12.698l-5.45 1.522-3.966-2.22 3.966-2.219 5.449 1.521.537-1.927-3.523-.982 3.125-1.762-.983-1.742-3.125 1.761.983-3.523-1.926-.537-1.52 5.449-4.031 2.256v-3.881l4-4-1.414-1.414-2.586 2.586v-3.586h-2v3.586l-2.586-2.586-1.414 1.414 4 4v3.881l-4.031-2.256-1.52-5.449-1.926.537.982 3.523-3.124-1.761-.982 1.742 3.124 1.762-3.523.982.537 1.927 5.449-1.521 3.966 2.219-3.966 2.22-5.45-1.522-.536 1.927 3.523.982-3.125 1.763.983 1.741 3.125-1.761-.984 3.523 1.927.536 1.521-5.448 4.03-2.255v3.88l-4 4 1.414 1.414 2.586-2.586v3.586h2v-3.586l2.586 2.586 1.414-1.414-4-4v-3.88l4.03 2.255 1.521 5.448 1.927-.536-.984-3.523 3.125 1.761.983-1.741-3.125-1.763 3.523-.982z"/></svg>