<svg xmlns="http://www.w3.org/2000/svg" width="24" height="24" viewBox="0 0 24 24"><path d="M11.011 2.39l-1.011-.957 1.389-.189.611-1.244.611 1.244 1.389.189-1.011.957.246 1.36-1.235-.651-1.235.651.246-1.36zm-.011 21.61h2v-4h-2v4zm-6-5.013l4-5h-3l4-5h-2l4-4.487 4 4.487h-2l4 5h-3l4 5h-14zm9.263-3.448l-.379.78-.857.119.624.601-.152.854.765-.409.765.409-.152-.854.625-.601-.859-.119-.38-.78zm-1.334-4.107c0 .349.283.632.631.632s.631-.283.631-.632c0-.349-.282-.631-.631-.631s-.631.282-.631.631zm-.224 2.913c0-.425-.345-.77-.769-.77-.426 0-.77.344-.77.77 0 .425.344.77.77.77.423 0 .769-.345.769-.77zm-1.42-7.605c0 .349.283.632.631.632.348 0 .631-.283.631-.632 0-.348-.284-.631-.631-.631-.349-.001-.631.283-.631.631zm0 2.652c0 .348.283.631.631.631.348 0 .631-.283.631-.631 0-.349-.284-.632-.631-.632-.349 0-.631.283-.631.632zm-1.785 2.05l.456.438-.111.62.557-.298.555.298-.11-.621.454-.438-.625-.086-.274-.567-.275.567-.627.087zm-1 5.362c0 .547.444.991.991.991.547 0 .991-.444.991-.991 0-.547-.443-.991-.991-.991-.547 0-.991.444-.991.991z"/></svg>