<svg xmlns="http://www.w3.org/2000/svg" width="24" height="24" viewBox="0 0 24 24"><path d="M9.94 3.735c0-.409.318-.74.713-.74.394 0 .713.331.713.74s-.319.74-.713.74c-.394 0-.713-.331-.713-.74zm2.061 8.488c-.395 0-.714.331-.714.74s.319.74.714.74c.394 0 .713-.331.713-.74s-.319-.74-.713-.74zm0-2.9c-.395 0-.714.331-.714.74s.319.74.714.74c.394 0 .713-.331.713-.74s-.319-.74-.713-.74zm1.296-3.78c-.344.368-.757.54-1.297.54-.541 0-.953-.172-1.298-.54-.153-.164-.406-.168-.564-.009-.158.16-.162.422-.009.586.491.525 1.121.792 1.871.792s1.379-.267 1.871-.792c.153-.164.149-.426-.009-.586-.159-.159-.411-.155-.565.009zm.05-2.547c-.395 0-.714.331-.714.74s.319.74.714.74c.394 0 .712-.331.712-.74s-.319-.74-.712-.74zm7.717 8.23c-1.467 1.003-4.015 1.203-4.517 2.842-.527 1.718 1.255 4.67 2.233 6.167 1.136 1.737.026 3.765-1.83 3.765-.825 0-1.798-.401-2.785-1.406-.854-.869-1.603-2.03-2.165-3.126-.562 1.096-1.312 2.257-2.165 3.126-.987 1.005-1.96 1.406-2.785 1.406-1.855 0-2.966-2.028-1.831-3.764.978-1.497 2.761-4.45 2.233-6.167-.503-1.64-3.051-1.839-4.517-2.842-.6-.411-.935-1.052-.935-1.731 0-1.164.929-2.137 2.245-2.037 1.11.084 2.753.494 4.014.083-.557-.802-.858-1.762-.858-2.773 0-2.63 2.064-4.769 4.599-4.769s4.598 2.139 4.598 4.769c0 1.011-.3 1.971-.857 2.773 1.261.41 2.904 0 4.015-.083 1.312-.1 2.244.871 2.244 2.036 0 .679-.336 1.32-.936 1.731zm-16.195-1.333c.218-.113.277-.202.182-.475-.048-.138-.114-.327-.091-.567-.29-.039-.564-.075-.807-.094-.931-.069-1.183.933-.527 1.382.188.128.412.245.658.356.154-.376.412-.512.585-.602zm3.954 11.896c-.067-.222-.078-.414-.441-.348-.653.118-1.131-.182-1.322-.852-.059-.21-.128-.32-.387-.275-.424.682-.798 1.093-.624 1.667.125.413.489.722 1.036.722.564-.001 1.163-.359 1.738-.914zm8.116-1.2c-.19.67-.669.97-1.321.852-.363-.065-.374.126-.441.348.575.555 1.173.913 1.737.913.548 0 .912-.309 1.037-.722.174-.574-.2-.985-.625-1.667-.259-.044-.327.066-.387.276zm2.035-9.787c-.035-.078-.073-.102-.2-.167-.605-.314-.802-.857-.575-1.5l.048-.185c-1.214.134-3.094.148-3.945-.761-.242-.259-.234-.673.017-.922.66-.661 1.024-1.547 1.024-2.498 0-1.912-1.499-3.467-3.342-3.467-1.844 0-3.342 1.555-3.342 3.467 0 .95.363 1.837 1.024 2.498.251.249.257.663.015.922-.851.91-2.731.895-3.944.761l.048.185c.226.643.029 1.186-.575 1.5-.127.066-.165.089-.2.167 1.413.553 3.092 1.144 3.622 2.872.439 1.432-.042 3.316-1.51 5.862.399.154.582.446.688.819.067.233.136.321.419.27.57-.103.983.146 1.185.5.827-1.012 1.556-2.334 1.99-3.424.214-.535.946-.534 1.16 0 .435 1.09 1.163 2.413 1.989 3.424.202-.354.615-.604 1.186-.5.283.051.352-.037.419-.27.105-.373.288-.665.687-.819-1.467-2.546-1.948-4.431-1.509-5.862.528-1.728 2.208-2.319 3.621-2.872zm.873-2.045c-.243.019-.518.054-.807.093.022.241-.043.43-.092.568-.095.272-.036.362.183.475.172.09.432.226.585.602.245-.111.47-.228.658-.356.656-.449.404-1.451-.527-1.382z"/></svg>