<svg xmlns="http://www.w3.org/2000/svg" width="24" height="24" viewBox="0 0 24 24"><path d="M15.323 17c.471 0 .854.458.854 1.006s-.384.994-.854.994h-12.469c-.47 0-.854-.446-.854-.994s.384-1.006.854-1.006h12.469zm0-1.988h-12.469c-1.576 0-2.854 1.341-2.854 2.994 0 1.654 1.278 2.994 2.854 2.994h12.469c1.577 0 2.854-1.34 2.854-2.994.001-1.653-1.277-2.994-2.854-2.994zm6.177-6.512c.552 0 1 .449 1 1s-.448 1-1 1-1-.449-1-1 .448-1 1-1zm0-1.5c-1.379 0-2.5 1.121-2.5 2.5 0 1.378 1.121 2.5 2.5 2.5s2.5-1.122 2.5-2.5c0-1.379-1.121-2.5-2.5-2.5zm-3.434 1.838c.131-.675.456-1.279.914-1.757-3.322-2.425-5.957-4.081-7.997-4.081-4.077 0-6.99 4.602-8.592 11h13.34c-.517-1.066-.874-2.919-1.01-4.061-.67-.114-1.886.011-2.485.2 1.412-1.337 4.25-1.438 5.83-1.301z"/></svg>