<svg xmlns="http://www.w3.org/2000/svg" width="24" height="24" viewBox="0 0 24 24"><path d="M11.424 5.395l-.591-.559.81-.11.357-.726.357.726.809.11-.59.559.144.793-.72-.38-.72.38.144-.793zm-4.091 9.605l1.876-2.25h-1.292l1.833-2.333h-1.094l3.344-3.8 3.344 3.8h-1.094l1.834 2.333h-1.292l1.874 2.25h-9.333zm6.685-2.966l-2.018-2.541-1.591 2.127c1.567-.803 2.041.997 3.609.414zm-2.782-2.784h1.527l-.763-.867-.764.867zm.181 8.75h1.166v-2.333h-1.166v2.333zm5.833-7.583c-.322 0-.584.26-.584.583s.262.583.584.583.584-.26.584-.583-.262-.583-.584-.583zm-9.333-4.084c-.323 0-.584.261-.584.584 0 .322.261.583.584.583.322 0 .583-.261.583-.583 0-.323-.261-.584-.583-.584zm9.042 1.167c-.163 0-.293.13-.293.292 0 .161.13.291.293.291.161 0 .291-.13.291-.291 0-.162-.13-.292-.291-.292zm-1.75-1.167c-.163 0-.293.131-.293.292s.13.292.293.292c.161 0 .291-.131.291-.292s-.13-.292-.291-.292zm.582 2.334c-.161 0-.291.13-.291.291 0 .162.13.292.291.292.163 0 .293-.13.293-.292 0-.161-.13-.291-.293-.291zm-8.166.583c-.162 0-.292.13-.292.292 0 .161.13.291.292.291s.292-.13.292-.291c0-.162-.13-.292-.292-.292zm-1.167 1.75c-.161 0-.291.13-.291.292 0 .161.13.291.291.291.162 0 .292-.13.292-.291 0-.162-.13-.292-.292-.292zm0-2.917c-.161 0-.291.131-.291.292s.13.292.291.292c.162 0 .292-.131.292-.292s-.13-.292-.292-.292zm13.394 11.917l2.175 4h-20.053l2.175-4h15.703zm-15.386-1h3.43c-2.902-1.495-4.896-4.517-4.896-8 0-4.962 4.038-9 9-9 4.963 0 9 4.038 9 9 0 3.483-1.994 6.505-4.896 8h3.431c2.129-2.006 3.465-4.844 3.465-8 0-6.075-4.925-11-11-11s-11 4.925-11 11c0 3.156 1.336 5.994 3.466 8z"/></svg>