<svg xmlns="http://www.w3.org/2000/svg" width="24" height="24" viewBox="0 0 24 24"><path d="M15 8.019c0 1.657-1.343 3.001-3 3.001s-3-1.344-3-3.001c0-1.656 1.343-2.999 3-2.999s3 1.342 3 2.999zm7.541-5.019c-.17 0-.344.03-.516.095l-5.843 2.199c.513.785.818 1.719.818 2.725 0 2.758-2.243 5.001-5 5.001s-5-2.243-5-5.001c0-1.008.305-1.943.82-2.729l-5.845-2.195c-.172-.065-.346-.095-.516-.095-.772 0-1.459.626-1.459 1.464v8.959c0 1.022 1.024 1.73 1.978 1.367l4.877-1.857c-.545 1.87-2.42 4.779-3.317 5.748l3.477-.366 1.2 2.685c1.676-1.596 3.287-4.454 3.785-6.716.498 2.262 2.109 5.12 3.785 6.716l1.199-2.686 3.477.366c-.896-.969-2.771-3.878-3.316-5.748l4.877 1.857c.955.364 1.978-.344 1.978-1.366v-8.959c0-.838-.687-1.464-1.459-1.464z"/></svg>