<svg xmlns="http://www.w3.org/2000/svg" width="24" height="24" viewBox="0 0 24 24"><path d="M24 4.464v8.959c0 .837-.687 1.464-1.459 1.464-.171 0-.347-.031-.52-.097l-4.877-1.857c.545 1.87 2.42 4.779 3.316 5.748l-3.477-.366-1.198 2.685c-1.676-1.596-3.287-4.454-3.785-6.716-.498 2.262-2.109 5.12-3.785 6.716l-1.199-2.686-3.477.366c.896-.969 2.771-3.878 3.316-5.748l-4.876 1.858c-.173.065-.349.097-.52.097-.772 0-1.459-.627-1.459-1.464v-8.959c0-.838.687-1.464 1.459-1.464.17 0 .344.03.516.095l5.845 2.195c-.363.554-.613 1.185-.732 1.861l-5.088-1.911v7.401l5.675-2.161c.374.655.877 1.228 1.496 1.654-.422 1.446-.587 2.254-1.593 4.109l.672-.07.429.959c1.193-2.036 1.365-3.264 1.622-4.431.533.194 1.1.317 1.699.317s1.166-.123 1.699-.317c.267 1.212.441 2.416 1.622 4.431l.429-.959.672.07c-1.007-1.856-1.167-2.649-1.593-4.109.619-.427 1.122-.999 1.496-1.654l5.675 2.162v-7.4l-5.087 1.917c-.118-.677-.367-1.308-.729-1.862l5.842-2.202c.171-.065.345-.095.515-.095.772 0 1.459.626 1.459 1.464zm-12 .556c-1.656 0-3 1.343-3 2.999 0 1.657 1.344 3.001 3 3.001 1.657 0 3-1.344 3-3.001 0-1.657-1.343-2.999-3-2.999z"/></svg>