<svg xmlns="http://www.w3.org/2000/svg" width="24" height="24" viewBox="0 0 24 24"><path d="M18.684 21.09c.939 1.425.008 2.91-1.438 2.91-.832 0-1.656-.499-2.409-1.239.097-.145.138-.29.169-.401.078-.271.177-.308.417-.266.655.117 1.124-.187 1.311-.837.083-.285.19-.305.416-.265.564.101.962-.137 1.164-.474l.37.572zm.95-9.698c-2.522.975-5.505 1.998-1.842 8.269l-.093.262c-.081.284-.189.306-.416.266-.668-.119-1.128.199-1.312.837-.078.272-.175.308-.415.266-.64-.114-1.121.176-1.308.827-.977-1.172-1.781-2.672-2.249-3.831-.468 1.159-1.272 2.659-2.249 3.831-.187-.65-.668-.941-1.308-.827-.24.042-.337.007-.415-.266-.184-.638-.644-.956-1.312-.837-.227.041-.335.019-.416-.266l-.093-.262c3.663-6.271.681-7.294-1.842-8.269.354-.251.569-.736.354-1.347-.079-.225-.072-.336.182-.466.585-.301.8-.826.571-1.474l-.002-.008c.368.039.754.067 1.15.067 1.808 0 2.444-.674 2.444-.674-.801-.792-1.3-1.905-1.3-3.136 0-2.405 1.897-4.354 4.237-4.354s4.237 1.949 4.237 4.354c0 1.232-.499 2.344-1.301 3.136 0 0 .637.674 2.444.674.396 0 .782-.028 1.15-.067l-.003.008c-.227.648-.012 1.173.573 1.474.254.13.262.241.181.467-.217.61-.002 1.095.353 1.346zm-9.678-7.927c0 .401.317.727.708.727s.708-.326.708-.727c0-.402-.317-.728-.708-.728s-.708.326-.708.728zm2.753 9.887c0-.402-.317-.728-.708-.728s-.71.326-.71.728c0 .401.317.727.708.727s.71-.326.71-.727zm0-2.851c0-.402-.317-.728-.708-.728s-.71.326-.71.728c0 .401.317.727.708.727s.71-.326.71-.727zm1.14-5.268c-.158-.157-.408-.152-.561.009-.343.362-.751.531-1.288.531s-.945-.169-1.288-.531c-.151-.161-.402-.166-.561-.009-.157.157-.16.415-.008.577.488.516 1.112.778 1.857.778s1.369-.262 1.857-.778c.152-.162.149-.42-.008-.577zm.195-1.768c0-.402-.317-.728-.708-.728s-.708.326-.708.728c0 .401.317.727.708.727s.708-.325.708-.727zm6.281 4.419c-.295.022-.616.064-.958.11-.012.158-.058.288-.094.39-.082.235-.065.34.182.467.584.3.801.825.57 1.474-.082.233-.066.34.182.467.097.05.222.114.339.227.276-.126.534-.261.759-.413.477-.324.695-.799.695-1.264 0-.785-.625-1.537-1.675-1.458zm-15.78.966c.247-.127.264-.232.182-.467-.037-.101-.082-.231-.094-.389-.342-.046-.663-.088-.958-.11-1.05-.079-1.675.673-1.675 1.458 0 .464.218.94.695 1.263.225.152.482.287.759.413.117-.113.242-.177.339-.227.248-.127.264-.234.182-.467-.231-.649-.014-1.174.57-1.474zm4.033 13.244c-.655.117-1.124-.187-1.311-.837-.083-.285-.19-.305-.416-.265-.564.101-.962-.137-1.164-.474l-.371.573c-.939 1.424-.007 2.909 1.439 2.909.832 0 1.656-.499 2.409-1.239-.097-.145-.138-.29-.169-.401-.078-.272-.177-.308-.417-.266z"/></svg>