<svg xmlns="http://www.w3.org/2000/svg" width="24" height="24" viewBox="0 0 24 24"><path d="M12 0c-1.859 0-1.641 2.559-2.999 2.559l-.001 1.441h5.984v-1.441c-1.39 0-1.083-2.559-2.984-2.559zm0 3c-.551 0-1-.448-1-1s.449-1 1-1 1 .448 1 1c0 .551-.449 1-1 1zm6.332 5.715c-1.656-1.655-2.924-1.902-3.332-3.715h-6c-.408 1.814-1.678 2.061-3.332 3.715-1.62 1.62-2.668 3.858-2.668 6.331 0 4.945 4.055 8.954 9 8.954s9-4.009 9-8.954c0-2.473-1.048-4.711-2.668-6.331zm-6.332 13.285c-3.866 0-7-3.134-7-7s3.134-7 7-7 7 3.134 7 7-3.134 7-7 7zm-2.625-11.281l.809 1.668 1.836.254-1.336 1.284.326 1.825-1.635-.874-1.635.874.326-1.825-1.336-1.284 1.836-.254.809-1.668zm2.545 5.606l.59 1.219 1.342.185-.977.938.238 1.333-1.193-.639-1.195.639.238-1.333-.975-.938 1.34-.185.592-1.219zm3.777-2.95l.482.992 1.09.151-.793.764.193 1.085-.973-.52-.971.52.193-1.085-.795-.764 1.092-.151.482-.992zm-1.687-3.375l.359.739.812.112-.591.569.145.808-.725-.387-.723.387.145-.808-.592-.569.812-.112.358-.739z"/></svg>