<svg xmlns="http://www.w3.org/2000/svg" width="24" height="24" viewBox="0 0 24 24"><path d="M15.262 6.156h-11.562c-1.274 0-2.308.866-2.308 2.329s1.033 2.329 2.308 2.329h11.562c1.274 0 2.308-.866 2.308-2.329s-1.034-2.329-2.308-2.329zm0 3.244h-11.562c-1.212 0-1.213-1.831 0-1.831h11.562c1.212 0 1.213 1.831 0 1.831zm5.513-6.233c-1.227 0-2.225.998-2.225 2.225s.998 2.225 2.225 2.225 2.225-.998 2.225-2.225-.998-2.225-2.225-2.225zm0 3.26c-.572 0-1.036-.463-1.036-1.035s.464-1.036 1.036-1.036 1.035.464 1.035 1.036-.463 1.035-1.035 1.035zm-2.951-2.146c.3-.64.526-.943.949-1.353-2.328-1.98-6.009-2.928-8.031-2.928-1.771 0-5.825.267-7.785 5.214h13.225c-.177-.276-.388-.749-.489-1.068.627-.088 1.369-.028 2.131.135zm-8.293 19.719c-1.24 0-2.214-.465-2.977-1.422-1.35.232-2.581-.246-3.327-1.173-.616-.765-.848-1.779-.64-2.789-.998-.567-1.587-1.549-1.587-2.66 0-1.26.762-2.343 1.905-2.839-.118-.696-.153-1.15-.158-1.615.456.204.874.159 1.403.159.016.871.099 1.605.333 2.523-1.407-.116-2.069.834-2.074 1.776-.006.949.596 1.744 1.908 1.759-.5.815-.71 1.726-.241 2.563.492.879 1.644 1.375 3.142.806.376 1.083 1.236 1.583 2.314 1.583 1.074 0 1.937-.496 2.313-1.583 1.496.568 2.649.073 3.142-.807.468-.836.26-1.746-.241-2.563 1.329-.016 1.914-.83 1.908-1.759-.006-.933-.656-1.894-2.075-1.776.201-.786.315-1.515.333-2.523.527 0 .951.043 1.403-.159-.005.463-.04.917-.158 1.615 1.104.479 1.826 1.497 1.889 2.668.064 1.18-.522 2.235-1.571 2.83.208 1.01-.023 2.024-.64 2.789-.733.911-1.956 1.409-3.327 1.173-.763.959-1.737 1.424-2.977 1.424zm2.421-11.876c-.81 0-1.499.528-1.741 1.257-.38-.157-.954-.157-1.334 0-.243-.729-.932-1.257-1.742-1.257-1.012 0-1.835.823-1.835 1.835s.823 1.835 1.835 1.835c.867 0 1.595-.604 1.786-1.413.417-.171.828-.171 1.245 0 .191.809.919 1.413 1.786 1.413 1.012 0 1.835-.823 1.835-1.835s-.823-1.835-1.835-1.835zm-4.817 2.661c-.456 0-.825-.37-.825-.825 0-.456.37-.826.825-.826.456 0 .826.37.826.826-.001.455-.37.825-.826.825zm4.817 0c-.456 0-.825-.37-.825-.825 0-.456.37-.826.825-.826.456 0 .825.37.825.826 0 .455-.369.825-.825.825zm-1.501 2.043c-.362 0-.68.189-.861.474-.182-.285-.499-.474-.862-.474-1.14 0-1.8 1.087-3.943.167 1.169 1.971 3.783 2.553 4.805 1.468 1.022 1.085 3.636.503 4.805-1.468-2.144.92-2.804-.167-3.944-.167z"/></svg>