<svg xmlns="http://www.w3.org/2000/svg" width="24" height="24" viewBox="0 0 24 24"><path d="M12 10.968l.554 1.23 1.633.272-1.09 1.004.254 1.52-1.351-.828-1.351.829.254-1.52-1.09-1.004 1.633-.272.554-1.231zm0-2.437l-1.246 2.769-3.121.52 2.195 2.024-.526 3.152 2.698-1.657 2.698 1.657-.526-3.152 2.195-2.024-3.121-.52-1.246-2.769zm12 1.011l-8.331-1.386-3.669-8.156-3.669 8.155-8.331 1.387 6.064 5.592-1.48 8.866 7.416-4.554 7.416 4.554-1.48-8.866 6.064-5.592zm-12 7.557l-4.72 2.898.935-5.601-3.853-3.553 5.354-.891 2.284-5.077 2.284 5.078 5.354.891-3.853 3.553.935 5.601-4.72-2.899z"/></svg>