<svg xmlns="http://www.w3.org/2000/svg" width="24" height="24" viewBox="0 0 24 24"><path d="M23 17.419l-1.896-1.067 1.862-.499-.35-1.256-3.141.837-1.252-.705 4.037-1.067-.351-1.256-5.314 1.406c-1.409-.794-1.411-2.832 0-3.626l5.314 1.406.351-1.256-4.036-1.066 1.252-.705 3.141.837.35-1.256-1.862-.499 1.896-1.067-.688-1.162-1.896 1.067.488-1.823-1.291-.332-.825 3.072-1.252.705 1.071-3.943-1.291-.332-1.408 5.192c-1.541.868-3.221-.163-3.221-1.813l3.906-3.786-.94-.924-2.966 2.876v-1.41l2.314-2.234-.939-.924-1.375 1.324v-2.133h-1.375v2.135l-1.375-1.324-.94.923 2.314 2.234v1.41l-2.965-2.877-.94.924 3.906 3.786c0 1.669-1.688 2.677-3.221 1.813l-1.408-5.191-1.291.332 1.071 3.943-1.252-.705-.825-3.071-1.291.332.488 1.823-1.896-1.068-.687 1.162 1.896 1.067-1.863.499.35 1.256 3.141-.837 1.251.704-4.037 1.067.351 1.256 5.314-1.406c1.386.78 1.587 2.732 0 3.626l-5.314-1.406-.351 1.256 4.037 1.067-1.252.705-3.141-.837-.35 1.256 1.862.499-1.895 1.066.688 1.162 1.896-1.067-.488 1.823 1.291.332.825-3.072 1.252-.705-1.071 3.943 1.291.332 1.408-5.192c1.525-.859 3.221.138 3.221 1.813l-3.906 3.786.94.924 2.966-2.876v1.41l-2.314 2.234.939.924 1.375-1.324v2.134h1.375v-2.135l1.375 1.324.939-.924-2.314-2.234v-1.41l2.966 2.876.94-.924-3.906-3.786c0-1.694 1.703-2.667 3.221-1.813l1.408 5.192 1.291-.332-1.071-3.943 1.252.705.825 3.072 1.291-.332-.488-1.823 1.896 1.067.687-1.161zm-8.802-4.182l-2.198 1.238-2.198-1.238v-2.475l2.198-1.237 2.198 1.238v2.474z"/></svg>