<svg xmlns="http://www.w3.org/2000/svg" width="24" height="24" viewBox="0 0 24 24"><path d="M12.156.112c-.379.219-.565.712-.297 1.177.217.376.821.56-.02 1.045l-6.993 4.029c-.55.317-.846.919-.846 1.572 0 1.589 1.674 2.777 2.936 2.048l6.829-3.933c.871-.503 1.109-1.721.532-2.721-.128-.222-.286-.415-.464-.575-.259-.232-.366-.59-.279-.927.083-.322.089-.67-.03-1.001-.292-.802-.918-.973-1.368-.714zm.855 4.919l-6.58 3.791c-.332.191-.764.09-1.028-.367-.264-.458-.136-.883.196-1.074l6.581-3.79c.331-.191.763-.09 1.027.367s.136.882-.196 1.073zm.063-4.043c.121.333.059.691-.074.987-.086-.237-.271-.476-.559-.727-.336-.292-.264-.598-.047-.723.194-.111.494-.052.68.463zm-5.841 9.934l1.615 2.799c2.102 3.64-4.627 4.724-2.337 8.689.877 1.52 2.821 2.041 4.341 1.164l7.558-4.364c1.02-.588 1.59-1.657 1.59-2.756 0-.539-.137-1.085-.426-1.585l-4.795-8.303-7.546 4.356zm10.461 7.049l-1.485.857-.001-.002c-.077-.211-.139-.427-.187-.662l-.936.19c.092.451.21.757.284.959l-2.881 1.663c-.202-.196-.734-.521-1.131-.709l-.369.775c.242.116.476.25.695.398l-1.548.894c-.834.481-1.904.195-2.386-.639-.249-.432-.308-.736-.285-.979.292-.143.608-.188 1.215-.192l-.007-.859c-.238.002-.477.019-.713.049.22-.282.491-.574.771-.875 1.16-1.25 2.914-3.137 1.357-5.834l-.9-1.559 5.067-2.925 2.61 4.521c-.258.228-.496.48-.708.752l.753.587c.179-.229.337-.391.444-.493l.979 1.696c.483.834.196 1.905-.638 2.387zm-2.657-1.563l.943.142c-.042.283-.059.571-.049.856l-.954.033c-.011-.343.008-.69.06-1.031zm.618-1.844l.838.455c-.136.25-.249.513-.338.789l-.908-.294c.107-.328.244-.648.408-.95zm-5.121 5.379l-.255.82c-.275-.085-.555-.148-.838-.188l.12-.851c.329.047.656.12.973.219z"/></svg>