<svg xmlns="http://www.w3.org/2000/svg" width="24" height="24" viewBox="0 0 24 24"><path d="M11.389 1.244l-1.389.189 1.011.957-.246 1.36 1.235-.651 1.235.652-.246-1.36 1.011-.958-1.389-.189-.611-1.244-.611 1.244zm-.389 19.756h2v3h-2v-3zm-7-2.485c2.164.988 5.083 1.485 8.003 1.485 2.913 0 5.828-.494 7.997-1.485-2.387-.826-4.337-2.895-4.698-4.334 1.034 0 2.042-.254 2.664-.672-1.966-.945-3.483-2.422-4.033-4.041.513 0 1.527-.212 1.934-.543-1.766-.977-3.178-2.789-3.867-4.396-.689 1.607-2.101 3.419-3.866 4.396.406.331 1.421.543 1.934.543-.551 1.618-2.068 3.095-4.034 4.04.622.417 1.63.672 2.665.672-.363 1.44-2.312 3.508-4.699 4.335z"/></svg>