<svg xmlns="http://www.w3.org/2000/svg" width="24" height="24" viewBox="0 0 24 24"><path d="M10.694 14.276l-5.999 9.724-1.695-1.073 5.99-9.698c.519.417 1.092.768 1.704 1.047zm3.306-14.276c-3.866 0-7.001 3.134-7.001 7 0 3.865 3.135 7 7.001 7 3.865 0 7-3.135 7-7 0-3.866-3.135-7-7-7zm3.593 2.457c1.271 1.007 2.006 2.442 2.162 3.938-.244-1.075-.822-2.091-1.724-2.946-4.535-4.303-11.47 1.183-8.15 6.271.674 1.031 1.781 1.757 3.037 1.988 1.174.217 2.323-.03 3.236-.692 1.164-.845 1.802-2.342 1.628-3.814-.378-3.174-3.993-3.965-5.795-2.166-.849.846-1.086 2.006-.636 3.104.525 1.279 2.01 1.911 3.262 1.238 1.683-.906 1.032-3.284-.611-2.957-.533.105-.688.997.205 1.04.437.021.44.693-.097.982-.678.365-1.483.011-1.776-.706-.287-.699-.141-1.41.401-1.95 1.23-1.228 3.742-.574 3.993 1.539.239 2.012-1.421 3.744-3.619 3.34-.957-.178-1.833-.748-2.341-1.527-2.704-4.144 3.076-8.199 6.532-4.921 2.091 1.984 1.859 4.577.834 6.177-1.575 2.457-4.963 3.342-7.739 1.141-2.508-1.987-2.928-5.631-.94-8.138 1.987-2.508 5.63-2.928 8.138-.941z"/></svg>