<svg xmlns="http://www.w3.org/2000/svg" width="24" height="24" viewBox="0 0 24 24"><path d="M20.441.909c-1.114-.616-2.332-.909-3.534-.909-2.454 0-4.843 1.219-6.155 3.397l-10.448 17.343c-.206.341-.304.714-.304 1.083 0 1.213 1.027 2.177 2.265 2.177.785 0 1.549-.39 1.968-1.086l10.448-17.343c.705-1.17 2.271-1.572 3.492-.896 1.22.675 1.64 2.176.936 3.346l-1.22 2.023c-.625 1.038-.253 2.37.831 2.97 1.082.6 2.473.242 3.098-.796 1.249-2.074 2.182-3.247 2.182-5.411 0-2.351-1.286-4.64-3.559-5.898zm1.614 8.522l-2.267-.154.397-.659c.265-.441.424-.914.481-1.39l1.445.098c.218-1.597-.389-3.23-1.658-4.335l-.791 1.312c-.248-.254-.538-.478-.869-.66-.33-.184-.678-.312-1.032-.392l.791-1.312c-1.676-.516-3.506-.17-4.851.872l.857 1.114c-.376.279-.703.632-.955 1.051l-.424.702-.9-1.171-1.896 3.148.9 1.17-1.198 1.988-.9-1.17-1.824 3.028.9 1.17-1.198 1.987-.9-1.17-1.826 3.03.9 1.17-1.197 1.988-1.327-1.724-.045-.066 9.17-15.221c1.632-2.71 5.261-3.642 8.089-2.077 2.8 1.549 3.778 4.973 2.214 7.67l-.084-.005-.002.008z"/></svg>