<svg xmlns="http://www.w3.org/2000/svg" width="24" height="24" viewBox="0 0 24 24"><path d="M18.332 8.715c-1.656-1.655-2.924-1.902-3.332-3.715h-6c-.408 1.814-1.678 2.061-3.332 3.715-1.62 1.62-2.668 3.858-2.668 6.331 0 4.945 4.055 8.954 9 8.954s9-4.009 9-8.954c0-2.473-1.048-4.711-2.668-6.331zm-11.018 7.11l.358-2.007-1.469-1.413 2.02-.279.889-1.835.89 1.835 2.02.279-1.47 1.413.358 2.007-1.798-.961-1.798.961zm5.911 4.675l-1.312-.703-1.315.703.262-1.466-1.072-1.032 1.474-.204.651-1.34.648 1.34 1.476.204-1.074 1.032.262 1.466zm.191-8.55l.158-.888-.65-.626.894-.124.393-.812.395.812.895.124-.651.626.159.888-.797-.425-.796.425zm3.721 4.553l-1.07-.571-1.067.571.213-1.194-.875-.84 1.202-.166.527-1.091.531 1.091 1.198.166-.871.84.212 1.194zm-2.153-13.944c-1.39 0-1.083-2.559-2.984-2.559-1.859 0-1.641 2.559-2.999 2.559l-.001 1.441h5.984v-1.441zm-2.984.441c-.551 0-1-.448-1-1s.449-1 1-1 1 .448 1 1c0 .551-.449 1-1 1z"/></svg>