<svg xmlns="http://www.w3.org/2000/svg" width="24" height="24" viewBox="0 0 24 24"><path d="M7.231 10.921l1.616 2.799c2.102 3.64-4.627 4.724-2.338 8.689.878 1.52 2.822 2.041 4.342 1.164l7.559-4.364c1.02-.589 1.59-1.657 1.59-2.756 0-.539-.138-1.085-.427-1.586l-4.794-8.304-7.548 4.358zm2.905 11.413c-.834.481-1.904.194-2.386-.64-.283-.491-.321-.818-.271-1.075 1.383-.42 2.894-.033 3.903.996l-1.246.719zm8.197-6.75c.481.834.195 1.905-.639 2.386l-1.651.953c-.655-1.793-.137-3.814 1.29-5.072l1 1.733zm-5.485-15.535c-.229-.083-.48-.061-.693.062-.236.137-.394.378-.419.645-.018.182.025.363.122.532.218.376.821.559-.02 1.044l-6.993 4.072c-.55.317-.845.919-.845 1.572 0 1.579 1.666 2.781 2.935 2.049l6.828-3.976c.871-.503 1.11-1.722.532-2.721l-.059-.096c-.377-.589-.59-1.258-.625-1.958-.008-.151-.036-.302-.09-.45-.182-.504-.466-.699-.673-.775zm.162 4.981l-6.58 3.833c-.331.191-.763.091-1.028-.367-.264-.458-.135-.883.197-1.074l6.58-3.833c.331-.191.763-.09 1.027.367.265.459.136.883-.196 1.074zm.063-4.043c.121.333.059.691-.074.987-.086-.237-.271-.476-.559-.727-.165-.144-.244-.297-.229-.445.011-.114.079-.218.183-.278.053-.03.161-.075.291-.027.157.058.294.232.388.49z"/></svg>