<svg xmlns="http://www.w3.org/2000/svg" width="24" height="24" viewBox="0 0 24 24"><path d="M17.369 0c-2.947 0-4.671 3.478-5.369 5h5.345c3.493 0 3.53-5 .024-5zm-.796 3.621h-2.043c.739-1.121 1.438-1.966 2.342-1.966 1.172 0 1.228 1.966-.299 1.966zm-9.918 1.379h5.345c-.698-1.522-2.422-5-5.369-5-3.506 0-3.469 5 .024 5zm.473-3.345c.903 0 1.603.845 2.342 1.966h-2.043c-1.527 0-1.471-1.966-.299-1.966zm16.872 4.345h-24v6h1.056v12h21.889v-12h1.055v-6zm-13 16h-8v-10h8v10zm0-12h-9v-2h9v2zm2-2h9v2h-9v-2zm8 14h-8v-10h8v10z"/></svg>