<svg xmlns="http://www.w3.org/2000/svg" width="24" height="24" viewBox="0 0 24 24"><path d="M14 0c-3.866 0-7 3.134-7 7 0 3.865 3.134 7 7 7 3.865 0 7-3.135 7-7 0-3.866-3.135-7-7-7zm-4.496 10.654c1.657-2.508 2.824-3.012 4.496-3.654-1.532-.407-3.117-.731-5.766.579-.081-.823.011-1.666.286-2.466 2.979-.081 4.272.877 5.48 1.887-.454-1.674-.821-2.877-3.237-4.807.648-.438 1.376-.738 2.146-.884 1.564 2.516 1.411 4.147 1.091 5.691 1.156-1.095 2.225-2.354 2.396-5.278.789.358 1.514.905 2.1 1.623-1.656 2.507-2.821 3.011-4.496 3.655 1.532.406 3.117.73 5.765-.58.081.82-.009 1.663-.285 2.466-2.979.081-4.272-.876-5.48-1.886.463 1.707.845 2.896 3.236 4.807-.648.438-1.375.738-2.146.884-1.564-2.517-1.411-4.147-1.09-5.691-1.157 1.094-2.225 2.354-2.396 5.278-.789-.358-1.514-.905-2.1-1.624zm1.19 3.622l-5.999 9.724-1.695-1.073 5.99-9.698c.519.417 1.092.768 1.704 1.047z"/></svg>