<svg xmlns="http://www.w3.org/2000/svg" width="24" height="24" viewBox="0 0 24 24"><path d="M3.375 4.293c-.492-.678.525-1.422 1.015-.747.363.5.957.865 1.622 1.037-.693-1.084-1.104-2.259-1.522-3.601-.31-.999 1.115-1.405 1.427-.405.246.793.483 1.505.782 2.163.354-.496.457-.989.428-1.896-.027-.844 1.231-.871 1.257-.04.041 1.266-.29 2.134-.616 2.634-.228.35-.2.811.071 1.129.764.897 1.71 1.598 1.846 1.707-.566.135-1.085.325-1.6.558-.169-.136-.396-.32-.548-.458-.279-.251-.706-.334-1.079-.362-1.213-.089-2.35-.708-3.083-1.719zm6.912 9.078c-.167-.708-.771-1.17-1.348-1.033-.579.138-.913.823-.746 1.531s.77 1.17 1.348 1.033c.578-.138.912-.823.746-1.531zm4.285-7.098c.565.136 1.085.326 1.6.559.169-.136.396-.32.548-.458.279-.252.705-.335 1.079-.362 1.213-.089 2.35-.708 3.083-1.719.492-.678-.526-1.422-1.017-.747-.362.5-.956.865-1.621 1.037.693-1.085 1.104-2.26 1.521-3.602.311-.999-1.115-1.405-1.426-.405-.247.792-.484 1.505-.782 2.163-.354-.496-.458-.989-.428-1.896.028-.843-1.23-.87-1.257-.039-.041 1.266.291 2.134.617 2.634.228.35.2.811-.071 1.129-.763.897-1.71 1.598-1.846 1.706zm-9.88 3.549c.269.79 1.41 1.17 1.922.862-.351-.575-1.126-.974-1.922-.862zm10.37 2.515c-.578-.137-1.182.325-1.348 1.033s.167 1.393.746 1.531c.578.138 1.182-.325 1.348-1.033s-.168-1.393-.746-1.531zm7.938-4.323c-.396 2.576-2.524 4.355-4.109 4.671-.184 6.153-2.671 11.315-6.891 11.315s-6.707-5.162-6.891-11.315c-1.585-.316-3.713-2.095-4.109-4.671 1.985-.78 4.176-.78 6.016.346 1.053-.74 2.905-1.574 4.984-1.574s3.931.834 4.984 1.574c1.84-1.127 4.031-1.127 6.016-.346zm-1.719.944c-2.234-.417-3.866.652-4.349 1.06-.92-.646-2.514-1.842-4.932-1.842s-4.012 1.196-4.932 1.842c-.483-.408-2.115-1.477-4.349-1.06.535 1.144 1.796 2.513 3.738 2.578.042 1.39.033 5.347 1.783 8.424.84 1.475 2.057 2.65 3.76 2.65s2.92-1.176 3.76-2.65c1.75-3.077 1.741-7.034 1.783-8.424 1.942-.065 3.203-1.434 3.738-2.578zm-3.896 1.726c.512.308 1.654-.073 1.922-.862-.795-.112-1.57.287-1.922.862zm-5.385 9.997c-2.286 0-3.715-2.938-1.354-2.938h2.707c2.362 0 .933 2.938-1.353 2.938zm-.197-2.094h-.837c-.73 0-.288.909.418.909s1.149-.909.419-.909z"/></svg>