<svg xmlns="http://www.w3.org/2000/svg" width="24" height="24" viewBox="0 0 24 24"><path d="M11.053 10.424c-.487.808-1.525 1.107-2.318.67-.792-.438-1.04-1.447-.552-2.256.488-.808 1.526-1.107 2.318-.67s1.04 1.447.552 2.256zm4.574-.69l-3.56-.484c.054.511-.056 1.051-.351 1.54-.712 1.18-2.232 1.619-3.389.979-1.157-.638-1.519-2.118-.807-3.297.295-.488.729-.85 1.219-1.061l-2.219-2.707c-.333-.406-.995-.335-1.28.137l-2.498 4.14c-.285.473-.017 1.057.517 1.128l2.734.366c-.769.727-2.432 1.601-3.11 1.823l1.681.703-.204 1.543c1.206-.316 2.736-1.233 3.592-2.154-.404 1.17-.47 2.896-.154 4.054l1.294-.94 1.477 1.042c-.137-.673-.178-2.487.096-3.488l1.698 2.082c.332.407.994.337 1.279-.136l2.499-4.14c.287-.473.021-1.056-.514-1.13zm-9.183 5.157c-1.101.573-1.665.667-3.266 1.088l-2.874 4.761c-.206.341-.304.714-.304 1.083 0 .751.407 1.483 1.136 1.886.356.197.747.291 1.132.291.786 0 1.552-.391 1.972-1.087l2.861-4.741c-.423-1.548-.625-2.078-.657-3.281zm-3.726 4.232l1.2-1.987 1.33 1.724-1.2 1.988-1.33-1.725zm14.218-19.123c-2.458 0-4.851 1.219-6.165 3.397l-1.601 2.653.618.754c.453.011.906.126 1.322.355s.747.548.983.917l1.018.139 1.596-2.644c.706-1.17 2.274-1.572 3.497-.896 1.223.675 1.643 2.176.937 3.346l-1.221 2.023c-.627 1.038-.254 2.37.832 2.97 1.085.6 2.478.242 3.104-.796 1.247-2.067 2.144-3.242 2.144-5.41 0-3.78-3.17-6.808-7.064-6.808zm-3.309 4.975l-.424.702-1.329-1.723c.396-.644.906-1.184 1.491-1.61l1.219 1.58c-.376.28-.704.632-.957 1.051zm6.071-.672c-.249-.254-.54-.478-.871-.661-.331-.183-.679-.312-1.033-.391l1.055-1.748c.343.114.68.259 1.004.438.326.18.625.387.9.613l-1.055 1.749zm.124 4.972l.398-.659c.266-.44.424-.913.482-1.39l2.048.14c-.075.704-.29 1.405-.658 2.064l-2.27-.155z"/></svg>