<svg xmlns="http://www.w3.org/2000/svg" width="24" height="24" viewBox="0 0 24 24"><path d="M13.5 17.51c0 .828-.672 1.5-1.5 1.5s-1.5-.672-1.5-1.5.672-1.5 1.5-1.5 1.5.672 1.5 1.5zm3.771-2.51c-.085 0-.172.016-.258.047l-2.921 1.1c.256.393.408.859.408 1.363 0 1.379-1.121 2.5-2.5 2.5s-2.5-1.121-2.5-2.5c0-.504.152-.972.41-1.365l-2.923-1.098c-.086-.031-.173-.047-.258-.047-.385 0-.729.312-.729.732v4.479c0 .512.512.865.989.684l2.438-.928c-.272.935-1.21 2.389-1.658 2.873l1.738-.183.6 1.343c.838-.798 1.644-2.227 1.893-3.357.249 1.131 1.055 2.56 1.893 3.357l.6-1.343 1.738.183c-.448-.484-1.386-1.938-1.658-2.873l2.438.928c.477.181.989-.172.989-.684v-4.479c0-.42-.344-.732-.729-.732zm-5.271-15c-6.075 0-11 4.925-11 11 0 3.416 1.557 6.468 4 8.485v-3.753c0-.955.775-1.732 1.729-1.732l.087.008c-.515-.886-.816-1.911-.816-3.008 0-3.309 2.691-6 6-6s6 2.691 6 6c0 1.101-.303 2.129-.822 3.017l.093-.017c.954 0 1.729.777 1.729 1.732v3.753c2.443-2.018 4-5.069 4-8.485 0-6.075-4.925-11-11-11zm-8.065 7.922c.294 0 .532.238.532.533 0 .293-.238.531-.532.531s-.533-.238-.533-.531c0-.295.239-.533.533-.533zm.444 4.808l-.764-.41-.765.41.152-.854-.624-.602.858-.117.378-.781.378.781.858.117-.625.602.154.854zm1.892-6.121l-.763-.408-.765.408.152-.854-.625-.6.86-.118.378-.779.378.779.858.119-.625.6.152.853zm13.859 1.313c.294 0 .532.238.532.533 0 .293-.238.531-.532.531-.293 0-.531-.238-.531-.531 0-.295.238-.533.531-.533zm-11.668-3.959c-.294 0-.532-.238-.532-.533 0-.293.238-.531.532-.531s.532.238.532.531c0 .295-.238.533-.532.533zm4.41-.342l-.764-.408-.765.408.152-.854-.624-.6.858-.119.378-.779.378.779.858.119-.625.6.154.854zm2.853.342c-.294 0-.532-.238-.532-.533 0-.293.238-.531.532-.531.293 0 .531.238.531.531 0 .295-.238.533-.531.533zm2.74 2.238l-.764.408.152-.854-.625-.6.858-.119.378-.779.378.779.858.119-.624.6.152.854-.763-.408zm1.982 6.119l-.765.41.153-.854-.625-.602.858-.117.378-.781.378.781.858.117-.625.602.153.854-.763-.41z"/></svg>