<svg xmlns="http://www.w3.org/2000/svg" width="24" height="24" viewBox="0 0 24 24"><path d="M18.332 8.715c-1.656-1.655-2.924-1.902-3.332-3.715h-6c-.408 1.814-1.678 2.061-3.332 3.715-1.62 1.62-2.668 3.858-2.668 6.331 0 4.945 4.055 8.954 9 8.954s9-4.009 9-8.954c0-2.473-1.048-4.711-2.668-6.331zm.642 6.799c-1.442-1.477-3.645-2.391-5.698-3.225-2.822-1.147-4.73-1.97-4.557-3.471.979-.521 2.094-.818 3.281-.818 4.028 0 7.279 3.408 6.974 7.514zm-8.493-.082c-2.069-.841-4.024-1.636-4.474-2.742-.385-.946.214-1.751.89-2.472.744 2.03 3.374 3.034 5.62 3.946 2.457.998 4.978 2.028 5.771 3.897-.315.646-.725 1.237-1.215 1.752-1.264-2.202-4.048-3.348-6.592-4.381zm-5.468-.693c1.103 1.1 2.868 1.82 4.713 2.569 2.406.977 4.874 1.985 5.719 3.782-1.018.577-2.192.91-3.445.91-3.85 0-7.125-3.147-6.987-7.261zm9.971-12.18c-1.39 0-1.083-2.559-2.984-2.559-1.859 0-1.641 2.559-2.999 2.559l-.001 1.441h5.984v-1.441zm-2.984.441c-.551 0-1-.448-1-1s.449-1 1-1 1 .448 1 1c0 .551-.449 1-1 1z"/></svg>