<svg xmlns="http://www.w3.org/2000/svg" width="24" height="24" viewBox="0 0 24 24"><path d="M12 2c5.514 0 10 4.486 10 10s-4.486 10-10 10-10-4.486-10-10 4.486-10 10-10zm0-2c-6.627 0-12 5.373-12 12s5.373 12 12 12 12-5.373 12-12-5.373-12-12-12zm-4.551 8.09c1.214-1.414 2.881-2.09 4.535-2.09 2.145 0 4.267 1.136 5.358 3.277h-4.646c-.837 0-1.378-.019-1.964.29-.687.362-1.207 1.034-1.388 1.823l-1.895-3.3zm2.555 3.91c0 1.1.895 1.995 1.993 1.995 1.101 0 1.995-.895 1.995-1.995s-.895-1.996-1.995-1.996c-1.099 0-1.993.896-1.993 1.996zm2.767 2.612c-1.119.333-2.428-.037-3.146-1.274-.547-.946-1.994-3.467-2.652-4.613-.665 1.02-.973 2.146-.973 3.253 0 2.724 1.863 5.325 4.837 5.909l1.934-3.275zm1.079-4.608c.933.867 1.136 2.271.504 3.359-.476.82-1.993 3.384-2.73 4.625 3.595.221 6.376-2.68 6.376-5.986 0-.657-.109-1.33-.346-1.998h-3.804z"/></svg>