<svg xmlns="http://www.w3.org/2000/svg" width="24" height="24" viewBox="0 0 24 24"><path d="M12 0c-6.627 0-12 5.373-12 12s5.373 12 12 12 12-5.373 12-12-5.373-12-12-12zm-.019 5c2.502 0 4.979 1.326 6.252 3.823h-5.421c-.977 0-1.607-.022-2.291.337-.801.422-1.408 1.206-1.619 2.126l-2.212-3.847c1.417-1.65 3.362-2.439 5.291-2.439zm2.343 7c0 1.284-1.044 2.328-2.327 2.328-1.282 0-2.326-1.044-2.326-2.328 0-1.283 1.044-2.328 2.326-2.328 1.283 0 2.327 1.045 2.327 2.328zm-9.324-.025c0-1.292.359-2.606 1.135-3.796.768 1.337 2.456 4.278 3.095 5.381.838 1.444 2.365 1.875 3.671 1.487l-2.258 3.822c-3.469-.682-5.643-3.717-5.643-6.894zm6.561 7.011c.859-1.448 2.631-4.438 3.186-5.395.736-1.27.5-2.908-.588-3.919h4.438c.275.779.403 1.564.403 2.33 0 3.857-3.245 7.243-7.439 6.984z"/></svg>