<svg xmlns="http://www.w3.org/2000/svg" width="24" height="24" viewBox="0 0 24 24"><path d="M4.262 18.324l-1.42 1.42c-1.77-2.09-2.842-4.79-2.842-7.744s1.072-5.654 2.841-7.745l1.42 1.42c-1.411 1.725-2.261 3.928-2.261 6.325s.85 4.6 2.262 6.324zm17.738-6.324c0 2.397-.85 4.6-2.262 6.324l1.42 1.42c1.77-2.09 2.842-4.79 2.842-7.744s-1.072-5.654-2.842-7.745l-1.42 1.42c1.412 1.725 2.262 3.928 2.262 6.325zm-16.324-7.738c1.724-1.412 3.927-2.262 6.324-2.262s4.6.85 6.324 2.262l1.42-1.42c-2.091-1.77-4.791-2.842-7.744-2.842-2.954 0-5.654 1.072-7.744 2.842l1.42 1.42zm12.648 15.476c-1.724 1.412-3.927 2.262-6.324 2.262s-4.6-.85-6.324-2.262l-1.42 1.42c2.09 1.77 4.79 2.842 7.744 2.842 2.953 0 5.653-1.072 7.744-2.842l-1.42-1.42z"/></svg>