<svg xmlns="http://www.w3.org/2000/svg" width="24" height="24" viewBox="0 0 24 24"><path d="M1.341 6.502c1.11-2.157 2.877-3.984 5.162-5.16l.766 1.848c-1.779.954-3.169 2.393-4.074 4.081l-1.854-.769zm5.93 14.302c-1.688-.904-3.126-2.294-4.08-4.074l-1.848.765c1.175 2.286 3.002 4.054 5.16 5.165l.768-1.856zm-4.845-5.921c-.584-1.932-.549-3.932.005-5.765l-1.856-.768c-.739 2.311-.782 4.852.003 7.299l1.848-.766zm5.925-14.306l.766 1.848c1.932-.583 3.933-.549 5.765.005l.77-1.855c-2.313-.74-4.853-.782-7.301.002zm8.378 2.619c1.688.905 3.126 2.294 4.079 4.073l1.848-.766c-1.176-2.285-3.002-4.052-5.159-5.163l-.768 1.856zm4.845 5.919c.584 1.933.549 3.933-.005 5.766l1.855.769c.74-2.311.782-4.853-.003-7.301l-1.847.766zm-.77 7.614c-.904 1.688-2.294 3.126-4.072 4.08l.766 1.848c2.285-1.176 4.052-3.003 5.162-5.16l-1.856-.768zm-5.92 4.845c-1.933.584-3.933.549-5.766-.005l-.77 1.856c2.312.739 4.853.782 7.301-.002l-.765-1.849z"/></svg>