<svg xmlns="http://www.w3.org/2000/svg" width="24" height="24" viewBox="0 0 24 24"><path d="M19.479 10.092c-.212-3.951-3.473-7.092-7.479-7.092s-7.267 3.141-7.479 7.092c-2.57.463-4.521 2.706-4.521 5.408 0 3.037 2.463 5.5 5.5 5.5h13c3.037 0 5.5-2.463 5.5-5.5 0-2.702-1.951-4.945-4.521-5.408zm-4.479 4.494c-.003 1.132-.852 1.687-1.629 1.687-.657 0-1.28-.396-1.28-1.175 0-.9.827-1.719 1.909-1.506v-2.135l-3 .894v2.963c0 1.13-.949 1.686-1.732 1.686-.661 0-1.268-.395-1.268-1.172 0-.902.917-1.724 2-1.51v-3.741l5-1.305v5.314z"/></svg>