<svg xmlns="http://www.w3.org/2000/svg" width="24" height="24" viewBox="0 0 24 24"><path d="M15 8c-3.004 0-5.45 2.268-5.609 5.123-1.928.333-3.391 1.954-3.391 3.905 0 2.193 1.848 3.972 4.125 3.972h9.75c2.277 0 4.125-1.779 4.125-3.972 0-1.951-1.463-3.572-3.391-3.905-.159-2.855-2.605-5.123-5.609-5.123zm-10.899 7.998c-2.266-.014-4.101-1.785-4.101-3.97 0-1.951 1.463-3.572 3.391-3.905.159-2.855 2.605-5.123 5.609-5.123 2.235 0 4.158 1.258 5.063 3.078-.702.084-1.371.261-2.002.52-.535-.886-1.464-1.598-3.061-1.598-3.872 0-3.828 4.025-3.701 4.822-1.064.055-3.299.265-3.299 2.206 0 1.087.953 1.972 2.125 1.972h.734c-.368.608-.63 1.28-.758 1.998z"/></svg>