<svg xmlns="http://www.w3.org/2000/svg" width="24" height="24" viewBox="0 0 24 24"><path d="M12 5c3.453 0 5.891 2.797 5.567 6.78 1.745-.046 4.433.751 4.433 3.72 0 1.93-1.57 3.5-3.5 3.5h-13c-1.93 0-3.5-1.57-3.5-3.5 0-2.797 2.479-3.833 4.433-3.72-.167-4.218 2.208-6.78 5.567-6.78zm0-2c-4.006 0-7.267 3.141-7.479 7.092-2.57.463-4.521 2.706-4.521 5.408 0 3.037 2.463 5.5 5.5 5.5h13c3.037 0 5.5-2.463 5.5-5.5 0-2.702-1.951-4.945-4.521-5.408-.212-3.951-3.473-7.092-7.479-7.092zm-.773 13.911c1.806-3.239 3.061-4.904 4.773-6.398l-.224-.513c-2.076 1.292-3.193 2.266-4.885 4.185-.899-.641-1.407-.936-2.207-1.323l-.684.632c1.368 1.269 2.112 2.105 3.227 3.417z"/></svg>