<svg xmlns="http://www.w3.org/2000/svg" width="24" height="24" viewBox="0 0 24 24"><path d="M12 5c3.453 0 5.891 2.797 5.567 6.78 1.745-.046 4.433.751 4.433 3.72 0 1.93-1.57 3.5-3.5 3.5h-13c-1.93 0-3.5-1.57-3.5-3.5 0-2.797 2.479-3.833 4.433-3.72-.167-4.218 2.208-6.78 5.567-6.78zm0-2c-4.006 0-7.267 3.141-7.479 7.092-2.57.463-4.521 2.706-4.521 5.408 0 3.037 2.463 5.5 5.5 5.5h13c3.037 0 5.5-2.463 5.5-5.5 0-2.702-1.951-4.945-4.521-5.408-.212-3.951-3.473-7.092-7.479-7.092zm3 6.272l-5 1.305v3.741c-1.083-.213-2 .608-2 1.51 0 .777.607 1.172 1.268 1.172.783 0 1.732-.556 1.732-1.688v-2.962l3-.894v2.135c-1.082-.213-1.909.605-1.909 1.506 0 .779.623 1.175 1.28 1.175.777 0 1.626-.555 1.629-1.687v-5.313z"/></svg>