<svg xmlns="http://www.w3.org/2000/svg" width="24" height="24" viewBox="0 0 24 24"><path d="M19.479 10.092c-.212-3.951-3.473-7.092-7.479-7.092s-7.267 3.141-7.479 7.092c-2.57.463-4.521 2.706-4.521 5.408 0 3.037 2.463 5.5 5.5 5.5h13c3.037 0 5.5-2.463 5.5-5.5 0-2.702-1.951-4.945-4.521-5.408zm-.979 8.908h-13c-1.93 0-3.5-1.57-3.5-3.5 0-2.797 2.479-3.833 4.433-3.72-.167-4.218 2.208-6.78 5.567-6.78 3.453 0 5.891 2.797 5.567 6.78 1.745-.046 4.433.751 4.433 3.72 0 1.93-1.57 3.5-3.5 3.5zm-4.151-2h-2.77l3-3h2.77l-3 3zm-4.697-3h2.806l-3 3h-2.806l3-3zm10.348 1.5c0 .829-.672 1.5-1.5 1.5h-2.03l2.788-2.788c.442.261.742.737.742 1.288zm-16 0c0-.829.672-1.5 1.5-1.5h2.031l-2.788 2.788c-.442-.261-.743-.737-.743-1.288z"/></svg>