<svg xmlns="http://www.w3.org/2000/svg" width="24" height="24" viewBox="0 0 24 24"><path d="M8.793 9.951c.338-.241.719-.353 1.094-.353.798 0 1.565.507 1.818 1.353-.324-.249-.702-.37-1.084-.37-.386 0-.776.125-1.116.367-.677.482-.976 1.303-.716 2.082-1.05-.753-1.055-2.323.004-3.079zm3.164 10.8c.841.283 3.443 1.004 6.458 3.249l5.585-3.983c-1.448-2.031-1.05-3.452-2.489-5.471-.726-1.017-1.222-1.294-1.845-1.294-.22 0-.456.035-.724.084l.507.71c.22.308-.052.631-.335.631-.111 0-.225-.05-.311-.171l-.452-.634c-.149-.21-.357-.281-.596-.281-.345 0-.753.148-1.141.237l.615.862c.218.307-.053.631-.336.631-.111 0-.224-.05-.31-.171l-.533-.747c-.148-.208-.353-.28-.586-.28-.359 0-.787.17-1.186.271l.65.912c.22.308-.052.631-.336.631-.111 0-.225-.05-.311-.17l-2.638-3.693c-.231-.325-.542-.46-.848-.46-.774 0-1.524.868-.917 1.72l3.895 5.461c-.418-.154-1.152-.295-1.632-.295-1.48.001-2.05 1.625-.184 2.251zm-1.841-3.644l-.79-1.107h-3.826c-1.93 0-3.5-1.57-3.5-3.5 0-2.797 2.479-3.833 4.433-3.72-.167-4.218 2.208-6.78 5.567-6.78 3.453 0 5.891 2.797 5.567 6.78 1.664-.044 4.179.683 4.41 3.323.469.384.85.844 1.161 1.281.219.307.401.604.562.893.191-.559.3-1.155.3-1.778 0-2.702-1.951-4.945-4.521-5.408-.212-3.95-3.473-7.091-7.479-7.091s-7.267 3.141-7.479 7.092c-2.57.463-4.521 2.706-4.521 5.408 0 3.037 2.463 5.5 5.5 5.5h3.742c.226-.349.522-.653.874-.893z"/></svg>