<svg xmlns="http://www.w3.org/2000/svg" width="24" height="24" viewBox="0 0 24 24"><path d="M14.82 21h-9.32c-3.037 0-5.5-2.463-5.5-5.5 0-2.702 1.951-4.945 4.521-5.408.212-3.951 3.473-7.092 7.479-7.092 3.975 0 7.212 3.093 7.47 7.001-.667.003-1.309.106-1.914.296-.315-3.176-2.55-5.297-5.556-5.297-3.359 0-5.734 2.562-5.567 6.78-1.954-.113-4.433.923-4.433 3.72 0 1.93 1.57 3.5 3.5 3.5h8.001c.313.749.765 1.424 1.319 2zm9.18-4.5c0 2.485-2.017 4.5-4.5 4.5s-4.5-2.015-4.5-4.5 2.017-4.5 4.5-4.5 4.5 2.015 4.5 4.5zm-2-.5h-2v-2h-1v2h-2v1h2v2h1v-2h2v-1z"/></svg>