<svg width="24" height="24" xmlns="http://www.w3.org/2000/svg" fill-rule="evenodd" clip-rule="evenodd"><path d="M14.812 20.171c-.791.523-1.738.829-2.757.829-2.76 0-5-2.24-5-5s2.24-5 5-5 5 2.24 5 5c0 1.019-.306 1.966-.829 2.757l2.829 2.829-1.414 1.414-2.829-2.829zm-9.083-1.171c-3.528 0-5.729-2.65-5.729-5.5 0-2.702 1.952-4.945 4.521-5.408.212-3.951 3.474-7.092 7.479-7.092 4.006 0 7.267 3.141 7.479 7.092 2.57.463 4.521 2.706 4.521 5.408 0 2.881-2.261 5.5-5.62 5.5.433-.909.675-1.927.675-3 0-3.863-3.137-7-7-7-3.864 0-7 3.137-7 7 0 1.073.242 2.091.674 3m6.326-6c1.655 0 3 1.345 3 3s-1.345 3-3 3c-1.656 0-3-1.345-3-3s1.344-3 3-3"/></svg>