<svg xmlns="http://www.w3.org/2000/svg" width="24" height="24" viewBox="0 0 24 24"><path d="M15 10c3.753 0 3.844 3.922 3.701 4.822 1.033.053 3.299.246 3.299 2.206 0 1.087-.953 1.972-2.125 1.972h-9.75c-1.172 0-2.125-.885-2.125-1.972 0-1.94 2.235-2.151 3.299-2.206-.127-.797-.171-4.822 3.701-4.822zm0-2c-3.004 0-5.45 2.268-5.609 5.123-1.928.333-3.391 1.954-3.391 3.905 0 2.193 1.848 3.972 4.125 3.972h9.75c2.277 0 4.125-1.779 4.125-3.972 0-1.951-1.463-3.572-3.391-3.905-.159-2.855-2.605-5.123-5.609-5.123zm-7.382 3.58c.766-2.932 3.325-5.126 6.445-5.502-.905-1.82-2.828-3.078-5.063-3.078-3.004 0-5.45 2.268-5.609 5.123-1.928.333-3.391 1.954-3.391 3.905 0 2.185 1.835 3.957 4.101 3.97.349-1.959 1.671-3.615 3.517-4.418z"/></svg>