<svg xmlns="http://www.w3.org/2000/svg" width="24" height="24" viewBox="0 0 24 24"><path d="M19 5.816v3.184h2v-3.184c1.162-.413 2-1.511 2-2.816 0-1.657-1.344-3-3-3s-3 1.343-3 3c0 1.305.838 2.403 2 2.816zm1-4.616c.992 0 1.8.807 1.8 1.8s-.808 1.8-1.8 1.8-1.8-.807-1.8-1.8.808-1.8 1.8-1.8zm-10 17.8h-3c-1.104 0-2-.897-2-2v-11.184c1.162-.413 2-1.511 2-2.816 0-1.657-1.343-3-3-3s-3 1.343-3 3c0 1.305.838 2.403 2 2.816v11.184c0 2.206 1.795 4 4 4h3v3l4-4-4-4v3zm-6-14.2c-.992 0-1.8-.807-1.8-1.8s.808-1.8 1.8-1.8 1.8.807 1.8 1.8-.808 1.8-1.8 1.8zm17 12.384v-3.184h-2v3.184c-1.162.414-2 1.512-2 2.816 0 1.657 1.344 3 3 3s3-1.343 3-3c0-1.305-.838-2.403-2-2.816zm-1 4.616c-.992 0-1.8-.807-1.8-1.8s.808-1.8 1.8-1.8 1.8.807 1.8 1.8-.808 1.8-1.8 1.8zm-1-11.8h2v3h-2v-3z"/></svg>