<svg xmlns="http://www.w3.org/2000/svg" width="24" height="24" viewBox="0 0 24 24"><path d="M20 3v-1c0-1.104-.896-2-2-2s-2 .896-2 2v1h-1v4h6v-4h-1zm-3-1c0-.551.448-1 1-1s1 .449 1 1v1h-2v-1zm-.519 7c-.821 1.452-2.448 1.806-4.429 2.223-1.71.36-3.642.775-5.053 2.085v-7.492c1.164-.413 2.001-1.511 2.001-2.816 0-1.657-1.343-3-3-3s-3 1.343-3 3c0 1.305.837 2.403 2 2.816v12.367c-1.163.414-2 1.512-2 2.817 0 1.657 1.343 3 3 3s3-1.343 3-3c0-1.295-.824-2.388-1.973-2.808.27-3.922 2.57-4.408 5.438-5.012 2.373-.5 5.165-1.111 6.183-4.18h-2.167zm-12.281-6c0-.993.807-1.8 1.8-1.8s1.8.807 1.8 1.8-.807 1.8-1.8 1.8-1.8-.807-1.8-1.8zm3.6 18c0 .993-.807 1.8-1.8 1.8s-1.8-.807-1.8-1.8.807-1.8 1.8-1.8 1.8.807 1.8 1.8z"/></svg>