<svg xmlns="http://www.w3.org/2000/svg" width="24" height="24" viewBox="0 0 24 24"><path d="M21 2v2h-6v-2h6zm-3.949 4c.102 4.132-2.063 4.605-4.998 5.223-1.71.36-3.643.775-5.053 2.085v-7.492c1.162-.413 2-1.511 2-2.816 0-1.657-1.343-3-3-3s-3 1.343-3 3c0 1.305.838 2.403 2 2.816v12.367c-1.162.414-2 1.512-2 2.817 0 1.657 1.343 3 3 3s3-1.343 3-3c0-1.295-.824-2.388-1.973-2.808.27-3.922 2.57-4.408 5.438-5.012 3.002-.633 6.68-1.432 6.576-7.18h-1.99zm-12.851-3c0-.993.808-1.8 1.8-1.8s1.8.807 1.8 1.8-.808 1.8-1.8 1.8-1.8-.807-1.8-1.8zm3.6 18c0 .993-.808 1.8-1.8 1.8s-1.8-.807-1.8-1.8.808-1.8 1.8-1.8 1.8.807 1.8 1.8z"/></svg>