<svg xmlns="http://www.w3.org/2000/svg" width="24" height="24" viewBox="0 0 24 24"><path d="M13.229 16.77c0 .679-.549 1.23-1.229 1.23-.678 0-1.229-.551-1.229-1.23 0-.678.551-1.229 1.229-1.229.68 0 1.229.551 1.229 1.229zm1.369-9.831c-.598-.605-1.489-.939-2.507-.939-2.144 0-3.53 1.524-3.53 3.884h1.977c0-1.461.815-1.979 1.513-1.979.623 0 1.284.414 1.34 1.206.062.833-.382 1.255-.945 1.791-1.389 1.32-1.415 1.96-1.407 3.41h1.971c-.012-.653.03-1.183.918-2.142.666-.718 1.494-1.611 1.511-2.972.01-.909-.28-1.691-.841-2.259zm-7.598 7.351l-4.64-2.29 4.64-2.295v-2.225l-7 3.455v2.131l7 3.454v-2.23zm10-6.81v2.224l4.64 2.296-4.64 2.29v2.23l7-3.454v-2.131l-7-3.455z"/></svg>