<svg xmlns="http://www.w3.org/2000/svg" width="24" height="24" viewBox="0 0 24 24"><path d="M21 4h-2v2h-2v-2h-2v-2h2v-2h2v2h2v2zm-4.13 4c-.577 2.317-2.445 2.723-4.817 3.223-1.71.36-3.643.775-5.053 2.085v-7.492c1.162-.413 2-1.511 2-2.816 0-1.657-1.343-3-3-3s-3 1.343-3 3c0 1.305.838 2.403 2 2.816v12.367c-1.162.414-2 1.512-2 2.817 0 1.657 1.343 3 3 3s3-1.343 3-3c0-1.295-.824-2.388-1.973-2.808.27-3.922 2.57-4.408 5.438-5.012 2.611-.55 5.733-1.23 6.435-5.18h-2.03zm-12.67-5c0-.993.808-1.8 1.8-1.8s1.8.807 1.8 1.8-.808 1.8-1.8 1.8-1.8-.807-1.8-1.8zm3.6 18c0 .993-.808 1.8-1.8 1.8s-1.8-.807-1.8-1.8.808-1.8 1.8-1.8 1.8.807 1.8 1.8z"/></svg>