<svg xmlns="http://www.w3.org/2000/svg" width="24" height="24" viewBox="0 0 24 24"><path d="M10.491 0c-1.097 2.955 4.621 2.729-.117 6.999 1.526-3.097-3.666-3.182.117-6.999zm-2.897 7c3.154-2.825-.664-3.102.087-5.099-2.642 2.787.95 2.859-.087 5.099zm10.494 3c-.051.688-.114 1.355-.191 2h1.707c-.51 1.822-1.246 3.331-2.539 4.677-.283 1.173-.601 2.25-.939 3.229 3.261-2.167 5.555-6.389 5.874-9.906h-3.912zm-1.088-2c-.256 7.504-2.188 12.781-4 16h-7c-1.857-3.32-3.742-8.431-4-16h15zm-12.885 2c.138 1.75.376 3.417.71 5h9.335c.318-1.5.576-3.154.724-5h-10.769z"/></svg>