<svg xmlns="http://www.w3.org/2000/svg" width="24" height="24" viewBox="0 0 24 24"><path d="M14.884 10c-.438 5.493-1.803 9.418-3.087 12h-4.592c-1.693-3.396-2.729-7.419-3.09-12h10.769zm2.116-2h-15c.258 7.569 2.143 12.68 4 16h7c1.812-3.219 3.744-8.496 4-16zm1.088 2c-.051.688-.114 1.355-.191 2h1.707c-.51 1.822-1.246 3.331-2.539 4.677-.283 1.173-.601 2.25-.939 3.229 3.261-2.167 5.555-6.389 5.874-9.906h-3.912zm-13.088-6.246c1.923 5.334 5.503 1.038 8.518 3.246-2.068-4.773-5.566-.63-8.518-3.246zm.803-2.754c.699 4.52 3.954.685 7.143 3.085-1.884-4.504-4.675-.796-7.143-3.085z"/></svg>