<svg xmlns="http://www.w3.org/2000/svg" width="24" height="24" viewBox="0 0 24 24"><path d="M7.681 1.901c-.751 1.997 3.067 2.274-.087 5.099 1.037-2.24-2.555-2.312.087-5.099zm2.693 5.098c4.737-4.27-.98-4.044.117-6.999-3.783 3.817 1.409 3.902-.117 6.999zm7.745 3.001c-.057.701-.141 1.367-.252 2h1.549c-.449 1.29-1.5 2.478-2.299 2.914-.358 1.038-.787 1.981-1.26 2.852 3.275-1.143 5.847-4.509 6.143-7.766h-3.881zm-12.119 10c-2.174-3.004-4-6.284-4-12h15c0 5.667-1.88 9.089-4 12h-7zm-1.911-10c.143 1.542.455 2.845.865 4h9.085c.428-1.196.733-2.5.872-4h-10.822zm-2.089 14h15v-2h-15v2z"/></svg>