<svg xmlns="http://www.w3.org/2000/svg" width="24" height="24" viewBox="0 0 24 24"><path d="M14.884 10c-.439 5.493-1.803 9.418-3.087 12h-4.592c-1.692-3.396-2.728-7.419-3.09-12h10.769zm2.116-2h-15c.258 7.569 2.143 12.68 4 16h7c1.812-3.219 3.745-8.496 4-16zm1.088 2c-.051.688-.115 1.355-.192 2h1.707c-.51 1.822-1.246 3.331-2.539 4.677-.283 1.173-.601 2.25-.939 3.229 3.261-2.167 5.556-6.389 5.875-9.906h-3.912zm-7.714-3.001c4.737-4.27-.98-4.044.117-6.999-3.783 3.817 1.409 3.902-.117 6.999zm-2.78.001c3.154-2.825-.664-3.102.087-5.099-2.642 2.787.95 2.859-.087 5.099z"/></svg>