<svg xmlns="http://www.w3.org/2000/svg" width="24" height="24" viewBox="0 0 24 24"><path d="M10.49 0c-1.096 2.955 4.621 2.729-.116 6.999 1.526-3.097-3.665-3.182.116-6.999zm10.883 12.81c.327-.952.545-1.904.627-2.81h-3.912c-.029.395-.072.767-.109 1.148 1.279.257 2.439.843 3.394 1.662zm-13.779-5.81c3.154-2.825-.664-3.102.087-5.099-2.642 2.787.95 2.859-.087 5.099zm2.278 15h-2.667c-1.693-3.396-2.729-7.419-3.09-12h10.769c-.033.419-.082.812-.126 1.212.815-.195 1.381-.224 2.034-.198.097-.964.172-1.962.208-3.014h-15c.258 7.569 2.143 12.68 4 16h5.418c-.621-.574-1.147-1.247-1.546-2zm3.128-3.5c0 1.93 1.57 3.5 3.5 3.5s3.5-1.57 3.5-3.5-1.57-3.5-3.5-3.5-3.5 1.57-3.5 3.5zm9 0c0 3.038-2.462 5.5-5.5 5.5s-5.5-2.462-5.5-5.5 2.462-5.5 5.5-5.5 5.5 2.462 5.5 5.5zm-3-.5v1h-3v-3h1v2h2z"/></svg>