<svg xmlns="http://www.w3.org/2000/svg" width="24" height="24" viewBox="0 0 24 24"><path d="M14.911 10c-.308 3.325-1.397 5.712-2.948 8h-4.926c-1.373-2.009-2.613-4.372-2.948-8h10.822zm2.089-2h-15c0 5.716 1.826 8.996 4 12h7c2.12-2.911 4-6.333 4-12zm1.119 2c-.057.701-.141 1.367-.252 2h1.549c-.449 1.29-1.5 2.478-2.299 2.914-.358 1.038-.787 1.981-1.26 2.852 3.275-1.143 5.847-4.509 6.143-7.766h-3.881zm-1.119 12h-15v2h15v-2zm-3.06-19.614c-.416 1.702-3.07 2.477-3.983 4.614-.088-1.846 1.107-3.031 1.75-3.93 1.045-1.465-.537-2.267-1.633-1.171-.188.187-.38.435-.573.756-.193-.322-.386-.57-.573-.757-1.089-1.09-2.664-.294-1.658 1.137.635.903 1.863 2.095 1.775 3.965-.914-2.137-3.567-2.912-3.984-4.614-.355-1.445.928-2.386 2.29-2.386.793 0 1.613.32 2.15 1.045.537-.725 1.357-1.045 2.15-1.045 1.362 0 2.644.941 2.289 2.386z"/></svg>