<svg xmlns="http://www.w3.org/2000/svg" width="24" height="24" viewBox="0 0 24 24"><path d="M13 20h-7c-2.174-3.004-4-6.284-4-12h15c0 5.667-1.88 9.089-4 12zm5.119-10c-.057.701-.141 1.367-.252 2h1.549c-.449 1.29-1.5 2.478-2.299 2.914-.358 1.038-.787 1.981-1.26 2.852 3.275-1.143 5.847-4.509 6.143-7.766h-3.881zm-1.119 12h-15v2h15v-2zm-13.074-16c-.746-2.06 1.358-3.683 2.998-2.659 1.006-2.367 4.447-2.131 5.117.353 1.46-1.217 3.735.174 3.079 2.306h1.793c.508-2.551-1.647-4.687-4.076-4.293-.697-1.131-2.07-1.707-3.435-1.707-1.253 0-2.498.486-3.204 1.473-2.508-.329-4.664 1.915-4.091 4.527h1.819z"/></svg>