<svg xmlns="http://www.w3.org/2000/svg" width="24" height="24" viewBox="0 0 24 24"><path d="M14.911 10c-.308 3.325-1.398 5.712-2.949 8h-4.925c-1.373-2.009-2.612-4.372-2.948-8h10.822zm2.089-2h-15c0 5.716 1.826 8.996 4 12h7c2.12-2.911 4-6.333 4-12zm1.119 2c-.057.701-.141 1.367-.252 2h1.55c-.449 1.29-1.5 2.478-2.299 2.914-.358 1.038-.787 1.981-1.26 2.852 3.274-1.143 5.846-4.509 6.142-7.766h-3.881zm-7.745-3.001c4.737-4.27-.98-4.044.117-6.999-3.783 3.817 1.409 3.902-.117 6.999zm-2.78.001c3.154-2.825-.664-3.102.087-5.099-2.642 2.787.95 2.859-.087 5.099zm9.406 15h-15v2h15v-2z"/></svg>