<svg xmlns="http://www.w3.org/2000/svg" width="24" height="24" viewBox="0 0 24 24"><path d="M17.978 11.155c.038-.383.081-.758.11-1.155h3.912c-.083.915-.306 1.876-.638 2.837-.951-.824-2.107-1.419-3.384-1.682zm-7.604-4.156c4.737-4.27-.979-4.044.116-6.999-3.781 3.817 1.41 3.902-.116 6.999zm-1.415 11.501c0-4.201 3.49-7.675 7.832-7.483.098-.966.173-1.964.209-3.017h-15c.258 7.569 2.143 12.68 4 16h5.377c-1.482-1.371-2.418-3.326-2.418-5.5zm-1.365-11.5c3.154-2.825-.664-3.102.087-5.099-2.642 2.787.95 2.859-.087 5.099zm5.365 11.5c0 1.93 1.57 3.5 3.5 3.5s3.5-1.57 3.5-3.5-1.57-3.5-3.5-3.5-3.5 1.57-3.5 3.5zm9 0c0 3.038-2.462 5.5-5.5 5.5s-5.5-2.462-5.5-5.5 2.462-5.5 5.5-5.5 5.5 2.462 5.5 5.5zm-3-.5v1h-3v-3h1v2h2z"/></svg>