<svg xmlns="http://www.w3.org/2000/svg" width="24" height="24" viewBox="0 0 24 24"><path d="M18.5 21.5c2.081 0 4.239-.484 5.5-1.402v.652c0 1.243-2.56 2.25-5.5 2.25-2.939 0-5.5-1.007-5.5-2.25v-.652c1.26.918 3.42 1.402 5.5 1.402zm0-5c2.081 0 4.239-.484 5.5-1.402v.652c0 1.242-2.56 2.25-5.5 2.25-2.939 0-5.5-1.007-5.5-2.25v-.652c1.26.918 3.42 1.402 5.5 1.402zm0 2.5c2.081 0 4.239-.484 5.5-1.401v.651c0 1.243-2.56 2.25-5.5 2.25-2.939 0-5.5-1.007-5.5-2.25v-.651c1.26.917 3.42 1.401 5.5 1.401zm0-5c2.081 0 4.239-.484 5.5-1.401v.651c0 1.243-2.56 2.25-5.5 2.25-2.939 0-5.5-1.007-5.5-2.25v-.651c1.26.917 3.42 1.401 5.5 1.401zm0-13c-2.939 0-5.5 1.007-5.5 2.25s2.561 2.25 5.5 2.25c2.94 0 5.5-1.007 5.5-2.25s-2.56-2.25-5.5-2.25zm.174 3.28v.22h-.354v-.208c-.36-.003-.743-.056-1.058-.152l.162-.343c.269.063.606.126.911.126l.229-.014c.405-.053.486-.301.037-.419-.328-.09-1.335-.166-1.335-.675 0-.284.367-.537 1.054-.593v-.222h.354v.211c.258.005.544.03.863.09l-.128.342c-.243-.051-.514-.099-.779-.099l-.079.001c-.531.02-.573.287-.207.399.602.169 1.394.292 1.394.74-.001.358-.477.549-1.064.596zm-.174 7.22c2.081 0 4.239-.484 5.5-1.402v.652c0 1.243-2.56 2.25-5.5 2.25-2.939 0-5.5-1.007-5.5-2.25v-.652c1.26.918 3.42 1.402 5.5 1.402zm0-5c2.081 0 4.239-.484 5.5-1.402v.652c0 1.243-2.56 2.25-5.5 2.25-2.939 0-5.5-1.007-5.5-2.25v-.652c1.26.918 3.42 1.402 5.5 1.402zm0 2.5c2.081 0 4.239-.484 5.5-1.401v.651c0 1.243-2.56 2.25-5.5 2.25-2.939 0-5.5-1.007-5.5-2.25v-.651c1.26.917 3.42 1.401 5.5 1.401zm-13 2c-2.939 0-5.5 1.007-5.5 2.25s2.561 2.25 5.5 2.25c2.94 0 5.5-1.007 5.5-2.25s-2.56-2.25-5.5-2.25zm.174 3.28v.22h-.353v-.208c-.361-.003-.744-.056-1.058-.152l.162-.343c.269.063.607.126.911.126l.229-.014c.405-.053.487-.301.038-.419-.329-.09-1.335-.166-1.335-.675 0-.284.368-.537 1.054-.593v-.222h.353v.211c.258.005.544.03.863.09l-.128.342c-.243-.051-.513-.099-.779-.099l-.08.001c-.53.02-.572.287-.206.399.602.169 1.393.292 1.393.74-.001.358-.477.549-1.064.596zm-.174 7.22c2.081 0 4.239-.484 5.5-1.402v.652c0 1.243-2.56 2.25-5.5 2.25-2.939 0-5.5-1.007-5.5-2.25v-.652c1.26.918 3.42 1.402 5.5 1.402zm0-5c2.081 0 4.239-.484 5.5-1.402v.652c0 1.243-2.56 2.25-5.5 2.25-2.939 0-5.5-1.007-5.5-2.25v-.652c1.26.918 3.42 1.402 5.5 1.402zm0 2.5c2.081 0 4.239-.484 5.5-1.401v.651c0 1.243-2.56 2.25-5.5 2.25-2.939 0-5.5-1.007-5.5-2.25v-.651c1.26.917 3.42 1.401 5.5 1.401z"/></svg>