<svg width="24" height="24" xmlns="http://www.w3.org/2000/svg" fill-rule="evenodd" clip-rule="evenodd"><path d="M1 12.155c2.256 3.97 4.55 7.918 6.879 11.845h-5.379c-.829 0-1.5-.675-1.5-1.5v-10.345zm2.85.859c3.278 1.952 12.866 7.658 13.121 7.805l-5.162 2.98c-.231.132-.49.201-.751.201-.549 0-1.037-.298-1.299-.75l-5.909-10.236zm1.9-12.813c-.23-.133-.489-.201-.75-.201-.524 0-1.026.277-1.299.75l-3.5 6.062c-.133.23-.201.489-.201.749 0 .527.278 1.028.75 1.3 2.936 1.695 14.58 8.7 17.516 10.396.718.413 1.633.168 2.048-.55l3.5-6.062c.133-.23.186-.488.186-.749 0-.52-.257-1.025-.734-1.3l-17.516-10.395m.25 3.944c1.104 0 2 .896 2 2s-.896 2-2 2-2-.896-2-2 .896-2 2-2"/></svg>