<svg xmlns="http://www.w3.org/2000/svg" width="24" height="24" viewBox="0 0 24 24"><path d="M12 4c-4.418 0-8 3.582-8 8s3.582 8 8 8 8-3.582 8-8-3.582-8-8-8zm1.437 9.396c-.439.44-1.031.636-1.621.577l-3.816 2.027 2.028-3.818c-.059-.578.134-1.177.575-1.619.445-.445 1.05-.642 1.649-.572l3.748-1.992-1.99 3.748c.073.632-.151 1.226-.573 1.649zm-1.437-13.396c-6.627 0-12 5.373-12 12s5.373 12 12 12 12-5.373 12-12-5.373-12-12-12zm0 22c-5.514 0-10-4.486-10-10s4.486-10 10-10 10 4.486 10 10-4.486 10-10 10zm.854-10.021c-.001.46-.374.833-.833.833-.46 0-.834-.373-.834-.833 0-.461.373-.834.834-.833.459 0 .833.374.833.833z"/></svg>