<svg width="24" height="24" xmlns="http://www.w3.org/2000/svg" fill-rule="evenodd" clip-rule="evenodd"><path d="M17 24h-10v-1.342c1.808-.985 2.005-2.205 2-3.658h-8c-.265 0-.52-.105-.707-.293-.188-.187-.293-.442-.293-.707v-17c0-.265.105-.52.293-.707.187-.188.442-.293.707-.293h22c.265 0 .52.105.707.293.188.187.293.442.293.707v17c0 .265-.105.52-.293.707-.187.188-.442.293-.707.293h-8c.004 1.374.155 2.66 2 3.658v1.342zm-3.984-5h-2.044c-.015.802.004 2.003-.719 3h3.493c-.757-1.02-.716-2.25-.73-3zm8.984-5h-20v3h20v-3zm-10 .537c.552 0 1 .448 1 1s-.448 1-1 1-1-.448-1-1 .448-1 1-1zm-10-12.537v10h20v-10h-20z"/></svg>