<svg xmlns="http://www.w3.org/2000/svg" width="24" height="24" viewBox="0 0 24 24"><path d="M14.312 4.279c.423-.452.688-1.023.688-1.654 0-1.449-1.343-2.625-3-2.625s-3 1.176-3 2.625c0 .631.265 1.202.688 1.654-4.406 1.045-7.688 4.995-7.688 9.721 0 5.523 4.477 10 10 10s10-4.477 10-10c0-4.726-3.282-8.676-7.688-9.721zm-2.312-2.779c.813 0 1.5.515 1.5 1.125s-.687 1.125-1.5 1.125-1.5-.515-1.5-1.125.687-1.125 1.5-1.125zm0 20.5c-4.411 0-8-3.589-8-8s3.589-8 8-8 8 3.589 8 8-3.589 8-8 8zm.64-8.015c-.001.345-.28.625-.625.625s-.625-.28-.625-.625c0-.346.279-.625.625-.625.344.001.625.281.625.625zm-.64-5.985c-3.313 0-6 2.687-6 6s2.687 6 6 6 6-2.687 6-6-2.687-6-6-6zm1.077 7.047c-.33.33-.773.477-1.216.433l-2.861 1.521 1.521-2.864c-.044-.434.101-.883.432-1.214.334-.334.787-.481 1.237-.429l2.81-1.494-1.493 2.811c.055.474-.112.919-.43 1.236z"/></svg>