<svg xmlns="http://www.w3.org/2000/svg" width="24" height="24" viewBox="0 0 24 24"><path d="M12 2c5.514 0 10 4.486 10 10s-4.486 10-10 10-10-4.486-10-10 4.486-10 10-10zm0-2c-6.627 0-12 5.373-12 12s5.373 12 12 12 12-5.373 12-12-5.373-12-12-12zm6 5.999l-5.621 2.986c-.899-.104-1.806.191-2.474.859-.662.663-.95 1.561-.862 2.428l-3.043 5.728 5.724-3.042c.884.089 1.772-.205 2.432-.865.634-.634.969-1.524.859-2.473l2.985-5.621zm-5.97 7.22c-.689 0-1.25-.559-1.25-1.249-.001-.691.559-1.251 1.25-1.25.69 0 1.25.56 1.25 1.25-.001.689-.56 1.249-1.25 1.249zm.79-9.409v2.108h-.457l-.004-.007-.801-1.355v1.362h-.436v-2.108h.454l.808 1.365v-1.365h.436zm6.235 8.734v-.48h.957v-.384h-.957v-.417h1.043v-.413h-1.507v2.108h1.529v-.414h-1.065zm-12.998-1.694l-.315 1.395-.329-1.395h-.43l-.334 1.377-.304-1.377h-.465l.527 2.098.003.011h.463l.32-1.378.326 1.378h.455l.538-2.108h-.455zm5.188 9.209c.119.066.358.132.601.132.582 0 .853-.302.853-.657 0-.302-.173-.497-.547-.636-.277-.106-.394-.166-.394-.302 0-.106.101-.204.309-.204.204 0 .358.06.44.101l.106-.384c-.126-.06-.299-.107-.541-.107-.497 0-.802.274-.802.636 0 .312.232.507.585.632.255.089.355.167.355.296 0 .142-.116.233-.337.233-.204 0-.405-.066-.531-.133l-.097.393z"/></svg>