<svg xmlns="http://www.w3.org/2000/svg" width="24" height="24" viewBox="0 0 24 24"><path d="M17 9l-4.684 2.489c-.75-.086-1.506.159-2.062.715-.551.553-.792 1.301-.719 2.024l-2.535 4.773 4.77-2.535c.737.074 1.477-.171 2.026-.721.528-.529.808-1.271.716-2.061l2.488-4.684zm-4.975 6.017c-.574 0-1.042-.466-1.042-1.041 0-.576.466-1.042 1.042-1.042.575 0 1.041.466 1.041 1.042-.001.574-.466 1.041-1.041 1.041zm2.287-10.738c.423-.452.688-1.023.688-1.654 0-1.449-1.343-2.625-3-2.625s-3 1.176-3 2.625c0 .631.265 1.202.688 1.654-4.406 1.045-7.688 4.995-7.688 9.721 0 5.523 4.477 10 10 10s10-4.477 10-10c0-4.726-3.282-8.676-7.688-9.721zm-2.312-2.779c.812 0 1.5.515 1.5 1.125s-.688 1.125-1.5 1.125-1.5-.515-1.5-1.125.688-1.125 1.5-1.125zm0 20.5c-4.411 0-8-3.589-8-8s3.589-8 8-8 8 3.589 8 8-3.589 8-8 8z"/></svg>