<svg xmlns="http://www.w3.org/2000/svg" width="24" height="24" viewBox="0 0 24 24"><path d="M13.072 12.316l-1.072-4.316-1.074 4.318c-.286.183-.518.438-.679.739l-4.247.943 4.247.943c.161.3.393.556.679.739l1.074 4.318 1.078-4.32c.285-.184.516-.439.677-.74l4.245-.94-4.246-.942c-.162-.301-.395-.558-.682-.742zm-1.072 2.684c-.553 0-1-.448-1-1s.447-1 1-1 1 .448 1 1-.447 1-1 1zm3.5 2.5l-1.715-1.093c.236-.176.446-.386.622-.623l1.093 1.716zm-1.76-5.941l1.76-1.059-1.06 1.759c-.193-.27-.429-.507-.7-.7zm-3.478 4.883l-1.762 1.058 1.059-1.76c.194.271.431.509.703.702zm-.67-4.226l-1.092-1.716 1.716 1.092c-.237.177-.447.387-.624.624zm4.72-7.937c.423-.452.688-1.023.688-1.654 0-1.449-1.343-2.625-3-2.625s-3 1.176-3 2.625c0 .631.265 1.202.688 1.654-4.406 1.045-7.688 4.995-7.688 9.721 0 5.523 4.477 10 10 10s10-4.477 10-10c0-4.726-3.282-8.676-7.688-9.721zm-2.312-2.779c.812 0 1.5.515 1.5 1.125s-.688 1.125-1.5 1.125-1.5-.515-1.5-1.125.688-1.125 1.5-1.125zm0 20.5c-4.411 0-8-3.589-8-8s3.589-8 8-8 8 3.589 8 8-3.589 8-8 8z"/></svg>