<svg xmlns="http://www.w3.org/2000/svg" width="24" height="24" viewBox="0 0 24 24"><path d="M14.145 8.633l-2.145-8.633-2.148 8.636c-.572.366-1.034.877-1.358 1.477l-8.494 1.887 8.494 1.887c.324.6.786 1.111 1.358 1.477l2.148 8.636 2.157-8.64c.571-.367 1.03-.879 1.353-1.479l8.49-1.881-8.492-1.884c-.324-.603-.788-1.116-1.363-1.483zm-2.145 5.367c-1.104 0-2-.896-2-2s.896-2 2-2 2 .896 2 2-.896 2-2 2zm7 5l-3.43-2.186c.474-.352.893-.771 1.245-1.245l2.185 3.431zm-3.521-11.882l3.521-2.117-2.119 3.519c-.386-.542-.86-1.015-1.402-1.402zm-6.955 9.767l-3.524 2.115 2.118-3.521c.387.543.862 1.018 1.406 1.406zm-1.34-8.453l-2.184-3.431 3.431 2.184c-.474.352-.894.772-1.247 1.247z"/></svg>