<svg width="24" height="24" xmlns="http://www.w3.org/2000/svg" fill-rule="evenodd" clip-rule="evenodd"><path d="M17 24h-10v-1c1.533-.366 2.386-1.572 2.497-3h5.006c.111 1.427.964 2.634 2.497 3v1zm6-5c.265 0 .52-.105.707-.293.188-.187.293-.442.293-.707v-17c0-.265-.105-.52-.293-.707-.187-.188-.442-.293-.707-.293h-22c-.265 0-.52.105-.707.293-.188.187-.293.442-.293.707v17c0 .265.105.52.293.707.187.188.442.293.707.293h22zm-11-3.419c.552 0 1 .448 1 1s-.448 1-1 1-1-.448-1-1 .448-1 1-1zm10-13.581h-20v12h20v-12z"/></svg>