<svg xmlns="http://www.w3.org/2000/svg" width="24" height="24" viewBox="0 0 24 24"><path d="M19 2c1.654 0 3 1.346 3 3v14c0 1.654-1.346 3-3 3h-14c-1.654 0-3-1.346-3-3v-14c0-1.654 1.346-3 3-3h14zm5 3c0-2.761-2.238-5-5-5h-14c-2.762 0-5 2.239-5 5v14c0 2.761 2.238 5 5 5h14c2.762 0 5-2.239 5-5v-14zm-6.012 8.421c-.038.524-.142 1.03-.305 1.509l.934.393c-.096.27-.205.531-.332.784l-.934-.394c-.224.438-.5.845-.818 1.212l.716.717c-.187.212-.388.414-.601.602l-1.32-1.319c1.095-.927 1.823-2.356 1.823-3.929 0-2.845-2.306-5.152-5.151-5.152s-5.151 2.307-5.151 5.152c0 1.461.646 2.931 1.823 3.929l-1.337 1.324-.604-.602.735-.722c-.328-.377-.609-.796-.836-1.248l-.938.388c-.122-.253-.231-.515-.324-.785l.936-.388c-.155-.467-.255-.96-.292-1.471h-1.012v-.851h1.012c.037-.523.142-1.029.305-1.508l-.934-.394c.096-.269.205-.531.332-.784l.934.394c.224-.438.498-.845.818-1.212l-.716-.716c.187-.213.388-.414.601-.602l.717.716c.378-.328.798-.609 1.249-.835l-.388-.937c.254-.123.516-.232.786-.325l.387.936c.469-.156.961-.256 1.472-.292v-1.011h.852v1.011c.524.037 1.03.141 1.509.304l.395-.933c.269.095.531.206.783.331l-.394.934c.438.224.845.499 1.213.818l.717-.716c.213.188.414.389.601.601l-.716.717c.328.378.609.797.836 1.249l.938-.388c.122.254.231.516.324.786l-.937.386c.156.468.255.96.292 1.471h1.012v.851h-1.012zm-2.003-.424c0 2.197-1.787 3.985-3.985 3.985s-3.985-1.788-3.985-3.985 1.787-3.985 3.985-3.985 3.985 1.788 3.985 3.985zm-4.293-1.057l-1.261-1.259-.824.825 1.26 1.259.825-.825z"/></svg>