<svg xmlns="http://www.w3.org/2000/svg" width="24" height="24" viewBox="0 0 24 24"><path d="M10.432 10.682l1.261 1.259-.825.825-1.26-1.259.824-.825zm13.568-5.682v14c0 2.761-2.238 5-5 5h-14c-2.762 0-5-2.239-5-5v-14c0-2.761 2.238-5 5-5h14c2.762 0 5 2.239 5 5zm-8.015 7.997c0-2.197-1.787-3.985-3.985-3.985s-3.985 1.788-3.985 3.985 1.787 3.985 3.985 3.985 3.985-1.788 3.985-3.985zm3.015-.426h-1.012c-.037-.51-.136-1.003-.292-1.471l.936-.387c-.093-.27-.202-.532-.324-.786l-.938.388c-.227-.451-.508-.871-.836-1.249l.716-.717c-.187-.212-.388-.413-.601-.601l-.717.716c-.368-.319-.775-.594-1.213-.818l.394-.934c-.252-.125-.515-.236-.783-.331l-.395.933c-.479-.163-.984-.268-1.509-.304v-1.01h-.852v1.011c-.511.036-1.003.136-1.472.292l-.386-.936c-.27.093-.532.202-.786.325l.388.937c-.452.226-.872.508-1.25.836l-.716-.716c-.213.188-.414.388-.601.601l.716.716c-.32.368-.595.775-.818 1.212l-.934-.393c-.127.253-.236.515-.332.784l.934.394c-.163.479-.268.984-.305 1.508h-1.012v.851h1.012c.037.51.137 1.003.292 1.471l-.936.387c.093.27.202.532.325.786l.938-.388c.227.451.508.87.836 1.248l-.735.722.604.602 1.337-1.324c-1.178-.998-1.823-2.468-1.823-3.929 0-2.845 2.306-5.152 5.151-5.152s5.151 2.307 5.151 5.152c0 1.573-.729 3.001-1.823 3.929l1.32 1.319c.213-.188.414-.39.601-.602l-.716-.717c.318-.367.595-.774.818-1.212l.934.394c.127-.253.236-.515.332-.784l-.934-.393c.163-.479.267-.984.305-1.509h1.011v-.851z"/></svg>