<svg xmlns="http://www.w3.org/2000/svg" width="24" height="24" viewBox="0 0 24 24"><path d="M19 0h-14c-2.762 0-5 2.239-5 5v14c0 2.761 2.238 5 5 5h14c2.762 0 5-2.239 5-5v-14c0-2.761-2.238-5-5-5zm-5.898 19h-9.102c-.553 0-1-.448-1-1s.447-1 1-1h9.102c-.067.323-.102.658-.102 1s.035.677.102 1zm4.898 2c-1.656 0-3-1.343-3-3s1.344-3 3-3 3 1.343 3 3-1.344 3-3 3zm4-9h-20v-7c0-1.654 1.346-3 3-3h14c1.654 0 3 1.346 3 3v7zm-11-4.625l4-1.5v4.125h-4v-2.625zm9-3.375v6h-4v-4.5l4-1.5zm-10 6h-6l6-2.25v2.25z"/></svg>