<svg xmlns="http://www.w3.org/2000/svg" width="24" height="24" viewBox="0 0 24 24"><path d="M19 2c1.654 0 3 1.346 3 3v14c0 1.654-1.346 3-3 3h-14c-1.654 0-3-1.346-3-3v-14c0-1.654 1.346-3 3-3h14zm5 3c0-2.761-2.238-5-5-5h-14c-2.762 0-5 2.239-5 5v14c0 2.761 2.238 5 5 5h14c2.762 0 5-2.239 5-5v-14zm-7.5 9c1.379 0 2.5 1.122 2.5 2.5s-1.121 2.5-2.5 2.5h-9c-1.379 0-2.5-1.122-2.5-2.5s1.121-2.5 2.5-2.5h9zm0-1h-9c-1.933 0-3.5 1.567-3.5 3.5s1.567 3.5 3.5 3.5h9c1.933 0 3.5-1.567 3.5-3.5s-1.567-3.5-3.5-3.5zm-1 2c-.828 0-1.5.671-1.5 1.5s.672 1.5 1.5 1.5 1.5-.671 1.5-1.5-.672-1.5-1.5-1.5zm1-11h-9c-1.933 0-3.5 1.567-3.5 3.5s1.567 3.5 3.5 3.5h9c1.933 0 3.5-1.567 3.5-3.5s-1.567-3.5-3.5-3.5zm-8 5c-.828 0-1.5-.671-1.5-1.5s.672-1.5 1.5-1.5 1.5.671 1.5 1.5-.672 1.5-1.5 1.5z"/></svg>