<svg xmlns="http://www.w3.org/2000/svg" width="24" height="24" viewBox="0 0 24 24"><path d="M19 0h-14c-2.762 0-5 2.239-5 5v14c0 2.761 2.238 5 5 5h14c2.762 0 5-2.239 5-5v-14c0-2.761-2.238-5-5-5zm-11.899 19h-3.101c-.552 0-1-.448-1-1s.448-1 1-1h3.101c-.066.323-.101.658-.101 1s.035.677.101 1zm4.899 2c-1.656 0-3-1.343-3-3s1.344-3 3-3 3 1.343 3 3-1.344 3-3 3zm8-2h-3.101c.066-.323.101-.658.101-1s-.035-.677-.101-1h3.101c.552 0 1 .448 1 1s-.448 1-1 1zm2-7h-20v-7c0-1.654 1.346-3 3-3h14c1.654 0 3 1.346 3 3v7zm-11-4.625l4-1.5v4.125h-4v-2.625zm-1 2.625h-6l6-2.25v2.25z"/></svg>