<svg xmlns="http://www.w3.org/2000/svg" width="24" height="24" viewBox="0 0 24 24"><path d="M18 6v-6h-18v18h6v6h18v-18h-6zm-12 10h-4v-14h14v4h-10v10zm16 6h-14v-14h14v14zm-6.793-4v-.757c1.529-1.381 2.425-2.116 2.436-2.896 0-.436-.255-.782-.872-.782-.46 0-.864.23-1.144.437l-.354-.889c.396-.304 1.029-.551 1.745-.551 1.218 0 1.875.708 1.875 1.67 0 1.145-1.043 1.996-1.917 2.724v.016h2.024v1.028h-3.793zm-4.097-3.544h1.11l.624.925.617-.925h1.075l-1.164 1.659 1.31 1.885h-1.11l-.741-1.118-.74 1.118h-1.091l1.275-1.865-1.165-1.679z"/></svg>