<svg xmlns="http://www.w3.org/2000/svg" width="24" height="24" viewBox="0 0 24 24"><path d="M12 0c-6.627 0-12 5.373-12 12s5.373 12 12 12 12-5.373 12-12-5.373-12-12-12zm0 22c-5.514 0-10-4.486-10-10 0-2.397.85-4.6 2.262-6.324l14.062 14.062c-1.724 1.412-3.927 2.262-6.324 2.262zm7.738-3.676l-9.587-9.587c.549-.319 1.174-.519 1.855-.519 1.171 0 2.306.523 3.136 1.669l1.858-1.217c-1.281-1.826-3.133-2.67-4.994-2.67-1.295 0-2.49.42-3.471 1.122l-2.86-2.86c1.725-1.412 3.928-2.262 6.325-2.262 5.514 0 10 4.486 10 10 0 2.397-.85 4.6-2.262 6.324zm-5.352-.827c-.758.331-1.564.503-2.38.503-3.308 0-6-2.692-6-6 0-.847.179-1.653.497-2.385l1.783 1.783c-.032.197-.06.396-.06.602 0 2.085 1.696 3.781 3.781 3.781.205 0 .408-.022.609-.055l1.77 1.771z"/></svg>