<svg xmlns="http://www.w3.org/2000/svg" width="24" height="24" viewBox="0 0 24 24"><path d="M12 2c5.514 0 10 4.486 10 10s-4.486 10-10 10-10-4.486-10-10 4.486-10 10-10zm0-2c-6.627 0-12 5.373-12 12s5.373 12 12 12 12-5.373 12-12-5.373-12-12-12zm4.707 12.671l1.293.848c-.671.956-1.49 1.584-2.725 1.584-1.711 0-3.104-1.392-3.104-3.103s1.393-3.103 3.104-3.103c1.226 0 2.047.619 2.725 1.584l-1.293.848c-.195-.269-.579-.883-1.432-.883-.856 0-1.555.697-1.555 1.554 0 .857.698 1.554 1.555 1.554.858 0 1.246-.626 1.432-.883zm-7.603.883c-.857 0-1.555-.697-1.555-1.554 0-.856.697-1.554 1.555-1.554.852 0 1.236.614 1.431.883l1.294-.848c-.677-.965-1.5-1.584-2.725-1.584-1.711 0-3.104 1.392-3.104 3.103s1.393 3.103 3.104 3.103c1.234 0 2.054-.628 2.725-1.584l-1.294-.848c-.186.257-.574.883-1.431.883z"/></svg>