<svg xmlns="http://www.w3.org/2000/svg" width="24" height="24" viewBox="0 0 24 24"><path d="M12 0c-6.627 0-12 5.373-12 12s5.373 12 12 12 12-5.373 12-12-5.373-12-12-12zm-2.896 13.554c.857 0 1.245-.626 1.431-.883l1.294.848c-.671.956-1.49 1.584-2.725 1.584-1.711 0-3.104-1.392-3.104-3.103s1.393-3.103 3.104-3.103c1.225 0 2.048.619 2.725 1.584l-1.294.848c-.194-.269-.579-.883-1.431-.883-.857 0-1.555.697-1.555 1.554 0 .857.697 1.554 1.555 1.554zm6.171 0c.857 0 1.245-.626 1.432-.883l1.293.848c-.671.956-1.49 1.584-2.725 1.584-1.711 0-3.104-1.392-3.104-3.103s1.393-3.103 3.104-3.103c1.226 0 2.047.619 2.725 1.584l-1.293.848c-.195-.269-.579-.883-1.432-.883-.856 0-1.555.697-1.555 1.554.001.857.699 1.554 1.555 1.554z"/></svg>