<svg xmlns="http://www.w3.org/2000/svg" width="24" height="24" viewBox="0 0 24 24"><path d="M10 2h-2v-2h2v2zm-8 6h-2v2h2v-2zm0-5c0-.551.448-1 1-1h4v-2h-4c-1.657 0-3 1.343-3 3v4h2v-4zm0 8h-2v2h2v-2zm14-11h-2v2h2v-2zm-3 0h-2v2h2v-2zm-11 14h-2v2h2v-2zm18-2.042h-2.277l-2.36 5.386-2.883-7.93-2.442 5.78-2.071-4.14-1.129 1.966h-2.838v6.98h16v-8.042zm-16 .063h2.259l1.768-3.081 1.935 3.866 2.589-6.126 2.899 7.976 1.62-3.697h2.93v-6.959h-16v8.021zm10 11.979h2v-2h-2v2zm8-11h2v-2h-2v2zm-20 8v-4h-2v4c0 1.657 1.343 3 3 3h4v-2h-4c-.552 0-1-.449-1-1zm20 0c0 .551-.448 1-1 1h-4v2h4c1.657 0 3-1.343 3-3v-4h-2v4zm0-11h2v-2h-2v2zm0 6h2v-2h-2v2zm2-13c0-1.657-1.343-3-3-3h-4v2h4c.552 0 1 .449 1 1v4h2v-4zm-16 21h2v-2h-2v2zm3 0h2v-2h-2v2z"/></svg>