<svg xmlns="http://www.w3.org/2000/svg" width="24" height="24" viewBox="0 0 24 24"><path d="M2 10h-2v-2h2v2zm0-7c0-.551.448-1 1-1h4v-2h-4c-1.657 0-3 1.343-3 3v4h2v-4zm8-3h-2v2h2v-2zm-8 11h-2v2h2v-2zm0 3h-2v2h2v-2zm11-14h-2v2h2v-2zm-3.922 13h3.078c.552 0 1-.448 1-1s-.448-1-1-1h-3.078c-.552 0-1 .448-1 1s.448 1 1 1zm-5.078-9h16v16h-16v-16zm2.891 8c0 1.104.896 2 2 2h6.109c1.104 0 2-.896 2-2s-.896-2-2-2h-6.109c-1.105 0-2 .896-2 2zm14.109-12h-4v2h4c.552 0 1 .449 1 1v4h2v-4c0-1.657-1.343-3-3-3zm1 16h2v-2h-2v2zm0-6h2v-2h-2v2zm0 3h2v-2h-2v2zm-6-13h-2v2h2v-2zm-5 24h2v-2h-2v2zm-9-3v-4h-2v4c0 1.657 1.343 3 3 3h4v-2h-4c-.552 0-1-.449-1-1zm6 3h2v-2h-2v2zm6 0h2v-2h-2v2zm8-3c0 .551-.448 1-1 1h-4v2h4c1.657 0 3-1.343 3-3v-4h-2v4z"/></svg>