<svg xmlns="http://www.w3.org/2000/svg" width="24" height="24" viewBox="0 0 24 24"><path d="M20 20h-16v-16h16v16zm-4-20h-2v2h2v-2zm-8 2h2v-2h-2v2zm14 6v2h2v-2h-2zm-5-6h4c.552 0 1 .449 1 1v4h2v-4c0-1.657-1.343-3-3-3h-4v2zm-7 22v-2h-2v2h2zm12-13v2h2v-2h-2zm2 3h-2v2h2v-2zm-13-12h2v-2h-2v2zm2 20h-2v2h2v-2zm-6 0h-4c-.552 0-1-.449-1-1v-4h-2v4c0 1.657 1.343 3 3 3h4v-2zm-7-9h2v-2h-2v2zm22 4v4c0 .551-.448 1-1 1h-4v2h4c1.657 0 3-1.343 3-3v-4h-2zm-22-7h2v-2h-2v2zm16 12h-2v2h2v-2zm-14-15v-4c0-.551.448-1 1-1h4v-2h-4c-1.657 0-3 1.343-3 3v4h2zm-2 9h2v-2h-2v2z"/></svg>