<svg xmlns="http://www.w3.org/2000/svg" width="24" height="24" viewBox="0 0 24 24"><path d="M19 13h3v1h-3v-1zm5 .5c0 1.933-1.567 3.5-3.5 3.5s-3.5-1.567-3.5-3.5 1.567-3.5 3.5-3.5 3.5 1.567 3.5 3.5zm-1 0c0-1.378-1.122-2.5-2.5-2.5s-2.5 1.122-2.5 2.5 1.122 2.5 2.5 2.5 2.5-1.122 2.5-2.5zm-1 4.432v.068c0 1.104-.896 2-2 2h-18c-1.104 0-2-.896-2-2v-7h16.535c-.459.726-.735 1.579-.735 2.5 0 2.592 2.108 4.7 4.7 4.7.527 0 1.026-.107 1.5-.268zm-13-1.932h-6v1h6v-1zm3-2h-9v1h9v-1zm10-8c0-1.104-.896-2-2-2h-18c-1.104 0-2 .896-2 2v2h22v-2z"/></svg>