<svg xmlns="http://www.w3.org/2000/svg" width="24" height="24" viewBox="0 0 24 24"><path d="M0 8v-2c0-1.104.896-2 2-2h18c1.104 0 2 .896 2 2v2h-22zm13 7.5c0 1.747.696 3.331 1.82 4.5h-12.82c-1.104 0-2-.896-2-2v-7h14.82c-1.124 1.169-1.82 2.753-1.82 4.5zm-5 .5h-5v1h5v-1zm3-2h-8v1h8v-1zm13 1.5c0 2.485-2.017 4.5-4.5 4.5s-4.5-2.015-4.5-4.5 2.017-4.5 4.5-4.5 4.5 2.015 4.5 4.5zm-3.086-2.122l-1.414 1.414-1.414-1.414-.707.708 1.414 1.414-1.414 1.414.707.708 1.414-1.414 1.414 1.414.708-.708-1.414-1.414 1.414-1.414-.708-.708z"/></svg>