<svg xmlns="http://www.w3.org/2000/svg" width="24" height="24" viewBox="0 0 24 24"><path d="M22 2h-14c-1.104 0-2 .896-2 2v4h16v3.5c0 .276-.224.5-.5.5h-1.5v2h2c1.104 0 2-.896 2-2v-8c0-1.104-.896-2-2-2zm0 3h-14v-.5c0-.276.224-.5.5-.5h13c.276 0 .5.224.5.5v.5zm-6 5h-14c-1.104 0-2 .896-2 2v8c0 1.104.896 2 2 2h14c1.104 0 2-.896 2-2v-8c0-1.104-.896-2-2-2zm-11 10h-2v-1h2v1zm3 0h-2v-1h2v1zm.32-3.377c-.383.239-.836.377-1.32.377-1.381 0-2.5-1.119-2.5-2.5s1.119-2.5 2.5-2.5c.484 0 .937.138 1.32.377-.531.552-.857 1.3-.857 2.123 0 .824.326 1.571.857 2.123zm3.68 3.377h-2v-1h2v1zm-1-3c-1.381 0-2.5-1.119-2.5-2.5s1.119-2.5 2.5-2.5 2.5 1.119 2.5 2.5-1.119 2.5-2.5 2.5zm4 3h-2v-1h2v1z"/></svg>