<svg xmlns="http://www.w3.org/2000/svg" width="24" height="24" viewBox="0 0 24 24"><path d="M22 4h-20c-1.104 0-2 .896-2 2v12c0 1.104.896 2 2 2h20c1.104 0 2-.896 2-2v-12c0-1.104-.896-2-2-2zm-19 5.78c0-.431.349-.78.78-.78h.428v1.125h-1.208v-.345zm0 .764h1.208v.968h-1.208v-.968zm0 1.388h1.208v1.068h-.428c-.431 0-.78-.349-.78-.78v-.288zm3 5.068h-3v-1h3v1zm1-4.78c0 .431-.349.78-.78.78h-.429v-1.068h1.209v.288zm0-.708h-1.209v-.968h1.209v.968zm0-1.387h-1.629v2.875h-.743v-4h1.592c.431 0 .78.349.78.78v.345zm4 6.875h-3v-1h3v1zm1-6.5c0-1.381 1.119-2.5 2.5-2.5.484 0 .937.138 1.32.377-.531.552-.857 1.3-.857 2.123 0 .824.327 1.571.857 2.123-.383.239-.836.377-1.32.377-1.381 0-2.5-1.119-2.5-2.5zm4 6.5h-3v-1h3v1zm5 0h-3v-1h3v1zm-2.5-4c-1.38 0-2.5-1.119-2.5-2.5s1.12-2.5 2.5-2.5c1.381 0 2.5 1.119 2.5 2.5s-1.119 2.5-2.5 2.5z"/></svg>