<svg xmlns="http://www.w3.org/2000/svg" width="24" height="24" viewBox="0 0 24 24"><path d="M21.5 6c.276 0 .5.224.5.5v11c0 .276-.224.5-.5.5h-19c-.276 0-.5-.224-.5-.5v-11c0-.276.224-.5.5-.5h19zm2.5 0c0-1.104-.896-2-2-2h-20c-1.104 0-2 .896-2 2v12c0 1.104.896 2 2 2h20c1.104 0 2-.896 2-2v-12zm-14 7c-1.381 0-2.5-1.119-2.5-2.5s1.119-2.5 2.5-2.5c.484 0 .936.138 1.32.377-.531.552-.857 1.3-.857 2.123 0 .824.326 1.571.857 2.123-.384.239-.836.377-1.32.377zm1.5-2.5c0-1.381 1.119-2.5 2.5-2.5 1.383 0 2.5 1.119 2.5 2.5s-1.117 2.5-2.5 2.5c-1.381 0-2.5-1.119-2.5-2.5zm-4.5 4.5h-3v1h3v-1zm4 0h-3v1h3v-1zm5 0h-3v1h3v-1zm4 0h-3v1h3v-1z"/></svg>