<svg xmlns="http://www.w3.org/2000/svg" width="24" height="24" viewBox="0 0 24 24"><path d="M22 14h-3v-1h3v1zm-4-.5c0 1.378 1.122 2.5 2.5 2.5s2.5-1.122 2.5-2.5-1.122-2.5-2.5-2.5-2.5 1.122-2.5 2.5zm6 0c0 1.933-1.567 3.5-3.5 3.5s-3.5-1.567-3.5-3.5 1.567-3.5 3.5-3.5 3.5 1.567 3.5 3.5zm-20 2.5h6v-1h-6v1zm-1.5 2c-.276 0-.5-.224-.5-.5v-6.5h14.535c.833-1.317 2.294-2.2 3.965-2.2.527 0 1.026.107 1.5.268v-3.068c0-1.104-.896-2-2-2h-18c-1.104 0-2 .896-2 2v12c0 1.104.896 2 2 2h18c1.104 0 2-.896 2-2h-19.5zm-.5-11.5c0-.276.224-.5.5-.5h17c.276 0 .5.224.5.5v1.5h-18v-1.5zm11 6.5h-9v1h9v-1z"/></svg>