<svg xmlns="http://www.w3.org/2000/svg" width="24" height="24" viewBox="0 0 24 24"><path d="M3 18.94c-1.623.741-3-1.295-3-1.295.823-.399 1.795-.923 3-1.509v2.804zm-3-12.585s1.508-2.071 3.147-1.276c1.006.487 7.804 3.811 11.286 5.503l.875-.421c.754-.364 1.248-.49 1.02-1.43-.572-2.358 1.486-4.731 4.05-4.731 2.056 0 3.59 1.514 3.59 3.379 0 1.406-.875 2.805-2.319 3.531-1.442.726-2.454.161-3.887.858l-.448.217.49.24c1.431.701 2.444.138 3.885.868 1.439.729 2.31 2.125 2.31 3.529.001 1.86-1.526 3.378-3.587 3.378-2.548 0-4.633-2.356-4.049-4.74.23-.939-.264-1.067-1.016-1.433-.394-.19-11.169-5.447-15.347-7.472zm18.144 2.254c.434.909 1.665 1.226 2.745.705 1.08-.52 1.605-1.683 1.172-2.591-.434-.909-1.665-1.226-2.745-.706s-1.606 1.683-1.172 2.592zm1.201 9.371c1.078.522 2.31.209 2.746-.699.436-.908-.087-2.072-1.165-2.595-1.079-.522-2.311-.209-2.746.699-.437.909.086 2.073 1.165 2.595zm-6.345-1.98h-1v2h1v-2zm-2 2v-4h-1v4h1zm-1-10.913l1 .488v-1.575h-1v1.087zm4.825 7.821l-.825-.402v3.994c0 .276-.224.5-.5.5h-4.5v-6.931l-2-.975v7.906h-1.5c-.276 0-.5-.224-.5-.5v-8.379l-1-.487v8.866c0 .829.671 1.5 1.5 1.5h8c.829 0 1.5-.671 1.5-1.5v-3.509l-.175-.083zm-9.1-9.908h1.275v.623l.32.156 1.68.82v-1.599h4.5c.276 0 .5.224.5.5v3.537l.436.212.351-.169.212-.101h.001v-3.479c0-.829-.671-1.5-1.5-1.5h-8c-.391 0-.743.153-1.01.397l1.235.603z"/></svg>