<svg xmlns="http://www.w3.org/2000/svg" width="24" height="24" viewBox="0 0 24 24"><path d="M4 15h5v1h-5v-1zm8-1h-8v-1h8v1zm1.502 4h-11.002c-.276 0-.5-.224-.5-.5v-6.5h12.82c1.184-1.23 2.842-2 4.68-2 .886 0 1.729.179 2.5.501v-3.501c0-1.104-.896-2-2-2h-18c-1.104 0-2 .896-2 2v12c0 1.104.896 2 2 2h12.82c-.553-.576-1.006-1.251-1.318-2zm-11.502-11.5c0-.276.224-.5.5-.5h17c.276 0 .5.224.5.5v1.5h-18v-1.5zm22 9c0 2.485-2.017 4.5-4.5 4.5s-4.5-2.015-4.5-4.5 2.017-4.5 4.5-4.5 4.5 2.015 4.5 4.5zm-3.086-2.122l-1.414 1.414-1.414-1.414-.707.708 1.414 1.414-1.414 1.414.707.708 1.414-1.414 1.414 1.414.708-.708-1.414-1.414 1.414-1.414-.708-.708z"/></svg>