<svg width="24" height="24" xmlns="http://www.w3.org/2000/svg" fill-rule="evenodd" clip-rule="evenodd"><path d="M1.358 17.546c5.252-6.897 15.613-10.773 22.517-7.28.083.566.125 1.145.125 1.734 0 6.623-5.377 12-12 12-4.623 0-8.638-2.619-10.642-6.454zm1.861 1.091c.001.006.867-1.012 1.258-1.422l-.722-.69c-.38.394-.908 1.03-1.231 1.453l.695.659zm2.829-4.141l.629.777c-.912.738-1.193.995-1.509 1.277l-.664-.748c.798-.708.911-.793 1.544-1.306zm-5.566.881c-.314-1.072-.482-2.205-.482-3.377 0-6.623 5.377-12 12-12 5.176 0 9.59 3.284 11.273 7.88-7.452-2.618-16.863.502-22.791 7.497zm6.408-1.501l.556.831c.464-.311.751-.51 1.666-1.064l-.517-.856c-.578.35-1.146.714-1.705 1.089zm2.619-1.592l.441.897c.448-.22.794-.396 1.794-.827l-.397-.918s-.953.413-1.838.848zm-9.077.01l.637.77 1.383-1.24-.628-.765-1.392 1.235zm11.896-1.227l.308.951c.426-.137.82-.271 1.892-.554l-.255-.967c-.744.197-.919.239-1.945.57zm11.168.017c-.137-.055-1.776-.679-1.915-.73l-.344.94 1.895.706.364-.916zm-8.192-.799l.153.988c.649-.1 1.301-.178 1.955-.24l-.093-.996c-.789.075-.982.088-2.015.248zm-12.655.077l.637.77c.35-.289.681-.569 1.553-1.218l-.597-.802s-.838.625-1.593 1.25zm17.755-.243c-1.028-.089-.952-.084-2.022-.119l-.034.999c.834.027.908.023 1.969.117l.087-.997zm-15.298-1.594l.525.852c.382-.236.695-.435 1.707-.999l-.487-.874c-.721.402-.813.447-1.745 1.021zm2.683-1.488l.402.916c1.147-.501.917-.404 1.827-.757l-.361-.933c-.629.244-1.251.504-1.868.774zm2.856-1.108l.28.96c.385-.113.769-.232 1.91-.507l-.235-.972c-.804.195-.965.228-1.955.519zm10.923-.623l-1.94-.225-.116.98 1.931.221.125-.976zm-7.937-.091l.14.99c.515-.072.908-.133 1.961-.227l-.09-.996s-1.04.096-2.011.233zm5.083-.214c-1.04-.062-1.272-.061-2.025-.065l-.005 1c.496.003.919.001 1.971.064l.059-.999z"/></svg>