<svg width="24" height="24" xmlns="http://www.w3.org/2000/svg" fill-rule="evenodd" clip-rule="evenodd"><path d="M12 0c6.623 0 12 5.377 12 12s-5.377 12-12 12-12-5.377-12-12 5.377-12 12-12m9.665 9.428c-6.187-1.667-14.302 1.219-18.887 6.443.134.317.283.627.448.927l.291-.308.722.691-.468.5c1.805 2.608 4.819 4.319 8.229 4.319 5.52 0 10-4.48 10-10l-.016-.557c-.435-.104-.516-.119-.977-.218l.21-.978.654.143c-.054-.327-.122-.647-.206-.962m-15.226 5.81c-.912.738-1.193.995-1.509 1.277l-.664-.748c.798-.708.911-.793 1.544-1.306l.629.777m2.435-1.631c-.915.555-1.202.753-1.666 1.065l-.556-.831c.559-.375 1.127-.739 1.705-1.089l.517.855zm10.814-7.999c-1.834-2.204-4.599-3.608-7.688-3.608-5.283 0-9.614 4.105-9.976 9.296l.554.549-.569.575c.016.405.057.805.121 1.195 5.222-5.058 12.382-7.508 18.658-6.387-.18-.331-.378-.65-.593-.957l-.598-.097.091-.566zm-8.182 6.711c-1 .431-1.346.607-1.794.827l-.441-.897c.885-.435 1.838-.848 1.838-.848l.397.918m2.784-.89c-1.072.283-1.466.417-1.893.554l-.307-.951c1.026-.331 1.201-.373 1.945-.57l.255.967zm2.884-.431c-.654.062-1.307.14-1.955.24l-.154-.988c1.034-.16 1.226-.173 2.015-.248l.094.996m-12.338-1.009c-.872.649-1.203.929-1.553 1.218l-.637-.77c.755-.625 1.593-1.25 1.593-1.25l.597.802m15.33.095l-.087.997c-1.061-.094-1.135-.09-1.969-.117l.034-.999c1.07.035.994.03 2.022.119m-12.831-1.631c-1.012.564-1.325.763-1.707.999l-.525-.852c.932-.574 1.024-.619 1.745-1.021l.487.874m2.68-1.182c-.91.353-.68.256-1.827.757l-.402-.916c.617-.27 1.239-.53 1.868-.774l.361.933zm2.817-.814c-1.141.275-1.525.394-1.91.507l-.28-.96c.99-.291 1.151-.324 1.955-.519l.235.972m2.897-.404c-1.053.094-1.446.155-1.961.227l-.14-.99c.971-.137 2.011-.233 2.011-.233l.09.996m2.982-.977l-.059.999c-1.052-.063-1.475-.061-1.971-.064l.005-1c.752.004.985.003 2.025.065"/></svg>