<svg xmlns="http://www.w3.org/2000/svg" width="24" height="24" viewBox="0 0 24 24"><path d="M12 19c4.5-3.893 8-6.872 8-11.23 0-4.291-3.582-7.77-8-7.77s-8 3.479-8 7.77c0 4.358 3.5 7.337 8 11.23zm-5.761-10h2.761v-2h-2.786c.393-2.446 2.324-4.379 4.786-4.799v2.799h2v-2.799c2.462.42 4.393 2.353 4.786 4.799h-2.786v2h2.761c-.452 2.368-2.354 4.223-4.761 4.632v-2.632h-2v2.632c-2.406-.409-4.309-2.264-4.761-4.632zm13.761 7h-1.801c-.629.673-1.316 1.335-2.041 2h2.605l.5 1h-4.218l-1.146 1h1.025l.858 2h-7.487l.858-2h.947c-.389-.336-.772-.669-1.147-1h-1.995l-1.011-1h1.895c-.725-.664-1.41-1.327-2.039-2h-1.803l-4 8h24l-4-8zm-12.794 6h-3.97l1.764-3.528 1.516 1.528h1.549l-.859 2zm8.808-2h3.75l1 2h-3.892l-.858-2z"/></svg>