<svg xmlns="http://www.w3.org/2000/svg" width="24" height="24" viewBox="0 0 24 24"><path d="M20.03 13.036c.535 0 .969.433.969.968 0 .535-.434.968-.969.968-.534 0-.968-.434-.968-.968 0-.535.434-.968.968-.968zm-3.324 1.056l-.467 1.082c.397.172.82.259 1.253.259.355 0 .705-.059 1.039-.176l-.388-1.112c-.21.073-.43.11-.651.11-.272-.001-.536-.056-.786-.163zm-1.87-9.593c0-2.485 2.052-4.499 4.582-4.499s4.582 2.014 4.582 4.499c0 2.524-2.004 4.248-4.582 6.501-2.578-2.253-4.582-3.978-4.582-6.501zm1.434-.499h1.73v1h-1.747c.187 1.434 1.312 2.56 2.747 2.749v-1.749h1v1.732c1.357-.25 2.402-1.352 2.583-2.732h-1.583v-1h1.566c-.24-1.303-1.263-2.327-2.566-2.566v1.566h-1v-1.583c-1.379.182-2.48 1.227-2.73 2.583zm-.446 9.603l-1.66-.945-.583 1.024 1.659.945.584-1.024zm-7.039 1.004l1.639-.982-.605-1.011-1.639.982.605 1.011zm13.215-3.22v7.5l-4 2.479v-4.366h-1v4.141l-4-2.885v-3.256h-2v3.255l-4 2.885v-4.14h-1v4.365l-4-2.479v-13.294l4 2.479v3.929h1v-3.927l4-2.886v4.813h2v-7.223l-1-.777-5.545 4-6.455-4v18l6.455 4 5.545-4 5.545 4 6.455-4v-10.625c-.591.696-1.275 1.357-2 2.012zm-16.115 2.723l-.407 1.105c.352.129.72.195 1.093.195.415 0 .818-.08 1.201-.237l-.447-1.09c-.24.098-.494.148-.754.148-.235.001-.466-.04-.686-.121zm-2.885-.106c0 .535.434.968.969.968s.969-.434.969-.968c0-.535-.434-.968-.969-.968s-.969.433-.969.968zm7.864-1.948l.401 1.108c.217-.079.443-.119.674-.119.264 0 .521.052.764.153l.453-1.087c-.387-.162-.797-.244-1.217-.244-.367.001-.729.064-1.075.189z"/></svg>