<svg xmlns="http://www.w3.org/2000/svg" width="24" height="24" viewBox="0 0 24 24"><path d="M21.949 11c-.469-4.725-4.224-8.48-8.949-8.95v-2.05h-2v2.05c-4.725.47-8.48 4.225-8.949 8.95h-2.051v2h2.051c.469 4.725 4.224 8.48 8.949 8.95v2.05h2v-2.05c4.725-.469 8.48-4.225 8.949-8.95h2.051v-2h-2.051zm-6.091 2c-.364 1.399-1.459 2.494-2.858 2.858v-1.858h-2v1.858c-1.399-.364-2.494-1.459-2.858-2.858h1.858v-2h-1.858c.364-1.399 1.459-2.494 2.858-2.858v1.858h2v-1.858c1.399.364 2.494 1.459 2.858 2.858h-1.858v2h1.858zm-4.858-8.931v2.021c-2.511.422-4.488 2.399-4.91 4.91h-2.021c.453-3.611 3.32-6.477 6.931-6.931zm-6.931 8.931h2.021c.422 2.511 2.399 4.488 4.91 4.91v2.021c-3.611-.454-6.478-3.32-6.931-6.931zm8.931 6.931v-2.021c2.511-.422 4.488-2.399 4.91-4.91h2.021c-.453 3.611-3.32 6.477-6.931 6.931zm4.91-8.931c-.422-2.511-2.399-4.488-4.91-4.91v-2.021c3.611.454 6.478 3.319 6.931 6.931h-2.021z"/></svg>