<svg xmlns="http://www.w3.org/2000/svg" width="24" height="24" viewBox="0 0 24 24"><path d="M5 19h14v3h-14v-3zm17-12c-1.326 0-2.294 1.272-1.924 2.54.611 2.091-6.357 4.068-7.386-1.604-.262-1.444.021-1.823.728-2.532.359-.36.582-.855.582-1.404 0-1.104-.896-2-2-2s-2 .896-2 2c0 .549.223 1.045.582 1.403.706.71.989 1.089.728 2.532-1.029 5.675-7.996 3.694-7.386 1.604.37-1.267-.598-2.539-1.924-2.539-1.104 0-2 .896-2 2 0 1.22 1.082 2.149 2.273 1.98 1.635-.23 2.727 4.372 2.727 6.02h14c0-1.65 1.092-6.25 2.727-6.019 1.191.168 2.273-.761 2.273-1.981 0-1.104-.896-2-2-2z"/></svg>