<svg xmlns="http://www.w3.org/2000/svg" width="24" height="24" viewBox="0 0 24 24"><path d="M5.531 21c-.828 0-1.5.671-1.5 1.5s.672 1.5 1.5 1.5h12.969c.828 0 1.5-.671 1.5-1.5s-.672-1.5-1.5-1.5h-12.969zm9.469-17h-2v2h-2v-2h-2v-2h2v-2h2v2h2v2zm9 8.125c0 3.219-2.094 5.25-4 6.875h-16c-1.906-1.625-4-3.656-4-6.875 0-4.144 3.006-6.12 6.048-6.12 1.879 0 3.499.666 4.765 1.953-.4.57-.799 1.536-.871 2.212-.971-1.274-2.23-2.165-3.894-2.165-.676 0-4.048.199-4.048 4.12 0 1.933.999 3.304 2.75 4.875h14.5c1.751-1.571 2.75-2.942 2.75-4.875 0-3.921-3.372-4.12-4.048-4.12-3.219 0-4.951 3.349-5.952 6.391-.688-2.066-.296-4.374.823-6.022 1.312-1.554 3.062-2.369 5.129-2.369 3.042 0 6.048 1.976 6.048 6.12z"/></svg>