<svg xmlns="http://www.w3.org/2000/svg" width="24" height="24" viewBox="0 0 24 24"><path d="M22 19v3h-20v-3h20zm0-15c-1.5 0-2.662 1.685-1.598 3.194.535.759.406 1.216.045 1.749-.765 1.127-1.872 2.057-3.447 2.057-2.521 0-3.854-2.083-4.131-3.848-.096-.614-.15-1.074.436-1.644.402-.39.695-.904.695-1.508 0-1.104-.896-2-2-2s-2 .896-2 2c0 .604.293 1.118.695 1.508.586.57.531 1.03.436 1.644-.277 1.765-1.61 3.848-4.131 3.848-1.575 0-2.682-.93-3.447-2.058-.362-.532-.491-.989.045-1.748 1.064-1.509-.098-3.194-1.598-3.194-1.104 0-2 .896-2 2 0 .797.464 1.495 1.144 1.808.825.38.856 1.317.856 2.171v7.021h20v-7.021c0-.854.031-1.792.856-2.171.68-.313 1.144-1.011 1.144-1.808 0-1.104-.896-2-2-2z"/></svg>