<svg xmlns="http://www.w3.org/2000/svg" width="24" height="24" viewBox="0 0 24 24"><path d="M24 5c-3.923 3.265-5.623 4.716-7.15 4.716-2.44 0-3.681-3.675-4.85-7.716-1.165 4.028-2.41 7.715-4.853 7.715-1.513 0-3.168-1.404-7.147-4.715 3.321 7.018 3 14.292 3 17h18c0-1.718-.478-9.65 3-17zm-16.853 6.715c2.295 0 3.787-1.64 4.853-3.761 1.064 2.122 2.556 3.762 4.85 3.762 1.121 0 2.188-.43 3.126-1.042-.432 1.907-.68 3.72-.82 5.326h-14.322c-.138-1.617-.38-3.423-.808-5.324.927.607 2 1.039 3.121 1.039zm-2.14 8.285c-.003-.593-.016-1.267-.047-2h14.065c-.032.745-.046 1.422-.047 2h-13.971z"/></svg>