<svg xmlns="http://www.w3.org/2000/svg" width="24" height="24" viewBox="0 0 24 24"><path d="M5 19h14v3h-14v-3zm18-11c-.729 0-1.295.79-.832 1.521-1.229 1.474-3.371 2.971-4.355 2.438-1.201-.65-.277-3.302.451-4.982.958.15 1.736-.591 1.736-1.477 0-.829-.672-1.5-1.5-1.5s-1.5.671-1.5 1.5c0 .452.204.853.52 1.127-.645 1.643-2.325 3.807-3.41 3.591-1.347-.268-1.69-3.448-1.685-5.287.62-.183 1.075-.751 1.075-1.431 0-.829-.672-1.5-1.5-1.5s-1.5.671-1.5 1.5c0 .68.455 1.248 1.075 1.432.006 1.839-.338 5.019-1.685 5.287-1.084.216-2.765-1.949-3.41-3.592.316-.274.52-.675.52-1.127 0-.829-.672-1.5-1.5-1.5s-1.5.671-1.5 1.5c0 .886.778 1.627 1.736 1.476.729 1.681 1.652 4.333.451 4.982-.984.533-3.127-.964-4.355-2.438.463-.73-.103-1.52-.832-1.52-.553 0-1 .448-1 1 0 .704.726 1.221 1.413.905 1.134 1.264 3.335 4.242 3.587 7.095h14c.252-2.853 2.453-5.831 3.587-7.095.687.316 1.413-.201 1.413-.905 0-.552-.447-1-1-1z"/></svg>