<svg width="24" height="24" xmlns="http://www.w3.org/2000/svg" fill-rule="evenodd" clip-rule="evenodd"><path d="M12 1c-1.562 0-2.833 1.271-2.833 2.833 0 1.053.565 1.759 1.103 2.263-.489 2.814-1.849 3.154-2.853 3.154-1.14 0-1.82-.69-2.473-1.669.389-.522.732-1.13.732-1.941 0-1.548-1.275-2.807-2.843-2.807-1.562 0-2.833 1.271-2.833 2.834 0 1.239.734 2.236 2 2.773v14.56h20v-14.568c1.721-.746 2-2.019 2-2.765 0-1.563-1.271-2.834-2.833-2.834-1.567 0-2.843 1.259-2.843 2.807 0 .778.328 1.411.721 1.92-.707 1.178-1.465 1.69-2.462 1.69-.59 0-2.328 0-2.85-3.157.639-.607 1.341-1.513 1.029-2.885-.297-1.3-1.433-2.208-2.762-2.208zm9 21v-3h-18v3h18zm0-4v-10.273c1.098-.31 2-.925 2-2.06 0-1.012-.821-1.834-1.833-1.834-1.004 0-1.843.824-1.843 1.807 0 .711.433 1.273.934 1.787-.798 1.585-1.88 2.823-3.675 2.823-2.47 0-3.613-1.888-3.913-4.548.77-.664 1.345-1.272 1.117-2.271-.18-.785-.882-1.431-1.787-1.431-1.012 0-1.833.821-1.833 1.833 0 .824.541 1.336 1.171 1.87-.327 2.654-1.43 4.547-3.921 4.547-1.947 0-2.908-1.443-3.697-2.733.483-.6.956-1.13.956-1.877 0-.983-.839-1.807-1.843-1.807-1.012 0-1.833.822-1.833 1.834 0 1.115.909 1.785 2 2.052v10.281h18z"/></svg>