<svg xmlns="http://www.w3.org/2000/svg" width="24" height="24" viewBox="0 0 24 24"><path d="M5.5 21c-.828 0-1.5.671-1.5 1.5s.672 1.5 1.5 1.5h13c.828 0 1.5-.671 1.5-1.5s-.672-1.5-1.5-1.5h-13zm18.5-8.875c0 3.219-2.094 5.25-4 6.875h-16c-1.906-1.625-4-3.656-4-6.875 0-4.144 3.006-6.12 6.048-6.12 1.72 0 3.437.646 4.641 1.875-1.064 3.717 1.311 7.12 1.311 7.12-.629-2.05-.717-5.205 1.764-7.542 1.163-.954 2.676-1.453 4.188-1.453 3.042 0 6.048 1.976 6.048 6.12zm-9-8.125h-2v2h-2v-2h-2v-2h2v-2h2v2h2v2z"/></svg>