<svg xmlns="http://www.w3.org/2000/svg" width="24" height="24" viewBox="0 0 24 24"><path d="M3 19l1 3h16l1-3h-18zm21-7.496c0 1.651-.669 3.586-2.15 5.496h-3.65c1.869-2.59 3.209-6.926 2.082-9.934 1.812 0 3.718 1.622 3.718 4.438zm-5.404-3.103c-.688-3.502-5.596-3.339-5.596.318v8.281h2.531c2.094-1.846 3.577-5.985 3.065-8.599zm-14.878-1.335c-1.127 3.008.213 7.344 2.082 9.934h-3.65c-1.481-1.91-2.15-3.845-2.15-5.496 0-2.816 1.906-4.438 3.718-4.438zm4.751 9.934h2.531v-8.281c0-3.656-4.908-3.82-5.596-.318-.512 2.614.971 6.753 3.065 8.599zm5.531-13c0 1.105-.896 2-2 2-1.105 0-2-.895-2-2s.895-2 2-2c1.104 0 2 .895 2 2z"/></svg>