<svg xmlns="http://www.w3.org/2000/svg" width="24" height="24" viewBox="0 0 24 24"><path d="M12 0l-11 6v12.131l11 5.869 11-5.869v-12.066l-11-6.065zm9 11.623l-3 1.569v-3.26l3-1.601v3.292zm-13-.654l3 1.625v3.186l-3-1.614v-3.197zm.9-1.799l2.986-1.603 3.132 1.688-3.014 1.608-3.104-1.693zm4.1 3.43l3-1.6v3.238l-3 1.569v-3.207zm4.138-4.475l-3.139-1.691 2.801-1.503 3.11 1.715-2.772 1.479zm-2.424-4.345l-2.825 1.517-2.728-1.47 2.834-1.546 2.719 1.499zm-7.649 1.19l2.711 1.46-2.973 1.596-2.67-1.456 2.932-1.6zm-1.065 4.908v3.204l-3-1.636v-3.216l3 1.648zm-3 3.843l3 1.636v3.185l-3-1.611v-3.21zm5 5.888v-3.169l3 1.614v3.146l-3-1.591zm5-1.545l3-1.569v3.104l-3 1.601v-3.136zm5 .468v-3.083l3-1.569v3.051l-3 1.601z"/></svg>