<svg xmlns="http://www.w3.org/2000/svg" width="24" height="24" viewBox="0 0 24 24"><path d="M13 24h-5v-2h-4v-20h4v-2h5v2.003c4.219.103 6.463 2.65 6.463 5.648 0 1.324-.511 2.566-1.491 3.612 1.321 1.138 2.028 2.652 2.028 4.328 0 3.427-2.575 6.284-7 6.405v2.004zm-3-2h1v-1.997l1.71-.003c2.686-.008 4.692-1.176 5.237-3.327.816-3.215-1.325-4.782-2.535-5.226 1.178-.581 2.779-2.253 1.972-4.849-.531-1.709-2.321-2.598-4.67-2.598h-1.714v-2h-1v2h-4v16h4v2zm2.806-3.016h-4.806v-6.984h4.863c4.239 0 4.7 6.984-.057 6.984zm-2.806-1.984h2.806c1.991 0 1.822-3.007.058-3.007h-2.864v3.007zm2.81-6h-4.81v-6h4.688c2.253 0 3.431 1.257 3.431 2.909 0 1.629-1.137 3.091-3.309 3.091zm-2.81-1.994h2.81c1.69 0 1.711-2.006-.122-2.006h-2.688v2.006z"/></svg>