<svg xmlns="http://www.w3.org/2000/svg" width="24" height="24" viewBox="0 0 24 24"><path d="M19.5 15c-2.485 0-4.5 2.015-4.5 4.5s2.015 4.5 4.5 4.5 4.5-2.015 4.5-4.5-2.015-4.5-4.5-4.5zm0 7l-2.5-3h2v-2h1v2h2l-2.5 3zm-4.703 1.974l-.568.026c-6.421 0-10.052-4.152-11.085-9h-3.144l.333-2h2.53c-.044-.666-.042-1.334.007-2h-2.203l.333-2h2.162c1.053-4.848 4.635-9 10.594-9 1.628 0 3.39.28 5.244.832l-.765 3.162c-1.445-.417-2.703-.62-3.836-.62-3.299 0-5.368 2.52-6.154 5.626h7.755l-.333 2h-7.746c-.051.665-.045 1.336.014 2h7.398l-.333 2h-6.716c.688 2.532 2.267 4.65 4.771 5.304.176 1.414.806 2.687 1.742 3.67z"/></svg>