<svg xmlns="http://www.w3.org/2000/svg" width="24" height="24" viewBox="0 0 24 24"><path d="M17.443 22h-11.443v-13h5v8h5.531c1.777 0 2.469-.728 2.469-2.596v-12.404h5v13.316c0 3.623-3.002 6.684-6.557 6.684zm-9.443-2h9.443c2.47 0 4.557-2.145 4.557-4.684v-11.316h-1v10.404c0 2.964-1.587 4.596-4.469 4.596h-7.531v-8h-1v9zm-3 2h-5v-20h11.52c3.633 0 6.48 2.865 6.48 6.523v6.477h-5v-5.564c0-1.694-.227-2.436-2.393-2.436h-5.607v15zm-3-2h1v-15h7.607c4.393 0 4.393 3.108 4.393 4.436v3.564h1v-4.477c0-2.536-1.969-4.523-4.48-4.523h-9.52v16z"/></svg>