<svg xmlns="http://www.w3.org/2000/svg" width="24" height="24" viewBox="0 0 24 24"><path d="M22 0h-17.396l-2.604 5h2.084l-2.084 4h8.863c-.466 1.109-1.597 2-3.354 2h-4.509v5c2.059-.01 1.853-.094 4.395 4.19.554.934 2.297 3.81 2.297 3.81h6.35l-5.26-8.692c1.593-.621 4.93-2.137 5.579-6.308h3.034l2.605-5h-2.084l2.084-4zm-7.742 6h4.445l-.521 1h-3.726c.511 5.67-5.416 7.125-6.562 7.062l4.808 7.938h-1.878c-.663-1.106-1.227-2.016-1.71-2.831-2.351-3.963-3.002-4.896-4.114-5.169v-1h2.51c3.758 0 6.015-2.969 5.518-6h-7.73l.521-1h6.928c-.751-1.781-2.67-3-5.579-3h-1.919l.563-1h12.891l-.521 1h-6.305c1.223.748 2.02 1.828 2.381 3z"/></svg>