<svg xmlns="http://www.w3.org/2000/svg" width="24" height="24" viewBox="0 0 24 24"><path d="M22 12c0-2.22-.732-4.264-1.956-5.923l3.956-3.956-2.121-2.121-3.956 3.956c-1.659-1.224-3.703-1.956-5.923-1.956s-4.264.732-5.923 1.956l-3.956-3.956-2.121 2.121 3.956 3.956c-1.224 1.659-1.956 3.703-1.956 5.923s.732 4.264 1.956 5.923l-3.956 3.956 2.121 2.121 3.956-3.956c1.659 1.224 3.703 1.956 5.923 1.956s4.264-.732 5.923-1.956l3.956 3.956 2.121-2.121-3.956-3.956c1.224-1.659 1.956-3.703 1.956-5.923zm-17 0c0-3.859 3.14-7 7-7 3.859 0 7 3.141 7 7s-3.141 7-7 7c-3.86 0-7-3.141-7-7z"/></svg>