<svg xmlns="http://www.w3.org/2000/svg" width="24" height="24" viewBox="0 0 24 24"><path d="M17.728 20.517c-3.488 0-5.613-2.461-6.443-5.517h6.715l.333-2h-7.398c-.059-.664-.064-1.335-.014-2h7.746l.333-2h-7.755c.786-3.106 2.855-5.626 6.154-5.626 1.133 0 2.391.203 3.836.62l.765-3.162c-1.854-.552-3.616-.832-5.244-.832-5.959 0-9.541 4.152-10.594 9h-2.162l-.333 2h2.203c-.049.666-.051 1.334-.007 2h-2.53l-.333 2h3.145c1.033 4.848 4.664 9 11.085 9 1.5 0 3.004-.276 4.476-.821l-.883-3.23c-1.048.378-2.088.568-3.095.568z"/></svg>