<svg xmlns="http://www.w3.org/2000/svg" width="24" height="24" viewBox="0 0 24 24"><path d="M21.646 2.763c-2.156-2.803-4.867-2.763-8.298-2.763h-9.348v10h-3v9h3v5h6v-5h7v-4.446c3.804-.724 6-3.531 6-7.264 0-1.683-.402-3.29-1.354-4.527zm-2.647 8.851c-1.497 1.041-2.976 1.386-6.393 1.386h-4.606v3h7v1h-7v5.04h-2v-5.04h-3v-1h3v-3h-3v-1h3v-10h7.348c3.326 0 5.158-.04 6.714 1.982.673.875 1.059 2.082 1.059 3.308-.001 1.785-.793 3.401-2.122 4.324zm-4.48-8.614h-6.519v9h6.816c3.312 0 5.1-2.369 5.1-4.673 0-3.096-2.277-4.327-5.397-4.327zm.297 7h-4.816v-5h4.519c1.804 0 3.397.554 3.397 2.327 0 1.368-1.064 2.673-3.1 2.673z"/></svg>