<svg xmlns="http://www.w3.org/2000/svg" width="24" height="24" viewBox="0 0 24 24"><path d="M12 0c-2.762 0-5 2.238-5 5s2.238 5 5 5 5-2.238 5-5-2.238-5-5-5zm.25 7.474v.526h-.5v-.499c-.518-.009-1.053-.132-1.5-.363l.228-.822c.478.186 1.114.383 1.612.271.574-.131.692-.722.057-1.006-.465-.217-1.889-.402-1.889-1.621 0-.682.52-1.292 1.492-1.426v-.534h.5v.509c.361.01.768.073 1.221.21l-.181.824c-.384-.135-.808-.258-1.222-.232-.744.043-.81.688-.29.958.855.402 1.972.7 1.972 1.772.002.859-.672 1.316-1.5 1.433zm-.25 6.526c-2.762 0-5 2.238-5 5s2.238 5 5 5 5-2.238 5-5-2.238-5-5-5zm.989 4.312l-.075.458h-1.775c-.012.153-.011.306.002.459h1.695l-.075.458h-1.539c.189.7.677 1.264 1.476 1.264.231 0 .47-.043.71-.129l.202.74c-.337.124-.682.188-1.025.188-1.472 0-2.304-.951-2.541-2.062h-.72l.075-.458h.58c-.01-.153-.01-.306.002-.459h-.504l.075-.458h.496c.241-1.111 1.062-2.062 2.428-2.062.372 0 .776.064 1.201.19l-.175.725c-.332-.095-.62-.142-.879-.142-.756 0-1.23.577-1.41 1.289h1.776zm8.588-8.925c1.233 2.352 1.548 6.801-2.585 9.756.019-.882-.113-1.706-.436-2.572 2.113-1.744 2.051-4.264 1.193-6.234l-2.377 1.236 1.596-5.182 5.032 1.737-2.423 1.259zm-19.154 5.611c-1.233-2.352-1.46-7.146 2.672-10.101-.019.882.114 1.707.436 2.572-2.114 1.745-2.139 4.609-1.281 6.58l2.377-1.236-1.596 5.182-5.031-1.738 2.423-1.259z"/></svg>