<svg xmlns="http://www.w3.org/2000/svg" width="24" height="24" viewBox="0 0 24 24"><path d="M16.837 18.813c-2.407 0-3.711-1.478-4.403-2.813h5.436l1.262-8h-6.783c.65-1.372 1.885-2.913 4.184-2.913 1.58 0 2.992.449 4.287.818l1.18-4.83c-1.381-.408-3.48-1.075-6.064-1.075-5.988 0-9.29 3.961-10.524 8h-2.15l-1.262 8h3.395c1.238 4.04 4.659 8 10.98 8 2.496 0 4.235-.719 5.362-1.131l-1.349-4.884c-1.156.413-2.136.828-3.551.828zm-.462 3.194c-4.814 0-8.508-2.817-9.373-8.007h-2.604l.141-1h2.33c-.057-.69-.048-1.358.007-2h-2.024l.156-1h2.001c.845-4.711 4.086-8.007 8.927-8.007 1.141 0 2.365.159 3.651.473l-.238.973c-1.02-.232-1.948-.345-2.816-.345-3.825 0-6.222 2.979-6.865 6.906h7.121l-.156 1h-7.087c-.052.669-.047 1.337.011 2h6.778l-.172 1h-6.475c.712 4.002 3.276 6.807 7.148 6.807.713 0 1.439-.09 2.169-.268l.292 1.059c-.968.272-1.948.409-2.922.409z"/></svg>