<svg xmlns="http://www.w3.org/2000/svg" width="24" height="24" viewBox="0 0 24 24"><path d="M19.365 17.737c-1.764.844-2.1 1.062-3.359 1.062-1.619 0-2.84-1.019-4.734-1.171.411-.728.797-1.588.996-2.627h3.732v-5h-4.266c-1.082-2.112-1.271-5.133 1.1-5.133 1.742 0 2.182 1.751 2.49 2.751l5.127-.751c-.789-4.906-3.596-6.868-7.482-6.868-5.059 0-8.852 3.87-7.68 10h-2.289v5h3.169c-.056 2.332-1.398 3.058-3.169 4.546l2.562 4.454c1.18-.705 2.414-1.125 4.172-1.125 2.059 0 3.979 1.125 6.771 1.125 2.154-.014 3.359-.768 4.494-1.415l-1.634-4.848zm-6.254 3.721c-2.062-.557-4.756-.98-6.668-.062l-.848-1.427c2.681-2.422 2.856-4.728 2.471-6.969h-3.066v-1h2.863c-.611-2.665-1.614-5.247.34-7.829 1.047-1.384 2.828-2.211 4.766-2.211.709 0 4.021.169 5.098 3.234l-1.405.206c-.768-1.563-2.199-2.533-3.828-2.533-1.295 0-2.439.632-3.141 1.734-1.781 2.797-.068 4.868.531 7.399h3.776v1h-3.613c.128 1.449-.243 3.077-1.859 5.077l.943 1.771c1.32-.447 2.35-.154 3.545.286 1.574.579 3.275.992 5.166.33l.396 1.159c-1.808.763-3.582.345-5.467-.165z"/></svg>