<svg xmlns="http://www.w3.org/2000/svg" width="24" height="24" viewBox="0 0 24 24"><path d="M19.203 22h-5.041l-2.19-8.503-2.132 8.503h-5.117l-2.677-11h-2.046v-5h.829l-.829-4h5.354l.974 4h2.271l.997-4h4.827l1.018 4h2.305l.969-4h5.285l-.844 4h.844v5h-2.079l-2.718 11zm-3.49-2h1.924l2.718-11h1.645v-1h-1.398l.989-4h-1.304l-.969 4h-5.434l-1.018-4h-1.71l-.996 4h-5.404l-.973-4h-1.383l.974 4h-1.374v1h1.617l2.677 11h1.985l2.758-11h1.842l2.834 11zm-8.287-1.027l-2.427-9.973h4.913l-2.486 9.973zm9.245-.031l-2.53-9.942h4.936l-2.406 9.942zm-3.962-10.942l-.709-2.656-.729 2.656h1.438z"/></svg>