<svg xmlns="http://www.w3.org/2000/svg" width="24" height="24" viewBox="0 0 24 24"><path d="M11.613 9.36c0-3.102-2.354-5.36-5.542-5.36h-6.071v15.957h3v-6.114c1.544 0 1.022-.237 4.839 6.115h3.774l-3.965-6.238c2.126-.307 3.965-2.335 3.965-4.36zm-6.919 2.271h-1.694v-5.161h1.445c5.253 0 4.773 5.161.249 5.161zm15.306 7.904v2.465h-2v-2.262c-1.671.001-3.415-.382-4.839-1.118l.704-2.546c1.48.575 3.45 1.185 4.993.835 1.78-.403 2.144-2.233.178-3.113-1.443-.671-5.851-1.247-5.851-5.022 0-2.183 1.706-4.077 4.814-4.435v-2.339h2v2.32c.956.078 2.001.272 3.137.617l-.562 2.551c-1.188-.417-2.502-.797-3.781-.719-2.306.135-2.509 2.131-.899 2.966 2.649 1.245 6.106 2.169 6.106 5.49.004 2.44-1.745 3.818-4 4.31z"/></svg>