<svg xmlns="http://www.w3.org/2000/svg" width="24" height="24" viewBox="0 0 24 24"><path d="M7 14h3.729c2.773 0 4.822-.728 6.089-2.004.783-.789 1.229-1.801 1.365-2.996h-11.183v5zm2-3h5.903c-1.031.733-2.549 1-4.174 1h-1.729v-1zm11.712-5c-.939-3.547-4.159-6-8.472-6h-9.24v6h-3v5h3v13h6v-7h1.924c5.349 0 8.659-2.258 9.711-6h3.365v-5h-3.288zm1.288 3h-2.765c-.441 4.695-4.702 6-8.312 6h-3.923v7.04h-2v-13.04h-3v-1h3v-6.04h7.24c4.008 0 6.928 2.53 7.029 6.04h2.731v1zm-10.735-6h-4.265v5h11.233c-.122-3.202-2.83-5-6.968-5zm-2.265 3v-1h2.265c.792 0 2.805-.011 4.015 1h-6.28z"/></svg>