<svg xmlns="http://www.w3.org/2000/svg" width="24" height="24" viewBox="0 0 24 24"><path d="M19 16.166c0-3.529-3.023-4.962-6-6.255v-4.653c1.42.052 2.85.453 4.16.914l.725-3.295c-1.814-.551-3.438-.803-4.885-.841v-2.036h-2v2.134c-3.891.535-5.969 2.975-5.969 5.7 0 3.857 3.558 5.126 5.969 5.919v4.712c-1.706-.019-3.592-.62-5.091-1.202l-.909 3.288c1.787.923 3.931 1.417 6 1.453v1.996h2v-2.105c3.312-.464 6.005-2.293 6-5.729zm-8-10.643v3.482c-1.611-.921-1.678-2.771 0-3.482zm2 12.601v-3.591c1.841 1.065 1.605 2.864 0 3.591z"/></svg>