<svg xmlns="http://www.w3.org/2000/svg" width="24" height="24" viewBox="0 0 24 24"><path d="M12.236 8.433c-1.084-.563-.955-1.54.665-1.634 1.732-.102 3.512.594 5.148 1.171l1.104-5.021c-1.527-.464-2.898-.737-4.153-.881v-2.068h-5v2.364c-3.326.969-4.792 3.47-4.792 5.816 0 5.245 5.964 6.138 7.513 6.858 1.38.618 1.215 1.526-.022 1.805-1.969.449-4.807-.743-6.357-1.345l-1.342 4.857c1.635.845 3.344 1.374 5 1.618v2.027h5v-2.236c2.932-.784 5.005-2.806 5-5.944 0-4.631-4.717-5.96-7.764-7.387zm.764 11.688v1.879h-1v-1.826c-1.581.012-3.234-.294-4.64-.88l.321-1.162c2.26.77 4.036.978 5.458.655 3.025-.685 3.608-4.13.41-5.562-1.809-.843-6.349-1.39-6.349-5.045 0-2.103 1.692-3.89 4.799-4.254v-1.926h1v1.863c1.123-.02 2.391.121 3.808.479l-.225 1.022c-1.176-.358-2.503-.632-3.799-.555-3.716.218-4.297 3.924-1.43 5.411 3.179 1.497 6.655 2.423 6.655 5.602.005 2.699-2.277 4.027-5.008 4.299z"/></svg>