<svg xmlns="http://www.w3.org/2000/svg" width="24" height="24" viewBox="0 0 24 24"><path d="M19.888 19.744c-1.229.588-1.88.732-3.018.732-2.735 0-4.233-2.064-7.453-.977.489-.641 2.698-3 2.431-6.5h4.152v-1.988h-4.559c-.708-2.295-1.913-4.278-.517-6.471 1.441-2.263 4.976-1.733 5.967 1.484l3.561-.521c-.654-4.05-4.069-5.503-6.884-5.503-4.528 0-9.066 3.621-6.973 11.012h-2.595v1.988h3.068c.692 3.823-.458 5.797-2.958 7.901l1.796 3.099c4.771-2.849 7.205 0 11.499 0 1.296-.008 2.394-.309 3.595-.994l-1.112-3.262z"/></svg>