<svg xmlns="http://www.w3.org/2000/svg" width="24" height="24" viewBox="0 0 24 24"><path d="M15.82 16.95c-2.439.001-5.31-1.298-5.369-4.958-.069-4.243 3.685-5.875 7.484-4.829l1.017.28 1.048-4.751c-.99-.28-2.24-.677-4-.781v-1.911h-5v2.51c-4.188 1.346-7.044 4.812-6.999 9.771.05 5.447 3.315 8.23 6.999 9.264v2.455h5v-2.04c1.77-.168 3.067-.609 3.947-.884l-.775-4.737c-1.202.329-2.06.611-3.352.611zm-1.234 3.081l-.586-.019v1.988h-1v-2.074c-3.588-.479-6.951-2.668-6.997-7.662-.042-4.624 2.912-7.476 6.997-8.195v-2.069h1v1.936c.364-.031.733-.053 1.111-.053.847 0 1.691.085 2.52.254l-.191.867c-4.87-.854-9.075 1.934-8.992 7.021.068 4.143 3.03 6.926 7.372 6.925.569 0 1.146-.05 1.726-.148l.14.855c-1.019.246-2.076.374-3.1.374z"/></svg>