<svg xmlns="http://www.w3.org/2000/svg" width="24" height="24" viewBox="0 0 24 24"><path d="M8.266 19.381l-3.916-1.769-1.009-4.099c9.388-11.246 12.234-13.513 15.775-13.513 2.783 0 4.884 2.112 4.884 4.57 0 1.722-1.042 3.804-4.087 4.782-.745.239-2.322.746-3.853 2.277l-7.794 7.752zm-2.206-3.191l1.77.799 6.817-6.775c1.438-1.438 3.294-2.331 4.655-2.767 1.894-.608 2.893-1.808 2.673-3.209-.174-1.112-1.212-2.238-2.859-2.238-2.515 0-6.02 2.287-13.602 11.978l.546 2.212zm-4.09 5.703l-.716-2.699 1.939-1.939-.282-1.219-2.911 2.911 1.364 5.053 4.52-4.52-1.049-.452-2.865 2.865zm14.694-16.869c-.473-.472-1.236-.472-1.709 0l-7.534 7.534.841 2.576 8.401-8.401c.472-.472.472-1.237.001-1.709zm-8.012 8.481l-.231-.708 1.756-1.756c.113.205.279.362.473.465l-1.998 1.999zm7.392-7.392l-2.446 2.447c-.104-.194-.259-.359-.465-.473l2.441-2.442c.131-.13.34-.129.47 0 .13.128.13.338 0 .468z"/></svg>