<svg xmlns="http://www.w3.org/2000/svg" width="24" height="24" viewBox="0 0 24 24"><path d="M18.621 10.219c.177.177.177.463 0 .64l-.969.969c-.177.177-.463.177-.64 0s-.177-.463 0-.64l.969-.969c.177-.177.463-.177.64 0zm-4.889 2.926l.406 1.739 1.534.662s3.567-3.254 4.356-4.043c.877-.877 1.496-1.206 2.042-1.382 1.413-.454 1.971-1.384 1.927-2.246-.049-.982-.878-1.875-2.113-1.875-1.791 0-3.79 1.544-8.152 7.145zm6.976-4.08l-4.55 4.55-.456-1.395 4.08-4.081c.256-.255.67-.255.926 0 .255.257.255.671 0 .926zm-7.725 7.884l-.357-1.346.967-.967-.141-.608-1.451 1.452.68 2.52 2.254-2.254-.522-.226-1.43 1.429zm-9.983-.949h-3v2h3v-2zm4 0h-3v2h3v-2zm4 0h-3v2h3.516l-.516-2z"/></svg>