<svg xmlns="http://www.w3.org/2000/svg" width="24" height="24" viewBox="0 0 24 24"><path d="M14.031 11.852c0 .323-.262.585-.585.585-.323 0-.585-.262-.585-.585s.263-.585.585-.585c.323 0 .585.262.585.585zm6.982 5.106c-.372.774-1.19 1.256-2.135 1.256-.431 0-.87-.102-1.271-.295-1.315-.636-1.93-2.102-1.37-3.267.562-1.171 2.087-1.599 3.405-.959 1.315.636 1.93 2.1 1.371 3.265zm-2.015-1.932c-.53-.257-1.212-.174-1.425.267-.203.423.108 1.014.68 1.291.555.27 1.231.133 1.424-.268.203-.423-.108-1.013-.679-1.29zm-2.792-5.683c-.557-1.167.061-2.63 1.378-3.264.399-.191.836-.292 1.264-.292.948 0 1.768.483 2.14 1.261.557 1.167-.062 2.63-1.379 3.262-1.307.629-2.837.216-3.403-.967zm1.337-.639c.187.391.814.562 1.424.271.572-.275.885-.866.683-1.289-.123-.257-.431-.417-.802-.417-.208 0-.422.05-.622.146-.573.275-.885.865-.683 1.289zm-7.582 6.199c-1.955.903-3.759 1.723-4.211 1.94-1.005.483-2.127-.25-2.765-1.127l4.333-2.096-2.264-1.099-5.054 2.445c.959 1.472 2.503 4.011 5.072 4.011.532 0 1.048-.119 1.535-.353.233-.112 3.676-1.677 5.66-2.602l-2.306-1.119zm14.039 1.155c0 2.772-2.254 4.942-5.132 4.942-2.813 0-5.61-2.169-5.618-5.609l-13.208-6.398c.969-1.48 2.52-4.003 5.077-4.003.534 0 1.053.12 1.542.356 0 0 4.698 2.122 6.557 3.022.042-2.916 2.576-5.368 5.621-5.368 2.878 0 5.133 2.17 5.133 4.942 0 1.53-.718 3.007-1.906 4.045 1.204 1.039 1.934 2.529 1.934 4.071zm-1.976 0c0-1.231-.766-2.458-2.032-3.098-1.388-.701-1.841.008-3.848-.973 1.962-.946 2.429-.25 3.812-.944 1.27-.638 2.039-1.867 2.039-3.101 0-1.642-1.354-2.966-3.157-2.966-2.257 0-4.064 2.084-3.562 4.153.201.825-.234.936-.897 1.255l-.769.37c-3.063-1.485-6.925-3.201-7.81-3.629-1.004-.484-2.128.244-2.767 1.121l11.381 5.359c.663.321 1.097.433.894 1.258-.514 2.096 1.324 4.162 3.561 4.162 1.798-.001 3.155-1.321 3.155-2.967z"/></svg>