<svg xmlns="http://www.w3.org/2000/svg" width="24" height="24" viewBox="0 0 24 24"><path d="M13.241 8.437c.353.354.353.926 0 1.28l-1.938 1.938c-.354.353-.926.353-1.28 0-.354-.354-.354-.927 0-1.28l1.938-1.938c.353-.353.926-.353 1.28 0zm-9.779 5.852l.812 3.478 3.069 1.323s7.134-6.507 8.712-8.085c1.754-1.754 2.992-2.413 4.085-2.764 2.825-.907 3.941-2.768 3.854-4.492-.098-1.964-1.757-3.749-4.228-3.749-3.582 0-7.579 3.088-16.304 14.289zm13.952-8.158l-9.1 9.1-.911-2.79 8.161-8.161c.511-.511 1.34-.511 1.851 0 .51.512.51 1.34-.001 1.851zm-15.45 15.768l-.714-2.691 1.934-1.934-.281-1.216-2.903 2.903 1.36 5.039 4.507-4.507-1.046-.451-2.857 2.857z"/></svg>