<svg xmlns="http://www.w3.org/2000/svg" width="24" height="24" viewBox="0 0 24 24"><path d="M12.93 6.328c.266.265.266.695 0 .96l-1.453 1.454c-.265.265-.694.265-.959 0-.266-.265-.266-.695 0-.96l1.453-1.454c.264-.265.694-.265.959 0zm-7.333 4.388l.609 2.609 2.302.992s5.351-4.88 6.535-6.063c1.315-1.316 2.244-1.81 3.063-2.073 2.119-.681 2.955-2.076 2.89-3.369-.074-1.473-1.318-2.812-3.172-2.812-2.686 0-5.684 2.316-12.227 10.716zm10.464-6.118l-6.825 6.825-.684-2.092 6.121-6.121c.383-.383 1.005-.383 1.388 0 .382.384.382 1.005 0 1.388zm-11.587 11.826l-.536-2.019 1.451-1.451-.211-.912-2.178 2.179 1.021 3.779 3.38-3.38-.784-.338-2.143 2.142zm.192 2.576c-1.015 1.5-1.666 2.437-1.666 3.349 0 .912.744 1.651 1.666 1.651s1.666-.739 1.666-1.651-.651-1.849-1.666-3.349zm-.006 1.066c.098.151.215.414.215.692 0 .814-.834.947-.834.452 0-.34.414-.842.619-1.144z"/></svg>