<svg xmlns="http://www.w3.org/2000/svg" width="24" height="24" viewBox="0 0 24 24"><path d="M24 11.044c0 1.64-1.352 2.956-3.146 2.956-.533 0-1.083-.119-1.605-.373-1.511-.731-2.296-2.333-1.943-3.774.203-.822-.23-.934-.891-1.253l-11.036-5.341s1.322-1.812 2.76-1.117c.881.427 4.424 2.136 7.477 3.617l.766-.368c.662-.319 1.094-.43.895-1.252-.351-1.442.439-3.043 1.952-3.77.52-.251 1.067-.369 1.595-.369 1.799 0 3.147 1.32 3.147 2.956 0 1.23-.766 2.454-2.032 3.091-1.266.634-2.15.14-3.406.75l-.394.19.431.21c1.254.614 2.142.122 3.404.759 1.262.638 2.026 1.861 2.026 3.088zm-5.133-7.011c.381.795 1.459 1.072 2.406.617.945-.455 1.405-1.472 1.027-2.267-.381-.796-1.46-1.073-2.406-.618-.946.455-1.408 1.472-1.027 2.268zm-2.834 2.819c0-.322-.261-.583-.583-.583-.321 0-.583.261-.583.583s.262.583.583.583c.322.001.583-.261.583-.583zm5.272 2.499c-.945-.457-2.025-.183-2.408.611-.381.795.078 1.814 1.022 2.271.945.458 2.024.184 2.406-.611.382-.795-.075-1.814-1.02-2.271zm-15.972 1.352s1.317 1.815 2.755 1.124l6.598-3.181-2.539-1.229-6.814 3.286zm.105 10.316l-.771 1.87c-1.53-.838-2.733-2.076-3.537-3.526l1.866-.777c.587.982 1.413 1.827 2.442 2.433zm-.022-12.018l-.779-1.866c-1.449.803-2.687 2.007-3.526 3.537l1.868.771c.61-1.03 1.452-1.856 2.437-2.442zm-3.197 4.291l-1.869-.77c-.237.819-.35 1.649-.35 2.469 0 .861.125 1.711.363 2.526l1.865-.777c-.287-1.107-.302-2.289-.009-3.448zm13.741-.106l-.191.08c.284 1.107.302 2.289.009 3.447l1.87.77c.218-.756.316-1.521.332-2.281-.859-.503-1.546-1.203-2.02-2.016zm-3.379 7.817l.776 1.866c1.452-.803 2.689-2.006 3.527-3.538l-1.87-.77c-.607 1.029-1.45 1.856-2.433 2.442zm-5.293.778l-.771 1.87c.821.236 1.652.349 2.473.349.86 0 1.709-.124 2.523-.362l-.779-1.866c-1.106.285-2.288.303-3.446.009z"/></svg>