<svg xmlns="http://www.w3.org/2000/svg" width="24" height="24" viewBox="0 0 24 24"><path d="M8 16h-3v2h3v-2zm14.554-.317c-.902-.456-1.536-.104-2.432-.542l-.308-.15.281-.136c.896-.436 1.528-.083 2.433-.536.904-.455 1.451-1.329 1.451-2.208 0-1.168-.963-2.111-2.248-2.111-.377 0-.768.084-1.141.263-1.08.52-1.645 1.663-1.394 2.693.142.588-.166.667-.64.895l-.547.263-.011-.005v-3.494c.002-2.392-6.646-9.615-9.809-9.615h-8.189v22h18v-6.058l-2-.942h-3v2h3v3h-14v-18h5.362c4.156 0 2.638 6 2.638 6s6-1.65 6 2.457v1.683l-3.329-1.609c-1.026-.496-1.971.798-1.971.798l7.882 3.814c.472.229.781.309.637.896-.252 1.029.309 2.173 1.388 2.696.372.18.765.265 1.146.265 1.282 0 2.247-.94 2.247-2.111 0-.877-.545-1.75-1.446-2.206zm-1.487-4.423c.676-.325 1.447-.127 1.719.442.271.568-.059 1.294-.733 1.619-.677.325-1.447.127-1.719-.441-.272-.568.058-1.295.733-1.62zm-3.173 4.051c-.229 0-.417-.187-.417-.417 0-.23.188-.417.417-.417s.416.187.416.417c0 .23-.187.417-.416.417zm4.91 2.99c-.272.568-1.043.764-1.719.437-.675-.326-1.002-1.054-.73-1.622.273-.567 1.045-.763 1.721-.437.674.327 1 1.054.728 1.622zm-13.804-2.301h3v2h-3v-2z"/></svg>