<svg xmlns="http://www.w3.org/2000/svg" width="24" height="24" viewBox="0 0 24 24"><path d="M12 0c-6.627 0-12 5.373-12 12s5.373 12 12 12 12-5.373 12-12-5.373-12-12-12zm0 10.755c.76 0 1.377.605 1.377 1.351s-.617 1.351-1.377 1.351-1.377-.604-1.377-1.351c0-.746.617-1.351 1.377-1.351zm-3.004-3.755l1.741 2.959c-.708.418-1.189 1.169-1.226 2.041h-3.511c.039-2.137 1.23-3.998 2.996-5zm3.004 11c-1.094 0-2.121-.287-3.004-.789l1.741-2.959c.372.219.8.354 1.263.354s.891-.134 1.263-.354l1.741 2.959c-.883.502-1.91.789-3.004.789zm2.489-6c-.037-.873-.519-1.623-1.227-2.041l1.742-2.959c1.766 1.002 2.957 2.863 2.996 5h-3.511z"/></svg>