<svg xmlns="http://www.w3.org/2000/svg" width="24" height="24" viewBox="0 0 24 24"><path d="M15 11c-1.104 0-2-.896-2-2s.896-2 2-2 2 .896 2 2-.896 2-2 2zm1.044 8.956c0 2.233-1.811 4.044-4.044 4.044s-4.044-1.811-4.044-4.044c0-2.233 1.811-4.044 4.044-4.044s4.044 1.81 4.044 4.044zm-3.635-1.928c0 .354.288.642.642.642s.642-.288.642-.642c0-.354-.288-.642-.642-.642s-.642.289-.642.642zm-2.142 0c0 .354.287.642.641.642.354 0 .642-.288.642-.642 0-.354-.287-.642-.642-.642-.354.001-.641.289-.641.642zm.13 1.928c0-.354-.288-.642-.642-.642s-.642.288-.642.642c0 .354.288.642.642.642s.642-.288.642-.642zm1.152 1.927c0-.354-.287-.641-.642-.641-.354 0-.641.288-.641.641 0 .354.287.642.641.642.355-.001.642-.288.642-.642zm.451-1.286c.354 0 .642-.288.642-.642 0-.354-.288-.642-.642-.642s-.642.288-.642.642c0 .355.288.642.642.642zm1.692 1.286c0-.354-.288-.641-.642-.641s-.642.288-.642.641c0 .354.288.642.642.642s.642-.288.642-.642zm1.194-1.927c0-.354-.288-.642-.642-.642s-.641.288-.641.642c0 .354.287.642.641.642s.642-.288.642-.642zm-2.886-19.956c-4.545 0-9 3.456-9 8 0 2.753 2.025 6.077 3.907 8.714.359-.562.814-1.054 1.334-1.47-1.21-1.972-3.241-4.943-3.241-7.244 0-3.536 3.689-6 7-6s7 2.464 7 6c0 2.297-1.985 5.174-3.263 7.225.516.41.971.895 1.331 1.449 1.932-2.674 3.932-5.919 3.932-8.674 0-4.544-4.456-8-9-8zm-1 9c0-1.104-.896-2-2-2s-2 .896-2 2 .896 2 2 2 2-.896 2-2z"/></svg>