<svg xmlns="http://www.w3.org/2000/svg" width="24" height="24" viewBox="0 0 24 24"><path d="M12 0c-4.544 0-9 3.456-9 8 0 2.753 2.025 6.077 3.907 8.714 1.074-1.682 2.953-2.802 5.093-2.802 2.123 0 3.989 1.102 5.068 2.762 1.932-2.674 3.932-5.919 3.932-8.674 0-4.544-4.456-8-9-8zm-3.498 11c-1.38 0-2.5-1.119-2.5-2.5s1.12-2.5 2.5-2.5c1.381 0 2.5 1.119 2.5 2.5s-1.119 2.5-2.5 2.5zm7 0c-1.381 0-2.5-1.119-2.5-2.5s1.119-2.5 2.5-2.5 2.5 1.119 2.5 2.5-1.119 2.5-2.5 2.5zm-3.502 4.912c-2.233 0-4.044 1.811-4.044 4.044 0 2.233 1.811 4.044 4.044 4.044s4.044-1.811 4.044-4.044c0-2.234-1.811-4.044-4.044-4.044zm1.051 1.475c.354 0 .642.288.642.642 0 .354-.288.642-.642.642s-.642-.288-.642-.642c0-.354.288-.642.642-.642zm-2.144 0c.354 0 .642.288.642.642 0 .354-.287.642-.642.642-.354 0-.641-.288-.641-.642.001-.354.288-.642.641-.642zm-1.151 3.21c-.354 0-.642-.288-.642-.642 0-.354.288-.642.642-.642s.642.288.642.642c-.001.355-.289.642-.642.642zm1.151 1.927c-.354 0-.641-.288-.641-.642 0-.354.287-.641.641-.641.354 0 .642.288.642.641 0 .355-.287.642-.642.642zm.451-2.568c0-.354.288-.642.642-.642s.642.288.642.642c0 .354-.288.642-.642.642s-.642-.288-.642-.642zm1.693 2.568c-.354 0-.642-.288-.642-.642 0-.354.288-.641.642-.641s.642.288.642.641c-.001.355-.289.642-.642.642zm1.193-1.927c-.354 0-.641-.288-.641-.642 0-.354.287-.642.641-.642s.642.288.642.642c0 .355-.288.642-.642.642z"/></svg>