<svg xmlns="http://www.w3.org/2000/svg" width="24" height="24" viewBox="0 0 24 24"><path d="M12 13.913c1.521 0 2.753-1.21 2.753-2.702 0-1.491-1.232-2.701-2.753-2.701s-2.753 1.21-2.753 2.701c0 1.492 1.232 2.702 2.753 2.702zm2.525-6.995l3.484-5.918c3.531 2.005 5.914 5.727 5.991 10h-7.021c-.075-1.745-1.038-3.246-2.454-4.082zm0 8.586l3.483 5.918c-1.767 1.004-3.82 1.578-6.008 1.578s-4.241-.574-6.008-1.578l3.482-5.918c.744.438 1.6.708 2.526.708s1.782-.269 2.525-.708zm-7.504-4.504h-7.021c.077-4.273 2.46-7.995 5.992-10l3.483 5.919c-1.417.835-2.379 2.336-2.454 4.081z"/></svg>