<svg xmlns="http://www.w3.org/2000/svg" width="24" height="24" viewBox="0 0 24 24"><path d="M12 3.385c-4.681 0-8.475 3.794-8.475 8.475 0 3.229 1.818 6.019 4.475 7.449v2.582c.672.906 2 1.109 2 1.109v-2h1v1.999h2v-1.999h1v2s1.328-.203 2-1.109v-2.582c2.657-1.431 4.475-4.22 4.475-7.449 0-4.681-3.794-8.475-8.475-8.475zm-4 11.615c-1.381 0-2.5-1.119-2.5-2.5 0-1.38 1.12-2.5 2.5-2.5s2.5 1.12 2.5 2.5c0 1.381-1.119 2.5-2.5 2.5zm2 2l2-2.541 2 2.541h-4zm6-2c-1.38 0-2.5-1.119-2.5-2.5 0-1.38 1.12-2.5 2.5-2.5 1.381 0 2.5 1.12 2.5 2.5 0 1.381-1.119 2.5-2.5 2.5zm4.54 2.904l3.46 3.46-2.636 2.636-3.48-3.48c1.035-.705 1.931-1.595 2.656-2.616zm-17.2-11.928l-3.34-3.339 2.636-2.637 3.32 3.32c-1.021.724-1.911 1.621-2.616 2.656zm14.704-2.656l3.32-3.32 2.636 2.637-3.34 3.339c-.705-1.035-1.595-1.932-2.616-2.656zm-11.928 17.2l-3.48 3.48-2.636-2.636 3.46-3.46c.725 1.021 1.621 1.911 2.656 2.616z"/></svg>