<svg xmlns="http://www.w3.org/2000/svg" width="24" height="24" viewBox="0 0 24 24"><path d="M12 0c-6.627 0-12 5.373-12 12s5.373 12 12 12 12-5.373 12-12-5.373-12-12-12zm-.757 2.14c.255-.02.51-.029.757-.029s.502.01.757.029v3.115c-.251-.028-.505-.042-.757-.042s-.506.014-.757.042v-3.115zm-5.765 7.977l-2.879-1.193c.156-.478.351-.948.58-1.399l2.879 1.193c-.245.443-.44.913-.58 1.399zm1.217-2.35l-2.202-2.204c.329-.383.688-.742 1.071-1.071l2.203 2.203c-.396.317-.755.676-1.072 1.072zm.794-4.569c.449-.231.918-.428 1.396-.586l1.205 2.874c-.486.142-.954.339-1.396.586l-1.205-2.874zm4.511 14.31c-1.358 0-2.459-1.101-2.459-2.459 0-.927.513-1.734 1.27-2.153l1.189-5.572 1.189 5.572c.757.419 1.271 1.226 1.271 2.153-.001 1.358-1.102 2.459-2.46 2.459zm1.884-12.029l1.193-2.879c.479.157.948.352 1.399.581l-1.193 2.878c-.444-.246-.913-.44-1.399-.58zm2.349 1.216l2.203-2.203c.383.329.742.688 1.071 1.071l-2.203 2.203c-.316-.395-.675-.754-1.071-1.071zm2.259 3.321c-.147-.483-.35-.95-.603-1.39l2.86-1.238c.235.445.437.912.602 1.39l-2.859 1.238z"/></svg>