<svg xmlns="http://www.w3.org/2000/svg" width="24" height="24" viewBox="0 0 24 24"><path d="M20.043 10.76c-.141-.427-.314-.844-.516-1.242l-2.454 1.106c.217.393.39.81.517 1.242l2.453-1.106zm-12.572-.904c.271-.354.579-.674.918-.957l-1.89-1.968c-.328.293-.637.614-.919.957l1.891 1.968zm1.714-1.514c.38-.221.781-.396 1.198-.523l-1.033-2.569c-.412.142-.813.317-1.2.524l1.035 2.568zm-2.759 3.615c.121-.435.287-.854.498-1.25l-2.47-1.066c-.196.403-.364.823-.498 1.25l2.47 1.066zm9.434-6.2c-.387-.205-.79-.379-1.2-.519l-1.023 2.573c.418.125.82.299 1.2.519l1.023-2.573zm2.601 2.131c-.281-.342-.59-.664-.918-.957l-1.891 1.968c.34.283.648.604.919.957l1.89-1.968zm-5.791-3.06c-.219-.017-.437-.026-.648-.026-.213 0-.432.009-.65.026v2.784c.216-.025.434-.038.65-.038.215 0 .434.013.648.038v-2.784zm-.649 13.782c-1.293 0-2.343-1.049-2.343-2.343 0-.883.489-1.652 1.21-2.051l1.133-5.309 1.133 5.309c.723.399 1.211 1.168 1.211 2.051 0 1.294-1.049 2.343-2.344 2.343zm-.021-15.61c5.514 0 10 4.486 10 10 0 1.758-.458 3.5-1.303 5h-4.427c-.41 1.047-1.645 3-4.27 3-2.656 0-3.859-1.953-4.27-3h-4.427c-.845-1.5-1.303-3.242-1.303-5 0-5.514 4.486-10 10-10zm0-2c-6.627 0-12 5.373-12 12 0 2.583.816 5.042 2.205 7h4.357c.93 1.647 3.015 3 5.438 3s4.508-1.353 5.438-3h4.357c1.389-1.958 2.205-4.417 2.205-7 0-6.627-5.373-12-12-12z"/></svg>