<svg xmlns="http://www.w3.org/2000/svg" width="24" height="24" viewBox="0 0 24 24"><path d="M12 2c5.514 0 10 4.486 10 10s-4.486 10-10 10-10-4.486-10-10 4.486-10 10-10zm0-2c-6.617 0-12 5.383-12 12s5.383 12 12 12 12-5.383 12-12-5.383-12-12-12zm8.021 9.593c-.141-.427-.314-.844-.516-1.242l-2.454 1.106c.217.393.39.81.517 1.242l2.453-1.106zm-12.573-.904c.271-.354.58-.674.919-.957l-1.89-1.968c-.328.294-.637.615-.918.957l1.889 1.968zm1.715-1.514c.379-.221.781-.396 1.198-.523l-1.034-2.569c-.41.142-.812.318-1.198.524l1.034 2.568zm-2.759 3.616c.121-.435.288-.854.498-1.25l-2.47-1.067c-.197.403-.364.823-.498 1.25l2.47 1.067zm9.434-6.2c-.387-.205-.79-.379-1.2-.519l-1.024 2.573c.417.125.82.299 1.2.519l1.024-2.573zm2.601 2.13c-.282-.342-.59-.664-.918-.957l-1.89 1.968c.339.283.647.604.918.957l1.89-1.968zm-5.791-3.059c-.219-.017-.437-.026-.649-.026s-.431.009-.65.026v2.784c.216-.025.434-.038.65-.038.216 0 .434.013.649.038v-2.784zm-.648 13.782c-1.294 0-2.343-1.049-2.343-2.343 0-.883.489-1.652 1.21-2.051l1.133-5.31 1.133 5.309c.722.399 1.21 1.168 1.21 2.051 0 1.295-1.049 2.344-2.343 2.344z"/></svg>