<svg xmlns="http://www.w3.org/2000/svg" width="24" height="24" viewBox="0 0 24 24"><path d="M1 3.488c0-1.926 4.656-3.488 10-3.488 5.345 0 10 1.562 10 3.488s-4.655 3.487-10 3.487c-5.344 0-10-1.561-10-3.487zm10 14.823c.34 0 .677-.007 1.011-.019.045-1.407.537-2.7 1.342-3.745-.839.067-1.643.1-2.353.1-3.006 0-7.588-.523-10-2.256v2.434c0 1.925 4.656 3.486 10 3.486zm0-5.665c5.345 0 10-1.562 10-3.487v-2.44c-2.418 1.738-7.005 2.256-10 2.256-3.006 0-7.588-.523-10-2.256v2.44c0 1.926 4.656 3.487 10 3.487zm1.254 7.635c-.438.02-.861.03-1.254.03-2.995 0-7.582-.518-10-2.256v2.458c0 1.925 4.656 3.487 10 3.487 1.284 0 2.526-.092 3.676-.256-1.155-.844-2.02-2.055-2.422-3.463zm10.746-1.781c0 2.485-2.017 4.5-4.5 4.5s-4.5-2.015-4.5-4.5 2.017-4.5 4.5-4.5 4.5 2.015 4.5 4.5zm-2-.5h-2v-2h-1v2h-2v1h2v2h1v-2h2v-1z"/></svg>