<svg xmlns="http://www.w3.org/2000/svg" width="24" height="24" viewBox="0 0 24 24"><path d="M12.008 0c-4.225 0-10.008 1.001-10.008 4.361v15.277c0 3.362 6.209 4.362 10.008 4.362 3.783 0 9.992-1.001 9.992-4.361v-15.278c0-3.361-5.965-4.361-9.992-4.361zm-8.008 12.148c.351.222.734.411 1.131.586l-.38 2.851c-.471-.316-.751-.676-.751-1.072v-2.365zm12.209 4.531l.431-3.225c.435-.099.857-.215 1.267-.351l-.434 3.26c-.399.12-.824.225-1.264.316zm-1.375.236c-.42.058-.836.104-1.24.138l.428-3.207c.416-.033.831-.077 1.241-.135l-.429 3.204zm-2.587.207l-.239.004c-.318 0-.648-.012-.982-.029l.424-3.181.559.011.665-.013-.427 3.208zm-2.549-.134c-.404-.045-.806-.102-1.2-.169l.411-3.087c.4.053.803.092 1.207.123l-.418 3.133zm-2.509-.442c-.42-.105-.815-.224-1.177-.354l.4-2.987c.385.116.778.22 1.184.305l-.407 3.036zm12.811 2.84c0 1.751-5.104 2.614-7.992 2.614-3.412 0-8.008-1.002-8.008-2.614v-2.04c2.117 1.342 5.17 1.78 8.008 1.78 2.829 0 5.876-.438 7.992-1.78v2.04zm0-4.873c0 .507-.437.937-1.115 1.296l.438-3.286c.232-.118.463-.238.678-.375v2.365zm0-5.199c0 1.753-5.131 2.614-7.992 2.614-3.426 0-8.008-1.006-8.008-2.614v-2.371c2.117 1.342 5.17 1.78 8.008 1.78 2.829 0 5.876-.438 7.992-1.78v2.371zm-7.992-2.591c-3.412 0-8.008-.906-8.008-2.362 0-1.584 4.812-2.361 8.008-2.361 3.638 0 7.992.909 7.992 2.361 0 1.581-5.104 2.362-7.992 2.362z"/></svg>