<svg xmlns="http://www.w3.org/2000/svg" width="24" height="24" viewBox="0 0 24 24"><path d="M12 3c-4.225 0-10 .969-10 4.221v9.559c0 3.252 6.209 4.22 10.008 4.22 3.783 0 9.992-.969 9.992-4.221v-9.558c0-3.253-5.973-4.221-10-4.221zm0 1.936c3.639 0 7.992.879 7.992 2.285 0 1.53-5.104 2.285-7.992 2.285-3.412 0-8.008-.876-8.008-2.285 0-1.533 4.813-2.285 8.008-2.285zm8 11.599c0 1.694-5.104 2.53-7.992 2.53-3.412 0-8.008-.97-8.008-2.53v-1.974c2.117 1.298 5.17 1.723 8.008 1.723 2.829 0 5.876-.425 7.992-1.723v1.974zm-8-2.19c-3.426 0-8.008-.974-8.008-2.53v-2.096c2.117 1.298 5.17 1.723 8.008 1.723 2.829 0 5.876-.425 7.992-1.723v2.096c0 1.697-5.131 2.53-7.992 2.53z"/></svg>