<svg xmlns="http://www.w3.org/2000/svg" width="24" height="24" viewBox="0 0 24 24"><path d="M4.062 16.626c-.165-.5.038-.921.656-1.145l3.249-1.155-.134 1.028c-.077.589-.103 1.107-.089 1.573-.25.078-1.095.339-1.945.552-.871.218-1.538-.25-1.737-.853zm1.745 1.916c-.461.167-.612.48-.489.854.147.449.645.798 1.294.635.606-.151 1.408-.396 1.701-.487-.203-.505-.378-1.035-.479-1.659l-2.027.657zm.193-10.542h2.643l.128-1h-2.771v1zm16-6v9c0 1.104-.896 2-2 2h-1.989l.015.02c-.031.43-.105.906-.222 1.457-.451 2.144-1.637 5.122-.83 8.418-2.312.356-3.651.523-5.992 1.105-.273-4.062-2.266-4.943-1.804-8.47.542-4.137.844-6.461 1.196-9.255.11-.879.731-1.307 1.337-1.307.631 0 1.246.464 1.252 1.366.021 3.303.108 6.593.324 7.393.146.54 1.087.638 1.087-.512l-.002-2.216h5.128c.276 0 .5-.224.5-.5v-4.499h-5.568c-.157-1.461-1.27-2.531-2.721-2.531h-.001c-1.44 0-2.578 1.038-2.806 2.531h-4.904v4.5c0 .276.224.5.5.5h3.757l-.261 2h-3.996c-1.104 0-2-.896-2-2v-9c0-1.104.896-2 2-2h16c1.104 0 2 .896 2 2zm-2 .5c0-.276-.224-.5-.5-.5h-15c-.276 0-.5.224-.5.5v.5h16v-.5zm-14 7.5h2.386l.129-1h-2.515v1zm12-3h-3v1h3v-1z"/></svg>