<svg width="24" height="24" xmlns="http://www.w3.org/2000/svg" fill-rule="evenodd" clip-rule="evenodd"><path d="M4 19h-1c-.552 0-1-.448-1-1v-2h13v-9h4.667c1.117 0 1.6.576 1.936 1.107.594.94 1.536 2.432 2.109 3.378.188.312.288.67.288 1.035v4.48c0 1.139-.743 2-2 2h-1c0 1.656-1.344 3-3 3s-3-1.344-3-3h-5c0 1.656-1.344 3-3 3s-3-1.344-3-3zm3-1.2c.662 0 1.2.538 1.2 1.2 0 .662-.538 1.2-1.2 1.2-.662 0-1.2-.538-1.2-1.2 0-.662.538-1.2 1.2-1.2zm11 0c.662 0 1.2.538 1.2 1.2 0 .662-.538 1.2-1.2 1.2-.662 0-1.2-.538-1.2-1.2 0-.662.538-1.2 1.2-1.2zm-16-6.059c-1.221-1.009-2-2.535-2-4.241 0-3.036 2.464-5.5 5.5-5.5 1.706 0 3.232.779 4.241 2h3.259c.552 0 1 .448 1 1v10h-12v-3.259zm15-2.741v3h4.715l-1.427-2.496c-.178-.312-.509-.504-.868-.504h-2.42zm-11.5-5c1.932 0 3.5 1.568 3.5 3.5s-1.568 3.5-3.5 3.5-3.5-1.568-3.5-3.5 1.568-3.5 3.5-3.5zm.5 3h2v1h-3v-3h1v2z"/></svg>