<svg width="24" height="24" xmlns="http://www.w3.org/2000/svg" fill-rule="evenodd" clip-rule="evenodd"><path d="M3.848 19h-.848c-.796 0-1.559-.316-2.121-.879-.563-.562-.879-1.325-.879-2.121v-3c0-7.175 5.377-13 12-13s12 5.825 12 13v3c0 .796-.316 1.559-.879 2.121-.562.563-1.325.879-2.121.879h-.848c-2.69 4.633-6.904 5-8.152 5-1.248 0-5.462-.367-8.152-5zm16.152-5.876c-.601.236-1.269-.18-1.269-.797 0-.304-.022-.61-.053-.915-1.761-.254-3.618-1.926-3.699-3.723-1.315 2.005-4.525 4.17-7.044 4.17 1.086-.699 1.839-2.773 1.903-3.508-.581 1.092-2.898 3.136-4.551 3.487l-.018.489c0 .619-.669 1.032-1.269.797v3.771c.287.256.632.464 1.041.594.225.072.412.224.521.424 2.206 4.046 5.426 4.087 6.438 4.087.929 0 3.719-.035 5.877-3.169-1.071.433-2.265.604-3.759.653-.37.6-1.18 1.016-2.118 1.016-1.288 0-2.333-.784-2.333-1.75s1.045-1.75 2.333-1.75c.933 0 1.738.411 2.112 1.005 1.9-.026 4.336-.334 5.888-2.645v-2.236zm-11-.624c.686 0 1.243.672 1.243 1.5s-.557 1.5-1.243 1.5-1.243-.672-1.243-1.5.557-1.5 1.243-1.5zm6 0c.686 0 1.243.672 1.243 1.5s-.557 1.5-1.243 1.5-1.243-.672-1.243-1.5.557-1.5 1.243-1.5zm5.478-1.5h1.357c-.856-5.118-4.937-9-9.835-9-4.898 0-8.979 3.882-9.835 9h1.357c.52-4.023 3.411-7.722 8.478-7.722s7.958 3.699 8.478 7.722z"/></svg>