<svg width="24" height="24" xmlns="http://www.w3.org/2000/svg" fill-rule="evenodd" clip-rule="evenodd"><path d="M2 11.741c-1.221-1.009-2-2.535-2-4.241 0-3.036 2.464-5.5 5.5-5.5 1.706 0 3.232.779 4.241 2h4.259c.552 0 1 .448 1 1v2h4.667c1.117 0 1.6.576 1.936 1.107.594.94 1.536 2.432 2.109 3.378.188.312.288.67.288 1.035v4.48c0 1.156-.616 2-2 2h-1c0 1.656-1.344 3-3 3s-3-1.344-3-3h-4c0 1.656-1.344 3-3 3s-3-1.344-3-3h-2c-.552 0-1-.448-1-1v-6.259zm6 6.059c.662 0 1.2.538 1.2 1.2 0 .662-.538 1.2-1.2 1.2-.662 0-1.2-.538-1.2-1.2 0-.662.538-1.2 1.2-1.2zm10 0c.662 0 1.2.538 1.2 1.2 0 .662-.538 1.2-1.2 1.2-.662 0-1.2-.538-1.2-1.2 0-.662.538-1.2 1.2-1.2zm-7.207-11.8c.135.477.207.98.207 1.5 0 3.036-2.464 5.5-5.5 5.5-.52 0-1.023-.072-1.5-.207v4.207h1.765c.549-.614 1.347-1 2.235-1 .888 0 1.686.386 2.235 1h5.53c.549-.614 1.347-1 2.235-1 .888 0 1.686.386 2.235 1h1.765v-4.575l-1.711-2.929c-.179-.307-.508-.496-.863-.496h-4.426v6h-2v-9h-2.207zm5.207 4v3h5l-1.427-2.496c-.178-.312-.509-.504-.868-.504h-2.705zm-10.5-6c1.932 0 3.5 1.568 3.5 3.5s-1.568 3.5-3.5 3.5-3.5-1.568-3.5-3.5 1.568-3.5 3.5-3.5zm.5 3h2v1h-3v-3h1v2z"/></svg>