<svg width="24" height="24" xmlns="http://www.w3.org/2000/svg" fill-rule="evenodd" clip-rule="evenodd"><path d="M7.919 17.377l-4.869-13.377h-2.05c-.266 0-.52-.105-.707-.293-.188-.187-.293-.442-.293-.707 0-.552.447-1 1-1h3.45l5.469 15.025c.841.101 1.59.5 2.139 1.088l11.258-4.097.684 1.879-11.049 4.021c.032.19.049.385.049.584 0 1.932-1.569 3.5-3.5 3.5-1.932 0-3.5-1.568-3.5-3.5 0-1.363.781-2.545 1.919-3.123zm1.581 1.811c.724 0 1.312.588 1.312 1.312 0 .724-.588 1.313-1.312 1.313-.725 0-1.313-.589-1.313-1.313s.588-1.312 1.313-1.312zm5.799-12.29l4.767-1.735 2.736 7.517-11.406 4.152-2.736-7.518 4.759-1.732 1.325 3.639 1.879-.684-1.324-3.639zm.537-1.26l-7.518 2.736-2.052-5.638 7.518-2.736 2.052 5.638z"/></svg>