<svg width="24" height="24" xmlns="http://www.w3.org/2000/svg" fill-rule="evenodd" clip-rule="evenodd"><path d="M19.757 20.171c-.791.524-1.739.829-2.757.829-2.76 0-5-2.24-5-5s2.24-5 5-5 5 2.24 5 5c0 1.018-.305 1.966-.829 2.757l2.829 2.829-1.414 1.414-2.829-2.829zm-7.654.829h-12.103v-20h9v6h4v-6h9v10.103c-1.271-1.297-3.042-2.103-5-2.103-3.863 0-7 3.137-7 7 0 1.958.806 3.729 2.103 5zm4.897-8c1.656 0 3 1.344 3 3s-1.344 3-3 3-3-1.344-3-3 1.344-3 3-3zm-10 3h-4v2h4v-2zm8.742 1h-.5v-2h.5v2zm1 0h-.5v-2h.5v2zm1 0h-.5v-2h.5v2zm.992 0h-.492v-2h.492v2z"/></svg>