<svg width="24" height="24" xmlns="http://www.w3.org/2000/svg" fill-rule="evenodd" clip-rule="evenodd"><path d="M16.533 14.322l-.061.678h4.304c.146-.643.224-1.313.224-2l-.004-.243.987-1.56.649-1.024c.24.902.368 1.85.368 2.827 0 6.071-4.929 11-11 11-2.642 0-5.067-.933-6.964-2.487.617-.314 1.152-.765 1.564-1.314.891.669 1.91 1.178 3.013 1.481l-.084-.16c-.544-1.045-.994-2.138-1.336-3.265l-.061-.208 1.847-.819c.081.299.171.596.27.891.353 1.058.815 2.079 1.365 3.049.124.219.253.434.386.647.246-.399.48-.804.696-1.219.487-.935.89-1.912 1.196-2.921.068-.223.131-.448.189-.675h-3.587l6.039-2.678zm3.53 2.678h-3.926c-.133.592-.297 1.177-.489 1.753-.338 1.009-.762 1.988-1.262 2.927 2.489-.684 4.548-2.411 5.677-4.68zm-.814-7.711c-1.521-2.411-2.583-4.232-2.583-5.805 0-1.924 1.743-3.484 3.667-3.484 1.925 0 3.667 1.56 3.667 3.484s-1.59 4.221-3.667 7.516l-.002-.003-14.332 6.355.001.074c0 1.656-1.345 3-3 3-1.656 0-3-1.344-3-3s1.344-3 3-3c.914 0 1.733.41 2.283 1.055l13.966-6.192zm-16.026 1.711c-.142.623-.218 1.271-.223 1.936v.064c-.715 0-1.391.167-1.991.464l-.009-.464c0-6.071 4.929-11 11-11 1.139 0 2.238.174 3.272.496-.042.195-.072.394-.089.593-.044.517.001 1.029.105 1.532-.304-.12-.616-.223-.935-.31l.183.359c.578 1.157 1.048 2.37 1.39 3.618l.186.75-4.396 1.962h-2.155c-.044.332-.078.666-.101 1l-2.037.903c.007-.636.048-1.271.122-1.903h-4.322zm6.423-6.689c-2.503.678-4.576 2.41-5.71 4.689h3.958c.094-.408.202-.812.324-1.213.364-1.201.847-2.364 1.428-3.476zm2.353-.104c-.265.443-.516.894-.746 1.356-.52 1.041-.943 2.13-1.25 3.253l-.05.184h4.093c-.069-.262-.144-.523-.225-.781-.351-1.121-.817-2.205-1.377-3.237-.142-.262-.291-.52-.445-.775zm8.334.835c-.759 0-1.375-.616-1.375-1.375 0-.76.616-1.375 1.375-1.375s1.375.615 1.375 1.375c0 .759-.616 1.375-1.375 1.375z"/></svg>