<svg xmlns="http://www.w3.org/2000/svg" width="24" height="24" viewBox="0 0 24 24"><path d="M17.073 3l4.333 5.116-9.402 11.688-9.4-11.751 4.391-5.053h10.078zm.927-2h-11.917l-6.083 7 12 15 12-14.917-6-7.083zm-2.5 3.5c-.511 1.677-1.823 2.989-3.5 3.501 1.677.511 2.989 1.823 3.5 3.499.512-1.676 1.824-2.988 3.5-3.499-1.676-.512-2.988-1.824-3.5-3.501zm-4.501 6.576c-.292.957-1.042 1.708-1.999 2 .958.293 1.708 1.042 2.001 2 .292-.958 1.042-1.708 1.999-2-.958-.291-1.707-1.042-2.001-2zm-3.499-5.5c-.364 1.197-1.303 2.134-2.499 2.5 1.198.366 2.135 1.303 2.501 2.5.365-1.197 1.303-2.134 2.498-2.5-1.195-.365-2.133-1.303-2.5-2.5z"/></svg>