<svg xmlns="http://www.w3.org/2000/svg" width="24" height="24" viewBox="0 0 24 24"><path d="M13.125 16.625c.011-.027 8.856-10.907 8.875-10.93l-4.938-5.695h-10.054l-5.008 5.625 8.896 11.01c1.102 1.528.118 2.85.118 2.85-.634 1-1.196 1.777-1.196 2.534 0 1.094.976 1.981 2.182 1.981 1.207 0 2.183-.887 2.183-1.981 0-.794-.599-1.462-1.29-2.534-.536-.883-.466-1.951.232-2.86zm-2.881-7.083l-1.491-3.542h6.494l-1.974 4.687c-.849-.495-1.824-1.214-3.029-1.145zm5.178 1.067c-.398.468-.802.559-1.229.469l2.139-5.078h2.843c-.017.021-3.762 4.634-3.753 4.609zm.727-8.609l2.601 3h-2.543l-3-3h2.942zm-1.356 3h-5.586l2.793-2.793 2.793 2.793zm-6.889-3h2.889l-3 3h-2.559l2.67-3zm-.236 4l1.589 3.774c-.288.12-.591.298-.904.529l-3.478-4.303h2.793zm4.458 17.118c.699-.262 1.126-1.222.825-2.213 1.036 1.227.206 2.348-.825 2.213z"/></svg>