<svg xmlns="http://www.w3.org/2000/svg" width="24" height="24" viewBox="0 0 24 24"><path d="M18 1h-11.917l-6.083 7 12 15 12-14.917-6-7.083zm-10.498 9.576c-.366-1.197-1.303-2.134-2.501-2.5 1.196-.366 2.135-1.303 2.499-2.5.367 1.197 1.305 2.135 2.5 2.5-1.195.366-2.133 1.303-2.498 2.5zm3.499 4.5c-.293-.958-1.042-1.708-2.001-2 .957-.292 1.708-1.042 1.999-2 .294.958 1.043 1.708 2 2-.957.293-1.706 1.043-1.998 2zm4.499-3.576c-.511-1.676-1.823-2.988-3.5-3.499 1.677-.512 2.989-1.824 3.5-3.501.512 1.677 1.824 2.989 3.5 3.501-1.676.511-2.988 1.823-3.5 3.499z"/></svg>