<svg xmlns="http://www.w3.org/2000/svg" width="24" height="24" viewBox="0 0 24 24"><path d="M21 4l-5-3h-8l-5 3-3 5 12 14 12-14.042-3-4.958zm-13.287 8.974l1.463 3.658-4.379-5.108 2.916 1.45zm6.668-4.974l.58 2.905-.038.095h-5.846l-.038-.095.58-2.905h4.762zm-.258 5l-2.123 5.307-2.123-5.307h4.246zm2.164-.026l2.881-1.44-4.332 5.069 1.451-3.629zm4.953-4.713l-4.334 2.168-.573-2.864 3.651-1.38 1.256 2.076zm-12.685-5.261h6.891l2.824 1.694-3.453 1.306h-5.64l-3.491-1.279 2.869-1.721zm-4.561 3.23l3.671 1.345-.571 2.856-4.329-2.152 1.229-2.049z"/></svg>