<svg xmlns="http://www.w3.org/2000/svg" width="24" height="24" viewBox="0 0 24 24"><path d="M17.062 6h-10.054l-5.008 5.625 10 12.375 10-12.305-4.938-5.695zm-9.394 6l3.039 7.218-5.832-7.218h2.793zm7.579 0l-3.247 7.711-3.247-7.711h6.494zm-6.04-1l2.793-2.793 2.793 2.793h-5.586zm7.125 1h2.843l-5.899 7.259 3.056-7.259zm2.418-1h-2.543l-3-3h2.942l2.601 3zm-10.846-3h2.889l-3 3h-2.559l2.67-3zm-3.454-2.136l-2.45-2.45 1.414-1.414 2.368 2.368-1.332 1.496zm6.55-1.864v-4h2v4h-2zm7.259.327l2.327-2.327 1.414 1.414-2.428 2.428-1.313-1.515z"/></svg>