<svg xmlns="http://www.w3.org/2000/svg" width="24" height="24" viewBox="0 0 24 24"><path d="M22.251 10c-5.876 0-6.689-9-9.804-9-1.862 0-2.444 1.667-2.444 3.613 0 1.125.195 2.343.45 3.387h-7.42c-1.788 0-3.033 1.421-3.033 3 0 1.59 1.258 3 3.033 3h3.434c.185.93.835 4.348 1.088 5.536.512 2.404 2.221 3.464 4.667 3.464 3.999 0 4.876-3 10.029-3h1.749v-10h-1.749zm-.251 8.002c-3.104.052-4.94 1.069-6.423 1.891-1.16.643-1.999 1.107-3.355 1.107-1.545 0-2.171-.521-2.475-1.167-.222-.472.122-1.017.646-1.017h.912c.316 0 .572-.256.572-.571 0-.316-.256-.572-.572-.572h-1.534c-.403 0-.75-.285-.828-.681-.104-.521.297-1.008.828-1.008h.83c.316 0 .572-.256.572-.571 0-.316-.256-.572-.572-.572h-1.273c-.405 0-.754-.287-.833-.685-.104-.524.299-1.014.833-1.014h.575c.316 0 .572-.256.572-.571 0-.316-.256-.572-.572-.572h-6.87c-.618.001-1.033-.459-1.033-.999 0-.46.359-1 1.033-1h9.967c-.176-.72-1.035-4.029-1.035-5.828 0-1 .482-1.527 1.107-.412.567 1.012 3.584 8.552 8.928 8.235v6.007z"/></svg>