<svg xmlns="http://www.w3.org/2000/svg" width="24" height="24" viewBox="0 0 24 24"><path d="M0 10v10h1.748c5.154 0 6.031 3 10.029 3 2.447 0 4.156-1.06 4.668-3.464.252-1.188.903-4.606 1.088-5.536h3.434c1.775 0 3.033-1.41 3.033-3 0-1.579-1.244-3-3.033-3h-7.42c.256-1.044.45-2.262.45-3.387 0-1.946-.583-3.613-2.444-3.613-3.115 0-3.928 9-9.805 9h-1.748zm2 1.996c5.344.316 8.361-7.223 8.928-8.235.625-1.115 1.107-.589 1.107.412 0 1.798-.859 5.107-1.035 5.827h9.967c.674 0 1.033.54 1.033 1 0 .54-.415 1-1.033 1h-6.87c-.315 0-.571.256-.571.572 0 .315.256.571.571.571h.575c.534 0 .938.49.833 1.014-.079.398-.428.685-.833.685h-1.273c-.315 0-.571.256-.571.572 0 .315.256.571.571.571h.83c.531 0 .932.487.828 1.008-.078.396-.424.681-.828.681h-1.533c-.315 0-.571.256-.571.572 0 .315.256.571.571.571h.912c.523 0 .867.545.646 1.017-.305.645-.932 1.166-2.477 1.166-1.355 0-2.193-.464-3.354-1.107-1.484-.822-3.319-1.839-6.423-1.891v-6.006z"/></svg>