<svg xmlns="http://www.w3.org/2000/svg" width="24" height="24" viewBox="0 0 24 24"><path d="M14.392 2.668c-.361-1.154-1.004-1.668-1.632-1.668-.8 0-1.576.832-1.719 2.234-.15 1.477.122 3.347.613 4.766h-9.698c-1.081 0-1.956.92-1.956 2s.875 2 1.956 2h5.057c.784 0 .885.814.103.919-1.603.215-1.817 2.519.399 2.693.545.043.655.725.027.867-1.444.326-1.458 2.5.758 2.757.579.067.696.796.034.847-.669.052-.933.282-.933.607 0 1.1 2.018 2.31 4.409 2.31 4.295 0 5.306-3 12.19-3v-9c-6.407 0-8.587-5.062-9.608-8.332z"/></svg>