<svg xmlns="http://www.w3.org/2000/svg" width="24" height="24" viewBox="0 0 24 24"><path d="M8.715 15.404c-.206.273-.371.574-.49.9-1.347-.706-2.396-1.9-2.896-3.357l1.025-.128c.444 1.128 1.295 2.03 2.361 2.585zm-4.402-2.33l-1 .125c.679 2.374 2.426 4.284 4.687 5.202v-.901l.018-.175c-1.758-.832-3.12-2.37-3.705-4.251zm14.374-4.272c-.756-2.649-2.839-4.732-5.488-5.489l-.125 1c2.195.682 3.931 2.418 4.613 4.613l1-.124zm-5.741-3.473l-.128 1.025c1.293.508 2.319 1.534 2.827 2.828l1.025-.128c-.599-1.746-1.978-3.126-3.724-3.725zm-1.946 8.671c-1.657 0-3-1.343-3-3s1.343-3 3-3 3 1.343 3 3-1.343 3-3 3zm0-1c1.103 0 2-.897 2-2s-.897-2-2-2-2 .897-2 2 .897 2 2 2zm7.932 5.798h-.639v2.41h.797c.68 0 1.015-.472 1.015-1.146-.001-.898-.407-1.264-1.173-1.264zm5.068-1.298v5c0 .829-.672 1.5-1.5 1.5h-11c-.828 0-1.5-.671-1.5-1.5v-5c0-.829.672-1.5 1.5-1.5h11c.828 0 1.5.671 1.5 1.5zm-7.212 2.942h-.865c-.068.511-.372.857-.924.857-.737 0-1.104-.555-1.104-1.28 0-.747.354-1.312 1.104-1.312.475 0 .833.32.89.669h.865c-.107-.89-.869-1.376-1.755-1.376-1.237 0-1.999.866-1.999 2.019 0 1.15.78 1.981 1.999 1.981 1.052 0 1.707-.644 1.789-1.558zm4.212-.461c0-1.212-.74-1.89-1.847-1.89h-1.755v3.823h1.755c1.173.001 1.847-.757 1.847-1.933zm-19-8.981c0-4.962 4.037-9 9-9s9 4.038 9 9c0 1.053-.191 2.06-.525 3h2.101c.27-.955.424-1.958.424-3 0-6.075-4.925-11-11-11s-11 4.925-11 11c0 5.034 3.385 9.268 8 10.575v-2.1c-3.49-1.24-6-4.566-6-8.475z"/></svg>