<svg xmlns="http://www.w3.org/2000/svg" width="24" height="24" viewBox="0 0 24 24"><path d="M19.628 24c.392-.843.396-2.038-1.081-3.943-1.443 1.94-1.446 3.104-1.07 3.943-2.729-.507-6.159-3.336-3.543-9.764-.199 1.275.639 3.549 2.173 3.086 1.289-.388 1.95-3.306 1.089-5.322 4.085 1.112 2.48 5.12 4.197 5.275 1.344.121 1.888-2.23 1.614-3.574 2.055 4.642.914 9.509-3.379 10.299zm-15.315-10.926l-1 .125c.757 2.648 2.84 4.731 5.488 5.488l.125-1c-2.194-.683-3.93-2.418-4.613-4.613zm4.869 2.572c-1.293-.508-2.319-1.534-2.827-2.827l-1.025.128c.6 1.746 1.979 3.125 3.725 3.724l.127-1.025zm1.818-1.646c-1.657 0-3-1.343-3-3s1.343-3 3-3 3 1.343 3 3-1.343 3-3 3zm0-1c1.103 0 2-.897 2-2s-.897-2-2-2-2 .897-2 2 .897 2 2 2zm.146 6.993c-5.208.052-9.146-4.119-9.146-8.993 0-4.962 4.037-9 9-9 4.97 0 9.086 4.073 8.992 9.158.802.648 1.429 1.506 1.747 2.202 1.509-6.877-3.722-13.36-10.739-13.36-6.075 0-11 4.925-11 11 0 6.264 5.272 11.417 11.775 10.961-.262-.541-.49-1.196-.629-1.968zm1.672-13.639c1.293.508 2.319 1.534 2.827 2.828l1.025-.128c-.6-1.746-1.979-3.125-3.725-3.725l-.127 1.025zm.38-3.041l-.125 1c2.195.682 3.931 2.418 4.613 4.613l1-.125c-.755-2.648-2.838-4.732-5.488-5.488z"/></svg>