<svg xmlns="http://www.w3.org/2000/svg" width="24" height="24" viewBox="0 0 24 24"><path d="M8.715 15.404c-.206.273-.371.574-.49.9-1.347-.706-2.396-1.9-2.896-3.357l1.025-.128c.444 1.128 1.295 2.03 2.361 2.585zm-4.402-2.33l-1 .125c.679 2.374 2.426 4.284 4.687 5.202v-.901l.018-.175c-1.758-.832-3.12-2.37-3.705-4.251zm8.633-7.745l-.128 1.025c1.293.508 2.319 1.534 2.827 2.828l1.025-.128c-.599-1.746-1.978-3.126-3.724-3.725zm5.741 3.473c-.756-2.649-2.839-4.732-5.488-5.489l-.125 1c2.195.682 3.931 2.418 4.613 4.613l1-.124zm-16.687 2.198c0-4.962 4.037-9 9-9s9 4.038 9 9c0 1.053-.191 2.06-.525 3h2.101c.27-.955.424-1.958.424-3 0-6.075-4.925-11-11-11s-11 4.925-11 11c0 5.034 3.385 9.268 8 10.575v-2.1c-3.49-1.24-6-4.566-6-8.475zm9 3c-1.657 0-3-1.343-3-3s1.343-3 3-3 3 1.343 3 3-1.343 3-3 3zm0-1c1.103 0 2-.897 2-2s-.897-2-2-2-2 .897-2 2 .897 2 2 2zm13 4.5v5c0 .829-.672 1.5-1.5 1.5h-11c-.828 0-1.5-.671-1.5-1.5v-5c0-.829.672-1.5 1.5-1.5h11c.828 0 1.5.671 1.5 1.5zm-5.777 2.802c.918-1.16-1.892-1.486-3.352-.899h-.021l.743-1.403-1.155-.012-1.438 2.685c1.633.872 4.509.541 5.223-.371zm-.814-1.969c3.898.625 3.198 3.329-1.574 3.667 2.733.167 4.913-.643 5.143-1.767.266-1.299-1.932-1.85-3.569-1.9zm-1.541 1.299c-1.616.062-2.287 1.034-.49 1.034 2.146 0 2.841-1.125.49-1.034z"/></svg>