<svg xmlns="http://www.w3.org/2000/svg" width="24" height="24" viewBox="0 0 24 24"><path d="M8.927 17.687l-.125 1c-2.648-.756-4.731-2.839-5.488-5.488l1-.125c.682 2.195 2.418 3.93 4.613 4.613zm2.073 2.313c-4.963 0-9-4.038-9-9s4.037-9 9-9 9 4.038 9 9l-.008.15c.695.141 1.354.382 1.965.701.022-.282.043-.564.043-.851 0-6.075-4.925-11-11-11s-11 4.925-11 11 4.925 11 11 11c.287 0 .569-.021.852-.043-.32-.611-.561-1.27-.701-1.965l-.151.008zm0-6c-1.657 0-3-1.343-3-3s1.343-3 3-3 3 1.343 3 3-1.343 3-3 3zm0-1c1.103 0 2-.897 2-2s-.897-2-2-2-2 .897-2 2 .897 2 2 2zm-1.818 2.646c-1.293-.508-2.319-1.534-2.827-2.827l-1.025.128c.6 1.746 1.979 3.125 3.725 3.724l.127-1.025zm14.818 2.854c0 3.037-2.463 5.5-5.5 5.5s-5.5-2.463-5.5-5.5 2.463-5.5 5.5-5.5 5.5 2.463 5.5 5.5zm-3 1.5h-5v1h5v-1zm0-1l-2.5-3-2.5 3h5zm-5.354-9.818l1.025-.128c-.6-1.746-1.979-3.125-3.725-3.725l-.128 1.025c1.293.508 2.32 1.535 2.828 2.828zm3.041-.38c-.756-2.649-2.839-4.732-5.488-5.489l-.125 1c2.195.682 3.931 2.418 4.613 4.613l1-.124z"/></svg>