<svg xmlns="http://www.w3.org/2000/svg" width="24" height="24" viewBox="0 0 24 24"><path d="M12 13v11h12v-11h-12zm2 10h-1v-1h1v1zm0-2h-1v-1h1v1zm0-2h-1v-1h1v1zm0-2h-1v-1h1v1zm0-2h-1v-1h1v1zm7 8h-6v-4h6v4zm0-5h-6v-4h6v4zm2 5h-1v-1h1v1zm0-2h-1v-1h1v1zm0-2h-1v-1h1v1zm0-2h-1v-1h1v1zm0-2h-1v-1h1v1zm-14.073 2.687l-.125 1c-2.648-.756-4.731-2.839-5.488-5.488l1-.125c.682 2.195 2.418 3.93 4.613 4.613zm.127-1.016c-1.745-.599-3.125-1.978-3.725-3.724l1.025-.128c.508 1.293 1.534 2.319 2.827 2.827l-.127 1.025zm.946 5.279c-5.605-.507-10-5.212-10-10.95 0-6.075 4.925-11 11-11s11 4.925 11 11h-2c0-4.962-4.037-9-9-9s-9 4.038-9 9c0 4.624 3.507 8.441 8 8.941v2.009zm2.946-16.621c1.746.599 3.125 1.979 3.725 3.725l-1.025.128c-.508-1.293-1.534-2.32-2.827-2.828l.127-1.025zm-2.946 8.487c-1.163-.413-2-1.512-2-2.816 0-1.657 1.343-3 3-3s3 1.343 3 3h-1c0-1.103-.897-2-2-2s-2 .897-2 2c0 .737.405 1.375 1 1.722v1.094zm8.687-5.014l-1 .125c-.683-2.195-2.418-3.931-4.613-4.613l.125-1c2.649.755 4.732 2.839 5.488 5.488z"/></svg>