<svg xmlns="http://www.w3.org/2000/svg" width="24" height="24" viewBox="0 0 24 24"><path d="M9.473 6.57c-1.272.596-2.299 1.623-2.895 2.895l-1.041-.13c.709-1.721 2.084-3.097 3.807-3.807l.129 1.042zm-.26-2.077l-.127-1.019c-2.625.902-4.697 2.978-5.592 5.606l1.02.127c.806-2.174 2.529-3.9 4.699-4.714zm2.787 11.507c-2.209 0-4-1.791-4-4s1.791-4 4-4 4 1.791 4 4-1.791 4-4 4zm2-4c0-1.103-.896-2-2-2s-2 .897-2 2 .896 2 2 2 2-.897 2-2zm10 0c0 6.627-5.373 12-12 12s-12-5.373-12-12 5.373-12 12-12c6.63 0 12 5.396 12 12zm-2 0c0-.23-.02-.456-.034-.682-.501 1.729-1.453 3.198-2.361 4.137l-1.438-1.391c1.151-1.19 2.396-3.442 2.115-5.867-.219-1.889-1.344-3.524-3.325-4.871-1.463-.839-3.153-1.326-4.957-1.326-5.514 0-10 4.486-10 10s4.486 10 10 10 10-4.486 10-10zm-7.358 5.267l1.881 1.832 2.639-2.678-1.88-1.834-2.64 2.68z"/></svg>