<svg xmlns="http://www.w3.org/2000/svg" width="24" height="24" viewBox="0 0 24 24"><path d="M14 12c0 1.103-.897 2-2 2-1.104 0-2-.897-2-2s.896-2 2-2c1.103 0 2 .897 2 2zm9.778-2.271c.142.736.222 1.494.222 2.271 0 6.627-5.373 12-12 12s-12-5.373-12-12 5.373-12 12-12c4.545 0 9.564 2.835 9.996 7.056.373 3.646-2.594 6.949-3.192 7.574l1.445 1.383c.549-.574 2.784-3.073 3.529-6.284zm-19.258-.52c.814-2.157 2.529-3.869 4.691-4.677l-.129-1.019c-2.613.896-4.68 2.958-5.582 5.569l1.02.127zm4.945-2.64l-.131-1.041c-1.721.71-3.096 2.085-3.807 3.807l1.041.13c.598-1.272 1.625-2.299 2.897-2.896zm6.535 5.431c0-2.209-1.791-4-4-4s-4 1.791-4 4 1.791 4 4 4 4-1.791 4-4zm3.784 4.94l-1.878-1.832-2.64 2.679 1.882 1.834 2.636-2.681z"/></svg>