<svg xmlns="http://www.w3.org/2000/svg" width="24" height="24" viewBox="0 0 24 24"><path d="M18.463 14.665c-.709 1.721-2.084 3.097-3.807 3.807l-.129-1.042c1.271-.596 2.299-1.624 2.895-2.896l1.041.131zm2.043.255l-1.02-.127c-.807 2.174-2.529 3.901-4.699 4.714l.127 1.019c2.625-.902 4.697-2.978 5.592-5.606zm-4.549-3.342l-4.379 4.38c2.595.27 4.659-1.858 4.379-4.38zm4.647-4.647c.881 1.488 1.396 3.217 1.396 5.069 0 5.514-4.486 10-10 10-1.852 0-3.581-.515-5.069-1.396l-1.457 1.457c1.88 1.222 4.118 1.939 6.526 1.939 6.627 0 12-5.373 12-12 0-2.409-.717-4.647-1.938-6.526l-1.458 1.457zm-11.53-3.418c-2.613.896-4.68 2.958-5.582 5.568l1.02.127c.814-2.156 2.529-3.868 4.691-4.676l-.129-1.019zm14.926-2.099l-22.586 22.586-1.414-1.414 2.854-2.853c-1.772-2.089-2.854-4.779-2.854-7.733 0-6.627 5.373-12 12-12 2.953 0 5.644 1.083 7.733 2.853l2.853-2.853 1.414 1.414zm-11.488 8.66c-1.477-.4-2.838.946-2.438 2.438l2.438-2.438zm5.807-5.807c-1.724-1.413-3.922-2.267-6.319-2.267-5.514 0-10 4.486-10 10 0 2.397.854 4.595 2.268 6.319l4.293-4.293c-2.11-3.516 1.949-7.574 5.465-5.465l4.293-4.294zm-8.862 2.302l-.131-1.041c-1.721.71-3.096 2.085-3.806 3.807l1.041.13c.597-1.272 1.625-2.299 2.896-2.896z"/></svg>