<svg xmlns="http://www.w3.org/2000/svg" width="24" height="24" viewBox="0 0 24 24"><path d="M8 11c0 1.657 1.343 3 3 3s3-1.343 3-3-1.343-3-3-3-3 1.343-3 3zm5 0c0 1.103-.897 2-2 2s-2-.897-2-2 .897-2 2-2 2 .897 2 2zm-.054-5.671c1.746.599 3.125 1.979 3.725 3.725l-1.025.128c-.508-1.293-1.534-2.32-2.827-2.828l.127-1.025zm5.741 3.473l-1 .125c-.683-2.195-2.418-3.931-4.613-4.613l.125-1c2.649.755 4.732 2.839 5.488 5.488zm-10.687 12.773c-4.615-1.307-8-5.541-8-10.575 0-6.075 4.925-11 11-11s11 4.925 11 11c0 1.042-.154 2.045-.425 3h-2.101c.335-.94.526-1.947.526-3 0-4.962-4.037-9-9-9s-9 4.038-9 9c0 3.909 2.51 7.235 6 8.475v2.1zm.715-6.171c-.206.273-.371.574-.49.9-1.347-.706-2.396-1.9-2.896-3.357l1.025-.128c.444 1.128 1.295 2.03 2.361 2.585zm-4.402-2.33c.585 1.881 1.946 3.419 3.704 4.251l-.017.175v.901c-2.261-.917-4.008-2.828-4.687-5.202l1-.125zm17.181 6.988c0 .684-.29 1.198-.916 1.198h-.72v-2.52h.576c.773 0 1.06.486 1.06 1.322zm-7.051 0c0 .688-.292 1.198-.915 1.198h-.721v-2.52h.577c.774 0 1.059.486 1.059 1.322zm8.057-4.062h-11c-.828 0-1.5.671-1.5 1.5v5c0 .829.672 1.5 1.5 1.5h11c.828 0 1.5-.671 1.5-1.5v-5c0-.829-.672-1.5-1.5-1.5zm-8.915 6h-1.585v-4h1.585c.992 0 1.666.702 1.666 1.978 0 1.199-.58 2.022-1.666 2.022zm3.934 0h-.91l-1.188-4h.829l.818 2.812h.008l.829-2.812h.831l-1.217 4zm3.116 0h-1.584v-4h1.584c.993 0 1.666.702 1.666 1.978 0 1.199-.58 2.022-1.666 2.022z"/></svg>