<svg xmlns="http://www.w3.org/2000/svg" width="24" height="24" viewBox="0 0 24 24"><path d="M18.516 18.448c1.648 1.946-1.365 3.802-2.292 1.451-.425-1.081-1.438-3.76-1.69-4.434-.313-.833.499-1.25 1.012-.557.34.459 2.263 2.706 2.97 3.54zm3.484-18.448v24h-20v-24h20zm-2 2h-16v20h1v-1.5c0-.276.224-.5.5-.5s.5.224.5.5v1.5h1v-1.5c0-.276.224-.5.5-.5s.5.224.5.5v1.5h1v-1.5c0-.276.224-.5.5-.5s.5.224.5.5v1.5h10v-20zm-8 7c-.551 0-1 .449-1 1s.449 1 1 1 1-.449 1-1-.449-1-1-1zm0-6c3.866 0 7 3.134 7 7 0 1.956-.804 3.723-2.098 4.993-.262-.314-.47-.569-.554-.682-.354-.478-.861-.753-1.391-.753-.485 0-.939.237-1.215.635-.311.449-.364 1.041-.145 1.623l.341.906c-.616.177-1.265.278-1.938.278-3.866 0-7-3.134-7-7s3.134-7 7-7zm-2.5 2.836c.656-.396 1.374-.605 2.091-.65l.12-.777c-.893.028-1.79.276-2.609.771-.818.492-1.455 1.171-1.897 1.947l.744.257c.374-.613.893-1.15 1.551-1.548zm.794 1.318c.334-.201.692-.324 1.056-.387l.121-.792c-.54.057-1.077.22-1.575.521-.496.3-.89.698-1.193 1.149l.756.264c.226-.293.501-.553.835-.755zm3.706 2.846c0-1.105-.895-2-2-2s-2 .895-2 2 .895 2 2 2 2-.895 2-2z"/></svg>