<svg xmlns="http://www.w3.org/2000/svg" width="24" height="24" viewBox="0 0 24 24"><path d="M10.538 7.674c-.292.129-.519.291-.714.477l-.646-.161c.259-.293.593-.552 1.015-.746.432-.194.886-.292 1.351-.332l-.098.51c-.313.041-.616.121-.908.252zm1.458.444c1.025 0 1.847.616 1.847 1.378 0 .77-.821 1.385-1.847 1.385-1.015 0-1.847-.616-1.847-1.385 0-.762.832-1.378 1.847-1.378zm-.826 1.379c0 .35.369.626.826.626.467 0 .837-.277.837-.626 0-.343-.37-.62-.837-.62-.457 0-.826.277-.826.62zm-1.313-2.674c.562-.251 1.178-.389 1.793-.421l.098-.495c-.767.017-1.534.179-2.236.495-.702.315-1.242.753-1.62 1.247l.638.169c.313-.396.766-.736 1.327-.995zm9.643 12.177c.276 0 .5-.224.5-.5s-.224-.5-.5-.5-.5.224-.5.5.224.5.5.5zm-.5-17h-14l-5 14v6h24v-6l-5-14zm-7.004 3c3.315 0 6.006 2.017 6.006 4.497 0 2.487-2.69 4.503-6.006 4.503s-5.994-2.017-5.994-4.503c0-2.48 2.679-4.497 5.994-4.497zm10.004 15h-13v-1.5c0-.276-.224-.5-.5-.5s-.5.224-.5.5v1.5h-1v-1.5c0-.276-.224-.5-.5-.5s-.5.224-.5.5v1.5h-1v-1.5c0-.276-.224-.5-.5-.5s-.5.224-.5.5v1.5h-2v-3h20v3z"/></svg>