<svg xmlns="http://www.w3.org/2000/svg" width="24" height="24" viewBox="0 0 24 24"><path d="M11.994 8.877c-.457 0-.826.277-.826.62 0 .35.369.626.826.626.467 0 .837-.277.837-.626 0-.343-.37-.62-.837-.62zm0 2.005c-1.015 0-1.847-.616-1.847-1.385 0-.763.832-1.378 1.847-1.378 1.025 0 1.847.616 1.847 1.378 0 .769-.821 1.385-1.847 1.385zm-2.172-2.731l-.646-.161c.259-.293.593-.552 1.015-.746.432-.194.886-.292 1.351-.332l-.098.51c-.312.041-.615.121-.907.252-.293.129-.519.29-.715.477zm-1.295-.333l-.637-.169c.378-.494.918-.932 1.62-1.248.702-.316 1.47-.478 2.236-.495l-.098.495c-.615.032-1.231.17-1.793.421-.561.26-1.014.6-1.328.996zm3.467-2.818c-3.315 0-5.994 2.017-5.994 4.497 0 2.486 2.679 4.503 5.994 4.503s6.006-2.017 6.006-4.503c0-2.48-2.69-4.497-6.006-4.497zm7.006-3h-14l-5 14v6h24v-6l-5-14zm-12.666 2h11.333l3.75 11h-18.834l3.751-11zm15.666 16h-13v-1.5c0-.276-.224-.5-.5-.5s-.5.224-.5.5v1.5h-1v-1.5c0-.276-.224-.5-.5-.5s-.5.224-.5.5v1.5h-1v-1.5c0-.276-.224-.5-.5-.5s-.5.224-.5.5v1.5h-2v-3h20v3zm-3-1.5c0-.276.224-.5.5-.5s.5.224.5.5-.224.5-.5.5-.5-.224-.5-.5z"/></svg>