<svg xmlns="http://www.w3.org/2000/svg" width="24" height="24" viewBox="0 0 24 24"><path d="M10.214 6.967c-.436.262-.793.6-1.087.979l-.983-.34c.395-.587.908-1.106 1.553-1.495.646-.39 1.344-.602 2.047-.677l-.158 1.029c-.472.083-.938.242-1.372.504zm1.686-2.558l.154-1.01c-1.16.037-2.326.358-3.391 1-1.064.642-1.892 1.524-2.465 2.534l.966.334c.486-.799 1.162-1.497 2.017-2.012.854-.516 1.786-.789 2.719-.846zm2.1 5.591c0 1.105-.895 2-2 2s-2-.895-2-2 .895-2 2-2 2 .895 2 2zm-1 0c0-.551-.449-1-1-1s-1 .449-1 1 .449 1 1 1 1-.449 1-1zm9-10v24h-12v-1.5c0-.276-.224-.5-.5-.5s-.5.224-.5.5v1.5h-1v-1.5c0-.276-.224-.5-.5-.5s-.5.224-.5.5v1.5h-1v-1.5c0-.276-.224-.5-.5-.5s-.5.224-.5.5v1.5h-3v-24h20zm-3.484 18.448c-.707-.834-2.63-3.081-2.971-3.54-.513-.693-1.325-.276-1.012.557.252.674 1.265 3.353 1.69 4.434.927 2.351 3.941.495 2.293-1.451zm1.484-8.448c0-4.418-3.582-8-8-8s-8 3.582-8 8 3.582 8 8 8c.798 0 1.567-.12 2.294-.338l-.697-1.846c-.72-1.913 1.554-3.12 2.75-1.505.146.195.646.795 1.197 1.447 1.512-1.454 2.456-3.494 2.456-5.758z"/></svg>