<svg xmlns="http://www.w3.org/2000/svg" width="24" height="24" viewBox="0 0 24 24"><path d="M20 18.5c0 .276-.224.5-.5.5s-.5-.224-.5-.5.224-.5.5-.5.5.224.5.5zm4-2.5l-5-14h-14l-5 14v6h24v-6zm-17.666-12h11.333l3.75 11h-18.834l3.751-11zm15.666 16h-20v-3h20v3zm-9.997-11.71c-1.539 0-2.925.569-3.933 1.497l1.16 1.067c.711-.647 1.692-1.052 2.772-1.052s2.052.405 2.763 1.052l1.17-1.067c-1.007-.928-2.402-1.497-3.932-1.497zm0 2.65c-.737 0-1.413.273-1.899.717l1.899 1.738 1.89-1.738c-.486-.444-1.152-.717-1.89-.717zm0-5.339c-2.349 0-4.464.873-6.003 2.283l1.197 1.099c1.224-1.13 2.925-1.832 4.806-1.832 1.872 0 3.573.702 4.806 1.832l1.188-1.099c-1.53-1.41-3.654-2.283-5.994-2.283z"/></svg>