<svg xmlns="http://www.w3.org/2000/svg" width="24" height="24" viewBox="0 0 24 24"><path d="M15.836 7.353c-.793-.828-1.931-1.44-3.27-1.628l.211-1.492-3.097 2.02 2.465 2.57.202-1.486c.86.15 1.515.509 1.96.972 1.035 1.081.919 2.73-.453 3.625-1.299.847-3.182.664-4.216-.415-.727-.758-.938-1.852-.183-2.846l-1.297-1.352c-1.605 1.571-1.521 3.731-.096 5.22 1.746 1.82 4.912 2.088 7.043.698 2.18-1.421 2.514-4.027.731-5.886zm4.164 11.147c0 .276-.224.5-.5.5s-.5-.224-.5-.5.224-.5.5-.5.5.224.5.5zm4-2.5l-5-14h-14l-5 14v6h24v-6zm-17.666-12h11.333l3.75 11h-18.834l3.751-11zm15.666 16h-20v-3h20v3z"/></svg>