<svg xmlns="http://www.w3.org/2000/svg" width="24" height="24" viewBox="0 0 24 24"><path d="M19 2h-14l-5 14v6h24v-6l-5-14zm-10.844 5.323l1.296 1.352c-.761.988-.544 2.088.178 2.84 1.039 1.084 2.923 1.267 4.221.42 1.372-.895 1.486-2.547.45-3.627-.443-.463-1.099-.821-1.957-.969l-.202 1.487-2.464-2.572 3.091-2.025-.197 1.493c1.339.188 2.47.805 3.263 1.633 1.783 1.859 1.448 4.464-.731 5.886-2.151 1.402-5.31 1.095-7.037-.706-1.411-1.469-1.538-3.62.089-5.212zm13.844 12.677h-20v-3h20v3zm-3-1.5c0-.276.224-.5.5-.5s.5.224.5.5-.224.5-.5.5-.5-.224-.5-.5z"/></svg>