<svg xmlns="http://www.w3.org/2000/svg" width="24" height="24" viewBox="0 0 24 24"><path d="M19 2h-14l-5 14v6h24v-6l-5-14zm-6.997 3.601c2.34 0 4.464.873 5.994 2.283l-1.188 1.099c-1.232-1.13-2.934-1.832-4.806-1.832-1.881 0-3.582.702-4.806 1.832l-1.197-1.099c1.539-1.41 3.654-2.283 6.003-2.283zm0 4.201c-1.08 0-2.062.405-2.772 1.052l-1.161-1.067c1.008-.928 2.394-1.497 3.933-1.497 1.53 0 2.925.569 3.933 1.497l-1.17 1.067c-.711-.647-1.683-1.052-2.763-1.052zm1.89 1.855l-1.89 1.738-1.899-1.738c.486-.444 1.162-.717 1.899-.717.738 0 1.404.273 1.89.717zm8.107 8.343h-20v-3h20v3zm-3-1.5c0-.276.224-.5.5-.5s.5.224.5.5-.224.5-.5.5-.5-.224-.5-.5z"/></svg>