<svg xmlns="http://www.w3.org/2000/svg" width="24" height="24" viewBox="0 0 24 24"><path d="M13.042 20h3l-5.021 4-4.979-4h3s0-8 7.812-8c-4.625 1.906-3.812 8-3.812 8zm6.437-12.908c-.212-3.951-3.473-7.092-7.479-7.092s-7.267 3.141-7.479 7.092c-2.57.463-4.521 2.706-4.521 5.408 0 3.037 2.463 5.5 5.5 5.5h1.766c.118-.596.303-1.283.578-2h-2.344c-1.93 0-3.5-1.57-3.5-3.5 0-2.797 2.479-3.833 4.433-3.72-.167-4.218 2.208-6.78 5.567-6.78 3.453 0 5.891 2.797 5.567 6.78 1.745-.046 4.433.751 4.433 3.72 0 1.93-1.57 3.5-3.5 3.5h-2.979c-.289.671-.437 1.38-.497 2h3.476c3.037 0 5.5-2.463 5.5-5.5 0-2.702-1.951-4.945-4.521-5.408z"/></svg>