<svg xmlns="http://www.w3.org/2000/svg" width="24" height="24" viewBox="0 0 24 24"><path d="M13.01 13.188c.617 1.613 1.072 3.273 1.361 4.973-2.232.861-4.635.444-6.428-.955 1.313-2.058 2.989-3.398 5.067-4.018zm-.53-1.286c-.143-.32-.291-.638-.447-.955-1.853.584-4.068.879-6.633.883l-.01.17c0 1.604.576 3.077 1.531 4.223 1.448-2.173 3.306-3.616 5.559-4.321zm-3.462-5.792c-1.698.863-2.969 2.434-3.432 4.325 2.236-.016 4.17-.261 5.791-.737-.686-1.229-1.471-2.426-2.359-3.588zm7.011.663c-1.117-.862-2.511-1.382-4.029-1.382-.561 0-1.102.078-1.621.21.873 1.174 1.648 2.384 2.326 3.625 1.412-.598 2.52-1.417 3.324-2.453zm7.971-1.773v14c0 2.761-2.238 5-5 5h-14c-2.762 0-5-2.239-5-5v-14c0-2.761 2.238-5 5-5h14c2.762 0 5 2.239 5 5zm-4 7c0-4.418-3.582-8-8-8s-8 3.582-8 8 3.582 8 8 8 8-3.582 8-8zm-6.656-1.542c.18.371.348.745.512 1.12 1.439-.248 3.018-.233 4.734.049-.084-1.478-.648-2.827-1.547-3.89-.922 1.149-2.16 2.055-3.699 2.721zm1.045 2.437c.559 1.496.988 3.03 1.279 4.598 1.5-1.005 2.561-2.61 2.854-4.467-1.506-.261-2.883-.307-4.133-.131z"/></svg>