<svg xmlns="http://www.w3.org/2000/svg" width="24" height="24" viewBox="0 0 24 24"><path d="M11.455 9.985c-1.419.417-3.11.632-5.067.646.405-1.654 1.518-3.03 3.003-3.784.777 1.016 1.464 2.063 2.064 3.138zm.965 1.93c-.124-.28-.254-.559-.391-.835-1.622.51-3.561.769-5.804.772l-.008.148c0 1.404.504 2.692 1.34 3.695 1.266-1.901 2.891-3.164 4.863-3.78zm-3.97 4.641c1.569 1.225 3.671 1.589 5.624.836-.252-1.488-.65-2.94-1.19-4.352-1.819.542-3.285 1.714-4.434 3.516zm7.075-9.13c-.977-.754-2.197-1.209-3.525-1.209-.49 0-.964.068-1.418.184.764 1.028 1.441 2.086 2.035 3.172 1.236-.524 2.204-1.24 2.908-2.147zm8.475 4.574c0 6.627-5.373 12-12 12s-12-5.373-12-12 5.373-12 12-12 12 5.373 12 12zm-5 0c0-3.866-3.135-7-7-7s-7 3.134-7 7 3.135 7 7 7 7-3.134 7-7zm-5.824-1.349c.157.324.305.651.447.98 1.26-.217 2.641-.204 4.143.042-.073-1.292-.566-2.474-1.354-3.403-.807 1.005-1.89 1.798-3.236 2.381zm.914 2.132c.489 1.309.865 2.651 1.119 4.023 1.312-.88 2.241-2.284 2.497-3.909-1.317-.228-2.522-.268-3.616-.114z"/></svg>