<svg xmlns="http://www.w3.org/2000/svg" width="24" height="24" viewBox="0 0 24 24"><path d="M11.376 9.698c-1.621.477-3.554.722-5.79.737.462-1.891 1.735-3.462 3.432-4.325.888 1.162 1.674 2.359 2.358 3.588zm1.104 2.204c-.143-.32-.291-.638-.447-.955-1.854.583-4.068.878-6.633.882l-.009.171c0 1.604.576 3.077 1.531 4.223 1.448-2.173 3.305-3.616 5.558-4.321zm3.549-5.129c-1.117-.862-2.512-1.382-4.029-1.382-.56 0-1.102.078-1.621.21.874 1.174 1.648 2.384 2.326 3.625 1.412-.598 2.52-1.417 3.324-2.453zm7.971-6.773v24h-24v-24h24zm-4 12c0-4.418-3.582-8-8-8s-8 3.582-8 8 3.582 8 8 8 8-3.582 8-8zm-12.056 5.207c1.792 1.399 4.195 1.816 6.427.955-.289-1.7-.744-3.36-1.362-4.973-2.077.619-3.753 1.959-5.065 4.018zm5.4-6.749c.18.371.348.745.511 1.12 1.439-.248 3.018-.233 4.735.049-.083-1.478-.648-2.827-1.547-3.89-.922 1.149-2.16 2.055-3.699 2.721zm1.044 2.437c.56 1.496.988 3.03 1.28 4.598 1.5-1.005 2.561-2.61 2.853-4.467-1.506-.261-2.882-.307-4.133-.131z"/></svg>