<svg xmlns="http://www.w3.org/2000/svg" width="24" height="24" viewBox="0 0 24 24"><path d="M12 2c5.514 0 10 4.486 10 10s-4.486 10-10 10-10-4.486-10-10 4.486-10 10-10zm0-2c-6.627 0-12 5.373-12 12s5.373 12 12 12 12-5.373 12-12-5.373-12-12-12zm0 6c-3.313 0-6 2.686-6 6 0 3.313 2.687 6 6 6s6-2.687 6-6c0-3.314-2.687-6-6-6zm4.942 5.72c-1.288-.211-2.472-.223-3.551-.036-.123-.282-.249-.562-.384-.84 1.154-.5 2.083-1.18 2.774-2.041.675.797 1.098 1.81 1.161 2.917zm-1.921-3.64c-.604.777-1.434 1.391-2.492 1.84-.509-.93-1.09-1.838-1.745-2.719.39-.099.796-.158 1.216-.158 1.139 0 2.184.39 3.021 1.037zm-5.257-.497c.666.871 1.255 1.769 1.77 2.69-1.217.357-2.666.542-4.344.554.347-1.418 1.3-2.598 2.574-3.244zm-2.721 4.417l.008-.127c1.923-.003 3.584-.225 4.975-.662.117.237.229.477.335.716-1.69.529-3.083 1.611-4.169 3.24-.717-.86-1.149-1.964-1.149-3.167zm1.914 3.905c.984-1.544 2.242-2.549 3.801-3.013.463 1.21.804 2.455 1.021 3.73-1.675.645-3.476.333-4.822-.717zm5.794.215c-.218-1.177-.54-2.327-.96-3.449.938-.132 1.971-.098 3.1.098-.219 1.394-1.015 2.597-2.14 3.351z"/></svg>