<svg xmlns="http://www.w3.org/2000/svg" width="24" height="24" viewBox="0 0 24 24"><path d="M22 6.613l-1.344-1.613-2.839 2.341c-1.287-2.139-2.917-4.533-4.817-7.341-4.87 7.197-8 11.699-8 16.075 0 .578.075 1.136.193 1.678l-3.193 2.634 1.344 1.613 18.656-15.387zm-14.99 9.641l-.01-.179c0-3.28 2.342-7.067 6-12.503 1.259 1.871 2.348 3.536 3.251 5.062l-9.241 7.62zm12.426-5.964c1.003 2.077 1.564 3.943 1.564 5.785 0 4.378-3.579 7.925-8 7.925-2.606 0-4.912-1.238-6.373-3.147l1.546-1.274c1.093 1.464 2.847 2.421 4.827 2.421 3.309 0 6-2.658 6-5.925 0-1.368-.428-2.835-1.168-4.463l1.604-1.322z"/></svg>