<svg xmlns="http://www.w3.org/2000/svg" width="24" height="24" viewBox="0 0 24 24"><path d="M6.598 8.34l8.431-3.832c.553.842 1.068 1.646 1.539 2.414l-11.853 5.387c.44-1.246 1.074-2.553 1.883-3.969zm-2.501 6.446c-.059.432-.097.861-.097 1.289 0 .611.076 1.203.208 1.773l14.645-6.655c-.35-.811-.774-1.653-1.269-2.537l-13.487 6.13zm2.622 7.231l13.281-6.036c-.01-.951-.171-1.912-.461-2.903l-14.635 6.65c.458.872 1.076 1.645 1.815 2.289zm7.188-19.196c-.601-.895-1.235-1.83-1.905-2.821-1.317 1.947-2.503 3.691-3.538 5.295l5.443-2.474zm-5.18 20.48c1 .445 2.107.699 3.275.699 3.631 0 6.689-2.393 7.67-5.672l-10.945 4.973z"/></svg>