<svg xmlns="http://www.w3.org/2000/svg" width="24" height="24" viewBox="0 0 24 24"><path d="M22 19c0 2.761-4.477 5-10 5s-10-2.239-10-5c0-1.35 1.075-2.573 2.815-3.473.299.607.669 1.172 1.107 1.681-1.237.597-1.922 1.292-1.922 1.792 0 1.058 3.037 3 8 3s8-1.942 8-3c0-.5-.685-1.195-1.923-1.792.438-.509.809-1.074 1.107-1.681 1.741.9 2.816 2.123 2.816 3.473zm-4-6.944c0 3.283-2.685 5.944-6 5.944s-6-2.661-6-5.944c0-3.282 2.348-6.659 6-12.056 3.652 5.397 6 8.774 6 12.056zm-8.25-4.098c0 1.783 3 1.304 3-1.627 0-1-.42-1.946-.771-2.49-.737 1.083-2.229 2.892-2.229 4.117z"/></svg>