<svg xmlns="http://www.w3.org/2000/svg" width="24" height="24" viewBox="0 0 24 24"><path d="M24 12.5c0 5.798-4.703 10.5-10.5 10.5-3.423 0-6.455-1.646-8.371-4.182l1.2-1.775c1.509 2.374 4.156 3.957 7.171 3.957 4.687 0 8.5-3.813 8.5-8.5s-3.813-8.5-8.5-8.5c-4.173 0-7.636 3.028-8.347 7h2.847l-4 5.917-4-5.917h3.123c.728-5.086 5.089-9 10.377-9 5.797 0 10.5 4.702 10.5 10.5zm-7 1.528c0 1.641-1.343 2.972-3 2.972s-3-1.33-3-2.972c0-1.641 1.174-3.329 3-6.027 1.826 2.698 3 4.386 3 6.027zm-4.125-2.049c0 .892 1.5.652 1.5-.813 0-.5-.209-.973-.385-1.245-.369.541-1.115 1.445-1.115 2.058z"/></svg>