<svg xmlns="http://www.w3.org/2000/svg" width="24" height="24" viewBox="0 0 24 24"><path d="M16 6c-3.652 5.397-6 8.774-6 12.056 0 3.283 2.684 5.944 6 5.944s6-2.661 6-5.944c0-3.282-2.348-6.659-6-12.056zm-.021 3.84c.351.543.771 1.49.771 2.49 0 2.931-3 3.411-3 1.627 0-1.224 1.492-3.033 2.229-4.117zm-7.975 8.16c.021-3.273 1.818-6.373 4.648-10.61-1.047-2.069-2.64-4.417-4.652-7.39-3.652 5.397-6 8.774-6 12.056 0 3.283 2.684 5.944 6 5.944h.004zm-2.254-10.042c0-1.225 1.492-3.033 2.229-4.118.351.543.771 1.49.771 2.49 0 2.931-3 3.411-3 1.628z"/></svg>