<svg xmlns="http://www.w3.org/2000/svg" width="24" height="24" viewBox="0 0 24 24"><path d="M12 0c-4.501 0-9 7.115-9 13.584 0 5.722 3.416 10.416 9 10.416s9-4.694 9-10.416c0-6.469-4.499-13.584-9-13.584zm-6.505 16.846c-.329-1.05-.495-2.166-.495-3.262 0-.347.017-.694.043-1.04.084.038.169.104.312.224.35.292.878.732 1.84.732.961 0 1.489-.441 1.838-.732.265-.221.329-.268.557-.268.229 0 .294.047.559.268.35.292.878.732 1.839.732.962 0 1.49-.44 1.84-.732.267-.221.33-.268.561-.268s.294.047.561.268c.35.292.878.732 1.84.732s1.49-.44 1.84-.731c.152-.126.239-.192.328-.229.025.347.042.695.042 1.044 0 .993-.134 2.004-.402 2.965-.343-.255-.819-.518-1.566-.518-.961 0-1.489.441-1.838.732-.265.221-.329.268-.557.268-.229 0-.294-.047-.559-.268-.35-.292-.878-.732-1.839-.732-.962 0-1.49.44-1.84.732-.267.221-.33.268-.561.268s-.294-.047-.561-.268c-.35-.292-.878-.732-1.84-.732s-1.49.44-1.84.731l-.102.084zm-.149-6.284c.211-.958.514-1.881.882-2.748.263.107.574.186.967.186.961 0 1.489-.441 1.838-.732.265-.221.329-.268.557-.268.229 0 .294.047.559.268.349.292.877.732 1.838.732.962 0 1.49-.44 1.84-.732.267-.221.33-.268.561-.268s.294.047.561.268c.349.292.877.732 1.839.732.4 0 .713-.085.98-.195.37.87.674 1.794.886 2.756-.629.125-1.028.44-1.306.671-.267.221-.33.268-.561.268s-.294-.047-.561-.268c-.35-.292-.878-.732-1.84-.732s-1.49.44-1.84.732c-.267.221-.33.268-.561.268-.229 0-.293-.047-.558-.268-.347-.292-.875-.732-1.837-.732-.961 0-1.489.441-1.838.732-.265.221-.329.268-.557.268-.229 0-.294-.047-.559-.268-.275-.23-.67-.543-1.29-.67zm6.654-8.562c1.585 0 3.449 1.614 4.857 3.995l-.069.005c-.23 0-.294-.047-.561-.268-.349-.292-.877-.732-1.839-.732s-1.49.44-1.84.732c-.267.221-.33.268-.561.268-.229 0-.293-.047-.558-.268-.349-.292-.877-.732-1.839-.732-.961 0-1.489.441-1.838.732-.265.221-.329.268-.557.268l-.052-.004c1.408-2.381 3.272-3.996 4.857-3.996zm0 20c-2.698 0-4.572-1.374-5.697-3.295.233-.133.426-.281.575-.405.267-.221.33-.268.561-.268s.294.047.561.268c.35.292.878.732 1.84.732s1.49-.44 1.84-.732c.267-.221.33-.268.561-.268.229 0 .293.047.558.268.35.292.878.732 1.84.732.961 0 1.489-.441 1.838-.732.265-.221.329-.268.557-.268.229 0 .294.047.559.268l.228.18c-1.113 2.036-3.02 3.52-5.821 3.52z"/></svg>