<svg xmlns="http://www.w3.org/2000/svg" width="24" height="24" viewBox="0 0 24 24"><path d="M8.983 10.232c.139.49-.186 1.014-.729 1.169-.542.154-1.094-.119-1.235-.61-.14-.491.187-1.014.729-1.168.543-.155 1.094.118 1.235.609zm12.017 10.781c0 1.655-1.317 2.987-3.281 2.987h-10.781c-3.07 0-3.656-3.875-1.266-4.75-.63-.792-.806-1.903-.427-3.303.298-1.107.024-1.292-.708-1.784-.588-.396-1.537-1.033-1.537-2.372 0-1.825 1.422-4.241 3.85-5.261 1.375-.578 1.815-1.397 2.422-2.53.271-.506.578-1.079.995-1.659 1.389-1.935 2.699-2.341 3.554-2.341.73 0 1.408.296 1.91.833.273.292.478.639.604 1.011.869.179 1.564.702 1.924 1.475.469 1.008.275 2.254-.507 3.253-.425.543-.999 1.05-1.606 1.586-.828.732-1.963 1.734-1.918 2.343.021.288.375.67.969 1.05 2.627 1.681 4.061 3.909 4.373 6.799.914.691 1.43 1.659 1.43 2.663zm-2.836-1.219c-.286-.166-.473-.47-.493-.808-.146-2.372-1.46-4.582-3.637-5.837-1.143-.659-1.676-1.553-1.746-2.495-.121-1.619 1.318-2.891 2.59-4.013.537-.475 1.046-.924 1.359-1.324.75-.96.121-1.679-.664-1.447-1.072.317-2.451 2.013-3.135 2.739.605-.793 1.709-2.456 2.015-3.448.294-.958-.437-1.57-1.493-.823-.866.613-1.484 1.695-1.982 2.626-.679 1.264-1.379 2.571-3.391 3.417-1.648.693-3.516 3.078-1.984 4.107.668.449 1.7 1.143 1.7 2.736 0 1.001-.958 2.541.683 4.572-2.314.485-2.048 2.204-1.071 2.204h2.144c-.499-1.581.271-3.521 2.192-3.521-.08-1.008.084-3.25 3.125-4.292-3.291 2.458-.838 6.119.396 6.729-1.236-.478-2.069-.712-2.631-.765-1.592-.148-1.548 1.849-.364 1.849h5.942c1.551 0 1.814-1.413.445-2.206z"/></svg>