<svg xmlns="http://www.w3.org/2000/svg" width="24" height="24" viewBox="0 0 24 24"><path d="M16.729 21c-.75-1.757-2.474-2.677-4.255-2.889-.956-2.039-1.14-5.457.514-8.819.466.218.97.34 1.504.34 3.022 0 6.79-3.408 7.508-9.632-10.503 0-11.86 5.092-10.626 7.711.517-.696 1.048-1.305 1.642-1.852-.018-2.494 3.966-3.489 6.532-3.744-1.156 3.973-3.927 5.941-5.548 5.43.766-1.159 1.683-2.128 2.312-2.795-3.219 1.531-5.376 5.06-6.06 8.725-.369-.226-.841-.478-1.369-.711.792-1.868-2.354-3.83-5.841-2.079 1.082 2.91 4.256 4.115 5.537 2.583.602.437 1.134.909 1.514 1.31-.152 1.478-.038 2.752.18 3.636-1.152.256-2.15.825-2.689 1.683-2.73-1.126-5.584 1.041-5.584 4.103h18c0-2.125-1.708-3.104-3.271-3zm-12.262-9.806c2.256-.649 3.804.51 3.478 1.222-.539-.244-1.117-.416-1.883-.51.656.266 1.359.594 1.666.804-.808.69-2.666-.304-3.261-1.516z"/></svg>