<svg xmlns="http://www.w3.org/2000/svg" width="24" height="24" viewBox="0 0 24 24"><path d="M12 0c-4.501 0-9 7.115-9 13.584 0 5.722 3.416 10.416 9 10.416s9-4.694 9-10.416c0-6.469-4.499-13.584-9-13.584zm3.933 4.624c.174 1.039-.096 2.18-.824 3.409-1.916 3.234-6.359 6.078-9.988 7.173-.079-.539-.121-1.083-.121-1.622 0-.533.044-1.063.106-1.59 3.259-1.357 6.7-4.336 8.08-7.063.406-.802.631-1.568.684-2.285.705.455 1.409 1.134 2.063 1.978zm-4.078-2.607c.077.469 0 1.115-.453 2.012-1.022 2.017-3.44 4.159-5.783 5.471 1.212-4.087 3.983-7.35 6.236-7.483zm-6.253 15.152c4.315-1.25 9.141-4.594 11.228-8.116.329-.556.579-1.108.768-1.654.507 1.106.9 2.322 1.142 3.585-1.1 4.012-7.228 7.911-11.692 8.766-.632-.746-1.111-1.629-1.446-2.581zm6.398 4.831c-1.15 0-2.146-.255-3.003-.69 3.672-1.089 7.788-3.281 9.953-6.73-.331 3.74-2.533 7.42-6.95 7.42z"/></svg>