<svg xmlns="http://www.w3.org/2000/svg" width="24" height="24" viewBox="0 0 24 24"><path d="M10.783 20.432c.51-.151.752-.26 1.209-.538.463.295.689.395 1.215.538-.416.428-2.006.428-2.424 0zm11.217-2.493c0 .133-.1.268-.266.229-.578-.132-1.188-.244-1.852-.302-.28 3.845-4.271 6.134-7.978 6.134-4.224 0-7.725-2.688-7.978-6.122-.593.057-1.136.152-1.659.271-.167.039-.267-.097-.267-.23 0-.097.053-.192.172-.219.559-.127 1.14-.228 1.778-.285.019-.574.101-1.118.259-1.627-.383-.085-.767-.165-1.148-.211-.289-.034-.244-.491.051-.457.416.05.834.138 1.25.233.258-.637.617-1.23 1.115-1.777.106-3.376 2.953-6.06 6.428-6.06 3.469 0 6.324 2.68 6.43 6.061.506.558.873 1.162 1.131 1.808.473-.115.948-.208 1.426-.265.291-.035.34.422.049.457-.441.054-.887.141-1.329.246.151.498.232 1.025.251 1.581.706.057 1.354.176 1.967.316.117.027.17.123.17.219zm-15.938-1.602c-.107.31-.18.651-.191 1.021.818.025 1.621.106 2.336.245l.023-.181c-.679-.426-1.41-.791-2.168-1.085zm1.397-1.921c-.354.336-.85.767-1.217 1.5.729.285 1.434.633 2.096 1.039.148-.46.424-.898.801-1.131.408-.228.92-.119 1.357.042.201-.377.668-1.035 1.512-1.035.832 0 1.312.639 1.525 1.021.428-.153.922-.25 1.322-.028.381.237.654.677.799 1.135.617-.377 1.27-.706 1.945-.979-.369-.772-.891-1.226-1.248-1.564.174-3.072-1.965-4.873-4.447-4.873-2.506 0-4.619 1.828-4.445 4.873zm6.853 2.141c-.344 0-.877.243-1.352.518-.336.195-.547.567-.547.968 0 .407.227.776.582.946.402.191.863.362 1.209.362.543 0 .771-.85.768-1.417-.001-.61-.275-1.377-.66-1.377zm-3.281.517c-.475-.274-1.008-.518-1.35-.518-.43 0-.66.872-.66 1.376-.003.567.219 1.418.766 1.418.346 0 .807-.171 1.209-.362.354-.169.582-.538.582-.945 0-.402-.209-.773-.547-.969zm-5.144.745c.035.34.123.673.26.994.701-.288 1.416-.504 2.055-.61l-.008-.133c-.704-.141-1.497-.225-2.307-.251zm.465 1.407c.943 1.64 3.109 2.747 5.553 2.747 2.275 0 4.594-1.003 5.588-2.809-.611-.238-1.221-.417-1.766-.507-.117.548-.396 1.084-.834 1.377-.779.489-2.109-.142-2.895-.611-.795.472-2.113 1.102-2.898.611-.439-.295-.717-.833-.834-1.376-.59.1-1.254.301-1.914.568zm11.337-.478c.121-.299.199-.608.232-.922-.746.033-1.475.115-2.123.245l-.008.131c.595.097 1.247.29 1.899.546zm.25-1.383c-.01-.347-.072-.667-.17-.961-.699.282-1.373.625-2.008 1.022l.023.179c.663-.129 1.402-.208 2.155-.24zm-7.964-2.865c.514 0 .932-.573.932-1.281 0-.707-.418-1.281-.932-1.281-.516 0-.934.574-.934 1.281s.418 1.281.934 1.281zm3.992 0c.514 0 .932-.573.932-1.281 0-.707-.418-1.281-.932-1.281-.516 0-.932.574-.932 1.281s.416 1.281.932 1.281zm5.713-14.5c-1.549 0-4.369 2.174-6.304 6.014.685.104 1.333.288 1.935.534.767-1.601 2.167-3.743 3.273-4.542.545-.394.711-.124.438.328-.982 1.622-1.874 3.375-2.413 4.89.667.437 1.229.97 1.669 1.568.516-2.496 1.601-4.852 2.457-6.529.181-.353.265-.692.265-.996 0-.737-.497-1.267-1.32-1.267zm-12.288 7.223c-.539-1.515-1.431-3.268-2.413-4.89-.274-.452-.108-.722.437-.328 1.106.799 2.507 2.942 3.273 4.542.602-.247 1.25-.43 1.935-.534-1.935-3.839-4.755-6.013-6.304-6.013-.823 0-1.32.53-1.32 1.267 0 .304.084.643.266.995.856 1.677 1.941 4.033 2.457 6.529.439-.598 1.002-1.131 1.669-1.568z"/></svg>