<svg xmlns="http://www.w3.org/2000/svg" width="24" height="24" viewBox="0 0 24 24"><path d="M4.584 6.623c1.705-3.751 4.558-6.623 7.416-6.623s5.711 2.872 7.416 6.623l-.318.23-1.184-.853-1.181.853-1.182-.852-1.185.853-1.182-.853-1.184.852-1.185-.852-1.182.853-1.184-.853-1.182.852-1.181-.853-1.184.853-.318-.23zm16.416 6.961c0 .946-.102 1.86-.283 2.733l-.44-.317-1.18.853-1.183-.853-1.181.853-1.182-.852-1.185.853-1.182-.853-1.184.852-1.185-.852-1.182.853-1.185-.853-1.182.852-1.18-.853-1.184.853-1.179-.853-.439.317c-.182-.873-.284-1.787-.284-2.733 0-1.769.345-3.582.926-5.289l.975.705 1.184-.853 1.181.853 1.184-.854 1.185.853 1.182-.853 1.183.852 1.184-.852 1.182.853 1.185-.853 1.183.854 1.181-.853 1.184.853.975-.705c.581 1.707.926 3.52.926 5.289zm-13-1.084c0-.829-.671-1.5-1.5-1.5s-1.5.671-1.5 1.5.671 1.5 1.5 1.5 1.5-.671 1.5-1.5zm5.5 0c0-.829-.671-1.5-1.5-1.5s-1.5.671-1.5 1.5.671 1.5 1.5 1.5 1.5-.671 1.5-1.5zm5.5 0c0-.829-.671-1.5-1.5-1.5s-1.5.671-1.5 1.5.671 1.5 1.5 1.5 1.5-.671 1.5-1.5zm.099 6.5l-1.184-.853-1.181.853-1.184-.853-1.185.853-1.182-.853-1.183.851-1.184-.852-1.182.853-1.184-.853-1.184.854-1.181-.853-1.184.853-1.048-.758c1.337 3.402 4.195 5.758 8.147 5.758s6.81-2.356 8.147-5.758l-1.048.758z"/></svg>