<svg xmlns="http://www.w3.org/2000/svg" width="24" height="24" viewBox="0 0 24 24"><path d="M12 2c2.992 0 7 5.727 7 11.584 0 4.053-2.19 8.416-7 8.416s-7-4.363-7-8.416c0-5.857 4.008-11.584 7-11.584zm0-2c-4.501 0-9 7.115-9 13.584 0 5.722 3.416 10.416 9 10.416s9-4.694 9-10.416c0-6.469-4.499-13.584-9-13.584zm2 15c-1.104 0-2 .896-2 2s.896 2 2 2 2-.896 2-2-.896-2-2-2zm-5-6c-1.104 0-2 .896-2 2s.896 2 2 2 2-.896 2-2-.896-2-2-2zm6.5 1c-.828 0-1.5.672-1.5 1.5s.672 1.5 1.5 1.5 1.5-.672 1.5-1.5-.672-1.5-1.5-1.5zm-7 5c-.828 0-1.5.672-1.5 1.5s.672 1.5 1.5 1.5 1.5-.672 1.5-1.5-.672-1.5-1.5-1.5zm4-10c-.828 0-1.5.672-1.5 1.5s.672 1.5 1.5 1.5 1.5-.672 1.5-1.5-.672-1.5-1.5-1.5z"/></svg>