<svg xmlns="http://www.w3.org/2000/svg" width="24" height="24" viewBox="0 0 24 24"><path d="M14.724.841c1.095.658 2.128 1.668 3.03 2.912-.504 5.075-8.628 10.819-14.606 11.844-.096-.652-.148-1.325-.148-2.013 0-.655.058-1.316.145-1.977 4.463-1.258 10.735-6.252 11.579-10.766zm5.96 9.733c-.306-1.547-.823-3.059-1.501-4.438-.201.507-.438 1.018-.743 1.532-2.722 4.592-9.432 8.931-14.839 9.884.414 1.292 1.035 2.456 1.844 3.428 5.175-.23 13.273-5.569 15.239-10.406zm-13.242 12.165c1.283.803 2.815 1.261 4.558 1.261 5.447 0 8.838-4.471 9-10.001-3.022 4.07-8.768 7.754-13.558 8.74zm5.367-22.661c-.269-.049-.539-.078-.809-.078-3.518 0-7.024 4.349-8.393 9.336 4.166-1.659 9-6.115 9.202-9.258z"/></svg>