<svg xmlns="http://www.w3.org/2000/svg" width="24" height="24" viewBox="0 0 24 24"><path d="M20.242 10.053c-1.848-.38-4.116 1.325-5.547 3.684-.661-.813-1.49-1.541-2.499-2.187-.594-.38-.947-.763-.969-1.05-.045-.608 1.09-1.611 1.918-2.343.607-.537 1.182-1.043 1.606-1.586.782-.999.976-2.245.507-3.253-.359-.772-1.055-1.296-1.924-1.475-.126-.372-.33-.719-.604-1.011-.501-.536-1.179-.832-1.909-.832-.855 0-2.165.406-3.554 2.341-.417.58-.724 1.153-.995 1.659-.607 1.133-1.047 1.952-2.422 2.53-2.428 1.02-3.85 3.436-3.85 5.261 0 1.34.949 1.977 1.538 2.373.732.492 1.006.676.708 1.784-.379 1.4-.203 2.512.427 3.303-2.391.874-1.805 4.749 1.265 4.749h10.781c.641 0 1.222-.15 1.716-.411.662.27 1.342.411 2.054.411 3.2 0 5.511-3.022 5.511-6.901 0-3.264-1.582-6.599-3.758-7.046zm-.238 1.154c.981.202 1.932 1.514 2.441 3.229l-.29.129-.583-.632-.783.352-.581-.632-.782.351-.58-.631-.783.352-.58-.631-.781.352-.216-.235c1.147-1.376 2.537-2.206 3.518-2.004zm-5.285 10.793h-5.942c-1.184 0-1.228-1.997.364-1.848.562.052 1.395.287 2.631.765-1.234-.61-3.688-4.271-.396-6.729-3.041 1.042-3.205 3.283-3.125 4.292-1.922 0-2.691 1.94-2.192 3.521h-2.144c-.977 0-1.242-1.719 1.07-2.203-1.641-2.031-.683-3.571-.683-4.572 0-1.594-1.032-2.288-1.7-2.736-1.531-1.029.336-3.415 1.984-4.107 2.012-.846 2.712-2.152 3.391-3.417.498-.932 1.116-2.014 1.982-2.626 1.057-.748 1.787-.136 1.493.823-.306.993-1.409 2.655-2.015 3.448.684-.726 2.062-2.422 3.135-2.739.785-.232 1.414.487.664 1.447-.313.4-.822.849-1.359 1.324-1.271 1.122-2.711 2.394-2.59 4.013.07.941.604 1.835 1.746 2.495 2.177 1.256 3.491 3.466 3.637 5.837.021.338.207.642.493.808 1.37.791 1.107 2.204-.444 2.204zm2.916.733l-.157-.046c.194-.278.341-.592.429-.938.064-.25.085-.5.084-.748l.779-.349.582.631.782-.35.582.631.785-.351.027.029c-.883 1.133-2.202 1.839-3.893 1.491zm5.032-4.02c-.116.562-.309 1.119-.571 1.633l-.341-.369-.784.351-.583-.632-.782.352-.582-.632-.781.351-.58-.631-.24.108c-.226-.328-.506-.631-.853-.893-.03-.275-.076-.54-.127-.803.288-.097.524-.327.589-.646.098-.477-.209-.944-.687-1.042-.139-.028-.273-.014-.401.02-.15-.366-.315-.724-.514-1.063.138-.262.278-.524.437-.767l.584.629.78-.351.579.631.783-.352.58.631.784-.352.581.632.783-.352.579.634.784-.351c.185 1.046.206 2.174-.017 3.264zm-16.684-8.481c.139.49-.186 1.014-.729 1.169-.542.154-1.094-.119-1.235-.61-.14-.491.187-1.014.729-1.168.543-.155 1.094.118 1.235.609zm11.913 6.848c.099-.477.564-.785 1.042-.687.477.098.785.564.687 1.042-.099.477-.565.785-1.042.687-.479-.098-.786-.565-.687-1.042zm3.28 1.575c-.478-.097-.785-.565-.687-1.041.098-.479.564-.786 1.042-.688.477.098.785.565.687 1.042-.098.477-.565.785-1.042.687z"/></svg>