<svg xmlns="http://www.w3.org/2000/svg" width="24" height="24" viewBox="0 0 24 24"><path d="M4.887 6c1.728-3.439 4.417-6 7.113-6s5.385 2.561 7.113 6h-14.226zm-1.125 12c1.296 3.532 4.194 6 8.238 6s6.942-2.468 8.238-6h-16.476zm3.065-6.774c-.428 0-.774.347-.774.774s.347.774.774.774c.429 0 .774-.347.774-.774s-.345-.774-.774-.774zm5.173 0c-.428 0-.774.347-.774.774s.347.774.774.774c.429 0 .774-.347.774-.774s-.345-.774-.774-.774zm9 2.358c0 .832-.081 1.639-.222 2.416h-17.556c-.141-.777-.222-1.584-.222-2.416 0-1.871.386-3.792 1.029-5.584h15.941c.644 1.792 1.03 3.713 1.03 5.584zm-12.769-1.584l.067-.031c.342-.196.458-.63.262-.969s-.63-.456-.97-.26l-.061.044.008-.074c0-.393-.318-.71-.71-.71s-.71.317-.71.71l.008.074-.061-.044c-.34-.196-.773-.079-.969.26-.196.339-.081.773.26.969l.068.031-.069.03c-.339.196-.454.63-.259.97.196.339.63.456.97.26l.061-.044-.008.074c0 .393.318.71.71.71s.71-.317.71-.71l-.008-.074.061.044c.34.196.773.079.97-.26.195-.339.08-.773-.261-.969l-.069-.031zm5.173 0l.067-.031c.341-.196.457-.63.261-.969s-.63-.456-.97-.26l-.061.044.008-.074c0-.393-.318-.71-.71-.71s-.71.317-.71.71l.008.074-.061-.044c-.34-.196-.773-.079-.969.26-.196.339-.081.773.26.969l.067.031-.069.03c-.339.196-.454.63-.259.97.196.339.63.456.97.26l.061-.044-.008.074c0 .393.318.71.71.71s.71-.317.71-.71l-.008-.074.061.044c.34.196.773.079.97-.26.195-.339.08-.773-.261-.969l-.067-.031zm5.172 0l.067-.031c.341-.196.457-.63.261-.969s-.63-.456-.97-.26l-.061.044.008-.074c0-.393-.318-.71-.71-.71s-.71.317-.71.71l.008.074-.061-.044c-.34-.196-.773-.079-.969.26-.196.339-.081.773.26.969l.067.031-.069.03c-.339.196-.454.63-.259.97.196.339.63.456.97.26l.061-.044-.008.074c0 .393.318.71.71.71s.71-.317.71-.71l-.008-.074.061.044c.34.196.773.079.97-.26.195-.339.08-.773-.261-.969l-.067-.031zm-1.404-.774c-.428 0-.774.347-.774.774s.347.774.774.774c.429 0 .774-.347.774-.774s-.345-.774-.774-.774z"/></svg>