<svg xmlns="http://www.w3.org/2000/svg" width="24" height="24" viewBox="0 0 24 24"><path d="M8.788 12.527l-.06-.027.06-.027c.298-.171.399-.551.228-.848s-.551-.399-.849-.228l-.053.038.007-.064c0-.343-.278-.621-.621-.621s-.621.278-.621.621l.007.065-.053-.039c-.298-.171-.677-.069-.848.228-.172.297-.071.677.227.848l.06.027-.061.026c-.297.172-.397.552-.227.849.172.297.551.399.849.228l.053-.038-.007.064c0 .343.278.621.621.621s.621-.278.621-.621l-.007-.065.053.039c.298.171.677.069.849-.228.171-.297.07-.676-.228-.848zm-1.288.651c-.374 0-.678-.304-.678-.678s.304-.678.678-.678c.375 0 .678.304.678.678s-.303.678-.678.678zm5.788-.651l-.06-.027.06-.027c.298-.171.399-.551.228-.848s-.551-.399-.849-.228l-.053.038.007-.064c0-.343-.278-.621-.621-.621s-.621.278-.621.621l.007.065-.053-.039c-.298-.171-.677-.069-.848.228-.172.297-.071.677.227.848l.06.027-.061.026c-.297.172-.397.552-.227.849.172.297.551.399.849.228l.053-.038-.007.064c0 .343.278.621.621.621s.621-.278.621-.621l-.007-.065.053.039c.298.171.677.069.849-.228.171-.297.07-.676-.228-.848zm-1.288.651c-.374 0-.678-.304-.678-.678s.304-.678.678-.678c.375 0 .678.304.678.678s-.303.678-.678.678zm5.788-.651l-.06-.027.06-.027c.298-.171.399-.551.228-.848s-.551-.399-.849-.228l-.053.038.007-.064c0-.343-.278-.621-.621-.621s-.621.278-.621.621l.007.065-.053-.039c-.298-.171-.677-.069-.848.228-.172.297-.071.677.227.848l.06.027-.061.026c-.297.172-.397.552-.227.849.172.297.551.399.849.228l.053-.038-.007.064c0 .343.278.621.621.621s.621-.278.621-.621l-.007-.065.053.039c.298.171.677.069.849-.228.171-.297.07-.676-.228-.848zm-1.288.651c-.374 0-.678-.304-.678-.678s.304-.678.678-.678c.375 0 .678.304.678.678s-.303.678-.678.678zm-4.5-13.178c-4.501 0-9 7.115-9 13.584 0 5.722 3.416 10.416 9 10.416s9-4.694 9-10.416c0-6.469-4.499-13.584-9-13.584zm0 2c1.799 0 3.959 2.077 5.4 5h-10.8c1.441-2.923 3.601-5 5.4-5zm0 20c-3.019 0-5.004-1.719-6.065-4h12.131c-1.062 2.281-3.047 4-6.066 4zm6.733-6h-13.466c-.176-.793-.267-1.61-.267-2.416 0-1.575.296-3.137.778-4.584h12.443c.483 1.447.779 3.009.779 4.584 0 .806-.091 1.623-.267 2.416z"/></svg>