<svg xmlns="http://www.w3.org/2000/svg" width="24" height="24" viewBox="0 0 24 24"><path d="M6.988 12.028c-.074-.36.159-.713.52-.787s.713.16.787.52c.073.36-.159.713-.521.787-.36.074-.712-.159-.786-.52zm7.012.861c-.368 0-.666.298-.666.667s.298.667.666.667.666-.298.666-.667-.298-.667-.666-.667zm-4 0c-.368 0-.667.298-.667.667s.299.666.667.666.667-.298.667-.667-.299-.666-.667-.666zm2 0c-.368 0-.667.298-.667.667s.298.667.667.667.667-.298.667-.667-.299-.667-.667-.667zm12 2.111v1.938c-1.437 0-2.656 1.052-2.869 2.473l-.578 2.885c-.147.979-.989 1.704-1.979 1.704h-13.148c-.991 0-1.832-.725-1.979-1.705l-.578-2.885c-.212-1.421-1.432-2.472-2.869-2.472v-1.938h1v-2c0-9.254 5.785-13 11-13 5.189 0 11 3.691 11 13v2h1zm-4.005 2h-16.009c.707.984.754 1.574 1.352 4.596.046.234.251.403.49.403h12.348c.237 0 .441-.167.489-.399.554-2.68.523-3.453 1.33-4.6zm-15.079-2h1.337c-.295-.095-.538-.33-.605-.656-.099-.481.212-.951.692-1.049.481-.098.951.212 1.049.693.092.449-.179.875-.606 1.012h1.304c-.053-.311-.087-.63-.087-.962 0-1.152.324-2.347.838-3.369-.644-.518-1.302-.794-1.814-.689-1.195.244-2.328 2.657-2.108 5.02zm4.079 0h6.01c.063-.318.106-.641.106-.962 0-.84-.188-1.672-.482-2.417l-.527.379-.526-.379-.526.379-.526-.379-.526.379-.525-.379-.527.379-.523-.378-.525.378-.525-.379c-.295.744-.484 1.578-.484 2.417 0 .321.043.644.106.962zm.903-3.954l.524-.379.524.379.526-.379.525.379.525-.379.526.379.525-.379.527.379.195-.14c-.635-1.191-1.538-2.017-2.295-2.017s-1.659.825-2.297 2.016l.195.141zm5.781.916l3.303.675c-.367-1.401-1.123-2.498-1.906-2.658-.53-.108-1.219.19-1.884.746l-.003-.005c.194.393.36.81.49 1.242zm1.067 3.038h.629c.03-.068.084-.125.16-.151l.029-.007-.023-.017c-.115-.101-.125-.275-.023-.39.101-.114.275-.124.39-.023l.02.021.003-.028c.03-.15.176-.246.326-.216.148.03.244.176.214.326l-.009.027.026-.012c.146-.048.302.029.351.175.037.116-.02.224-.111.293h.438c.043-.478.052-.955-.005-1.418l-3.258-.667c.062.376.097.753.097 1.125 0 .246-.026.482-.055.718l.135.09c.162.034.321-.071.354-.234s-.071-.322-.234-.355c-.079-.016-.156.002-.22.042l.02-.261-.003-.073c.05-.121.167-.203.299-.176.149.031.245.177.214.326l-.008.027.026-.012c.146-.048.301.03.35.175.048.145-.03.302-.175.35l-.028.006.023.018c.095.083.1.212.048.321zm1.079 0h.567c.024-.157-.074-.311-.232-.343-.163-.033-.323.072-.356.234l.021.109zm3.175 0v-2c0-5.809-3.125-11-9-11-5.969 0-9 5.19-9 11v2h1.027c-.203-2.634 1.045-5.529 2.818-5.892.769-.157 1.635.167 2.439.784v.001c.745-1.123 1.73-1.893 2.716-1.893 1.002 0 2.004.794 2.755 1.949l-.003-.006c.82-.649 1.711-.996 2.501-.834 1.772.363 3.021 3.258 2.818 5.892h.929z"/></svg>