<svg xmlns="http://www.w3.org/2000/svg" width="24" height="24" viewBox="0 0 24 24"><path d="M5.46 13.209c-.074-.361.158-.713.519-.788.36-.074.713.158.787.52.074.36-.158.713-.519.787-.36.074-.713-.158-.787-.519zm10.71-7.186c-.527 1.061-1.147 2.47-1.44 3.981.321.268.611.586.855.963.182-1.803.999-3.572 1.611-4.768.367-.718.062-1.348-.63-1.348-.334 0-.759.147-1.243.503-1.209.89-2.153 2.128-2.807 3.684.337.045.665.128.977.246.903-2.027 2.22-3.024 2.677-3.261zm-7.877 4.956c.242-.377.531-.697.854-.969-.29-1.513-.911-2.925-1.439-3.987.687.356 1.879 1.483 2.676 3.265.313-.119.642-.202.977-.247-.654-1.557-1.598-2.796-2.808-3.686-.483-.355-.908-.502-1.242-.502-.692 0-.997.631-.629 1.348.612 1.196 1.431 2.971 1.611 4.778zm4.878 2.688c.306 0 .556-.342.556-.763s-.25-.763-.556-.763c-.308 0-.556.342-.556.763s.248.763.556.763zm-2.379 0c.307 0 .556-.342.556-.763s-.249-.763-.556-.763c-.306 0-.555.342-.555.763s.249.763.555.763zm13.208 1.333v1.938c-1.437 0-2.656 1.052-2.869 2.473l-.578 2.885c-.147.979-.989 1.704-1.979 1.704h-13.147c-.991 0-1.832-.725-1.979-1.705l-.58-2.885c-.211-1.421-1.431-2.472-2.868-2.472v-1.938h1v-2c0-9.254 5.784-13 11-13 5.189 0 11 3.691 11 13v2h1zm-20.993-2.208c.501-1.296 1.317-2.299 2.307-2.502 1.046-.215 2.27.461 3.274 1.561.15-.344.35-.668.609-.956.694-.768 1.694-1.207 2.745-1.207 1.052 0 2.051.439 2.746 1.207.252.278.444.592.593.923 1.067-1.394 2.504-2.312 3.705-2.065.766.157 1.431.792 1.926 1.67-.517-5.138-3.576-9.423-8.912-9.423-5.897 0-8.921 5.067-8.993 10.792zm15.8-2.168c-.741-.153-1.791.474-2.655 1.512l.162.177.59-.266.438.478.592-.266.438.478.591-.266.439.478.591-.266.44.478.219-.099c-.386-1.295-1.103-2.286-1.845-2.438zm-3.371 4.178l-.39.198h.425l-.035-.198zm-7.017.198h.583c-.177-.084-.354-.167-.538-.238l-.045.238zm-1.419 6h-1.778l.117.596c.046.234.25.403.489.403h1.172v-.999zm0-2h-2.183c.064.283.132.612.208 1h1.975v-1zm0-2h-3.014c.245.341.41.636.547 1h2.467v-1zm-.295-2.963c.303.036.609.094.911.17.157-.364.385-.709.674-1.018l.029-.278c-.894-1.173-2.034-1.913-2.827-1.75-.993.204-1.943 1.91-2.107 3.839h.736c-.058-.456.234-.888.691-.981.48-.099.951.211 1.05.692.021.099.013.195.001.29h1.534c.026-.182.063-.361.122-.536-.28-.068-.564-.12-.844-.155-.173-.022-.145-.293.03-.273zm3.295 6.963h-2v.999h2v-.999zm0-2h-2v1h2v-1zm0-2h-2v1h2v-1zm3 4h-2v.999h2v-.999zm0-2h-2v1h2v-1zm0-2h-2v1h2v-1zm1.113-2h.324c.292-.164.585-.325.896-.451-.219-.46-.531-.729-.743-.931.104-1.83-1.169-2.902-2.648-2.902-1.492 0-2.751 1.088-2.648 2.902-.211.2-.506.456-.724.894.35.136.687.304 1.013.488h.298c.094-.222.228-.428.414-.544.243-.136.548-.071.809.025.12-.226.397-.617.9-.617.497 0 .781.381.908.608.255-.091.551-.148.788-.017.189.118.32.324.413.545zm1.887 6h-2v.999h2v-.999zm0-2h-2v1h2v-1zm0-2h-2v1h2v-1zm2.784 4h-1.784v.999h1.176c.237 0 .441-.167.489-.399l.119-.6zm.391-2h-2.175v1h1.977c.071-.384.134-.708.198-1zm.82-2h-2.995v1h2.46c.13-.34.292-.655.535-1zm.933-2c-.001-.398-.03-.792-.098-1.171l-.592.264-.439-.477-.591.265-.438-.477-.592.266-.438-.477-.591.265-.438-.476-.589.265-.441-.476-.108.195.023.223c.296.316.527.669.684 1.043.335-.089.675-.155 1.015-.195.174-.021.202.251.029.271-.316.039-.634.1-.948.183.054.166.089.336.114.509h4.438z"/></svg>