<svg xmlns="http://www.w3.org/2000/svg" width="24" height="24" viewBox="0 0 24 24"><path d="M17.139 14.335l-1.998-2.394-3.141 2.508-3.141-2.508-2 2.396-3.686-2.959c-.109.736-.173 1.475-.173 2.206 0 5.722 3.416 10.416 9 10.416s9-4.694 9-10.416c0-.737-.065-1.482-.176-2.225l-3.685 2.976zm-5.139 7.665c-4.031 0-6.216-3.066-6.819-6.444l1.96 1.565 2-2.396 2.859 2.284 2.859-2.283 2.002 2.397 1.959-1.573c-.601 3.381-2.787 6.45-6.82 6.45zm-.016-17c-.097.402-.611.624-1.148.495s-.893-.56-.797-.963c.098-.402.611-.624 1.148-.495s.894.56.797.963zm-8.984-.705l2.32-.288-1.205-1.94 2.824.583c1.156-1.679 2.979-2.65 5.145-2.65 2.098 0 3.99 1.081 5.064 2.89.948 1.6 1.08 3.523.393 5.285.617.545 1.188 1.208 1.674 1.913l-1.537 1.241c-.902-1.385-2.027-2.219-2.68-2.56.533-.551 1.677-2.757.43-4.86-.709-1.195-1.959-1.909-3.344-1.909-2.637 0-3.689 1.82-4.082 2.904-.496 1.37-.496 3.152.152 4.762l-1.404 1.681c-.793-1.453-1.177-3.147-1.082-4.809l-2.668-2.243z"/></svg>