<svg xmlns="http://www.w3.org/2000/svg" width="24" height="24" viewBox="0 0 24 24"><path d="M9 12.5c0 .829-.671 1.5-1.5 1.5s-1.5-.671-1.5-1.5.671-1.5 1.5-1.5 1.5.671 1.5 1.5zm7.5-1.5c-.829 0-1.5.671-1.5 1.5s.671 1.5 1.5 1.5 1.5-.671 1.5-1.5-.671-1.5-1.5-1.5zm-4.5 0c-.829 0-1.5.671-1.5 1.5s.671 1.5 1.5 1.5 1.5-.671 1.5-1.5-.671-1.5-1.5-1.5zm9 2.584c0 5.722-3.416 10.416-9 10.416s-9-4.694-9-10.416c0-6.469 4.499-13.584 9-13.584s9 7.115 9 13.584zm-2 0c0-1.89-.421-3.762-1.086-5.437l-1.186.851-1.184-.852-1.182.853-1.185-.853-1.183.854-1.181-.853-1.184.853-1.178-.852-1.18.852-1.181-.853c-.665 1.674-1.09 3.549-1.09 5.437 0 .978.131 1.973.392 2.92l.698-.504 1.181.852 1.18-.852 1.18.853 1.183-.853 1.181.853 1.182-.852 1.185.853 1.182-.853 1.186.853 1.187-.852.693.498c.26-.947.39-1.94.39-2.916zm-12.167-7.048l.438.316 1.18-.852 1.18.853 1.183-.853 1.181.853 1.182-.852 1.185.853 1.182-.853 1.186.853.439-.315c-1.435-2.68-3.466-4.539-5.169-4.539-1.703 0-3.732 1.858-5.167 4.536zm11.138 11.649l-.055-.04-1.188.853-1.184-.852-1.182.853-1.185-.853-1.183.854-1.181-.853-1.184.853-1.178-.852-1.18.852-1.181-.853-.059.042c1.082 2.186 3.036 3.811 5.969 3.811 2.935 0 4.889-1.628 5.971-3.815z"/></svg>