<svg xmlns="http://www.w3.org/2000/svg" width="24" height="24" viewBox="0 0 24 24"><path d="M3.227 11.017c.239-1.403.664-2.784 1.22-4.074l.363.041c.962 0 1.491-.44 1.84-.731.266-.222.33-.269.561-.269s.295.047.561.269c.35.291.878.731 1.84.731s1.491-.44 1.84-.732c.266-.221.33-.268.56-.268.229 0 .293.047.558.268.35.292.878.732 1.84.732.961 0 1.489-.441 1.838-.732.265-.221.329-.268.557-.268.229 0 .294.047.559.268.35.292.879.732 1.841.732l.35-.04c.558 1.293.983 2.678 1.222 4.084-.346-.258-.829-.528-1.586-.528-.963 0-1.491.44-1.841.732-.267.221-.33.268-.561.268s-.294-.047-.561-.268c-.35-.292-.878-.732-1.84-.732s-1.491.44-1.84.732c-.266.221-.33.268-.56.268-.229 0-.293-.047-.558-.268-.35-.292-.878-.732-1.84-.732-.961 0-1.489.441-1.838.732-.265.221-.329.268-.557.268-.229 0-.294-.047-.56-.268-.349-.292-.877-.732-1.839-.732-.744 0-1.226.263-1.569.517zm3.409 6.694c.266.221.33.268.56.268.228 0 .292-.047.556-.268.349-.292.877-.732 1.838-.732.962 0 1.49.44 1.839.732.265.221.329.268.558.268.23 0 .294-.047.56-.268.35-.292.878-.732 1.84-.732s1.49.44 1.84.732c.267.221.33.268.561.268s.294-.047.561-.268c.35-.292.878-.732 1.841-.732.56 0 .961.152 1.277.333.345-1.16.533-2.415.533-3.728l-.007-.152c-.593-.133-.972-.439-1.24-.663-.267-.222-.331-.269-.563-.269-.23 0-.295.047-.562.269-.35.292-.878.731-1.84.731s-1.49-.44-1.84-.732c-.267-.221-.33-.268-.561-.268s-.294.047-.561.268c-.35.292-.878.732-1.84.732s-1.49-.44-1.839-.732c-.264-.221-.328-.268-.557-.268-.228 0-.292.047-.556.268-.349.291-.877.732-1.839.732s-1.49-.44-1.84-.732c-.265-.221-.33-.268-.559-.268s-.293.047-.559.268c-.267.223-.642.529-1.231.663l-.006.153c0 1.311.188 2.563.531 3.722.314-.179.713-.327 1.265-.327.962 0 1.49.44 1.84.732zm12.553 1.268c-.23 0-.295.047-.562.269-.35.292-.878.731-1.84.731s-1.49-.44-1.84-.732c-.267-.221-.33-.268-.561-.268s-.294.047-.561.268c-.35.292-.878.732-1.84.732s-1.49-.44-1.839-.732c-.265-.221-.329-.268-.558-.268-.228 0-.292.047-.556.268-.349.292-.877.732-1.838.732-.962 0-1.49-.44-1.84-.732-.266-.221-.33-.268-.56-.268-.213 0-.29.046-.51.229 1.475 2.873 4.151 4.792 7.716 4.792 3.563 0 6.237-1.916 7.711-4.786-.228-.188-.304-.235-.522-.235zm-11.978-14.995c.962 0 1.491.44 1.841.732.266.221.33.268.56.268s.294-.047.56-.268c.35-.292.878-.732 1.84-.732.961 0 1.489.44 1.839.732.265.221.329.268.559.268.228 0 .292-.047.557-.268.349-.292.877-.732 1.838-.732.635 0 1.069.195 1.399.409-1.689-2.601-3.946-4.393-6.204-4.393-2.262 0-4.523 1.799-6.213 4.408.333-.22.774-.424 1.424-.424z"/></svg>