<svg xmlns="http://www.w3.org/2000/svg" width="24" height="24" viewBox="0 0 24 24"><path d="M6.988 12.028c-.074-.36.159-.713.52-.787s.713.16.787.52c.073.36-.159.713-.521.787-.36.074-.712-.159-.786-.52zm3.012.861c-.368 0-.667.298-.667.667s.299.666.667.666.667-.298.667-.667-.299-.666-.667-.666zm4 0c-.368 0-.667.298-.667.667s.299.667.667.667.667-.298.667-.667-.299-.667-.667-.667zm-2 0c-.368 0-.667.298-.667.667s.299.667.667.667.667-.298.667-.667-.299-.667-.667-.667zm12 2.111v1.938c-1.437 0-2.657 1.052-2.868 2.473l-.58 2.885c-.147.979-.988 1.704-1.979 1.704h-13.146c-.991 0-1.832-.725-1.979-1.705l-.58-2.885c-.211-1.421-1.431-2.472-2.868-2.472v-1.938h1v-2c0-9.254 5.784-13 11-13 5.19 0 11 3.691 11 13v2h1zm-19.084 0h1.337c-.295-.095-.538-.33-.605-.656-.099-.481.212-.951.692-1.049.481-.098.951.212 1.049.693.092.449-.179.875-.606 1.012h1.303c-.051-.312-.086-.631-.086-.962 0-1.152.324-2.347.838-3.369-.644-.518-1.302-.794-1.814-.689-1.195.244-2.328 2.657-2.108 5.02zm4.079 0h6.01c.063-.318.106-.641.106-.962 0-.84-.188-1.672-.483-2.417l-.526.379-.526-.379-.526.379-.526-.379-.527.379-.525-.379-.526.379-.523-.378-.525.378-.527-.377c-.296.744-.482 1.576-.482 2.415 0 .321.043.644.106.962zm.903-3.954l.524-.379.524.379.526-.379.524.379.524-.379.527.379.525-.379.527.379.195-.14c-.635-1.191-1.537-2.017-2.294-2.017s-1.659.825-2.297 2.016l.195.141zm5.781.916l3.303.675c-.367-1.401-1.123-2.498-1.906-2.658-.531-.108-1.219.19-1.884.746l-.003-.005c.193.393.36.81.49 1.242zm1.066 3.038h.63c.03-.068.083-.125.161-.151l.028-.007-.024-.017c-.114-.101-.123-.275-.022-.39s.274-.124.39-.023l.02.021.002-.028c.031-.15.178-.246.326-.216.149.03.246.176.215.326l-.008.027.025-.012c.146-.048.301.029.35.175.039.116-.018.224-.111.293h.438c.043-.478.052-.955-.003-1.418l-3.258-.667c.062.376.096.753.096 1.125 0 .246-.026.482-.054.718l.133.09c.164.034.322-.071.355-.234s-.071-.322-.234-.355c-.079-.016-.156.002-.22.042l.02-.261-.003-.073c.049-.121.166-.203.299-.176.148.031.245.177.215.326l-.009.027.026-.012c.145-.048.301.03.35.175s-.03.302-.176.35l-.027.006.023.018c.095.083.1.212.047.321zm1.08 0h.567c.025-.157-.073-.311-.233-.343-.162-.033-.322.072-.355.234l.021.109zm3.175 0v-2c0-5.809-3.125-11-9-11-5.969 0-9 5.19-9 11v2h1.027c-.203-2.634 1.045-5.529 2.818-5.892.77-.157 1.635.167 2.439.784.746-1.122 1.731-1.892 2.716-1.892 1.003 0 2.005.794 2.755 1.949l-.004-.006c.822-.649 1.713-.996 2.502-.834 1.772.363 3.021 3.258 2.818 5.892h.929z"/></svg>