<svg xmlns="http://www.w3.org/2000/svg" width="24" height="24" viewBox="0 0 24 24"><path d="M7.5 15c-.828 0-1.5.672-1.5 1.5s.672 1.5 1.5 1.5 1.5-.672 1.5-1.5-.672-1.5-1.5-1.5zm5 1c-.828 0-1.5.672-1.5 1.5s.672 1.5 1.5 1.5 1.5-.672 1.5-1.5-.672-1.5-1.5-1.5zm-6-6c-.828 0-1.5.672-1.5 1.5s.672 1.5 1.5 1.5 1.5-.672 1.5-1.5-.672-1.5-1.5-1.5zm10.804-3.958c.31.854-.131 1.797-.987 2.106-.853.309-1.796-.132-2.106-.986-.31-.853.132-1.796.986-2.106.854-.308 1.797.132 2.107.986zm2.947-3.995c-.087.032-.171.08-.247.145l-2.601 2.226c.411.309.743.732.93 1.251.515 1.421-.222 2.996-1.642 3.511-1.421.515-2.996-.221-3.513-1.644-.188-.519-.206-1.057-.086-1.559l-3.422-.039c-.101-.001-.196.017-.283.048-.399.144-.635.595-.478 1.027l1.673 4.618c.191.526.852.701 1.276.334l2.166-1.869c.069 1.066-.353 2.915-.635 3.583l1.723-.839 1.12 1.16c.565-1.135.862-2.909.695-4.168.68 1.073 2.044 2.245 3.206 2.754l.116-1.608 1.862-.46c-.644-.333-2.154-1.481-2.784-2.343l2.861.045c.462.007.812-.371.812-.801 0-.233-1.644-4.671-1.724-4.89-.155-.432-.627-.626-1.025-.482zm-1.275 12.184c-.249 5.423-3.605 9.769-8.976 9.769-5.584 0-9-4.694-9-10.416 0-6.469 4.499-13.584 9-13.584 1.827 0 3.648 1.184 5.173 3.009-.223.037-.443.09-.658.168-.449.163-.847.416-1.191.727-1.088-1.181-2.268-1.904-3.324-1.904-2.992 0-7 5.727-7 11.584 0 4.053 2.19 8.416 7 8.416 3.888 0 6.062-2.851 6.754-6.084.546-.149 1.013-.511 1.268-1.024.146-.294.278-.616.394-.955.188.114.373.199.56.294z"/></svg>