<svg xmlns="http://www.w3.org/2000/svg" width="24" height="24" viewBox="0 0 24 24"><path d="M17 1.5c0 .828-.672 1.5-1.5 1.5-.167 0-.325-.034-.477-.084-1.768 2.239-2.476 4.443-3.023 6.428-.539-1.954-1.245-4.176-3.023-6.428-.151.05-.309.084-.477.084-.828 0-1.5-.672-1.5-1.5s.672-1.5 1.5-1.5 1.5.672 1.5 1.5c0 .295-.088.568-.235.8.876 1.106 1.671 2.336 2.235 3.84.564-1.504 1.36-2.734 2.235-3.84-.146-.232-.235-.505-.235-.8 0-.828.672-1.5 1.5-1.5s1.5.672 1.5 1.5zm7 4.49c0-.958-.112-1.963-.32-2.99-8.099 0-11.18 5.876-11.18 11.417 0 4.461 2.101 8.691 4.393 9.583 1.785-.477 3.836-3.214 4.409-5.866.382-1.773-.006-2.706-1.44-3.629.489.015 1.476-.367 1.978-.963.919-1.092 2.16-4.009 2.16-7.552zm-3.001 5.001c-.291.663-.643 1.221-1.057 1.584-.619.545-1.747 1.125-3.508 1.125 1.812.726 3.384 2.227 2.908 4.107-.124.493-.281.943-.46 1.352-.41-.509-.898-.971-1.356-1.249.966 1.773.557 2.996-.528 3.695l-.013.008c-1.062-1.017-2.508-4.027-2.508-7.278 0-3.906 1.897-8.336 7.444-9.305.134 1.141-.407 2.137-1.385 2.802-.296.201-.615.391-.95.581.821.043 1.598-.137 2.229-.426-.166 1.126-.878 2.11-1.92 2.655-.332.173-.686.331-1.056.487.77.131 1.519.053 2.16-.138zm-18.838 2.551c.502.596 1.488.978 1.978.963-1.435.923-1.822 1.855-1.44 3.629.572 2.652 2.623 5.389 4.408 5.866 2.292-.892 4.393-5.121 4.393-9.583 0-5.541-3.081-11.417-11.18-11.417-.208 1.026-.32 2.031-.32 2.99 0 3.543 1.241 6.46 2.161 7.552zm2.998-2.413c-.37-.156-.724-.314-1.056-.487-1.042-.545-1.754-1.528-1.92-2.655.632.289 1.408.469 2.229.426-.335-.189-.654-.379-.95-.581-.977-.664-1.518-1.66-1.384-2.801 5.547.969 7.444 5.399 7.444 9.305 0 3.251-1.446 6.261-2.508 7.278l-.013-.008c-1.085-.699-1.494-1.922-.528-3.695-.458.278-.946.74-1.356 1.249-.179-.409-.336-.859-.46-1.352-.476-1.88 1.097-3.381 2.908-4.107-1.761 0-2.889-.58-3.508-1.125-.414-.363-.766-.921-1.057-1.584.642.19 1.391.268 2.159.137z"/></svg>