<svg xmlns="http://www.w3.org/2000/svg" width="24" height="24" viewBox="0 0 24 24"><path d="M13.334 13.556c0-.368.298-.667.666-.667s.666.298.666.667-.298.666-.666.666-.666-.298-.666-.666zm-5.56-1.008c.361-.074.594-.426.521-.787-.074-.36-.427-.594-.787-.52s-.594.426-.52.787c.074.361.426.594.786.52zm4.226 1.674c.368 0 .666-.298.666-.667s-.298-.666-.666-.666-.666.298-.666.667.298.666.666.666zm-2 0c.368 0 .666-.298.666-.667s-.298-.666-.666-.666-.666.298-.666.667.298.666.666.666zm8.299-11.575c-.57.296-.793 1-.495 1.57.295.57 1 .793 1.569.496.571-.297.793-1 .497-1.57-.298-.57-1.002-.792-1.571-.496zm3.527-2.647c.202 0 .401.105.505.306.106.202 1.669 3.126 1.669 3.353 0 .266-.197.524-.5.56l-2.013.234c.523.545 1.689 1.211 2.175 1.385l-1.267.497.069 1.14c-.862-.25-1.93-.945-2.508-1.637.235.87.191 2.143-.1 2.992l-.892-.71-1.133.749c.136-.494.262-1.833.113-2.573l-1.347 1.513c-.266.295-.746.236-.929-.116l-1.604-3.086c-.15-.289-.027-.627.24-.766l.194-.06 2.406-.29c-.037.363.025.74.206 1.085.494.951 1.669 1.321 2.619.828.949-.495 1.321-1.669.826-2.619-.179-.347-.45-.613-.769-.792l1.618-1.805c.119-.127.263-.188.422-.188zm2.174 15v1.938c-1.437 0-2.656 1.052-2.869 2.473l-.578 2.885c-.147.979-.989 1.704-1.979 1.704h-13.148c-.99 0-1.832-.725-1.979-1.705l-.578-2.885c-.213-1.421-1.432-2.472-2.869-2.472v-1.938h1v-2c0-9.254 5.785-13 11-13 1.99 0 4.069.549 5.88 1.744-.38.19-.648.431-.857.752-.185-.021-1.468.149-1.665.173-.997-.423-2.111-.669-3.358-.669-5.969 0-9 5.19-9 11v2h1.026c-.202-2.634 1.046-5.529 2.818-5.892.769-.157 1.635.167 2.438.784v.001c.747-1.123 1.732-1.893 2.718-1.893 1.002 0 2.004.794 2.755 1.949l-.003-.006c.82-.649 1.711-.996 2.501-.834 1.772.363 3.021 3.258 2.818 5.892h.929v-2c0-1.211-.144-2.392-.412-3.508.307-.339.422-1.079.474-1.531.327.177 1.024.511 1.396.513.346 1.331.542 2.833.542 4.525v2h1zm-8.812-4.28c.194.394.36.811.49 1.242l3.303.675c-.367-1.401-1.123-2.498-1.906-2.658-.53-.108-1.219.19-1.884.746l-.003-.005zm-5.485.185l.195.141.524-.379.524.379.525-.379.525.379.525-.379.525.379.525-.379.527.379.195-.14c-.633-1.191-1.536-2.017-2.293-2.017s-1.658.825-2.297 2.016zm-.814 3.133c0 .321.043.644.106.962h6.01c.063-.318.106-.641.106-.962 0-.84-.188-1.672-.482-2.417l-.527.379-.526-.379-.526.379-.526-.379-.526.379-.525-.379-.527.379-.523-.378-.525.378-.527-.377c-.295.744-.482 1.575-.482 2.415zm-3.973.962h1.337c-.296-.095-.538-.33-.605-.656-.099-.481.212-.951.692-1.049.481-.098.951.212 1.049.693.091.449-.179.875-.607 1.012h1.304c-.053-.311-.086-.63-.086-.962 0-1.152.324-2.347.838-3.369-.644-.518-1.303-.794-1.814-.689-1.195.244-2.328 2.657-2.108 5.02zm2.084 6h-1.779l.117.596c.047.234.252.403.49.403h1.172v-.999zm0-2h-2.183c.063.283.131.612.208 1h1.975v-1zm0-2h-3.014c.245.341.41.636.547 1h2.467v-1zm3 4h-2v.999h2v-.999zm0-2h-2v1h2v-1zm0-2h-2v1h2v-1zm3 4h-2v.999h2v-.999zm0-2h-2v1h2v-1zm0-2h-2v1h2v-1zm3 4h-2v.999h2v-.999zm0-2h-2v1h2v-1zm0-2h-2v1h2v-1zm.435-2.388c.033-.163-.071-.322-.234-.355-.076-.016-.149.004-.212.041l-.043.458.135.09c.161.034.32-.071.354-.234zm.311.388h.629c.03-.068.084-.125.16-.151l.029-.007-.023-.017c-.115-.101-.125-.275-.023-.39.101-.114.275-.124.39-.023l.02.021.003-.028c.03-.15.176-.246.326-.216.148.03.244.176.214.326l-.009.027.026-.012c.146-.048.302.029.351.175.037.116-.02.224-.111.293h.438c.043-.478.052-.955-.005-1.418l-3.258-.667c.07.421.097.746.097 1.047.05-.119.166-.201.297-.174.149.031.245.177.214.326l-.008.027.026-.012c.146-.048.301.03.35.175.048.145-.03.302-.175.35l-.028.006.023.018c.094.086.099.215.047.324zm1.414-.343c-.163-.033-.323.072-.356.234l.021.109h.567c.025-.157-.074-.311-.232-.343zm.624 6.343h-1.784v.999h1.176c.237 0 .441-.167.489-.399l.119-.6zm.391-2h-2.175v1h1.977c.071-.384.134-.708.198-1zm.82-2h-2.995v1h2.46c.13-.34.292-.655.535-1z"/></svg>