<svg xmlns="http://www.w3.org/2000/svg" width="24" height="24" viewBox="0 0 24 24"><path d="M12 2c5.514 0 10 4.486 10 10s-4.486 10-10 10-10-4.486-10-10 4.486-10 10-10zm0-2c-6.627 0-12 5.373-12 12s5.373 12 12 12 12-5.373 12-12-5.373-12-12-12zm-5.535 11.326c.353-2.775 2.245-5.293 5.639-5.326 2.049.039 3.735.967 4.737 2.738.504.924.661 1.894.695 2.964v1.258h-7.531c.034 3.106 4.57 3 6.523 1.631v2.528c-.762.457-2.167.881-3.613.881-3.599 0-5.065-2.705-5.056-4.525-.056-2.235 1.11-3.712 2.922-4.553-.384.477-.676 1.002-.829 1.909h4.252s.249-2.541-2.406-2.541c-2.505.089-4.312 1.545-5.333 3.036z"/></svg>