<svg xmlns="http://www.w3.org/2000/svg" width="24" height="24" viewBox="0 0 24 24"><path d="M19 0h-14c-2.761 0-5 2.239-5 5v14c0 2.761 2.239 5 5 5h14c2.762 0 5-2.239 5-5v-14c0-2.761-2.238-5-5-5zm.38 13.279h-10.041c.046 4.141 6.093 4 8.698 2.174v3.371c-1.016.61-2.889 1.176-4.817 1.176-4.799 0-6.753-3.607-6.741-6.033-.074-2.98 1.481-4.95 3.896-6.071-.512.636-.902 1.336-1.106 2.545h5.67s.332-3.388-3.209-3.388c-3.34.118-5.748 2.06-7.109 4.048.469-3.7 2.993-7.057 7.517-7.101 2.732.052 4.98 1.29 6.315 3.65.672 1.232.882 2.525.926 3.952v1.677z"/></svg>