<svg xmlns="http://www.w3.org/2000/svg" width="24" height="24" viewBox="0 0 24 24"><path d="M12 0c-6.627 0-12 5.373-12 12s5.373 12 12 12 12-5.373 12-12-5.373-12-12-12zm6.457 13.119h-8.785c.04 3.623 5.331 3.5 7.61 1.903v2.949c-.889.534-2.527 1.029-4.215 1.029-4.199 0-5.909-3.156-5.899-5.279-.065-2.607 1.295-4.331 3.409-5.312-.448.556-.789 1.169-.968 2.227h4.961s.29-2.965-2.807-2.965c-2.922.103-5.029 1.802-6.221 3.542.412-3.237 2.62-6.174 6.579-6.213 2.39.046 4.357 1.129 5.526 3.194.588 1.078.771 2.21.81 3.458v1.467z"/></svg>