<svg xmlns="http://www.w3.org/2000/svg" width="24" height="24" viewBox="0 0 24 24"><path d="M12 2c5.514 0 10 4.486 10 10s-4.486 10-10 10-10-4.486-10-10 4.486-10 10-10zm0-2c-6.627 0-12 5.373-12 12s5.373 12 12 12 12-5.373 12-12-5.373-12-12-12zm.021 17.824c-3.907 0-6.021-2.438-6.021-5.586 0-3.363 2.381-6.062 6.638-6.062 3.107 0 5.362 2.019 5.362 4.801 0 4.356-5.165 5.506-4.906 3.021-.354.555-.927 1.177-2.026 1.177-1.257 0-2.04-.92-2.04-2.403 0-2.222 1.461-4.1 3.19-4.1.829 0 1.399.438 1.638 1.11l.232-.816h1.169c-.122.416-1.161 4.264-1.161 4.264-.323 1.333.675 1.356 1.562.648 1.665-1.29 1.75-4.664-.499-6.071-2.411-1.445-7.897-.551-7.897 4.347 0 2.806 1.976 4.691 4.914 4.691 1.719 0 2.771-.465 3.648-.974l.588.849c-.856.482-2.231 1.104-4.391 1.104zm-1.172-7.153c-.357.67-.588 1.538-.588 2.212 0 1.805 1.761 1.816 2.626.12.356-.697.586-1.586.586-2.265 0-1.458-1.748-1.717-2.624-.067z"/></svg>