<svg xmlns="http://www.w3.org/2000/svg" width="24" height="24" viewBox="0 0 24 24"><path d="M24 6c0-1.104-.896-2-2-2h-20c-1.104 0-2 .896-2 2v12c0 1.104.896 2 2 2h20c1.104 0 2-.896 2-2v-12zm-10 12h-12v-12h12v12zm7.638-8.594c1.426 1.271 1.55 3.454.279 4.879-1.258 1.41-3.442 1.561-4.88.278-1.422-1.269-1.546-3.457-.278-4.879 1.258-1.41 3.441-1.56 4.879-.278zm-.791.887c-.935-.833-2.367-.751-3.2.183s-.751 2.367.183 3.2c.935.833 2.366.751 3.2-.183.832-.933.75-2.366-.183-3.2zm-1.94 1.159c-.251-.224-.272-.609-.049-.86.224-.251.609-.273.86-.049s.273.609.049.86c-.223.25-.609.273-.86.049zm-12.907 4.548h-2v-4h2v4zm3 0h-2v-6h2v6zm3 0h-2v-2h2v2zm-6-5h-2v-1h2v1zm3-2h-2v-1h2v1zm3 4h-2v-1h2v1z"/></svg>