<svg width="24" height="24" xmlns="http://www.w3.org/2000/svg" fill-rule="evenodd" clip-rule="evenodd"><path d="M21.172 11.486l-5.172-5.072 1.414-1.414 6.586 6.485-6.586 6.515-1.414-1.414 5.172-5.1zm-18.344 0l5.172-5.072-1.414-1.414-6.586 6.485 6.586 6.515 1.414-1.414-5.172-5.1zm4.672-1.486c.828 0 1.5.672 1.5 1.5s-.672 1.5-1.5 1.5-1.5-.672-1.5-1.5.672-1.5 1.5-1.5zm9 0c.828 0 1.5.672 1.5 1.5s-.672 1.5-1.5 1.5-1.5-.672-1.5-1.5.672-1.5 1.5-1.5zm-4.5 0c.828 0 1.5.672 1.5 1.5s-.672 1.5-1.5 1.5-1.5-.672-1.5-1.5.672-1.5 1.5-1.5z"/></svg>