<svg xmlns="http://www.w3.org/2000/svg" width="24" height="24" viewBox="0 0 24 24"><path d="M2.847 18.5c-.535 2.053-1.847 2.335-1.847 3.684 0 1.003.834 1.816 1.847 1.816s1.834-.813 1.834-1.816c0-1.349-1.299-1.631-1.834-3.684zm10.512-8.325l1.095 1.217-6.289 5.51c-1.206 1.062-1.834.041-3.371.954-.206.122-.418.161-.614.138-.488-.059-.879-.509-.814-1.046.021-.177.094-.364.227-.549.969-1.359.151-2.148 1.328-3.18l6.25-5.478 1.094 1.217-3.468 3.042h2.469l2.093-1.825zm5.47-10.175c-1.826 0-3.655 1.223-3.968 4.3-.096.951-.455 1.345-.883 1.294-.242-.03-.468-.196-.675-.399-.3-.296-.778-.308-1.093-.025-.345.311-.371.843-.062 1.186l3.82 4.246c.307.343.835.372 1.177.062.316-.285.356-.764.091-1.097-.199-.251-.351-.521-.318-.791.047-.39.48-.665 1.375-.661 3.127.012 4.707-1.788 4.707-3.985 0-2.337-1.854-4.13-4.171-4.13z"/></svg>