<svg xmlns="http://www.w3.org/2000/svg" width="24" height="24" viewBox="0 0 24 24"><path d="M19.984 2c.551 0 1.016.456 1.016.996 0 .238-.097.477-.256.656l-3.519 3.848c-.484.543-.793 1.183-.931 1.849l-2.292-2.049c.659-.216 1.255-.601 1.717-1.118l3.517-3.847c.261-.292.581-.335.748-.335zm0-2c-.825 0-1.646.338-2.238 1l-3.502 3.831c-.395.442-.942.667-1.491.667-.474 0-.95-.168-1.331-.509l-1.334 1.49 7.455 6.667 1.333-1.491c-.823-.738-.893-2.001-.158-2.825l3.503-3.83c.508-.569.779-1.281.779-2.004 0-1.638-1.35-2.996-3.016-2.996zm-6.756 11.972l-7.791 8.65c-.314.352-1.322.323-1.853.557.172-.554.048-1.538.362-1.89l7.791-8.651-1.491-1.333-7.9 8.794c-1.277 1.423-.171 2.261-1.149 4.052-.135.244-.197.48-.197.698 0 .661.54 1.151 1.141 1.151.241 0 .492-.079.724-.256 1.733-1.332 2.644-.184 3.954-1.647l7.9-8.792-1.491-1.333z"/></svg>