<svg xmlns="http://www.w3.org/2000/svg" width="24" height="24" viewBox="0 0 24 24"><path d="M17.906 2c1.764 0 3.094 1.325 3.094 3.082 0 1.611-1.209 2.639-3.403 2.893-1.397.162-2.208.68-2.676 1.22-.514.592-1.226.072-.638-.614.625-.73.844-1.75.825-2.784-.024-1.365.294-2.423.921-3.062.628-.64 1.446-.735 1.877-.735zm0-2c-2.434 0-4.871 1.707-4.797 5.831.02 1.167-.356 1.698-.885 1.698-.292 0-.585-.164-.861-.375-.418-.32-1.013-.262-1.36.135-.367.417-.322 1.052.093 1.416l5.275 4.617c.424.371 1.064.322 1.428-.095.345-.395.323-.986-.047-1.354-.276-.274-.498-.579-.498-.909 0-.479.486-.876 1.572-1.002 3.69-.428 5.174-2.656 5.174-4.88 0-2.799-2.149-5.082-5.094-5.082zm-4.259 14.496l-6.83 7.6c-1.31 1.464-2.22.315-3.953 1.647-.231.178-.482.257-.723.257-.601 0-1.141-.49-1.141-1.151 0-.218.062-.455.196-.698.978-1.791-.129-2.629 1.148-4.052l6.787-7.555 1.505 1.317-6.69 7.429c-.314.352-.19 1.336-.363 1.89.531-.234 1.539-.205 1.854-.557l6.705-7.444 1.505 1.317z"/></svg>