<svg xmlns="http://www.w3.org/2000/svg" width="24" height="24" viewBox="0 0 24 24"><path d="M12 22c0 1.105-.896 2-2 2s-2-.895-2-2 .896-2 2-2 2 .895 2 2zm-12-8c0 1.104.895 2 2 2s2-.896 2-2-.895-2-2-2-2 .896-2 2zm4 4c-1.104 0-2 .896-2 2s.896 2 2 2 2-.896 2-2-.896-2-2-2zm0-12c-1.104 0-2 .896-2 2s.896 2 2 2 2-.896 2-2-.896-2-2-2zm12 12c-1.104 0-2 .896-2 2s.896 2 2 2 2-.896 2-2-.896-2-2-2zm-.244-8.679l1.034 1.023-5.52 5.469c-1.017 1.005-1.626.132-2.941 1.023-.177.118-.362.164-.538.155-.437-.027-.806-.406-.776-.886.006-.159.064-.328.171-.499.79-1.257.021-1.914 1.013-2.892l5.491-5.439 1.031 1.024-2.915 2.879 2.188-.128 1.762-1.729zm1.025-5.293c-.036.849-.333 1.218-.719 1.195-.215-.014-.425-.149-.618-.32-.279-.247-.705-.23-.973.036-.289.293-.283.768.01 1.055l3.609 3.569c.292.287.761.286 1.047-.006.265-.27.276-.697.025-.979-.191-.212-.34-.443-.324-.684.021-.35.393-.616 1.185-.659 2.664-.146 3.977-1.699 3.977-3.545 0-2.124-1.666-3.69-3.688-3.69-1.869 0-3.416 1.32-3.531 4.028z"/></svg>