<svg xmlns="http://www.w3.org/2000/svg" width="24" height="24" viewBox="0 0 24 24"><path d="M18.896 7.104c-.682.6-.753 1.638-.153 2.324l-1.239 1.083-5.416-6.198 1.239-1.082c.599.684 1.638.753 2.32.154l3.246-2.776c.47-.407 1.048-.609 1.625-.609 1.38 0 2.482 1.128 2.482 2.471 0 .73-.322 1.393-.854 1.858l-3.25 2.775zm-6.943 3.896h-2.5l3.562-3.123-1.085-1.24-7.339 6.387c-1.189 1.033-.368 1.831-1.348 3.195-.133.186-.21.372-.231.55-.066.54.325.995.817 1.056.194.023.41-.015.616-.137 1.55-.912 2.178.117 3.396-.947l7.34-6.384-1.081-1.241-2.147 1.884zm-9.106 7.5c-.535 2.053-1.847 2.335-1.847 3.684 0 1.003.834 1.816 1.847 1.816s1.834-.813 1.834-1.816c0-1.349-1.299-1.631-1.834-3.684z"/></svg>