<svg xmlns="http://www.w3.org/2000/svg" width="24" height="24" viewBox="0 0 24 24"><path d="M16.254 10.963c0-.479.486-.876 1.572-1.002 3.69-.427 5.174-2.655 5.174-4.879 0-2.799-2.149-5.082-5.094-5.082-2.434 0-4.871 1.707-4.797 5.831.021 1.167-.356 1.698-.884 1.698-.298 0-.597-.169-.877-.386-.407-.315-.99-.26-1.331.129-.374.426-.329 1.076.096 1.448l5.253 4.598c.423.371 1.067.328 1.438-.096.343-.392.32-.979-.049-1.345-.277-.276-.501-.583-.501-.914zm-2.607 3.533l-6.83 7.6c-1.31 1.464-2.22.315-3.953 1.647-.231.178-.482.257-.723.257-.601 0-1.141-.49-1.141-1.151 0-.218.062-.455.196-.698.978-1.791-.129-2.629 1.148-4.052l6.787-7.555 1.505 1.317-6.69 7.429c-.314.352-.19 1.336-.363 1.89.531-.234 1.539-.205 1.854-.557l6.705-7.444 1.505 1.317z"/></svg>