<svg xmlns="http://www.w3.org/2000/svg" width="24" height="24" viewBox="0 0 24 24"><path d="M20.386 6.961c-.611.627-.604 1.632.022 2.248l-1.112 1.134-5.67-5.562 1.114-1.134c.623.614 1.632.604 2.244-.023l2.918-2.909c.467-.476 1.084-.715 1.702-.715 1.334 0 2.396 1.092 2.396 2.38 0 .633-.256 1.221-.695 1.672l-2.919 2.909zm-4.47 2.292l1.137 1.111-6.409 6.296c-1.092 1.112-1.773.169-3.196 1.162-.191.132-.394.186-.585.176-.476-.022-.885-.431-.861-.956.009-.171.065-.358.179-.545.843-1.385-.003-2.091 1.062-3.173l6.407-6.298 1.135 1.112-3.58 3.508h2.27l2.441-2.393zm-7.805 6.561l.006-.001v-.026l-.006.027zm7.846-1.57c.027.248.043.5.043.756 0 3.86-3.141 7-7 7s-7-3.14-7-7 3.141-7 7-7c.258 0 .512.016.762.043l1.719-1.689c-.79-.226-1.62-.354-2.481-.354-4.971 0-9 4.029-9 9s4.029 9 9 9 9-4.029 9-9c0-.843-.124-1.655-.341-2.428l-1.702 1.672z"/></svg>