<svg xmlns="http://www.w3.org/2000/svg" width="24" height="24" viewBox="0 0 24 24"><path d="M15.835 7l4.317-3.788c.459.426.885.884 1.272 1.376l-2.798 2.412h-2.791zm6.659-.814c.957 1.723 1.506 3.703 1.506 5.814 0 6.627-5.373 12-12 12s-12-5.373-12-12 5.373-12 12-12c2.453 0 4.732.74 6.634 2.003l-6.151 5.354c-1.37 1.19-.425 2.109-1.553 3.68-.153.214-.242.428-.267.633-.076.622.375 1.146.941 1.216.224.027.473-.018.71-.158 1.785-1.051 2.509.134 3.911-1.091l6.269-5.451zm-9.478 11.834c0-1.473-1.417-1.78-2.001-4.02-.583 2.239-2.015 2.547-2.015 4.02 0 1.093.91 1.98 2.015 1.98s2.001-.887 2.001-1.98z"/></svg>