<svg xmlns="http://www.w3.org/2000/svg" width="24" height="24" viewBox="0 0 24 24"><path d="M12.142 13.178l1.506 1.318-6.83 7.6c-1.31 1.464-2.22.315-3.953 1.647-.232.178-.483.257-.724.257-.601 0-1.141-.49-1.141-1.151 0-.218.062-.455.196-.698.978-1.791-.129-2.629 1.148-4.052l6.787-7.555 1.505 1.317-3.727 4.139h2.691l2.542-2.822zm5.764-13.178c-2.434 0-4.871 1.707-4.797 5.831.021 1.167-.356 1.698-.884 1.698-.298 0-.597-.169-.877-.386-.407-.315-.99-.26-1.331.129-.374.426-.329 1.076.096 1.448l5.253 4.598c.423.371 1.067.328 1.438-.096.343-.392.32-.979-.049-1.345-.277-.275-.501-.581-.501-.913 0-.479.486-.876 1.572-1.002 3.69-.428 5.174-2.656 5.174-4.88 0-2.799-2.149-5.082-5.094-5.082z"/></svg>