<svg width="24" height="24" xmlns="http://www.w3.org/2000/svg" fill-rule="evenodd" clip-rule="evenodd"><path d="M12 0c-6.627 0-12 5.373-12 12s5.373 12 12 12 12-5.373 12-12-5.373-12-12-12zm0 2c5.514 0 10 4.486 10 10s-4.486 10-10 10-10-4.486-10-10 4.486-10 10-10zm0 4.5c-3.314 0-6 2.487-6 5.556 0 1.748.872 3.307 2.236 4.326v2.118l2.043-1.121c.545.151 1.123.232 1.721.232 3.314 0 6-2.487 6-5.555 0-3.069-2.686-5.556-6-5.556zm.596 7.481l-1.528-1.629-2.981 1.629 3.279-3.481 1.566 1.63 2.944-1.63-3.28 3.481z"/></svg>