<svg xmlns="http://www.w3.org/2000/svg" width="24" height="24" viewBox="0 0 24 24"><path d="M12 2c5.514 0 10 4.486 10 10s-4.486 10-10 10-10-4.486-10-10 4.486-10 10-10zm0-2c-6.627 0-12 5.373-12 12s5.373 12 12 12 12-5.373 12-12-5.373-12-12-12zm4.608 10h-1.359v-.875l.501-1.547v-1.578h-2.623c-1.079 3.184-1.879 4.746-3.13 4.75v-.75h-3.997v6h3.997v-.5h1.003l1.254 1.5h4.23l1.516-1.463v-4.631l-1.392-.906zm.392 5.112l-.919.888h-3.478l-1.254-1.5h-1.352v-2.75c1.862 0 3.04-2.363 3.847-4.75h.906v.396l-.5 1.547v2.057h2.061l.689.448v3.664z"/></svg>