<svg width="24" height="24" xmlns="http://www.w3.org/2000/svg" fill-rule="evenodd" clip-rule="evenodd"><path d="M18 23h-12l-2.604-12 .003.002-1.399-3.575 3.022-1.732-1.022-4.695 4.802.004.188.996h4.685l.216-1 4.745 1-.579 2.612 3.943 2.388-1.439 4.234-2.561 11.766zm-5.775-10.774v-5.15l-1.873-.384v2.507l.651 3.006c.406.024.813.031 1.222.021zm1.916-.176c.582-.091 1.167-.217 1.755-.379l.279-2.018-1.672-.231-.362 2.628zm-6.285-.387c.536.154 1.074.276 1.616.368l-1.913-9.528-1.697-.001 1.994 9.161zm11.411-1.286l.925-2.719-1.477-.894-1.104 3.451-.129.939c.592-.224 1.187-.483 1.785-.777zm-13.072.707l-.551-2.53-.434-1.238-1.342.769.918 2.346c.468.242.937.46 1.409.653zm7.754-3.253l1.803.249 1.092-4.925-1.802-.38-1.093 5.056zm-1.604-4.331h-2.195v1.619l2.195.45v-2.069z"/></svg>