<svg width="24" height="24" xmlns="http://www.w3.org/2000/svg" fill-rule="evenodd" clip-rule="evenodd"><path d="M9.46 11.039l-.48-4.039h-.98v-1.382c.87 0 2-.697 2-1.618h6.185l2.113-4 1.359.634-1.817 3.366h4.199c0 .922 1.092 1.618 1.961 1.618v1.382h-1l-2 17s-15.839.007-17.094-.005c-2.168-.068-3.017-1.656-3.041-3.743-.569-.472-.909-1.485-.861-2.409.044-.872.467-1.674 1.139-2.203.669-3.206 3.591-4.594 7.28-4.64.352 0 .698.013 1.037.039zm-6.466 9.957h-.002c.031.791.267.979.954.999 1.241.013 8.514 0 9.098-.009.679-.022.92-.269.96-.943 0 0-4.384.036-11.01-.047zm8.513-9.608c2.212.616 3.855 1.986 4.344 4.247.676.529 1.101 1.333 1.145 2.208.048.931-.437 1.866-.996 2.418.018.643-.061 1.23-.235 1.739h3.5l1.735-15h-10l.507 4.388zm2.493 5.612l-3.831.005c-.962.007-1.433 1.342-3.068 1.326-1.732-.018-1.855-1.313-2.723-1.309l-1.454-.022c-.54.046-.899.472-.923.943-.026.523.354 1.033 1.005 1.053h11.008c.645-.034 1.01-.539.985-1.053-.027-.49-.438-.92-.999-.943zm-.52-2.006c-.971-1.579-3.186-1.994-5.042-1.994-1.859.025-3.981.417-4.942 1.997l1.098.021c1.443.009 1.549 1.487 2.517 1.482.839-.004 1.404-1.492 2.834-1.494.141-.001 2.675-.012 3.535-.012z"/></svg>