<svg width="24" height="24" xmlns="http://www.w3.org/2000/svg" fill-rule="evenodd" clip-rule="evenodd"><path d="M23 19c.37 1.981-.544 3.99-3 4-4.611.019-11.389 0-16 0-2.492 0-3.348-1.976-3-4h22zm-.465-1c-.007 0-21.142-.002-21.17-.006-.764-.068-1.365-.711-1.365-1.494s.601-1.426 1.365-1.494c.028-.004 2.116-.006 2.116-.006 2.37.017 2.852 2.006 4.019 2 1.167-.006 1.781-1.976 3.965-2h11.07c.812.019 1.465.684 1.465 1.5s-.653 1.481-1.465 1.5zm-2.07-7h2.07c.812.019 1.465.684 1.465 1.5s-.653 1.481-1.465 1.5c-.007 0-21.142-.002-21.17-.006-.764-.068-1.365-.711-1.365-1.494s.601-1.426 1.365-1.494c.028-.004 11.116-.006 11.116-.006 2.37.017 2.852 2.006 4.019 2 1.167-.006 1.781-1.976 3.965-2zm2.535-1h-22c0-3.989 4.377-8 11-8s11 4.011 11 8zm-11.5-4c.276 0 .5.224.5.5s-.224.5-.5.5-.5-.224-.5-.5.224-.5.5-.5zm4 0c.276 0 .5.224.5.5s-.224.5-.5.5-.5-.224-.5-.5.224-.5.5-.5zm4 0c.276 0 .5.224.5.5s-.224.5-.5.5-.5-.224-.5-.5.224-.5.5-.5zm-12 0c.276 0 .5.224.5.5s-.224.5-.5.5-.5-.224-.5-.5.224-.5.5-.5zm-2-1c.276 0 .5.224.5.5s-.224.5-.5.5-.5-.224-.5-.5.224-.5.5-.5zm3-1c.276 0 .5.224.5.5s-.224.5-.5.5-.5-.224-.5-.5.224-.5.5-.5zm6 0c.276 0 .5.224.5.5s-.224.5-.5.5-.5-.224-.5-.5.224-.5.5-.5zm3 0c.276 0 .5.224.5.5s-.224.5-.5.5-.5-.224-.5-.5.224-.5.5-.5zm-6-1c.276 0 .5.224.5.5s-.224.5-.5.5-.5-.224-.5-.5.224-.5.5-.5z"/></svg>