<svg width="24" height="24" xmlns="http://www.w3.org/2000/svg" fill-rule="evenodd" clip-rule="evenodd"><path d="M2.091 18.014c.901-4.007 4.936-7.996 9.955-7.996 4.526 0 8.683 3.793 9.845 7.996 0 0-14.825.008-19.8 0m1.253-7c.499-1.244.018-2.555 1.064-2.735.33-.058 1.53.005 2.075-.076.837-.123 1.326-.433 1.835-1.018.753-.91.923-1.56 1.948-.948.981.618 1.76 1.151 2.992.844 1.365-.341 2.027-1.77 2.685-.684.918 1.593 1.029 1.882 3.5 2.17 1.169.161 1.221 1.399 1.37 2.655.128.834.776 1.841 1.249 2.544-2.273-3.355-5.832-5.67-9.935-5.749-4.152-.022-7.828 2.176-10.094 5.399.016-.022.998-1.623 1.311-2.402m19.923 4.912l.004.008c.424-.651.72-1.362.686-2.152-.042-.932-.466-1.484-.929-2.259-.289-.505-.224-.614-.312-1.261-.061-.462-.143-.925-.293-1.368-.756-2.218-2.373-2.266-3.511-2.383-.552-.068-.691-.196-.842-.416-.402-.598-.414-.928-.973-1.438-.476-.432-1.102-.657-1.722-.657-.896 0-1.425.415-2.129.898-.456.303-.709.392-1.337.017-.808-.497-1.311-.915-2.313-.915-1.257 0-1.894.686-2.6 1.632-.374.507-.451.609-1.25.621-1 .002-2.841-.247-3.732 1.582-.305.625-.333 1.191-.423 1.878-.097.734-.153.737-.478 1.213-.609.906-1.125 1.941-1.113 3.037.008.679.22 1.332.676 1.912.311-.787-.658 1.427-.658 2.625 0 .941.502 1.457 1.734 1.512.45.007 18.707.018 20.392 0 1.177-.046 1.842-.77 1.842-1.647 0-.592-.489-1.902-.719-2.439"/></svg>