<svg width="24" height="24" xmlns="http://www.w3.org/2000/svg" fill-rule="evenodd" clip-rule="evenodd"><path d="M12.185 4l2.113-4 1.359.634-1.817 3.366h4.199c0 .922 1.092 1.618 1.961 1.618v1.382h-1l-2 17h-10l-2.02-17h-.98v-1.382c.87 0 2-.697 2-1.618h6.185zm-5.185 3l1.735 15h6.53l1.735-15h-10zm3.75 10.5c.414 0 .75.336.75.75s-.336.75-.75.75-.75-.336-.75-.75.336-.75.75-.75zm2.727-2.5c.552 0 1 .448 1 1s-.448 1-1 1-1-.448-1-1 .448-1 1-1zm-2.977-3c.828 0 1.5.672 1.5 1.5s-.672 1.5-1.5 1.5-1.5-.672-1.5-1.5.672-1.5 1.5-1.5z"/></svg>