<svg width="24" height="24" xmlns="http://www.w3.org/2000/svg" fill-rule="evenodd" clip-rule="evenodd"><path d="M18 23.999l-12 .001-1.983-11.578.637-1.123 3.692 4.173 7.264.003 3.721-4.214.652 1.16-1.983 11.578zm-5.075-17l1.622-6.258c.12-.447.524-.741.965-.741.651 0 1.139.618.968 1.258l-1.485 5.741h.398l4.214-5.571c.317-.452.941-.562 1.393-.245.452.316.562.94.246 1.392l-3.412 4.424h3.166l-.007.036c.212.382 2.059 3.718 2.869 5.2.083.153.138.318.138.48 0 1.036-1.399 1.384-1.893.48-.61-1.115-1.806-3.279-2.451-4.446l-4.68 5.25h-5.963l-4.642-5.327c-.634 1.146-1.87 3.383-2.494 4.523-.495.907-1.877.551-1.877-.48 0-.162.04-.327.123-.48.828-1.514 2.737-4.962 2.88-5.22l-.003-.016h9.925zm1.075 4.5c0-.276-.224-.5-.5-.5h-3c-.276 0-.5.224-.5.5s.224.5.5.5h3c.276 0 .5-.224.5-.5"/></svg>