<svg width="24" height="24" xmlns="http://www.w3.org/2000/svg" fill-rule="evenodd" clip-rule="evenodd"><path d="M6.127 4.259c6.741 1.591 11.289 4.752 13.731 13.508l-19.858 6.233 6.127-19.741zm-1.129 12.742c1.103 0 1.999.898 1.999 2 0 1.104-.896 2-1.999 2-1.104 0-1.999-.896-1.999-2 0-1.102.895-2 1.999-2m4.763-2.889c1.043.36 1.596 1.5 1.236 2.543-.361 1.043-1.501 1.597-2.543 1.236 0 0-.615-.217-.418-.783.195-.566.81-.351.81-.351.417.145.873-.076 1.018-.493.143-.419-.078-.874-.495-1.02 0 0-.629-.167-.417-.777.192-.554.809-.355.809-.355m-2.622-11.289c-1.385-.442-.93-2.823.747-2.823l.111.004c8.306 1.342 14.005 7.672 15.995 15.998l.008.153c0 1.544-2.378 2.031-2.89.723-2.154-7.803-6.827-12.358-13.971-14.055m7.357 11.178c.827 0 1.499.673 1.499 1.5 0 .829-.672 1.5-1.499 1.5-.829 0-1.501-.671-1.501-1.5 0-.827.672-1.5 1.501-1.5m-7.932-.052c-1.075-.254-1.741-1.332-1.487-2.406.253-1.074 1.331-1.741 2.404-1.487 0 0 .634.153.497.737-.138.584-.771.431-.771.431-.43-.102-.861.165-.962.595-.102.429.165.861.594.962 0 0 .642.103.494.732-.135.571-.769.436-.769.436m5.432-5.946c1.103 0 1.999.896 1.999 1.999 0 1.104-.896 2-1.999 2-1.104 0-2-.896-2-2 0-1.103.896-1.999 2-1.999"/></svg>