<svg width="24" height="24" xmlns="http://www.w3.org/2000/svg" fill-rule="evenodd" clip-rule="evenodd"><path d="M22.224 14.928c-.634.313-1.212.471-1.53 1.14-.371.781-.094 1.372.409 2.061.517.721-.22 1.133-1.103 1.153v-8.432l.29-.263.001.01c.428.154.503.353.539.81.073 1-.081 1.938 1.217 2.759.451.268.717.475.177.762m-4.224-5.21v10.282h-12v-10.282c-1.127-.484-2.053-1.459-1.967-2.969.148-2.593 5.123-2.755 7.836-2.773 2.908-.005 8.155.36 8.155 3.067 0 1.078-.854 2.175-2.024 2.675m-14.532 9.625c-.116-.734-.103-1.066-.614-1.61-.318-.338-.605-.474-.982-.718-.534-.347-.398-.725.107-1.09.245-.171.503-.327.734-.518.604-.497.924-1.2.742-1.94-.11-.451-.349-.747-.602-1.134-.611-.936.014-1.657.852-1.777v-.001l.295.295v8.776c-.275.003-.485-.016-.532-.283m19.801-6.19c-.579-.392-.855-.372-.908-1.07-.066-1.078-.01-2.008-1.068-2.661h-.006c.677-1.03.863-2.165.674-3.182-.671-3.626-6.103-4.213-9.792-4.24-4.588-.009-10.094.43-10.142 4.907-.011 1 .234 1.724.652 2.407l-.01-.001c-1.061.512-1.609 1.476-1.592 2.329.015.809.345 1.231.761 1.871.22.336.292.468-.231.853-.896.622-1.616 1.061-1.607 2.217.01 1.059.663 1.428 1.49 1.961.522.348.414.461.489.989.15 1.071 1.003 1.643 2.141 1.607l.004-.018c.209.695.675.869 1.4.878h13.055c.878-.002 1.34-.349 1.428-1.219l.001.001c1.8-.043 2.689-1.013 2.766-2.071.06-.837-.279-1.162-.677-1.764-.133-.215-.043-.276.179-.389.956-.467 1.724-.785 1.724-1.959 0-.665-.247-1.092-.731-1.446"/></svg>