<svg width="24" height="24" xmlns="http://www.w3.org/2000/svg" fill-rule="evenodd" clip-rule="evenodd"><path d="M20.671 12.989c-1.201-.751-1.714-.465-2.224.29-.799 1.19-1.735 1.374-3.043.796-.768-.339-1.073-.37-1.817.393-1.164 1.197-2.356 1.161-3.495-.042-.561-.594-.874-.787-1.66-.413-.366.175-.867.416-1.594.19-.791-.244-1.07-.785-1.273-1.18-.454-.877-1.273-.823-2.081-.285-.608.403-1.211-.51-.613-.913 1-.676 2.767-1.059 3.671.693.324.628.671.859 1.416.503 1.223-.587 2.049-.286 2.934.649.689.727 1.138.821 1.907.031 1.059-1.09 1.855-1.157 3.049-.633.795.353 1.173.362 1.686-.403 1.04-1.54 2.536-1.501 3.795-.557.584.437-.078 1.318-.658.881m-8.67 7.011c-5.411 0-9.001-2.207-9.001-3.667 0-.999 1.18-1.629 2.163-1.195 1 .437 3.331 1.862 6.837 1.862 3.139 0 4.862-.652 6.441-1.63 1.347-.838 2.559-.025 2.559.966 0 1.278-3.091 3.664-8.999 3.664m11.999-7.248c0-2.103-1.665-3.749-3.792-3.749-2.255.054-3.888 2.748-8.243 2.748-4.727 0-5.878-3.129-8.743-2.714-1.837.263-3.222 1.858-3.222 3.713 0 .956.445 1.821 1.175 2.587-1.215 3.623 4.246 6.663 10.826 6.663 6.807 0 11.948-3.142 10.83-6.651.726-.764 1.169-1.632 1.169-2.597m-14.03-2.752c3.384-3.229-.712-3.545.093-5.828-2.834 3.184 1.021 3.268-.093 5.828m2.983-.001c5.084-4.88-1.051-4.622.126-7.999-4.058 4.362 1.512 4.459-.126 7.999"/></svg>