<svg width="24" height="24" xmlns="http://www.w3.org/2000/svg" fill-rule="evenodd" clip-rule="evenodd"><path d="M22 24h-20v-24h8.409c4.857 0 3.335 8 3.335 8 3.009-.745 8.256-.419 8.256 3v13zm-10-10l-1.339-1.674c.404-.203.856-.326 1.339-.326 1.656 0 3 1.345 3 3s-1.344 3-3 3c-1.503 0-2.75-1.108-2.967-2.551l-1.967.367c.39 2.372 2.452 4.184 4.934 4.184 2.76 0 5-2.24 5-5s-2.24-5-5-5c-.957 0-1.845.277-2.605.744l-1.395-1.744-1 5h5zm2.568-13.925c2.201 1.174 5.938 4.884 7.432 6.882-1.286-.9-4.044-1.657-6.091-1.18.222-1.468-.186-4.534-1.341-5.702z"/></svg>