<svg xmlns="http://www.w3.org/2000/svg" width="24" height="24" viewBox="0 0 24 24"><path d="M8.847 17.875c.191-.211.548-.431.801-.559-.152.3-.366.619-.544.792-.36.353-.556.095-.257-.233zm7.062-12.098c2.047-.478 4.805.28 6.091 1.179-1.494-1.997-5.23-5.708-7.432-6.882 1.156 1.168 1.563 4.235 1.341 5.703zm-4.769 10.21c.328-.109 1.036-.274 1.213-.315-.02-.021-.528-.544-.695-.832-.134.335-.509 1.127-.518 1.147zm.64-4.008c-.057-.278-.263-.299-.326.024-.057.296.029.771.129 1.061.113-.237.255-.805.197-1.085zm10.22-.979v13h-20v-24h8.409c4.857 0 3.335 8 3.335 8 3.009-.745 8.256-.42 8.256 3zm-6.98 4.413c-.526-.077-1.272.009-1.797.093-.385-.325-.866-.817-1.233-1.472.253-.652.415-1.168.483-1.536.354-1.919-1.979-2.072-1.729-.012.066.549.222 1.082.464 1.588-.286.709-.651 1.508-1.018 2.232-.811.307-1.396.627-1.742.954-1.212 1.143.295 2.661 1.438 1.014.274-.395.581-.955.811-1.396.717-.253 1.551-.475 2.33-.618.509.39 1.322.896 1.972.896 1.239.001 1.417-1.538.021-1.743zm-.104.704c-.2-.03-.488-.03-.829-.002.235.158.558.323.911.33.412.008.377-.26-.082-.328z"/></svg>