<svg width="24" height="24" xmlns="http://www.w3.org/2000/svg" fill-rule="evenodd" clip-rule="evenodd"><path d="M10.409 0c4.857 0 3.335 8 3.335 8 3.009-.745 8.256-.419 8.256 3v11.515l-4.801-4.801c.507-.782.801-1.714.801-2.714 0-2.76-2.24-5-5-5s-5 2.24-5 5 2.24 5 5 5c1.037 0 2-.316 2.799-.858l4.858 4.858h-18.657v-24h8.409zm2.591 12c1.656 0 3 1.344 3 3s-1.344 3-3 3-3-1.344-3-3 1.344-3 3-3zm1.568-11.925c2.201 1.174 5.938 4.884 7.432 6.882-1.286-.9-4.044-1.657-6.091-1.18.222-1.468-.186-4.534-1.341-5.702z"/></svg>