<svg xmlns="http://www.w3.org/2000/svg" width="24" height="24" viewBox="0 0 24 24"><path d="M3.829 12.302c-.392.127-.796-.159-.826-.583v-.005c-.021-.306.164-.587.447-.679 2.825-.912 4.97-2.805 8.815-2.805 3.378 0 5.56 2.011 8.285 3.152.289.121.469.423.441.746-.033.416-.445.681-.82.528-2.852-1.169-4.869-3.098-7.906-3.098-3.522 0-5.471 1.787-8.436 2.744zm8.436-5.532c3.099 0 5.404 1.623 7.9 2.717.42.185.877-.166.832-.633v-.002c-.025-.28-.197-.524-.447-.636-2.482-1.109-4.889-2.773-8.285-2.773-3.996 0-6.076 1.688-8.787 2.615-.236.081-.406.298-.434.555v.005c-.05.477.392.851.834.7 2.824-.965 4.695-2.548 8.387-2.548zm0-2.721c2.658 0 4.96.94 7.031 2.017.236.123.523.082.717-.105.334-.318.244-.88-.148-1.084-2.199-1.146-4.666-2.155-7.599-2.155-3.527 0-5.715.896-8.036 2.006-.406.193-.503.757-.179 1.082.19.19.471.239.71.125 2.257-1.081 4.237-1.886 7.504-1.886zm3.959-2.078c.303.102.672-.041.811-.339.135-.29.059-.74-.34-.896-1.305-.509-2.764-.736-4.43-.736-1.983 0-3.47.239-4.924.726-.404.135-.496.628-.361.922.136.297.511.418.814.32 1.33-.43 2.672-.641 4.471-.641 1.484.001 2.765.243 3.959.644zm-4.087 10.441c2.36 0 4.635 1.84 7.68 2.934.33.118.684-.088.76-.437.08-.365-.115-.732-.455-.857-2.924-1.077-5.283-2.967-7.985-2.967-2.981 0-5.321 1.968-8.25 2.797-.331.094-.53.441-.453.788l.001.003c.082.365.439.587.79.488 3.029-.859 5.306-2.749 7.912-2.749zm-.128 3.053c2.083 0 4.316 1.286 7.025 2.295.334.125.705-.051.832-.396.123-.34-.045-.72-.375-.843-2.709-1.009-5.096-2.384-7.482-2.384-2.55 0-4.675 1.39-7.388 2.257-.357.114-.542.52-.406.876l.001.003c.123.321.462.489.78.387 2.771-.882 4.768-2.195 7.013-2.195zm.064 1.526c-2.151 0-4.152.881-6.388 1.683-.386.139-.547.611-.337.969l.003.005c.156.266.469.382.753.28 2.231-.8 4.06-1.61 5.97-1.61 1.954 0 3.684.92 5.842 1.826.283.118.604.009.764-.259v-.001c.211-.355.064-.825-.312-.983-2.148-.901-4.064-1.91-6.295-1.91zm-4.848 3.776c-.436.166-.56.745-.234 1.085.177.186.443.248.679.158 1.353-.515 2.737-.837 4.403-.837 1.415 0 2.76.439 4.174 1.076.234.106.506.057.693-.125.334-.324.24-.9-.184-1.09-1.531-.688-3.057-1.188-4.684-1.188-1.844-.001-3.382.363-4.847.921zm2.821 1.904c-.362.107-.591.467-.486.837.082.292.339.486.602.486l.143-.02c1.565-.447 1.986-.483 3.449-.001l.162.027c.251 0 .488-.181.581-.438.133-.37-.082-.748-.449-.879-1.387-.498-2.399-.486-4.002-.012z"/></svg>