<svg xmlns="http://www.w3.org/2000/svg" width="24" height="24" viewBox="0 0 24 24"><path d="M10.314 17.162c-1.024.657-2.188 1.201-3.439 1.616-.16.053-.336.037-.483-.046-.195-.108-.307-.319-.285-.537.022-.218.173-.403.385-.474 3.085-1.02 5.721-2.93 6.924-5.722.644-1.493-.584-2.561-1.853-2.561-.766 0-1.546.388-1.94 1.304-.711 1.65-2.502 2.957-4.903 3.625-.357.1-.714-.158-.72-.521-.005-.259.169-.489.425-.561 2.053-.572 3.562-1.643 4.137-2.977.275-.639.715-1.16 1.272-1.506.51-.317 1.108-.485 1.729-.485 1.098 0 2.137.522 2.711 1.364.548.805.621 1.782.203 2.752-.417.965-.998 1.867-1.728 2.681-.685.762-1.504 1.451-2.435 2.048zm-5.395-.396c3.084-.728 6.03-2.422 7.255-5.262.124-.285-.015-.614-.308-.734s-.63.014-.753.3c-.94 2.18-3.316 3.861-6.447 4.602-.298.07-.49.353-.44.646.054.317.371.524.693.448zm13.835.814c.147-.125.217-.315.185-.501-.033-.188-.164-.344-.345-.413-.535-.206-1.188-.519-1.528-1.049-.405-.633-.253-1.476-.077-2.452.247-1.371.557-3.078-.675-4.8-.883-1.236-2.32-2.043-3.945-2.213-1.701-.179-3.394.367-4.643 1.497-.55.498-.865 1.025-1.143 1.492-.439.734-.809 1.349-2.056 1.75-.198.064-.355.228-.387.471-.053.402.343.721.739.595 1.67-.535 2.191-1.405 2.697-2.252.262-.439.509-.852.934-1.236 1.004-.909 2.366-1.348 3.736-1.204 1.292.136 2.431.77 3.124 1.739.96 1.343.719 2.676.486 3.966-.199 1.102-.405 2.242.233 3.24.385.6 1.043 1.084 2.017 1.471.218.088.469.048.648-.101zm-7.821.808c-.264.151-.591.337-1.018.547-.224.111-.349.35-.309.591.04.241.235.43.483.467.115.017.232-.001.336-.052.28-.139.521-.268.729-.383.83-.459.908-.467 1.693.096l.311.216c.125.083.278.116.427.091.232-.039.416-.211.465-.434s-.045-.452-.238-.581c-.334-.225-.581-.415-.767-.561-.769-.596-1.027-.614-2.112.003zm-5.906-10.022c.244.164.556.101.719-.139l.344-.499c1.377-1.936 3.81-2.884 6.509-2.539 2.565.329 4.672 1.758 5.366 3.642.616 1.67.373 3.019.176 4.103-.168.936-.314 1.745.196 2.393.207.264.502.468.907.62.358.134.756-.116.756-.507 0-.239-.148-.458-.38-.551-.173-.07-.296-.151-.369-.243-.203-.258-.103-.814.023-1.518.208-1.15.492-2.726-.227-4.676-.839-2.274-3.312-3.991-6.3-4.374-.404-.052-.81-.078-1.215-.078-2.191 0-4.319.77-5.824 2.397-.379.417-.613.718-.84 1.229-.148.333-.089.575.159.74zm9.452 7.831c-.157-.269-.508-.363-.785-.21s-.373.496-.216.765c.523.897 1.339 1.653 2.459 2.277.167.092.37.099.543.016.19-.091.314-.277.319-.483.006-.207-.104-.398-.289-.501-.936-.522-1.61-1.141-2.031-1.864zm3.521-14.197h4v4h2v-6h-6v2zm-16 4v-4h4v-2h-6v6h2zm4 16h-4v-4h-2v6h6v-2zm16-4v4h-4v2h6v-6h-2z"/></svg>