<svg xmlns="http://www.w3.org/2000/svg" width="24" height="24" viewBox="0 0 24 24"><path d="M24 14h-24v-3h24v3zm-12.49-9.053c-.698 0-1.37.192-1.943.555-.628.398-1.124.995-1.432 1.726-.278.654-.758 1.249-1.386 1.772h1.806c.319-.4.583-.825.773-1.274.443-1.05 1.321-1.494 2.182-1.494 1.38 0 2.699 1.148 2.134 2.769h1.345c.201-.886.066-1.752-.428-2.49-.646-.965-1.815-1.564-3.051-1.564zm.342 2.81c-.33-.137-.709.016-.848.343-.131.31-.287.609-.466.9h1.45l.209-.402c.139-.327-.015-.703-.345-.841zm-7.695-2.754c.275.187.626.115.809-.159l.388-.572c1.549-2.217 4.285-3.304 7.322-2.909 2.886.376 5.256 2.014 6.037 4.173.478 1.325.492 2.47.384 3.464h1.302c.106-1.096.075-2.398-.467-3.898-1.131-3.123-4.747-5.102-8.455-5.102-2.466 0-4.86.882-6.553 2.746-.428.478-.69.823-.945 1.409-.167.382-.102.658.178.848zm.132 3.997c1.636-.618 2.2-1.552 2.736-2.466.294-.501.573-.974 1.05-1.414 1.13-1.041 2.661-1.543 4.204-1.379 1.453.155 2.734.882 3.514 1.993.771 1.1.85 2.193.737 3.267h1.298c.112-1.241 0-2.614-.973-4-.994-1.417-2.611-2.341-4.438-2.536-1.914-.206-3.817.419-5.224 1.714-.618.57-.973 1.175-1.287 1.709-.492.84-.908 1.546-2.312 2.005-.222.073-.397.261-.435.54-.03.23.067.436.226.567h.904zm6.15 14.945c-.079.037-.168.055-.259.055h3.536c-.089 0-.175-.016-.249-.049-1.918-.846-1.327-.798-3.028-.006zm6.462-7.945c.694.416 1.517.783 2.489 1.097.351.113.526.498.385.833-.135.319-.494.482-.826.374-1.804-.589-3.181-1.356-4.173-2.303h-2.402c.24.068.482.229.804.484.668.529 2.01 1.591 5.094 2.715.396.144.553.615.324.965-.136.224-.451.356-.747.249-2.583-.939-4.037-1.851-4.894-2.477-.884-.646-.971-.637-1.904-.11-.939.53-2.438 1.294-5.142 2.087-.295.086-.593-.057-.717-.286-.215-.365-.028-.835.382-.956 2.955-.871 4.378-1.695 5.227-2.186.449-.26.771-.42 1.043-.486h-3.381c-1.153.571-2.403 1.042-3.73 1.375-.32.081-.648-.095-.756-.405-.059-.173-.043-.363.045-.523s.238-.278.417-.323l.416-.124h-2.855v8h8.18c-.325 0-.677-.223-.693-.61-.012-.249.129-.48.357-.586 2.373-1.1 1.705-1.099 4.2-.003.236.104.384.341.37.597-.021.39-.378.602-.698.602h8.284v-8h-5.099zm-.745 6.397c-1.654-.664-2.841-1.301-3.594-1.705-.594-.32-.91-.265-1.429.001-.679.349-1.71.879-3.482 1.487-.446.153-.897-.287-.79-.762.051-.22.211-.398.426-.472 1.651-.57 2.613-1.065 3.251-1.393 1.377-.708 1.509-.6 2.642.009.721.387 1.854.996 3.432 1.631.209.084.361.269.4.49.09.489-.389.902-.856.714z"/></svg>