<svg xmlns="http://www.w3.org/2000/svg" width="24" height="24" viewBox="0 0 24 24"><path d="M10.946 15.226c-.64.41-1.367.75-2.149 1.01-.1.033-.21.022-.302-.029-.122-.068-.191-.199-.178-.335.014-.136.109-.252.241-.296 1.928-.637 3.576-1.831 4.328-3.576.401-.933-.366-1.6-1.159-1.6-.479 0-.966.242-1.212.814-.445 1.031-1.564 1.848-3.065 2.266-.223.062-.446-.099-.45-.326-.003-.163.105-.307.266-.351 1.283-.357 2.227-1.027 2.585-1.86.172-.399.447-.725.796-.941.318-.199.692-.303 1.08-.303.686 0 1.335.326 1.694.853.343.503.388 1.113.127 1.72-.26.603-.624 1.167-1.08 1.675-.427.476-.94.907-1.522 1.279zm-3.372-.247c1.928-.455 3.769-1.514 4.535-3.289.077-.178-.01-.383-.193-.458-.183-.075-.394.009-.471.188-.588 1.362-2.073 2.413-4.029 2.876-.186.043-.306.22-.275.404.034.196.232.326.433.279zm8.647.508c.092-.078.135-.196.115-.313-.02-.117-.102-.215-.215-.258-.334-.128-.743-.324-.955-.655-.253-.396-.158-.923-.048-1.533.155-.857.348-1.923-.421-3-.552-.772-1.451-1.277-2.465-1.383-1.065-.113-2.122.229-2.903.935-.344.31-.541.64-.715.932-.274.458-.505.843-1.284 1.094-.124.04-.222.142-.242.294-.033.251.214.451.462.372 1.044-.334 1.37-.878 1.686-1.408.164-.273.318-.532.583-.771.628-.567 1.479-.842 2.335-.752.808.085 1.519.481 1.953 1.087.599.84.448 1.673.303 2.479-.125.689-.253 1.402.146 2.025.241.375.652.677 1.26.919.137.054.293.03.405-.064zm-4.888.506c-.165.094-.369.21-.636.342-.14.069-.218.219-.193.37.024.15.146.269.302.292.072.011.145 0 .21-.032l.457-.239c.518-.288.567-.292 1.058.06l.195.136c.078.052.173.073.267.057.145-.024.259-.131.291-.271.031-.139-.028-.282-.149-.363-.209-.14-.363-.259-.479-.35-.483-.377-.644-.388-1.323-.002zm-3.691-6.264c.152.103.348.063.449-.087l.215-.311c.861-1.21 2.381-1.803 4.068-1.587 1.604.206 2.92 1.099 3.354 2.276.384 1.044.232 1.887.11 2.564-.105.585-.196 1.09.123 1.496.129.164.314.292.567.387.223.084.472-.072.472-.317 0-.15-.093-.287-.237-.344-.109-.043-.185-.095-.231-.152-.127-.162-.064-.509.015-.948.129-.719.307-1.704-.142-2.922-.525-1.422-2.07-2.495-3.937-2.734-.254-.033-.508-.05-.76-.05-1.37 0-2.699.481-3.64 1.499-.237.26-.383.449-.525.768-.093.208-.057.359.099.462zm5.907 4.894c-.098-.168-.318-.227-.49-.131-.173.096-.233.309-.136.477.327.561.837 1.033 1.538 1.423.104.058.231.062.339.01.119-.057.196-.173.2-.302.004-.129-.065-.25-.181-.313-.585-.325-1.007-.712-1.27-1.164zm-1.549-14.623c-6.627 0-12 5.373-12 12s5.373 12 12 12 12-5.373 12-12-5.373-12-12-12zm8 12c0 4.418-3.582 8-8 8s-8-3.582-8-8 3.582-8 8-8 8 3.582 8 8zm-19 0c0-6.065 4.935-11 11-11v2c-4.962 0-9 4.038-9 9 0 2.481 1.009 4.731 2.639 6.361l-1.414 1.414.015.014c-2-1.994-3.24-4.749-3.24-7.789z"/></svg>