<svg xmlns="http://www.w3.org/2000/svg" width="24" height="24" viewBox="0 0 24 24"><path d="M22 17.5c0 2.485-2.016 4.5-4.5 4.5-2.486 0-4.5-2.015-4.5-4.5s2.014-4.5 4.5-4.5c2.484 0 4.5 2.015 4.5 4.5zm-2.156-.882l-.697-.696-2.115 2.169-.992-.94-.695.697 1.688 1.637 2.811-2.867zm-16.808-1.992c-.362.087-.72-.15-.78-.511-.056-.337.16-.661.495-.741 3.522-.849 6.195-2.776 7.253-5.273.139-.327.518-.48.848-.343s.484.514.346.841c-1.378 3.253-4.692 5.193-8.162 6.027zm-.877-6.193c-.059.46.386.826.831.681 1.881-.613 2.466-1.61 3.035-2.581.294-.5.573-.973 1.05-1.413 1.13-1.041 2.661-1.543 4.204-1.379 1.452.155 2.735.882 3.515 1.993 1.091 1.555.807 3.092.522 4.675-.079.458.329.851.783.75.252-.055.445-.257.49-.511.232-1.444.751-3.532-.734-5.648-.993-1.417-2.612-2.341-4.438-2.536-1.914-.205-3.817.42-5.224 1.715-.618.57-.973 1.175-1.287 1.709-.492.84-.908 1.546-2.312 2.005-.222.073-.398.261-.435.54zm.998-3.43c.275.187.626.115.809-.159l.388-.572c1.549-2.217 4.285-3.304 7.322-2.909 2.888.376 5.256 2.014 6.037 4.173.683 1.888.433 3.398.182 4.799-.062.352.18.688.535.739.353.05.683-.188.744-.539.369-1.917.44-3.549-.242-5.434-1.131-3.122-4.745-5.101-8.455-5.101-2.466 0-4.86.882-6.553 2.746-.428.478-.69.823-.945 1.409-.167.382-.102.658.178.848zm7.463 12.528c.229-.095.384-.309.404-.555.021-.242-.094-.475-.297-.607-.203-.132-.462-.141-.675-.025-1 .556-2.272 1.384-5.479 2.329-.41.121-.597.591-.382.956.125.228.423.371.718.284 3.909-1.147 4.711-1.965 5.711-2.382zm1.225-4.797c.822-.932 1.477-1.965 1.943-3.071.473-1.111.391-2.231-.227-3.153-.646-.964-1.815-1.563-3.052-1.563-.698 0-1.37.192-1.943.555-.627.398-1.123.995-1.431 1.726-.648 1.527-2.346 2.755-4.655 3.411-.288.082-.485.345-.48.643.007.416.41.711.812.597 2.701-.766 4.715-2.263 5.516-4.153.443-1.05 1.321-1.494 2.182-1.494 1.428 0 2.81 1.224 2.085 2.935-1.528 3.612-5.11 5.937-9.156 6.958-.179.045-.329.162-.417.323s-.104.351-.045.523c.107.31.436.485.756.405 1.984-.499 3.819-1.28 5.372-2.294 1.047-.685 1.969-1.474 2.74-2.348zm1.568 10.663c.014-.256-.133-.493-.369-.597-2.495-1.096-1.827-1.096-4.2.003-.229.106-.369.337-.357.586.016.388.367.611.693.611.091 0 .181-.018.26-.055 1.7-.792 1.109-.84 3.026.005.076.034.162.05.25.05.32 0 .676-.212.697-.603zm-2.163-3.258c.116-.188.144-.417.075-.628-.1-.306-.417-.483-.729-.407-.269.065-.592.211-1.058.451-.638.328-1.6.822-3.251 1.393-.215.074-.375.252-.426.472-.107.475.344.915.79.762 1.772-.607 2.804-1.138 3.482-1.487.455-.235.888-.19 1.117-.556z"/></svg>