<svg xmlns="http://www.w3.org/2000/svg" width="24" height="24" viewBox="0 0 24 24"><path d="M17.14 14.181c-1.45-1.45-1.45-3.967-.374-6.387.923 2.735 2.963 2.397 3.869 3.906.253.425.365.847.365 1.243 0 1.147-.942 2.057-2.07 2.057-.582 0-1.214-.242-1.79-.819zm2.983-1.759c-.325-.743-1.13-1.176-1.618-1.279.441.543.644.968.741 1.759.131 1.058 1.363.632.877-.48zm-7.925-3.824c.139-.327-.017-.704-.346-.841-.33-.137-.709.016-.848.343-1.058 2.498-3.731 4.424-7.253 5.273-.335.081-.551.404-.495.741.06.361.417.598.78.511 3.469-.833 6.784-2.773 8.162-6.027zm-9.039-.165c-.06.46.386.827.832.682 1.88-.613 2.465-1.61 3.035-2.581.293-.501.571-.974 1.049-1.414 1.13-1.041 2.662-1.543 4.204-1.379 1.379.147 2.658.803 3.488 1.977.262.371.901.332 1.112-.114.099-.208.077-.452-.056-.64-1.035-1.458-2.668-2.314-4.406-2.5-1.914-.205-3.818.42-5.223 1.715-.619.57-.974 1.175-1.287 1.709-.493.84-.909 1.546-2.312 2.005-.223.073-.399.261-.436.54zm.998-3.43c.275.187.627.115.809-.159l.387-.572c1.549-2.217 4.286-3.304 7.323-2.909 2.886.376 5.256 2.014 6.037 4.173.286.792.405 1.519.433 2.188.019.466.548.784.971.548.209-.116.334-.34.325-.58-.03-.784-.169-1.649-.51-2.591-1.131-3.122-4.747-5.101-8.455-5.101-2.466 0-4.86.882-6.553 2.746-.427.478-.69.823-.945 1.409-.167.382-.102.658.178.848zm14.114 14.196c-3.083-1.124-4.426-2.186-5.094-2.715-.865-.686-1.156-.705-2.376.002-.849.491-2.271 1.315-5.227 2.186-.41.121-.597.591-.382.956.124.229.422.372.717.285 2.703-.793 4.203-1.557 5.142-2.087.933-.526 1.02-.535 1.904.11.856.626 2.31 1.537 4.894 2.477.296.107.611-.025.747-.249.229-.35.071-.821-.325-.965zm1.12-2.102c-2.316-.748-3.831-1.778-4.601-3.122-.177-.308-.572-.416-.883-.241-.311.175-.419.567-.243.875.928 1.619 2.668 2.837 5.285 3.693.332.108.692-.054.827-.374.141-.333-.035-.718-.385-.831zm-5.347 5.703c-2.496-1.096-1.827-1.096-4.2.003-.228.106-.369.337-.358.586.017.388.368.611.693.611.091 0 .181-.018.26-.055 1.7-.792 1.11-.84 3.027.005.076.034.161.05.25.05.32 0 .677-.212.698-.603.014-.256-.134-.493-.37-.597zm2.567-1.606c-1.578-.635-2.711-1.244-3.431-1.631-1.133-.609-1.265-.717-2.642-.009-.638.328-1.6.822-3.251 1.393-.215.074-.375.252-.425.472-.108.475.343.915.79.762 1.772-.607 2.803-1.138 3.482-1.487.518-.267.835-.321 1.429-.001.752.404 1.938 1.042 3.593 1.705.468.188.945-.226.856-.714-.04-.221-.191-.406-.401-.49zm-3.766-8.46c.822-.932 1.476-1.965 1.944-3.071.47-1.111.389-2.231-.228-3.153-.646-.964-1.815-1.563-3.051-1.563-.698 0-1.37.192-1.944.555-.627.398-1.122.995-1.432 1.726-.647 1.527-2.344 2.755-4.654 3.411-.288.082-.485.345-.48.643.007.416.41.711.813.597 2.7-.766 4.714-2.263 5.515-4.153.444-1.05 1.322-1.494 2.182-1.494 1.428 0 2.81 1.224 2.085 2.935-1.529 3.612-5.11 5.937-9.157 6.958-.178.045-.33.162-.417.323-.087.161-.104.351-.044.523.107.31.436.485.755.405 1.984-.499 3.819-1.28 5.372-2.294 1.048-.685 1.97-1.474 2.741-2.348z"/></svg>