<svg xmlns="http://www.w3.org/2000/svg" width="24" height="24" viewBox="0 0 24 24"><path d="M13.239 23.471l.564.395c-.587.088-1.19.134-1.803.134-.557 0-1.104-.039-1.642-.112.391-.193.716-.371.992-.528.926-.527 1.012-.535 1.889.111zm-8.385-1.83c-2.945-2.187-4.854-5.691-4.854-9.641 0-6.627 5.373-12 12-12s12 5.373 12 12c0 3.275-1.312 6.243-3.439 8.409-.065-.053-.141-.094-.226-.12-1.235-.383-2.023-.86-2.388-1.445-.453-.726-.283-1.691-.086-2.81.276-1.571.62-3.526-.753-5.5-.986-1.417-2.591-2.341-4.403-2.536-1.898-.205-3.787.421-5.181 1.715-.614.57-.967 1.175-1.277 1.709-.489.84-.901 1.546-2.294 2.006-.221.073-.396.261-.432.539-.06.46.382.827.825.682 1.864-.613 2.445-1.609 3.011-2.581.291-.5.566-.974 1.041-1.414 1.121-1.041 2.641-1.543 4.169-1.379 1.442.155 2.713.882 3.486 1.993 1.071 1.539.803 3.066.542 4.544-.222 1.263-.452 2.569.262 3.712.479.769 1.341 1.371 2.648 1.838-.359.289-.735.556-1.126.802-1.607-.692-2.705-1.572-3.321-2.655-.175-.309-.567-.417-.875-.241-.309.175-.416.567-.241.876.63 1.108 1.639 2.028 3.044 2.773-.445.204-.904.381-1.377.53-1.111-.601-1.751-1.111-2.149-1.429-.858-.685-1.146-.705-2.357.002-.577.337-1.421.83-2.838 1.386-.687-.225-1.346-.509-1.971-.847 1.504-.486 2.898-1.142 4.117-1.944 1.04-.684 1.954-1.473 2.718-2.346.815-.932 1.465-1.965 1.93-3.071.467-1.111.386-2.231-.227-3.153-.641-.964-1.801-1.563-3.026-1.563-.693 0-1.36.192-1.929.555-.622.397-1.113.994-1.421 1.726-.642 1.527-2.325 2.755-4.616 3.41-.285.082-.481.346-.477.643.008.416.407.711.807.598 2.679-.766 4.677-2.264 5.471-4.154.44-1.05 1.311-1.494 2.165-1.494 1.417 0 2.787 1.224 2.068 2.934-1.509 3.592-5.031 5.911-9.02 6.941zm-.343-11.104c.273.188.622.115.803-.159l.385-.572c1.536-2.217 4.251-3.304 7.264-2.908 2.863.376 5.214 2.014 5.988 4.172.688 1.914.415 3.459.197 4.701-.188 1.073-.352 1.999.219 2.742.23.302.561.535 1.013.71.377.146.79-.105.836-.505.034-.302-.136-.59-.417-.707-.193-.08-.331-.173-.412-.279-.227-.295-.115-.932.026-1.739.231-1.318.549-3.123-.253-5.357-.936-2.606-3.695-4.574-7.03-5.012-2.904-.382-5.869.448-7.858 2.656-.423.477-.685.823-.937 1.408-.165.383-.101.659.176.849zm-.119 9.624c3.441-.834 6.729-2.775 8.096-6.029.138-.327-.016-.704-.343-.841s-.703.017-.841.343c-1.05 2.498-3.701 4.424-7.195 5.273-.332.081-.547.404-.491.741.06.363.414.6.774.513z"/></svg>