<svg xmlns="http://www.w3.org/2000/svg" width="24" height="24" viewBox="0 0 24 24"><path d="M24 14h-24v-3h24v3zm-12.49-9.053c-.698 0-1.37.192-1.943.555-.628.398-1.124.995-1.432 1.726-.278.654-.758 1.249-1.386 1.772h1.806c.319-.4.583-.825.773-1.274.443-1.05 1.321-1.494 2.182-1.494 1.38 0 2.699 1.148 2.134 2.769h1.345c.201-.886.066-1.752-.428-2.49-.646-.965-1.815-1.564-3.051-1.564zm.342 2.81c-.33-.137-.709.016-.848.343-.131.31-.287.609-.466.9h1.45l.209-.402c.139-.327-.015-.703-.345-.841zm6.419 11.442c-3.084-1.124-4.426-2.186-5.094-2.715-.865-.686-1.156-.705-2.377.002-.849.491-2.271 1.315-5.227 2.186-.41.121-.597.591-.382.956.125.229.423.372.718.285 2.703-.793 4.202-1.557 5.142-2.087.934-.526 1.021-.535 1.904.11.856.626 2.311 1.537 4.894 2.477.296.107.611-.025.747-.249.228-.35.071-.821-.325-.965zm-1.66 1.995c-1.578-.635-2.711-1.244-3.432-1.631-1.133-.609-1.265-.717-2.642-.009-.638.328-1.6.822-3.251 1.393-.215.074-.375.252-.426.472-.107.475.344.915.79.762 1.772-.607 2.804-1.138 3.482-1.487.519-.267.835-.321 1.429-.001.753.404 1.939 1.042 3.594 1.705.467.188.945-.226.855-.714-.037-.221-.19-.406-.399-.49zm-12.454-16.191c.275.187.626.115.809-.159l.388-.572c1.549-2.217 4.285-3.304 7.322-2.909 2.886.376 5.256 2.014 6.037 4.173.478 1.325.492 2.47.384 3.464h1.302c.106-1.096.075-2.398-.467-3.898-1.131-3.123-4.747-5.102-8.455-5.102-2.466 0-4.86.882-6.553 2.746-.428.478-.69.823-.945 1.409-.167.382-.102.658.178.848zm15.234 12.094c-.973-.314-1.795-.681-2.489-1.097h-2.125c.992.947 2.369 1.713 4.173 2.303.332.108.691-.054.826-.374.141-.334-.035-.719-.385-.832zm-5.347 5.703c-2.495-1.096-1.827-1.096-4.2.003-.229.106-.369.337-.357.586.016.388.367.611.693.611.091 0 .181-.018.26-.055 1.7-.792 1.109-.84 3.027.005.074.034.16.05.249.05.32 0 .677-.212.698-.603.014-.256-.134-.493-.37-.597zm-9.755-13.8c1.636-.618 2.2-1.552 2.736-2.466.294-.501.573-.974 1.05-1.414 1.13-1.041 2.661-1.543 4.204-1.379 1.453.155 2.734.882 3.514 1.993.771 1.1.85 2.193.737 3.267h1.298c.112-1.241 0-2.614-.973-4-.994-1.417-2.611-2.341-4.438-2.536-1.914-.206-3.817.419-5.224 1.714-.618.57-.973 1.175-1.287 1.709-.492.84-.908 1.546-2.312 2.005-.222.073-.397.261-.435.54-.03.23.067.436.226.567h.904zm.566 7l-.417.124c-.179.045-.329.162-.417.323s-.104.351-.045.523c.107.31.436.485.756.405 1.328-.333 2.578-.804 3.731-1.375h-3.608z"/></svg>