<svg xmlns="http://www.w3.org/2000/svg" width="24" height="24" viewBox="0 0 24 24"><path d="M11.5 2c.827 0 1.5.672 1.5 1.5s-.673 1.5-1.5 1.5-1.5-.673-1.5-1.5.673-1.5 1.5-1.5zm0-2c-1.931 0-3.5 1.57-3.5 3.5s1.569 3.5 3.5 3.5c1.93 0 3.5-1.57 3.5-3.5s-1.57-3.5-3.5-3.5zm-7 12c.827 0 1.5.673 1.5 1.5s-.673 1.5-1.5 1.5-1.5-.673-1.5-1.5.673-1.5 1.5-1.5zm0-2c-1.931 0-3.5 1.57-3.5 3.5s1.569 3.5 3.5 3.5c1.93 0 3.5-1.57 3.5-3.5s-1.57-3.5-3.5-3.5zm15 1c.827 0 1.5.673 1.5 1.5s-.673 1.5-1.5 1.5-1.5-.673-1.5-1.5.673-1.5 1.5-1.5zm0-2c-1.931 0-3.5 1.57-3.5 3.5s1.569 3.5 3.5 3.5c1.93 0 3.5-1.57 3.5-3.5s-1.57-3.5-3.5-3.5zm-6.655 3.734c.822-.932 1.477-1.965 1.944-3.071.302-.712.552-2.237-.165-2.526-.193-.078-.413-.055-.587.059-.226.149-.338.419-.283.684.078.381.041.814-.159 1.285-.885 2.091-2.465 3.742-4.418 4.967-.158.099-.271.256-.316.437-.062.251.034.515.243.667.209.153.489.164.709.029l.292-.185c1.047-.683 1.969-1.472 2.74-2.346zm-5.844-3.95c-.142.142-.226.332-.214.532s.113.386.276.504c.227.165.522.13.746-.039.541-.406 1.033-1.069 1.381-1.711.163-.3.07-.676-.215-.865-.155-.103-.347-.137-.529-.092-.181.044-.336.161-.427.325-.26.463-.544.873-1.018 1.346zm9.061-6.261c1.258.752 2.21 1.796 2.649 3.012.243.671.365 1.295.414 1.878.026.318.285.568.604.582l.021.001c.385.021.7-.305.667-.688-.058-.68-.202-1.417-.488-2.207-.561-1.55-1.734-2.818-3.229-3.702-.228-.134-.514-.115-.72.05-.372.298-.272.862.082 1.074zm-4.561 5.479c-.257-.007-.495.137-.609.367-.367.74-.66 1.364-2.082 2.584-.228.196-.307.515-.184.789l.019.042c.075.172.226.3.409.345.183.044.376.001.522-.118.641-.521 2.089-2.011 2.525-3.105.08-.201.057-.428-.062-.608s-.319-.291-.535-.296h-.003zm5.064-.045c.025.457.515.738.922.53l.014-.007c.227-.114.363-.353.348-.606-.069-1.136-.44-2.123-1.045-2.949-.138-.188-.368-.286-.6-.254-.231.032-.427.188-.509.407-.074.23-.1.427.064.65.517.704.76 1.408.806 2.229zm3.211 9.972c.141-.334-.035-.719-.386-.833-2.315-.748-3.831-1.778-4.601-3.122-.177-.308-.572-.416-.883-.241s-.42.567-.243.875c.928 1.619 2.668 2.837 5.285 3.693.332.11.694-.052.828-.372zm-1.18 2.235c.229-.35.071-.821-.324-.965-3.083-1.124-4.426-2.186-5.094-2.715-.865-.686-1.155-.705-2.376.002-.85.491-2.271 1.315-5.228 2.186-.409.121-.597.591-.382.956.124.229.422.372.717.285 2.703-.793 4.203-1.557 5.143-2.087.933-.526 1.02-.535 1.903.11.856.626 2.31 1.537 4.894 2.477.297.108.611-.025.747-.249zm-1.985 1.03c-1.578-.635-2.711-1.244-3.431-1.631-1.134-.609-1.266-.717-2.643-.009-.638.328-1.6.822-3.251 1.393-.215.074-.376.252-.425.472-.109.475.343.915.789.762 1.771-.607 2.803-1.138 3.482-1.487.518-.267.835-.321 1.43-.001.752.404 1.938 1.042 3.592 1.705.469.188.945-.226.857-.714-.039-.221-.19-.406-.4-.49zm-2.567 1.606c-2.496-1.096-1.826-1.096-4.2.003-.228.106-.369.337-.358.586.017.388.368.611.693.611.092 0 .182-.018.261-.055 1.7-.792 1.11-.84 3.026.005.076.034.162.05.25.05.32 0 .677-.212.698-.603.014-.256-.134-.493-.37-.597zm-9.887-17.797c.276.187.627.115.809-.159l.387-.572c.43-.615.96-1.131 1.555-1.562.319-.231.406-.802.004-1.083-.221-.155-.515-.154-.733.003-.45.322-.871.693-1.255 1.116-.427.478-.69.823-.944 1.409-.168.382-.102.658.177.848zm-.998 3.43c-.061.46.386.827.832.682 2.271-.74 2.65-2.042 3.381-3.144.122-.184.14-.419.047-.62l-.009-.021c-.097-.209-.298-.35-.527-.368-.229-.018-.45.089-.578.28-.745 1.11-.951 2.074-2.71 2.65-.223.074-.399.262-.436.541z"/></svg>