<svg xmlns="http://www.w3.org/2000/svg" width="24" height="24" viewBox="0 0 24 24"><path d="M9.471 19.743c-1.536.985-3.281 1.801-5.158 2.424-.24.08-.505.055-.726-.068-.293-.164-.46-.479-.427-.806.033-.327.26-.604.578-.71 4.628-1.53 8.581-4.395 10.387-8.583.965-2.24-.877-3.842-2.78-3.842-1.148 0-2.318.582-2.91 1.956-1.067 2.475-3.754 4.436-7.354 5.438-.537.149-1.071-.238-1.081-.782-.008-.389.253-.735.638-.842 3.079-.858 5.343-2.465 6.205-4.465.413-.958 1.073-1.739 1.909-2.259.765-.476 1.661-.727 2.593-.727 1.646 0 3.206.784 4.067 2.046.823 1.207.932 2.673.304 4.128-.624 1.448-1.496 2.8-2.592 4.021-1.027 1.142-2.257 2.176-3.653 3.071zm-8.093-.595c4.627-1.092 9.046-3.633 10.884-7.893.185-.428-.022-.921-.462-1.101s-.945.021-1.13.45c-1.41 3.27-4.975 5.792-9.671 6.903-.447.106-.734.529-.66.97.08.475.557.785 1.039.671zm20.753 1.221c.222-.186.326-.471.277-.752s-.245-.515-.518-.619c-.803-.308-1.782-.778-2.292-1.573-.608-.95-.38-2.214-.115-3.679.371-2.057.835-4.617-1.012-7.2-1.325-1.855-3.481-3.065-5.918-3.321-2.552-.268-5.091.551-6.965 2.246-.824.746-1.297 1.538-1.714 2.237-.658 1.101-1.213 2.024-3.083 2.626-.298.096-.533.342-.581.706-.08.603.514 1.083 1.108.892 2.506-.802 3.287-2.107 4.046-3.378.393-.656.764-1.275 1.4-1.851 1.507-1.363 3.549-2.021 5.604-1.806 1.938.203 3.646 1.154 4.686 2.609 1.439 2.015 1.078 4.015.729 5.949-.299 1.654-.607 3.364.351 4.86.578.9 1.564 1.626 3.024 2.208.328.13.704.071.973-.154zm-11.732 1.214c-.396.225-.887.504-1.526.82-.336.166-.523.524-.464.886.06.362.353.645.725.701.173.026.348-.001.504-.078.421-.208.782-.401 1.095-.575 1.244-.689 1.361-.701 2.539.145l.467.325c.188.125.417.174.641.137.348-.059.623-.315.697-.65.074-.334-.067-.677-.357-.872-.502-.336-.871-.623-1.15-.841-1.156-.898-1.543-.924-3.171.002zm-8.859-15.034c.366.246.835.151 1.078-.208l.517-.749c2.065-2.903 5.715-4.326 9.763-3.808 3.848.493 7.009 2.637 8.049 5.463.924 2.505.559 4.528.265 6.154-.252 1.404-.471 2.617.294 3.59.311.395.754.701 1.361.93.535.201 1.133-.174 1.133-.761 0-.358-.223-.687-.569-.826-.261-.104-.444-.227-.554-.365-.305-.387-.154-1.221.036-2.276.312-1.726.737-4.089-.34-7.014-1.259-3.412-4.968-5.988-9.45-6.562-.608-.077-1.218-.117-1.825-.117-3.287 0-6.479 1.155-8.736 3.595-.569.625-.92 1.077-1.26 1.844-.222.5-.134.862.238 1.11zm14.178 11.746c-.236-.403-.763-.544-1.177-.315-.415.229-.56.743-.324 1.146.785 1.346 2.009 2.48 3.689 3.416.25.139.556.148.814.024h.001c.285-.137.47-.416.479-.725.01-.31-.157-.598-.434-.751-1.405-.782-2.415-1.71-3.048-2.795z"/></svg>