<svg xmlns="http://www.w3.org/2000/svg" width="24" height="24" viewBox="0 0 24 24"><path d="M12 2c5.514 0 10 4.486 10 10s-4.486 10-10 10-10-4.486-10-10 4.486-10 10-10zm0-2c-6.627 0-12 5.373-12 12s5.373 12 12 12 12-5.373 12-12-5.373-12-12-12zm-1.265 15.872c-.768.493-1.641.9-2.579 1.212-.12.04-.252.028-.363-.034-.146-.082-.23-.239-.213-.403s.13-.302.289-.355c2.314-.765 4.291-2.198 5.193-4.292.482-1.12-.438-1.921-1.39-1.921-.574 0-1.159.291-1.455.978-.534 1.237-1.877 2.218-3.677 2.719-.268.075-.535-.119-.54-.391-.004-.194.126-.367.319-.421 1.54-.429 2.671-1.232 3.103-2.232.207-.479.537-.87.955-1.129.382-.238.831-.364 1.296-.364.823 0 1.603.392 2.034 1.023.412.604.466 1.336.152 2.064-.312.724-.748 1.4-1.296 2.01-.515.571-1.129 1.088-1.828 1.536zm-4.046-.298c2.313-.546 4.523-1.816 5.442-3.946.092-.214-.011-.46-.231-.55s-.473.011-.565.225c-.705 1.635-2.487 2.896-4.835 3.452-.224.053-.367.264-.33.485.039.236.278.391.519.334zm10.376.611c.111-.093.163-.236.139-.376-.024-.141-.123-.258-.259-.31-.401-.154-.891-.389-1.146-.787-.304-.475-.19-1.107-.058-1.839.186-1.028.417-2.308-.506-3.6-.663-.927-1.741-1.532-2.959-1.66-1.276-.134-2.545.275-3.482 1.123-.412.372-.648.768-.857 1.118-.329.55-.606 1.012-1.542 1.313-.149.048-.267.171-.291.353-.04.301.257.541.554.446 1.253-.401 1.644-1.053 2.023-1.689.196-.328.382-.637.7-.925.753-.682 1.774-1.011 2.802-.903.969.102 1.823.577 2.343 1.304.72 1.007.539 2.007.364 2.975-.149.827-.304 1.682.175 2.43.289.45.782.813 1.512 1.104.166.065.354.035.488-.077zm-5.865.607c-.198.113-.443.252-.763.41-.168.083-.262.262-.232.443s.176.322.362.35c.086.013.174-.001.252-.039l.547-.287c.622-.345.681-.351 1.27.072l.233.162c.094.062.208.087.32.068.174-.029.312-.158.349-.325.037-.167-.034-.338-.179-.436-.251-.168-.436-.312-.575-.42-.577-.448-.77-.461-1.584.002zm-4.43-7.517c.183.122.418.075.539-.105l.258-.374c1.033-1.452 2.857-2.163 4.882-1.904 1.924.247 3.504 1.318 4.024 2.731.462 1.252.279 2.264.132 3.077-.126.702-.235 1.309.147 1.795.155.198.377.351.681.465.268.101.567-.086.567-.38 0-.179-.111-.343-.285-.413-.13-.052-.222-.113-.277-.183-.152-.193-.077-.61.018-1.138.156-.863.369-2.044-.17-3.507-.629-1.706-2.484-2.994-4.725-3.281-.304-.038-.608-.058-.912-.058-1.644 0-3.239.578-4.368 1.798-.284.312-.46.538-.63.922-.111.25-.067.43.119.555zm7.089 5.873c-.118-.202-.381-.272-.588-.158-.208.115-.28.372-.162.573.393.673 1.004 1.24 1.845 1.708.125.069.278.074.407.012.143-.068.235-.208.24-.363.005-.155-.079-.299-.217-.375-.703-.391-1.209-.855-1.525-1.397z"/></svg>