<svg xmlns="http://www.w3.org/2000/svg" width="24" height="24" viewBox="0 0 24 24"><path d="M20 18v-2c0-1.657-1.344-3-3-3s-3 1.343-3 3v2h-1v6h8v-6h-1zm-5 0v-2c0-1.103.897-2 2-2s2 .897 2 2v2h-4zm-4 5.314c0 .222-.127.424-.326.521l-.234.111c-.08.036-.169.054-.26.054-.325 0-.677-.223-.693-.61-.012-.249.129-.48.357-.586l.225-.104c.202-.096.439-.08.628.04.189.119.303.327.303.551v.023zm-.333-5.277c-.953.512-2.394 1.182-4.758 1.876-.295.087-.593-.056-.717-.285-.215-.365-.028-.835.382-.956 2.24-.66 3.543-1.267 4.47-1.764.201-.107.444-.103.641.015.195.118.315.329.315.557 0 .233-.128.447-.333.557zm-.563-2.956c-1.553 1.014-3.388 1.795-5.372 2.294-.32.081-.648-.095-.756-.405-.059-.173-.043-.363.045-.523s.238-.278.417-.323c4.046-1.021 7.628-3.346 9.157-6.958.725-1.71-.658-2.935-2.086-2.935-.86 0-1.738.444-2.182 1.494-.801 1.89-2.814 3.388-5.516 4.153-.401.115-.804-.181-.811-.596-.005-.297.192-.561.48-.643 2.309-.655 4.007-1.883 4.654-3.411.309-.731.805-1.328 1.432-1.726.573-.363 1.245-.555 1.943-.555 1.236 0 2.405.599 3.051 1.563.617.922.699 2.042.229 3.153-.469 1.105-1.123 2.139-1.944 3.071-.771.874-1.693 1.663-2.741 2.347zm.896 5.311c0 .228-.13.438-.334.54-.666.332-1.604.765-3.015 1.249-.446.153-.897-.287-.79-.762.051-.22.211-.398.426-.472 1.419-.49 2.149-.841 2.773-1.156.201-.102.439-.092.631.026.193.117.309.326.309.551v.024zm-7.021-16.237c.256-.586.518-.931.945-1.409 1.693-1.864 4.087-2.746 6.553-2.746 3.708 0 7.324 1.979 8.455 5.102.808 2.234.488 4.04.255 5.357l-.095.567c-.031.205-.157.382-.34.479s-.4.099-.586.008c-.254-.124-.397-.399-.355-.678l.101-.598c.22-1.242.493-2.788-.198-4.701-.781-2.159-3.151-3.796-6.037-4.173-3.038-.396-5.775.692-7.323 2.908l-.388.572c-.183.275-.534.347-.809.16-.28-.19-.345-.466-.178-.848zm.057 10.471c-.362.087-.72-.15-.78-.511-.056-.337.16-.661.495-.741 3.522-.849 6.195-2.776 7.253-5.273.139-.327.518-.48.848-.343s.484.514.346.841c-1.378 3.253-4.692 5.193-8.162 6.027zm-.442-6.733c1.404-.459 1.82-1.165 2.312-2.005.314-.534.669-1.139 1.287-1.709 1.406-1.294 3.31-1.919 5.224-1.715 1.827.195 3.444 1.119 4.438 2.536 1.385 1.974 1.037 3.929.759 5.5-.051.292-.306.503-.601.5h-.057999999999999996c-.184.002-.359-.077-.479-.216s-.17-.325-.138-.507c.262-1.477.532-3.005-.547-4.544-.779-1.111-2.061-1.837-3.514-1.993-1.541-.164-3.072.339-4.202 1.38-.478.44-.756.913-1.05 1.414-.569.97-1.154 1.967-3.035 2.58-.445.145-.89-.221-.831-.681.037-.279.213-.467.435-.54z"/></svg>