<svg xmlns="http://www.w3.org/2000/svg" width="24" height="24" viewBox="0 0 24 24"><path d="M19 2c0-1.104-.896-2-2-2h-10c-1.104 0-2 .896-2 2v20c0 1.104.896 2 2 2h10c1.104 0 2-.896 2-2v-20zm-8.5 0h3c.276 0 .5.224.5.5s-.224.5-.5.5h-3c-.275 0-.5-.224-.5-.5s.225-.5.5-.5zm1.5 20c-.553 0-1-.448-1-1s.447-1 1-1c.552 0 .999.448.999 1s-.447 1-.999 1zm5-3h-10v-14.024h10v14.024zm-5.844-4.419c-.512.328-1.094.601-1.719.808-.081.027-.168.018-.242-.023-.098-.055-.153-.16-.142-.269.01-.109.086-.202.192-.237 1.543-.51 2.86-1.464 3.462-2.86.322-.747-.293-1.281-.927-1.281-.383 0-.772.194-.97.652-.355.825-1.252 1.479-2.452 1.813-.177.05-.355-.079-.358-.261-.003-.13.085-.245.212-.281 1.026-.286 1.781-.822 2.069-1.488.137-.319.356-.58.636-.752.255-.159.555-.243.864-.243.55 0 1.069.262 1.355.683.274.402.312.891.102 1.375-.208.483-.499.934-.863 1.34-.343.381-.753.725-1.219 1.024zm-2.696-.198c1.541-.364 3.014-1.211 3.627-2.631.062-.143-.008-.307-.153-.367-.147-.06-.315.007-.378.15-.47 1.09-1.657 1.93-3.223 2.301-.149.036-.244.176-.22.323.027.158.185.261.347.224zm6.916.407c.074-.062.109-.157.093-.25-.016-.094-.081-.172-.172-.207-.269-.103-.594-.26-.765-.524-.203-.317-.126-.738-.037-1.227.123-.686.277-1.539-.338-2.4-.442-.618-1.161-1.021-1.973-1.106-.852-.089-1.697.184-2.321.748-.276.249-.434.513-.571.746-.221.366-.405.674-1.029.875-.099.032-.177.114-.192.235-.027.201.171.361.368.297.836-.268 1.097-.702 1.35-1.125.131-.219.255-.425.467-.617.502-.455 1.183-.674 1.867-.602.646.068 1.217.385 1.562.869.479.672.359 1.338.242 1.983-.099.552-.201 1.121.117 1.62.193.3.522.542 1.008.736.109.044.236.023.324-.051zm-3.91.404c-.131.075-.295.168-.509.273-.112.056-.175.175-.153.295.02.121.117.216.24.234l.168-.026.365-.191c.415-.23.454-.234.846.048l.156.108c.062.042.14.058.214.045.116-.02.207-.105.231-.217.025-.111-.021-.226-.118-.291l-.384-.28c-.384-.297-.513-.306-1.056.002zm-2.953-5.01c.123.082.279.05.359-.07l.172-.249c.689-.968 1.905-1.442 3.256-1.27 1.282.164 2.336.879 2.682 1.821.309.834.187 1.509.089 2.051-.083.468-.156.872.098 1.197.104.131.251.233.454.31.178.067.377-.059.377-.254 0-.119-.074-.228-.19-.275-.087-.035-.148-.076-.185-.122-.102-.129-.051-.407.013-.758.104-.576.245-1.363-.113-2.338-.42-1.137-1.656-1.996-3.15-2.188-.203-.025-.406-.039-.609-.039-1.095 0-2.159.385-2.911 1.199-.19.208-.308.358-.421.614-.075.167-.044.287.079.371zm4.726 3.914c-.079-.134-.255-.181-.393-.105-.139.077-.187.248-.108.382.262.449.671.827 1.23 1.139.083.046.185.049.271.008h.002c.095-.045.156-.139.158-.242.004-.103-.052-.199-.145-.25-.468-.26-.804-.57-1.015-.932z"/></svg>