<svg xmlns="http://www.w3.org/2000/svg" width="24" height="24" viewBox="0 0 24 24"><path d="M11.946 20.35c1.918 0 4.313-.875 5.956-1.593.251-.11.544-.044.726.164.183.208.214.511.079.752l-.003.005c-.069.123-.175.218-.301.274-1.747.764-4.312 1.694-6.458 1.694h-.074c-2.255-.022-4.841-1.019-6.485-1.776-.119-.055-.22-.147-.286-.263l-.005-.008c-.139-.244-.108-.551.077-.761s.482-.272.735-.157c1.563.719 3.957 1.648 5.977 1.669h.062zm-.008-2.416c-3.388 0-4.335-2.37-7.251-1.911-.186.029-.348.14-.445.302-.098.163-.119.362-.06.542l.002.006c.101.298.395.479.698.429 2.398-.387 3.218 1.927 7.056 1.927 3.099 0 5.658-2.122 7.075-2.122.282 0 .561-.163.648-.447l.003-.01c.06-.188.03-.392-.081-.554-.11-.161-.29-.268-.482-.268-2.299.001-3.594 2.106-7.163 2.106zm.01-6.255c.352 0 .637-.29.637-.648v-2.657c0-.358-.285-.648-.637-.648-.351 0-.636.29-.636.648v2.657c0 .358.286.648.636.648zm-3.173-.498v-3.059c0-1.777 1.419-3.222 3.163-3.222s3.163 1.445 3.163 3.222v3.059c0 1.777-1.419 3.222-3.163 3.222s-3.163-1.445-3.163-3.222zm1.272 0c0 1.064.847 1.926 1.892 1.926 1.044 0 1.891-.862 1.891-1.926v-3.059c0-1.064-.847-1.926-1.891-1.926-1.045 0-1.892.862-1.892 1.926v3.059zm-.669 11.179c-.313-.079-.635.093-.749.401-.112.308.017.653.304.804l.06.031c.938.242 1.924.404 2.884.404.993 0 2.025-.168 3.014-.419l.058-.029c.288-.149.421-.495.309-.803-.112-.309-.435-.483-.749-.404-.872.217-1.772.361-2.631.361-.846-.001-1.71-.146-2.5-.346zm2.56-5.506c-1.191 0-2.115-.475-2.858-.855-.548-.281-1.021-.524-1.462-.524-.352 0-.637-.29-.637-.648s.285-.648.637-.648c.744 0 1.399.337 2.034.663.688.353 1.397.717 2.286.717 1.155 0 1.812-.383 2.445-.753.527-.308 1.073-.626 1.792-.626.352 0 .637.29.637.648s-.285.648-.637.648c-.381 0-.707.191-1.159.455-.704.41-1.582.923-3.078.923zm4.903-3.745c-.352 0-.636-.29-.636-.648v-4.549c0-2.332-1.978-4.23-4.267-4.23-2.251 0-4.267 2-4.267 4.366v4.413c0 .358-.285.648-.636.648-.352 0-.637-.29-.637-.648v-4.413c0-1.478.562-2.886 1.582-3.965 1.034-1.094 2.514-1.697 3.957-1.697 2.991 0 5.538 2.479 5.538 5.526v4.549c.002.358-.283.648-.634.648zm3.159.891v-5.448c0-4.955-3.466-8.552-8.081-8.552-2.404 0-4.529.856-5.929 2.476-1.302 1.507-1.99 3.557-1.99 5.928v5.596c0 .358.285.648.636.648.352 0 .637-.29.637-.648v-5.596c0-4.318 2.678-7.108 6.646-7.108 3.879 0 6.809 3.052 6.809 7.256v5.448c0 .358.285.648.637.648.35 0 .635-.29.635-.648z"/></svg>