<svg xmlns="http://www.w3.org/2000/svg" width="24" height="24" viewBox="0 0 24 24"><path d="M22 21.586l-2.832-2.832c.523-.79.832-1.735.832-2.754 0-2.761-2.238-5-5-5s-5 2.239-5 5 2.238 5 5 5c1.019 0 1.964-.308 2.754-.832l2.832 2.832 1.414-1.414zm-7-2.586c-1.654 0-3-1.346-3-3s1.346-3 3-3 3 1.346 3 3-1.346 3-3 3zm-11.964-4.374c-.362.087-.72-.15-.78-.511-.056-.337.16-.661.495-.741 3.522-.849 6.195-2.776 7.253-5.273.139-.327.518-.48.848-.343s.484.514.346.841c-1.378 3.253-4.692 5.193-8.162 6.027zm6.381 5.582c.116.153.156.35.11.536s-.173.341-.347.423c-.62.292-1.433.638-2.529 1.014-.446.153-.897-.287-.79-.762.051-.22.211-.398.426-.472 1.014-.351 1.766-.671 2.343-.943.272-.127.597-.048.777.192l.01.012zm-1.1-2.136c.098.313-.059.648-.361.775-.799.335-1.79.697-3.047 1.066-.295.087-.593-.056-.717-.285-.215-.365-.028-.835.382-.956 1.193-.352 2.131-.694 2.885-1.011.165-.069.352-.066.515.01.162.075.285.216.339.387l.004.014zm5.097 5.325c-.021.391-.378.603-.698.603-.089 0-.175-.016-.249-.049-1.918-.845-1.327-.797-3.027-.005-.08.036-.169.054-.26.054-.325 0-.677-.223-.693-.61-.012-.249.129-.48.357-.586 2.373-1.1 1.705-1.099 4.2-.003.236.103.384.34.37.596zm-11.414-12.115c-.005-.297.192-.561.48-.643 2.309-.655 4.007-1.883 4.654-3.411.309-.731.805-1.328 1.432-1.726.574-.363 1.246-.555 1.944-.555 1.236 0 2.405.599 3.051 1.563.422.63.578 1.353.49 2.102-.032.271-.233.491-.5.547l-.046.009c-.2.043-.409-.013-.562-.151-.151-.138-.228-.341-.203-.545.183-1.525-1.184-2.241-2.23-2.241-.86 0-1.738.444-2.182 1.494-.801 1.89-2.814 3.388-5.516 4.153-.402.115-.805-.181-.812-.596zm6.035 4.101c-.019.218-.148.411-.343.51-1.213.624-2.547 1.126-3.96 1.482-.32.081-.648-.095-.756-.405-.059-.173-.043-.363.045-.523s.238-.278.417-.323c1.292-.327 2.53-.794 3.673-1.39.206-.107.454-.094.647.035.192.129.3.354.279.585l-.002.029zm-5.045-6.269c-.445.145-.89-.221-.831-.681.037-.278.213-.466.435-.54 1.404-.459 1.82-1.165 2.312-2.005.314-.534.669-1.139 1.287-1.709 1.406-1.294 3.31-1.919 5.224-1.715 1.827.195 3.444 1.119 4.438 2.536.84 1.197 1.043 2.388 1.01 3.49-.006.183-.09.355-.231.471-.141.117-.326.167-.507.137l-.024-.004c-.315-.051-.543-.327-.533-.646.026-.896-.137-1.804-.776-2.715-.779-1.111-2.061-1.837-3.514-1.993-1.544-.164-3.075.339-4.205 1.38-.478.44-.756.913-1.05 1.414-.569.97-1.154 1.967-3.035 2.58zm-.011-4.959c.256-.586.518-.931.945-1.409 1.693-1.864 4.087-2.746 6.553-2.746 3.708 0 7.324 1.979 8.455 5.102.614 1.7.577 3.15.421 4.327-.027.208-.157.39-.346.484s-.411.089-.595-.014l-.021-.012c-.228-.127-.355-.379-.321-.638.138-1.049.162-2.277-.356-3.713-.781-2.159-3.151-3.796-6.037-4.173-3.038-.396-5.775.692-7.323 2.908l-.388.572c-.183.275-.534.347-.809.16-.28-.19-.345-.466-.178-.848z"/></svg>