<svg xmlns="http://www.w3.org/2000/svg" width="24" height="24" viewBox="0 0 24 24"><path d="M12 0c-6.627 0-12 5.373-12 12s5.373 12 12 12 12-5.373 12-12-5.373-12-12-12zm-6.802 15.779c-.043-.258.124-.504.385-.566 2.739-.648 4.818-2.12 5.641-4.027.108-.25.403-.367.659-.263.256.105.377.393.27.642-1.072 2.485-3.65 3.967-6.349 4.604-.282.067-.559-.114-.606-.39zm1.894 2.112c-.171-.095-.268-.279-.249-.47.02-.191.152-.353.337-.414 2.7-.893 5.006-2.564 6.059-5.007.562-1.306-.512-2.241-1.622-2.241-.67 0-1.352.34-1.697 1.141-.623 1.443-2.19 2.587-4.291 3.172-.312.087-.623-.138-.629-.456-.004-.227.147-.429.372-.491 1.796-.5 3.117-1.438 3.62-2.604.241-.559.626-1.015 1.114-1.317.446-.278.969-.425 1.512-.425.96 0 1.87.458 2.373 1.194.48.704.543 1.559.177 2.408-.364.844-.873 1.633-1.512 2.345-.599.667-1.316 1.27-2.131 1.792-.896.575-1.914 1.051-3.009 1.414-.141.046-.295.031-.424-.041zm6.296 1.076c-.13.022-.264-.007-.374-.08l-.272-.189c-.687-.494-.755-.487-1.481-.084-.183.101-.393.213-.639.335-.091.044-.193.061-.294.045-.217-.032-.388-.198-.423-.408-.035-.211.075-.42.271-.518.374-.184.659-.347.891-.479.95-.54 1.175-.524 1.849-.001.163.127.378.294.671.491.169.113.252.313.208.508-.044.196-.205.346-.407.38zm2.533-.803c-.151.073-.33.067-.476-.014-.98-.545-1.694-1.208-2.152-1.993-.137-.235-.053-.535.189-.668.241-.134.548-.051.686.184.369.632.959 1.174 1.779 1.63.161.09.258.258.253.438-.005.18-.113.343-.279.423zm1.989-1.282c-.157.131-.376.166-.567.089-.852-.339-1.427-.763-1.764-1.287-.559-.874-.379-1.871-.205-2.835.204-1.128.415-2.295-.425-3.47-.606-.848-1.603-1.403-2.733-1.521-1.199-.126-2.39.258-3.269 1.053-.372.335-.589.696-.818 1.079-.443.742-.898 1.503-2.36 1.97-.347.111-.693-.168-.646-.52.028-.212.165-.356.339-.412 1.091-.352 1.415-.89 1.798-1.532.243-.408.519-.87 1-1.305 1.093-.988 2.574-1.466 4.063-1.31 1.421.149 2.679.855 3.452 1.937 1.078 1.507.807 3 .59 4.2-.154.854-.288 1.592.067 2.146.297.463.869.738 1.337.917.159.061.273.197.302.361.029.165-.032.331-.161.44zm.429-1.428c-.354-.133-.613-.312-.794-.542-.446-.567-.318-1.275-.171-2.094.171-.948.385-2.129-.154-3.59-.607-1.648-2.451-2.899-4.695-3.187-2.362-.302-4.49.528-5.695 2.222l-.303.436c-.142.21-.416.265-.629.122-.217-.146-.268-.356-.138-.648.198-.448.403-.711.735-1.075 1.317-1.424 3.178-2.098 5.095-2.098.354 0 .71.023 1.065.068 2.615.335 4.778 1.837 5.512 3.828.628 1.706.38 3.084.198 4.091-.111.616-.199 1.102-.021 1.328.064.081.171.152.323.213.203.081.333.273.333.482 0 .343-.349.561-.661.444z"/></svg>