<svg xmlns="http://www.w3.org/2000/svg" width="24" height="24" viewBox="0 0 24 24"><path d="M19.5 14c-2.485 0-4.5 2.015-4.5 4.5s2.015 4.5 4.5 4.5 4.5-2.015 4.5-4.5-2.015-4.5-4.5-4.5zm-.469 6.484l-1.688-1.637.696-.697.991.94 2.116-2.169.696.696-2.811 2.867zm-15.031-3.484h6v3h-6v-3zm9.182 3h-2.182v-3h2.182c-.243 1.022-.243 1.978 0 3zm.32-4h-5.502v-3h8v.032c-1.106.71-1.985 1.742-2.498 2.968zm-9.149-5c-1.433-1.313-1.672-4.52.588-6.117-.447 1.539.352 2.965 1.335 3.157-1.786-2.86 2.906-4.856-.06-8.04 6.348.757 3.823 5.025 5.957 6.171 2.002-1.001 2.263-3.969 1.017-5.793 6.21 1.824 2.944 7.092 5.223 7.905.75-.387 1.39-1.376 1.359-2.725 1.227 1.592 1.388 3.999-.246 5.442h-4.621c.658-.888.414-3.108-1.948-3.634.675 1.113.216 2.243-.885 2.687-1.172-.508.215-2.402-3.274-2.738 1.614 1.398-.901 2.435.006 3.685h-4.451zm11.647 12.968v.012h-8v-2.98h5.502c.513 1.226 1.392 2.258 2.498 2.968zm-16-2.948h7v2.98h-7v-2.98zm3-1.02h-3v-3h3v3zm4-4h-7v-3h7v3z"/></svg>