<svg xmlns="http://www.w3.org/2000/svg" width="24" height="24" viewBox="0 0 24 24"><path d="M4 17h6v3h-6v-3zm9.182 3h-2.182v-3h2.182c-.243 1.022-.243 1.978 0 3zm.32-4h-5.502v-3h8v.032c-1.106.71-1.985 1.742-2.498 2.968zm-9.148-5c-1.434-1.313-1.672-4.52.587-6.117-.447 1.539.352 2.965 1.335 3.157-1.786-2.86 2.906-4.856-.06-8.04 6.349.757 3.823 5.025 5.956 6.171 2.003-1.001 2.264-3.969 1.018-5.793 6.21 1.824 2.944 7.092 5.223 7.905.75-.387 1.39-1.376 1.359-2.725 1.227 1.592 1.388 3.999-.246 5.442h-4.621c.658-.888.414-3.108-1.948-3.634.675 1.113.216 2.243-.886 2.687-1.172-.508.216-2.402-3.273-2.738 1.614 1.398-.901 2.435.007 3.685h-4.451zm11.646 12.968v.012h-8v-2.98h5.502c.513 1.226 1.392 2.258 2.498 2.968zm-16-2.948h7v2.98h-7v-2.98zm3-1.02h-3v-3h3v3zm4-4h-7v-3h7v3zm17 2.5c0 2.485-2.017 4.5-4.5 4.5s-4.5-2.015-4.5-4.5 2.017-4.5 4.5-4.5 4.5 2.015 4.5 4.5zm-3.086-2.122l-1.414 1.414-1.414-1.414-.707.708 1.414 1.414-1.414 1.414.707.708 1.414-1.414 1.414 1.414.708-.708-1.414-1.414 1.414-1.414-.708-.708z"/></svg>