<svg xmlns="http://www.w3.org/2000/svg" width="24" height="24" viewBox="0 0 24 24"><path d="M12 2c5.514 0 10 4.486 10 10s-4.486 10-10 10-10-4.486-10-10 4.486-10 10-10zm0-2c-6.627 0-12 5.373-12 12s5.373 12 12 12 12-5.373 12-12-5.373-12-12-12zm0 6c-3.313 0-6 2.687-6 6s2.687 6 6 6 6-2.687 6-6-2.687-6-6-6zm4.002 4.328c-.639-1.66-2.23-2.302-2.768-2.268 1.765.688 2.187 3.03 2.03 3.72-.153-.81-.644-1.508-.937-1.692 1.709 4.002-2.417 5.232-3.676 3.843.324.084.965.042 1.445-.279.449-.301.492-.318.78-.341.343-.027-.021-.703-.77-.589-.308.047-.815.409-1.44.171-.754-.288-.729-1.317.049-1.008.168-.218.044-.631.044-.631.226-.207.511-.353.685-.456.114-.067.415-.253.397-.615-.062-.048-.159-.109-.383-.096-.868.055-.926-.259-.983-.404.039-.334.262-.767.681-.966-.63-.097-1.141.199-1.396.577-.403-.086-.651-.091-1.057-.015-.158-.12-.333-.335-.439-.59.916-1.033 2.25-1.689 3.736-1.689 2.956 0 4.132 2.142 4.002 3.328z"/></svg>