<svg xmlns="http://www.w3.org/2000/svg" width="24" height="24" viewBox="0 0 24 24"><path d="M17.675 12.821c.604-.311 1.116-1.104 1.09-2.185.984 1.276 1.114 3.206-.196 4.363h-3.704c.528-.712.33-2.493-1.562-2.914.541.892.173 1.798-.71 2.154-.94-.408.173-1.926-2.624-2.195 1.294 1.122-.722 1.953.005 2.955h-3.569c-1.149-1.053-1.342-3.624.471-4.903-.358 1.233.282 2.376 1.071 2.53-1.434-2.293 2.328-3.894-.05-6.446 5.091.607 3.065 4.029 4.775 4.948 1.605-.803 1.815-3.183.816-4.646 4.979 1.464 2.362 5.687 4.187 6.339zm-9.675 5.179h8v-2h-8v2zm16-10.971v9.941l-7.029 7.03h-9.942l-7.029-7.029v-9.942l7.029-7.029h9.941l7.03 7.029zm-2 .829l-5.857-5.858h-8.286l-5.857 5.858v8.283999999999999l.143.142-.143-.284h5v2h-3.143l1 1h7.143v2h-5.143l1 1h8.285l1-1h-4.142v-2h6.143l1-1h-3.143v-2h5l-.143.284.143-.142v-8.283999999999999z"/></svg>