<svg xmlns="http://www.w3.org/2000/svg" width="24" height="24" viewBox="0 0 24 24"><path d="M12 0c-6.627 0-12 5.373-12 12s5.373 12 12 12 12-5.373 12-12-5.373-12-12-12zm-4.33 21h4.33v-2h-7.129c-.308-.312-.588-.649-.852-1h2.981v-2h-4.159c-.538-1.226-.841-2.578-.841-4 0-5.514 4.486-10 10-10s10 4.486 10 10c0 1.422-.303 2.774-.841 4h-4.159v2h2.98c-.264.351-.544.688-.852 1h-6.128v2h3.33c-1.312.634-2.777 1-4.33 1s-3.018-.366-4.33-1zm8.33-3h-8v-2h8v2zm-6.027-3h-3.568c-1.149-1.053-1.342-3.624.471-4.903-.358 1.233.282 2.376 1.071 2.53-1.434-2.293 2.328-3.894-.05-6.446 5.091.607 3.065 4.029 4.775 4.948 1.605-.803 1.815-3.183.816-4.646 4.978 1.463 2.36 5.686 4.186 6.338.604-.311 1.116-1.104 1.09-2.185.984 1.276 1.114 3.206-.196 4.363h-3.704c.528-.712.33-2.493-1.562-2.914.541.892.173 1.798-.71 2.154-.94-.408.173-1.926-2.624-2.195 1.294 1.123-.722 1.954.005 2.956z"/></svg>