<svg xmlns="http://www.w3.org/2000/svg" width="24" height="24" viewBox="0 0 24 24"><path d="M18.827 7.806c-4.225 0-4.491-6.806-9.666-6.806-1.535 0-2.951.628-4.161 1.482v-2.482h-2v24h2v-10.427c1.064-1.302 2.316-2.021 4.205-2.021 2.219 0 3.592.841 5.368.841 3.127 0 4.938-2.379 6.428-5.083-.832.345-1.547.496-2.174.496zm-4.255 2.588c-1.399 0-2.882-.841-5.368-.841-1.761 0-3.108.508-4.205 1.292v-5.784c.999-.951 2.517-2.061 4.162-2.061 1.621 0 2.444 1.025 3.759 2.836.987 1.359 2.159 2.974 4.022 3.648-.74.633-1.5.91-2.37.91z"/></svg>