<svg xmlns="http://www.w3.org/2000/svg" width="24" height="24" viewBox="0 0 24 24"><path d="M24 2.19v9.773s-1.195 1.104-2.919 1.104c-2.668 0-3.089-2.237-6.081-2.237-1.579 0-3.038.7-4 1.365v7.805h-2v-20h2v2.376c.678-.58 2.275-1.376 3.988-1.376 3.17 0 3.231 2.352 5.962 2.352 1.733 0 3.05-1.162 3.05-1.162zm-2 2.96c-.334.063-.68.109-1.05.109-1.875 0-3.152-.889-3.937-1.504v2.808c-1.71-1.211-4.177-.952-6.013.651v2.769c.985-.536 2.392-1.088 4-1.088.883 0 1.4.113 2.016.34l-.002-.001v-2.67c1.004.663 3.133 2.262 4.986 1.27v-2.684zm-2 11.85h-7v2h5.84l1.714 3h-17.108l1.714-3h1.84v-2h-3l-4 7h24l-4-7z"/></svg>