<svg xmlns="http://www.w3.org/2000/svg" width="24" height="24" viewBox="0 0 24 24"><path d="M12 18.292v1.834c.644.129 1.177.303 1.496.528.273.192.274.498 0 .69-1.494 1.053-7.498 1.054-8.993 0-.272-.191-.271-.499 0-.69.319-.225.852-.399 1.497-.528v-1.833c-2.363.481-4 1.511-4 2.707 0 1.657 3.134 3 7 3s7-1.343 7-3c0-1.196-1.637-2.226-4-2.708zm6.715-14.759c-2.94 0-3.006-2.533-6.419-2.533-.82 0-1.603.178-2.296.421v-1.421h-2v21h2v-9.625c.742-.383 1.586-.664 2.308-.664 3.223 0 3.676 2.41 6.549 2.41 1.856 0 3.144-1.189 3.144-1.189v-9.65c-.001 0-1.419 1.251-3.286 1.251zm1.285 7.32c-1.279.589-2.076.159-3.076-.531-.986-.679-2.336-1.61-4.616-1.61-.766 0-1.558.193-2.308.477v-5.624c1.307-.692 2.984-.872 4.54.347 1.525 1.194 3.119 1.968 5.46 1.489v5.452z"/></svg>