<svg xmlns="http://www.w3.org/2000/svg" width="24" height="24" viewBox="0 0 24 24"><path d="M17.715 3.533c-2.94 0-3.006-2.533-6.419-2.533-1.247 0-2.43.393-3.296.84v-1.84h-2v14.75c0 1.479.354 2.936 1.031 4.25.638-1.316.969-2.76.969-4.222v-2.778c.854-.688 2.229-1.289 3.308-1.289 3.223 0 3.676 2.41 6.549 2.41 1.856 0 3.144-1.189 3.144-1.189v-9.65c-.001 0-1.419 1.251-3.286 1.251zm1.285 7.32c-1.279.589-2.076.159-3.076-.531-.986-.679-2.336-1.61-4.616-1.61-1.118-.001-2.298.394-3.308.912v-5.386c1.354-1.167 3.551-1.885 5.54-.326 1.525 1.194 3.119 1.968 5.46 1.489v5.452zm-8 11.647c0 .829-1.79 1.5-4 1.5s-4-.671-4-1.5 1.79-1.5 4-1.5 4 .671 4 1.5z"/></svg>