<svg xmlns="http://www.w3.org/2000/svg" width="24" height="24" viewBox="0 0 24 24"><path d="M24 2.282v9.65s-1.287 1.189-3.144 1.189c-2.873 0-3.326-2.41-6.549-2.41-1.078 0-2.453.601-3.308 1.289v8h-1.999v-20h2v1.84c.866-.447 2.049-.84 3.296-.84 3.413 0 3.479 2.533 6.419 2.533 1.867 0 3.285-1.251 3.285-1.251zm-2 3.119c-2.341.479-3.935-.295-5.46-1.489-1.989-1.558-4.186-.841-5.54.326v5.386c1.01-.518 2.19-.913 3.308-.913 2.28 0 3.63.931 4.616 1.61 1 .69 1.797 1.12 3.076.531v-5.451zm-2 11.599h-7v2h5.84l1.714 3h-17.108l1.714-3h1.84v-2h-3l-4 7h24l-4-7z"/></svg>