<svg xmlns="http://www.w3.org/2000/svg" width="24" height="24" viewBox="0 0 24 24"><path d="M17.222 9.709c1.464-1.278 3.508-4.962 3.778-7.096 0 0-1.621 1.43-3.754 1.43-3.361 0-3.436-2.895-7.337-2.895-2.116 0-3.701.8-4.909 1.625v-2.773h-2v24h2v-9.084c1.415-.86 2.891-1.669 4.922-1.669 3.685 0 4.201 2.754 7.485 2.754 2.121-.001 3.593-1.36 3.593-1.36-1.742-1.253-3.071-2.953-3.778-4.932zm-2.186 3.327c-1.096-.755-2.597-1.79-5.114-1.79-1.978 0-3.704.676-4.922 1.338v-7.465c3.687-2.73 5.9-2.24 7.65-.869 1 .784 2.409 1.881 4.863 1.787-.637 1.442-1.512 2.338-2.633 3.063.309 1.338.98 3.035 2.522 4.9-.969-.001-1.496-.364-2.366-.964z"/></svg>