<svg xmlns="http://www.w3.org/2000/svg" width="24" height="24" viewBox="0 0 24 24"><path d="M9 21h-2v-21h2v21zm10.968-17.467c-2.714 0-2.775-2.533-5.926-2.533-1.15 0-2.242.393-3.042.84v10.16c.789-.688 2.058-1.289 3.053-1.289 2.976 0 3.394 2.41 6.046 2.41 1.713 0 2.901-1.189 2.901-1.189v-9.65s-1.309 1.251-3.032 1.251zm-8.968 14.759v1.834c.644.129 1.177.303 1.496.528.273.192.274.498 0 .69-1.494 1.053-7.498 1.054-8.993 0-.272-.191-.271-.499 0-.69.319-.225.852-.399 1.497-.528v-1.833c-2.363.481-4 1.511-4 2.707 0 1.657 3.134 3 7 3s7-1.343 7-3c0-1.196-1.637-2.226-4-2.708z"/></svg>