<svg xmlns="http://www.w3.org/2000/svg" width="24" height="24" viewBox="0 0 24 24"><path d="M11.861 2.716s.04 1.615.14 5.527c.02.775-.142 1.545-.471 2.247l-3.349 6.96c-.206.961.645 2.297 2.027 2.945 1.332.625 2.777.404 3.405-.398l3.35-6.96c.329-.702.79-1.332 1.397-1.812 3.051-2.38 4.366-3.416 4.366-3.416l-10.865-5.093zm2.657 10.896c-.234.5-.83.716-1.33.481s-.715-.83-.48-1.331c.234-.499.83-.715 1.33-.48s.714.831.48 1.33zm-1.384-13.612l10.866 5.093-.849 1.811-10.866-5.093.849-1.811zm-13.134 16.271c0 1.823.688 3.71 1.951 5.249 1.234 1.503 2.9 2.48 4.539 2.48 1.354 0 2.791-.87 3.447-2.177l-1.121-.649c-1.051 1.894-3.215 1.881-4.072.576-.777-1.186-.619-3.261.436-5.692 1.006-2.321-.332-4.08-2.084-4.08-1.554-.001-3.096 1.407-3.096 4.293zm1.392-1.104c.184-.921.728-1.906 1.704-1.906.838 0 1.537.83.906 2.284-.879 2.027-1.197 3.845-.947 5.292-1.342-1.559-2.059-3.69-1.663-5.67z"/></svg>