<svg xmlns="http://www.w3.org/2000/svg" width="24" height="24" viewBox="0 0 24 24"><path d="M12 2c5.514 0 10 4.486 10 10s-4.486 10-10 10-10-4.486-10-10 4.486-10 10-10zm0-2c-6.627 0-12 5.373-12 12s5.373 12 12 12 12-5.373 12-12-5.373-12-12-12zm3 12c0 1.657-1.343 3-3 3s-3-1.343-3-3 1.343-3 3-3 3 1.343 3 3zm-3-5c.343 0 .677.035 1 .101v-3.101h-2v3.101c.323-.066.657-.101 1-.101zm-2.755.832l-2.195-2.196-1.414 1.414 2.195 2.195c.372-.561.853-1.042 1.414-1.413zm-2.245 4.168c0-.343.035-.677.101-1h-3.101v2h3.101c-.066-.323-.101-.657-.101-1zm9.169-2.754l2.195-2.195-1.414-1.415-2.195 2.195c.561.372 1.042.853 1.414 1.415zm.73 1.754c.066.323.101.657.101 1s-.035.677-.101 1h3.101v-2h-3.101zm-2.144 5.168l2.195 2.195 1.414-1.414-2.195-2.195c-.372.562-.853 1.043-1.414 1.414zm-6.924-1.414l-2.195 2.196 1.414 1.414 2.195-2.195c-.561-.372-1.042-.853-1.414-1.415zm4.169 2.246c-.343 0-.677-.035-1-.101v3.101h2v-3.101c-.323.066-.657.101-1 .101z"/></svg>