<svg xmlns="http://www.w3.org/2000/svg" width="24" height="24" viewBox="0 0 24 24"><path d="M12 0c-6.627 0-12 5.373-12 12s5.373 12 12 12 12-5.373 12-12-5.373-12-12-12zm4.95 5.636l1.414 1.414-2.195 2.195c-.372-.562-.853-1.042-1.414-1.414l2.195-2.195zm-5.95-1.636h2v3.101c-.323-.066-.657-.101-1-.101s-.677.035-1 .101v-3.101zm-3.95 1.636l2.195 2.195c-.561.372-1.042.853-1.414 1.415l-2.195-2.196 1.414-1.414zm-3.05 5.364h3.101c-.066.323-.101.657-.101 1s.035.677.101 1h-3.101v-2zm3.05 7.364l-1.414-1.414 2.195-2.195c.372.562.853 1.042 1.414 1.414l-2.195 2.195zm5.95 1.636h-2v-3.101c.323.066.657.101 1 .101s.677-.035 1-.101v3.101zm-1-5c-1.657 0-3-1.343-3-3s1.343-3 3-3 3 1.343 3 3-1.343 3-3 3zm4.95 3.364l-2.195-2.195c.562-.372 1.042-.853 1.414-1.414l2.195 2.195-1.414 1.414zm3.05-5.364h-3.101c.066-.323.101-.657.101-1s-.035-.677-.101-1h3.101v2z"/></svg>