<svg xmlns="http://www.w3.org/2000/svg" width="24" height="24" viewBox="0 0 24 24"><path d="M24 14.517c0 1.364-1.106 2.483-2.469 2.483-2.991 0-4.06-4.22.912-8-.059 2.365 1.557 3.303 1.557 5.517zm-2.371-3.466c-.346.189-.856.698-.934 1.334-.115.95.867 1.23.953-.044.04-.538.001-.795-.019-1.29zm-5.342-2.924c-1.237 1.238-1.729 2.591-1.944 3.873h-11.512c1.797-3.106 4.593-3.085 6.069-3.152 1.792-.082 4.022-.184 5.972-2.135l1.179-1.178-1.415-1.414-1.179 1.178c-3.056 3.056-6.858-.211-11.113 4.044-1.563 1.562-2.344 3.61-2.344 5.657 0 4.423 3.586 8 8 8 2.047 0 4.095-.781 5.657-2.344 4.246-4.245.994-8.065 4.044-11.115l1.179-1.178-1.414-1.414-1.179 1.178zm5.421-2.592l-4.243-4.242c-.196-.195-.452-.293-.708-.293-.886 0-1.335 1.077-.707 1.707l4.243 4.242c.635.635 1.707.172 1.707-.707 0-.256-.097-.512-.292-.707z"/></svg>