<svg xmlns="http://www.w3.org/2000/svg" width="24" height="24" viewBox="0 0 24 24"><path d="M20 16c0 4.418-3.582 8-8 8s-8-3.582-8-8c0-6.018 5-6.396 5-10.719v-1.281h2v1.281c0 2.758-1.505 4.407-2.714 5.732-1.277 1.4-2.286 2.505-2.286 4.987 0 3.309 2.691 6 6 6s6-2.691 6-6c0-2.475-1.01-3.584-2.287-4.987-1.209-1.327-2.713-2.979-2.713-5.732v-1.281h2v1.281c0 4.313 5 4.716 5 10.719zm-4-15c0 .552-.447 1-1 1h-6c-.553 0-1-.448-1-1s.447-1 1-1h6c.553 0 1 .448 1 1zm-6 18c-1.104 0-2-.896-2-2s.896-2 2-2 2 .896 2 2-.896 2-2 2zm1-6c-.552 0-1-.448-1-1s.448-1 1-1 1 .448 1 1-.448 1-1 1zm3.5 7c-.828 0-1.5-.672-1.5-1.5s.672-1.5 1.5-1.5 1.5.672 1.5 1.5-.672 1.5-1.5 1.5zm-.5-5c-.552 0-1-.448-1-1s.448-1 1-1 1 .448 1 1-.448 1-1 1z"/></svg>