<svg xmlns="http://www.w3.org/2000/svg" width="24" height="24" viewBox="0 0 24 24"><path d="M21.625 6c-1.013 0-2.07.723-5.569 2.472-.695.347-1.46.528-2.236.528h-12.013c-.958.221-1.807 1.558-1.807 3.085 0 1.472.812 2.686 1.807 2.915h12.013c.775 0 1.541.149 2.235.497 3.449 1.752 4.529 2.503 5.57 2.503h2.375v-12h-2.375zm-1.625 9.274c-.678-.346-1.601-.831-3.05-1.567-.939-.469-1.992-.707-3.13-.707h-11.558c-.111-.145-.262-.458-.262-.915 0-.517.181-.9.312-1.085h11.508c1.081 0 2.163-.255 3.13-.739 1.44-.721 2.379-1.205 3.05-1.543v6.556zm2 .726h-1v-8h1v8zm-12-3.25c-.414 0-.75-.336-.75-.75s.336-.75.75-.75.75.336.75.75-.336.75-.75.75z"/></svg>