<svg xmlns="http://www.w3.org/2000/svg" width="24" height="24" viewBox="0 0 24 24"><path d="M22.055 5.462l-16.593 16.593c1.882 1.226 4.124 1.945 6.538 1.945 6.627 0 12-5.373 12-12 0-2.414-.72-4.656-1.945-6.538zm-9.055 14.538h-2v-3.101c.323.066.657.101 1 .101s.677-.035 1-.101v3.101zm3.95-1.636l-2.195-2.195c.562-.372 1.042-.853 1.414-1.414l2.195 2.195-1.414 1.414zm3.05-5.364h-3.101c.066-.323.101-.657.101-1s-.035-.677-.101-1h3.101v2zm2.586-13l-2.854 2.853c-2.088-1.771-4.779-2.853-7.732-2.853-6.627 0-12 5.373-12 12 0 2.953 1.083 5.644 2.854 7.732l-2.854 2.854 1.414 1.414 22.586-22.586-1.414-1.414zm-11.586 4h2v3.101c-.323-.066-.657-.101-1-.101s-.677.035-1 .101v-3.101zm-3.95 1.636l2.195 2.195c-.561.372-1.042.853-1.414 1.415l-2.195-2.196 1.414-1.414zm-3.05 5.364h3.101c-.066.323-.101.657-.101 1s.035.677.101 1h-3.101v-2zm5 1c0-1.657 1.343-3 3-3 .463 0 .899.108 1.289.297l-3.992 3.992c-.189-.39-.297-.826-.297-1.289z"/></svg>