<svg xmlns="http://www.w3.org/2000/svg" width="24" height="24" viewBox="0 0 24 24"><path d="M20.759 20.498c-2.342-3.663-5.575-6.958-5.743-11.498h-2.016c.173 5.212 3.512 8.539 5.953 12.356.143.302-.068.644-.377.644h-1.264l-4.734-7h-3.52c.873-1.665 1.85-3.414 1.936-6h-2.01c-.169 4.543-3.421 7.864-5.743 11.498-.165.347-.241.707-.241 1.057 0 1.283 1.023 2.445 2.423 2.445h13.153c1.4 0 2.424-1.162 2.424-2.446 0-.35-.076-.709-.241-1.056zm-13.259 1.502c-.828 0-1.5-.671-1.5-1.5s.672-1.5 1.5-1.5 1.5.671 1.5 1.5-.672 1.5-1.5 1.5zm3.5-3c-.552 0-1-.448-1-1s.448-1 1-1 1 .448 1 1-.448 1-1 1zm2 3c-.552 0-1-.448-1-1s.448-1 1-1 1 .448 1 1-.448 1-1 1zm2.211-16.67l1.413 2.67h-3.831l.597-1.19h1.191l-.784-1.48.784-1.481h-1.685l-.896-1.485-.892 1.495h-1.684l.786 1.471-.786 1.471h1.172l.597 1.182h-3.817l1.417-2.653-1.417-2.653h3.022l1.597-2.677 1.606 2.66h3.022l-1.412 2.67z"/></svg>