<svg xmlns="http://www.w3.org/2000/svg" width="24" height="24" viewBox="0 0 24 24"><path d="M16 1c0 .552-.447 1-1 1h-6c-.553 0-1-.448-1-1s.447-1 1-1h6c.553 0 1 .448 1 1zm-1 4.281v-1.281h-2v1.281c0 2.099.875 3.556 1.826 4.719h-5.651c.951-1.161 1.825-2.617 1.825-4.719v-1.281h-2v1.281c0 4.323-5 4.701-5 10.719 0 4.418 3.582 8 8 8s8-3.582 8-8c0-6.003-5-6.406-5-10.719zm-6 14.719c-1.104 0-2-.896-2-2s.896-2 2-2 2 .896 2 2-.896 2-2 2zm2-6c-.552 0-1-.448-1-1s.448-1 1-1 1 .448 1 1-.448 1-1 1zm3.5 7c-.828 0-1.5-.672-1.5-1.5s.672-1.5 1.5-1.5 1.5.672 1.5 1.5-.672 1.5-1.5 1.5zm.5-5c-.552 0-1-.448-1-1s.448-1 1-1 1 .448 1 1-.448 1-1 1z"/></svg>