<svg xmlns="http://www.w3.org/2000/svg" width="24" height="24" viewBox="0 0 24 24"><path d="M15 6s-2.344 1.594-3.765 2.472c-.694.347-1.46.528-2.235.528h-7.193c-.958.221-1.807 1.558-1.807 3.085 0 1.472.812 2.686 1.807 2.915h7.193c.775 0 1.541.149 2.235.497 1.577.972 3.765 2.503 3.765 2.503v-12zm-8 7c-.552 0-1-.448-1-1s.448-1 1-1 1 .448 1 1-.448 1-1 1zm11-7v12h-2v-12h2zm6 7h-4v-2h4v2zm0-6.5l-3.094 2.188-1.084-1.5 3.094-2.188 1.084 1.5zm-1.084 12.5l-3.094-2.188 1.084-1.5 3.094 2.188-1.084 1.5z"/></svg>