<svg xmlns="http://www.w3.org/2000/svg" width="24" height="24" viewBox="0 0 24 24"><path d="M16.169 14.754l2.195 2.195-1.414 1.414-2.195-2.195c.561-.371 1.042-.852 1.414-1.414zm3.831-3.754h-3.101c.066.323.101.657.101 1s-.035.677-.101 1h3.101v-2zm-7 5.899c-.323.066-.657.101-1 .101s-.677-.035-1-.101v3.101h2v-3.101zm9.055-11.437l-1.457 1.457c.884 1.491 1.402 3.225 1.402 5.081 0 5.514-4.486 10-10 10-1.856 0-3.59-.518-5.081-1.402l-1.457 1.457c1.882 1.226 4.125 1.945 6.538 1.945 6.627 0 12-5.373 12-12 0-2.414-.72-4.656-1.945-6.538zm1.945-4.048l-22.586 22.586-1.414-1.414 2.854-2.854c-1.772-2.088-2.854-4.779-2.854-7.732 0-6.627 5.373-12 12-12 2.953 0 5.644 1.082 7.732 2.853l2.854-2.853 1.414 1.414zm-19.733 16.905l5.03-5.03c-.189-.39-.297-.826-.297-1.289 0-1.657 1.343-3 3-3 .463 0 .899.108 1.289.297l5.03-5.03c-1.724-1.413-3.922-2.267-6.319-2.267-5.514 0-10 4.486-10 10 0 2.397.854 4.595 2.267 6.319zm8.733-11.218v-3.101h-2v3.101c.323-.066.657-.101 1-.101s.677.035 1 .101zm-9 3.899v2h3.101c-.066-.323-.101-.657-.101-1s.035-.677.101-1h-3.101zm3.05-5.364l-1.414 1.414 2.195 2.195c.372-.562.853-1.042 1.414-1.414l-2.195-2.195z"/></svg>