<svg xmlns="http://www.w3.org/2000/svg" width="24" height="24" viewBox="0 0 24 24"><path d="M12 2c5.514 0 10 4.486 10 10s-4.486 10-10 10-10-4.486-10-10 4.486-10 10-10zm0-2c-6.627 0-12 5.373-12 12s5.373 12 12 12 12-5.373 12-12-5.373-12-12-12zm3 12c0 1.657-1.344 3-3 3s-3-1.343-3-3 1.344-3 3-3 3 1.343 3 3zm-3 5c-.553 0-1 .448-1 1s.447 1 1 1 1-.448 1-1-.447-1-1-1zm-5-5c0 .552-.447 1-1 1s-1-.448-1-1 .447-1 1-1 1 .448 1 1zm6-6c0 .552-.447 1-1 1s-1-.448-1-1 .447-1 1-1 1 .448 1 1zm6 6c0 .552-.447 1-1 1s-1-.448-1-1 .447-1 1-1 1 .448 1 1zm-3 3c-.553 0-1 .448-1 1s.447 1 1 1 1-.448 1-1-.447-1-1-1zm-8 0c-.553 0-1 .448-1 1s.447 1 1 1 1-.448 1-1-.447-1-1-1zm0-8c-.553 0-1 .448-1 1s.447 1 1 1 1-.448 1-1-.447-1-1-1zm8 0c-.553 0-1 .448-1 1s.447 1 1 1 1-.448 1-1-.447-1-1-1z"/></svg>