<svg xmlns="http://www.w3.org/2000/svg" width="24" height="24" viewBox="0 0 24 24"><path d="M4.045 22h-1.622c-1.4 0-2.423-1.162-2.423-2.445 0-.35.076-.709.241-1.057l3.743-6.856c1.041-2.186 2.016-4.581 2.016-7.007v-.635h2l-.006 1c-.09 2.71-1.158 5.305-2.205 7.501l-3.742 6.857c-.147.303.076.642.376.642h1.887c-.352.934-.33 1.39-.265 2zm1.955-20h6c.553 0 1-.448 1-1s-.447-1-1-1h-6c-.553 0-1 .448-1 1s.447 1 1 1zm12 1h-6c-.553 0-1 .448-1 1s.447 1 1 1h6c.553 0 1-.448 1-1s-.447-1-1-1zm6 18.554c0 1.284-1.023 2.446-2.424 2.446h-13.153c-1.4 0-2.423-1.162-2.423-2.445 0-.35.076-.709.241-1.057 2.385-3.732 5.759-8.129 5.759-12.863v-.635h2l-.006 1c-.104 3.105-1.492 6.005-2.441 8h4.666l3.861 6h1.496c.309 0 .52-.342.377-.644-2.441-3.817-5.78-8.144-5.953-13.356v-1h2v.635c0 4.732 3.354 9.101 5.759 12.862.165.348.241.707.241 1.057z"/></svg>