<svg xmlns="http://www.w3.org/2000/svg" width="24" height="24" viewBox="0 0 24 24"><path d="M20.759 20.498l-3.743-7.856c-1.041-2.186-2.016-4.581-2.016-7.007v-2.635h-2c0 3.391-.083 5.188 2.21 10.502l3.743 7.854c.143.302-.068.644-.377.644h-1.246l-4.88-10h-2.984c1.795-4.183 1.528-5.963 1.534-9h-2v2.635c0 2.426-.975 4.82-2.016 7.006l-3.743 7.856c-.165.348-.241.708-.241 1.058 0 1.283 1.023 2.445 2.423 2.445h13.153c1.4 0 2.424-1.162 2.424-2.446 0-.35-.076-.709-.241-1.056zm-13.259 1.502c-.829 0-1.5-.671-1.5-1.5s.671-1.5 1.5-1.5 1.5.671 1.5 1.5-.671 1.5-1.5 1.5zm2.5-4c-.553 0-1-.447-1-1 0-.553.447-1 1-1 .552 0 1 .447 1 1 0 .553-.448 1-1 1zm3 3c-.552 0-1-.448-1-1s.448-1 1-1 1 .448 1 1-.448 1-1 1zm-5-20c0-.552.448-1 1-1h6c.553 0 1 .448 1 1s-.447 1-1 1h-6c-.552 0-1-.448-1-1z"/></svg>