<svg xmlns="http://www.w3.org/2000/svg" width="24" height="24" viewBox="0 0 24 24"><path d="M21.625 7c-.797 0-1.627.45-3.649 1.494l-3.465 3.465c1.674-.167 2.335-.649 5.489-2.242v6.557c-.678-.346-1.601-.831-3.05-1.567-.939-.469-1.992-.707-3.13-.707h-1.35l-2 2h3.35c.775 0 1.541.149 2.235.497 3.449 1.752 4.529 2.503 5.57 2.503h2.375v-12h-2.375zm.375 10h-1v-8h1v8zm-3.414-14l-7.001 7h-9.778c-.958.221-1.807 1.558-1.807 3.085 0 1.472.812 2.686 1.807 2.915h3.776l-3.583 3.583 1.414 1.417 16.586-16.59-1.414-1.41zm-16.324 11c-.111-.145-.262-.458-.262-.915 0-.517.181-.9.312-1.085h7.271l-2 2h-5.321z"/></svg>