<svg xmlns="http://www.w3.org/2000/svg" width="24" height="24" viewBox="0 0 24 24"><path d="M13 1c0 .552-.447 1-1 1h-6c-.553 0-1-.448-1-1s.447-1 1-1h6c.553 0 1 .448 1 1zm6 3c0 .552-.447 1-1 1h-6c-.553 0-1-.448-1-1s.447-1 1-1h6c.553 0 1 .448 1 1zm-1 3.621v-.621h-2v1h.01c.095 1.77.84 3.003 1.611 4h-5.241c.771-.995 1.517-2.227 1.61-4h.01v-1h-2v.621c0 3.783-4 4.113-4 9.379 0 3.866 3.135 7 7 7s7-3.134 7-7c0-5.253-4-5.605-4-9.379zm-4.45 5.879c-1.928 2.34-1.728 5.016.453 7-3.856-.795-3.995-5.685-.453-7zm-7.487 4.526c-1.245-.91-2.063-2.37-2.063-4.026 0-2.125.787-3.068 1.782-4.262.937-1.121 2.09-2.503 2.208-4.738h.01v-1h-2v.621c0 3.783-4 4.113-4 9.379 0 3.086 2 5.7 4.771 6.631-.359-.813-.603-1.687-.708-2.605z"/></svg>