<svg xmlns="http://www.w3.org/2000/svg" width="24" height="24" viewBox="0 0 24 24"><path d="M14.625 6c-1.886 0-4.062 3-6.751 3h-6.067c-.957.221-1.807 1.558-1.807 3.085 0 1.472.812 2.686 1.807 2.915h6.067c2.903 0 4.757 3 6.751 3h2.375v-12h-2.375zm-1.625 9.146c-2.459-1.649-2.878-2.146-5.126-2.146h-5.612c-.111-.145-.262-.458-.262-.915 0-.517.181-.9.312-1.085h5.562c2.107 0 2.648-.477 5.126-2.125v6.271zm2 .854h-1v-8h1v8zm-8-3.25c-.414 0-.75-.336-.75-.75s.336-.75.75-.75.75.336.75.75-.336.75-.75.75zm17-8.75v16l-5-4.449v-2.551l3 2.5v-7.031l-3 2.531v-2.564l5-4.436z"/></svg>