<svg xmlns="http://www.w3.org/2000/svg" width="24" height="24" viewBox="0 0 24 24"><path d="M12 2c5.514 0 10 4.486 10 10s-4.486 10-10 10-10-4.486-10-10 4.486-10 10-10zm0-2c-6.627 0-12 5.373-12 12s5.373 12 12 12 12-5.373 12-12-5.373-12-12-12zm2.5 8.5c-.98 0-1.865.404-2.502 1.054-.634-.649-1.519-1.054-2.498-1.054-1.933 0-3.5 1.567-3.5 3.5s1.567 3.5 3.5 3.5c.979 0 1.864-.404 2.498-1.054.637.649 1.522 1.054 2.502 1.054 1.933 0 3.5-1.566 3.5-3.5s-1.567-3.5-3.5-3.5zm0 6c-1.378 0-2.5-1.122-2.5-2.5s1.122-2.5 2.5-2.5c1.379 0 2.5 1.122 2.5 2.5s-1.121 2.5-2.5 2.5z"/></svg>