<svg xmlns="http://www.w3.org/2000/svg" width="24" height="24" viewBox="0 0 24 24"><path d="M12 0c-6.627 0-12 5.373-12 12s5.373 12 12 12 12-5.373 12-12-5.373-12-12-12zm2.917 16.083c-1.145 0-2.177-.472-2.919-1.229-.74.758-1.771 1.229-2.915 1.229-2.255 0-4.083-1.828-4.083-4.083s1.828-4.083 4.083-4.083c1.144 0 2.175.472 2.915 1.229.742-.758 1.774-1.229 2.919-1.229 2.255 0 4.083 1.828 4.083 4.083s-1.828 4.083-4.083 4.083zm2.916-4.083c0 1.608-1.308 2.917-2.916 2.917s-2.917-1.309-2.917-2.917 1.309-2.917 2.917-2.917 2.916 1.309 2.916 2.917z"/></svg>