<svg xmlns="http://www.w3.org/2000/svg" width="24" height="24" viewBox="0 0 24 24"><path d="M13 20.002h2v3.998h-2v-3.998zm-6.902 3.998h2.627l3.42-3.998h-2.633l-3.414 3.998zm9.773-3.998l3.42 3.998h2.627l-3.414-3.998h-2.633zm8.129-17.01c0 .876-.399 1.654-1 2.2v12.808h-18.984v-4h-4.016c.854-1.333 1.016-2.932 1.016-5.456v-5.183c0-2.062 1.322-3.292 2.953-3.339-.017-.031 16.996-.02 17.031-.02 1.657 0 3 1.333 3 2.99zm-18.939.021c0-.551-.448-1-1-1-.747 0-1.061.599-1.061 1.348v5.183c0 1.583 0 2.442-.229 3.458h1.244v-7.989c.552 0 1.046-.449 1.046-1zm15.955 2.987h-15.016v10.002h15.016v-10.002zm-.016-4h-14.124c.255.699.238 1.339-.001 2.002h14.125c1.303 0 1.345-2.002 0-2.002zm-10.666 12c1.307-2.344 2.214-3.548 3.454-4.63l-.161-.37c-1.503.935-2.312 1.64-3.535 3.028-.651-.464-1.018-.678-1.597-.958l-.495.458c.991.918 1.528 1.523 2.334 2.472zm8.666-5h-4v1h4v-1zm0 2h-4v1h4v-1zm0 2h-4v1h4v-1z"/></svg>