<svg width="24" height="24" xmlns="http://www.w3.org/2000/svg" fill-rule="evenodd" clip-rule="evenodd"><path d="M8.5 3.551c-.053-1.867 1.491-3.551 3.5-3.551 1.867 0 3.5 1.484 3.5 3.551 1.324-1.379 3.585-1.436 4.985-.037 1.268 1.268 1.474 3.412-.036 4.986 1.857-.054 3.551 1.484 3.551 3.5 0 1.862-1.479 3.5-3.551 3.5 1.461 1.461 1.357 3.664.036 4.985-1.318 1.317-3.52 1.43-4.985-.036 0 2.07-1.638 3.551-3.5 3.551-2.004 0-3.555-1.681-3.5-3.551-1.56 1.497-3.706 1.316-4.986.036-1.398-1.399-1.344-3.66.037-4.985-2.064 0-3.551-1.63-3.551-3.5 0-2.007 1.682-3.553 3.551-3.5-1.461-1.461-1.358-3.665-.037-4.986 1.317-1.317 3.521-1.428 4.986.037zm3.5 4.949c1.932 0 3.5 1.568 3.5 3.5s-1.568 3.5-3.5 3.5-3.5-1.568-3.5-3.5 1.568-3.5 3.5-3.5z"/></svg>