<svg xmlns="http://www.w3.org/2000/svg" width="24" height="24" viewBox="0 0 24 24"><path d="M6 1l1.172.203c-.356 2.245.791 2.519 2.697 2.874 1.469.273 3.131.622 3.131 3.284v.639h-1.183v-.639c0-1.556-.479-1.809-2.163-2.122-2.584-.48-4.097-1.391-3.654-4.239zm12.868 10c.462 0 .864.316.973.765.528 2.194 2.019 8.386 2.125 8.928.058.277-.228.501-.749.035-3.511-3.137-4.231-4.728-6.112-4.728h-6.23c-1.86 0-2.58 1.591-6.091 4.727-.49.437-.811.28-.758.003.099-.508 1.602-6.759 2.133-8.965.109-.45.51-.765.973-.765h13.736zm2.695-.62c-.202-.811-.931-1.38-1.767-1.38h-15.592c-.836 0-1.565.569-1.768 1.38-.146.603-2.436 9.824-2.436 10.377 0 1.379 1.094 2.243 2.286 2.243.633 0 1.263-.274 1.83-.781 3.591-3.208 3.77-4.219 4.759-4.219h6.264c.971 0 1.163 1.018 4.745 4.219.567.507 1.197.781 1.83.781 1.192 0 2.286-.864 2.286-2.243 0-.553-2.29-9.774-2.437-10.377zm-12.563 3.62h-1v1h-1v-1h-1v-1h1v-1h1v1h1v1zm4 1h-2v-1h2v1zm3.5-2c-.276 0-.5-.224-.5-.5s.224-.5.5-.5.5.224.5.5-.224.5-.5.5zm-1 1c-.276 0-.5-.224-.5-.5s.224-.5.5-.5.5.224.5.5-.224.5-.5.5zm2 0c-.276 0-.5-.224-.5-.5s.224-.5.5-.5.5.224.5.5-.224.5-.5.5zm-1 1c-.276 0-.5-.224-.5-.5s.224-.5.5-.5.5.224.5.5-.224.5-.5.5z"/></svg>