<svg xmlns="http://www.w3.org/2000/svg" width="24" height="24" viewBox="0 0 24 24"><path d="M23.908 16.041l-2.344-9.66c-.205-.821-.943-1.381-1.789-1.381h-15.551c-.845 0-1.582.56-1.787 1.381l-2.344 9.66c-.064.251-.093.491-.093.716 0 1.38 1.095 2.243 2.287 2.243.632 0 1.292-.243 1.83-.781l2.406-2.87c.44.643 1.238 1.007 2.077 1.007 1.712 0 2.139-1.542 3.403-1.542 1.099 0 1.615 1.542 3.457 1.542.84 0 1.578-.364 2.02-1.007l2.404 2.87c.537.538 1.197.781 1.83.781 1.191 0 2.286-.863 2.286-2.242 0-.226-.028-.465-.092-.717zm-8.158-7.291c.414 0 .75.335.75.75s-.336.75-.75.75-.75-.335-.75-.75.336-.75.75-.75zm-8.75 3.25h-1v-2h-2v-1h2v-2h1v2h2v1h-2v2zm1.658 3.005c-.726 0-1.316-.59-1.316-1.316 0-.726.59-1.316 1.316-1.316.726 0 1.316.59 1.316 1.316 0 .726-.591 1.316-1.316 1.316zm4.342-4.005h-2v-1h2v1zm2.344 4.005c-.727 0-1.316-.59-1.316-1.316 0-.726.59-1.316 1.316-1.316.725 0 1.314.59 1.314 1.316 0 .726-.59 1.316-1.314 1.316zm2.156-3.005c-.414 0-.75-.335-.75-.75s.336-.75.75-.75.75.335.75.75-.336.75-.75.75zm0-3.531c-.414 0-.75-.335-.75-.75s.336-.75.75-.75.75.335.75.75-.336.75-.75.75zm1.734 1.781c-.414 0-.75-.335-.75-.75s.336-.75.75-.75.75.335.75.75-.336.75-.75.75z"/></svg>