<svg xmlns="http://www.w3.org/2000/svg" width="24" height="24" viewBox="0 0 24 24"><path d="M9 10h-1v1h-1v-1h-1v-1h1v-1h1v1h1v1zm4 1h-2v-1h2v1zm3.5-2c-.276 0-.5-.224-.5-.5s.224-.5.5-.5.5.224.5.5-.224.5-.5.5zm-1 1c-.276 0-.5-.224-.5-.5s.224-.5.5-.5.5.224.5.5-.224.5-.5.5zm2 0c-.276 0-.5-.224-.5-.5s.224-.5.5-.5.5.224.5.5-.224.5-.5.5zm-1 1c-.276 0-.5-.224-.5-.5s.224-.5.5-.5.5.224.5.5-.224.5-.5.5zm7.407 5.049l-2.344-9.66c-.205-.821-.942-1.389-1.788-1.389h-15.551c-.846 0-1.583.568-1.788 1.389l-2.344 9.66c-.063.251-.092.491-.092.716 0 1.38 1.094 2.235 2.286 2.235.632 0 1.292-.235 1.83-.773l2.405-2.345c.476.693 1.353 1.118 2.109 1.118 1.836 0 2.307-1.654 3.367-1.654h.005c1.061 0 1.531 1.654 3.368 1.654.756 0 1.633-.425 2.107-1.119l2.405 2.345c.539.539 1.199.774 1.831.774 1.191 0 2.287-.855 2.287-2.234 0-.226-.029-.465-.093-.717zm-5.015-1.613l-.449-.456c-1.059-1.081-1.895-1.935-3.131-1.935-.938 0-1.502.358-2 .675-.413.263-.771.49-1.323.49-.53 0-.887-.227-1.301-.49-.498-.316-1.062-.675-2-.675-1.236 0-2.072.854-3.131 1.935l-2.87 2.816c-.3.298-.777.324-.629-.271l2.13-8.762c.108-.448.51-.763.971-.763h13.682c.461 0 .863.315.972.764l2.133 8.776c.145.584-.34.55-.649.239l-2.405-2.343zm-10.177 1.39c-.653 0-1.185-.531-1.185-1.185 0-.653.531-1.185 1.185-1.185s1.185.531 1.185 1.185c-.001.653-.532 1.185-1.185 1.185zm6.57 0c-.653 0-1.186-.531-1.186-1.185 0-.653.532-1.185 1.186-1.185s1.185.531 1.185 1.185c0 .653-.532 1.185-1.185 1.185z"/></svg>