<svg xmlns="http://www.w3.org/2000/svg" width="24" height="24" viewBox="0 0 24 24"><path d="M19 2c1.654 0 3 1.346 3 3v14c0 1.654-1.346 3-3 3h-14c-1.654 0-3-1.346-3-3v-14c0-1.654 1.346-3 3-3h14zm0-2h-14c-2.762 0-5 2.239-5 5v14c0 2.761 2.238 5 5 5h14c2.762 0 5-2.239 5-5v-14c0-2.761-2.238-5-5-5zm-9 9h-2v2h-2v-2h-2v-2h2v-2h2v2h2v2zm7-4c-.553 0-1 .448-1 1s.447 1 1 1 1-.448 1-1-.447-1-1-1zm0 4c-.553 0-1 .448-1 1s.447 1 1 1 1-.448 1-1-.447-1-1-1zm-2-2c-.553 0-1 .448-1 1s.447 1 1 1 1-.448 1-1-.447-1-1-1zm4 0c-.553 0-1 .448-1 1s.447 1 1 1 1-.448 1-1-.447-1-1-1zm-10 8c-1.104 0-2 .895-2 2s.896 2 2 2 2-.895 2-2-.896-2-2-2zm6 0c-1.104 0-2 .895-2 2s.896 2 2 2 2-.895 2-2-.896-2-2-2z"/></svg>