<svg xmlns="http://www.w3.org/2000/svg" width="24" height="24" viewBox="0 0 24 24"><path d="M21.563 10.38c-.202-.811-.931-1.38-1.767-1.38h-15.592c-.836 0-1.565.569-1.768 1.38-.146.603-2.436 9.824-2.436 10.377 0 1.379 1.094 2.243 2.286 2.243.633 0 1.263-.274 1.83-.781 3.591-3.208 3.77-4.219 4.759-4.219h6.264c.971 0 1.163 1.018 4.745 4.219.567.507 1.197.781 1.83.781 1.192 0 2.286-.864 2.286-2.243 0-.553-2.29-9.774-2.437-10.377zm-12.563 3.62h-2v2h-1v-2h-2v-1h2v-2h1v2h2v1zm4 1h-2v-1h2v1zm2.75-.75c-.414 0-.75-.335-.75-.75s.336-.75.75-.75.75.335.75.75-.336.75-.75.75zm1.75 1.75c-.414 0-.75-.335-.75-.75s.336-.75.75-.75.75.335.75.75-.336.75-.75.75zm0-3.531c-.414 0-.75-.335-.75-.75s.336-.75.75-.75.75.335.75.75-.336.75-.75.75zm1.734 1.781c-.414 0-.75-.335-.75-.75s.336-.75.75-.75.75.335.75.75-.336.75-.75.75zm-6.234-7.25c0 .552-.448 1-1 1s-1-.448-1-1 .448-1 1-1 1 .448 1 1zm-1-3.601c-1.29 0-2.475.445-3.416 1.185l.993.993c.683-.494 1.515-.793 2.423-.793s1.74.299 2.423.793l.993-.993c-.941-.739-2.126-1.185-3.416-1.185zm-4.166.435c1.136-.928 2.585-1.485 4.166-1.485s3.03.558 4.166 1.486l.956-.956c-1.383-1.17-3.168-1.879-5.122-1.879s-3.739.709-5.121 1.879l.955.955z"/></svg>