<svg xmlns="http://www.w3.org/2000/svg" width="24" height="24" viewBox="0 0 24 24"><path d="M19 0h-14c-2.761 0-5 2.239-5 5v14c0 2.761 2.239 5 5 5h14c2.762 0 5-2.239 5-5v-14c0-2.761-2.238-5-5-5zm-2 5c.553 0 1 .448 1 1s-.447 1-1 1-1-.448-1-1 .447-1 1-1zm-2 2c.553 0 1 .448 1 1s-.447 1-1 1-1-.448-1-1 .447-1 1-1zm-11 2v-2h2v-2h2v2h2v2h-2v2h-2v-2h-2zm5 10c-1.104 0-2-.895-2-2s.896-2 2-2 2 .895 2 2-.896 2-2 2zm6 0c-1.104 0-2-.895-2-2s.896-2 2-2 2 .895 2 2-.896 2-2 2zm2-8c-.553 0-1-.448-1-1s.447-1 1-1 1 .448 1 1-.447 1-1 1zm2-2c-.553 0-1-.448-1-1s.447-1 1-1 1 .448 1 1-.447 1-1 1z"/></svg>