<svg xmlns="http://www.w3.org/2000/svg" width="24" height="24" viewBox="0 0 24 24"><path d="M24 14v-4h-3.23c-.229-1.003-.624-1.94-1.156-2.785l2.286-2.286-2.83-2.829-2.286 2.286c-.845-.532-1.781-.928-2.784-1.156v-3.23h-4v3.23c-1.003.228-1.94.625-2.785 1.157l-2.286-2.286-2.829 2.828 2.287 2.287c-.533.845-.928 1.781-1.157 2.784h-3.23v4h3.23c.229 1.003.624 1.939 1.156 2.784l-2.286 2.287 2.829 2.829 2.286-2.286c.845.531 1.782.928 2.785 1.156v3.23h4v-3.23c1.003-.228 1.939-.624 2.784-1.156l2.286 2.286 2.828-2.829-2.285-2.286c.532-.845.928-1.782 1.156-2.785h3.231zm-12 2c-2.209 0-4-1.791-4-4s1.791-4 4-4 4 1.791 4 4-1.791 4-4 4z"/></svg>