<svg xmlns="http://www.w3.org/2000/svg" width="24" height="24" viewBox="0 0 24 24"><path d="M24 13.269v-2.538l-2.108-.002c-.059-.457-.148-.904-.267-1.34l1.947-.809-.972-2.345-1.948.805c-.228-.396-.482-.775-.761-1.135l1.491-1.493-1.795-1.794-1.493 1.49c-.359-.278-.738-.533-1.135-.76l.805-1.949-2.344-.971-.809 1.947c-.436-.118-.883-.208-1.34-.266l-.001-2.109h-2.539l-.002 2.109c-.457.058-.904.148-1.34.266l-.809-1.947-2.345.971.805 1.949c-.396.227-.775.482-1.135.76l-1.493-1.49-1.794 1.794 1.49 1.493c-.278.36-.533.739-.76 1.135l-1.949-.805-.971 2.345 1.947.809c-.118.436-.208.883-.266 1.34l-2.109.002v2.538l2.109.002c.058.457.148.904.266 1.34l-1.947.809.971 2.345 1.949-.805c.228.396.482.775.76 1.135l-1.49 1.493 1.794 1.794 1.493-1.49c.36.278.739.533 1.135.76l-.805 1.949 2.345.971.809-1.947c.436.118.883.208 1.34.266l.002 2.109h2.539l.002-2.109c.457-.058.904-.148 1.34-.266l.809 1.947 2.345-.971-.805-1.949c.396-.228.775-.482 1.135-.76l1.493 1.49 1.795-1.794-1.491-1.493c.278-.36.533-.739.761-1.135l1.948.805.972-2.345-1.947-.809c.118-.436.208-.883.267-1.34l2.106-.002zm-12 2.731c-2.209 0-4-1.791-4-4s1.791-4 4-4 4 1.791 4 4-1.791 4-4 4z"/></svg>