<svg xmlns="http://www.w3.org/2000/svg" width="24" height="24" viewBox="0 0 24 24"><path d="M16 0v2h2.586l-2.113 2.113c-.981-.698-2.177-1.113-3.473-1.113-2.22 0-4.144 1.216-5.18 3.009-3.229.096-5.82 2.738-5.82 5.991 0 2.973 2.164 5.433 5 5.91v2.09h-3v2h3v2h2v-2h3v-2h-3v-2.09c1.791-.301 3.294-1.403 4.167-2.918 3.235-.09 5.833-2.735 5.833-5.992 0-1.296-.415-2.492-1.113-3.473l2.113-2.113v2.586h2v-6h-6zm-3 13c-1.944 0-3.564-1.396-3.923-3.236-.66-.333-1.365-.346-2.033-.066.266 2.293 1.827 4.181 3.931 4.938-.729.831-1.784 1.364-2.975 1.364-2.206 0-4-1.794-4-4s1.794-4 4-4c1.937 0 3.555 1.384 3.921 3.214.679.35 1.309.383 2.033.077-.27-2.293-1.837-4.179-3.943-4.931.732-.83 1.797-1.36 2.989-1.36 2.206 0 4 1.794 4 4s-1.794 4-4 4z"/></svg>