<svg xmlns="http://www.w3.org/2000/svg" width="24" height="24" viewBox="0 0 24 24"><path d="M22 1.414l-1.414-1.414-1.414 1.414-1.414-1.414-1.414 1.414 1.414 1.414-1.286 1.286c-2.343-1.668-5.612-1.458-7.715.644-.381.381-.69.805-.944 1.251-3.226.1-5.813 2.74-5.813 5.991 0 2.973 2.164 5.433 5 5.91v2.09h-2v2h2v2h2v-2h2v-2h-2v-2.09c1.794-.302 3.298-1.408 4.171-2.927 1.478-.042 2.944-.613 4.071-1.741 2.103-2.102 2.312-5.371.644-7.713l1.286-1.287 1.414 1.414 1.414-1.414-1.414-1.414 1.414-1.414zm-6.172 10.414c-2.277 2.279-6.151 1.042-6.753-2.062-.325-.164-.684-.266-1.075-.266-.331 0-.645.071-.935.188.257 2.229 1.657 4.137 3.918 4.944-.73.833-1.79 1.368-2.983 1.368-2.206 0-4-1.794-4-4s1.794-4 4-4c1.944 0 3.564 1.395 3.923 3.235.688.348 1.359.34 2.031.056-.271-2.294-1.839-4.18-3.946-4.932 1.566-1.776 4.229-1.778 5.821-.187 1.559 1.56 1.559 4.098-.001 5.656z"/></svg>