<svg xmlns="http://www.w3.org/2000/svg" width="24" height="24" viewBox="0 0 24 24"><path d="M18 0v2h2.586l-3.861 3.846c-1.246-1.143-2.902-1.846-4.725-1.846-1.824 0-3.479.703-4.726 1.846l-1.209-1.204 1.288-1.288-.707-.708-1.289 1.29-1.943-1.936h2.586v-2h-6v6h2v-2.586l1.943 1.936-1.297 1.296.707.707 1.298-1.298 1.353 1.347c-.633 1.053-1.004 2.281-1.004 3.598 0 3.526 2.609 6.434 6 6.92v2.08h-3v2h3v2h2v-2h3v-2h-3v-2.08c3.391-.486 6-3.395 6-6.92 0-1.317-.371-2.545-1.004-3.598l4.004-3.988v2.586h2v-6h-6zm-6 16c-2.757 0-5-2.243-5-5s2.243-5 5-5 5 2.243 5 5-2.243 5-5 5z"/></svg>