<svg xmlns="http://www.w3.org/2000/svg" width="24" height="24" viewBox="0 0 24 24"><path d="M17 0v2h1.586l-2.113 2.113c-.981-.698-2.177-1.113-3.473-1.113-2.225 0-4.151 1.219-5.187 3.018-1.473.045-2.933.615-4.057 1.739-1.171 1.172-1.756 2.707-1.756 4.242 0 1.536.585 3.071 1.757 4.243.917.917 2.055 1.469 3.243 1.669v2.24l-1.122-1.121-1.414 1.414 3.535 3.556 3.536-3.557-1.414-1.414-1.121 1.122v-2.24c1.186-.199 2.326-.752 3.242-1.668.382-.381.689-.805.943-1.252 3.227-.099 5.815-2.74 5.815-5.991 0-1.296-.415-2.492-1.113-3.473l2.113-2.113v1.586h2v-5h-5zm-4 13c-1.956 0-3.579-1.444-3.924-3.25-.326-.158-.689-.25-1.076-.25-.34 0-.661.074-.956.197.267 2.3 1.837 4.191 3.948 4.943-1.516 1.746-4.201 1.808-5.821.188-1.56-1.56-1.56-4.097-.001-5.657 2.261-2.26 6.126-1.07 6.747 2.04.328.17.687.289 1.083.289.333 0 .643-.081.932-.201-.263-2.242-1.672-4.128-3.91-4.93.728-.833 1.785-1.369 2.978-1.369 2.206 0 4 1.794 4 4s-1.794 4-4 4z"/></svg>