<svg xmlns="http://www.w3.org/2000/svg" width="24" height="24" viewBox="0 0 24 24"><path d="M16.5 11.5c0 .828-.56 1.5-1.25 1.5s-1.25-.672-1.25-1.5.56-1.5 1.25-1.5 1.25.672 1.25 1.5zm-7.75-1.5c-.69 0-1.25.672-1.25 1.5s.56 1.5 1.25 1.5 1.25-.672 1.25-1.5-.56-1.5-1.25-1.5zm3.25 8.354c2.235 0 3-2.354 3-2.354h-6s.847 2.354 3 2.354zm12-5.803c0 1.925-.896 4.738-3.317 5.188-1.959 3.492-4.877 5.261-8.683 5.261-3.805 0-6.724-1.769-8.683-5.26-2.42-.451-3.317-3.263-3.317-5.189 0-2.139.804-4.093 2.843-4.223.453-5.099 3.946-8.328 9.157-8.328s8.704 3.229 9.157 8.329c2.036.129 2.843 2.073 2.843 4.222zm-2 0c0-1.084-.229-1.856-.631-2.117-.272-.177-.615-.104-.756-.041-.658.293-1.406-.19-1.406-.914 0-.755-.1-2.246-.743-3.7-1.159-2.156-2.687 1.308-6.464 1.308s-5.305-3.464-6.464-1.307c-.643 1.453-.743 2.944-.743 3.7 0 .719-.744 1.209-1.406.914-.143-.063-.483-.136-.756.041-1.102.717-.798 5.326 1.336 5.367.368.007.703.216.871.543 2.39 4.655 5.982 4.655 7.162 4.655 1.181 0 4.771 0 7.162-4.655.168-.328.503-.536.87-.543 1.853-.036 1.968-3.219 1.968-3.251z"/></svg>