<svg xmlns="http://www.w3.org/2000/svg" width="32" height="24" viewBox="0 0 32 24"><path d="M20.5 12.5c0 .828-.56 1.5-1.25 1.5s-1.25-.672-1.25-1.5.56-1.5 1.25-1.5 1.25.672 1.25 1.5zm-7.75-1.5c-.69 0-1.25.672-1.25 1.5s.56 1.5 1.25 1.5 1.25-.672 1.25-1.5-.56-1.5-1.25-1.5zm3.25 8.354c2.235 0 3-2.354 3-2.354h-6s.847 2.354 3 2.354zm12-5.803c0 1.925-.896 4.738-3.317 5.188-1.959 3.492-4.877 5.261-8.683 5.261s-6.724-1.769-8.683-5.26c-2.421-.451-3.317-3.263-3.317-5.189 0-2.147.809-4.093 2.843-4.223.453-5.099 3.946-8.328 9.157-8.328s8.704 3.229 9.157 8.329c2.036.129 2.843 2.073 2.843 4.222zm-2.631-2.116c-.272-.178-.615-.104-.756-.041-.661.293-1.406-.191-1.406-.914 0-1.344-.315-5.007-3.46-6.654 1.304 1.354 1.753 3.792 1.753 5.174h-12.591999999999999c-.09.601-.115 1.124-.115 1.48 0 .723-.745 1.207-1.406.914-.142-.063-.484-.137-.756.041-1.102.716-.798 5.326 1.337 5.367.367.007.702.216.87.543 2.391 4.655 5.981 4.655 7.162 4.655s4.771 0 7.162-4.655c.168-.328.503-.536.87-.543 2.134-.042 2.44-4.651 1.337-5.367zm-.619-6.748c3.797-1.093.375 7.346 7.25 7.313-2.266-1.469-.893-5.476-1.5-8.166-.518-2.293-2.328-2.834-3.5-2.834-1.875 0-3.106 1.106-3.603 1.922.544.478 1.014 1.224 1.353 1.765zm-16.147-1.765c-.497-.816-1.728-1.922-3.603-1.922-1.172 0-2.982.541-3.5 2.834-.607 2.69.766 6.697-1.5 8.166 6.875.033 3.453-8.406 7.25-7.313.339-.541.809-1.287 1.353-1.765z"/></svg>