<svg xmlns="http://www.w3.org/2000/svg" width="26" height="26" viewBox="0 0 26 26"><path d="M10 18.993h6s-.765 2.354-3 2.354c-2.153 0-3-2.354-3-2.354zm8.927-3.995c0 1.262-1.171 2.25-2.667 2.25-1.138 0-1.954-.577-2.394-1.404-.229-.432-.412-.932-.867-.932s-.638.5-.867.932c-.439.828-1.255 1.404-2.394 1.404-1.495 0-2.667-.988-2.667-2.25s1.171-2.25 2.667-2.25c1.01 0 1.862.456 2.315 1.138.307-.102.615-.153.945-.153s.638.051.945.153c.453-.681 1.305-1.138 2.315-1.138 1.498 0 2.669.988 2.669 2.25zm-8.021 0c0-.414-.522-.75-1.167-.75s-1.167.336-1.167.75.522.75 1.167.75 1.167-.336 1.167-.75zm6.521 0c0-.414-.522-.75-1.167-.75s-1.167.336-1.167.75.522.75 1.167.75 1.167-.336 1.167-.75zm8.573-2.295c0 2.196-.95 4.32-2 5.728h-.002c-.509.741-1.208 1.386-2.137 1.781-2.349 3.731-5.484 5.781-8.861 5.781s-6.514-2.05-8.861-5.781c-.929-.395-1.628-1.04-2.137-1.781h-.002c-1.05-1.407-2-3.531-2-5.728 0-5.613 3.099-9.482 9.306-8.075-.781-.679-1.924-1.148-3.08-1.351 2.168-2.995 5.43-3.284 6.774-3.284s4.606.289 6.774 3.284c-1.156.203-2.3.672-3.08 1.351 6.121-1.388 9.306 2.356 9.306 8.075zm-5.985-.981c-4.757.28-7.015-2.135-7.015-3.458 0 1.324-2.257 3.738-7.015 3.458-2.557 7.819 2.914 12.271 7.015 12.271 3.894 0 9.642-4.237 7.015-12.271z"/></svg>