<svg xmlns="http://www.w3.org/2000/svg" width="24" height="26" viewBox="0 0 24 26"><path d="M16.5 14.492c0 .828-.56 1.5-1.25 1.5s-1.25-.671-1.25-1.5.56-1.5 1.25-1.5 1.25.672 1.25 1.5zm-7.75-1.5c-.69 0-1.25.672-1.25 1.5s.56 1.5 1.25 1.5 1.25-.672 1.25-1.5-.56-1.5-1.25-1.5zm3.25 8.354c2.235 0 3-2.354 3-2.354h-6s.847 2.354 3 2.354zm12-6.041c0 1.765-.985 3.991-3.139 4.906-2.348 3.731-5.484 5.781-8.861 5.781-3.377 0-6.513-2.05-8.862-5.781-2.153-.915-3.138-3.141-3.138-4.906 0-1.472.387-2.937 1.682-3.636-.377-2.311-.117-6.176 4.193-7.593 1.031-1.99 3.125-4.084 6.125-4.084s5.094 2.094 6.125 4.083c4.31 1.418 4.57 5.282 4.193 7.594 1.295.699 1.682 2.164 1.682 3.636zm-2.176-1.252c-4.687-.258-6.833-4.66-7.241-7.394-1.167 6.333-9 1.792-9.896 9.052-.886-.467-1.715-1.308-2.215-2.159-.996.997-.54 4.154 1.661 4.899.224.076.413.228.535.43 1.991 3.296 4.595 5.111 7.332 5.111s5.34-1.815 7.331-5.111c.122-.202.312-.354.535-.43 1.771-.599 2.517-2.769 1.958-4.398z"/></svg>