<svg xmlns="http://www.w3.org/2000/svg" width="24" height="24" viewBox="0 0 24 24"><path d="M16.5 12.5c0 .828-.56 1.5-1.25 1.5s-1.25-.672-1.25-1.5.56-1.5 1.25-1.5 1.25.672 1.25 1.5zm-7.75-1.5c-.69 0-1.25.672-1.25 1.5s.56 1.5 1.25 1.5 1.25-.672 1.25-1.5-.56-1.5-1.25-1.5zm3.25 5.357c-2.375-1.454-1.689 2.095-5 .639.5 2.012 3.506 2.353 5 1.141 1.494 1.212 4.5.871 5-1.141-3.311 1.457-2.625-2.092-5-.639zm12-3.044c0 1.765-.985 3.991-3.139 4.906-2.05 3.274-4.975 5.781-8.861 5.781-3.749 0-6.858-2.582-8.862-5.781-2.153-.916-3.138-3.142-3.138-4.906 0-1.995.811-3.774 2.683-3.959l.03-.028.003-.02c-.25-1.945-.338-4.92.719-6.047.568-.605 1.217-.839 2.047-.565 1.294-1.765 3.454-2.694 6.372-2.694 4.646 0 6.552 2.417 8.177 4.46.893 1.123 1.969 2.248 3.969 2.186-.809.758-1.779 1.354-2.832 1.795.051.301.093.604.122.907 1.85.165 2.71 1.905 2.71 3.965zm-2.58-1.866c-.235-.153-.53-.116-.671-.053-.66.293-1.406-.192-1.406-.914 0-.479-.035-.957-.1-1.43-4.099.928-8.743-.231-10.368-3.467-2.375.375-3.85 2.356-4.229 5.021h-.004c-.087.683-.785 1.059-1.39.79-.141-.062-.436-.1-.672.053-1 .651-.893 4.184 1.554 5.012.224.076.413.228.535.43 1.708 2.829 4.015 5.111 7.331 5.111 3.318 0 5.624-2.284 7.331-5.111.123-.202.313-.354.536-.43 2.448-.829 2.553-4.364 1.553-5.012z"/></svg>