<svg xmlns="http://www.w3.org/2000/svg" width="24" height="25" viewBox="0 0 24 25"><path d="M21.292 10.349c-.36-3.908-2.698-6.58-6.2-7.562-.874-.246-2.617-.622-1.092-2.787-4.87 0-10.729 4.235-11.292 10.349-1.859.165-2.708 1.921-2.708 3.964 0 1.755.975 3.967 3.104 4.891 2.935 5.371 7.534 5.796 8.896 5.796s5.961-.425 8.896-5.796c2.129-.925 3.104-3.136 3.104-4.891 0-2.019-.841-3.798-2.708-3.964zm-1.425 7.11c-.246.083-.45.259-.569.491-2.406 4.686-6.194 5.05-7.298 5.05s-4.892-.364-7.298-5.05c-.119-.231-.323-.407-.569-.491-2.448-.829-2.553-4.364-1.553-5.012.235-.152.531-.116.671-.053.661.293 1.406-.191 1.406-.914 0-1.019.151-1.938.43-2.757 1.092-2.56 3.121 1.364 6.913 1.364 3.793 0 5.822-3.925 6.913-1.363.278.819.43 1.738.43 2.756 0 .725.746 1.207 1.406.914.14-.063.436-.1.671.053 1 .648.895 4.183-1.553 5.012zm-3.367-3.959c0 .828-.56 1.5-1.25 1.5s-1.25-.672-1.25-1.5.56-1.5 1.25-1.5 1.25.672 1.25 1.5zm-7.75 1.5c-.69 0-1.25-.672-1.25-1.5s.56-1.5 1.25-1.5 1.25.672 1.25 1.5-.56 1.5-1.25 1.5zm.25 3h6s-.765 2.354-3 2.354c-2.153 0-3-2.354-3-2.354z"/></svg>