<svg width="24" height="24" xmlns="http://www.w3.org/2000/svg" fill-rule="evenodd" clip-rule="evenodd"><path d="M19 24h-14c-2.761 0-5-2.239-5-5v-14c0-2.761 2.239-5 5-5h14c2.762 0 5 2.239 5 5v14c0 2.761-2.238 5-5 5zm.699-12.713l-6.986-6.985c-.202-.201-.466-.302-.729-.302-.264 0-.527.101-.729.302l-1.45 1.451 1.84 1.84c.428-.144.918-.048 1.259.293.342.343.439.837.29 1.267l1.773 1.773c.43-.148.925-.052 1.268.291.478.479.478 1.254 0 1.734-.48.479-1.256.479-1.735 0-.36-.361-.449-.89-.267-1.334l-1.654-1.654v4.353c.117.058.227.135.325.232.478.478.478 1.254 0 1.734-.479.479-1.256.479-1.734 0-.479-.48-.479-1.256 0-1.734.118-.119.255-.208.401-.268v-4.393c-.146-.059-.283-.148-.401-.267-.363-.363-.451-.895-.264-1.341l-1.814-1.814-4.79 4.79c-.201.202-.302.465-.302.729 0 .263.101.527.302.729l6.986 6.985c.201.201.465.301.728.301.264 0 .527-.1.729-.301l6.954-6.952c.201-.202.301-.466.301-.729 0-.264-.1-.528-.301-.729v-.001z"/></svg>