<svg width="24" height="24" xmlns="http://www.w3.org/2000/svg" fill-rule="evenodd" clip-rule="evenodd"><path d="M12 0c-6.627 0-12 5.373-12 12s5.373 12 12 12 12-5.373 12-12-5.373-12-12-12zm0 2c5.514 0 10 4.486 10 10s-4.486 10-10 10-10-4.486-10-10 4.486-10 10-10zm5.774 9.465l-5.239-5.239c-.151-.151-.349-.226-.547-.226-.198 0-.395.075-.546.226l-1.088 1.088 1.38 1.38c.321-.108.688-.035.944.22.257.258.329.628.218.95l1.33 1.33c.322-.111.693-.039.95.219.359.359.359.94 0 1.3-.359.359-.941.359-1.301 0-.27-.271-.337-.667-.2-1l-1.24-1.241v3.265c.087.043.17.101.243.174.359.358.359.94 0 1.3-.359.359-.942.359-1.3 0-.36-.36-.36-.942 0-1.3.088-.089.191-.156.301-.201v-3.295c-.11-.044-.213-.111-.301-.2-.272-.272-.338-.672-.198-1.006l-1.361-1.36-3.592 3.592c-.151.151-.227.349-.227.547 0 .197.076.395.227.546l5.239 5.239c.151.151.349.226.546.226.198 0 .396-.075.547-.226l5.215-5.214c.151-.151.226-.349.226-.547 0-.197-.075-.395-.226-.546v-.001z"/></svg>