<svg width="24" height="24" xmlns="http://www.w3.org/2000/svg" fill-rule="evenodd" clip-rule="evenodd"><path d="M12 0c-6.626 0-12 5.372-12 12 0 6.627 5.374 12 12 12 6.627 0 12-5.373 12-12 0-6.628-5.373-12-12-12zm6.736 11.376l-6.112-6.112c-.177-.176-.408-.264-.638-.264-.231 0-.461.088-.638.264l-1.269 1.27 1.61 1.61c.375-.126.803-.042 1.102.256.299.301.384.733.254 1.109l1.551 1.551c.376-.129.809-.045 1.109.255.419.419.419 1.097 0 1.517-.419.419-1.098.419-1.518 0-.314-.316-.393-.778-.233-1.167l-1.447-1.447v3.808c.102.051.198.118.284.204.418.418.418 1.097 0 1.517-.419.419-1.099.419-1.517 0-.42-.42-.42-1.099 0-1.517.103-.104.223-.183.351-.235v-3.844c-.128-.052-.248-.13-.351-.234-.318-.317-.395-.783-.231-1.173l-1.587-1.587-4.192 4.191c-.176.177-.264.407-.264.638 0 .23.088.461.264.638l6.113 6.112c.176.176.407.263.637.263.231 0 .461-.087.638-.263l6.084-6.083c.176-.177.264-.408.264-.638 0-.231-.088-.462-.264-.638v-.001z"/></svg>