<svg width="24" height="24" xmlns="http://www.w3.org/2000/svg" fill-rule="evenodd" clip-rule="evenodd"><path d="M23.548 10.931l-10.479-10.478c-.302-.302-.698-.453-1.093-.453-.396 0-.791.151-1.093.453l-2.176 2.176 2.76 2.76c.642-.216 1.377-.071 1.889.44.513.515.658 1.256.435 1.9l2.66 2.66c.644-.222 1.387-.078 1.901.437.718.718.718 1.881 0 2.6-.719.719-1.883.719-2.602 0-.54-.541-.674-1.334-.4-2l-2.481-2.481v6.529c.175.087.34.202.487.348.717.717.717 1.881 0 2.601-.719.718-1.884.718-2.601 0-.719-.72-.719-1.884 0-2.601.177-.178.383-.312.602-.402v-6.589c-.219-.089-.425-.223-.602-.401-.544-.544-.676-1.343-.396-2.011l-2.721-2.721-7.185 7.185c-.302.302-.453.697-.453 1.093 0 .395.151.791.453 1.093l10.479 10.478c.302.302.697.452 1.092.452.396 0 .791-.15 1.093-.452l10.431-10.428c.302-.303.452-.699.452-1.094 0-.396-.15-.791-.452-1.093"/></svg>