<svg xmlns="http://www.w3.org/2000/svg" width="24" height="24" viewBox="0 0 24 24"><path d="M23.654 13.082c-1.248-2.747-4.075-8.861-4.473-9.613-.532-1.005-1.211-1.469-1.939-1.469-1.062 0-2.098.933-2.234 2.332-.01.125.097.127.206.127.333 0 .719-.205.803-.526.183-.697.587-.98 1.026-1.045.559-.083.94.287 1.355 1.16.613 1.293 3.471 7.614 4.275 9.469.176.407.287.934.087 1.134-.36-.915-1.149-1.651-2.723-1.651-.088 0-5.754.324-8.037.324s-7.949-.324-8.037-.324c-1.574 0-2.363.736-2.724 1.649-.2-.2-.089-.727.087-1.134.805-1.855 3.662-8.175 4.275-9.469.415-.873.797-1.242 1.355-1.16.439.065.844.348 1.026 1.045.084.321.47.526.803.526.109 0 .216-.002.206-.127-.136-1.397-1.171-2.33-2.233-2.33-.728 0-1.407.464-1.94 1.469-.397.751-3.225 6.866-4.473 9.613-.244.54-.345 1.053-.345 1.525 0 1.071.4 1.578 1.023 2.393.309 2.599 2.11 5 5.205 5 4.727 0 4.033-4.755 5.771-4.755s1.046 4.755 5.772 4.755c3.095 0 4.896-2.401 5.205-5 .624-.815 1.024-1.322 1.024-2.393 0-.472-.101-.985-.346-1.525zm-21.3 5.106c-.258-.694-.375-1.446-.352-2.173.059-1.786 1.09-2.015 1.98-2.015.033 0 1.479.1 3.037.18-1.993.737-3.65 2.167-4.665 4.008zm11.816-.041c-1.592-3.621-.18-3.844 1.33-3.9 1.061-.04 2.268-.108 3.168-.163-1.998.683-3.623 2.163-4.498 4.063z"/></svg>