<svg xmlns="http://www.w3.org/2000/svg" width="24" height="24" viewBox="0 0 24 24"><path d="M22.852 10c-.288-1.069-1.067-2-2.834-2-.088 0-5.741.324-8.018.324s-7.93-.324-8.018-.324c-1.767 0-2.546.931-2.834 2h-1.148v.797c.109.609.531 1.001 1.051 1.203.308 2.599 2.105 5 5.191 5 4.716 0 4.023-4.755 5.758-4.755s1.042 4.755 5.758 4.755c3.086 0 4.884-2.401 5.191-5 .52-.202.941-.594 1.051-1.203v-.797h-1.148zm-13.11 3.352c-.621 1.361-1.207 2.648-3.5 2.648-2.926 0-4.314-2.628-4.239-4.985.058-1.786 1.089-2.015 1.979-2.015.044 0 2.541.173 4.518.247 1.539.057 2.984.279 1.242 4.105zm8.016 2.648c-2.293 0-2.879-1.287-3.5-2.648-1.742-3.826-.297-4.047 1.242-4.104 1.977-.075 4.474-.248 4.518-.248.891 0 1.922.229 1.979 2.015.075 2.357-1.313 4.985-4.239 4.985zm-.81-5.817c1.226-.062 2.097-.12 3.097-.183 1.386.003 1.011 2.066.531 3.111.095-2.018.199-2.777-3.628-2.928zm-13.524 2.928c-.48-1.045-.855-3.108.531-3.111 1 .063 1.871.12 3.097.183-3.827.151-3.723.91-3.628 2.928z"/></svg>