<svg xmlns="http://www.w3.org/2000/svg" width="24" height="24" viewBox="0 0 24 24"><path d="M21.06 11.91c0 .232-.012.432-.025.628-.503-1.725-1.315-2.131-3.413-2.688 3.438 0 3.438.847 3.438 2.06zm2.94-3.195v1.462c-.328.276-.999.447-1.001 1.418-.006 3.827-1.588 4.387-4.604 4.405-4.05 0-4.597-.927-5.273-4.148-.15-.715-.513-1.148-1.122-1.148s-.972.434-1.122 1.148c-.677 3.221-1.224 4.148-5.274 4.148-2.428-.015-3.925-.384-4.419-2.522.383.104.775.191 1.144.264.444.986 1.406 1.248 3.28 1.258 3.608.026 3.736-.754 4.297-3.416.151-.72.119-1.244-.097-1.556-.404-.587-1.585-1.028-3.51-1.028-1.99 0-3.053.229-3.627.623-.938-.092-1.859-.561-2.116-1.01 1.784-.337 3.821-.613 5.743-.613 3.24 0 3.525.934 5.701.923 2.176.011 2.465-.923 5.701-.923 2.119 0 4.397.332 6.299.715zm-2 2.859c0-1.516 0-2.574-4.299-2.574-1.925 0-3.106.441-3.511 1.028-.216.312-.248.836-.097 1.556.561 2.661.688 3.442 4.297 3.416 2.84-.017 3.61-.57 3.61-3.426zm-14-.574h-3.219v2h3.219v-2zm-4-.078v2.078c-.613-.075-2.402-.347-3.438-.776-.34-.141-.562-.473-.562-.841v-1.909c.812.828 1.891 1.026 4 1.448zm-2.078.453c0-.276-.225-.5-.501-.5-.275 0-.499.224-.499.5s.224.5.499.5c.276 0 .501-.224.501-.5z"/></svg>