<svg xmlns="http://www.w3.org/2000/svg" width="24" height="24" viewBox="0 0 24 24"><path d="M3.875 12.969h-2.854s4.906-8.771 5.511-9.875c.425-.777 1.042-1.094 1.55-1.094.826 0 1.553.899 1.496 2.703-.014.439-.587.36-.578-.031.042-1.776-1.157-1.911-1.604-.838-.968 2.322-2.275 5.849-3.521 9.135zm20.125 1.031l-1 8h-7.607c-.788 0-1.446-.501-1.791-1.209-.402-.827-.874-1.773-1.602-1.773s-1.199.947-1.602 1.773c-.344.708-1.002 1.209-1.791 1.209h-7.607l-1-8h24zm-15 3c0-.552-.447-1-1-1h-4.547c-.734 0-1.13.53-1.059 1.156.072.627.126 1.219.231 1.844.119.707.479 1 1.126 1h4.249c.553 0 1-.448 1-1v-2zm12.605.156c.072-.626-.324-1.156-1.058-1.156h-4.547c-.553 0-1 .448-1 1v2c0 .552.447 1 1 1h4.249c.646 0 1.007-.293 1.126-1 .105-.625.159-1.217.23-1.844zm-6.605-12.484c-.042-1.776 1.157-1.911 1.604-.838.968 2.322 2.274 5.849 3.521 9.135h2.854s-4.906-8.771-5.511-9.875c-.425-.777-1.042-1.094-1.55-1.094-.826 0-1.553.899-1.496 2.703.014.439.587.36.578-.031z"/></svg>