<svg xmlns="http://www.w3.org/2000/svg" width="24" height="24" viewBox="0 0 24 24"><path d="M24 12c0 .552-.448 1-1 1l-.099-.02c-.456 2.292-2.475 4.02-4.901 4.02-2.082 0-3.85-1.277-4.596-3.088-.441-1.071-.326-2.447-1.429-2.447-1.053 0-.897 1.303-1.392 2.481-.754 1.793-2.514 3.054-4.583 3.054-2.425 0-4.445-1.728-4.901-4.02l-.099.02c-.552 0-1-.448-1-1s.448-1 1-1h.101c.463-2.282 2.481-4 4.899-4 2.357 0 4.319 1.636 4.848 3.83.343-.243.743-.366 1.126-.366.39 0 .809.131 1.169.393.519-2.209 2.491-3.857 4.857-3.857 2.419 0 4.436 1.718 4.899 4h.101c.552 0 1 .448 1 1zm-14 0c0-2.206-1.794-4-4-4s-4 1.794-4 4 1.794 4 4 4 4-1.794 4-4zm12 0c0-2.206-1.794-4-4-4s-4 1.794-4 4 1.794 4 4 4 4-1.794 4-4zm-5-2.938c.198-.037.401-.062.609-.062 1.872 0 3.391 1.518 3.391 3.391l-.028.283c-.762-1.693-2.201-3.01-3.972-3.612zm-13.972 3.611l-.028-.282c0-1.873 1.519-3.391 3.391-3.391.208 0 .411.025.609.062-1.771.602-3.21 1.919-3.972 3.611z"/></svg>