<svg xmlns="http://www.w3.org/2000/svg" width="24" height="24" viewBox="0 0 24 24"><path d="M17.701 8c-3.236 0-3.525.934-5.701.923-2.176.011-2.461-.923-5.701-.923-2.119 0-4.397.332-6.299.715v1.462c.328.276.999.447 1.001 1.418.006 3.827 1.588 4.387 4.603 4.405 4.05 0 4.597-.927 5.273-4.148.15-.715.513-1.148 1.122-1.148s.972.434 1.122 1.148c.678 3.221 1.225 4.148 5.275 4.148 3.016-.018 4.598-.578 4.604-4.405.002-.971.673-1.142 1.001-1.418v-1.462c-1.903-.383-4.181-.715-6.3-.715zm-7.795 3.584c-.56 2.662-.688 3.442-4.297 3.416-2.839-.017-3.609-.57-3.609-3.426 0-1.516 0-2.574 4.299-2.574 1.925 0 3.106.441 3.511 1.028.215.313.248.836.096 1.556zm8.485 3.416c-3.608.026-3.736-.754-4.297-3.416-.151-.72-.119-1.244.097-1.556.404-.587 1.585-1.028 3.51-1.028 4.299 0 4.299 1.058 4.299 2.574 0 2.856-.77 3.409-3.609 3.426zm-.77-5.15c3.438 0 3.438.847 3.438 2.06 0 .232-.012.432-.025.628-.503-1.726-1.315-2.132-3.413-2.688zm-14.655 2.688c-.014-.196-.026-.396-.026-.628 0-1.213 0-2.06 3.438-2.06-2.097.556-2.909.962-3.412 2.688z"/></svg>