<svg xmlns="http://www.w3.org/2000/svg" width="24" height="24" viewBox="0 0 24 24"><path d="M20.093 16.288c-.003.532-.14.971-.264 1.346 0-1.774-1.112-2.04-3.034-2.192.328-.034.672-.058 1.029-.058.92 0 2.274-.099 2.269.904zm3.907-2.679v2.243c-.85.253-1.022.255-1.159 1.127-.367 2.338-1.308 5.021-5.354 5.021-3.546 0-4.532-3.031-5.007-4.487-.082-.257-.262-.41-.477-.41h-.008c-.215 0-.395.153-.477.41-.473 1.456-1.459 4.487-5.005 4.487-4.046 0-4.986-2.683-5.354-5.02-.137-.872-.309-.874-1.159-1.127v-2.243s4.172-8.969 4.695-9.949c.731-1.373 1.651-1.661 2.295-1.661 1.353 0 2.484 1.145 2.633 2.663.031.361-.204.664-.693.664-.494 0-1.102-.305-1.25-.87-.092-.347-.282-.634-.641-.634-.305 0-.543.435-.689.8-.462 1.152-2.254 5.825-3.109 8.098 2.035-.319 4.52-.464 6.485.23 1.065.383 1.677.565 2.274.565s1.209-.183 2.274-.565c1.966-.694 4.45-.55 6.485-.23-.855-2.272-2.647-6.946-3.109-8.098-.146-.365-.385-.8-.689-.8-.359 0-.549.288-.641.635-.148.565-.756.87-1.25.87-.489 0-.725-.303-.693-.664.148-1.519 1.28-2.664 2.633-2.664.645 0 1.564.288 2.295 1.66.523.981 4.695 9.949 4.695 9.949zm-14.336 1.42c-.646-.386-2.09-.645-3.592-.645-1.666 0-2.803.315-3.064.626-.128.152-.123.502-.098.769.287 2.9.9 4.28 3.603 4.28 2.054 0 2.819-1.439 3.339-3.598.277-1.156.082-1.272-.188-1.432zm11.328-.019c-.262-.312-1.398-.626-3.064-.626-1.502 0-2.945.259-3.592.645-.27.16-.465.276-.188 1.432.52 2.159 1.285 3.598 3.339 3.598 2.702 0 3.315-1.38 3.603-4.28.025-.266.03-.617-.098-.769zm-17.085 1.278c.003.532.14.971.264 1.346 0-1.774 1.112-2.04 3.034-2.192-.328-.034-.672-.058-1.029-.058-.92 0-2.274-.099-2.269.904z"/></svg>