<svg xmlns="http://www.w3.org/2000/svg" width="24" height="24" viewBox="0 0 24 24"><path d="M17.945 8c-1.139 0-2.377.129-3.395.491-2.283.828-2.792.838-5.103 0-1.015-.362-2.256-.491-3.392-.491-1.971 0-4.17.387-6.055.878v1.789c.847.255 1.068.627 1.203 1.493.381 2.443 1.255 4.84 5.068 4.84 3.037 0 4.051-2.259 4.722-4.345.341-1.06 1.663-1.087 2.009-.015.674 2.089 1.682 4.36 4.725 4.36 3.814 0 4.689-2.397 5.07-4.841.135-.866.355-1.237 1.203-1.493v-1.788c-1.887-.491-4.084-.878-6.055-.878zm-8.117 1.74c.127.077.24.157.335.26h-8.054l.107-.167c.948-1.135 5.953-1.089 7.612-.093zm-7.832 1.26h8.402c-.019.225-.059.487-.137.814l-.049.186h-8.097c-.047-.31-.086-.633-.119-.973v-.027zm.64 3c-.134-.303-.242-.637-.331-1h7.615c-.117.351-.251.688-.412 1h-6.872zm3.635 2c-1.42 0-2.352-.354-2.979-1h5.5c-.587.607-1.378 1-2.521 1zm7.901-6.26c1.664-1 6.666-1.038 7.611.092l.105.167h-8.053c.095-.102.208-.182.337-.259zm7.713 2.26h-8.098l-.049-.186c-.078-.327-.119-.589-.137-.814h8.402l-.002.027c-.032.34-.071.663-.116.973zm-7.395 2c-.16-.312-.293-.649-.41-1h7.613c-.088.363-.195.697-.33 1h-6.873zm.717 1h5.498c-.627.646-1.559 1-2.979 1-1.14 0-1.931-.393-2.519-1z"/></svg>