<svg xmlns="http://www.w3.org/2000/svg" width="24" height="24" viewBox="0 0 24 24"><path d="M21.06 16.91c0 .232-.012.432-.025.628-.503-1.725-1.315-2.131-3.413-2.688 3.438 0 3.438.847 3.438 2.06zm2.94-3.195v1.462c-.328.276-.999.447-1.001 1.418-.006 3.827-1.588 4.387-4.604 4.405-4.05 0-4.597-.927-5.273-4.148-.15-.715-.513-1.148-1.122-1.148s-.972.434-1.122 1.148c-.677 3.221-1.224 4.148-5.274 4.148-3.016-.018-4.598-.578-4.604-4.405-.001-.971-.672-1.142-1-1.418v-1.462s4.292-8.215 4.837-9.246c.53-1.005 1.208-1.469 1.934-1.469 1.06 0 2.093.933 2.229 2.332.01.125-.097.126-.206.126-.332 0-.717-.205-.801-.526-.182-.697-.586-.98-1.023-1.045-.558-.083-.948.312-1.352 1.16-.623 1.312-2.88 6.522-3.66 8.327 1.412-.217 2.909-.374 4.341-.374 3.236 0 3.525.934 5.701.923 2.176.011 2.465-.923 5.701-.923 1.432 0 2.929.157 4.341.374-.78-1.805-3.037-7.016-3.66-8.327-.403-.848-.794-1.242-1.352-1.16-.438.065-.841.348-1.023 1.045-.084.321-.469.526-.801.526-.109 0-.216-.002-.205-.127.136-1.398 1.169-2.331 2.228-2.331.726 0 1.403.464 1.934 1.469.545 1.031 4.837 9.246 4.837 9.246zm-14.19 1.313c-.405-.587-1.586-1.028-3.511-1.028-4.299 0-4.299 1.058-4.299 2.574 0 2.856.77 3.409 3.609 3.426 3.608.026 3.736-.754 4.297-3.416.152-.72.119-1.243-.096-1.556zm12.19 1.546c0-1.516 0-2.574-4.299-2.574-1.925 0-3.106.441-3.511 1.028-.216.312-.248.836-.097 1.556.561 2.661.688 3.442 4.297 3.416 2.84-.017 3.61-.57 3.61-3.426zm-19.06.336c0 .232.012.432.025.628.503-1.725 1.315-2.131 3.413-2.688-3.438 0-3.438.847-3.438 2.06z"/></svg>