<svg xmlns="http://www.w3.org/2000/svg" width="24" height="24" viewBox="0 0 24 24"><path d="M19.307 4.675c-.731-1.384-1.652-1.675-2.295-1.675-1.353 0-2.484 1.155-2.633 2.688-.031.364.204.669.693.669.496 0 1.102-.308 1.25-.878.212-.809.838-.999 1.387.153.504 1.062 2.125 4.672 3.104 6.933-1.23-.16-2.332-.238-3.349-.238-3.14 0-3.47.874-5.464.884-1.994-.01-2.324-.884-5.464-.884-1.017 0-2.118.078-3.349.238.979-2.261 2.6-5.871 3.104-6.933.549-1.152 1.175-.961 1.387-.153.148.57.754.878 1.25.878.489 0 .725-.305.693-.669-.148-1.533-1.28-2.688-2.633-2.688-.643 0-1.564.291-2.295 1.675-.521.99-4.693 8.715-4.693 8.715v1.758c.52.41.959.551.959 1.128.007 3.946 1.73 4.705 4.912 4.724 4.226 0 4.875-1.2 5.542-4.375.148-.705.456-.705.587-.705s.438 0 .587.705c.667 3.175 1.316 4.375 5.542 4.375 3.182-.019 4.905-.777 4.912-4.724 0-.578.439-.719.959-1.128v-1.758s-4.172-7.725-4.693-8.715zm-9.801 11.487c-.513 2.451-.588 2.881-3.465 2.881-2.67-.008-3.125-.328-3.125-2.787 0-1.312 0-1.97 3.62-1.97 3.13 0 3.148 1.025 2.97 1.876zm8.453 2.88c-2.877 0-2.952-.43-3.465-2.881-.178-.851-.16-1.876 2.97-1.876 3.62 0 3.62.658 3.62 1.97 0 2.46-.455 2.78-3.125 2.787zm2.125-2.615c0 .242-.015.438-.039.613-.295-1.217-1.949-1.621-3.274-1.719.226-.021.479-.035.782-.035 2.531.001 2.531.382 2.531 1.141zm-13.637-1.14c.304 0 .557.014.782.035-1.325.098-2.979.502-3.274 1.719-.024-.176-.039-.371-.039-.613 0-.76 0-1.141 2.531-1.141z"/></svg>