<svg xmlns="http://www.w3.org/2000/svg" width="24" height="24" viewBox="0 0 24 24"><path d="M20.006 11.87c-.43-1.406-1.596-2.484-3.062-2.761 1.773-.661 3.538.942 3.062 2.761zm2.638 3.359c-.424.524-.931.971-1.493 1.334l1.143 1.143c.194.196.45.294.706.294s.512-.098.707-.293c.391-.391.391-1.023 0-1.414l-1.063-1.064zm-4.894 1.354c-2.284 0-4.475-1.432-5.164-4.266-.203-.839-.307-1.027-.586-1.038-.279.011-.384.198-.586 1.038-.688 2.833-2.879 4.266-5.164 4.266-2.381 0-4.462-1.603-5.094-3.865-.66-.14-1.156-.726-1.156-1.426s.495-1.285 1.153-1.425c.632-2.262 2.718-3.867 5.097-3.867 2.248 0 4.206 1.399 4.958 3.471.257-.096.525-.145.792-.148.267.003.535.053.792.148.753-2.072 2.71-3.471 4.958-3.471 2.379 0 4.465 1.605 5.098 3.866.658.14 1.152.726 1.152 1.426s-.496 1.287-1.156 1.426c-.631 2.261-2.713 3.865-5.094 3.865zm-8.167-5.291c0-1.839-1.496-3.335-3.334-3.335-1.839 0-3.334 1.496-3.334 3.335s1.496 3.334 3.334 3.334c1.839 0 3.334-1.496 3.334-3.334zm11.502 0c0-1.839-1.495-3.335-3.335-3.335-1.838 0-3.334 1.496-3.334 3.335s1.496 3.334 3.334 3.334c1.84 0 3.335-1.496 3.335-3.334zm-19.729 3.937l-1.063 1.063c-.391.391-.391 1.023 0 1.414.195.196.451.294.707.294s.512-.098.707-.293l1.143-1.143c-.563-.364-1.07-.811-1.494-1.335zm2.638-3.359c.43-1.406 1.597-2.484 3.062-2.761-1.773-.661-3.539.942-3.062 2.761z"/></svg>