<svg xmlns="http://www.w3.org/2000/svg" width="24" height="24" viewBox="0 0 24 24"><path d="M12 0c-6.627 0-12 5.373-12 12s5.373 12 12 12 12-5.373 12-12-5.373-12-12-12zm6.016 11c-.048-1.03-.168-2.035-.356-3h3.5c.41.935.685 1.942.79 3h-3.934zm3.933 2c-.105 1.058-.38 2.065-.79 3h-3.5c.188-.965.309-1.97.356-3h3.934zm-1.968-7h-2.83c-.375-1.197-.875-2.292-1.461-3.286 1.716.684 3.195 1.831 4.291 3.286zm-4.948 0h-2.033v-3.674c.841 1.01 1.526 2.256 2.033 3.674zm-2.033 12h2.033c-.507 1.418-1.192 2.664-2.033 3.674v-3.674zm-2-15.674v3.674h-2.033c.507-1.418 1.192-2.664 2.033-3.674zm0 5.674v3h-2.994c.052-1.04.181-2.044.389-3h2.605zm0 5v3h-2.605c-.208-.956-.336-1.96-.389-3h2.994zm0 5v3.674c-.841-1.01-1.526-2.256-2.033-3.674h2.033zm2-2v-3h2.994c-.052 1.04-.181 2.044-.389 3h-2.605zm0-5v-3h2.605c.208.956.336 1.96.389 3h-2.994zm-4.69-8.286c-.586.994-1.086 2.089-1.461 3.286h-2.83c1.096-1.455 2.575-2.602 4.291-3.286zm-2.326 8.286h-3.933c.105-1.058.38-2.065.79-3h3.5c-.189.965-.309 1.97-.357 3zm.357 5h-3.5c-.41-.935-.685-1.942-.79-3h3.934c.047 1.03.167 2.035.356 3zm-2.322 2h2.83c.375 1.197.875 2.292 1.461 3.286-1.716-.684-3.195-1.831-4.291-3.286zm11.671 3.286c.586-.994 1.086-2.089 1.461-3.286h2.83c-1.096 1.455-2.575 2.602-4.291 3.286z"/></svg>