<svg width="24" height="24" xmlns="http://www.w3.org/2000/svg" fill-rule="evenodd" clip-rule="evenodd"><path d="M14 24h-4c.003-2.956-1.015-4.747-2-5.772 2.335 1.194 5.71 1.192 8 0-.973 1.042-1.99 2.816-2 5.772zm-2-24c4.967 0 9 4.033 9 9s-4.033 9-9 9-9-4.033-9-9 4.033-9 9-9zm0 2c3.863 0 7 3.137 7 7s-3.137 7-7 7-7-3.137-7-7 3.137-7 7-7zm0 11.663c.552 0 1 .448 1 1s-.448 1-1 1-1-.448-1-1 .448-1 1-1zm2.33-.663c.552 0 1 .448 1 1s-.448 1-1 1-1-.448-1-1 .448-1 1-1zm-4.606 0c.552 0 1 .448 1 1s-.448 1-1 1-1-.448-1-1 .448-1 1-1zm-1.944-1.407c.552 0 1 .448 1 1s-.448 1-1 1-1-.448-1-1 .448-1 1-1zm8.504 0c.552 0 1 .448 1 1s-.448 1-1 1-1-.448-1-1 .448-1 1-1zm-4.284-.311c.552 0 1 .448 1 1s-.448 1-1 1-1-.448-1-1 .448-1 1-1zm2.201-.891c.552 0 1 .448 1 1s-.448 1-1 1-1-.448-1-1 .448-1 1-1zm-4.364 0c.552 0 1 .448 1 1s-.448 1-1 1c-.551 0-1-.448-1-1s.449-1 1-1zm7.542-.881c.552 0 1 .448 1 1s-.448 1-1 1c-.551 0-1-.448-1-1s.449-1 1-1zm-10.728 0c.552 0 1 .448 1 1s-.448 1-1 1-1-.448-1-1 .448-1 1-1z"/></svg>