<svg width="24" height="24" xmlns="http://www.w3.org/2000/svg" fill-rule="evenodd" clip-rule="evenodd"><path d="M19 0c2.762 0 5 2.239 5 5v14c0 2.761-2.238 5-5 5h-14c-2.761 0-5-2.239-5-5v-14c0-2.761 2.239-5 5-5h14zm-13.698 19.776l7.022-7.001 2.474 2.468-8.346 4.627c-.317.176-.706.173-1.021-.007l-.129-.087zm6.313-7.707l-6.693 6.674v-13.348l6.693 6.674zm4.183-2.758l3.27 1.813c.322.179.521.513.521.876s-.199.697-.521.876l-3.36 1.862-2.676-2.669 2.766-2.758zm-10.57-5.022l.203-.152c.315-.18.704-.183 1.021-.007l8.436 4.677-2.564 2.556-7.096-7.074z"/></svg>