<svg width="24" height="24" xmlns="http://www.w3.org/2000/svg" fill-rule="evenodd" clip-rule="evenodd"><path d="M12 0c-6.627 0-12 5.373-12 12s5.373 12 12 12 12-5.373 12-12-5.373-12-12-12zm0 2c5.514 0 10 4.486 10 10s-4.486 10-10 10-10-4.486-10-10 4.486-10 10-10zm-3.715 15.832l5.266-5.25 1.856 1.85-6.259 3.47c-.238.132-.53.13-.766-.005l-.097-.065zm4.735-5.78l-5.02 5.005v-10.01l5.02 5.005zm3.137-2.068l2.452 1.359c.242.134.391.385.391.657s-.149.523-.391.657l-2.519 1.397-2.008-2.002 2.075-2.068zm-7.927-3.767l.152-.114c.236-.135.528-.137.766-.005l6.326 3.507-1.923 1.917-5.321-5.305z"/></svg>