<svg xmlns="http://www.w3.org/2000/svg" width="24" height="24" viewBox="0 0 24 24"><path d="M19.523 5.175c-1.397 0-2.335-.494-3.888-1.311-.852-.446-1.536-.864-2.518-.864-1.275 0-1.747.658-2.552 1.564-2.052-1.593-3.513-.907-4.808-.293-.757.358-1.539.729-2.587.729h-3.17v7.91c1.073.102 2.001.169 3.287.464-.789 1.431.057 3.157 1.634 3.422.324.675.971 1.159 1.718 1.286.312.653.942 1.151 1.709 1.279.544 1.147 1.962 1.664 3.188 1.07.434.358.985.569 1.567.569.892 0 1.737-.483 2.145-1.337.748-.157 1.358-.648 1.664-1.296.708-.147 1.324-.604 1.648-1.286 1.386-.282 2.292-1.727 1.688-3.178 1.096-.54 2.221-.76 3.752-1.1v-7.866c-.961.059-3.507.218-4.477.238zm-14.719 9.985c-.377-.284-.424-.828-.103-1.21l.782-.959c.321-.384.887-.465 1.265-.179.38.285.424.826.104 1.211l-.782.956c-.321.385-.887.464-1.266.181zm1.714 1.282c-.378-.286-.433-.816-.111-1.2l.79-.969c.321-.383.887-.464 1.265-.181.378.285.425.828.103 1.21l-.79.969c-.321.385-.877.457-1.257.171zm1.714 1.284c-.378-.285-.426-.828-.103-1.213l.78-.956c.321-.384.887-.467 1.266-.182.377.286.424.827.103 1.211l-.781.958c-.321.385-.889.465-1.265.182zm3.76.14l-.783.963c-.323.386-.888.465-1.266.181-.378-.285-.424-.826-.104-1.21l.785-.964c.322-.382.888-.464 1.265-.178.38.282.426.825.103 1.208zm1.642 1.422c-.154.119-.341.177-.531.177-.137 0-.273-.035-.401-.095l.454-.559c.199-.235.347-.513.44-.81l.124.11c.32.367.279.891-.086 1.177zm4.968-3.87c-.368.284-.924.215-1.24-.146l-2.496-2.141c-.207-.177-.471.136-.266.31l2.433 2.089c.319.366.278.893-.088 1.175-.369.287-.926.219-1.242-.146l-1.915-1.678c-.204-.179-.474.13-.271.309l1.868 1.642c.319.365.272.88-.097 1.166-.364.282-.911.231-1.231-.137l-.365-.325c.133-1.26-.747-2.32-1.924-2.516-.326-.684-.975-1.157-1.712-1.28-.322-.678-.967-1.157-1.712-1.282-.647-1.359-2.428-1.748-3.648-.777-.801-.24-1.688-.437-2.696-.573v-4.108h1.17c1.498 0 2.577-.511 3.443-.922 1.087-.515 1.609-.754 2.581-.046-.64.636-1.294 1.196-1.967 1.589-.589.343-.852.998-.672 1.668.236.874 1.262 1.758 2.767 1.758 1.981 0 2.935-1.196 3.935-1.766 1.493 1.436 3.93 3.644 5.47 5.026.266.362.222.842-.125 1.111zm3.398-4.217c-.912.215-1.801.469-2.707.926-1.085-.979-3.529-3.193-4.399-4.063-.992-.991-1.994-1.086-3.093-.197-.79.636-2.018 1.447-2.971 1.099 1.365-.957 2.592-2.35 3.692-3.596.313-.354.527-.592 1.502-.09l.678.355c1.725.908 3.07 1.627 5.132 1.535.62-.025 1.487-.071 2.166-.11v4.141z"/></svg>