<svg xmlns="http://www.w3.org/2000/svg" width="24" height="24" viewBox="0 0 24 24"><path d="M4.516 22c-2.951-.61-4.516-3.09-4.516-5.5 0-2.615 1.731-5.198 5.283-5.5-1.415 1.591-2.283 3.708-2.283 6 0 1.782.618 3.6 1.516 5zm19.484-5.5c0 2.409-1.55 4.889-4.5 5.5.897-1.4 1.5-3.218 1.5-5 0-2.292-.868-4.409-2.283-6 3.552.303 5.283 2.886 5.283 5.5zm-5.074-7.487c.942.084 1.782.294 2.529.601-1.27-4.388-4.666-7.614-9.455-7.614-4.786 0-8.173 3.225-9.442 7.607.744-.303 1.582-.512 2.52-.595 1.347-2.538 3.842-4.04 6.922-4.034 3.081-.006 5.578 1.496 6.926 4.035zm-4.03 10.624c-1.6 1.6-4.193 1.6-5.793 0-1.6-1.6-1.6-4.194 0-5.793 1.6-1.6 4.194-1.6 5.793 0 1.6 1.599 1.6 4.193 0 5.793zm-3.123-3.952l-1.374-1.374-.828.828 1.375 1.374.827-.828zm7.227 1.481v-.851h-1.012c-.035-.511-.136-1.004-.292-1.472l.937-.387c-.094-.27-.202-.533-.326-.786l-.938.388c-.227-.452-.508-.871-.836-1.249l.718-.717c-.188-.212-.39-.414-.603-.602l-.717.717c-.367-.32-.775-.595-1.213-.818l.395-.934c-.254-.125-.516-.236-.785-.331l-.393.934c-.479-.164-.986-.268-1.51-.305v-1.013h-.851v1.011c-.511.037-1.004.136-1.472.292l-.388-.937c-.27.093-.533.202-.786.326l.388.938c-.451.226-.871.508-1.249.836l-.717-.717c-.212.188-.414.389-.602.602l.717.717c-.319.368-.595.775-.818 1.213l-.934-.394c-.126.253-.236.515-.331.785l.933.393c-.163.479-.268.985-.304 1.51h-1.011v.851h1.012c.036.51.136 1.003.292 1.471l-.937.388c.093.27.202.532.326.787l.937-.388c.227.452.508.87.837 1.248l-.729.728.603.6 1.331-1.33c-1.115-.946-1.824-2.357-1.824-3.93 0-2.841 2.312-5.152 5.152-5.152s5.152 2.312 5.152 5.152c0 1.573-.709 2.984-1.824 3.93l1.32 1.321c.213-.188.414-.39.603-.602l-.718-.718c.319-.368.595-.774.818-1.212l.935.394c.126-.253.236-.515.331-.784l-.934-.394c.164-.479.268-.985.305-1.509h1.012z"/></svg>