<svg xmlns="http://www.w3.org/2000/svg" width="24" height="24" viewBox="0 0 24 24"><path d="M4.516 21c-2.951-.61-4.516-3.09-4.516-5.5 0-2.615 1.731-5.198 5.283-5.5-1.415 1.591-2.283 3.708-2.283 6 0 1.782.618 3.6 1.516 5zm19.484-5.5c0 2.409-1.55 4.889-4.5 5.5.897-1.4 1.5-3.218 1.5-5 0-2.292-.868-4.409-2.283-6 3.552.303 5.283 2.886 5.283 5.5zm-5.074-7.487c.942.084 1.782.294 2.529.601-1.27-4.388-4.666-7.614-9.455-7.614-4.786 0-8.173 3.225-9.442 7.607.744-.303 1.582-.512 2.52-.595 1.347-2.538 3.842-4.04 6.922-4.034 3.081-.006 5.578 1.496 6.926 4.035zm-6.259 5.754c-.021-.039.199-.06.239-.06.043.005-.114.263-.239.06zm-1.255-1.793l.063-.018-.03.079c.05.091.012.145.004.194l-.087.054c-.031.039.15.043.152.049.006.02-.219.052-.177.1.056.079.48-.114.413-.103.131-.066.017-.073-.056-.111-.025-.125-.046-.319-.124-.396l.051-.06c-.12-.174-.209.212-.209.212zm7.588 4.026c0 3.866-3.134 7-7 7s-7-3.134-7-7 3.134-7 7-7 7 3.134 7 7zm-4.847-3.133c-.003-.085-.111-.166-.223-.018-.079.102-.065.256-.107.325-.061.102.331.198.331.102.015-.162.427-.037.508-.015.145.041.375-.131.123-.222-.208-.075-.317-.156-.335-.304l.062-.097c-.129.014-.359.457-.359.229zm3.672 3.133c0-.604-.103-1.213-.208-1.535-.034-.102-.11-.183-.209-.221-.149-.058-.78.348-.875.148l-.334.004c-.07-.039-.265-.3-.353-.268-.18.064.276.562.401.627.118-.089.497-.271.579-.022.156.469-.43.982-.73 1.254-.448.405-.364-.262-.669-.497-.161-.123-.159-.385-.32-.476-.073-.041-.405-.423-.401-.475l-.01.097c-.055.042-.171-.156-.184-.187 0 .172.28.446.372.583.158.237.243.581.437.774.104.104.501.533.604.524l.531-.252c.375.089-.884 1.87-1.003 2.09-.099.185.08.642.066.861-.017.252-.216.334-.404.472-.202.147-.155.435-.324.54-.301.186-.519.789-.947.786-.126-.001-.665.21-.735.004-.055-.149-.128-.263-.206-.41l-.103-.421c-.064-.089-.277-.29-.296-.395-.001-.091.068-.365.164-.413.134-.068.026-.267.009-.383-.028-.207-.156-.376-.31-.496-.227-.174-.11-.313-.056-.563 0-.119-.072-.275-.232-.229-.329.096-.229-.257-.469-.241-.173.013-.314.122-.475.17-.202.06-.409-.048-.608-.073-.821-.104-1.088-1.042-.875-1.718l-.028-.402c.092-.205.28-.436.444-.591.092-.088.211-.065.319-.133.167-.105.17-.322.334-.456.233-.189.552-.186.856-.226.162-.021.779-.155.876-.035 0 .022.112.353-.011.334.252.014.612.437.852.338.123-.051.078-.43.331-.247.153.11.837.159.98.041.087-.072.137-.542.03-.595.068.067-.356.072-.396.057-.07-.026-.136.066-.248.015.068.032-.376-.207-.127-.389l-.314.063-.075.16c-.176.09-.309-.306-.375-.351-.067-.044-.591-.412-.449-.172l.46.458c-.023.015-.121-.167-.121-.034.031-.079.012.337-.061.202l.003-.156-.159-.132c-.073-.09-.267-.29-.372-.337-.029-.014-.445.05-.48.064l-.104.182-.244.125-.092.206c-.04.035-.446.17-.448.175.017-.044-.284-.1-.265-.188.022-.096.125-.396.098-.506-.028-.115.626.166.669-.137.017-.131.027-.284-.183-.307.04.005.406-.144.466-.21.086-.098.281-.258.422-.258.166 0 .13-.241.206-.359.077.031-.041.22.051.296-.005-.06.26.033.286.02.061-.033.399-.014.347-.173-.058-.162.03-.114.105-.147-.013.005.198-.361.235-.241-.025-.124-.246.043-.323.037-.178-.014-.103-.303-.035-.388.052-.067-.142-.149-.144-.021-.003.192-.182.366-.141.621.063.385-.429-.093-.472-.066-.164.099-.297-.125-.212-.259l.38-.277c.06-.104.131-.225.224-.303.312-.262.398-.052.709-.024.304.028.103.072.061.189-.041.111.167.15.239.058.041-.053.134-.188.173-.288.052-.129.526-.115.195-.312-.218-.13-1.169-.392-1.806-.392-.138 0-.234.153-.339.24-.208.172-.739.51-1.036.407-.303-.104-.951.385-1.055.389-.039.001.001-.37.208-.397-.089.013.728-.413.706-.501-.027-.105-1.633.479-1.561.597.034.053.174.053-.009.171-.105.063-.217.467-.316.467-.294.129-.313-.253-.641.239l-.521.21c-.774.822-1.311 1.865-1.504 3.023-.008.046.194.132.221.164.065.078.065.416.098.526.08.279.279.434.432.688.09.151.239.533.192.692.063-.104.625.476.727.596.241.284.428.628.035.909-.126.091.192.659.028.798l-.21.054c-.208.128-.114.441.012.573 1.061 1.109 2.555 1.801 4.211 1.801 3.22-.007 5.829-2.616 5.829-5.834zm-6.712-3.708c.073-.032.171-.031.181-.128l.047-.058-.064-.086-.087.061-.042.011-.04.051.004.028-.051.062c-.049.048.002.08.052.059z"/></svg>