<svg xmlns="http://www.w3.org/2000/svg" width="24" height="24" viewBox="0 0 24 24"><path d="M9.972 22h3.028v2h-3.028c-.536 0-.972-.435-.972-.971s.436-1.029.972-1.029zm-4.668-14c.739-3.366 3.322-5.435 6.696-5.428 3.373-.007 5.957 2.062 6.696 5.428h1.781c-.715-4.495-3.837-8-8.477-8-4.639 0-7.762 3.505-8.477 8h1.781zm7.472 4.034c-.034 0-.223.018-.205.052.108.174.242-.046.205-.052zm-1.1-1.666l-.043.051c.065.066.084.232.106.34.062.033.16.039.048.095.058-.009-.306.155-.354.088-.036-.041.156-.068.151-.085l-.131-.042.074-.046c.007-.042.04-.088-.004-.167l.026-.067-.055.015c.002-.001.079-.332.182-.182zm.324-2.368c-3.313 0-6 2.687-6 6s2.687 6 6 6c3.312 0 6-2.687 6-6s-2.688-6-6-6zm2.152 3.117l-.052.083c.016.127.109.196.287.26.216.078.02.226-.105.191-.069-.019-.423-.126-.436.013 0 .083-.336 0-.283-.087.037-.059.025-.191.092-.278.096-.126.188-.058.191.015 0 .196.197-.183.306-.197zm-2.154 7.878c-1.419 0-2.7-.593-3.609-1.544-.109-.114-.189-.382-.011-.491l.18-.046c.142-.12-.132-.606-.023-.685.337-.24.177-.536-.029-.779-.088-.104-.569-.6-.623-.511.04-.136-.088-.464-.165-.593-.131-.217-.302-.35-.37-.589-.027-.094-.027-.384-.084-.451-.022-.027-.195-.1-.188-.14.166-.992.625-1.886 1.29-2.59l.446-.181c.28-.422.297-.094.55-.205.084 0 .181-.346.271-.399.157-.102.037-.102.008-.147-.062-.101 1.315-.603 1.339-.512.018.076-.682.441-.605.43-.177.023-.212.341-.179.34.089-.003.645-.422.904-.333.255.088.71-.201.888-.349.09-.074.172-.206.291-.206.546 0 1.36.225 1.547.336.284.169-.122.157-.166.268l-.149.247c-.061.079-.238.046-.204-.05.036-.1.208-.138-.054-.162-.266-.024-.339-.204-.607.02-.08.068-.141.171-.192.26l-.325.238c-.073.115.042.307.182.223.036-.023.458.387.405.057-.035-.219.117-.367.12-.532-.002-.111.164-.041.12.018-.058.072-.123.32.03.332.065.005.255-.138.276-.032-.031-.103-.213.211-.201.207-.064.029-.14-.012-.091.126.045.137-.245.121-.297.148-.021.012-.249-.067-.244-.017l-.044-.254c-.065.102-.035.309-.177.309-.121 0-.288.136-.362.221-.052.057-.364.185-.399.18.181.02.172.151.157.263-.036.26-.597.02-.573.118.022.094-.064.352-.084.434-.017.075.242.123.227.161.002-.004.35-.12.385-.15l.078-.176.209-.106.09-.156c.03-.012.387-.066.412-.054.09.041.256.211.318.289l.136.113-.002.134c.062.116.078-.241.052-.173 0-.114.083.042.104.029l-.395-.393c-.123-.206.327.109.384.147.058.038.171.377.322.3l.064-.136.27-.054c-.213.156.166.36.108.333l.213-.013c.033.013.397.009.339-.049.092.046.05.449-.025.51-.121.102-.709.06-.84-.035-.217-.156-.179.168-.284.212-.205.085-.514-.277-.73-.289.105.016.01-.268.01-.287-.083-.103-.612.012-.751.03-.262.035-.534.032-.734.194l-.286.392-.273.114c-.141.133-.302.332-.381.507l.023.345c-.183.58.047 1.384.75 1.472.171.022.349.115.521.063.137-.042.258-.135.406-.146.206-.014.12.288.402.206.137-.04.199.094.199.196-.046.213-.146.333.048.482.132.102.241.248.265.425.016.099.107.27-.008.328-.081.041-.141.276-.14.354.017.089.199.262.254.338l.086.362.177.352c.061.177.522-.004.63-.003.367.001.554-.515.812-.674.146-.09.104-.336.277-.462.162-.118.332-.188.348-.404.012-.188-.142-.58-.057-.738.102-.189 1.182-1.716.859-1.792l-.455.216c-.088.008-.429-.36-.519-.449-.166-.166-.237-.46-.374-.664-.078-.118-.319-.353-.319-.5.011.026.111.196.158.16l.008-.083c-.003.045.282.372.345.407l.273.407c.263.202.19.773.574.427.258-.233.76-.673.626-1.075-.07-.213-.396-.057-.497.019-.105-.056-.497-.483-.342-.538.074-.028.242.196.302.229l.286-.004c.082.171.621-.177.75-.127.084.032.151.102.18.189.09.275.179.797.179 1.315-.001 2.759-2.236 4.996-4.996 4.996zm-.758-8.174c-.044.018-.087-.009-.046-.052l.044-.053-.003-.024.034-.043.036-.01.074-.052.055.074-.04.049c-.007.085-.092.084-.154.111zm-6.74 3.179c0-1.471.432-2.841 1.167-4h-1.905c-.974 0-1.762.789-1.762 1.761v4.478c0 .973.788 1.761 1.762 1.761h1.905c-.735-1.159-1.167-2.529-1.167-4zm15.739-4h-1.906c.735 1.159 1.167 2.529 1.167 4s-.432 2.841-1.167 4h1.906c.974 0 1.761-.788 1.761-1.76v-4.479c0-.972-.788-1.761-1.761-1.761zm-1.108 9c-.22 2.488-1.899 3.51-5.131 3.51v1.021c3.606 0 5.854-1.292 6.158-4.531h-1.027z"/></svg>