<svg xmlns="http://www.w3.org/2000/svg" width="24" height="24" viewBox="0 0 24 24"><path d="M19.353 19.081c-2.866-.662-5.534-1.242-4.242-3.682.333-.63.616-1.235.856-1.815-.723.414-1.527.733-1.966.843l-.187-.888c.957-.273 1.989-.783 2.709-1.532 1.53-5.237-1.055-8.007-4.523-8.007-4.234 0-7.055 4.124-3.11 11.399 1.331 2.454-1.437 3.034-4.241 3.682-2.482.572-2.649 1.785-2.649 3.884v1.035h20v-1.035c0-2.099-.167-3.312-2.647-3.884zm-7.347-3.981c-.367.076-.727-.161-.802-.529-.077-.368.161-.729.527-.804l1.462-.325.273 1.334-1.46.324zm-4.498-9.85h-1.212c.528-2.963 2.624-5.25 5.704-5.25s5.176 2.287 5.704 5.25h-1.212c-.544-2.184-2.264-3.518-4.492-3.513-2.228-.005-3.948 1.329-4.492 3.513zm9.737.75c1.913 0 2.755 1.493 2.755 2.99 0 1.503-.85 3.01-2.458 3.01.628-2.344.535-4.397-.297-6zm-13.245 2.984c0-1.495.83-2.984 2.743-2.984-.847 1.616-.945 3.669-.313 6-1.587 0-2.43-1.511-2.43-3.016z"/></svg>