<svg xmlns="http://www.w3.org/2000/svg" width="24" height="24" viewBox="0 0 24 24"><path d="M3.402 9c.384-4.965 3.619-9 8.598-9s8.214 4.035 8.598 9h-1.734c-.411-3.955-3.167-6.436-6.864-6.428-3.697-.008-6.453 2.473-6.863 6.428h-1.735zm-1.402 3.761v4.478c0 .973.788 1.761 1.762 1.761h2.238v-8h-2.238c-.974 0-1.762.789-1.762 1.761zm18.239-1.761h-2.239v8h2.239c.974 0 1.761-.788 1.761-1.76v-4.479c0-.972-.788-1.761-1.761-1.761zm-11.239 12.029c0 .536.436.971.972.971h3.028v-2h-3.028c-.536 0-.972.493-.972 1.029zm9.952-3.029c-.554 1.77-2.189 2.51-4.952 2.51v1.021c3.213 0 5.355-1.018 6-3.531h-1.048z"/></svg>