<svg xmlns="http://www.w3.org/2000/svg" width="24" height="24" viewBox="0 0 24 24"><path d="M4.516 21c-2.951-.61-4.516-3.09-4.516-5.5 0-2.615 1.731-5.198 5.283-5.5-1.415 1.591-2.283 3.708-2.283 6 0 1.782.618 3.6 1.516 5zm19.484-5.5c0 2.409-1.55 4.889-4.5 5.5.897-1.4 1.5-3.218 1.5-5 0-2.292-.868-4.409-2.283-6 3.552.303 5.283 2.886 5.283 5.5zm-5.074-7.487c.942.084 1.782.294 2.529.601-1.27-4.388-4.666-7.614-9.455-7.614-4.786 0-8.173 3.225-9.442 7.607.744-.303 1.582-.512 2.52-.595 1.347-2.538 3.842-4.04 6.922-4.034 3.081-.006 5.578 1.496 6.926 4.035zm-6.926.987c-3.865 0-7 3.134-7 7s3.135 7 7 7 7-3.134 7-7-3.135-7-7-7zm-2 11v-8l6 4-6 4z"/></svg>