<svg xmlns="http://www.w3.org/2000/svg" width="24" height="24" viewBox="0 0 24 24"><path d="M17.902 12c1.142 0 2.066.925 2.066 2.066v3.867c0 1.141-.925 2.066-2.066 2.066h-1.902v-8h1.902zm-11.836 0c-1.141 0-2.066.925-2.066 2.066v3.867c0 1.142.925 2.067 2.066 2.067h1.934v-8h-1.934zm5.934-12c-7.081 0-12 5.717-12 12.951v3.049h2v-3.085c0-6.306 5.022-9.905 10-9.915 4.978.01 10 3.609 10 9.916v3.084h2v-3.049c0-7.234-4.919-12.951-12-12.951zm-1.002 23.029c0 .536.436.971.972.971h3.028v-2h-3.028c-.536 0-.972.493-.972 1.029zm11-5.029c.002 3.312-2.361 4.51-5.998 4.51v1.021c3.959 0 7-1.594 6.998-5.531h-1z"/></svg>