<svg xmlns="http://www.w3.org/2000/svg" width="24" height="24" viewBox="0 0 24 24"><path d="M12 1c-6.338 0-12 4.226-12 10.007 0 2.05.738 4.063 2.047 5.625.055 1.83-1.023 4.456-1.993 6.368 2.602-.47 6.301-1.508 7.978-2.536 9.236 2.247 15.968-3.405 15.968-9.457 0-5.812-5.701-10.007-12-10.007zm0 15c-.565 0-1.024-.459-1.024-1.025 0-.565.459-1.024 1.024-1.024.566 0 1.024.459 1.024 1.024 0 .566-.458 1.025-1.024 1.025zm1.606-4.858c-.74.799-.775 1.241-.766 1.785h-1.643c-.006-1.208.016-1.742 1.173-2.842.469-.446.84-.799.788-1.493-.047-.66-.599-1.004-1.117-1.004-.581 0-1.261.432-1.261 1.649h-1.646c0-1.966 1.155-3.237 2.941-3.237.849 0 1.592.278 2.09.783.468.473.709 1.125.7 1.883-.013 1.134-.704 1.878-1.259 2.476z"/></svg>