<svg xmlns="http://www.w3.org/2000/svg" width="24" height="24" viewBox="0 0 24 24"><path d="M16.321 15.417h-8.464c-2.405 0-3.354-3.647-.644-4.69-.267-1.454 1.446-2.547 2.663-1.276.278-.597 1.1-2.201 3.107-2.201 1.587 0 3.313 1.176 3.271 3.713 3.203.375 2.572 4.454.067 4.454zm7.679-3.417c0 6.627-5.373 12-12 12s-12-5.373-12-12 5.373-12 12-12 12 5.373 12 12zm-7.181-1.521c-.082-2.12-1.769-3.812-3.836-3.812-1.41 0-2.642.787-3.31 1.96-1.306-.842-3.03.113-3.041 1.735-2.753 1.353-1.809 5.638 1.225 5.638h8.464c3.256 0 3.687-4.903.498-5.521z"/></svg>