<svg xmlns="http://www.w3.org/2000/svg" width="24" height="24" viewBox="0 0 24 24"><path d="M12 2c5.514 0 10 4.486 10 10s-4.486 10-10 10-10-4.486-10-10 4.486-10 10-10zm0-2c-6.627 0-12 5.373-12 12s5.373 12 12 12 12-5.373 12-12-5.373-12-12-12zm.843 8.5c1.36 0 2.841 1.008 2.804 3.183 2.745.321 2.205 3.817.058 3.817h-7.256c-2.062 0-2.875-3.126-.552-4.02-.229-1.246 1.239-2.184 2.281-1.094.24-.511.944-1.886 2.665-1.886m0-.5c-1.209 0-2.265.675-2.837 1.68-1.119-.722-2.597.097-2.606 1.488-2.361 1.159-1.551 4.832 1.049 4.832h7.255c2.791 0 3.16-4.203.427-4.733-.07-1.816-1.516-3.267-3.288-3.267z"/></svg>