<svg xmlns="http://www.w3.org/2000/svg" width="24" height="24" viewBox="0 0 24 24"><path d="M8.875 7.511c-.348-.408-.469-.888-.33-1.314.246-.765 1.152-.832 1.826-.396.262.168.588.489.66 1.062.103.811.223 2.328.271 2.96-.178.031-.35.082-.51.149-.411-.552-1.345-1.789-1.917-2.461zm15.125-2.511v14c0 2.761-2.238 5-5 5h-14c-2.762 0-5-2.239-5-5v-14c0-2.761 2.238-5 5-5h14c2.762 0 5 2.239 5 5zm-5.344 6.628c2.158-1.728.432-4.424-1.953-4.088 1.18-3.074-3.648-4.989-5.162-2.156-2.066-2.388-5.496.109-3.66 2.637-3.57-.953-5.373 3.607-2.348 4.626-1.514 1.394-.34 3.721 1.812 3.47-1.854 3.396 3.963 5.589 5.096 2.154 1.498 1.525 3.949.261 3.668-1.832 3.276 1.511 5.418-3.354 2.547-4.811zm-8.905-.8c-.196-.23-.582-.649-1.263-1.277-.721-.639-1.5-.599-1.9-.518-1.963.396-2.002 2.834.078 2.68 1.018-.09 2.344-.3 2.834-.381.062-.179.146-.348.251-.504zm4.253.692c.555-.062 2.137-.239 3.023-.344.523-.062.962-.316 1.234-.714.474-.69.295-1.494-.713-1.796-.289-.087-.855-.17-1.348.23-.826.654-2.261 2.026-2.381 2.141.079.152.142.314.185.483zm-.914-1.309c.582-.625 1.694-1.834 2.256-2.52.365-.433.498-.951.366-1.422-.286-1.023-1.813-1.571-2.765-.871-.43.317-.639.807-.588 1.381.074.856.195 2.499.244 3.172.174.069.336.156.487.26zm-2.485 3.855c-.574.59-1.531 1.593-2.053 2.229-.373.443-.51.972-.375 1.452.289 1.035 1.82 1.53 2.709.88.414-.303.617-.787.572-1.364-.084-.899-.236-2.284-.314-2.993-.191-.046-.371-.115-.539-.204zm6.599-1.646c-.922.075-2.435.213-3.228.286-.055.177-.129.345-.223.501.645.552 1.752 1.49 2.42 2.004.456.362 1.002.494 1.496.364 1.075-.283 1.576-1.785.918-2.627-.304-.388-.795-.575-1.383-.528zm-4.284 1.603c-.127.073-.264.136-.405.185.062.561.172 1.528.261 2.235.072.567.32 1.026.681 1.259.544.351 1.272.135 1.503-.585.137-.429.025-.895-.299-1.271-.475-.563-1.272-1.362-1.741-1.823zm.174-1.96c0-.732-.615-1.329-1.37-1.329s-1.37.597-1.37 1.329c0 .733.615 1.329 1.37 1.329s1.37-.596 1.37-1.329z"/></svg>