<svg xmlns="http://www.w3.org/2000/svg" width="24" height="24" viewBox="0 0 24 24"><path d="M8.875 7.511c-.347-.408-.468-.887-.331-1.314.247-.765 1.153-.832 1.827-.396.261.168.587.489.659 1.062.103.811.224 2.328.272 2.96-.178.031-.349.082-.51.149-.412-.552-1.344-1.789-1.917-2.461zm1.73 6.555c-.573.59-1.531 1.593-2.052 2.229-.373.443-.51.972-.375 1.452.289 1.035 1.82 1.53 2.708.88.414-.303.618-.787.572-1.364-.084-.899-.235-2.284-.314-2.993-.19-.046-.371-.115-.539-.204zm-.854-3.238c-.197-.23-.582-.649-1.262-1.277-.721-.639-1.5-.599-1.901-.518-1.963.396-2.002 2.834.078 2.68 1.018-.09 2.344-.3 2.834-.381.062-.179.147-.348.251-.504zm3.339-.617c.581-.625 1.694-1.834 2.255-2.52.365-.433.499-.951.366-1.422-.286-1.023-1.813-1.571-2.764-.871-.43.317-.639.807-.589 1.381.074.856.196 2.499.245 3.172.175.069.337.156.487.26zm.914 1.309c.555-.062 2.137-.239 3.022-.344.523-.062.962-.316 1.235-.714.473-.69.295-1.494-.713-1.796-.29-.087-.855-.17-1.348.23-.826.654-2.261 2.026-2.381 2.141.08.152.142.314.185.483zm9.996-11.52v24h-24v-24h24zm-5.344 11.628c2.158-1.728.431-4.424-1.953-4.088 1.179-3.074-3.648-4.989-5.162-2.156-2.066-2.388-5.496.109-3.661 2.637-3.569-.953-5.372 3.607-2.347 4.626-1.514 1.394-.34 3.721 1.812 3.47-1.854 3.396 3.962 5.589 5.095 2.154 1.499 1.525 3.949.261 3.667-1.832 3.277 1.511 5.42-3.354 2.549-4.811zm-5.562.435c0-.732-.615-1.329-1.37-1.329s-1.371.597-1.371 1.329c0 .733.615 1.329 1.371 1.329s1.37-.596 1.37-1.329zm4.11.357c-.922.075-2.435.213-3.228.286-.054.177-.129.345-.223.501.646.552 1.752 1.49 2.42 2.004.457.362 1.002.494 1.497.364 1.075-.283 1.576-1.785.917-2.627-.304-.388-.795-.575-1.383-.528zm-4.284 1.603c-.127.073-.263.136-.405.185.062.561.172 1.528.26 2.235.072.567.321 1.026.681 1.259.544.351 1.272.135 1.502-.585.137-.429.026-.895-.298-1.271-.474-.563-1.271-1.362-1.74-1.823z"/></svg>