<svg xmlns="http://www.w3.org/2000/svg" width="24" height="24" viewBox="0 0 24 24"><path d="M12 2c5.514 0 10 4.486 10 10s-4.486 10-10 10-10-4.486-10-10 4.486-10 10-10zm0-2c-6.627 0-12 5.373-12 12s5.373 12 12 12 12-5.373 12-12-5.373-12-12-12zm4.992 11.721c1.618-1.295.323-3.317-1.465-3.066.885-2.305-2.736-3.741-3.871-1.617-1.551-1.79-4.123.082-2.746 1.979-2.678-.715-4.029 2.705-1.76 3.469-1.135 1.045-.256 2.791 1.359 2.603-1.391 2.546 2.972 4.191 3.821 1.615 1.124 1.144 2.962.196 2.751-1.374 2.457 1.132 4.064-2.516 1.911-3.609zm-6.226.326c0-.55.461-.997 1.026-.997.567 0 1.028.447 1.028.997s-.461.997-1.028.997c-.565 0-1.026-.447-1.026-.997zm5.396-2.547c.756.227.89.83.533 1.347-.204.298-.533.489-.926.536-.664.078-1.852.211-2.268.258-.031-.127-.078-.248-.137-.362.09-.087 1.166-1.116 1.785-1.606.371-.301.796-.239 1.013-.173zm-3.451-2.451c.713-.524 1.857-.114 2.073.653.099.354-.001.742-.274 1.066-.421.514-1.256 1.421-1.693 1.89-.111-.078-.233-.144-.363-.195-.037-.504-.128-1.737-.184-2.379-.039-.43.119-.797.441-1.035zm-3.303.599c.186-.574.865-.624 1.37-.297.196.126.44.367.495.796.077.608.167 1.746.203 2.22-.133.023-.262.062-.382.112-.31-.414-1.009-1.342-1.438-1.846-.26-.305-.351-.665-.248-.985zm-1.467 2.127c.3-.061.885-.091 1.425.388.51.471.8.785.947.958-.079.117-.142.244-.188.377-.367.061-1.362.219-2.125.287-1.561.115-1.531-1.713-.059-2.01zm3.224 7.195c-.667.487-1.815.116-2.032-.66-.101-.36.002-.757.281-1.089.39-.477 1.109-1.229 1.54-1.671.126.066.261.118.404.153.059.532.173 1.57.235 2.244.035.433-.117.796-.428 1.023zm3.054-1.133c-.172.54-.719.702-1.127.439-.27-.174-.456-.519-.51-.944-.067-.53-.149-1.255-.196-1.676l.304-.139c.352.346.949.945 1.305 1.367.241.282.327.632.224.953zm2.033-1.155c-.371.097-.78-.001-1.121-.273-.5-.386-1.332-1.089-1.816-1.503.07-.117.127-.243.168-.376.594-.054 1.729-.158 2.421-.214.44-.035.81.105 1.038.396.492.631.117 1.758-.69 1.97z"/></svg>