<svg xmlns="http://www.w3.org/2000/svg" width="24" height="24" viewBox="0 0 24 24"><path d="M11.252 13.987c.068.621.201 1.832.274 2.619.04.504-.138.928-.5 1.193-.778.568-2.118.135-2.371-.771-.117-.42.002-.883.328-1.271.454-.557 1.294-1.434 1.797-1.95.147.078.304.139.472.18zm-1.22-3.012c-.172-.202-.51-.568-1.104-1.118-.631-.559-1.313-.524-1.663-.453-1.718.347-1.752 2.48.068 2.345.891-.079 2.051-.263 2.479-.334.055-.156.128-.304.22-.44zm2.921-.54c.51-.547 1.483-1.605 1.975-2.205.319-.378.436-.832.32-1.244-.251-.895-1.587-1.374-2.419-.762-.376.277-.56.707-.515 1.209.064.749.171 2.187.214 2.775.152.06.294.136.425.227zm.8 1.145c.485-.054 1.87-.209 2.646-.301.458-.055.842-.277 1.08-.625.415-.604.259-1.307-.623-1.572-.253-.077-.749-.149-1.18.201-.723.572-1.978 1.772-2.083 1.874.068.134.123.275.16.423zm-2.809-1.354c.14-.059.29-.103.445-.13-.042-.554-.147-1.881-.237-2.59-.063-.501-.349-.782-.577-.929-.59-.381-1.383-.323-1.599.347-.121.374-.015.793.289 1.15.502.586 1.318 1.669 1.679 2.152zm13.056 1.774c0 6.627-5.373 12-12 12s-12-5.373-12-12 5.373-12 12-12 12 5.373 12 12zm-6.176-.325c1.888-1.512.377-3.871-1.709-3.577 1.032-2.689-3.192-4.365-4.517-1.886-1.808-2.09-4.809.095-3.202 2.307-3.124-.833-4.701 3.156-2.054 4.047-1.324 1.219-.298 3.255 1.586 3.037-1.622 2.971 3.468 4.89 4.458 1.884 1.312 1.334 3.456.229 3.21-1.603 2.865 1.322 4.74-2.934 2.228-4.209zm-1.27.693c-.807.066-2.131.187-2.824.25-.048.155-.113.302-.195.439.564.483 1.534 1.304 2.118 1.753.398.317.876.432 1.309.318.94-.247 1.379-1.562.804-2.298-.268-.34-.699-.504-1.212-.462zm-3.597-.313c0-.641-.538-1.163-1.199-1.163-.66 0-1.198.522-1.198 1.163 0 .642.538 1.163 1.198 1.163.661 0 1.199-.521 1.199-1.163zm-.152 1.715c-.111.064-.23.119-.354.162.055.491.15 1.337.229 1.955.062.497.28.898.596 1.102.476.307 1.113.118 1.314-.512.12-.375.021-.783-.262-1.112-.416-.493-1.113-1.192-1.523-1.595z"/></svg>