<svg xmlns="http://www.w3.org/2000/svg" width="24" height="24" viewBox="0 0 24 24"><path d="M21.984 11.442c3.237-2.592.647-6.636-2.93-6.132 1.769-4.611-5.472-7.483-7.743-3.234-3.099-3.582-8.243.164-5.491 3.956-5.354-1.429-8.058 5.411-3.52 6.939-2.271 2.09-.51 5.581 2.719 5.206-2.782 5.093 5.944 8.383 7.643 3.23 2.248 2.288 5.924.392 5.501-2.747 4.913 2.264 8.128-5.032 3.821-7.218zm-12.455.653c0-1.099.923-1.994 2.056-1.994s2.055.895 2.055 1.994c0 1.1-.922 1.994-2.055 1.994s-2.056-.895-2.056-1.994zm10.795-5.097c1.512.455 1.779 1.66 1.07 2.695-.41.597-1.068.978-1.853 1.071-1.329.157-3.702.423-4.534.516-.064-.254-.158-.497-.277-.725.181-.173 2.333-2.23 3.572-3.212l.008-.006c.739-.599 1.579-.47 2.014-.339zm-6.903-4.9c1.426-1.05 3.717-.228 4.146 1.307.198.706-.002 1.484-.549 2.133l-.007.009c-.842 1.029-2.504 2.833-3.375 3.771-.226-.156-.469-.288-.73-.389-.073-1.01-.256-3.474-.367-4.758-.076-.862.238-1.598.882-2.073zm-6.605 1.197c.371-1.147 1.729-1.247 2.741-.594.392.252.881.734.989 1.592.154 1.217.335 3.492.408 4.441-.267.047-.523.122-.766.224-.618-.827-2.017-2.684-2.875-3.691-.521-.613-.703-1.331-.497-1.972zm-2.934 4.254c.601-.122 1.77-.182 2.851.777 1.021.942 1.599 1.57 1.894 1.916-.156.234-.283.487-.376.755-.736.121-2.726.437-4.251.572-3.121.232-3.063-3.425-.118-4.02zm6.448 14.392c-1.332.974-3.63.231-4.063-1.321-.202-.72.003-1.514.563-2.178l.007-.009c.781-.954 2.211-2.449 3.071-3.334.252.133.523.236.808.307.119 1.064.346 3.141.472 4.489.068.865-.237 1.592-.858 2.046zm6.108-2.267c-.346 1.081-1.437 1.405-2.253.878-.541-.349-.913-1.038-1.021-1.889-.133-1.06-.297-2.511-.391-3.352.213-.074.417-.167.608-.277.704.691 1.899 1.89 2.611 2.734l.005.007c.485.564.646 1.256.441 1.899zm4.068-2.31c-.743.195-1.561-.003-2.246-.546l-.009-.007c-1.001-.771-2.653-2.171-3.622-2.999.141-.234.254-.487.334-.752 1.189-.109 3.459-.315 4.842-.428.882-.072 1.619.209 2.075.792.99 1.262.238 3.515-1.374 3.94z"/></svg>