<svg xmlns="http://www.w3.org/2000/svg" width="24" height="24" viewBox="0 0 24 24"><path d="M0 3v18h4c0-1.104.896-2 2-2s2 .896 2 2h8c0-1.104.896-2 2-2s2 .896 2 2h4v-18h-24zm12.939 9.715c-.306.475-.794 1.009-1.738 1.009-1.081 0-1.752-.79-1.752-2.062 0-1.908 1.253-3.52 2.737-3.52.714 0 1.202.375 1.407.953l.201-.701h1.002c-.106.357-.998 3.661-.998 3.661-.275 1.145.581 1.165 1.34.557 1.43-1.108 1.504-4.004-.428-5.211-2.071-1.242-6.78-.472-6.78 3.732 0 2.408 1.697 4.027 4.221 4.027 1.474 0 2.379-.4 3.134-.837l.504.729c-.736.414-1.918.948-3.773.948-3.35 0-5.166-2.093-5.166-4.796 0-2.887 2.046-5.204 5.699-5.204 2.665 0 4.602 1.733 4.602 4.122-.001 3.738-4.432 4.726-4.212 2.593zm.325-2.798c0 .583-.197 1.346-.504 1.944-.741 1.456-2.254 1.448-2.254-.104 0-.578.201-1.323.504-1.897.754-1.417 2.254-1.196 2.254.057z"/></svg>