<svg xmlns="http://www.w3.org/2000/svg" width="24" height="24" viewBox="0 0 24 24"><path d="M24 4h-6v2h6v-2zm0 4h-6v2h6v-2zm0 4h-6v2h6v-2zm-4 9.424l-.004.576h-1.996v-.656c0-.552 0-.984-1.258-1.344-1.474-.422-4.683-1.372-5.775-3.608-.835-1.709.43-4.579 1.561-6.479l.624 1.03.094-.644c.398-2.645.517-4.344-1.202-5.627-.579-.435-1.311-.672-2.065-.672-.743 0-1.452.232-1.999.653-1.742 1.302-1.624 3-1.225 5.646l.1.688.64-1.031c1.104 1.856 2.3 4.69 1.538 6.436-1.094 2.237-4.279 3.271-5.775 3.608-1.18.266-1.258.792-1.258 1.344v.656h-1.996l-.004-.575c0-1.28.166-2.767 2.648-3.336 2.469-.566 5.481-2.03 4.595-3.936-.376.606-1.281 1.06-2.248 1.06-.491 0-.998-.117-1.461-.39 3.957-1.003-1.944-7.892 3.226-11.754.927-.715 2.07-1.069 3.219-1.069 1.156 0 2.314.358 3.262 1.069 5.17 3.862-.73 10.751 3.226 11.754-.468.276-.981.396-1.478.396-.96 0-1.855-.447-2.23-1.065-.888 1.905 2.121 3.368 4.594 3.936 2.48.568 2.647 2.054 2.647 3.334z"/></svg>