<svg xmlns="http://www.w3.org/2000/svg" width="24" height="24" viewBox="0 0 24 24"><path d="M24 4h-6v2h6v-2zm0 4h-6v2h6v-2zm0 4h-6v2h6v-2zm-4 9.424l-.004.576h-19.992l-.004-.575c0-1.28.167-2.767 2.648-3.336 2.469-.566 5.481-2.03 4.595-3.936-.567.914-2.334 1.481-3.709.67 3.957-1.003-1.945-7.892 3.226-11.754.927-.715 2.071-1.069 3.219-1.069 1.155 0 2.314.358 3.261 1.069 5.171 3.862-.73 10.751 3.226 11.754-1.375.811-3.139.268-3.708-.67-.887 1.905 2.122 3.368 4.595 3.936 2.48.569 2.647 2.055 2.647 3.335z"/></svg>