<svg xmlns="http://www.w3.org/2000/svg" width="24" height="24" viewBox="0 0 24 24"><path d="M3.44 2l-.439-2h17.994l-.439 2h-17.116zm-1.44 3l-.439-2h20.879l-.44 2h-20zm10.099 10.716l.004.283h-5.939l-.048-.292c-.133-.779-.177-1.224.582-1.43.842-.227 1.684-.429 1.168-1.289-1.627-2.546-.849-3.99.634-3.99 1.454 0 2.516 1.39 1.355 3.99-.348.854.5 1.056 1.401 1.289.801.208.834.655.843 1.439zm6.628-4.716h-4.784l-.028 1h4.675l.137-1zm.273-2h-5l-.028.999h4.892l.136-.999zm-.548 4h-4.566l-.029.999h4.459l.136-.999zm-.273 2h-4.351l-.028.999h4.241l.138-.999zm5.821 3h-24l2 6h20l2-6zm-20.625-2l-1.085-8.001h19.411l-1.119 8.001h2.021l1.397-10h-24l1.356 10h2.019z"/></svg>