<svg xmlns="http://www.w3.org/2000/svg" width="24" height="24" viewBox="0 0 24 24"><path d="M22 5v14h-1.537c-.692-1.195-1.985-2-3.463-2s-2.771.805-3.463 2h-3.074c-.692-1.195-1.985-2-3.463-2s-2.771.805-3.463 2h-1.537v-14h20zm2-2h-24v18h5c0-1.104.896-2 2-2s2 .896 2 2h6c0-1.104.896-2 2-2s2 .896 2 2h5v-18zm-11.984 13c-3.35 0-5.166-2.093-5.166-4.796 0-2.887 2.046-5.204 5.699-5.204 2.664 0 4.602 1.733 4.602 4.122 0 3.739-4.432 4.727-4.211 2.594-.307.475-.795 1.009-1.738 1.009-1.082 0-1.752-.79-1.752-2.062 0-1.908 1.252-3.52 2.736-3.52.715 0 1.203.375 1.408.953l.201-.701h1.002c-.107.357-.998 3.661-.998 3.661-.275 1.145.58 1.165 1.34.557 1.43-1.108 1.504-4.004-.428-5.211-2.072-1.243-6.781-.473-6.781 3.731 0 2.408 1.697 4.027 4.221 4.027 1.473 0 2.379-.4 3.133-.837l.504.729c-.735.414-1.917.948-3.772.948zm-1.006-6.14c-.303.574-.504 1.319-.504 1.897 0 1.551 1.512 1.56 2.254.104.307-.599.504-1.361.504-1.944 0-1.253-1.5-1.474-2.254-.057z"/></svg>