<svg xmlns="http://www.w3.org/2000/svg" width="24" height="24" viewBox="0 0 24 24"><path d="M22 4v16h-1.537c-.692-1.195-1.985-2-3.463-2s-2.771.805-3.463 2h-3.074c-.692-1.195-1.985-2-3.463-2s-2.771.805-3.463 2h-1.537v-16h20zm2-2h-24v20h5c0-1.104.896-2 2-2s2 .896 2 2h6c0-1.104.896-2 2-2s2 .896 2 2h5v-20zm-10 13.597v.403h-10v-.417c-.004-1.112.044-1.747 1.324-2.043 1.402-.324 2.787-.613 2.121-1.841-1.972-3.637-.562-5.699 1.555-5.699 2.077 0 3.521 1.985 1.556 5.699-.647 1.22.688 1.51 2.121 1.841 1.284.297 1.328.936 1.323 2.057zm6-9.597h-4v2h4v-2zm0 4h-4v2h4v-2zm0 4h-4v2h4v-2z"/></svg>