<svg width="24" height="24" xmlns="http://www.w3.org/2000/svg" fill-rule="evenodd" clip-rule="evenodd"><path d="M13.001 24h-2v-3.558c.328.038.662.058 1 .058.339 0 .672-.02 1-.058v3.558zm4.072-5.181l1.774 3.087-1.734.997-1.773-3.085c.619-.265 1.2-.601 1.733-.999zm-10.161-.012c.533.399 1.113.736 1.731 1.003l-1.78 3.08-1.732-1 1.781-3.083zm5.388.193h-.596c-.156 0-.307-.053-.41-.145l-.792-.522h3l-.792.522c-.102.092-.253.145-.41.145zm7.507-3.632l3.078 1.784-1.003 1.73-3.08-1.785c.399-.532.738-1.112 1.005-1.729zm-15.62-.019c.266.618.603 1.199 1.001 1.731l-3.085 1.778-.998-1.733 3.082-1.776zm9.343 2.318h-3.038c-.184 0-.334-.149-.334-.334 0-.184.15-.333.334-.333h3.038c.184 0 .334.149.334.333 0 .185-.149.334-.334.334zm.33-1.334h-3.715c0-2.632-2.143-3.772-2.143-6.152 0-2.482 1.999-3.848 3.998-3.848 2.001 0 4.002 1.368 4.002 3.848 0 2.38-2.142 3.483-2.142 6.152zm6.584-5.323l3.558.005-.002 2-3.558-.005c.039-.331.059-.668.059-1.01 0-.335-.019-.665-.057-.99zm-16.883-.02c-.04.331-.06.668-.06 1.01 0 .335.02.665.057.99l-3.558-.005.002-2 3.559.005zm15.254-4.07l3.084-1.778.999 1.733-3.083 1.776c-.266-.618-.603-1.199-1-1.731zm-13.615-.017c-.399.532-.737 1.112-1.004 1.729l-3.079-1.784 1.003-1.73 3.08 1.785zm10.159-2.713l1.781-3.08 1.731 1-1.781 3.083c-.532-.399-1.112-.736-1.731-1.003zm-6.697-.008c-.619.265-1.2.601-1.733.999l-1.774-3.087 1.734-.997 1.773 3.085zm4.339-.624c-.328-.038-.661-.058-1-.058-.338 0-.672.02-1 .058v-3.558h2v3.558z"/></svg>