<svg width="24" height="24" xmlns="http://www.w3.org/2000/svg" fill-rule="evenodd" clip-rule="evenodd"><path d="M12 1c-6.338 0-12 4.226-12 10.007 0 2.05.739 4.063 2.047 5.625.055 1.83-1.023 4.456-1.993 6.368 2.601-.47 6.3-1.508 7.978-2.536 1.417.345 2.774.504 4.058.504 7.084 0 11.91-4.838 11.91-9.961 0-5.812-5.701-10.007-12-10.007zm0 2c5.514 0 10 3.592 10 8.007 0 4.917-5.144 7.961-9.91 7.961-1.937 0-3.383-.398-4.394-.644-1 .613-1.594 1.037-4.272 1.82.534-1.373.722-2.748.601-4.265-.838-1-2.025-2.4-2.025-4.872 0-4.415 4.486-8.007 10-8.007zm.217 14h-.447c-.117 0-.231-.04-.308-.109l-.594-.391h2.25l-.594.391c-.076.069-.189.109-.307.109zm.922-1h-2.279c-.138 0-.25-.111-.25-.25 0-.138.112-.25.25-.25h2.279c.138 0 .25.112.25.25s-.111.25-.25.25zm-1.322-.986h-1.414c-.013-2.57-1.403-2.878-1.403-4.647 0-1.695 1.327-2.852 3-2.852h.02c1.663.009 2.98 1.163 2.98 2.852 0 1.769-1.391 2.077-1.404 4.647h-1.414c0-2.735 1.318-3.614 1.318-4.651 0-.856-.694-1.333-1.5-1.348h-.019c-.798.022-1.481.499-1.481 1.348 0 1.037 1.317 1.915 1.317 4.651zm4.053-3.628l1.349.612-.414.91-1.298-.588c.151-.3.276-.608.363-.934zm-7.739-.001c.086.332.208.631.359.935l-1.295.588-.414-.91 1.35-.613zm9.369-.885h-1.501c.01-.335-.021-.673-.093-1h1.594v1zm-9.499 0h-1.501v-1h1.594c-.072.327-.102.663-.093.998v.002zm7.021-2.714l1.242-.882.579.816-1.252.888c-.146-.291-.336-.566-.569-.822zm-6.044-.001c-.23.252-.418.525-.569.823l-1.251-.888.578-.816 1.242.881zm4.435-1.046l.663-1.345.896.443-.663 1.345c-.278-.184-.581-.332-.896-.443zm-2.826-.001c-.315.11-.618.258-.897.442l-.663-1.343.897-.443.663 1.344zm1.913-.207c-.334-.04-.654-.042-1-.002v-1.529h1v1.531z"/></svg>