<svg width="24" height="24" xmlns="http://www.w3.org/2000/svg" fill-rule="evenodd" clip-rule="evenodd"><path d="M.054 23c.971-1.912 2.048-4.538 1.993-6.368-1.308-1.562-2.047-3.575-2.047-5.625 0-5.781 5.662-10.007 12-10.007 6.299 0 12 4.195 12 10.007 0 6.052-6.732 11.704-15.968 9.457-1.677 1.028-5.376 2.066-7.978 2.536zm13.071-6.5h-2.25l.594.391c.077.069.19.109.307.109h.448c.117 0 .23-.04.307-.109l.594-.391zm.021-1h-2.279c-.138 0-.25.112-.25.25 0 .139.112.25.25.25h2.279c.138 0 .25-.112.25-.25s-.112-.25-.25-.25zm.247-.5c0-2.002 1.607-2.83 1.607-4.614 0-1.86-1.501-2.886-3.001-2.886s-2.999 1.025-2.999 2.886c0 1.785 1.607 2.64 1.607 4.614h2.786zm2.477-3.614l1.349.612-.414.911-1.298-.589c.151-.3.276-.607.363-.934zm-7.739 0c.087.332.208.63.36.934l-1.296.589-.414-.911 1.35-.612zm9.369-1.886h-1.594c.073.328.103.665.093 1h1.501v-1zm-9.406 0h-1.594v1h1.502v-.002c-.01-.335.02-.671.092-.998zm6.928-1.714l1.242-.882.579.816-1.252.889c-.146-.291-.336-.566-.569-.823zm-6.044 0c-.23.251-.418.525-.569.822l-1.251-.888.578-.816 1.242.882zm4.435-1.047l.663-1.345.897.443-.664 1.345c-.278-.184-.58-.332-.896-.443zm-2.826 0c-.315.11-.618.257-.897.442l-.663-1.344.897-.442.663 1.344zm1.913-.208c-.334-.039-.654-.041-1-.002v-1.529h1v1.531z"/></svg>