<svg width="24" height="24" xmlns="http://www.w3.org/2000/svg" fill-rule="evenodd" clip-rule="evenodd"><path d="M13.002 24h-2v-3.558c.328.038.662.058 1 .058.339 0 .672-.02 1-.058v3.558zm4.073-5.181l1.773 3.087-1.734.997-1.772-3.085c.618-.265 1.2-.601 1.733-.999zm-10.161-.012c.532.399 1.112.736 1.73 1.003l-1.78 3.08-1.732-1 1.782-3.083zm5.378.193h-.596c-.157 0-.308-.053-.411-.145l-.791-.522h3l-.792.522c-.103.092-.253.145-.41.145zm7.516-3.632l3.078 1.784-1.002 1.73-3.081-1.785c.4-.532.738-1.112 1.005-1.729zm-15.619-.019c.265.618.602 1.199 1 1.731l-3.084 1.778-.999-1.733 3.083-1.776zm9.333 2.318h-3.039c-.184 0-.333-.149-.333-.334 0-.184.149-.333.333-.333h3.039c.184 0 .333.149.333.333 0 .185-.149.334-.333.334zm-1.764-1.315h-1.886c-.017-3.426-1.87-3.837-1.87-6.196 0-2.26 1.77-3.802 4-3.802h.027c2.217.012 3.973 1.551 3.973 3.802 0 2.359-1.854 2.77-1.871 6.196h-1.886c0-3.647 1.757-4.819 1.757-6.201 0-1.141-.925-1.778-2-1.798h-.025c-1.064.03-1.975.666-1.975 1.798 0 1.382 1.756 2.554 1.756 6.201zm8.687-5.342l3.559.005-.003 2-3.558-.005c.039-.331.059-.668.059-1.01 0-.335-.019-.665-.057-.99zm-16.883-.02c-.039.331-.06.668-.06 1.01 0 .335.02.665.058.99l-3.559-.005.003-2 3.558.005zm15.254-4.07l3.084-1.778.999 1.733-3.083 1.776c-.265-.618-.602-1.199-1-1.731zm-13.615-.017c-.399.532-.737 1.112-1.004 1.729l-3.079-1.784 1.003-1.73 3.08 1.785zm10.16-2.713l1.78-3.08 1.731 1-1.781 3.083c-.532-.399-1.112-.736-1.73-1.003zm-6.698-.008c-.619.265-1.2.601-1.733.999l-1.774-3.087 1.734-.997 1.773 3.085zm4.339-.624c-.328-.038-.661-.058-1-.058-.338 0-.672.02-1 .058v-3.558h2v3.558z"/></svg>