<svg width="24" height="24" xmlns="http://www.w3.org/2000/svg" fill-rule="evenodd" clip-rule="evenodd"><path d="M12.447 24h-.894c-.235 0-.461-.079-.616-.218l-1.187-.782h4.5l-1.188.782c-.154.139-.38.218-.615.218zm1.845-2h-4.558c-.276 0-.5-.223-.5-.5 0-.276.224-.5.5-.5h4.558c.276 0 .5.224.5.5 0 .277-.224.5-.5.5zm.494-2h-5.572c0-3.949-3.214-5.659-3.214-9.228 0-3.723 2.998-5.772 5.997-5.772 3.001 0 6.003 2.052 6.003 5.772 0 3.569-3.214 5.224-3.214 9.228zm-2.789-9l.75-3h-2l-1.26 5h2.505l-.75 3h2l1.245-5h-2.49zm7.742 1.771l2.699 1.224-.827 1.822-2.596-1.177c.301-.6.55-1.215.724-1.869zm-15.477 0c.173.664.415 1.261.719 1.87l-2.592 1.176-.827-1.822 2.7-1.224zm18.738-1.771h-3.003c.021-.67-.04-1.345-.185-2h3.188v2zm-18.997 0h-3.003v-2h3.187c-.143.654-.203 1.326-.184 1.995v.005zm14.04-5.428l2.485-1.763 1.158 1.631-2.505 1.777c-.292-.582-.67-1.132-1.138-1.645zm-12.087-.001c-.46.503-.837 1.05-1.138 1.645l-2.503-1.776 1.157-1.631 2.484 1.762zm8.869-2.092l1.327-2.69 1.793.885-1.327 2.69c-.557-.367-1.161-.664-1.793-.885zm-5.651-.002c-.631.22-1.236.516-1.794.884l-1.326-2.687 1.794-.885 1.326 2.688zm3.826-.416c-.668-.078-1.309-.082-2-.003v-3.058h2v3.061z"/></svg>