<svg width="24" height="24" xmlns="http://www.w3.org/2000/svg" fill-rule="evenodd" clip-rule="evenodd"><path d="M3.998 14.376v-3.213c0-.771-.479-1.163-.99-1.163-.504 0-1.008.384-1.008 1.163v4.086c0 .796.072 1.179.574 2.092.793 1.441 2.242 3.461 2.242 6.659h5.003s.559-1.759.763-2.942c.411-2.377-.126-3.471-1.11-4.485-1.022-1.053-1.528-1.551-1.996-2.035-1.081-1.121-2.552.194-1.694 1.222.468.561 1.624 1.803 1.901 2.171.268.357-.231.857-.624.447-.573-.599-1.905-2.083-2.365-2.618-.442-.515-.696-.828-.696-1.384zm15.186 9.624h-5.003s-.558-1.759-.762-2.942c-.412-2.377.126-3.471 1.109-4.485 1.022-1.053 1.528-1.551 1.996-2.035 1.081-1.121 2.552.194 1.694 1.222-.467.561-1.624 1.803-1.901 2.171-.268.357.231.857.624.447.573-.599 1.905-2.083 2.365-2.618.443-.515.694-.828.694-1.384v-3.213c0-.771.481-1.163.992-1.163.506 0 1.007.384 1.007 1.163v4.086c0 .796-.073 1.179-.575 2.092-.793 1.441-2.24 3.807-2.24 6.659zm-5.684-8.667l-.792.522c-.103.092-.253.145-.41.145h-.596c-.157 0-.307-.053-.411-.145l-.791-.522h3zm.028-1.333c.184 0 .333.149.333.333 0 .185-.149.334-.333.334h-3.039c-.184 0-.333-.149-.333-.334 0-.184.149-.333.333-.333h3.039zm.329-.667c0-2.669 2.143-3.772 2.143-6.152 0-2.48-2.001-3.848-4.002-3.848-1.999 0-3.998 1.366-3.998 3.848 0 2.38 2.143 3.52 2.143 6.152h3.714zm3.302-4.819l1.8.816-.552 1.215-1.73-.785c.2-.4.366-.81.482-1.246zm-10.318 0c.116.443.277.841.48 1.247l-1.728.784-.552-1.215 1.8-.816zm12.492-2.514v1.333h-2.002c.014-.446-.026-.896-.123-1.333h2.125zm-12.542 0c-.095.436-.135.884-.122 1.33v.003h-2.002v-1.333h2.124zm9.238-2.285l1.656-1.176.772 1.088-1.67 1.184c-.194-.388-.446-.754-.758-1.096zm-8.058-.001c-.307.335-.558.7-.759 1.097l-1.669-1.184.772-1.088 1.656 1.175zm5.912-1.395l.885-1.793 1.195.59-.884 1.793c-.372-.244-.774-.442-1.196-.59zm-3.767-.001c-.421.147-.824.344-1.196.589l-.884-1.791 1.196-.59.884 1.792zm2.551-.277c-.446-.052-.873-.055-1.334-.002v-2.039h1.334v2.041z"/></svg>