<svg xmlns="http://www.w3.org/2000/svg" width="24" height="24" viewBox="0 0 24 24"><path d="M12 2c5.514 0 10 4.486 10 10s-4.486 10-10 10-10-4.486-10-10 4.486-10 10-10zm0-2c-6.627 0-12 5.373-12 12s5.373 12 12 12 12-5.373 12-12-5.373-12-12-12zm3.286 9c-3.009 0-4.207 5-6.571 5-1.057 0-1.74-.789-1.74-2s.684-2 1.74-2c.833 0 1.431.535 2.009 1.197l.622-.781c-.75-.766-1.526-1.416-2.631-1.416-1.599 0-2.715 1.227-2.715 3s1.116 3 2.715 3c3.002 0 4.203-5 6.571-5 1.057 0 1.739.789 1.739 2s-.683 2-1.739 2c-.832 0-1.43-.534-2.007-1.196l-.622.78c.749.766 1.525 1.416 2.629 1.416 1.599 0 2.714-1.227 2.714-3s-1.115-3-2.714-3z"/></svg>