<svg xmlns="http://www.w3.org/2000/svg" width="24" height="24" viewBox="0 0 24 24"><path d="M12 0c-6.627 0-12 5.373-12 12s5.373 12 12 12 12-5.373 12-12-5.373-12-12-12zm3.286 15c-1.104 0-1.88-.65-2.629-1.416l.622-.78c.577.662 1.175 1.196 2.007 1.196 1.057 0 1.739-.789 1.739-2s-.683-2-1.739-2c-2.368 0-3.569 5-6.571 5-1.599 0-2.715-1.227-2.715-3s1.116-3 2.715-3c1.105 0 1.881.65 2.631 1.417l-.622.781c-.578-.663-1.176-1.198-2.009-1.198-1.057 0-1.74.789-1.74 2s.684 2 1.74 2c2.364 0 3.562-5 6.571-5 1.599 0 2.714 1.227 2.714 3s-1.115 3-2.714 3z"/></svg>