<svg xmlns="http://www.w3.org/2000/svg" width="24" height="24" viewBox="0 0 24 24"><path d="M17.472 7.006c2.663 0 4.521 2.043 4.521 4.994 0 2.951-1.858 4.994-4.521 4.994-2.419 0-3.795-1.845-5.405-3.497-1.635 1.695-3.164 3.497-5.54 3.497-2.663 0-4.521-2.043-4.521-4.994 0-2.951 1.858-4.994 4.521-4.994 2.387 0 3.781 1.884 5.415 3.59 1.627-1.718 3.178-3.59 5.53-3.59zm0 8.323c1.76 0 2.898-1.313 2.898-3.329 0-2.017-1.138-3.33-2.898-3.33-1.865 0-2.987 1.537-4.457 3.302 1.474 1.765 2.588 3.357 4.457 3.357zm-10.944 0c1.924 0 3.097-1.573 4.467-3.196-1.58-1.913-2.65-3.463-4.467-3.463-1.76 0-2.898 1.313-2.898 3.33 0 2.016 1.138 3.329 2.898 3.329zm10.944-10.329c-2.382 0-4.114 1.302-5.519 2.683-1.334-1.355-3.004-2.683-5.425-2.683-3.782 0-6.528 2.944-6.528 7s2.746 7 6.528 7c2.392 0 4.124-1.268 5.525-2.617 1.323 1.321 2.983 2.617 5.419 2.617 3.782 0 6.528-2.944 6.528-7s-2.746-7-6.528-7zm-1.842 6.977c.736-.84 1.273-1.301 1.842-1.301.244 0 .891 0 .891 1.324s-.647 1.324-.891 1.324c-.559 0-1.093-.479-1.842-1.347zm-9.102 1.347c-.244 0-.891 0-.891-1.324s.647-1.324.891-1.324c.528 0 1.068.509 1.849 1.433-.697.769-1.249 1.215-1.849 1.215z"/></svg>