<svg xmlns="http://www.w3.org/2000/svg" width="24" height="24" viewBox="0 0 24 24"><path d="M8.146 9.089l1.138-1.557c.484.394.949.834 1.407 1.302l-1.244 1.561c-.422-.483-.848-.93-1.301-1.306zm10.426-1.089c2.113 0 3.479 1.578 3.479 4 0 .294-.021.575-.061.843l1.914.383c.062-.392.096-.801.096-1.226 0-3.545-2.231-6-5.428-6-6.017 0-8.414 10-13.142 10-2.114 0-3.48-1.578-3.48-4 0-.294.021-.575.061-.843l-1.914-.383c-.063.392-.097.801-.097 1.226 0 3.545 2.232 6 5.43 6 6.003 0 8.406-10 13.142-10zm-18.245 1.801l1.94.388c.159-.422.37-.8.643-1.11l-1.401-1.4c-.525.582-.924 1.301-1.182 2.122zm4.673-3.78c-1.049.075-1.981.419-2.748.986l1.447 1.447c.382-.22.818-.36 1.301-.413v-2.02zm3.476.922c-.742-.475-1.551-.802-2.476-.901v2.004c.477.074.912.244 1.322.475l1.154-1.578zm7.378 7.967c-.451-.375-.877-.82-1.297-1.302l-1.244 1.561c.456.466.921.905 1.404 1.298l1.137-1.557zm5.879-1.099c-.16.422-.371.8-.643 1.11l1.4 1.401c.525-.582.925-1.301 1.182-2.123l-1.939-.388zm-3.733 4.147v-2.004c-.477-.074-.911-.245-1.322-.477l-1.153 1.579c.741.476 1.551.803 2.475.902zm2.302-2.412c-.383.22-.818.36-1.302.413v2.021c1.049-.075 1.981-.419 2.748-.986l-1.446-1.448z"/></svg>