<svg xmlns="http://www.w3.org/2000/svg" width="24" height="24" viewBox="0 0 24 24"><path d="M12 2c5.514 0 10 4.486 10 10s-4.486 10-10 10-10-4.486-10-10 4.486-10 10-10zm0-2c-6.627 0-12 5.373-12 12s5.373 12 12 12 12-5.373 12-12-5.373-12-12-12zm-.008 14.408c1.299 0 2.354-1.056 2.354-2.354 0-.704-.312-1.337-.803-1.769-.174-.151-.368-.278-.58-.374-.297-.135-.625-.21-.971-.21-.347 0-.675.075-.971.21-.211.096-.406.223-.578.374-.492.432-.805 1.064-.805 1.769.001 1.298 1.057 2.354 2.354 2.354zm.008-4.093c.961 0 1.738.778 1.738 1.739 0 .961-.777 1.74-1.738 1.74s-1.738-.779-1.738-1.74c0-.96.777-1.739 1.738-1.739zm2.611.185h3.389v5.139c0 1.304-1.058 2.361-2.361 2.361h-7.246c-1.305 0-2.393-1.057-2.393-2.361v-5.139h3.373c-.271.457-.436.985-.436 1.554 0 1.688 1.367 3.055 3.055 3.055 1.687 0 3.055-1.368 3.055-3.055 0-.569-.164-1.097-.436-1.554zm1.028-4.5h-6.139v2.5h-.5v-2.5h-.5v2.5h-.5v-2.461c-.174.028-.341.071-.5.134v2.327h-.5v-2.051c-.602.428-1 1.123-1 1.912v1.639h3.736c.584-.642 1.399-1 2.256-1 .86 0 1.675.362 2.255 1h3.753v-1.64c0-1.303-1.058-2.36-2.361-2.36zm1.361 2.632c0 .203-.166.368-.373.368h-1.255c-.205 0-.372-.165-.372-.368v-1.265c0-.202.167-.367.372-.367h1.255c.207 0 .373.165.373.367v1.265z"/></svg>