<svg xmlns="http://www.w3.org/2000/svg" width="24" height="24" viewBox="0 0 24 24"><path d="M12 2c5.514 0 10 4.486 10 10s-4.486 10-10 10-10-4.486-10-10 4.486-10 10-10zm0-2c-6.627 0-12 5.373-12 12s5.373 12 12 12 12-5.373 12-12-5.373-12-12-12zm4.615 6h-9.23c-.766 0-1.385.62-1.385 1.384v9.23c0 .766.619 1.386 1.385 1.386h9.23c.766 0 1.385-.62 1.385-1.385v-9.23c0-.765-.619-1.385-1.385-1.385zm-4.615 3.693c1.274 0 2.309 1.032 2.309 2.307s-1.035 2.307-2.309 2.307-2.307-1.033-2.307-2.307 1.033-2.307 2.307-2.307zm4.5 6.346c0 .255-.207.461-.461.461h-8.078c-.254 0-.461-.207-.461-.461v-5.039h.949c-.045.158-.078.32-.102.486-.023.168-.038.339-.038.514 0 2.04 1.652 3.693 3.691 3.693s3.691-1.653 3.691-3.693c0-.174-.015-.346-.039-.514-.023-.166-.058-.328-.102-.486h.95v5.039zm0-6.991c0 .255-.207.462-.461.462h-1.088c-.256 0-.461-.208-.461-.462v-1.087c0-.255.205-.461.461-.461h1.088c.254 0 .461.207.461.461v1.087z"/></svg>