<svg xmlns="http://www.w3.org/2000/svg" width="24" height="24" viewBox="0 0 24 24"><path d="M17.833 6.595v1.476c0 .237-.193.429-.435.429h-1.465c-.238 0-.434-.192-.434-.429v-1.476c0-.237.195-.428.434-.428h1.465c.242 0 .435.191.435.428zm-5.833 7.498c1.121 0 2.028-.908 2.028-2.029s-.907-2.029-2.028-2.029-2.028.908-2.028 2.029.907 2.029 2.028 2.029zm12-2.093c0 6.627-5.373 12-12 12s-12-5.373-12-12 5.373-12 12-12 12 5.373 12 12zm-5-1.75h-3.953c.316.533.508 1.149.508 1.813 0 1.968-1.596 3.564-3.563 3.564-1.969 0-3.564-1.596-3.564-3.564 0-.665.191-1.281.509-1.813h-3.937v5.996c0 1.521 1.27 2.754 2.791 2.754h8.454c1.521 0 2.755-1.233 2.755-2.754v-5.996zm-7.009 4.559c1.515 0 2.745-1.232 2.745-2.746 0-.822-.364-1.56-.937-2.063-.202-.177-.429-.324-.677-.437-.346-.157-.729-.245-1.132-.245-.405 0-.788.088-1.133.245-.246.112-.474.26-.675.437-.574.503-.938 1.242-.938 2.063.001 1.514 1.234 2.746 2.747 2.746zm7.009-7.055c0-1.521-1.234-2.754-2.755-2.754h-7.162v2.917h-.583v-2.917h-.583v2.917h-.584v-2.872c-.202.033-.397.083-.583.157v2.715h-.583v-2.393c-.702.5-1.167 1.31-1.167 2.23v1.913h4.359c.681-.748 1.633-1.167 2.632-1.167 1.004 0 1.954.422 2.631 1.167h4.378v-1.913z"/></svg>