<svg xmlns="http://www.w3.org/2000/svg" width="24" height="24" viewBox="0 0 24 24"><path d="M18.667 5.823v1.687c0 .271-.222.49-.497.49h-1.674c-.274 0-.496-.219-.496-.49v-1.687c0-.271.222-.49.496-.49h1.674c.275 0 .497.219.497.49zm5.333-5.823v24h-24v-24h24zm-4 10h-4.518c.362.609.581 1.313.581 2.073 0 2.249-1.824 4.073-4.073 4.073-2.25 0-4.073-1.824-4.073-4.073 0-.76.219-1.464.581-2.073h-4.498v6.852c0 1.738 1.451 3.148 3.19 3.148h9.662c1.738 0 3.148-1.41 3.148-3.148v-6.852zm-8.01 5.21c1.73 0 3.137-1.408 3.137-3.138 0-.939-.416-1.783-1.071-2.358-.23-.202-.49-.371-.772-.499-.395-.18-.833-.28-1.294-.28-.462 0-.899.101-1.294.28-.282.128-.542.297-.771.499-.656.575-1.072 1.419-1.072 2.358-.001 1.731 1.407 3.138 3.137 3.138zm8.01-8.062c0-1.738-1.41-3.148-3.148-3.148h-8.185v3.333h-.667v-3.333h-.667v3.333h-.666v-3.282c-.231.038-.455.095-.667.18v3.103h-.667v-2.735c-.801.571-1.333 1.497-1.333 2.549v2.186h4.982c.778-.855 1.866-1.334 3.008-1.334 1.148 0 2.233.483 3.007 1.333h5.003v-2.185zm-8 7.244c1.281 0 2.319-1.038 2.319-2.319s-1.038-2.319-2.319-2.319-2.319 1.038-2.319 2.319 1.038 2.319 2.319 2.319z"/></svg>