<svg xmlns="http://www.w3.org/2000/svg" width="24" height="24" viewBox="0 0 24 24"><path d="M8.923 12c0-1.699 1.377-3.076 3.077-3.076s3.078 1.376 3.078 3.076-1.379 3.077-3.078 3.077-3.077-1.378-3.077-3.077zm7.946-.686c.033.225.054.453.054.686 0 2.72-2.204 4.923-4.922 4.923s-4.923-2.204-4.923-4.923c0-.233.021-.461.054-.686.031-.221.075-.437.134-.647h-1.266v6.719c0 .339.275.614.616.614h10.769c.34 0 .615-.275.615-.615v-6.719h-1.265c.058.211.102.427.134.648zm.515-5.314h-1.449c-.341 0-.615.275-.615.615v1.45c0 .34.274.616.615.616h1.449c.34 0 .616-.276.616-.616v-1.45c0-.34-.275-.615-.616-.615zm6.616-1v14c0 2.761-2.238 5-5 5h-14c-2.761 0-5-2.239-5-5v-14c0-2.761 2.239-5 5-5h14c2.762 0 5 2.239 5 5zm-4 .846c0-1.019-.826-1.846-1.846-1.846h-12.308c-1.019 0-1.846.827-1.846 1.846v12.307c0 1.02.827 1.847 1.846 1.847h12.309c1.019 0 1.845-.827 1.845-1.847v-12.307z"/></svg>