<svg xmlns="http://www.w3.org/2000/svg" width="24" height="24" viewBox="0 0 24 24"><path d="M14.749 10.958h-5.02c.047-.962 1.02-2.336 2.548-2.336 1.431.001 2.437 1.205 2.472 2.336zm-8.034 2.968c-1.362 2.356-.814 4.603 2.417 2.969-1.101-.713-1.983-1.791-2.417-2.969zm7.662-7.538c1.289.611 2.168 1.353 2.737 2.229 1.225-2.956-.963-3.057-2.737-2.229zm9.623 5.612c0 6.627-5.373 12-12 12s-12-5.373-12-12 5.373-12 12-12 12 5.373 12 12zm-6 .065c0-1.133-.186-2.136-.637-3.015 1.144-2.544.297-4.05-1.745-4.05-.97 0-2.306.504-3.256.973-3.379-.036-5.321 2.356-5.952 4.624.992-1.207 2.265-2.329 3.081-2.561-2.608 2.13-4.491 5.59-4.491 7.857 0 1.252.556 2.107 1.847 2.107 1.06 0 1.912-.503 2.703-.859.736.397 1.549.632 2.381.632 3.045 0 4.973-1.571 5.831-4.107h-3.257c-.486.879-1.161 1.417-2.325 1.417-1.432 0-2.45-1.213-2.485-2.5h8.294l.011-.518z"/></svg>