<svg xmlns="http://www.w3.org/2000/svg" width="24" height="24" viewBox="0 0 24 24"><path d="M22.825 7.477c2.111-4.696.548-7.477-3.221-7.477-1.792 0-4.258.93-6.012 1.797-6.239-.068-9.823 4.349-10.989 8.536 1.833-2.229 4.182-4.3 5.688-4.729-4.814 3.932-8.291 10.322-8.291 14.506 0 2.31 1.027 3.89 3.41 3.89 1.955 0 3.529-.929 4.989-1.586 1.36.733 2.861 1.168 4.396 1.168 5.62 0 9.18-2.9 10.766-7.582h-6.014c-.897 1.623-2.144 2.616-4.292 2.616-2.642 0-4.522-2.239-4.588-4.616h15.311c.014-.324.022-.643.022-.957 0-2.092-.342-3.943-1.175-5.566zm-19.66 9.002c.803 2.173 2.433 4.164 4.464 5.482-5.967 3.016-6.978-1.131-4.464-5.482zm5.567-5.479c.087-1.777 1.882-4.312 4.704-4.312 2.641 0 4.497 2.224 4.562 4.312h-9.266zm8.579-8.438c3.276-1.529 7.314-1.343 5.056 4.117-1.053-1.619-2.676-2.989-5.056-4.117z"/></svg>