<svg xmlns="http://www.w3.org/2000/svg" width="24" height="24" viewBox="0 0 24 24"><path d="M12 2c5.514 0 10 4.486 10 10s-4.486 10-10 10-10-4.486-10-10 4.486-10 10-10zm0-2c-6.627 0-12 5.373-12 12s5.373 12 12 12 12-5.373 12-12-5.373-12-12-12zm4.461 9.427c.968-2.153.252-3.427-1.477-3.427-.82 0-1.951.426-2.755.823-2.859-.03-4.503 1.994-5.036 3.913.84-1.021 1.916-1.971 2.607-2.167-2.207 1.802-3.8 4.73-3.8 6.648 0 1.059.47 1.783 1.562 1.783.896 0 1.618-.426 2.287-.727.623.336 1.311.535 2.015.535 2.576 0 4.208-1.33 4.935-3.475h-2.756c-.412.744-.982 1.2-1.968 1.2-1.212 0-2.073-1.026-2.104-2.116h7.019l.01-.438c0-.959-.157-1.808-.539-2.552zm-9.01 4.126c.367.996 1.113 1.908 2.045 2.512-2.734 1.383-3.198-.518-2.045-2.512zm2.551-2.511c.04-.814.862-1.977 2.156-1.977 1.21 0 2.062 1.019 2.091 1.977h-4.247zm3.933-3.867c1.501-.701 3.353-.616 2.316 1.886-.482-.742-1.226-1.37-2.316-1.886z"/></svg>