<svg xmlns="http://www.w3.org/2000/svg" width="24" height="24" viewBox="0 0 24 24"><path d="M15.249 10.875h-5.791c.055-1.11 1.176-2.695 2.94-2.695 1.65 0 2.81 1.39 2.851 2.695zm-.43-5.273c1.488.705 2.502 1.561 3.16 2.573 1.411-3.413-1.112-3.529-3.16-2.573zm-8.841 8.697c-1.571 2.719-.939 5.312 2.79 3.426-1.269-.823-2.288-2.067-2.79-3.426zm18.022-14.299v24h-24v-24h24zm-5 12.152c0-1.308-.214-2.465-.734-3.479 1.319-2.935.342-4.673-2.014-4.673-1.12 0-2.661.582-3.757 1.123-3.9-.042-6.14 2.718-6.869 5.335 1.146-1.393 2.614-2.687 3.555-2.955-3.008 2.457-5.181 6.451-5.181 9.066 0 1.444.642 2.431 2.131 2.431 1.222 0 2.206-.581 3.118-.991.85.458 1.788.73 2.748.73 3.512 0 5.737-1.813 6.729-4.739h-3.759c-.561 1.015-1.34 1.635-2.683 1.635-1.651 0-2.827-1.399-2.868-2.885h9.569l.015-.598z"/></svg>