<svg xmlns="http://www.w3.org/2000/svg" width="24" height="24" viewBox="0 0 24 24"><path d="M17.979 8.174c-.657-1.012-1.672-1.868-3.159-2.573 2.047-.955 4.571-.839 3.159 2.573zm-12.001 6.125c-1.571 2.719-.939 5.312 2.79 3.426-1.269-.823-2.288-2.067-2.79-3.426zm6.419-6.119c-1.764 0-2.885 1.585-2.94 2.695h5.792c-.041-1.305-1.201-2.695-2.852-2.695zm11.603-3.18v14c0 2.761-2.238 5-5 5h-14c-2.761 0-5-2.239-5-5v-14c0-2.761 2.239-5 5-5h14c2.762 0 5 2.239 5 5zm-5 7.152c0-1.308-.214-2.465-.734-3.479 1.319-2.935.342-4.673-2.014-4.673-1.119 0-2.66.582-3.757 1.123-3.9-.042-6.14 2.718-6.869 5.335 1.146-1.393 2.614-2.687 3.555-2.955-3.008 2.457-5.181 6.451-5.181 9.066 0 1.444.642 2.431 2.131 2.431 1.222 0 2.206-.581 3.118-.991.85.458 1.788.73 2.748.73 3.513 0 5.737-1.813 6.729-4.739h-3.759c-.561 1.015-1.34 1.635-2.683 1.635-1.651 0-2.827-1.399-2.868-2.885h9.57l.014-.598z"/></svg>