<svg xmlns="http://www.w3.org/2000/svg" width="24" height="24" viewBox="0 0 24 24"><path d="M18.721.78c-.996-.996-2.592-1.039-3.671-.127l-6.07 4.801c-1.223 1.035-1.315 2.882-.2 3.996l5.771 5.769c1.117 1.117 2.967 1.022 4-.201l4.796-6.072c.925-1.095.854-2.686-.127-3.668l-4.499-4.498zm3.077 6.899l-4.791 6.064c-.274.31-.753.348-1.043.06l-5.771-5.769c-.286-.285-.245-.765.06-1.038.017-.013 5.791-4.56 6.09-4.815s.719-.232.964.013l4.499 4.497c.246.245.265.651-.008.988zm-10.838 6.777l1.414 1.414-8.13 8.13h-2.829l-1.414-1.415v-2.828l8.129-8.129 1.414 1.414-7.544 7.544.001 1.172.242.242h1.173l7.544-7.544zm5.432-10.987l-2.032 1.609 4.531 4.484 1.632-1.938c.167-.199.157-.492-.028-.675l-3.439-3.442c-.18-.179-.468-.196-.664-.038zm2.432 4.621l-2.96-2.929.797-.631 2.803 2.801-.64.759z"/></svg>