<svg xmlns="http://www.w3.org/2000/svg" width="24" height="24" viewBox="0 0 24 24"><path d="M19 4v6.406l-3.753 3.741-6.463-6.462 3.7-3.685h6.516zm2-2h-12.388l1.497 1.5-4.171 4.167 9.291 9.291 4.161-4.193 1.61 1.623v-12.388zm-5 4c.552 0 1 .449 1 1s-.448 1-1 1-1-.449-1-1 .448-1 1-1zm0-1c-1.104 0-2 .896-2 2s.896 2 2 2 2-.896 2-2-.896-2-2-2zm6.708.292l-.708.708v3.097l2-2.065-1.292-1.74zm-12.675 9.294l-1.414 1.414h-2.619v2h-2v2h-2v-2.17l5.636-5.626-1.417-1.407-6.219 6.203v5h6v-2h2v-2h2l1.729-1.729-1.696-1.685z"/></svg>