<svg xmlns="http://www.w3.org/2000/svg" width="24" height="24" viewBox="0 0 24 24"><path d="M16.625 8.292c0 .506-.41.917-.917.917s-.916-.411-.916-.917.409-.917.916-.917.917.411.917.917zm7.375 3.708c0 6.627-5.373 12-12 12s-12-5.373-12-12 5.373-12 12-12 12 5.373 12 12zm-11.293 1.946c-1.142-.436-2.065-1.312-2.561-2.423l-3.146 3.185v2.292h3v-1h1v-1h.672l1.035-1.054zm5.293-4.279c0-2.025-1.642-3.667-3.667-3.667-2.024 0-3.666 1.642-3.666 3.667s1.642 3.667 3.666 3.667c2.025-.001 3.667-1.643 3.667-3.667z"/></svg>