<svg xmlns="http://www.w3.org/2000/svg" width="24" height="24" viewBox="0 0 24 24"><path d="M0 9v14h24v-14h-24zm16 3h2v2h-2v-2zm-3 0h2v2h-2v-2zm3 3v2h-2v-2h2zm-6-3h2v2h-2v-2zm3 3v2h-2v-2h2zm-6-3h2v2h-2v-2zm3 3v2h-2v-2h2zm-7-3h3v2h-3v-2zm0 3h4v2h-4v-2zm14 5h-10v-2h10v2zm4-3h-4v-2h4v2zm0-3h-2v-2h2v2zm-14.019-10.921c1.285-1.285 3.059-2.079 5.019-2.079s3.734.794 5.019 2.079l-.854.852c-1.065-1.066-2.539-1.725-4.165-1.725-1.627 0-3.1.659-4.165 1.725l-.854-.852zm2.392 2.391c.673-.672 1.602-1.087 2.627-1.087s1.954.416 2.627 1.087l.874-.875c-.896-.896-2.134-1.45-3.501-1.45s-2.604.554-3.501 1.45l.874.875zm1.53 1.53c.28-.28.669-.454 1.097-.454s.815.174 1.097.454l.859-.86c-.5-.501-1.192-.81-1.956-.81-.765 0-1.456.31-1.957.811l.86.859z"/></svg>