<svg width="24" height="24" xmlns="http://www.w3.org/2000/svg" fill-rule="evenodd" clip-rule="evenodd"><path d="M10 16v2.5c0 2.483-2.017 4.5-4.5 4.5-2.484 0-4.5-2.017-4.5-4.5 0-2.484 2.016-4.5 4.5-4.5h2.5v-4h-2.5c-2.484 0-4.5-2.016-4.5-4.5 0-2.483 2.016-4.5 4.5-4.5 2.483 0 4.5 2.017 4.5 4.5v2.5h4v-2.5c0-2.483 2.017-4.5 4.5-4.5 2.484 0 4.5 2.017 4.5 4.5 0 2.484-2.016 4.5-4.5 4.5h-2.5v4h2.5c2.484 0 4.5 2.016 4.5 4.5 0 2.483-2.016 4.5-4.5 4.5-2.483 0-4.5-2.017-4.5-4.5v-2.5h-4zm-2 0h-2.5c-1.379 0-2.5 1.122-2.5 2.5s1.121 2.5 2.5 2.5 2.5-1.122 2.5-2.5v-2.5zm10.5 0h-2.5v2.5c0 1.378 1.121 2.5 2.5 2.5s2.5-1.122 2.5-2.5-1.121-2.5-2.5-2.5zm-4.5-6h-4v4.132h4v-4.132zm-6-2v-2.5c0-1.378-1.121-2.5-2.5-2.5s-2.5 1.122-2.5 2.5 1.121 2.5 2.5 2.5h2.5zm10.5 0c1.379 0 2.5-1.122 2.5-2.5s-1.121-2.5-2.5-2.5-2.5 1.122-2.5 2.5v2.5h2.5z"/></svg>