<svg xmlns="http://www.w3.org/2000/svg" width="24" height="24" viewBox="0 0 24 24"><path d="M0 9v14h24v-14h-24zm16 3h2v2h-2v-2zm-3 0h2v2h-2v-2zm3 3v2h-2v-2h2zm-6-3h2v2h-2v-2zm3 3v2h-2v-2h2zm-6-3h2v2h-2v-2zm3 3v2h-2v-2h2zm-7-3h3v2h-3v-2zm0 3h4v2h-4v-2zm14 5h-10v-2h10v2zm4-3h-4v-2h4v2zm0-3h-2v-2h2v2zm-9.358-8.812c-1.036-.043-2.293-.086-3.049-1.027-.393-.489-.594-1.136-.594-1.847 0-.422.071-.867.217-1.314l1.206.363c-.205.634-.269 1.506.172 2.054.45.56 1.392.512 2.376.584 2.134.155 3.03 1.423 3.03 2.678 0 .461-.121.92-.345 1.321h-1.569c1.016-.804 1.06-2.706-1.444-2.812z"/></svg>