<svg xmlns="http://www.w3.org/2000/svg" width="24" height="24" viewBox="0 0 24 24"><path d="M22 11v10h-20v-10h20zm2-2h-24v14h24v-14zm-18 3h-3v2h3v-2zm3 0h-2v2h2v-2zm3 0h-2v2h2v-2zm3 0h-2v2h2v-2zm3 0h-2v2h2v-2zm3 0h-2v2h2v-2zm-4 6h-10v2h10v-2zm4-3h-4v2h4v-2zm-14 0h-4v2h4v-2zm3 0h-2v2h2v-2zm3 0h-2v2h2v-2zm3 0h-2v2h2v-2zm-9.019-11.921c1.285-1.285 3.059-2.079 5.019-2.079s3.734.794 5.019 2.079l-.854.852c-1.065-1.066-2.539-1.725-4.165-1.725-1.627 0-3.1.659-4.165 1.725l-.854-.852zm2.392 2.391c.673-.672 1.602-1.087 2.627-1.087s1.954.416 2.627 1.087l.874-.875c-.896-.896-2.134-1.45-3.501-1.45s-2.604.554-3.501 1.45l.874.875zm1.53 1.53c.28-.28.669-.454 1.097-.454s.815.174 1.097.454l.859-.86c-.5-.501-1.192-.81-1.956-.81-.765 0-1.456.31-1.957.811l.86.859z"/></svg>