<svg xmlns="http://www.w3.org/2000/svg" width="24" height="24" viewBox="0 0 24 24"><path d="M18.132 9.103l-.979.166-1.867 5.654 1.017-.199.442-1.444 1.765-.333.44 1.26 1.05-.207-1.868-4.897zm-1.108 3.272l.61-2 .604 1.776-1.214.224zm-9.154-1l.102-.493-.836-.365-.083.408c-.282-.107-.583-.179-.887-.21.007-.228.019-.45.037-.663l.934.205-.003-.887-.821-.182.108-.466-.815-.457c-.06.212-.109.42-.159.731l-.931-.207v.894l.83.183c-.022.284-.035.58-.039.881-2 .399-1.492 2.981.097 3.148 1.067.112 1.779-.642 2.194-1.661.432.37.613.876.452 1.273-.15.368-.592.657-1.44.462l.001.957c.941.209 1.866.001 2.226-.885.352-.864-.055-1.977-.967-2.666zm-2.54.416c.024.411.065.793.122 1.138-.76-.003-.791-.854-.122-1.138zm.912.804c-.035-.283-.059-.59-.071-.916.203.014.408.052.601.111-.133.302-.308.594-.53.805zm5.758-7.888c-2.938-1.83-7.416-2.567-12-2.707v17.714c3.937.12 7.795.681 10.667 1.995.846.388 1.817.388 2.667 0 2.872-1.314 6.729-1.875 10.666-1.995v-17.714c-4.584.14-9.062.877-12 2.707zm-10 13.104v-13.704c5.157.389 7.527 1.463 9 2.334v13.168c-1.525-.546-4.716-1.505-9-1.798zm20 0c-4.283.293-7.475 1.252-9 1.799v-13.171c1.453-.861 3.83-1.942 9-2.332v13.704z"/></svg>