<svg xmlns="http://www.w3.org/2000/svg" width="24" height="24" viewBox="0 0 24 24"><path d="M14.748 11.191c.03.473.084.909.158 1.298-.998.183-1.038-.801-.158-1.298zm-7.461.274h1.708l-.856-2.451-.852 2.451zm16.713-.458c0 6.052-6.732 11.705-15.968 9.458-1.678 1.027-5.377 2.065-7.978 2.535.971-1.912 2.048-4.538 1.993-6.368-1.308-1.562-2.047-3.575-2.047-5.625 0-5.781 5.662-10.007 12-10.007 6.299 0 12 4.195 12 10.007zm-12.749 2.993l-2.47-6.5h-1.302l-2.479 6.5h1.392l.535-1.5h2.438l.537 1.5h1.349zm6.837-3.937c.062-.243.1-.426.135-.605l-1.1-.214-.109.5c-.371-.054-.767-.061-1.166-.021.009-.268.025-.531.049-.784h1.229v-1.042h-1.081c.054-.265.099-.424.144-.575l-1.075-.322c-.079.263-.145.521-.211.897h-1.226v1.042h1.092c-.028.337-.046.686-.051 1.038-1.206.443-1.718 1.288-1.718 2.053 0 .904.714 1.7 1.842 1.598 1.401-.128 2.337-1.186 2.885-2.487.567.327.805.876.591 1.385-.197.471-.78.919-1.892.896v1.121c1.234.019 2.448-.45 2.925-1.583.464-1.107-.067-2.317-1.263-2.897zm-2.144 1.841c.293-.303.522-.688.697-1.075-.253-.021-.522-.014-.79.021.017.378.048.731.093 1.054z"/></svg>