<svg xmlns="http://www.w3.org/2000/svg" width="24" height="24" viewBox="0 0 24 24"><path d="M11.088 8.063c.062-.243.1-.426.135-.605l-1.1-.214-.109.5c-.371-.055-.767-.061-1.166-.021.009-.268.025-.531.049-.784h1.229v-1.042h-1.082c.054-.265.099-.424.144-.575l-1.074-.322c-.079.263-.144.521-.211.897h-1.225v1.042h1.092c-.029.336-.046.685-.051 1.038-1.207.443-1.719 1.288-1.719 2.053 0 .904.714 1.7 1.842 1.598 1.401-.128 2.337-1.186 2.885-2.487.567.327.805.876.591 1.385-.197.471-.78.919-1.892.896v1.121c1.234.019 2.448-.45 2.925-1.583.464-1.107-.067-2.317-1.263-2.897zm-1.446.766c-.175.387-.405.772-.698 1.075-.045-.323-.076-.676-.092-1.054.267-.035.537-.041.79-.021zm-1.894.362c.03.473.084.909.158 1.298-.998.183-1.038-.801-.158-1.298zm-5.748.161c0 1.873.849 2.943 1.683 3.943.031 1 .085 1.668-.333 3.183 1.748-.558 2.038-.778 3.008-1.374 1 .244 1.474.381 2.611.491-.094.708-.081 1.275.055 2.023-.752-.06-1.528-.178-2.33-.374-1.397.857-4.481 1.725-6.649 2.115.811-1.595 1.708-3.785 1.661-5.312-1.091-1.305-1.706-2.985-1.706-4.695 0-4.826 4.719-8.352 10-8.352 5.237 0 9.977 3.484 9.998 8.318-.644-.175-1.322-.277-2.021-.314-.229-3.34-3.713-6.004-7.977-6.004-4.411 0-8 2.85-8 6.352zm15.657 5.429l.725 2.074h-1.445l.72-2.074zm6.343 1.666c0-3.158-3.089-5.467-6.546-5.467-3.436 0-6.546 2.293-6.546 5.467 0 2.8 2.633 5.442 6.498 5.442.699 0 1.44-.087 2.213-.274.914.561 2.933 1.127 4.352 1.385-.53-1.045-1.117-2.479-1.088-3.479.714-.853 1.117-1.954 1.117-3.074zm-4.851 2.553l-.456-1.27h-2.062l-.451 1.27h-1.18l2.099-5.5h1.101l2.091 5.5h-1.142z"/></svg>