<svg xmlns="http://www.w3.org/2000/svg" width="24" height="24" viewBox="0 0 24 24"><path d="M21 10h-8c-1.657 0-3 1.343-3 3v8c0 1.657 1.343 3 3 3h8c1.657 0 3-1.343 3-3v-8c0-1.657-1.343-3-3-3zm-1.865 11l-.66-1.846h-3l-.663 1.846h-1.66l3.041-8h1.602l3.053 8h-1.713zm-2.153-6.137l1.051 3.018h-2.103l1.052-3.018zm-11.837-6.977c.038.581.104 1.116.194 1.593-1.224.224-1.274-.984-.194-1.593zm8.855-4.886v5h-1c-.743 0-1.442.173-2.076.465-.196-.806-.783-1.53-1.679-1.964.077-.298.123-.522.167-.744l-1.35-.262c-.023.113-.063.328-.136.614-.456-.066-.94-.075-1.431-.025.011-.329.032-.653.06-.963h1.507v-1.279h-1.326c.065-.326.121-.521.176-.705l-1.317-.396c-.097.323-.178.64-.259 1.101h-1.504v1.278h1.341c-.036.414-.057.842-.064 1.275-1.48.544-2.109 1.581-2.109 2.521 0 1.11.876 2.086 2.261 1.96 1.72-.156 2.869-1.456 3.542-3.053.885.536.838 1.161.773 1.552-.966.913-1.576 2.196-1.576 3.625v1h-5c-1.657 0-3-1.343-3-3v-8c0-1.657 1.343-3 3-3h8c1.657 0 3 1.343 3 3zm-7.5 4.467c.327-.042.658-.05.969-.026-.214.476-.496.948-.855 1.319-.055-.396-.093-.83-.114-1.293z"/></svg>