<svg xmlns="http://www.w3.org/2000/svg" width="24" height="24" viewBox="0 0 24 24"><path d="M22 6v16h-16v-16h16zm2-2h-20v20h20v-20zm-24-4v20h2v-18h18v-2h-20zm14.007 11.225c-3.154 0-5.007 2.597-5.007 2.597s2.015 2.953 5.007 2.953c3.222 0 4.993-2.953 4.993-2.953s-1.788-2.597-4.993-2.597zm.042 4.717c-1.072 0-1.941-.87-1.941-1.942s.869-1.942 1.941-1.942 1.941.87 1.941 1.942-.869 1.942-1.941 1.942zm1.092-1.942c0 .604-.488 1.093-1.092 1.093s-1.092-.489-1.092-1.093l.02-.211c.537.196 1.065-.321.875-.863l.197-.019c.603 0 1.092.489 1.092 1.093z"/></svg>