<svg xmlns="http://www.w3.org/2000/svg" width="24" height="24" viewBox="0 0 24 24"><path d="M20 0v2h-18v18h-2v-20h20zm4 22.15l-1.85 1.85-8.906-9.196 1.85-1.85 8.906 9.196zm-6.718-5.902l-2.188-2.189-.745.746 2.188 2.189.745-.746zm.147 5.752h-11.429v-16h16v11.21l2 2.065v-15.275h-20v20h15.366l-1.937-2zm.86-11.987c.253.825.898 1.471 1.724 1.723-.825.252-1.471.897-1.724 1.723-.251-.826-.897-1.471-1.723-1.723.826-.252 1.472-.898 1.723-1.723zm-8.017 4.243c.333 1.095 1.191 1.951 2.285 2.285-1.094.334-1.952 1.191-2.285 2.285-.335-1.094-1.191-1.951-2.285-2.285 1.095-.334 1.951-1.19 2.285-2.285zm3.138-3.739c.177.584.635 1.041 1.219 1.219-.584.178-1.042.635-1.219 1.219-.179-.584-.636-1.041-1.22-1.219.584-.178 1.041-.635 1.22-1.219z"/></svg>