<svg xmlns="http://www.w3.org/2000/svg" width="24" height="24" viewBox="0 0 24 24"><path d="M12 0c-6.627 0-12 5.373-12 12s5.373 12 12 12 12-5.373 12-12-5.373-12-12-12zm8.975 16.383l-2.607-1.485c.402-.884.632-1.863.632-2.898s-.23-2.014-.633-2.897l2.607-1.485c.651 1.325 1.026 2.809 1.026 4.382s-.375 3.057-1.025 4.383zm-18.975-4.383c0-1.573.375-3.057 1.025-4.383l2.607 1.485c-.402.884-.632 1.863-.632 2.898s.23 2.014.633 2.897l-2.607 1.485c-.651-1.325-1.026-2.809-1.026-4.382zm5 0c0-2.757 2.243-5 5-5s5 2.243 5 5-2.243 5-5 5-5-2.243-5-5zm9.396-8.968l-1.484 2.608c-.888-.407-1.872-.64-2.912-.64s-2.024.233-2.912.64l-1.484-2.608c1.328-.654 2.817-1.032 4.396-1.032s3.068.378 4.396 1.032zm-8.792 17.936l1.484-2.608c.888.407 1.872.64 2.912.64s2.024-.233 2.912-.64l1.484 2.608c-1.328.654-2.817 1.032-4.396 1.032s-3.068-.378-4.396-1.032zm2.824-8.418c0 .4-.294.872-1.121.872-.26 0-.574-.058-.807-.188l.144-.584c.219.116.451.188.704.188.239 0 .376-.089.376-.246 0-.137-.103-.222-.417-.328-.513-.181-.766-.465-.766-.837 0-.496.431-.844 1.053-.844.273 0 .506.048.704.14l.034.014-.164.574c-.178-.092-.355-.147-.581-.147-.239 0-.342.106-.342.212 0 .137.116.205.465.335.492.18.718.446.718.839zm1.586-1.975c-.786 0-1.34.591-1.34 1.442 0 .844.52 1.408 1.299 1.408.827 0 1.36-.571 1.36-1.453 0-.837-.526-1.397-1.319-1.397zm-.007 2.283c-.369 0-.608-.335-.608-.851 0-.526.239-.865.608-.865.41 0 .595.427.595.851 0 .527-.233.865-.595.865zm3.493-.308c0 .4-.294.872-1.121.872-.26 0-.574-.058-.807-.188l.144-.584c.219.116.451.188.704.188.239 0 .376-.089.376-.246 0-.137-.103-.222-.417-.328-.506-.181-.766-.465-.766-.837 0-.496.431-.844 1.053-.844.273 0 .506.048.704.14l.034.014-.164.573c-.178-.092-.355-.147-.581-.147-.239 0-.342.106-.342.212 0 .137.116.205.465.335.492.181.718.447.718.84z"/></svg>