<svg xmlns="http://www.w3.org/2000/svg" width="24" height="24" viewBox="0 0 24 24"><path d="M12 0c-6.627 0-12 5.373-12 12s5.373 12 12 12 12-5.373 12-12-5.373-12-12-12zm8.975 7.617l-2.607 1.485c-.697-1.53-1.928-2.762-3.455-3.462l1.484-2.608c1.988.979 3.601 2.595 4.578 4.585zm-8.975 9.383c-2.757 0-5-2.243-5-5s2.243-5 5-5 5 2.243 5 5-2.243 5-5 5zm-4.397-13.968l1.485 2.608c-1.527.701-2.757 1.933-3.455 3.463l-2.608-1.486c.976-1.99 2.59-3.606 4.578-4.585zm-4.578 13.351l2.608-1.485c.697 1.53 1.927 2.762 3.455 3.462l-1.485 2.608c-1.988-.979-3.602-2.595-4.578-4.585zm13.371 4.585l-1.484-2.608c1.527-.701 2.758-1.933 3.455-3.462l2.607 1.485c-.976 1.99-2.589 3.606-4.578 4.585z"/></svg>