<svg xmlns="http://www.w3.org/2000/svg" width="24" height="24" viewBox="0 0 24 24"><path d="M12 0c-6.627 0-12 5.373-12 12s5.373 12 12 12 12-5.373 12-12-5.373-12-12-12zm8.975 16.383l-2.608-1.485c.403-.884.633-1.863.633-2.898s-.23-2.014-.633-2.897l2.608-1.485c.65 1.325 1.025 2.809 1.025 4.382s-.375 3.057-1.025 4.383zm-18.975-4.383c0-1.573.375-3.057 1.025-4.383l2.608 1.485c-.403.884-.633 1.863-.633 2.898s.23 2.014.633 2.897l-2.608 1.485c-.65-1.325-1.025-2.809-1.025-4.382zm5 0c0-2.757 2.243-5 5-5s5 2.243 5 5-2.243 5-5 5-5-2.243-5-5zm9.397-8.968l-1.485 2.608c-.888-.407-1.872-.64-2.912-.64s-2.024.233-2.912.64l-1.485-2.608c1.329-.654 2.818-1.032 4.397-1.032s3.068.378 4.397 1.032zm-8.794 17.936l1.485-2.608c.888.407 1.872.64 2.912.64s2.024-.233 2.912-.64l1.485 2.608c-1.329.654-2.818 1.032-4.397 1.032s-3.068-.378-4.397-1.032z"/></svg>