<svg xmlns="http://www.w3.org/2000/svg" width="24" height="24" viewBox="0 0 24 24"><path d="M23.598 8.915c-.316-1.404-.365-2.48-.416-3.371-.166-2.951-1.579-4.774-4.89-4.828-.909-.015-1.997-.036-3.521-.396-.896-.21-1.828-.32-2.77-.32-1.053 0-2.12.137-3.167.423-1.285.262-2.244.281-3.058.294-3.31.053-4.723 1.876-4.889 4.827-.042.735-.083 1.597-.274 2.664-.402 1.209-.613 2.493-.613 3.796 0 1.265.198 2.545.613 3.789.19 1.066.231 1.928.273 2.663.166 2.951 1.579 4.774 4.89 4.827.814.013 1.773.032 3.061.295 1.033.281 2.099.422 3.163.422.932 0 1.862-.108 2.771-.322 1.523-.36 2.611-.38 3.521-.395 3.311-.053 4.724-1.876 4.89-4.827.051-.889.1-1.961.414-3.36.269-1.012.404-2.053.404-3.095 0-1.038-.135-2.077-.402-3.086zm-1.414-3.314l.005.089c-1.011-1.632-2.408-2.991-4.057-3.977l.144.003c2.553.042 3.759 1.24 3.908 3.885zm-15.184 6.399c0-2.757 2.243-5 5-5s5 2.243 5 5-2.243 5-5 5-5-2.243-5-5zm2.088-6.36c-1.527.701-2.758 1.933-3.455 3.463l-2.608-1.486c.977-1.99 2.59-3.606 4.578-4.585l1.485 2.608zm-3.455 9.257c.697 1.53 1.928 2.762 3.455 3.462l-1.484 2.608c-1.988-.979-3.602-2.595-4.578-4.585l2.607-1.485zm9.279 3.463c1.527-.701 2.758-1.933 3.455-3.462l2.607 1.485c-.977 1.99-2.59 3.606-4.578 4.585l-1.484-2.608zm3.455-9.257c-.697-1.53-1.928-2.762-3.455-3.462l1.484-2.608c1.988.979 3.602 2.595 4.578 4.585l-2.607 1.485zm-12.574-7.386l.073-.001c-1.609.961-2.973 2.282-3.978 3.861.154-2.627 1.359-3.819 3.905-3.86zm-3.905 16.71c1.007 1.579 2.373 2.897 3.983 3.858l-.078-.002c-2.544-.041-3.749-1.232-3.905-3.856zm16.387 3.856l-.146.003c1.653-.987 3.047-2.353 4.06-3.988l-.006.101c-.148 2.645-1.354 3.843-3.908 3.884z"/></svg>