<svg xmlns="http://www.w3.org/2000/svg" width="24" height="24" viewBox="0 0 24 24"><path d="M23.598 8.915c-.317-1.404-.366-2.48-.416-3.371-.167-2.951-1.58-4.774-4.89-4.828-.909-.015-1.997-.036-3.521-.396-.896-.21-1.827-.32-2.77-.32-1.053 0-2.12.137-3.167.423-1.286.262-2.244.281-3.058.294-3.31.053-4.723 1.876-4.89 4.827-.041.735-.082 1.597-.273 2.664-.403 1.208-.613 2.493-.613 3.795 0 1.265.199 2.546.613 3.79.191 1.066.232 1.928.273 2.663.167 2.951 1.58 4.774 4.89 4.827.814.013 1.773.032 3.061.295 1.033.281 2.099.422 3.163.422.932 0 1.862-.108 2.771-.322 1.524-.36 2.612-.38 3.521-.395 3.311-.053 4.724-1.876 4.89-4.827.05-.889.099-1.961.414-3.36.269-1.012.404-2.053.404-3.095 0-1.038-.134-2.077-.402-3.086zm-1.414-3.314l.006.106c-1.012-1.636-2.401-3.006-4.053-3.994l.139.003c2.553.042 3.759 1.24 3.908 3.885zm-3.817 3.502l2.608-1.485c.65 1.325 1.025 2.809 1.025 4.382s-.375 3.057-1.025 4.383l-2.608-1.485c.403-.884.633-1.863.633-2.898s-.23-2.014-.633-2.897zm-6.367 12.897c-1.579 0-3.068-.378-4.397-1.032l1.485-2.608c.888.407 1.872.64 2.912.64s2.024-.233 2.912-.64l1.485 2.608c-1.329.654-2.818 1.032-4.397 1.032zm0-5c-2.757 0-5-2.243-5-5s2.243-5 5-5 5 2.243 5 5-2.243 5-5 5zm0-15c1.579 0 3.068.378 4.397 1.032l-1.485 2.608c-.888-.407-1.872-.64-2.912-.64s-2.024.233-2.912.64l-1.485-2.608c1.329-.654 2.818-1.032 4.397-1.032zm-6.208-.283l.066-.001c-1.606.961-2.967 2.283-3.971 3.86.156-2.627 1.361-3.818 3.905-3.859zm-.159 13.18l-2.608 1.485c-.65-1.325-1.025-2.809-1.025-4.382s.375-3.057 1.025-4.383l2.608 1.485c-.403.884-.633 1.863-.633 2.898s.23 2.014.633 2.897zm-3.744 3.536c1.005 1.578 2.374 2.892 3.981 3.852l-.078-.002c-2.541-.041-3.746-1.23-3.903-3.85zm16.387 3.85l-.15.003c1.654-.987 3.051-2.351 4.064-3.987l-.006.101c-.149 2.644-1.355 3.842-3.908 3.883z"/></svg>