<svg xmlns="http://www.w3.org/2000/svg" width="24" height="24" viewBox="0 0 24 24"><path d="M12 0c-6.627 0-12 5.373-12 12s5.373 12 12 12 12-5.373 12-12-5.373-12-12-12zm8.975 16.383l-2.607-1.485c.402-.884.632-1.863.632-2.898s-.23-2.014-.633-2.897l2.607-1.485c.651 1.325 1.026 2.809 1.026 4.382s-.375 3.057-1.025 4.383zm-18.975-4.383c0-1.573.375-3.057 1.025-4.383l2.607 1.485c-.402.884-.632 1.863-.632 2.898s.23 2.014.633 2.897l-2.607 1.485c-.651-1.325-1.026-2.809-1.026-4.382zm5 0c0-2.757 2.243-5 5-5s5 2.243 5 5-2.243 5-5 5-5-2.243-5-5zm9.396-8.968l-1.484 2.608c-.888-.407-1.872-.64-2.912-.64s-2.024.233-2.912.64l-1.484-2.608c1.328-.654 2.817-1.032 4.396-1.032s3.068.378 4.396 1.032zm-8.792 17.936l1.484-2.608c.888.407 1.872.64 2.912.64s2.024-.233 2.912-.64l1.484 2.608c-1.328.654-2.817 1.032-4.396 1.032s-3.068-.378-4.396-1.032zm7.396-7.968h-2v2h-2v-2h-2v-2h2v-2h2v2h2v2z"/></svg>