<svg xmlns="http://www.w3.org/2000/svg" width="24" height="24" viewBox="0 0 24 24"><path d="M19 6.734c0 4.164-3.75 6.98-3.75 10.266h-1.992c.001-2.079.996-3.826 1.968-5.513.913-1.585 1.774-3.083 1.774-4.753 0-3.108-2.518-4.734-5.004-4.734-2.482 0-4.996 1.626-4.996 4.734 0 1.67.861 3.168 1.774 4.753.972 1.687 1.966 3.434 1.967 5.513h-1.991c0-3.286-3.75-6.103-3.75-10.266 0-4.343 3.498-6.734 6.996-6.734 3.502 0 7.004 2.394 7.004 6.734zm-4 11.766c0 .276-.224.5-.5.5h-5c-.276 0-.5-.224-.5-.5s.224-.5.5-.5h5c.276 0 .5.224.5.5zm0 2c0 .276-.224.5-.5.5h-5c-.276 0-.5-.224-.5-.5s.224-.5.5-.5h5c.276 0 .5.224.5.5zm-1.701 3.159c-.19.216-.465.341-.752.341h-1.094c-.287 0-.562-.125-.752-.341l-1.451-1.659h5.5l-1.451 1.659zm.607-16.647c.56 0 1.013-.454 1.013-1.013 0-.559-.453-1.013-1.013-1.013s-1.014.454-1.014 1.013c.001.56.455 1.013 1.014 1.013zm-3.812 0c.56 0 1.014-.454 1.014-1.013 0-.559-.454-1.013-1.014-1.013-.559 0-1.013.454-1.013 1.013 0 .56.454 1.013 1.013 1.013zm1.906 1.335c-1.303 0-2.33.805-3.027 1.591l.312.434c.755-.486 1.602-.784 2.715-.784s1.96.298 2.715.784l.312-.434c-.697-.787-1.724-1.591-3.027-1.591z"/></svg>