<svg xmlns="http://www.w3.org/2000/svg" width="24" height="24" viewBox="0 0 24 24"><path d="M19 6.734c0 4.164-3.75 6.98-3.75 10.266h-1.992c.001-2.079.997-3.826 1.968-5.513.912-1.585 1.774-3.083 1.774-4.753 0-3.108-2.517-4.734-5.004-4.734-2.483 0-4.996 1.626-4.996 4.734 0 1.67.862 3.168 1.774 4.753.971 1.687 1.966 3.434 1.967 5.513h-1.991c0-3.286-3.75-6.103-3.75-10.266 0-4.343 3.498-6.734 6.996-6.734 3.502 0 7.004 2.394 7.004 6.734zm-4 11.766c0 .276-.224.5-.5.5h-5c-.276 0-.5-.224-.5-.5s.224-.5.5-.5h5c.276 0 .5.224.5.5zm0 2c0 .276-.224.5-.5.5h-5c-.276 0-.5-.224-.5-.5s.224-.5.5-.5h5c.276 0 .5.224.5.5zm-1.701 3.159c-.19.216-.465.341-.753.341h-1.093c-.288 0-.562-.125-.752-.341l-1.451-1.659h5.5l-1.451 1.659zm7.584-12.302l-1.037-.478c1.155-2.502 1.32-5.031.49-7.518l1.085-.361c.387 1.159.579 2.326.579 3.494 0 1.624-.373 3.25-1.117 4.863zm-17.766 0l1.037-.478c-1.154-2.502-1.32-5.031-.49-7.518l-1.084-.361c-.387 1.16-.58 2.327-.58 3.496 0 1.623.373 3.249 1.117 4.861zm10.288-3.827h2.134c0-1.314-.714-2.461-1.774-3.076l-1.068 1.849c.423.245.708.703.708 1.227zm-.708 1.226l1.068 1.849c-.522.302-1.129.475-1.776.475-.646 0-1.253-.172-1.775-.475l1.067-1.849c.447.259.987.248 1.416 0zm-2.125-1.226h-2.134c0-1.314.713-2.461 1.775-3.076l1.067 1.849c-.423.245-.708.703-.708 1.227zm.603 0c0-.45.365-.813.813-.813.45 0 .814.364.814.813 0 .449-.365.813-.814.813-.448 0-.813-.364-.813-.813z"/></svg>