<svg xmlns="http://www.w3.org/2000/svg" width="24" height="24" viewBox="0 0 24 24"><path d="M9.25 22h5.5l-1.451 1.659c-.19.216-.465.341-.753.341h-1.093c-.288 0-.562-.125-.752-.341l-1.451-1.659zm-.535-5.514c.019.171.035.342.035.514h6.5c0-3.171 3.483-5.91 3.727-9.84l-10.262 9.326zm5.785 1.514h-5c-.276 0-.5.224-.5.5s.224.5.5.5h5c.276 0 .5-.224.5-.5s-.224-.5-.5-.5zm0 2h-5c-.276 0-.5.224-.5.5s.224.5.5.5h5c.276 0 .5-.224.5-.5s-.224-.5-.5-.5zm7.149-20l-3.594 3.263c-1.268-2.116-3.654-3.263-6.059-3.263-3.498 0-6.996 2.391-6.996 6.734 0 2.427 1.268 4.396 2.33 6.267l-6.33 5.733 1.346 1.5 20.654-18.75-1.351-1.484z"/></svg>