<svg width="24" height="24" xmlns="http://www.w3.org/2000/svg" fill-rule="evenodd" clip-rule="evenodd"><path d="M12 0c-6.626 0-12 5.372-12 12 0 6.627 5.374 12 12 12 6.627 0 12-5.373 12-12 0-6.628-5.373-12-12-12zm7 11.681c0-3.133-3.14-5.681-7-5.681s-7 2.548-7 5.681c0 2.808 2.49 5.159 5.854 5.604.228.049.538.15.617.345.071.177.046.454.022.633l-.099.599c-.031.177-.141.692.606.378.747-.315 4.031-2.374 5.5-4.064 1.014-1.113 1.5-2.242 1.5-3.495zm-9.606 1.808h-1.961l-.095-.038-.001-.001-.003-.003-.038-.094v-3.05c0-.075.061-.136.137-.136h.491c.075 0 .136.061.136.136v2.422h1.334c.075.001.136.062.136.137v.491c0 .075-.061.136-.136.136zm7.275 0h-1.962l-.094-.038-.004-.004-.038-.094v-3.05l.038-.094.004-.004.094-.038h1.962c.075 0 .136.061.136.136v.491c0 .076-.061.137-.136.137h-1.334v.515h1.334c.075 0 .136.061.136.137v.491c0 .075-.061.136-.136.136h-1.334v.515h1.334c.075.001.136.062.136.137v.491c0 .075-.061.136-.136.136zm-6.091 0h-.491c-.076 0-.137-.061-.137-.136v-3.05c0-.075.061-.136.137-.136h.491c.075 0 .136.061.136.136v3.05c0 .075-.061.136-.136.136zm1.241 0h-.491c-.075 0-.137-.061-.137-.136v-3.05c0-.075.062-.136.137-.136h.491l.012.001.013.001.007.002.013.004.005.001.012.006.011.006.007.005.014.011.009.01.01.013 1.398 1.888v-1.812c0-.075.061-.136.136-.136h.491c.076 0 .137.061.137.136v3.05c0 .075-.061.136-.137.136h-.491l-.035-.004-.002-.001-.013-.004-.007-.003-.01-.005-.008-.006-.002-.001-.034-.033-1.4-1.89v1.811c0 .075-.061.136-.136.136z"/></svg>