<svg width="24" height="24" xmlns="http://www.w3.org/2000/svg" fill-rule="evenodd" clip-rule="evenodd"><path d="M12 0c-6.627 0-12 5.373-12 12s5.373 12 12 12 12-5.373 12-12-5.373-12-12-12zm0 2c5.514 0 10 4.486 10 10s-4.486 10-10 10-10-4.486-10-10 4.486-10 10-10zm6 9.869c0-2.685-2.691-4.869-6-4.869-3.308 0-6 2.184-6 4.869 0 2.407 2.135 4.423 5.018 4.804.195.042.461.129.529.296.06.151.039.389.019.542l-.086.514c-.026.152-.12.593.52.323.64-.27 3.455-2.034 4.714-3.483.87-.954 1.286-1.921 1.286-2.996zm-9.377.896v-2.077c0-.064-.052-.116-.117-.116h-.421c-.064 0-.117.052-.117.116v2.615l.033.08.003.004.081.032h1.681c.065 0 .117-.052.117-.117v-.42c0-.065-.052-.117-.117-.117h-1.143zm7.379-1.539c.064 0 .116-.052.116-.117v-.42c0-.065-.052-.117-.116-.117h-1.682l-.081.033-.003.003-.032.08v2.615l.032.08.004.004.08.032h1.682c.064 0 .116-.052.116-.116v-.421c0-.065-.052-.117-.116-.117h-1.144v-.442h1.144c.064 0 .116-.053.116-.117v-.421c0-.064-.052-.117-.116-.117h-1.144v-.442h1.144zm-5.221 2.193c.064 0 .117-.052.117-.116v-2.615c0-.064-.053-.116-.117-.116h-.421c-.064 0-.117.052-.117.116v2.615c0 .064.053.116.117.116h.421zm2.897 0c.064 0 .117-.052.117-.116v-2.615c0-.064-.053-.116-.117-.116h-.421c-.065 0-.117.052-.117.116v1.554l-1.198-1.618-.009-.012-.008-.008-.011-.01-.006-.004-.01-.006-.011-.004-.01-.004-.011-.002-.011-.002h-.431c-.065 0-.117.052-.117.116v2.615c0 .064.052.116.117.116h.421c.064 0 .117-.052.117-.116v-1.553l1.199 1.62.03.029.008.005.009.005.006.002.011.004h.002l.03.004h.421z"/></svg>