<svg width="24" height="24" xmlns="http://www.w3.org/2000/svg" fill-rule="evenodd" clip-rule="evenodd"><path d="M24 10.304c0-5.369-5.383-9.738-12-9.738-6.616 0-12 4.369-12 9.738 0 4.814 4.269 8.846 10.036 9.608.391.084.922.258 1.057.592.121.303.079.778.039 1.085l-.171 1.027c-.053.303-.242 1.186 1.039.647 1.281-.54 6.911-4.069 9.428-6.967 1.739-1.907 2.572-3.843 2.572-5.992zm-18.988-2.595c.129 0 .234.105.234.234v4.153h2.287c.129 0 .233.104.233.233v.842c0 .129-.104.234-.233.234h-3.363c-.063 0-.119-.025-.161-.065l-.001-.001-.002-.002-.001-.001-.003-.003c-.04-.042-.065-.099-.065-.161v-5.229c0-.129.104-.234.233-.234h.842zm14.992 0c.129 0 .233.105.233.234v.842c0 .129-.104.234-.233.234h-2.287v.883h2.287c.129 0 .233.105.233.234v.842c0 .129-.104.234-.233.234h-2.287v.884h2.287c.129 0 .233.105.233.233v.842c0 .129-.104.234-.233.234h-3.363c-.063 0-.12-.025-.162-.065l-.003-.004-.003-.003c-.04-.042-.066-.099-.066-.161v-5.229c0-.062.025-.119.065-.161l.004-.004.003-.003c.042-.04.099-.066.162-.066h3.363zm-10.442.001c.129 0 .234.104.234.233v5.229c0 .128-.105.233-.234.233h-.842c-.129 0-.234-.105-.234-.233v-5.229c0-.129.105-.233.234-.233h.842zm2.127 0h.008l.012.001.013.001.01.001.013.003.008.003.014.004.008.003.013.006.007.003.013.007.007.004.012.009.006.004.013.011.004.004.014.014.002.002.018.023 2.396 3.236v-3.106c0-.129.105-.233.234-.233h.841c.13 0 .234.104.234.233v5.229c0 .128-.104.233-.234.233h-.841l-.06-.008-.004-.001-.015-.005-.007-.003-.012-.004-.011-.006-.007-.003-.014-.009-.002-.002-.06-.058-2.399-3.24v3.106c0 .128-.104.233-.234.233h-.841c-.129 0-.234-.105-.234-.233v-5.229c0-.129.105-.233.234-.233h.841z"/></svg>