<svg xmlns="http://www.w3.org/2000/svg" width="24" height="24" viewBox="0 0 24 24"><path d="M17.293 19.663l-1.727.245.523 3.696 1.73-.245-.526-3.696zm2.649-4.132l-.246 1.729 3.698.524.246-1.726-3.698-.527zm.596 6.189l1.232-1.233-2.645-2.642-1.231 1.234 2.644 2.641zm.459-20.916c2.87 1.659 3.854 5.328 2.198 8.196l-2.752 4.767-1.737-1 2.754-4.766c1.104-1.911.447-4.362-1.466-5.464-1.911-1.103-4.362-.447-5.465 1.464l-2.752 4.765-1.735-1 2.752-4.765c1.658-2.87 5.33-3.853 8.203-2.197zm-7.276 19.671l-4.715 2.72c-2.869 1.658-6.543.674-8.203-2.196-1.653-2.87-.673-6.541 2.198-8.196l4.715-2.721 1 1.732-4.713 2.722c-1.911 1.104-2.567 3.554-1.466 5.463 1.107 1.911 3.556 2.567 5.47 1.465l4.712-2.72 1.002 1.731z"/></svg>