<svg xmlns="http://www.w3.org/2000/svg" width="24" height="24" viewBox="0 0 24 24"><path d="M14.9 19.143l-2.78 2.779c-2.771 2.772-7.268 2.772-10.041 0-2.772-2.773-2.771-7.269 0-10.041l2.779-2.779 2.121 2.121-2.779 2.779c-1.598 1.598-1.598 4.2 0 5.797 1.6 1.6 4.201 1.6 5.799 0l2.779-2.777 2.122 2.121zm-3.02-17.063l-2.779 2.779 2.121 2.121 2.78-2.779c1.598-1.598 4.199-1.598 5.795.001 1.602 1.598 1.602 4.199.004 5.797l-2.779 2.779 2.121 2.121 2.779-2.778c2.771-2.773 2.771-7.269 0-10.041-2.774-2.772-7.27-2.772-10.042 0zm-5.945-.795l1.44-.204.438 3.083-1.438.205-.44-3.084zm-4.855 6.09l.206-1.441 3.084.44-.206 1.44-3.084-.439zm4.793-2.521l-1.028 1.03-2.205-2.203 1.029-1.029 2.204 2.202zm12.191 17.86l-1.441.204-.438-3.083 1.439-.205.44 3.084zm4.856-6.09l-.207 1.441-3.084-.439.207-1.441 3.084.439zm-4.793 2.52l1.027-1.029 2.205 2.204-1.029 1.029-2.203-2.204z"/></svg>