<svg xmlns="http://www.w3.org/2000/svg" width="24" height="24" viewBox="0 0 24 24"><path d="M23.739.293c-.392-.391-1.026-.391-1.417 0l-4.304 4.303c-2.571-1.836-6.31-1.481-8.789.998l-3.646 3.65c-2.479 2.478-2.835 6.213-.999 8.788l-4.259 4.258c-.392.392-.391 1.024 0 1.415.392.392 1.025.394 1.417.002l4.259-4.26c2.572 1.837 6.311 1.48 8.788-.998l3.649-3.649c2.478-2.478 2.834-6.215.996-8.789l4.305-4.302c.391-.39.391-1.025 0-1.416zm-6.718 13.09l-3.648 3.649c-1.683 1.682-4.149 2.025-5.925.968l2.738-2.736c.39-.392.39-1.026-.002-1.418-.39-.39-1.024-.39-1.416.001l-2.736 2.737c-1.058-1.777-.713-4.242.967-5.924l3.648-3.649c1.682-1.681 4.148-2.024 5.924-.966l-2.736 2.735c-.392.392-.391 1.025-.002 1.417.393.39 1.027.392 1.417 0l2.737-2.737c1.058 1.775.715 4.243-.966 5.923z"/></svg>