<svg xmlns="http://www.w3.org/2000/svg" width="24" height="24" viewBox="0 0 24 24"><path d="M21.337.458l-3.937 3.936c-2.449-1.466-5.67-1.144-7.78.966l-4.261 4.262c-2.11 2.11-2.433 5.331-.968 7.78l-3.935 3.935c-.609.609-.609 1.597 0 2.207s1.598.609 2.207 0l3.935-3.935c2.449 1.465 5.67 1.144 7.78-.967l4.261-4.261c2.11-2.11 2.433-5.331.968-7.781l3.936-3.936c.609-.609.609-1.597 0-2.207s-1.597-.609-2.206.001zm-4.862 11.757l-4.261 4.261c-.895.894-2.176 1.169-3.31.827l1.632-1.632c.609-.609.609-1.597 0-2.207s-1.598-.609-2.207 0l-1.631 1.632c-.343-1.133-.067-2.415.826-3.309l4.261-4.261c.895-.894 2.176-1.169 3.31-.827l-1.631 1.63c-.609.609-.609 1.597 0 2.207s1.598.609 2.207 0l1.63-1.63c.343 1.133.067 2.415-.826 3.309z"/></svg>