<svg xmlns="http://www.w3.org/2000/svg" width="24" height="24" viewBox="0 0 24 24"><path d="M17.006 16.112c-.321-.26-.196-.835-.53-1.119.323-1.963-.581-3.693-1.659-4.802-.905-.931-.613-1.836-.613-2.62 0-1.25-.514-2.571-2.071-2.571-1.665 0-2.121 1.389-2.137 2.181-.04 1.903.385 2.397-.729 3.782-1.31 1.629-1.504 3.254-1.208 4.116-.138.162-.325.34-.674.487-.963.42-.258 1.123-.524 1.622-.075.142-.111.29-.111.432 0 .438.348.816.979.76.852-.076 1.638.527 2.146.527.45 0 .818-.256.99-.607.803-.198 1.794-.173 2.597.034.146.404.537.666.971.666.952 0 1.135-1.079 2.226-1.444.393-.131.591-.513.591-.868 0-.227-.081-.443-.244-.576zm-5.336-6.104c-.186 0-.34-.151-.584-.332-.308-.229-.621-.361-.618-.601 0-.165.221-.216.507-.397.307-.195.426-.392.729-.392.309 0 .402.157.822.338.414.179.701.249.701.451 0 .207-.432.355-.676.506-.357.221-.54.427-.881.427zm.971-3.043c.515.082.573.986.326 1.432l-.207-.084c.107-.317.105-.838-.254-.872-.228-.021-.375.28-.407.538-.09-.037-.187-.064-.306-.074.038-.539.386-1.014.848-.94zm-1.985.193c.395-.099.627.36.629.837l-.181.111c-.024-.2-.114-.524-.337-.455-.24.074-.201.631-.067.746l-.178.099c-.246-.412-.246-1.243.134-1.338zm-1.234 11.225c-1.146-.521-1.534-.402-1.753-.402-.454 0-.602-.337-.431-.657.145-.271.1-.555.064-.783-.055-.35-.064-.464.279-.614.475-.202.687-.461.844-.656.442-.546.889.313 1.254 1.079.237.497.705.748.849 1.298.133.508-.414 1.05-1.106.735zm4.077-1.092c-.808.393-1.836.573-2.605.174-.114-.329-.296-.541-.491-.754.314-.083.547-.475.268-.869-.298-.42-.907-.714-1.522-1.19-.576-.445-.758-1.542.026-2.769-.382 1.086-.159 2.087.033 2.374.04-.577.085-1.539.873-2.692.397-.582.403-1.351.412-1.832l.361.248c.266.197.489.413.808.413.473 0 .734-.271 1.098-.497.143-.088.358-.176.539-.299.303 1.444 1.56 3.181 1.631 4.171.292-.602-.083-2.05-.083-2.05.491.75.53 1.374.552 2.141.344.141.712.507.746.99l-.143-.017c-.074-.536-1.521-1.323-1.651-.314-.694.105-.442 1.206-.581 1.918-.066.324-.186.583-.271.854zm2.826-.024c-.575.221-.963.692-1.229.985-.513.563-1.193.293-1.265-.234-.077-.564.21-.871.333-1.501.113-.576-.013-1.462.251-1.557.173 1.023 1.206.593 1.441.313.383 0 .416.129.501.489.054.225.128.414.337.636.245.26.17.66-.369.869zm-4.667-7.587c-.38 0-.664-.253-.895-.449-.119-.1.028-.284.147-.184.226.191.453.394.747.394.354 0 .666-.303 1.089-.47.144-.057.226.166.083.223-.409.162-.739.486-1.171.486zm-11.658-9.68v24h24v-24h-24zm16.977 18.504c-1 .334-.91 1.496-2.543 1.496-.64 0-1.23-.297-1.606-.777-.437-.069-.924-.08-1.374-.018-.391.442-.958.702-1.577.702-.587 0-1.587-.534-1.996-.534-1.474 0-2.13-.775-2.13-1.753 0-.266.059-.534.171-.784-.149-1 .041-1.722 1.039-2.174-.107-1.127.236-2.718 1.528-4.325.846-1.054.465-1.159.507-3.177.032-1.522 1.027-3.16 3.137-3.16 1.818 0 3.238 1.355 3.047 4.104-.045.647-.049.977.354 1.391.699.719 2.232 2.619 1.983 5.242.127.251.161.435.224.693.325.316.509.767.509 1.258 0 .833-.512 1.563-1.273 1.816z"/></svg>