<svg xmlns="http://www.w3.org/2000/svg" width="24" height="24" viewBox="0 0 24 24"><path d="M12 2c5.514 0 10 4.486 10 10s-4.486 10-10 10-10-4.486-10-10 4.486-10 10-10zm0-2c-6.627 0-12 5.373-12 12s5.373 12 12 12 12-5.373 12-12-5.373-12-12-12zm4.768 15.583l-.504-1.064c.307-1.87-.554-3.518-1.581-4.574-.862-.886-.584-1.748-.584-2.495 0-1.192-.488-2.45-1.972-2.45-1.585 0-2.02 1.323-2.035 2.077-.038 1.812.366 2.283-.693 3.603-1.248 1.552-1.433 3.099-1.15 3.92-.133.153-.311.323-.643.464-.918.4-.245 1.069-.499 1.544-.072.135-.107.275-.107.411 0 .417.331.777.934.723.812-.073 1.56.502 2.044.502.428 0 .779-.243.941-.578.766-.188 1.71-.165 2.475.032.138.385.51.634.924.634.906 0 1.081-1.027 2.12-1.375.374-.124.562-.487.562-.826 0-.216-.077-.422-.232-.548zm-5.082-5.814c-.177 0-.323-.143-.556-.315-.293-.218-.592-.344-.588-.572 0-.158.21-.206.482-.379.292-.185.406-.372.693-.372.294 0 .384.148.783.321.394.17.667.237.667.43 0 .197-.412.338-.643.481-.338.21-.514.406-.838.406zm.925-2.897c.489.078.544.939.31 1.363l-.197-.08c.103-.302.101-.799-.242-.83-.217-.02-.356.267-.387.512-.085-.036-.179-.061-.291-.071.036-.513.366-.965.807-.894zm-1.891.183c.375-.094.598.343.599.797l-.171.106c-.024-.19-.108-.499-.322-.433-.229.07-.191.601-.064.709l-.169.095c-.235-.392-.235-1.184.127-1.274zm-1.175 10.691c-1.091-.496-1.462-.383-1.67-.383-.433 0-.572-.322-.41-.626.138-.258.095-.529.061-.746-.053-.333-.061-.442.266-.585.452-.192.654-.439.804-.624.421-.521.847.298 1.195 1.027.227.473.671.712.808 1.236.125.484-.396 1-1.054.701zm3.882-1.041c-.77.374-1.748.545-2.481.166-.107-.313-.281-.515-.468-.719.3-.078.522-.452.255-.827-.283-.401-.863-.68-1.449-1.134-.549-.424-.722-1.468.024-2.637-.363 1.035-.15 1.988.032 2.261.037-.549.081-1.466.831-2.564.378-.554.384-1.287.393-1.745l.344.236c.253.187.466.394.77.394.45 0 .698-.259 1.046-.474.136-.083.341-.168.512-.285.289 1.375 1.487 3.03 1.555 3.973.277-.573-.08-1.952-.08-1.952.468.714.505 1.309.525 2.039.328.133.679.483.711.942l-.137-.016c-.069-.511-1.447-1.261-1.571-.299-.662.101-.421 1.148-.555 1.826-.062.311-.176.557-.257.815zm2.692-.023c-.547.211-.917.659-1.171.938-.489.537-1.136.28-1.204-.222-.073-.537.199-.83.317-1.43.106-.549-.013-1.393.239-1.482.163.974 1.147.564 1.372.298.364 0 .396.124.478.466.051.214.121.394.32.605.234.247.163.629-.351.827zm-4.444-7.226c-.361 0-.633-.24-.853-.427-.112-.095.027-.271.141-.175.215.182.432.375.712.375.337 0 .634-.289 1.037-.447.137-.054.215.159.079.212-.391.154-.705.462-1.116.462z"/></svg>