<svg xmlns="http://www.w3.org/2000/svg" width="24" height="24" viewBox="0 0 24 24"><path d="M13 23c0-.552-.448-1-1-1s-1 .448-1 1 .448 1 1 1 1-.448 1-1zm4.209-.834c0-.552-.448-1-1-1s-1 .448-1 1 .448 1 1 1 1-.448 1-1zm3.568-2.387c0-.552-.448-1-1-1s-1 .448-1 1 .448 1 1 1 1-.447 1-1zm2.385-3.568c0-.552-.448-1-1-1s-1 .448-1 1 .448 1 1 1 1-.448 1-1zm.838-4.209c0-.552-.448-1-1-1s-1 .448-1 1 .448 1 1 1 1-.447 1-1zm-.838-4.209c0-.552-.448-1-1-1s-1 .448-1 1 .448 1 1 1 1-.447 1-1zm-2.385-3.568c0-.552-.448-1-1-1s-1 .448-1 1 .448 1 1 1 1-.448 1-1zm-3.567-2.385c0-.552-.448-1-1-1s-1 .448-1 1 .448 1 1 1 1-.448 1-1zm-4.21-.84c0-.552-.448-1-1-1s-1 .448-1 1 .448 1 1 1 1-.448 1-1zm-4.21.838c0-.552-.448-1-1-1s-1 .448-1 1 .448 1 1 1 1-.448 1-1zm-3.569 2.385c0-.552-.448-1-1-1s-1 .448-1 1 .448 1 1 1 1-.448 1-1zm-2.384 3.57c0-.552-.448-1-1-1s-1 .448-1 1 .448 1 1 1 1-.447 1-1zm-.837 4.209c0-.552-.448-1-1-1s-1 .448-1 1 .448 1 1 1 1-.448 1-1zm.837 4.209c0-.552-.448-1-1-1s-1 .448-1 1 .448 1 1 1 1-.447 1-1zm2.384 3.569c0-.552-.448-1-1-1s-1 .448-1 1 .448 1 1 1 1-.447 1-1zm3.571 2.383c0-.552-.448-1-1-1s-1 .448-1 1 .448 1 1 1 1-.448 1-1z"/></svg>