<svg xmlns="http://www.w3.org/2000/svg" width="24" height="24" viewBox="0 0 24 24"><path d="M7.575 5.337l-2.009-3.479.867-.5 2.011 3.483c-.299.15-.592.312-.869.496zm-.861.669l-2.845-2.845-.708.708 2.845 2.845c.221-.251.457-.486.708-.708zm3.702-1.848l-1.039-3.878-.967.259 1.041 3.883c.314-.106.634-.197.965-.264zm-5.079 3.418l-3.479-2.009-.501.866 3.484 2.011c.15-.299.311-.591.496-.868zm-.915 1.875l-3.883-1.04-.26.967 3.879 1.039c.067-.331.158-.651.264-.966zm7.578-5.451l.499.025v-4.025h-1v4.025l.501-.025zm7.158 4.443l3.483-2.011-.498-.865-3.479 2.009c.184.277.346.568.494.867zm.684 1.973l3.878-1.04-.257-.965-3.884 1.041c.106.314.196.634.263.964zm-1.849-3.704l2.845-2.845-.705-.707-2.846 2.846c.25.221.485.457.706.706zm-13.993 5.288l.025-.5h-4.025v1h4.025l-.025-.5zm10.548-7.579l1.04-3.882-.964-.26-1.04 3.88c.33.066.649.157.964.262zm1.876.915l2.008-3.479-.863-.5-2.012 3.484c.298.149.59.311.867.495zm-12.266 8.247l-3.879 1.039.26.967 3.883-1.041c-.106-.314-.197-.634-.264-.965zm13.128 4.411l2.845 2.844.707-.706-2.845-2.845c-.221.251-.456.486-.707.707zm-1.73 1.165l2.011 3.483.865-.5-2.008-3.479c-.278.185-.57.347-.868.496zm3.108-2.735l3.478 2.008.5-.864-3.483-2.011c-.149.299-.311.59-.495.867zm.915-1.876l3.882 1.04.26-.964-3.879-1.04c-.067.33-.157.65-.263.964zm.396-3.047l.025.499-.025.5h4.025v-.999h-4.025zm-13.968 5.786l-2.846 2.845.708.707 2.845-2.845c-.251-.222-.486-.457-.707-.707zm7.576 2.555l1.039 3.879.966-.259-1.04-3.883c-.315.106-.635.197-.965.263zm-6.008-1.179l-2.009 3.479.867.499 2.011-3.482c-.299-.15-.591-.312-.869-.496zm-2.734-3.107l-3.484 2.011.501.866 3.479-2.008c-.185-.278-.346-.57-.496-.869zm4.611 4.023l-1.041 3.883.966.258 1.039-3.877c-.33-.068-.65-.159-.964-.264zm2.548.421l-.501-.025v4.025h1v-4.025l-.499.025z"/></svg>