<svg xmlns="http://www.w3.org/2000/svg" width="24" height="24" viewBox="0 0 24 24"><path d="M14 22c0 1.104-.896 2-2 2s-2-.896-2-2 .896-2 2-2 2 .896 2 2zm-2-22c-1.104 0-2 .896-2 2s.896 2 2 2 2-.896 2-2-.896-2-2-2zm10 10c1.104 0 2 .896 2 2s-.896 2-2.001 2c-1.103 0-1.999-.895-1.999-2s.896-2 2-2zm-22 2c0 1.105.896 2 2 2s2-.895 2-2c0-1.104-.896-2-2-2s-2 .896-2 2zm19-9c1.104 0 2 .896 2 2s-.896 2-2.001 2c-1.103 0-1.999-.895-1.999-2s.896-2 2-2zm0 14c1.104 0 2 .896 2 2s-.896 2-2.001 2c-1.103 0-1.999-.895-1.999-2s.896-2 2-2zm-14-14c1.104 0 2 .896 2 2s-.896 2-2.001 2c-1.103 0-1.999-.895-1.999-2s.896-2 2-2zm0 14c1.104 0 2 .896 2 2s-.896 2-2.001 2c-1.103 0-1.999-.895-1.999-2s.896-2 2-2z"/></svg>