<svg xmlns="http://www.w3.org/2000/svg" width="24" height="24" viewBox="0 0 24 24"><path d="M12 0c-5.522 0-10 4.395-10 9.815 0 5.505 4.375 9.268 10 14.185 5.625-4.917 10-8.68 10-14.185 0-5.42-4.478-9.815-10-9.815zm0 18c-4.419 0-8-3.582-8-8s3.581-8 8-8 8 3.582 8 8-3.581 8-8 8zm-2.039-4.994c.564-1.792.93-2.343 1.118-2.887.273-.788-.212-1.138-1.739.209l-.34-.64c1.743-1.901 5.334-2.331 4.113.614-.764 1.839-.606 1.484-.918 2.442-.455 1.396.693.83 1.818-.211.154.251.203.332.357.62-2.499 2.382-5.271 2.592-4.409-.147zm4.039-5.986c-.531.454-1.32.444-1.761-.022s-.367-1.21.164-1.664c.532-.454 1.319-.443 1.761.022.44.465.367 1.21-.164 1.664z"/></svg>