<svg xmlns="http://www.w3.org/2000/svg" width="24" height="24" viewBox="0 0 24 24"><path d="M12 0c-5.522 0-10 4.395-10 9.815 0 5.505 4.375 9.268 10 14.185 5.625-4.917 10-8.68 10-14.185 0-5.42-4.478-9.815-10-9.815zm0 18c-4.419 0-8-3.582-8-8s3.581-8 8-8 8 3.582 8 8-3.581 8-8 8zm-1.894-5.008c.486-.514 1.154-.832 1.894-.832s1.408.318 1.894.832l-1.894 2.008-1.894-2.008zm-.874-.927c.71-.751 1.688-1.215 2.768-1.215s2.058.464 2.768 1.215l1.164-1.236c-1.006-1.067-2.397-1.727-3.932-1.727s-2.926.66-3.932 1.727l1.164 1.236zm-2.038-2.163c1.23-1.304 2.929-2.11 4.806-2.11s3.576.806 4.806 2.11l1.194-1.266c-1.535-1.629-3.656-2.636-6-2.636s-4.465 1.007-6 2.636l1.194 1.266z"/></svg>