<svg xmlns="http://www.w3.org/2000/svg" width="24" height="24" viewBox="0 0 24 24"><path d="M19.467 2.076c-.992.304-1.771 1.083-2.074 2.078-.304-.995-1.082-1.772-2.078-2.077.994-.304 1.774-1.082 2.076-2.077.305.995 1.085 1.775 2.076 2.076zm-10.707.524c1.232.375 2.197 1.341 2.572 2.573.377-1.232 1.342-2.196 2.574-2.572-1.231-.378-2.197-1.34-2.573-2.573-.376 1.231-1.341 2.195-2.573 2.572zm-8.76 10.366c1.635.499 2.915 1.779 3.412 3.412.5-1.635 1.779-2.913 3.413-3.412-1.634-.499-2.913-1.777-3.413-3.413-.497 1.636-1.777 2.914-3.412 3.413zm12.965-6.577c.873.266 1.554.948 1.82 1.819.266-.873.949-1.554 1.818-1.819-.871-.267-1.553-.949-1.818-1.82-.267.871-.947 1.554-1.82 1.82zm-10.883-1.48l2.828-2.828 19.09 19.091-2.828 2.828-19.09-19.091zm16.97 12.728l-1.414 1.414 3.536 3.536 1.414-1.414-3.536-3.536zm-12.022-9.191l1.415-1.415-3.537-3.537-1.414 1.415 3.536 3.537z"/></svg>