<svg xmlns="http://www.w3.org/2000/svg" width="24" height="24" viewBox="0 0 24 24"><path d="M8.617 5.795l-2.828 2.828 15.382 15.377 2.829-2.824-15.383-15.381zm2.119 6.362l-3.533-3.535 1.412-1.414 3.535 3.535-1.414 1.414zm-5.021 3.439l-1.344-4.363-4.371-1.327 3.111-3.35-1.035-4.453 4.455 1.02 3.338-3.123 1.344 4.363 4.371 1.328-2.043 2.199-.708-.708.929-1-2.84-.862-.508-.154-.157-.508-.873-2.834-2.169 2.03-.389.363-.517-.119-2.897-.662.674 2.894.121.518-.363.39-2.022 2.176 2.839.862.509.154.156.508.873 2.835.987-.923.708.708-2.179 2.038z"/></svg>