<svg xmlns="http://www.w3.org/2000/svg" width="24" height="24" viewBox="0 0 24 24"><path d="M16.13 22h-16.13v-22h24v20.937l-2-2.002v-12.935h-20v14h12.128l2.002 2zm6.487.382l-1.625 1.618-12.162-12.121 1.65-1.649 12.137 12.152zm-10.074-9.266l-2.062-2.062-.824.824 2.061 2.062.825-.824zm1.685-4.085c.22.719.782 1.281 1.501 1.501-.719.219-1.281.782-1.501 1.501-.219-.719-.782-1.282-1.501-1.501.718-.22 1.282-.782 1.501-1.501zm-2.629 7.548c-.954.291-1.7 1.037-1.991 1.99-.291-.953-1.037-1.699-1.99-1.99.953-.291 1.699-1.037 1.99-1.99.29.953 1.037 1.699 1.991 1.99zm4.641-4.898c.157.509.555.906 1.062 1.062-.508.155-.906.552-1.062 1.062-.154-.509-.552-.906-1.06-1.062.508-.156.906-.554 1.06-1.062zm3.12-1.134c-.62.19-1.107.676-1.297 1.298-.19-.622-.676-1.108-1.298-1.298.621-.189 1.107-.676 1.297-1.297.191.621.678 1.108 1.298 1.297z"/></svg>