<svg xmlns="http://www.w3.org/2000/svg" width="24" height="24" viewBox="0 0 24 24"><path d="M15.544 22h-13.544v-22h8.189c3.163 0 9.811 7.223 9.811 9.614v7.904l-2-2.003v-5.059c0-4.106-6-2.456-6-2.456s1.518-6-2.638-6h-5.362v18h9.542l2.002 2zm6.456.351l-1.625 1.649-12.162-12.152 1.65-1.649 12.137 12.152zm-10.074-9.266l-2.062-2.062-.824.824 2.06 2.063.826-.825zm1.684-4.085c.22.719.782 1.281 1.501 1.501-.719.219-1.281.782-1.501 1.501-.219-.719-.782-1.282-1.501-1.501.719-.22 1.283-.782 1.501-1.501zm-2.629 7.548c-.954.291-1.7 1.037-1.991 1.99-.291-.953-1.037-1.699-1.99-1.99.953-.291 1.699-1.037 1.99-1.99.291.953 1.037 1.699 1.991 1.99zm4.642-4.899c.157.509.555.906 1.062 1.062-.508.155-.906.552-1.062 1.062-.154-.509-.552-.906-1.06-1.062.507-.155.906-.553 1.06-1.062z"/></svg>