<svg xmlns="http://www.w3.org/2000/svg" width="24" height="24" viewBox="0 0 24 24"><path d="M10.443 11.681c.335-1.099 1.195-1.96 2.295-2.296-1.1-.336-1.96-1.197-2.295-2.296-.337 1.099-1.197 1.96-2.297 2.296 1.1.336 1.96 1.197 2.297 2.296zm2.226-1.259c-.524.271-.936.716-1.169 1.262 2.077.521 1.741 1.475.268 1.975-2.39.81-6.152.823-8.536 0-1.481-.512-1.479-1.424 0-1.868 1.63-.49 3.876-.621 5.946-.431-.54-.849-1.919-1.66-3.355-1.584-3.158.244-5.823 1.219-5.823 2.949 0 4.267 15 4.27 15 0 0-1.027-.879-1.799-2.331-2.303zm1.076 12.346c-1.061.829-3.621 1.232-6.202 1.232-2.634 0-5.29-.419-6.401-1.232 1.175-2.429.941-5.003.259-6.947 1.564.722 3.784 1.082 6.003 1.082 2.279 0 4.558-.38 6.124-1.137-.72 2.052-.969 4.443.217 7.002zm-1.516-.325c-.462-1.214-.783-3.533-.372-5.133l-.862.19c-.289 1.334-.125 3.655.415 5.157.193.041.67-.084.819-.214zm-.957-20.671l-1.885 1.886 12.728 12.727 1.885-1.885-12.728-12.728zm1.415 4.243l-2.357-2.357.943-.943 2.356 2.357-.942.943zm1.153-4.283c.821.25 1.465.894 1.715 1.715.251-.821.895-1.464 1.716-1.715-.821-.251-1.465-.894-1.716-1.715-.25.822-.894 1.465-1.715 1.715zm2.804 2.526c.581.178 1.035.632 1.213 1.213.177-.582.632-1.036 1.213-1.213-.581-.177-1.035-.632-1.213-1.213-.178.581-.633 1.036-1.213 1.213zm2.95-4.258c-.202.663-.722 1.182-1.384 1.384.664.203 1.182.721 1.385 1.384.202-.663.722-1.182 1.383-1.384-.662-.202-1.181-.721-1.384-1.384z"/></svg>