<svg xmlns="http://www.w3.org/2000/svg" width="24" height="24" viewBox="0 0 24 24"><path d="M12.108 11.488c.263.168.392.225.691.306-.237.244-1.141.244-1.379 0 .29-.086.429-.148.688-.306zm3.988-10.37c-.505 1.013-1.096 2.36-1.375 3.803.307.255.584.56.816.92.174-1.722.955-3.413 1.539-4.554.351-.686.06-1.287-.6-1.287-.32 0-.726.141-1.188.48-1.156.85-2.057 2.033-2.681 3.519.321.042.634.122.933.235.862-1.938 2.119-2.89 2.556-3.116zm-7.523 4.734c.231-.36.507-.667.817-.925-.279-1.446-.871-2.795-1.377-3.809.657.34 1.796 1.416 2.557 3.118.299-.113.612-.193.932-.236-.624-1.487-1.525-2.67-2.681-3.52-.462-.34-.868-.48-1.187-.48-.661 0-.952.603-.601 1.287.585 1.143 1.368 2.838 1.54 4.565zm8.719 5.186c-.125.501-.342.97-.646 1.396.709.468.473 1.112-.664 1.514-2.229.788-5.741.8-7.965 0-1.152-.414-1.339-1.097-.573-1.564-.294-.427-.504-.896-.62-1.397-1.107.484-1.824 1.167-1.824 2.052 0 4.152 14 4.154 14 0 0-.853-.668-1.519-1.708-2.001zm-10.812-.813c.363-.083.774-.138 1.202-.165.005-.3.056-.595.151-.88-.268-.066-.538-.116-.806-.148-.165-.02-.138-.279.029-.26.291.035.582.09.871.163.15-.348.366-.677.643-.972.01-.81.313-1.581.867-2.192.663-.732 1.618-1.153 2.622-1.153s1.959.42 2.622 1.153c.554.612.856 1.383.866 2.192.284.303.504.639.654.997.321-.085.646-.148.969-.187.166-.02.193.24.029.26-.302.037-.605.095-.906.174.089.275.137.56.143.849.465.024.917.081 1.31.171.161.037.11.293-.054.256-.379-.086-.814-.142-1.263-.166-.142 2.047-2.261 3.337-4.37 3.337-2.185 0-4.228-1.35-4.369-3.331-.411.026-.807.08-1.155.159-.164.036-.218-.22-.055-.257zm2.302.648c.4-.164.805-.287 1.169-.347l-.004-.076c-.4-.08-.851-.127-1.312-.143.02.193.07.383.147.566zm6.455.2c-.348-.135-.694-.237-1.004-.289-.067.312-.226.617-.475.784-.443.278-1.199-.081-1.647-.348-.452.269-1.202.627-1.647.348-.25-.168-.409-.474-.475-.783-.336.057-.713.171-1.089.323.536.933 1.769 1.562 3.159 1.562 1.294 0 2.612-.57 3.178-1.597zm-4.384.105c.198 0 .459-.097.688-.206.202-.096.332-.306.332-.538 0-.229-.12-.439-.312-.551-.271-.156-.574-.294-.768-.294-.245 0-.375.496-.376.783-.001.322.126.806.436.806zm1.827-.206c.229.109.491.206.688.206.309 0 .438-.483.436-.806-.001-.346-.158-.783-.376-.783-.195 0-.498.138-.769.294-.191.111-.311.322-.311.55 0 .233.13.443.332.539zm2.801-.661c-.425.019-.838.065-1.208.14l-.004.074c.337.056.709.165 1.081.311.068-.17.113-.346.131-.525zm-.086-.809c-.397.161-.782.355-1.142.582l.013.102c.377-.073.796-.118 1.226-.136-.006-.198-.042-.38-.097-.548zm-6.558-.277c.415.162.816.36 1.192.591.083-.262.241-.511.455-.644.233-.129.524-.068.773.024.114-.215.379-.589.861-.589.473 0 .746.363.867.581.244-.087.526-.142.753-.016.215.135.373.385.455.646.35-.215.722-.401 1.106-.557-.209-.439-.507-.697-.71-.89.1-1.748-1.116-2.772-2.529-2.772-1.426 0-2.628 1.04-2.529 2.772-.203.192-.485.437-.694.854zm-.211.82c.465.014.922.061 1.329.139l.013-.103c-.387-.243-.803-.45-1.233-.617-.062.177-.103.37-.109.581zm4.605-1.626c.292 0 .53-.326.53-.729s-.238-.729-.53-.729c-.293 0-.53.326-.53.729s.237.729.53.729zm4.598 14.383c-.991.806-3.379 1.198-5.788 1.198-2.458 0-4.938-.408-5.975-1.198 1.097-2.361.859-4.82.222-6.709 2.945 1.416 8.422 1.403 11.318-.054-.672 1.995-.884 4.276.223 6.763zm-1.438-.315c-.433-1.181-.731-3.436-.347-4.99l-.805.185c-.271 1.297-.117 3.554.387 5.014.18.039.626-.082.765-.209zm-5.431-14.068c.293 0 .53-.326.53-.729s-.237-.729-.53-.729-.53.326-.53.729.237.729.53.729z"/></svg>