<svg xmlns="http://www.w3.org/2000/svg" width="24" height="24" viewBox="0 0 24 24"><path d="M10.467 14.944l-.108-.397c-.203-.875-1.812-2.312-3.25-2.422.562-.266 1.75-.969 1.859-1.516l-2.319-6.609-3.816 10.935c-1.654.429-2.833 1.173-2.833 2.234 0 1.887 3.317 2.831 6.633 2.831s6.631-.943 6.631-2.831c0-1.054-1.161-1.795-2.797-2.225zm-.062 3.051c-2.112.716-5.439.728-7.546 0-1.068-.369-1.264-.972-.593-1.396 1.693 1.515 7.06 1.516 8.76.005.694.427.466 1.022-.621 1.391zm1.662-12.694l-1.767 1.767 11.933 11.932 1.767-1.767-11.933-11.932zm1.326 3.977l-2.209-2.21.883-.884 2.21 2.21-.884.884zm1.082-3.653c.771.234 1.374.838 1.608 1.607.236-.77.838-1.373 1.608-1.607-.77-.235-1.373-.838-1.608-1.608-.235.769-.837 1.373-1.608 1.608zm-3.404 4.164c-.311 1.022-1.111 1.821-2.133 2.133 1.021.312 1.822 1.111 2.133 2.132.312-1.021 1.111-1.821 2.132-2.132-1.02-.312-1.82-1.111-2.132-2.133zm6.032-1.797c.545.167.971.593 1.138 1.137.166-.545.593-.971 1.137-1.137-.545-.166-.972-.592-1.138-1.137-.167.545-.592.971-1.137 1.137zm2.766-3.992c-.189.621-.676 1.107-1.297 1.297.622.19 1.108.676 1.298 1.297.189-.621.676-1.107 1.296-1.297-.619-.189-1.106-.676-1.297-1.297z"/></svg>