<svg xmlns="http://www.w3.org/2000/svg" width="24" height="24" viewBox="0 0 24 24"><path d="M14.474 20.863c2.038-2.484 5.518-6.798 5.518-6.798l-3.201-2.577s-2.38 2.936-5.475 6.747c-3.593 4.426-9.901-2.008-5.56-5.559 3.801-3.108 6.748-5.476 6.748-5.476l-2.576-3.2s-4.312 3.484-6.8 5.517c-2.217 1.813-3.128 3.957-3.128 6.033 0 4.378 4.052 8.45 8.43 8.45 2.073 0 4.219-.913 6.044-3.137zm3.937-6.628l-1.416 1.759-1.451-1.165 1.417-1.761 1.45 1.167zm-8.654-8.654l1.166 1.448-1.762 1.419-1.164-1.451 1.76-1.416zm4.001-1.64l-.569-.701 2.075-1.682.568.702-2.074 1.681zm3.035 1.306l-.063-.9-2.664.188.063.9 2.664-.188zm-4.988-2.679l.868.249.734-2.568-.867-.249-.735 2.568zm8.924 8.2l-.704-.564 1.671-2.084.704.564-1.671 2.084zm3.271.631l-.281-.866-2.563.749.253.866 2.591-.749zm-5.472-1.558l.901.058.173-2.665-.901-.059-.173 2.666z"/></svg>