<svg xmlns="http://www.w3.org/2000/svg" width="24" height="24" viewBox="0 0 24 24"><path d="M14.474 20.862c2.038-2.484 5.518-6.798 5.518-6.798l-3.2-2.577-5.476 6.748c-3.593 4.426-9.901-2.008-5.559-5.559 3.8-3.107 6.747-5.475 6.747-5.475l-2.577-3.201s-4.311 3.484-6.798 5.517c-2.218 1.813-3.129 3.958-3.129 6.034 0 4.378 4.052 8.449 8.43 8.449 2.073 0 4.22-.913 6.044-3.138zm3.936-6.627l-1.415 1.759-1.451-1.164 1.418-1.762 1.448 1.167zm-8.653-8.654l1.167 1.449-1.762 1.418-1.165-1.451 1.76-1.416zm7.371 3.419c-.015-.516-.223-1.173-.589-1.54s-1.023-.573-1.539-.588v-1.416c.895.015 1.907.37 2.54 1.003.634.634.989 1.647 1.004 2.541h-1.416zm2.726 0c-.015-1.244-.506-2.586-1.387-3.467-.881-.881-2.223-1.372-3.467-1.387v-1.443c1.629.015 3.334.656 4.487 1.81 1.153 1.153 1.795 2.858 1.81 4.487h-1.443zm2.744 0c-.016-1.977-.792-4.008-2.191-5.407s-3.43-2.176-5.407-2.191v-1.402c2.352.015 4.734.938 6.398 2.602s2.586 4.047 2.602 6.398h-1.402z"/></svg>