<svg xmlns="http://www.w3.org/2000/svg" width="24" height="24" viewBox="0 0 24 24"><path d="M18.984 8.083l-6.54 8.061c-.673.829-1.458 1.25-2.33 1.25-1.373 0-2.792-1.079-3.303-2.509-.257-.72-.464-2.112 1.039-3.34 4.1-3.354 8.059-6.536 8.059-6.536l-4.037-5.009s-5.439 4.388-8.126 6.584c-3.096 2.53-3.746 5.361-3.746 7.291 0 5.299 4.816 10.125 10.104 10.125 1.925 0 4.755-.651 7.301-3.754 2.201-2.684 6.595-8.128 6.595-8.128l-5.016-4.035zm-3.125 10.895c-1.622 1.977-3.612 3.022-5.755 3.022-4.166 0-8.104-3.949-8.104-8.125 0-2.146 1.041-4.132 3.011-5.742 1.448-1.184 3.462-2.817 5.017-4.077l1.497 1.918c-1.289 1.044-3.008 2.44-4.942 4.022-1.765 1.443-2.384 3.521-1.656 5.561.793 2.224 2.975 3.837 5.187 3.837h.001c1.034 0 2.546-.346 3.881-1.989l4.026-4.961 1.887 1.553c-1.255 1.549-2.873 3.545-4.05 4.981z"/></svg>