<svg xmlns="http://www.w3.org/2000/svg" width="24" height="24" viewBox="0 0 24 24"><path d="M12 0c-3.148 0-6 2.553-6 5.702 0 4.682 4.783 5.177 6 12.298 1.217-7.121 6-7.616 6-12.298 0-3.149-2.851-5.702-6-5.702zm0 8c-1.105 0-2-.895-2-2s.895-2 2-2 2 .895 2 2-.895 2-2 2zm12 16l-6.707-2.427-5.293 2.427-5.581-2.427-6.419 2.427 4-9 3.96-1.584c.38.516.741 1.08 1.061 1.729l-3.523 1.41-1.725 3.88 2.672-1.01 1.506-2.687-.635 3.044 4.189 1.789.495-2.021.465 2.024 4.15-1.89-.618-3.033 1.572 2.896 2.732.989-1.739-3.978-3.581-1.415c.319-.65.681-1.215 1.062-1.731l4.021 1.588 3.936 9z"/></svg>