<svg xmlns="http://www.w3.org/2000/svg" width="24" height="24" viewBox="0 0 24 24"><path d="M24 22.586l-2.823-2.823c.526-.792.836-1.74.836-2.763 0-2.762-2.238-5-5-5s-5 2.238-5 5 2.238 5 5 5c1.016 0 1.957-.307 2.746-.827l2.827 2.827 1.414-1.414zm-9.987-5.586c0-1.654 1.346-3 3-3s3 1.346 3 3-1.346 3-3 3-3-1.346-3-3zm-4 0l.002-.034-3.015 2.175v-13.068l4-2.886v10.247c.508-.854 1.189-1.591 2-2.161v-8.086l4 2.886v3.927h.013c.336 0 .664.032.987.078v-4.007l4-2.479v8.504c1.188 1.208 1.936 2.844 2 4.653v-16.749l-6.455 4-5.545-4-5.545 4-6.455-4v18l6.455 4 3.91-2.82c-.226-.687-.352-1.419-.352-2.18zm-4.013 2.365l-4-2.479v-13.294l4 2.479v13.294z"/></svg>