<svg xmlns="http://www.w3.org/2000/svg" width="24" height="24" viewBox="0 0 24 24"><path d="M23.961 8.429c-.831.982-1.614 1.918-1.961 3.775v6.683l-4 2.479v-9.161c-.206-1.104-.566-1.885-1-2.539v11.475l-4-2.885v-13.069l1.577 1.138c-.339-.701-.577-1.518-.577-2.524l.019-.345-2.019-1.456-5.545 4-6.455-4v18l6.455 4 5.545-4 5.545 4 6.455-4v-11.618l-.039.047zm-17.961 12.936l-4-2.479v-13.294l4 2.479v13.294zm5-3.11l-4 2.885v-13.067l4-2.886v13.068zm9-18.255c-2.1 0-4 1.702-4 3.801 0 3.121 3.188 3.451 4 8.199.812-4.748 4-5.078 4-8.199 0-2.099-1.9-3.801-4-3.801zm0 5.5c-.828 0-1.5-.671-1.5-1.5s.672-1.5 1.5-1.5 1.5.671 1.5 1.5-.672 1.5-1.5 1.5z"/></svg>