<svg xmlns="http://www.w3.org/2000/svg" width="24" height="24" viewBox="0 0 24 24"><path d="M12 14c2.205 0 4 1.794 4 4s-1.795 4-4 4c-2.207 0-4-1.794-4-4s1.793-4 4-4zm0-2c-3.314 0-6 2.687-6 6s2.686 6 6 6 6-2.687 6-6-2.686-6-6-6zm1.236 6.452l1.264-1.214-1.736-.239-.764-1.577-.764 1.577-1.736.239 1.264 1.214-.309 1.725 1.545-.826 1.543.827-.307-1.726zm5.01-18.452l-3.051 3h-6.195l-3.293-3h12.539zm.981.339l-6.605 9.692c1.112.086 2.161.397 3.101.893l5.277-7.924-1.773-2.661zm-14.476.035l-1.751 2.626 5.234 7.946c.934-.501 1.979-.818 3.088-.912l-6.571-9.66z"/></svg>