<svg xmlns="http://www.w3.org/2000/svg" width="24" height="24" viewBox="0 0 24 24"><path d="M12 12c-2.762 0-5 2.239-5 5s2.238 5 5 5 5-2.239 5-5-2.238-5-5-5zm1.854 7.755l-1.854-.992-1.854.992.369-2.07-1.515-1.457 2.083-.287.917-1.892.917 1.892 2.083.287-1.516 1.457.37 2.07zm-1.854-9.755c-3.865 0-7 3.134-7 7s3.135 7 7 7 7-3.134 7-7-3.135-7-7-7zm0 13c-3.314 0-6-2.687-6-6s2.686-6 6-6 6 2.687 6 6-2.686 6-6 6zm2.066-14.74c-.463-.108-.935-.192-1.422-.227l5.356-8.033 1.089.726-5.023 7.534zm-4.132 0c.463-.108.935-.192 1.422-.227l-5.356-8.033-1.089.726 5.023 7.534zm5.136.296c.416.15.822.319 1.207.528l4.723-7.084-1.079-.719-4.851 7.275zm-6.14 0l-4.851-7.275-1.079.719 4.723 7.083c.384-.208.791-.377 1.207-.527z"/></svg>