<svg xmlns="http://www.w3.org/2000/svg" width="24" height="24" viewBox="0 0 24 24"><path d="M14.5 17.238l-1.264 1.214.308 1.725-1.544-.826-1.544.827.308-1.725-1.264-1.215 1.736-.239.764-1.577.764 1.577 1.736.239zm-2.979-7.238l-6.886-7.951-.635.951 6 7h1.521zm-6.455-8.599l.934-1.401h12l.922 1.383-5.531 6.387-.768-.9 3.377-3.87h-8l5.958 7h-1.444l-7.448-8.599zm14.288.63l.646.969-5.396 6.194-.722-.846 5.472-6.317zm-1.354 15.969c0 3.313-2.686 6-6 6s-6-2.687-6-6 2.686-6 6-6 6 2.687 6 6zm-2 0c0-2.206-1.794-4-4-4s-4 1.794-4 4 1.794 4 4 4 4-1.794 4-4z"/></svg>