<svg xmlns="http://www.w3.org/2000/svg" width="24" height="24" viewBox="0 0 24 24"><path d="M12 10c-3.865 0-7 3.134-7 7s3.135 7 7 7 7-3.134 7-7-3.135-7-7-7zm0 12c-2.762 0-5-2.239-5-5s2.238-5 5-5 5 2.239 5 5-2.238 5-5 5zm1.484-4.315l1.516-1.457-2.083-.287-.917-1.892-.917 1.892-2.083.287 1.516 1.457-.369 2.07 1.853-.992 1.854.992-.37-2.07zm.058-11.918l-.919-1.233 3.377-4.534h1.867l-4.325 5.767zm5.574-5.767l-4.952 6.603.939 1.26 5.897-7.863h-1.884zm-6.986 8h1.828l-5.958-8h-1.869l5.999 8zm-7.249-8h-1.881l6 8h1.881l-6-8z"/></svg>