<svg xmlns="http://www.w3.org/2000/svg" width="24" height="24" viewBox="0 0 24 24"><path d="M8 0l5.958 8h-3.958l-6-8h4zm6.604 7.194l5.396-7.194h-4l-3.376 4.534 1.98 2.66zm-2.604 4.806c-2.762 0-5 2.239-5 5s2.238 5 5 5 5-2.239 5-5-2.238-5-5-5zm1.854 7.755l-1.854-.992-1.854.992.369-2.07-1.515-1.457 2.083-.287.917-1.892.917 1.892 2.083.287-1.516 1.457.37 2.07zm-1.854-9.755c-3.865 0-7 3.134-7 7s3.135 7 7 7 7-3.134 7-7-3.135-7-7-7zm0 13c-3.314 0-6-2.687-6-6s2.686-6 6-6 6 2.687 6 6-2.686 6-6 6z"/></svg>