<svg xmlns="http://www.w3.org/2000/svg" width="24" height="24" viewBox="0 0 24 24"><path d="M12 12c-3.314 0-6 2.687-6 6s2.686 6 6 6 6-2.687 6-6-2.686-6-6-6zm0 11c-2.757 0-5-2.243-5-5s2.243-5 5-5 5 2.243 5 5-2.243 5-5 5zm0-9c-2.206 0-4 1.794-4 4s1.794 4 4 4 4-1.794 4-4-1.794-4-4-4zm1.39 5.939l-1.39-.743-1.39.744.276-1.552-1.136-1.094 1.562-.215.688-1.419.688 1.419 1.562.215-1.137 1.093.277 1.552zm-9.732-17.925l-.658.986 5.234 7.946c.355-.19.731-.345 1.116-.48l-5.692-8.452zm11.537.986l3.051-3h-12.539l3.293 3h6.195zm4.699-1.661l-.667-1-6.605 9.692c.437.034.859.112 1.274.213l5.998-8.905zm-15.787.001l5.996 8.903c.397-.097.802-.173 1.219-.208l-6.571-9.66-.644.965zm10.541 9.127c.369.13.73.277 1.073.458l5.279-7.925-.657-.986-5.695 8.453z"/></svg>