<svg xmlns="http://www.w3.org/2000/svg" width="24" height="24" viewBox="0 0 24 24"><path d="M14.066 8.26c-.463-.108-.935-.192-1.422-.227l5.356-8.033 1.089.726-5.023 7.534zm-4.132 0c.463-.108.935-.192 1.422-.227l-5.356-8.033-1.089.726 5.023 7.534zm5.136.296c.416.15.822.319 1.207.528l4.723-7.084-1.079-.719-4.851 7.275zm-2.153 7.385l-.917-1.892-.917 1.892-2.083.287 1.516 1.457-.369 2.07 1.853-.992 1.854.992-.369-2.07 1.515-1.457-2.083-.287zm-3.987-7.385l-4.851-7.275-1.079.719 4.723 7.083c.384-.208.791-.377 1.207-.527zm10.07 8.444c0 3.866-3.135 7-7 7s-7-3.134-7-7 3.135-7 7-7 7 3.134 7 7zm-2 0c0-2.761-2.238-5-5-5s-5 2.239-5 5 2.238 5 5 5 5-2.239 5-5z"/></svg>