<svg xmlns="http://www.w3.org/2000/svg" width="24" height="24" viewBox="0 0 24 24"><path d="M13.75 18.44l-.884.85.215 1.208-1.081-.579-1.081.579.215-1.208-.884-.85 1.215-.167.535-1.104.535 1.104 1.215.167zm3.25.56c0 2.761-2.238 5-5 5s-5-2.239-5-5 2.238-5 5-5 5 2.239 5 5zm-2 0c0-1.654-1.346-3-3-3s-3 1.346-3 3 1.346 3 3 3 3-1.346 3-3zm2.527-9.159l1.473-.841-3-9h-1.805l3.332 9.841zm-7.687-9.841h-1.84l3 9-4-6-2 6 7 4 1.878-1.073-4.038-11.927zm5.143 11.295l1.438-.822-3.545-10.473h-1.717l3.824 11.295z"/></svg>