<svg width="24" height="24" xmlns="http://www.w3.org/2000/svg" fill-rule="evenodd" clip-rule="evenodd"><path d="M6.092 7c-.054-.355-.09-.685-.092-1-.008-1.338.445-2.362 1.235-3.404 1.073-1.418 2.758-2.594 4.765-2.596 2.008.002 3.692 1.178 4.766 2.596.79 1.042 1.243 2.066 1.234 3.404-.012 1.92-1.071 3.88-2.108 5.584-.987-1.233-1.981-2.626-2.747-3.951.245-.481.456-.951.625-1.405.652-1.759.068-2.237-1.77-2.228-1.838-.009-2.422.469-1.769 2.228 1.528 4.119 6.619 9.744 9.769 12.772l-2 5c-3.17-3.229-11.246-12.619-11.908-17m1.77 7.948c.938 1.323 1.832 2.484 2.837 3.762-1.765 2.147-3.49 4.059-4.699 5.29l-2-5c.977-.939 2.393-2.383 3.862-4.052"/></svg>