<svg width="24" height="24" xmlns="http://www.w3.org/2000/svg" fill-rule="evenodd" clip-rule="evenodd"><path d="M13 4v-1h2v1h1.22c.489 0 .947.238 1.228.638.862 1.229 3.552 5.362 3.552 5.362s1.391 1.209 2 1.732c.841.722 1 1.299 1 2.268v2.5c0 .828-.672 1.5-1.5 1.5h-1.5c0 1.656-1.344 3-3 3s-3-1.344-3-3h-6c0 1.656-1.344 3-3 3s-3-1.344-3-3h-2c-.265 0-.52-.105-.707-.293-.188-.187-.293-.442-.293-.707v-12c0-.552.448-1 1-1h12zm-6.936 12.75c.69 0 1.25.56 1.25 1.25s-.56 1.25-1.25 1.25-1.25-.56-1.25-1.25.56-1.25 1.25-1.25zm12 0c.69 0 1.25.56 1.25 1.25s-.56 1.25-1.25 1.25-1.25-.56-1.25-1.25.56-1.25 1.25-1.25zm-10.064-9.75h-2v2h-2v2h2v2h2v-2h2v-2h-2v-2zm8.057-1h-3.057v4h5.674l-2.617-4z"/></svg>