<svg xmlns="http://www.w3.org/2000/svg" width="24" height="24" viewBox="0 0 24 24"><path d="M12 0c-6.627 0-12 5.373-12 12s5.373 12 12 12 12-5.373 12-12-5.373-12-12-12zm-6 8.5h1c1.745 0 2.74.61 3.411 1.428-.205.326-.377.656-.527.969-.544-.822-1.318-1.397-2.884-1.397h-1v-1zm9 8.5v-1.5c-1.725 0-2.706-.609-3.369-1.425.206-.326.379-.655.529-.968.538.819 1.298 1.393 2.84 1.393v-1.5l3 2-3 2zm0-6v-1.5c-2.276 0-2.851 1.249-3.516 2.695-.713 1.549-1.52 3.305-4.484 3.305h-1v-1h1c2.323 0 2.903-1.262 3.575-2.723.707-1.536 1.508-3.277 4.425-3.277v-1.5l3 2-3 2z"/></svg>