<svg width="24" height="24" xmlns="http://www.w3.org/2000/svg" fill-rule="evenodd" clip-rule="evenodd"><path d="M22.971 17.322l-.721.72c-.322.322-.846.322-1.168 0l-1.568-1.568-2.005 2.005 1.568 1.568c.322.322.323.845 0 1.168l-.721.72 1.031 1.065 4.613-4.649-1.029-1.029zm-16.38-10.567l-5.591-5.755h2.581l4.436 4.372c.914-.692 2.303-1.458 3.388-1.45l7.632 7.632c.324.323.846.323 1.169 0l.601-.6 1.405 1.405-8.64 8.641-1.406-1.405.602-.601c.322-.323.322-.846 0-1.169l-7.634-7.633c-.008-1.085.764-2.523 1.457-3.437zm7.433 9.492l.703.704 3.44-3.441-7.429-7.43c-1.378.591-2.938 2.152-3.441 3.441l1.806 1.806 1.716-1.718.694.693-1.717 1.718.721.721 1.716-1.718.694.693-1.718 1.717.708.708 1.716-1.717.694.692-1.717 1.718.721.72 1.716-1.717.694.693-1.717 1.717zm-12.305-12.691c1.046 1.56 1.717 2.536 1.717 3.485 0 .949-.768 1.718-1.717 1.718-.95 0-1.719-.769-1.719-1.718s.673-1.925 1.719-3.485z"/></svg>