<svg width="24" height="24" xmlns="http://www.w3.org/2000/svg" fill-rule="evenodd" clip-rule="evenodd"><path d="M15 4h1.22c.489 0 .947.238 1.228.639.862 1.228 3.552 5.361 3.552 5.361s1.392 1.209 2 1.731c.841.723 1 1.3 1 2.269v2.5c0 .828-.672 1.5-1.5 1.5h-1.5c0 1.656-1.344 3-3 3s-3-1.344-3-3h-6c0 1.656-1.344 3-3 3s-3-1.344-3-3h-2c-.551 0-1-.447-1-1v-12c0-.552.448-1 1-1h12v-1h2v1zm-8.931 12.748c.69 0 1.251.56 1.251 1.251 0 .69-.561 1.251-1.251 1.251-.691 0-1.251-.561-1.251-1.251 0-.691.56-1.251 1.251-1.251zm12 0c.69 0 1.251.56 1.251 1.251 0 .69-.561 1.251-1.251 1.251-.691 0-1.251-.561-1.251-1.251 0-.691.56-1.251 1.251-1.251zm-6.069-10.748h-10v10h1.765c.549-.614 1.347-1 2.235-1 .888 0 1.686.386 2.235 1h7.53c.549-.614 1.347-1 2.235-1 .888 0 1.686.386 2.235 1h1.765v-2c0-.491 0-.491-.304-.752l-1.443-1.248h-8.253v-6zm-4 1v2h2v2h-2v2h-2v-2h-2v-2h2v-2h2zm7.958-1h-1.958v4h4.611c-.834-1.274-2.054-3.129-2.653-4z"/></svg>