<svg width="24" height="24" xmlns="http://www.w3.org/2000/svg" fill-rule="evenodd" clip-rule="evenodd"><path d="M17.5 10c3.587 0 6.5 2.913 6.5 6.5s-2.913 6.5-6.5 6.5-6.5-2.913-6.5-6.5 2.913-6.5 6.5-6.5zm-7.802 9.864l-.363.635c-1.381 2.391-4.443 3.211-6.834 1.831-2.391-1.381-3.211-4.443-1.831-6.834l6.868-11.995c.925-1.602 2.606-2.499 4.333-2.501.85-.001 1.712.215 2.501.67 2.245 1.297 3.106 4.076 2.058 6.39-.979.125-1.906.416-2.753.844l.793-1.401c.828-1.434.336-3.272-1.099-4.1-1.434-.828-3.272-.336-4.1 1.099l-2.866 5.063 3.975 2.295c-.363.557-.663 1.16-.889 1.797l-4.086-2.359-3.002 5.199c-.828 1.434-.336 3.272 1.099 4.1 1.434.828 3.272.336 4.1-1.099l1.42-2.459c.063.998.298 1.949.676 2.825zm10.882-6.644l-4.381 7.589c.412.124.849.191 1.301.191 2.484 0 4.5-2.016 4.5-4.5 0-1.293-.546-2.459-1.42-3.28zm-1.725-1.012c-.428-.135-.883-.208-1.355-.208-2.484 0-4.5 2.016-4.5 4.5 0 1.313.563 2.495 1.461 3.318l4.394-7.61z"/></svg>