<svg width="24" height="24" xmlns="http://www.w3.org/2000/svg" fill-rule="evenodd" clip-rule="evenodd"><path d="M13.7 4.054c-.354.568-.982.946-1.7.946-1.104 0-2-.896-2-2s.896-2 2-2c.759 0 1.42.424 1.759 1.047 2.59.295 4.386 1.786 4.233 4.239-.185 2.859-3.294 7.619-6.001 9.69-.097 1.073-.709 2.232-1.794 2.908.993 1.609 2.536 2.285 4.218 2.087 1.629-.191 3.144-1.366 3.96-2.693-.836-.641-1.375-1.647-1.375-2.778 0-1.932 1.568-3.501 3.5-3.501 1.931 0 3.5 1.569 3.5 3.501 0 1.936-1.597 3.601-3.728 3.491-1.155 2.132-3.601 4.009-6.352 4.009-2.713 0-4.791-1.497-5.92-4.001-1.053-.631-1.829-1.937-1.985-3.029-2.775-2.138-6.015-7.171-6.015-9.963 0-2.382 1.875-3.682 4.24-3.957.338-.625 1-1.05 1.76-1.05 1.104 0 2 .896 2 2s-.896 2-2 2c-.715 0-1.343-.376-1.696-.941-2.05.299-2.552 1.287-2.19 2.732.633 2.567 3.605 6.868 5.908 8.121.757.416 1.193.421 1.96.002 2.726-1.483 5.981-6.697 6.018-8.858.022-1.288-1.029-1.821-2.3-2.002m6.8 12.946c-.828 0-1.5-.674-1.5-1.5 0-.828.672-1.5 1.5-1.5s1.5.672 1.5 1.5c0 .826-.672 1.5-1.5 1.5"/></svg>