<svg width="24" height="24" xmlns="http://www.w3.org/2000/svg" fill-rule="evenodd" clip-rule="evenodd"><path d="M2.695 6.145l3.339 4.998c-1.003.909-2.151 1.665-3.275 1.848-.068.273-.11.591-.11.965 0 .911.531 2.447 1.995 2.942.208.071.386.214.501.402 1.662 2.729 4.314 4.7 6.855 4.7 2.54 0 5.444-2.139 6.855-4.7.114-.189.292-.331.501-.402 1.464-.495 1.995-2.031 1.995-2.942 0-.262-.023-.493-.056-.707-1.257-.007-2.419-.879-3.333-2.08l3.35-5.014c1.773 2.86 2.688 6.477 2.688 9.975 0 4.738-2.757 6.813-6.976 6.06-1.549 1.171-3.25 1.81-5.024 1.81s-3.476-.638-5.025-1.81c-4.218.753-6.975-1.322-6.975-6.06 0-3.502.917-7.123 2.695-9.985zm12.11 11.31c-.002.008-.719 2.201-2.805 2.201-2.009 0-2.802-2.193-2.805-2.201h5.61zm-4.675-4.208c0-.775-.524-1.403-1.169-1.403s-1.169.628-1.169 1.403c0 .774.524 1.402 1.169 1.402s1.169-.628 1.169-1.402zm6.078 0c0 .774-.524 1.402-1.169 1.402s-1.169-.628-1.169-1.402c0-.775.524-1.403 1.169-1.403s1.169.628 1.169 1.403zm4.792-10.247c-2.951-1.975-5.993-3.013-9-3-2.966.013-5.996 1.055-9 3l4 6c3.998-1.307 6.023-1.291 10 0l4-6zm-8.167-1.5h-1.666v1.667h-1.667v1.666h1.667v1.667h1.666v-1.667h1.667v-1.666h-1.667v-1.667z"/></svg>