<svg width="24" height="24" xmlns="http://www.w3.org/2000/svg" fill-rule="evenodd" clip-rule="evenodd"><path d="M12 0c-3.371 2.866-5.484 3-9 3v11.535c0 4.603 3.203 5.804 9 9.465 5.797-3.661 9-4.862 9-9.465v-11.535c-3.516 0-5.629-.134-9-3zm0 2.544c2.5 1.805 4.555 2.292 7 2.416v9.575c0 3.042-1.686 3.827-7 7.108-5.309-3.278-7-4.065-7-7.108v-9.575c2.447-.124 4.5-.611 7-2.416zm0 3.956c3.036 0 5.5 2.464 5.5 5.5s-2.464 5.5-5.5 5.5-5.5-2.464-5.5-5.5 2.464-5.5 5.5-5.5zm1 2.5h-2v2h-2v2h2v2h2v-2h2v-2h-2v-2z"/></svg>