<svg width="24" height="24" xmlns="http://www.w3.org/2000/svg" fill-rule="evenodd" clip-rule="evenodd"><path d="M18.905 14c-2.029 2.401-4.862 5.005-7.905 8-5.893-5.8-11-10.134-11-14.371 0-6.154 8.114-7.587 11-2.676 2.865-4.875 11-3.499 11 2.676 0 .784-.175 1.572-.497 2.371h-6.278c-.253 0-.486.137-.61.358l-.813 1.45-2.27-4.437c-.112-.219-.331-.364-.576-.38-.246-.016-.482.097-.622.299l-1.88 2.71h-1.227c-.346-.598-.992-1-1.732-1-1.103 0-2 .896-2 2s.897 2 2 2c.74 0 1.386-.402 1.732-1h1.956c.228 0 .441-.111.573-.297l.989-1.406 2.256 4.559c.114.229.343.379.598.389.256.011.496-.118.629-.337l1.759-2.908h8.013v2h-5.095z"/></svg>