<svg xmlns="http://www.w3.org/2000/svg" width="24" height="24" viewBox="0 0 24 24"><path d="M7 12c0 .5.19.951.494 1.302l-.549.366-.293.195c-.407-.511-.652-1.158-.652-1.863 0-1.656 1.344-3 3-3h4v-2l3.5 2.5-3.5 2.5v-2h-4c-1.103 0-2 .896-2 2zm10.348-1.863l-.293.195-.549.366c.304.351.494.802.494 1.302 0 1.104-.897 2-2 2h-4v-2l-3.5 2.5 3.5 2.5v-2h4c1.656 0 3-1.344 3-3 0-.705-.244-1.352-.652-1.863zm-5.348-8.137c5.514 0 10 4.486 10 10s-4.486 10-10 10-10-4.486-10-10 4.486-10 10-10zm0-2c-6.627 0-12 5.373-12 12s5.373 12 12 12 12-5.373 12-12-5.373-12-12-12z"/></svg>