<svg width="24" height="24" xmlns="http://www.w3.org/2000/svg" fill-rule="evenodd" clip-rule="evenodd"><path d="M12 18.271c-2.561 2.813-4.863 4.904-6 5.729l-3-5.836c1.553-1.319 3.755-3.415 5.222-5.01-1.262-1.981-2.723-4.314-2.723-6.698 0-1.426.49-2.564 1.336-3.681 1.235-1.636 3.096-2.775 5.165-2.775h.048c2.05.018 3.891 1.152 5.117 2.775.846 1.117 1.335 2.255 1.335 3.681 0 2.384-1.46 4.717-2.722 6.698 1.467 1.595 3.669 3.691 5.222 5.01l-3 5.836c-1.119-.813-3.367-2.851-5.88-5.598l-.12-.131zm0-12.713h-.007c-.342.008-.707.066-.993.178.142.719.553 1.605 1 2.389l.042-.074c.431-.765.82-1.618.958-2.315-.286-.112-.651-.17-.993-.178h-.007zm-.028-3.558c-2.229 0-4.526 2.329-4.47 4.576.072 1.984 1.59 4.307 3.211 6.704-1.101 1.333-3.736 3.937-5.358 5.385l1.14 2.335s3.959-3.639 5.505-5.708l.037.049c1.571 2.077 5.468 5.659 5.468 5.659l1.14-2.335c-1.622-1.448-4.257-4.052-5.358-5.385 1.62-2.397 3.138-4.72 3.211-6.704.055-2.247-2.241-4.576-4.47-4.576h-.056zm-.006 9.22c-.741-1.142-2.824-3.941-2.824-5.552 0-1.562 1.313-2.002 2.858-2.002h.036c1.53.007 2.822.452 2.822 2.002 0 1.637-2.15 4.499-2.858 5.605l-.034-.053z"/></svg>