<svg width="24" height="24" xmlns="http://www.w3.org/2000/svg" fill-rule="evenodd" clip-rule="evenodd"><path d="M12 0c2.008.002 3.692 1.178 4.766 2.596.789 1.042 1.243 2.066 1.234 3.404-.002.315-.038.645-.092 1-.241 1.6-1.492 3.898-3.145 6.332 1.92 2.338 3.956 4.436 5.237 5.668l-2 5c-1.506-1.534-3.813-4.122-6-6.909-2.187 2.787-4.494 5.375-6 6.909l-2-5c1.281-1.232 3.317-3.33 5.237-5.668-1.653-2.434-2.903-4.732-3.145-6.332-.054-.355-.09-.685-.092-1-.008-1.338.445-2.362 1.234-3.404 1.074-1.418 2.759-2.594 4.766-2.596zm0 4c-1.838-.009-2.422.469-1.769 2.228.392 1.057 1.014 2.204 1.769 3.37.755-1.166 1.377-2.313 1.769-3.37.653-1.759.069-2.237-1.769-2.228z"/></svg>