<svg width="24" height="24" xmlns="http://www.w3.org/2000/svg" fill-rule="evenodd" clip-rule="evenodd"><path d="M2.212 8.288c-1.17-.832-1.997-1.955-2.212-3.347.493-.03 1.047-.033 1.52-.172 1.755-.518 2.963-2.798 5.173-2.769 2.076.067 2.742 1.894 3.948 2.353.092.036.215.065.358.089v-.71c-.598-.346-1-.992-1-1.732 0-1.104.896-2 2-2s2 .896 2 2c0 .74-.402 1.386-1 1.732v.71c.144-.023.268-.053.36-.089 1.206-.459 1.872-2.286 3.948-2.353 2.21-.029 3.418 2.251 5.173 2.769.473.139 1.027.142 1.52.172-.215 1.392-1.041 2.514-2.21 3.346-1.148-.504-2.126-1.223-2.964-2.086.234 1.056.767 2.073 1.481 2.913-.697.303-1.454.53-2.237.68-1.015-.791-1.806-1.723-2.51-2.943-.004 1.12.242 2.137.681 3.15-1.107.041-2.217-.068-3.242-.335v6.923c.843.262 1.911.611 2.542 1.201 2.008 1.877.83 4.698-1.539 4.787v-1c1.266-.627 1.504-1.961-1.003-2.878v4.301c0 .553-.448 1-1 1s-1-.447-1-1v-4.896c-1.955-.51-5.364-1.17-5.339-4.003.018-1.696 1.55-3.101 3.331-3.101h.01c.553 0 1 .448 1 1 0 .549-.442.994-.989 1-.836.009-1.392.651-1.349 1.192.098 1.124 2.22 1.556 3.336 1.844v-6.369c-1.023.266-2.13.375-3.234.334.439-1.013.685-2.03.68-3.15-.704 1.22-1.495 2.153-2.511 2.944-.783-.15-1.54-.377-2.237-.679.714-.841 1.248-1.859 1.482-2.915-.838.864-1.818 1.584-2.967 2.087zm5.748 10.077c.863.25 1.655.463 2.35.624-1.691.869-1.495 2.002-.311 2.588v1c-2.138-.08-3.305-2.384-2.039-4.212zm6.073-2.606c.889-.257 2.232-.644 2.305-1.567.043-.543-.516-1.183-1.35-1.192-.547-.006-.989-.451-.989-1 0-.552.448-1 1-1h.011c1.772 0 3.313 1.399 3.33 3.101.017 1.273-.851 2.367-1.986 2.934-.6-.505-1.397-.909-2.321-1.276z"/></svg>