<svg xmlns="http://www.w3.org/2000/svg" width="24" height="24" viewBox="0 0 24 24"><path d="M12 2c5.514 0 10 4.486 10 10s-4.486 10-10 10-10-4.486-10-10 4.486-10 10-10zm0-2c-6.627 0-12 5.373-12 12s5.373 12 12 12 12-5.373 12-12-5.373-12-12-12zm-5 9.5h-1v-1h1c1.745 0 2.74.61 3.411 1.428-.205.326-.377.656-.527.969-.544-.822-1.318-1.397-2.884-1.397zm8 5c-1.542 0-2.302-.574-2.84-1.393-.15.312-.323.642-.529.968.663.816 1.644 1.425 3.369 1.425v1.5l3-2-3-2v1.5zm0-5v1.5l3-2-3-2v1.5c-2.917 0-3.718 1.741-4.425 3.277-.672 1.461-1.252 2.723-3.575 2.723h-1v1h1c2.964 0 3.771-1.756 4.484-3.305.665-1.446 1.24-2.695 3.516-2.695z"/></svg>