<svg xmlns="http://www.w3.org/2000/svg" width="24" height="24" viewBox="0 0 24 24"><path d="M14.207 19.781l-1.871 1.817c-.376.365-.921.493-1.419.334l-3.895-1.222c-.482-.154-.847-.553-.956-1.049l-.582-2.631 2.095.662.203.922c.073.328.314.592.633.695l2.112.656c.331.106.692.021.942-.222l.641-.623 2.097.661zm9.776-8.59c-.224-5.597-2.639-8.798-4.502-8.095-1.566.595-11.761 4.822-16.179 6.65-.32.132-.605.185-.86.185-.736 0-1.23-.437-1.657-.646-1.091 1.43-1.034 4.393.111 5.777.441-.307.969-.829 1.768-.829.195 0 .407.031.639.104 4.432 1.405 15.218 4.804 16.838 5.3 2.055.629 4.065-2.843 3.842-8.446zm-20.076 1.239c-.415-.132-.606-.52.159-.836 0 0 10.01-4.143 13.177-5.438-1.164 3.018-1.073 7.447.304 10.576-3.959-1.244-10.391-3.272-13.64-4.302zm17.063 4.729c-.173.296-.588.335-.812.072-2.105-2.472-2.325-9.001-.41-11.558.21-.278.63-.263.819.026 1.796 2.752 1.883 8.923.403 11.46z"/></svg>