<svg xmlns="http://www.w3.org/2000/svg" width="24" height="24" viewBox="0 0 24 24"><path d="M22 5.635v11.695l-17.758-5.205c-.657-.199-1.262-.296-1.849-.296l-.393.015v-.916l.217.004c.614 0 1.277-.111 1.982-.326l17.801-4.971zm2-2.635l-20.338 5.68c-.54.164-1.012.252-1.444.252-.823 0-1.5-.318-2.217-1.036v7.104c.728-.775 1.469-1.171 2.393-1.171.387 0 .806.069 1.269.21l20.337 5.961v-17zm-9 16.419l-1.962 2.147c-.364.375-.907.521-1.412.381l-3.95-1.08c-.49-.136-.869-.52-.996-1.009l-.68-3.046 2.131.617.234 1.329c.085.323.336.578.659.668l2.142.579c.335.094.696-.002.937-.252l.795-.944 2.102.61z"/></svg>