<svg xmlns="http://www.w3.org/2000/svg" width="24" height="24" viewBox="0 0 24 24"><path d="M10 15v-10h-5.033c-2.743 0-4.967 2.239-4.967 5 0 2.762 2.224 5 4.967 5h5.033zm-8-5c0-1.654 1.331-3 2.967-3h3.033v6h-3.033c-1.636 0-2.967-1.346-2.967-3zm22-10v20c-4.839-3.008-8.836-4.491-12-5v-2.014c3.042.438 6.393 1.624 10 3.548v-13.064c-3.622 1.941-6.912 3.099-10 3.544v-2.014c3.124-.498 7.036-1.915 12-5zm-11.993 22.475c-.52-.424-.902-.994-1.095-1.637l-1.151-3.827h-6.146l1.905 5.883c.214.659.828 1.106 1.522 1.106h4.46c.358 0 .677-.225.797-.562.12-.337.015-.713-.263-.939l-.029-.024zm-4.674-.475l-.982-3h1.933l.927 3h-1.878z"/></svg>