<svg xmlns="http://www.w3.org/2000/svg" width="24" height="24" viewBox="0 0 24 24"><path d="M4.574 16.989c-1.768.647-3.719-.275-4.365-2.06-.647-1.785.262-3.757 2.027-4.404l3.242-1.187 2.338 6.464-3.242 1.187zm6.282 3.172c-.437-.151-.814-.43-1.089-.8l-1.635-2.202-3.301 1.209 2.602 3.353c.292.376.79.52 1.237.356l2.216-.81c.229-.084.382-.307.381-.553-.002-.246-.156-.464-.389-.545l-.022-.008zm-4.09-11.294l2.338 6.464c2.155-.417 5.077-.401 8.896.401l-4.675-12.927c-2.476 3.165-4.663 5.004-6.559 6.062zm10.795-3.102c.856.411 1.556 1.149 1.893 2.117.339.967.254 1.98-.157 2.836l1.407.678c.585-1.216.708-2.656.227-4.03-.481-1.375-1.474-2.424-2.689-3.009l-.681 1.408zm1.188-2.465c1.486.715 2.698 1.998 3.286 3.678s.438 3.441-.277 4.927l1.443.696c.893-1.857 1.079-4.055.346-6.153-.735-2.097-2.247-3.698-4.102-4.591l-.696 1.443z"/></svg>