<svg xmlns="http://www.w3.org/2000/svg" width="24" height="24" viewBox="0 0 24 24"><path d="M10 5h-5.033c-2.743 0-4.967 2.239-4.967 5 0 2.762 2.224 5 4.967 5h5.033v-10zm2.007 17.475c-.52-.424-.902-.994-1.095-1.637l-1.151-3.827h-5.125l1.905 5.883c.214.659.828 1.106 1.521 1.106h3.439c.358 0 .677-.225.797-.562.12-.337.015-.713-.263-.939l-.028-.024zm-.007-17.475v2.014c3.088-.445 6.379-1.603 10-3.544v13.064c-3.607-1.924-6.958-3.109-10-3.548v2.014c3.164.509 7.16 1.992 12 5v-20c-4.964 3.085-8.877 4.502-12 5z"/></svg>