<svg xmlns="http://www.w3.org/2000/svg" width="24" height="24" viewBox="0 0 24 24"><path d="M17.561 5.663c.856.411 1.556 1.149 1.893 2.117.339.967.254 1.98-.157 2.836l1.407.678c.585-1.216.708-2.656.227-4.03-.481-1.375-1.474-2.424-2.689-3.009l-.681 1.408zm1.188-2.465c1.486.715 2.698 1.998 3.286 3.678s.438 3.441-.277 4.927l1.443.696c.893-1.857 1.079-4.055.346-6.153-.734-2.098-2.247-3.698-4.102-4.591l-.696 1.443zm-10.932 12.494l-2.342-6.437-3.24 1.179c-1.766.643-2.673 2.605-2.025 4.382.646 1.777 2.603 2.697 4.368 2.055l3.239-1.179zm-6.321-1.343c-.387-1.065.153-2.244 1.207-2.626l1.951-.711 1.406 3.862-1.952.71c-1.052.383-2.224-.171-2.612-1.235zm11.818-11.592l4.686 12.873c-3.82-.802-6.74-.82-8.896-.407l-.471-1.296c2.06-.431 4.495-.453 7.267-.06l-3.06-8.407c-1.876 2.097-3.723 3.613-5.606 4.624l-.472-1.297c1.892-1.052 4.08-2.881 6.552-6.03zm-2.453 17.276c-.436-.151-.815-.429-1.09-.797l-1.637-2.194-3.956 1.441 2.603 3.34c.294.375.794.518 1.239.356l2.872-1.045c.229-.084.383-.304.381-.549-.002-.246-.156-.463-.389-.543l-.023-.009zm-3.121.79l-1.335-1.701 1.244-.453 1.3 1.713-1.209.441z"/></svg>