<svg xmlns="http://www.w3.org/2000/svg" width="24" height="24" viewBox="0 0 24 24"><path d="M23.983 11.191c-.224-5.611-2.646-8.798-4.502-8.095-1.566.595-11.761 4.822-16.179 6.65-1.246.515-1.943-.179-2.518-.461-1.091 1.43-1.034 4.393.111 5.777.55-.382 1.231-1.098 2.406-.725 4.432 1.405 15.218 4.804 16.838 5.3 2.053.629 4.067-2.835 3.844-8.446zm-2.67 4.973c-.541 1.506-1.599 1.578-2.264.1-1.282-2.848-1.393-7.074-.369-9.727.581-1.504 1.561-1.572 2.265-.1 1.19 2.489 1.455 6.708.368 9.727zm-7.106 3.618l-1.871 1.817c-.376.365-.921.493-1.419.334l-3.895-1.222c-.482-.154-.847-.553-.956-1.049l-.582-2.631 2.095.662.203.922c.073.328.314.592.633.695l2.112.656c.331.106.692.021.942-.222l.641-.623 2.097.661z"/></svg>