<svg xmlns="http://www.w3.org/2000/svg" width="24" height="24" viewBox="0 0 24 24"><path d="M2.655 15.423c-.835.892-1.542 1.158-2.655.86l2.647 4.585c.257-1.094.815-1.708 2.005-1.985l15.348-3.732-6.335-10.972-11.01 11.244zm11.32 2.707l-.467 2.118c-.094.378-.391.674-.769.771l-2.952.774c-.365.095-.753-.012-1.018-.28l-1.574-1.712 1.605-.395.646.77c.176.177.432.248.674.186l1.598-.425c.252-.064.449-.261.511-.512l.162-.906 1.584-.389zm8.719-11.267l-2.684 1.613-.756-1.262 2.686-1.612.754 1.261zm-4.396-1.161l-1.335-.616 1.342-2.914 1.335.617-1.342 2.913zm5.619 6.157l-3.202-.174.081-1.469 3.204.175-.083 1.468z"/></svg>