<svg xmlns="http://www.w3.org/2000/svg" width="24" height="24" viewBox="0 0 24 24"><path d="M20.867 3.133c1.508 1.508 1.507 3.964.001 5.472-.623.622-1.234.907-1.966 1.05l-4.556-4.556c.146-.736.431-1.348 1.048-1.965 1.509-1.509 3.956-1.517 5.473-.001zm-6.887-1.414c-1.396 1.396-1.643 2.876-1.742 4.1l5.941 5.942c1.221-.094 2.699-.34 4.102-1.74 2.291-2.293 2.291-6.009 0-8.301-2.292-2.293-6.007-2.293-8.301-.001zm-4.343 10.694l.764.4-1.343 1.342 1.776.611 1.756-1.757-2.41-1.139-.543.543zm8.4 2.033l-8.484-8.486-6.365 6.365 2.168 2.168-5.356 6.846 2.659 2.661 6.847-5.356 2.168 2.167 6.363-6.365zm-8.484-5.657l5.656 5.657-3.535 3.536-5.657-5.657 3.536-3.536zm-6.73 12.546l-.159-.16 4.116-5.257 1.301 1.301-5.258 4.116z"/></svg>