<svg width="24" height="24" xmlns="http://www.w3.org/2000/svg" fill-rule="evenodd" clip-rule="evenodd"><path d="M7.5 21c.828 0 1.5.672 1.5 1.5s-.672 1.5-1.5 1.5-1.5-.672-1.5-1.5.672-1.5 1.5-1.5zm9 0c.828 0 1.5.672 1.5 1.5s-.672 1.5-1.5 1.5-1.5-.672-1.5-1.5.672-1.5 1.5-1.5zm-4.5 0c.828 0 1.5.672 1.5 1.5s-.672 1.5-1.5 1.5-1.5-.672-1.5-1.5.672-1.5 1.5-1.5zm8-12v2c0 4.418-3.582 8-8 8s-8-3.582-8-8v-2h2v2c0 3.309 2.691 6 6 6s6-2.691 6-6v-2h2zm-4 2c0 2.209-1.791 4-4 4s-4-1.791-4-4v-7c0-2.209 1.791-4 4-4s4 1.791 4 4v7z"/></svg>