<svg xmlns="http://www.w3.org/2000/svg" width="24" height="24" viewBox="0 0 24 24"><path d="M15.526 11.409c-1.052.842-7.941 6.358-9.536 7.636l-2.697-2.697 7.668-9.504 1.422 1.422-6.405 7.938.16.16 7.965-6.378 1.423 1.423zm-.72-8.453c-.437.437-.665.89-.791 1.285l4.123 4.123c.392-.126.845-.356 1.283-.793 1.272-1.272 1.272-3.343 0-4.615-1.273-1.274-3.338-1.277-4.615 0zm6.029-1.414c2.055 2.056 2.055 5.388 0 7.443-1.367 1.367-2.885 1.482-3.369 1.536l-5.61-5.61c.066-.527.181-2.013 1.536-3.369 2.056-2.056 5.388-2.056 7.443 0zm-4.887 21.506l-1.462.952c-1.505-2.309-2.449-2.773-3.485-2.773-1.602 0-2.304 1.093-3.889 2.088-1.86 1.167-3.82.559-4.795-.645-.85-1.049-1.093-2.742.279-4.157l1.126 1.091.125.125c-.841.871-.347 1.631-.175 1.843.477.588 1.466.922 2.512.266 1.478-.928 2.524-2.355 4.816-2.355 2.179-.001 3.554 1.425 4.948 3.565z"/></svg>