<svg xmlns="http://www.w3.org/2000/svg" width="24" height="24" viewBox="0 0 24 24"><path d="M14 8v14h-10v-14h10zm2 0c0-1.104-.896-2-2-2h-10c-1.104 0-2 .896-2 2v14c0 1.104.896 2 2 2h10c1.104 0 2-.896 2-2v-14zm-9 12h-2v-1h2v1zm0-2h-2v-1h2v1zm3 2h-2v-1h2v1zm0-2h-2v-1h2v1zm3 2h-2v-1h2v1zm0-2h-2v-1h2v1zm0-3h-8v-5h8v5zm1-10.688c.944-.001 1.889.359 2.608 1.08.721.72 1.082 1.664 1.082 2.606h1.554c-.001-1.341-.514-2.684-1.538-3.707-1.025-1.022-2.365-1.533-3.706-1.532v1.553zm0-2.718c1.639-.001 3.277.623 4.53 1.874 1.251 1.25 1.877 2.892 1.878 4.531h1.592c-.001-2.047-.782-4.096-2.345-5.658-1.562-1.562-3.609-2.341-5.655-2.34v1.593z"/></svg>