<svg xmlns="http://www.w3.org/2000/svg" width="24" height="24" viewBox="0 0 24 24"><path d="M16 0c-3.169 0-6 2.113-6 5.003 0 1.025.369 2.032 1.023 2.812.027.916-.511 2.228-.997 3.184 1.301-.235 3.151-.754 3.989-1.268 4.619 1.124 7.985-1.702 7.985-4.728 0-2.905-2.851-5.003-6-5.003zm-2.5 5.75c-.414 0-.75-.336-.75-.75s.336-.75.75-.75.75.336.75.75-.336.75-.75.75zm2.5 0c-.414 0-.75-.336-.75-.75s.336-.75.75-.75.75.336.75.75-.336.75-.75.75zm2.5 0c-.414 0-.75-.336-.75-.75s.336-.75.75-.75.75.336.75.75-.336.75-.75.75zm-6.5 6.853v3.397h-8v-8h4.766c-.491-.919-.766-1.945-.766-2.997v-.003h-4c-1.104 0-2 .896-2 2v15c0 1.104.896 2 2 2h8c1.104 0 2-.896 2-2v-10.047c-.634.257-1.34.476-2 .65zm-6 8.397h-2v-1h2v1zm0-2h-2v-1h2v1zm3 2h-2v-1h2v1zm0-2h-2v-1h2v1zm3 2h-2v-1h2v1zm0-2h-2v-1h2v1z"/></svg>