<svg xmlns="http://www.w3.org/2000/svg" width="24" height="24" viewBox="0 0 24 24"><path d="M18.955 13.934c0 .789-.639 1.428-1.428 1.428s-1.427-.639-1.427-1.428l.027-.276c.702.257 1.393-.42 1.145-1.128l.256-.023c.788-.001 1.427.639 1.427 1.427zm5.045-.233s-2.316 4.299-6.528 4.299c-2.622 0-4.668-2.173-5.733-3.316-.313-.336-.751-.527-1.211-.527h-.89c-.311 0-.407-.124-.499-.315l-.574-1.312-.999 2.553c-.183.467-.856.412-.966-.073l-1.058-5.51-1.167 8.075c-.088.542-.857.577-.991.042l-1.146-5.453-.441 1.508c-.052.175-.235.328-.458.328h-1.339v-1h.94l.823-3.041c.157-.487.881-.428 1.005.063l1.055 4.655s1.037-7.912 1.11-8.253c.126-.583.943-.547 1.067-.001l1.225 6.751.847-2.165c.165-.422.759-.431.938-.015l.958 2.146h.741c.422 0 .829-.162 1.136-.452 1.058-1 2.996-2.689 5.627-2.689 4.191.001 6.528 3.702 6.528 3.702zm-3.934.233c0-1.402-1.137-2.539-2.539-2.539s-2.538 1.137-2.538 2.539 1.136 2.538 2.538 2.538 2.539-1.136 2.539-2.538z"/></svg>