<svg xmlns="http://www.w3.org/2000/svg" width="24" height="24" viewBox="0 0 24 24"><path d="M0 0v19h24v-19h-24zm22 17h-20v-15h20v15zm-6.599 4l2.599 3h-12l2.599-3h6.802zm-1.901-11.5c0 .829-.672 1.5-1.5 1.5s-1.5-.671-1.5-1.5l.028-.29c.737.271 1.464-.441 1.202-1.186l.27-.024c.828 0 1.5.672 1.5 1.5zm-1.492-3.5c-3.785 0-6.008 3.275-6.008 3.275s2.418 3.725 6.008 3.725c3.866 0 5.992-3.725 5.992-3.725s-2.146-3.275-5.992-3.275zm-.008 6c-1.381 0-2.5-1.119-2.5-2.5 0-1.38 1.119-2.5 2.5-2.5s2.5 1.12 2.5 2.5c0 1.381-1.119 2.5-2.5 2.5z"/></svg>