<svg xmlns="http://www.w3.org/2000/svg" width="24" height="24" viewBox="0 0 24 24"><path d="M17.472 11c2.709 0 4.569 1.848 5.316 2.75-.716 1.037-2.566 3.25-5.316 3.25-2.659 0-4.317-2.512-5.317-3.286 1-.652 2.505-2.714 5.317-2.714zm-12.538-4.576c-.073.341-1.11 8.253-1.11 8.253l-1.055-4.655c-.123-.49-.847-.551-1.005-.063l-.824 3.041h-.94v1h1.339c.223 0 .405-.153.458-.328l.441-1.508 1.146 5.453c.135.535.904.499.991-.042l1.167-8.075 1.059 5.509c.11.486.784.54.966.073l.999-2.553s.483 1.121.574 1.312.188.315.499.315c.865 0 1.511-.105 2.101.527 1.064 1.144 3.111 3.317 5.732 3.317 4.212 0 6.528-4.299 6.528-4.299s-2.337-3.701-6.528-3.701c-2.631 0-4.569 1.689-5.627 2.689-.563.532-1.106.452-1.877.452l-.958-2.146c-.178-.417-.773-.407-.938.015l-.847 2.165-1.225-6.752c-.123-.546-.941-.582-1.066.001zm12.566 5.576c-1.105 0-2 .896-2 2 0 1.105.895 2 2 2 1.104 0 2-.896 2-2s-.896-2-2-2zm-.002 2c-.282.282-.74.282-1.022 0-.282-.282-.282-.74 0-1.022.283-.282.74-.282 1.022 0 .283.281.283.739 0 1.022z"/></svg>