<svg xmlns="http://www.w3.org/2000/svg" width="24" height="24" viewBox="0 0 24 24"><path d="M13.714 14c0 .947-.768 1.714-1.714 1.714s-1.714-.767-1.714-1.714l.032-.332c.843.309 1.673-.504 1.374-1.355l.308-.028c.946.001 1.714.769 1.714 1.715zm-1.705-4c-4.326 0-6.866 3.743-6.866 3.743s2.763 4.257 6.866 4.257c4.419 0 6.849-4.257 6.849-4.257s-2.453-3.743-6.849-3.743zm-.009 6.857c-1.578 0-2.857-1.279-2.857-2.857 0-1.578 1.279-2.857 2.857-2.857s2.857 1.279 2.857 2.857c0 1.578-1.279 2.857-2.857 2.857zm10-10.857v16h-20v-16h20zm2-6h-24v24h24v-24z"/></svg>