<svg xmlns="http://www.w3.org/2000/svg" width="24" height="24" viewBox="0 0 24 24"><path d="M12.623 6.431l-4.93 3.42c-1.361.945-1.699 2.814-.754 4.175l5.131 7.394c1.165 1.68 3.034 2.58 4.935 2.58 3.264 0 5.995-2.643 5.995-6.006 0-1.18-.348-2.373-1.07-3.416l-5.131-7.394c-.945-1.36-2.815-1.698-4.176-.753zm.856 1.232c.68-.472 1.615-.302 2.088.377l1.281 1.849-3.08 2.138-2.137-3.081 1.848-1.283zm-4.93 3.42l1.85-1.283 2.137 3.081-3.08 2.138-1.283-1.849c-.474-.678-.304-1.615.376-2.087zm11.017 10.613c-2.039 1.415-4.85.908-6.264-1.131l-2.992-4.313 7.393-5.131 2.994 4.313c1.414 2.039.907 4.848-1.131 6.262zm-8.455-16.512l.32-1.816c-1.568-.277-3.242.046-4.65 1.031-1.406.987-2.283 2.449-2.558 4.018l1.816.318c.195-1.103.81-2.131 1.801-2.825.988-.694 2.167-.922 3.271-.726zm-10.111 2.664l1.861.328c.338-1.917 1.407-3.705 3.127-4.91 1.721-1.205 3.768-1.597 5.683-1.259l.329-1.861c-2.393-.423-4.947.069-7.096 1.572-2.148 1.504-3.482 3.737-3.904 6.13z"/></svg>