<svg xmlns="http://www.w3.org/2000/svg" width="24" height="24" viewBox="0 0 24 24"><path d="M9.746 4.945l-5.347 3.709c-1.476 1.025-1.843 3.052-.817 4.528l5.564 8.02c1.264 1.821 3.291 2.798 5.352 2.798 3.54 0 6.502-2.866 6.502-6.514 0-1.28-.377-2.573-1.161-3.705l-5.565-8.019c-1.025-1.475-3.052-1.842-4.528-.817zm-4.419 5.046l2.773-1.978 2.317 3.341-4.107 2.906-1.392-2.005c-.513-.736-.328-1.753.409-2.264zm11.949 11.51c-2.211 1.535-5.259.984-6.793-1.227l-3.245-4.678 8.018-5.565 3.247 4.678c1.533 2.211.982 5.258-1.227 6.792zm-6.094-18.781l.002-2.72 1.079.001-.003 2.735c-.217-.029-.436-.047-.658-.047l-.42.031zm2.115.272l1.579-2.25.883.62-1.488 2.119c-.305-.197-.631-.363-.974-.489zm-4.191.395l-1.421-2.033.885-.618 1.53 2.19c-.347.112-.677.273-.994.461z"/></svg>