<svg xmlns="http://www.w3.org/2000/svg" width="24" height="24" viewBox="0 0 24 24"><path d="M12.537 2.592l-5.445 3.779c-1.504 1.043-1.877 3.108-.833 4.611l5.668 8.168c1.287 1.855 3.352 2.85 5.451 2.85 3.605 0 6.622-2.919 6.622-6.634 0-1.304-.384-2.621-1.182-3.773l-5.668-8.168c-.644-.927-1.676-1.425-2.726-1.425-.652 0-1.311.192-1.887.592zm.945 1.361c.751-.521 1.784-.334 2.307.416l1.415 2.042-3.912 2.693-2.36-3.403 2.55-1.748zm6.725 15.503c-2.252 1.563-5.356 1.002-6.919-1.25l-3.306-4.764 8.167-5.668 3.308 4.764c1.562 2.252 1.001 5.355-1.25 6.918zm-16.031-11.567l-2.499-1.74.62-.891 2.271 1.582c-.169.332-.3.681-.392 1.049zm.702 4.006l-2.299 1.615-.624-.888 2.414-1.699c.135.338.299.665.509.972zm-.778-1.906h-3.1v-1.085h3.029c-.013.366.005.729.071 1.085z"/></svg>