<svg xmlns="http://www.w3.org/2000/svg" width="24" height="24" viewBox="0 0 24 24"><path d="M8.223 15.867l-1.28-1.85c-.944-1.361-.605-3.23.757-4.174l1.848-1.282 2.99 4.315-4.315 2.991zm5.548-3.844l4.316-2.989-1.281-1.849c-.943-1.363-2.812-1.702-4.174-.758l-1.852 1.281 2.991 4.315zm-4.693 5.078l2.99 4.316c1.164 1.681 3.036 2.583 4.936 2.583 3.284 0 5.996-2.666 5.996-6.006 0-1.179-.347-2.369-1.068-3.412l-2.989-4.314-9.865 6.833zm2.033-11.917l.32-1.816c-1.568-.277-3.243.046-4.65 1.031-1.407.986-2.283 2.449-2.56 4.018l1.817.318c.195-1.103.81-2.131 1.8-2.825.99-.694 2.169-.922 3.273-.726zm-10.111 2.664l1.861.328c.337-1.917 1.407-3.705 3.126-4.91 1.721-1.205 3.768-1.597 5.683-1.259l.33-1.861c-2.393-.423-4.947.069-7.096 1.572-2.148 1.504-3.482 3.737-3.904 6.13z"/></svg>