<svg xmlns="http://www.w3.org/2000/svg" width="24" height="24" viewBox="0 0 24 24"><path d="M6.407 7.252l-2.004 1.39c-.913.632-1.403 1.647-1.403 2.679 0 .639.188 1.284.58 1.849l1.388 2.007 4.683-3.244-3.244-4.681zm6.641-.64l.535.772-2.216 1.535-1.535-2.215.775-.536c.8-.555 1.892-.35 2.441.444zm-1.445-2.257c-.639 0-1.285.188-1.85.58l-2.008 1.39 3.244 4.682 4.683-3.243-1.39-2.005c-.633-.914-1.648-1.404-2.679-1.404zm-.421-1.635l.002-2.72 1.079.001-.003 2.735c-.217-.029-.436-.047-.658-.047l-.42.031zm2.115.272l1.579-2.25.883.62-1.488 2.119c-.305-.197-.631-.363-.974-.489zm-4.191.395l-1.421-2.033.885-.618 1.53 2.19c-.347.112-.677.273-.994.461zm-3.21 13.128l3.243 4.683c1.264 1.823 3.295 2.802 5.356 2.802 3.563 0 6.505-2.893 6.505-6.517 0-1.278-.376-2.57-1.16-3.701l-3.242-4.681-10.702 7.414z"/></svg>