<svg xmlns="http://www.w3.org/2000/svg" width="24" height="24" viewBox="0 0 24 24"><path d="M9.223 14.867l-1.28-1.85c-.944-1.361-.605-3.23.757-4.174l1.848-1.282 2.99 4.315-4.315 2.991zm5.549-3.844l4.316-2.989-1.282-1.849c-.942-1.363-2.812-1.702-4.174-.758l-1.851 1.281 2.991 4.315zm-4.694 5.078l2.99 4.316c1.164 1.681 3.035 2.583 4.936 2.583 3.284 0 5.996-2.666 5.996-6.006 0-1.179-.346-2.369-1.068-3.412l-2.989-4.314-9.865 6.833zm-4.47-6.77c.353-1.73-.451-2.938-1.033-4.231-1.024-2.284 1.565-3.706 3.042-1.643.193.27 2.067 2.863 2.067 2.863l1.191-.835-2.074-2.876c-.801-1.12-1.895-1.609-2.94-1.609-2.114 0-3.592 2.2-2.665 4.565.478 1.218 1.282 2.019.985 3.474-.247 1.207-1.803 2.077-3.367 1.023l-.814 1.209c2.463 1.658 5.164.238 5.608-1.94z"/></svg>