<svg xmlns="http://www.w3.org/2000/svg" width="24" height="24" viewBox="0 0 24 24"><path d="M15 0c-3.313 0-6 2.687-6 6s2.687 6 6 6 6-2.687 6-6-2.687-6-6-6zm.254 9.5l-.754-3-3-.75 6-2.25-2.246 6zm-.254 4.5v1h-2v-1.262c-.342-.088-.677-.194-1-.325v1.587h-3v-2.641l-1.699-1.703.732-.732c-.173-.307-.325-.626-.458-.956l-.981.981-1.594-1.594v-2.898l2.165 2.165c-.105-.509-.16-1.037-.163-1.577l-2.002-2.002v-.043h2.262c.406-1.574 1.275-2.958 2.458-4h-4.72c-1.105 0-2 .896-2 2v18.678c-.001 2.213 3.503 3.322 7.006 3.322 3.498 0 6.994-1.106 6.994-3.322v-6.94c-.641.165-1.309.262-2 .262zm-7 4h-3v-2h3v2zm0-3h-3v-5.23l3 3v2.23zm2 7c-.553 0-1-.448-1-1s.447-1 1-1 1 .448 1 1-.447 1-1 1zm2-4h-3v-2h3v2zm3 0h-2v-2h2v2z"/></svg>