<svg xmlns="http://www.w3.org/2000/svg" width="24" height="24" viewBox="0 0 24 24"><path d="M15 0c-3.313 0-6 2.687-6 6s2.687 6 6 6 6-2.687 6-6-2.687-6-6-6zm.253 9.5l-.753-3-3-.75 6-2.25-2.247 6zm-.253 4.5v4h-10v-14h2.262c.406-1.574 1.275-2.958 2.458-4h-4.72c-1.105 0-2 .896-2 2v18.678c-.001 2.213 3.503 3.322 7.006 3.322 3.498 0 6.994-1.106 6.994-3.322v-6.94c-.641.165-1.308.262-2 .262zm-5 8c-.553 0-1-.448-1-1s.447-1 1-1 1 .448 1 1-.447 1-1 1zm1-7.707v2.707h-1v-2.293l-1.854-1.854-1.146 1.147v-3h3l-1.146 1.146 2.146 2.147z"/></svg>