<svg xmlns="http://www.w3.org/2000/svg" width="24" height="24" viewBox="0 0 24 24"><path d="M15 0c-3.313 0-6 2.687-6 6s2.687 6 6 6 6-2.687 6-6-2.687-6-6-6zm.254 9.5l-.754-3-3-.75 6-2.25-2.246 6zm-.254 4.5v4h-10v-14h2.262c.406-1.574 1.275-2.958 2.459-4h-4.721c-1.105 0-2 .896-2 2v18.678c-.002 2.213 3.503 3.322 7.006 3.322 3.498 0 6.994-1.106 6.994-3.322v-6.94c-.641.165-1.309.262-2 .262zm-5 8c-.553 0-1-.448-1-1s.447-1 1-1 1 .448 1 1-.447 1-1 1zm-2.468-13.482c0 .423-.343.766-.766.766-.423-.001-.766-.344-.766-.766s.343-.766.767-.766c.422-.001.765.343.765.766zm3.702 6.95c-.423 0-.766.343-.766.766s.344.766.766.766c.424 0 .767-.343.767-.766s-.343-.766-.767-.766zm-.371-.653c-.296-.439-.738-.727-1.239-.89l-.269.825c.319.104.604.275.789.549l.719-.484zm-1.962-1.074c-.386-.095-.633-.196-.837-.46l-.686.531c.376.485.854.657 1.316.771l.207-.842zm-1.089-.955c-.109-.35-.082-.689-.018-1.052l-.854-.149c-.089.506-.11.968.044 1.459l.828-.258zm-.099-3.272l-.756.424c.17.303.166.604.112.955l.856.131c.085-.545.06-1.024-.212-1.51z"/></svg>