<svg xmlns="http://www.w3.org/2000/svg" width="24" height="24" viewBox="0 0 24 24"><path d="M8 24v-2h3v-2h2v2h3v2h-8zm9-2v2h3v-2h-3zm-10 0h-3v2h3v-2zm5.857-15.872c-.026-.05.257-.076.307-.076.057.007-.146.339-.307.076zm-1.613-2.304l.081-.023-.038.102c.064.116.017.186.006.249l-.111.069c-.04.05.193.057.195.064.009.025-.281.067-.228.128.072.102.618-.146.531-.132.169-.085.022-.094-.072-.143-.032-.161-.06-.41-.16-.51l.066-.076c-.155-.224-.27.272-.27.272zm9.756 5.176c0 4.971-4.029 9-9 9s-9-4.029-9-9 4.029-9 9-9 9 4.029 9 9zm-6.232-4.028c-.004-.11-.143-.213-.286-.023-.101.13-.083.33-.138.417-.078.131.426.254.426.13.019-.208.549-.048.652-.019.186.052.482-.169.158-.286-.268-.097-.407-.201-.432-.391 0 0 .142-.132.08-.125-.164.02-.46.59-.46.297zm4.722 4.028c0-.776-.133-1.56-.269-1.974-.043-.131-.142-.234-.27-.284-.192-.075-1.003.448-1.125.19l-.429.006c-.091-.05-.341-.386-.455-.345-.23.084.355.723.516.808.151-.114.639-.349.744-.029.201.603-.553 1.263-.938 1.612-.576.521-.469-.337-.861-.639-.206-.158-.204-.495-.412-.611-.093-.053-.52-.543-.516-.61l-.012.125c-.07.053-.221-.201-.237-.241 0 .221.36.573.479.751.203.304.312.746.561.994.134.134.645.686.776.674l.684-.324c.482.114-1.137 2.404-1.29 2.688-.127.238.103.825.084 1.106-.021.324-.277.43-.52.606-.26.189-.198.559-.417.693-.388.239-.666 1.015-1.217 1.011-.162 0-.854.271-.946.005-.07-.192-.164-.337-.264-.527-.098-.186-.012-.378-.13-.542-.082-.114-.356-.373-.381-.508-.001-.116.088-.47.21-.531.172-.088.033-.343.012-.492-.035-.265-.199-.484-.397-.638-.292-.224-.141-.403-.072-.723 0-.153-.093-.354-.299-.294-.424.123-.295-.33-.603-.31-.223.016-.404.156-.61.219-.26.078-.525-.062-.782-.094-1.055-.133-1.399-1.34-1.124-2.21.03-.142-.084-.406-.035-.516.119-.264.361-.561.572-.761.118-.112.271-.084.41-.171.215-.136.218-.415.429-.586.3-.244.71-.239 1.101-.291.209-.028 1.002-.199 1.127-.045 0 .029.145.454-.014.43.324.018.787.562 1.096.434.158-.066.101-.552.426-.317.196.141 1.076.204 1.26.052.113-.093.176-.697.039-.766.087.087-.459.093-.51.073-.09-.033-.174.086-.318.02.088.041-.484-.266-.163-.5l-.404.081c-.1.081.047.135-.096.206-.227.115-.397-.395-.483-.451-.087-.058-.76-.53-.576-.222l.592.589c-.029.02-.156-.214-.156-.044.04-.101.016.435-.078.26l.005-.201c0-.063-.171-.126-.204-.169-.094-.117-.344-.373-.479-.435-.037-.018-.572.065-.617.083l-.135.232c-.111.041-.215.095-.314.161l-.117.264c-.052.046-.574.219-.576.225.021-.056-.366-.128-.34-.241.028-.124.159-.51.125-.651-.035-.148.807.213.86-.177.022-.168.034-.365-.235-.394.052.006.521-.185.6-.271.109-.126.361-.332.543-.332.213 0 .166-.31.265-.461.099.039-.053.282.065.38-.008-.077.334.042.367.025.078-.042.513-.018.445-.222-.074-.208.038-.146.136-.189-.017.007.255-.464.302-.31-.032-.159-.315.056-.414.047-.229-.018-.133-.39-.046-.499.066-.087-.183-.192-.186-.027-.004.247-.233.47-.181.798.081.495-.552-.12-.606-.085-.21.127-.382-.161-.273-.333.111-.176.379-.167.489-.357.078-.133.169-.288.289-.39.401-.337.512-.067.912-.03.391.036.131.093.078.243-.053.143.215.193.307.074.053-.069.172-.243.224-.371.066-.166.676-.148.25-.402-.28-.167-1.503-.504-2.321-.504-.178 0-.301.197-.436.31-.268.221-.951.655-1.332.523-.389-.134-1.223.495-1.355.5-.05.002.001-.476.268-.511-.115.017.935-.53.906-.645-.034-.135-2.1.617-2.007.768.044.069.224.069-.012.221-.138.082-.283.601-.409.601-.379.165-.403-.326-.824.307l-.671.27c-.995 1.058-1.685 2.398-1.935 3.887-.009.06.251.169.284.21.085.101.085.534.126.676.103.358.36.558.555.885.116.194.308.686.247.889.081-.133.803.612.935.767.311.366.55.808.045 1.169-.162.116.248.846.036 1.025l-.271.07c-.267.164-.147.567.016.737 1.364 1.426 3.285 2.315 5.415 2.315 4.137 0 7.492-3.354 7.492-7.492zm-8.631-4.768c.094-.041.22-.04.233-.165l.06-.075c.026-.039-.051-.103-.082-.109l-.112.077-.055.014-.051.065.006.036-.065.08c-.063.064.002.105.066.077z"/></svg>