<svg xmlns="http://www.w3.org/2000/svg" width="24" height="24" viewBox="0 0 24 24"><path d="M14.741 12.48c-.567.554-.552 1.452.029 1.953-.69 1.35-1.62 2.558-2.732 3.567-4.359.029-8.103-3.103-8.889-7.354.794-1.334 1.831-2.508 3.048-3.46.547.37 1.299.265 1.75-.246 2.877.968 5.286 2.96 6.794 5.54zm-11.331-6.175c-.272.868-.41 1.771-.41 2.696l.003.26c.752-1.049 1.647-1.985 2.682-2.791l-.016-.063c-.774-.106-1.514-.136-2.259-.102zm17.26.274c-1.103-.723-2.324-1.276-3.632-1.622-.104.193-.265.35-.463.458.587 2.266.571 4.675-.054 6.936.644.495.675 1.455.059 2.026.229.661.404 1.341.525 2.035 2.53-1.746 3.895-4.551 3.895-7.416 0-.809-.108-1.622-.33-2.417zm-6.25-2.022c-2.139-.097-4.242.353-6.14 1.308l.009.261c3.156 1.074 5.695 3.279 7.246 5.966l.149-.011c.585-2.126.593-4.384.021-6.517-.601-.082-1.1-.496-1.285-1.007zm1.253-1.592c.687.033 1.281.509 1.452 1.107 1.069.269 2.098.669 3.064 1.192-1.169-2.559-3.502-4.474-6.32-5.07.721.854 1.324 1.784 1.804 2.771zm-11.933 2.456c.676-.012 1.34.023 2.035.117.393-.805 1.44-1.031 2.091-.451 2.075-1.047 4.338-1.5 6.564-1.404.08-.191.212-.352.38-.474-.596-1.185-1.376-2.262-2.301-3.194l-.514-.015c-3.677 0-6.864 2.216-8.255 5.421zm11.86 9.328c-.57 1.135-1.307 2.193-2.197 3.143 1.035-.162 2.012-.5 2.897-.983-.111-.746-.288-1.47-.525-2.167l-.175.007zm-7.6 9.251v-2h3v-2h2v2h3v2h-8zm9-2v2h3v-2h-3zm-10 0h-3v2h3v-2z"/></svg>