<svg width="24" height="24" xmlns="http://www.w3.org/2000/svg" fill-rule="evenodd" clip-rule="evenodd"><path d="M12 0l-2.138 2.63-3.068-1.441-.787 3.297-3.389.032.722 3.312-3.039 1.5 2.088 2.671-2.088 2.67 3.039 1.499-.722 3.312 3.389.033.787 3.296 3.068-1.441 2.138 2.63 2.139-2.63 3.068 1.441.786-3.296 3.39-.033-.722-3.312 3.038-1.499-2.087-2.67 2.087-2.671-3.038-1.5.722-3.312-3.39-.032-.786-3.297-3.068 1.441-2.139-2.63zm0 15.5c.69 0 1.25.56 1.25 1.25s-.56 1.25-1.25 1.25-1.25-.56-1.25-1.25.56-1.25 1.25-1.25zm1-1.038v-7.462h-2v7.462h2z"/></svg>