<svg xmlns="http://www.w3.org/2000/svg" width="24" height="24" viewBox="0 0 24 24"><path d="M18 9h-12v1h12v-1zm-9 2h-3v1h3v-1zm0 2h-3v1h3v-1zm9-2h-3v1h3v-1zm0 2h-3v1h3v-1zm-4-2h-4v3h4v-3zm-1.832-3.028l-.46-1.941h.505l.24 1.345.27-1.345h.492l.238 1.32.249-1.32h.482l-.501 1.941h-.5l-.238-1.284-.271 1.284h-.506zm-.579-.396h-.78v-.406h.698v-.393h-.698v-.35h.74v-.396h-1.215v1.941h1.255v-.396zm3.257.028c-.149 0-.324-.043-.466-.116l-.024-.013-.098.398.015.008c.102.058.318.119.547.119.581 0 .788-.328.788-.61 0-.272-.161-.458-.507-.586-.254-.096-.338-.145-.338-.247 0-.098.1-.161.254-.161.136 0 .266.03.388.088l.023.011.107-.39-.015-.007c-.145-.065-.311-.098-.495-.098-.442 0-.739.239-.739.593 0 .262.181.458.535.581.227.081.304.144.304.247 0 .117-.102.183-.279.183zm-6.016-.959l.691 1.327h.485v-1.941h-.438v1.189l-.64-1.189h-.536v1.941h.438v-1.327zm13.212 8.993c.06.255-.277.414-.391.144-.136-.33-.356-1.734-.547-3.146-.103-.756-1.107-.663-1.104.118.003 1.215.002 2.228 0 4.027-.002 1.535.697 1.565 1.213 3.287.088.296.164.618.226.933l2.561-.895c-.893-1.747-.462-3.126-.373-4.255.122-1.543-.288-1.693-2.192-3.548.114.816.352 2.265.607 3.335zm-19.477-3.334c-1.904 1.854-2.314 2.005-2.192 3.548.089 1.128.52 2.507-.373 4.254l2.562.894c.062-.314.138-.637.226-.933.515-1.721 1.214-1.752 1.212-3.287-.002-1.8-.003-2.812 0-4.027.003-.781-1.002-.874-1.104-.118-.19 1.412-.411 2.816-.547 3.146-.113.271-.45.111-.391-.144.255-1.069.493-2.518.607-3.333zm2.435 4.696l.004-2h13.992l.004 2h-14zm-2-5.819v-6.681c0-.828.672-1.5 1.5-1.5h15c.828 0 1.5.672 1.5 1.5v6.681c-.138-.04-.282-.065-.436-.065-.41-.001-.812.166-1.102.457-.289.29-.449.686-.463 1.118v-7.691h-13.999v7.689c-.014-.432-.174-.827-.463-1.117-.29-.291-.691-.457-1.102-.457-.152 0-.296.026-.435.066z"/></svg>