<svg xmlns="http://www.w3.org/2000/svg" width="24" height="24" viewBox="0 0 24 24"><path d="M19 10h-14v1h14v-1zm-11 2h-3v1h3v-1zm0 2h-3v1h3v-1zm11-2h-3v1h3v-1zm0 2h-3v1h3v-1zm0 2h-14v1h14v-1zm-4-4h-6v3h6v-3zm-2.832-3.028l-.46-1.941h.505l.24 1.345.27-1.345h.492l.238 1.32.249-1.32h.482l-.501 1.941h-.5l-.238-1.284-.271 1.284h-.506zm-.579-.396h-.78v-.406h.698v-.393h-.698v-.35h.74v-.396h-1.215v1.941h1.255v-.396zm3.257.028c-.149 0-.324-.043-.466-.116l-.024-.013-.098.398.015.008c.102.058.318.119.547.119.581 0 .788-.328.788-.61 0-.272-.161-.458-.507-.586-.254-.096-.338-.145-.338-.247 0-.098.1-.161.254-.161.136 0 .266.03.388.088l.023.011.107-.39-.015-.007c-.145-.065-.311-.098-.495-.098-.442 0-.739.239-.739.593 0 .262.181.458.535.581.227.081.304.144.304.247 0 .117-.102.183-.279.183zm-6.016-.959l.691 1.327h.485v-1.941h-.438v1.189l-.64-1.189h-.536v1.941h.438v-1.327zm15.17-2.645c0-1.104-.896-2-2-2h-20c-1.104 0-2 .896-2 2v14c0 1.104.896 2 2 2h20c1.104 0 2-.896 2-2v-14zm-3 14h-18v-14h18v14zm1.5-6.5c-.276 0-.5-.224-.5-.5s.224-.5.5-.5.5.224.5.5-.224.5-.5.5z"/></svg>