<svg xmlns="http://www.w3.org/2000/svg" width="24" height="24" viewBox="0 0 24 24"><path d="M20 9h-16v1h16v-1zm-12 2h-4v1h4v-1zm0 2h-4v1h4v-1zm12-2h-4v1h4v-1zm0 2h-4v1h4v-1zm0 2h-16v1h16v-1zm-5-4h-6v3h6v-3zm7-7v14h-20v-14h20zm2-2h-24v20h24v-20zm-11.832 5.972l-.46-1.941h.505l.24 1.345.27-1.345h.492l.238 1.32.249-1.32h.482l-.501 1.941h-.5l-.238-1.284-.271 1.284h-.506zm-.579-.396h-.78v-.406h.698v-.393h-.698v-.35h.74v-.396h-1.215v1.941h1.255v-.396zm3.257.028c-.149 0-.324-.043-.466-.116l-.024-.013-.098.398.015.008c.102.058.318.119.547.119.581 0 .788-.328.788-.61 0-.272-.161-.458-.507-.586-.254-.096-.338-.145-.338-.247 0-.098.1-.161.254-.161.136 0 .266.03.388.088l.023.011.107-.39-.015-.007c-.145-.065-.311-.098-.495-.098-.442 0-.739.239-.739.593 0 .262.181.458.535.581.227.081.304.144.304.247 0 .117-.102.183-.279.183zm-6.016-.959l.691 1.327h.485v-1.941h-.438v1.189l-.64-1.189h-.536v1.941h.438v-1.327z"/></svg>