<svg xmlns="http://www.w3.org/2000/svg" width="24" height="24" viewBox="0 0 24 24"><path d="M4 15h16v1h-16v-1zm5-4v3h6v-3h-6zm-1 0h-4v1h4v-1zm16-9v20h-24v-19.884l.923.699.923-.815.923.815.923-.815.923.815.923-.815.923.815.923-.815.923.815.923-.815.923.815.923-.815.923.815.923-.815.923.815.923-.815.924.815.921-.815.924.815.923-.815.923.815.924-.815.923.815.922-.815.924.815.924-.815zm-2 2h-20v14h20v-14zm-18 10h4v-1h-4v1zm16-1h-4v1h4v-1zm-8.451-6.573v-.396h-1.215v1.941h1.255v-.396h-.78v-.406h.698v-.393h-.698v-.35h.74zm1.396.261l.238 1.284h.5l.501-1.941h-.482l-.249 1.32-.238-1.32h-.492l-.27 1.345-.24-1.345h-.505l.46 1.941h.506l.271-1.284zm1.901.916c-.149 0-.324-.043-.466-.116l-.024-.013-.098.398.015.008c.102.058.318.119.547.119.581 0 .788-.328.788-.61 0-.272-.161-.458-.507-.586-.254-.096-.338-.145-.338-.247 0-.098.1-.161.254-.161.136 0 .266.03.388.088l.023.011.107-.39-.015-.007c-.145-.065-.311-.098-.495-.098-.442 0-.739.239-.739.593 0 .262.181.458.535.581.227.081.304.144.304.247 0 .117-.102.183-.279.183zm-5.325.368h.485v-1.941h-.438v1.189l-.64-1.189h-.536v1.941h.438v-1.327l.691 1.327zm10.479 1.028h-16v1h16v-1zm0 2h-4v1h4v-1z"/></svg>