<svg xmlns="http://www.w3.org/2000/svg" width="24" height="24" viewBox="0 0 24 24"><path d="M22 17.044c-1.494 1.998-5.23 5.708-7.432 6.881 1.155-1.168 1.562-4.234 1.341-5.702 2.047.478 4.805-.279 6.091-1.179zm0-7.044v3c0 3.419-5.247 3.745-8.256 3 0 0 1.522 8-3.335 8h-8.409v-14h20zm-10 9h-6v1h6v-1zm0-3h-6v1h6v-1zm6-3h-12v1h12v-1zm1-11v1c0 1.103-.897 2-2 2s-2-.897-2-2v-1h-6v1c0 1.103-.897 2-2 2s-2-.897-2-2v-1h-3v6h20v-6h-3zm-11-1c0-.552-.447-1-1-1s-1 .448-1 1v2c0 .552.447 1 1 1s1-.448 1-1v-2zm10 0c0-.552-.447-1-1-1s-1 .448-1 1v2c0 .552.447 1 1 1s1-.448 1-1v-2z"/></svg>