<svg xmlns="http://www.w3.org/2000/svg" width="24" height="24" viewBox="0 0 24 24"><path d="M12.181 6c.082.344.186.68.319 1h-4.5v-1h4.181zm-4.181 7h8v-1h-8v1zm11 .543c0 4.107-6 2.457-6 2.457s1.518 6-2.638 6h-7.362v-20h9.5c.312-.749.763-1.424 1.316-2h-12.816v24h10.189c3.163 0 9.811-7.223 9.811-9.614v-3.886c-.623.26-1.297.421-2 .475v2.568zm-11-4.543v1h7.047c-.45-.283-.863-.618-1.23-1h-5.817zm-2 4h1v-1h-1v1zm1-4h-1v1h1v-1zm16-4.5c0 2.485-2.017 4.5-4.5 4.5s-4.5-2.015-4.5-4.5 2.017-4.5 4.5-4.5 4.5 2.015 4.5 4.5zm-2.934.697c0-1.234-1.213-1.527-1.988-1.416l.095-.681h1.716v-.85h-2.437l-.286 2.32c.176-.027.348-.039.592-.039 1.735 0 1.5 1.408.359 1.408-.401 0-.802-.123-.992-.218l-.191.775c.246.13.694.253 1.232.253 1.191.001 1.9-.728 1.9-1.552zm-13.066.803h-1v1h1v-1z"/></svg>