<svg xmlns="http://www.w3.org/2000/svg" width="24" height="24" viewBox="0 0 24 24"><path d="M4 22v-20h16v11.543c0 4.107-6 2.457-6 2.457s1.518 6-2.638 6h-7.362zm18-7.614v-14.386h-20v24h10.189c3.163 0 9.811-7.223 9.811-9.614zm-11.073-8.14c-.081-.659.431-1.246 1.101-1.246.628 0 1.124.552 1.045 1.184l-.618 4.941c-.029.231-.226.405-.459.405-.232 0-.43-.174-.459-.405l-.61-4.879zm1.069 8.754c-.563 0-1.021-.457-1.021-1.021s.457-1.021 1.021-1.021c.564 0 1.021.457 1.021 1.021s-.457 1.021-1.021 1.021z"/></svg>