<svg xmlns="http://www.w3.org/2000/svg" width="24" height="24" viewBox="0 0 24 24"><path d="M0 0c2.799 1.2 8.683.955 8.307 6.371l-2.143 2.186c-5.338.093-5.239-5.605-6.164-8.557zm10.884 15.402c2.708 2.048 11.824 8.451 11.824 8.451.754.513 1.662-.417 1.136-1.162 0 0-6.607-8.964-8.719-11.619-1.668-2.101-2.502-2.175-5.46-3.046l-1.953 1.997c.936 2.931 1.033 3.76 3.172 5.379zm-4.877 3.332l2.62-2.626c-.26-.244-.489-.485-.69-.724l-2.637 2.643.707.707zm8.244-11.162l4.804-4.814 2.154 2.155-4.696 4.706c.438.525.813 1.021 1.246 1.584l6.241-6.253-4.949-4.95-6.721 6.733c.705.229 1.328.483 1.921.839zm4.837-3.366l-3.972 3.981c.24.199.484.423.732.681l3.946-3.956-.706-.706zm-9.701 12.554l-3.6 3.607-2.979.825.824-2.979 3.677-3.685c-.356-.583-.617-1.203-.859-1.904l-4.626 4.635-1.824 6.741 6.773-1.791 4.227-4.234c-1-.728-1.03-.749-1.613-1.215z"/></svg>