<svg xmlns="http://www.w3.org/2000/svg" width="24" height="24" viewBox="0 0 24 24"><path d="M22.381 0c-.344 0-.69.109-.986.334-.671.513-1.021 1.576-1.614 2.217-.77.828-2.231.449-3.564-.978-1.507 1.424-3.404 2.989-5.467 3.536l1.218 1.591c.559.096 1.375-.133 1.819-.543-.234.599-.65 1.054-1.239 1.304l.516.675c1.221 1.59-1.443 1.758-2.972 1.756-1.826 0-5.768-.391-5.768-1.391 0-1.111 4.627-1.631 5.895-1.611l-1.261-1.744c-3.55.169-5.66 1.153-6.502 1.995-.293.293-.435.567-.435.782v1.059c-1.298 1.075-2.023 2.338-2.021 3.597-.001 1.165.603 2.147 1.684 2.764.704.402 1.682.666 2.887.666 1.271 0 2.797-.301 4.514-1.032-.323-.976.4-1.974 1.418-1.975.828-.002 1.497.67 1.497 1.498 0 .829-.669 1.5-1.5 1.5-.284 0-.548-.083-.774-.221-1.8.801-3.554 1.229-5.155 1.229-.937 0-1.8-.148-2.554-.422l-.002 3.667c.001.63.268 1.237.802 1.772 1.156 1.155 3.56 1.975 7.226 1.975 3.908 0 6.945-.946 8.254-2.255.459-.459.703-.972.703-1.492v-11.404c.677-.488 1.332-.935 1.875-1.271-1.047-1.694-1.059-3.22.009-3.729.768-.368 1.831-.442 2.479-.938.418-.32.637-.804.637-1.293 0-.892-.719-1.618-1.619-1.618zm-20.363 14.357c-.651-.435-1.01-1.04-1.009-1.779-.001-.729.361-1.501 1.012-2.219l-.003 3.998zm13.982 6.487c-.558.274-1.382.506-2 .562v-9.844c.71-.073 1.297-.219 2-.516v9.798zm1.712-12.88l-2.751-3.541 1.29-.986 2.77 3.563-1.309.964zm4.995-5.913c-.235.184-.575.137-.755-.1-.184-.238-.137-.576.1-.758.237-.183.578-.138.758.1.181.236.135.578-.103.758z"/></svg>