<svg xmlns="http://www.w3.org/2000/svg" width="24" height="24" viewBox="0 0 24 24"><path d="M9.318 19c-1.611 0-3.269-.709-4.318-2.168l.491.021c3.979 0 2.612-4.516 6.696-4.559l1.84 1.535c.28 3.393-2.156 5.171-4.709 5.171zm9.748-9.283c1.186-1.862 3.832-6.82 4.844-8.748.063-.109.09-.218.09-.323 0-.353-.312-.646-.656-.646-.137 0-.279.047-.408.155-1.67 1.413-5.898 5.02-7.512 6.525-1.531 1.432-1.537 2.087-2.033 4.448l1.68 1.4c2.226-.915 2.867-1.04 3.995-2.811zm.934 2.106v10.177h-18v-14h10.098c.654-1.789 1.74-2.664 5.604-6h-17.702v22h22v-15.317c-.689 1.215-1.275 2.266-2 3.14z"/></svg>