<svg xmlns="http://www.w3.org/2000/svg" width="24" height="24" viewBox="0 0 24 24"><path d="M13 1c-4.971 0-10 1.343-10 3v3.073c-1.077 1.035-2 2.331-2 3.819 0 2.166 1.931 3.378 4.156 3.378 1.922 0 4.297-.849 6.703-2.806-.221-.262-.359-.595-.359-.964 0-.829.671-1.5 1.5-1.5s1.5.671 1.5 1.5-.671 1.5-1.5 1.5l-.201-.02c-2.496 2.125-5.175 3.289-7.644 3.29-.781 0-1.502-.132-2.156-.365v4.348c.001 1.994 4.001 3.747 10.03 3.747 5.94 0 9.971-1.745 9.971-3.747v-15.253c0-1.657-5.029-3-10-3zm-10 11.696c-1.498-.972-1.21-2.651 0-4.145v4.145zm17 6.992c-.493.322-1.412.595-2 .594v-12.751c.57-.027 1.465-.208 2-.406v12.563zm-6.922-13.907c-2.053 0-7.489-.39-7.489-1.391 0-1.011 4.986-1.557 7.489-1.557 2.568 0 7.511.557 7.511 1.557 0 1.011-5.41 1.391-7.511 1.391z"/></svg>