<svg xmlns="http://www.w3.org/2000/svg" width="24" height="24" viewBox="0 0 24 24"><path d="M17.831 7.672c1.096-1.096 2.875-1.865 3.688-3.106.892-1.362.508-3.192-.851-4.085-1.362-.892-3.187-.508-4.081.854-.842 1.286-.801 3.322-1.433 4.779-.817 1.882-3.553 2.116-6.698.474-1.727 3.352-4.075 6.949-6.456 9.874l2.263 1.484c1.018-.174 2.279-1.059 2.792-2.03-.04 1.167-.478 2.2-1.337 2.983l4.275 2.797c.546-.544 1.054-.976 1.616-1.345-.319.643-.532 1.324-.63 1.99l2.532 1.659c1.5-2.884 4.416-7.343 6.455-9.874-2.82-2.272-3.657-4.936-2.135-6.454zm1.762-5.545c.454.296.58.908.281 1.36-.294.457-.905.582-1.356.286-.456-.297-.582-.906-.284-1.36.295-.455.905-.583 1.359-.286zm-3.959 15.037l-8.225-5.386 1.616-2.469 8.221 5.387-1.612 2.468z"/></svg>