<svg xmlns="http://www.w3.org/2000/svg" width="24" height="24" viewBox="0 0 24 24"><path d="M24 1.618c0-.9-.727-1.618-1.619-1.618-.344 0-.689.109-.986.334-.67.513-1.021 1.576-1.613 2.217-.77.828-2.416.449-3.75-.978-1.507 1.424-3.595 2.906-5.449 3.427l1.2 1.7c.559.096 1.375-.133 1.818-.543-.234.599-.65 1.054-1.238 1.304l.523.686c1.193 1.557-1.232 1.747-2.824 1.745-1.826 0-5.768-.391-5.768-1.391 0-1.171 4.411-1.596 5.768-1.58l-1.285-1.77c-3.461.189-5.52 1.16-6.35 1.99-.292.293-.427.567-.427.782v2.069c-1.291 1.073-2.002 2.333-2 3.587-.002 2.246 2.071 3.43 4.562 3.43 1.431 0 3.028-.382 5.017-1.333.254.2.571.324.921.324.831 0 1.5-.671 1.5-1.5 0-.828-.669-1.5-1.498-1.499-.953 0-1.681.881-1.463 1.83-2.078.973-3.781 1.253-5.068 1.149v-5.124c1.49 1.032 5.594 1.389 8.904 1.073.621-.06 1.125.471 1.125.995v3.076c0 .552.418 1 .971 1s1-.448 1-1v-3.255c0-.931.467-1.327 1.029-1.889v9.39c-.057.274-2.236 1.754-6.986 1.754-4.799 0-5.984-1.482-6.043-1.747v-2.227c-.624.002-1.486-.214-1.971-.487v2.714c0 .63.254 1.237.787 1.772 1.156 1.155 3.561 1.975 7.227 1.975 3.908 0 6.945-.946 8.254-2.255.459-.458.703-.972.703-1.491v-11.516c.621-.443 1.219-.85 1.719-1.16-1.047-1.694-.873-3.22.195-3.729.768-.368 1.83-.442 2.479-.938.417-.32.636-.804.636-1.293zm-23 11.96c-.001-.724.357-1.492 1-2.207v3.979c-.646-.434-1.001-1.037-1-1.772zm16.501-5.613l-2.726-3.541 1.291-.986 2.747 3.583-1.312.944zm5.206-5.914c-.234.184-.574.137-.754-.1-.184-.238-.137-.576.1-.758.236-.183.578-.138.758.1.181.236.134.578-.104.758z"/></svg>