<svg xmlns="http://www.w3.org/2000/svg" width="24" height="24" viewBox="0 0 24 24"><path d="M22 11.702v10.298h-20v-10.227c.588.573 1.256 1.095 2 1.555v6.672h16v-6.723c.743-.464 1.406-.996 2-1.575zm2-7.702c0 5.218-4.122 10.5-12 10.5-8.245 0-12-5.443-12-10.5h2v-2h20v2h2zm-22.939 1c.118 1.078.429 2.154.939 3.161v-3.161h-.939zm10.939 8.5c3.484 0 6.158-1.118 8-2.8v-6.7c-.553 0-2 .203-2 2v1.5c0 .829-.672 1.5-1.5 1.5s-1.5-.671-1.5-1.5v-.5c0-.552-.447-1-1-1s-1 .448-1 1v4c0 .552-.447 1-1 1s-1-.448-1-1v-3c0-.552-.447-1-1-1s-1 .448-1 1v1.5c0 .829-.672 1.5-1.5 1.5s-1.5-.671-1.5-1.5v-3.5c0-1.766-1.447-2-2-2v6.774c1.803 1.632 4.442 2.726 8 2.726zm10.938-8.5h-.938v3.096c.502-.981.817-2.031.938-3.096z"/></svg>