<svg xmlns="http://www.w3.org/2000/svg" width="24" height="24" viewBox="0 0 24 24"><path d="M15.07 12.528l-1.68-1.4c.497-2.361.502-3.016 2.035-4.448 1.938-1.811 7.512-6.525 7.512-6.525.129-.108.271-.155.409-.155.342 0 .654.294.654.647 0 .104-.027.214-.088.322 0 0-3.418 6.509-4.846 8.748-1.127 1.771-1.769 1.896-3.996 2.811zm-1.043 1.301l-1.839-1.535c-4.084.043-2.717 4.559-6.696 4.559l-.49-.021c1.048 1.459 2.706 2.168 4.318 2.168 2.551 0 4.988-1.778 4.707-5.171zm3.973-.39v8.561h-16v-12h9.582c.154-.754.296-1.396.517-2h-12.099v16h20v-12.176c-.641.772-1.272 1.24-2 1.615z"/></svg>