<svg xmlns="http://www.w3.org/2000/svg" width="24" height="24" viewBox="0 0 24 24"><path d="M24 1l-4.5 16.5-6.097-5.43 5.852-6.175-7.844 5.421-5.411-1.316 18-9zm-11 12.501v5.499l2.193-3.323-2.193-2.176zm-4.638 6.251c.99-.576 1.864-1.296 2.638-2.17v2.053c-.667.588-1.391 1.096-2.175 1.527l-.463-1.41zm-4.883 3.06c-.978.125-2.355.188-3.479.188v-1.455c1.032 0 2.327-.056 3.229-.169l.25 1.436zm4.184-1.086l-.055.023c-.879.369-1.831.655-2.865.859l-.25-1.438c.982-.197 1.885-.473 2.714-.833l.456 1.389z"/></svg>