<svg xmlns="http://www.w3.org/2000/svg" width="24" height="24" viewBox="0 0 24 24"><path d="M3 22.5c0 .829-.672 1.5-1.5 1.5-.827 0-1.5-.671-1.5-1.5s.673-1.5 1.5-1.5c.828 0 1.5.671 1.5 1.5zm13.669-18.749l-.622-1.118c-.733.476-1.358 1.065-1.88 1.769l1.13.631c.391-.501.847-.928 1.372-1.282zm-12.472 17.824c.086.266.133.549.133.842 0 .147-.012.292-.034.433.81-.111 1.558-.281 2.243-.51l-.38-1.215c-.595.201-1.247.351-1.962.45zm5.865-7.469l5.568-3.849-4.154 4.385 4.329 3.855 3.195-11.716-12.781 6.391 3.843.934zm9.622-12.801c-.926.152-1.761.392-2.508.721l.622 1.118c.611-.258 1.295-.449 2.057-.574-.119-.307-.185-.64-.185-.988l.014-.277zm2.815-1.305c-.827 0-1.499.671-1.499 1.5s.672 1.5 1.499 1.5c.828 0 1.501-.671 1.501-1.5s-.673-1.5-1.501-1.5zm-13.499 19.339c-.479.504-1.017.941-1.656 1.281l.386 1.233c.46-.227.877-.496 1.271-.791v-1.723zm2.012.442l1.735-2.578-1.735-1.545v4.123zm3.592-13.667l-1.118-.625c-.367.697-.642 1.451-.871 2.231l1.629-.799c.111-.275.225-.55.36-.807z"/></svg>