<svg xmlns="http://www.w3.org/2000/svg" width="24" height="24" viewBox="0 0 24 24"><path d="M8.012 15.876v4.124l1.735-2.578-1.735-1.546zm-4.026 5.871c-.645.405-1.311.765-1.986 1.069l.492 1.184c.675-.303 1.343-.658 1.992-1.056l-.498-1.197zm3.014-2.407c-.59.581-1.253 1.171-1.932 1.67l.505 1.214c.487-.346.977-.758 1.427-1.146v-1.738zm9-13.34l-3.195 12.716-4.329-3.855 4.154-4.385-5.568 3.849-3.843-.934 12.781-7.391zm-2 .001l-.944.546c-.034-.178-.056-.359-.056-.547 0-1.654 1.346-3 3-3s3 1.346 3 3c0 1.557-1.196 2.826-2.716 2.971l.266-1.058c.835-.24 1.45-1.001 1.45-1.913 0-1.104-.896-2-2-2s-2 .896-2 2.001zm8-.001c0 3.313-2.687 6-6 6l-.471-.024.497-1.979c2.194-.015 3.974-1.801 3.974-3.997 0-2.206-1.794-4-4-4s-4 1.794-4 4c0 .371.067.723.162 1.064l-1.779 1.029c-.243-.653-.383-1.356-.383-2.093 0-3.313 2.687-6 6-6s6 2.687 6 6z"/></svg>