<svg xmlns="http://www.w3.org/2000/svg" width="24" height="24" viewBox="0 0 24 24"><path d="M5 21v1h16v-10.812l-1-1.406v11.218h-15zm2 2v1h16v-10.188l-1-1.406v10.594h-15zm12-13.842v10.842h-16v-6.213c.713.203 1.354.247 2 .188v4.025h12v-8c0-3.594-5-2-5-2s1.469-5-2-5v-2c4.721 0 9 6.188 9 8.158zm-11-8.158v7.5c0 1.933-1.566 3.5-3.5 3.5s-3.5-1.567-3.5-3.5v-6c0-1.381 1.119-2.5 2.5-2.5s2.5 1.119 2.5 2.5v4.5c0 .828-.672 1.5-1.5 1.5s-1.5-.672-1.5-1.5v-4h1v4c0 .275.225.5.5.5s.5-.225.5-.5v-4.5c0-.827-.673-1.5-1.5-1.5s-1.5.673-1.5 1.5v6c0 1.378 1.121 2.5 2.5 2.5s2.5-1.122 2.5-2.5v-7.5h1z"/></svg>