<svg xmlns="http://www.w3.org/2000/svg" width="24" height="24" viewBox="0 0 24 24"><path d="M9 1v7.5c0 1.933-1.566 3.5-3.5 3.5s-3.5-1.567-3.5-3.5v-6c0-1.381 1.119-2.5 2.5-2.5s2.5 1.119 2.5 2.5v4.5c0 .828-.672 1.5-1.5 1.5s-1.5-.672-1.5-1.5v-4h1v4c0 .275.225.5.5.5s.5-.225.5-.5v-4.5c0-.827-.673-1.5-1.5-1.5s-1.5.673-1.5 1.5v6c0 1.378 1.121 2.5 2.5 2.5s2.5-1.122 2.5-2.5v-7.5h1zm2 0v2c3.282 0 3.772 2.946 3 6 0 0 6-1.65 6 2.457v10.543h-15v-8.025c-.715-.065-1.39-.269-2-.582v10.607h19v-13.386c0-1.843-5.583-9.614-11-9.614zm4.999 15.852c-.003 1.684-2.484 2.059-2.925.812-.333-.945.797-1.947 1.926-1.725v-1.912l-4.001.955v2.469c-.001 1.009-.901 1.549-1.717 1.549-.543 0-1.048-.239-1.224-.738-.333-.944.814-1.948 1.942-1.723v-3.344l5.999-1.195v4.852z"/></svg>