<svg xmlns="http://www.w3.org/2000/svg" width="24" height="24" viewBox="0 0 24 24"><path d="M9 1v7.5c0 1.933-1.566 3.5-3.5 3.5s-3.5-1.567-3.5-3.5v-6c0-1.381 1.119-2.5 2.5-2.5s2.5 1.119 2.5 2.5v4.5c0 .828-.672 1.5-1.5 1.5s-1.5-.672-1.5-1.5v-4h1v4c0 .275.225.5.5.5s.5-.225.5-.5v-4.5c0-.827-.673-1.5-1.5-1.5s-1.5.673-1.5 1.5v6c0 1.378 1.121 2.5 2.5 2.5s2.5-1.122 2.5-2.5v-7.5h1zm2 0v2c3.282 0 3.772 2.946 3 6 0 0 6-1.65 6 2.457v10.543h-15v-8.025c-.715-.065-1.39-.269-2-.582v10.607h19v-13.386c0-1.843-5.583-9.614-11-9.614zm6 13h-9v1h9v-1zm0 3h-9v-1h9v1zm0 2h-9v-1h9v1z"/></svg>