<svg xmlns="http://www.w3.org/2000/svg" width="24" height="24" viewBox="0 0 24 24"><path d="M12.729 15.415c.508 0 1.303.372 1.695.639l-2.131-5.413c-.464-1.177 1.301-1.828 1.75-.688l1.443 3.661c.167.424.808.173.641-.252l-.355-.903c.315-.001.751-.055 1.055.021.197.049.354.151.434.358l.292.74c.166.422.805.171.641-.252l-.337-.855c.426-.017.73-.03 1.01.04.199.05.36.153.441.361l.248.628c.162.425.805.174.641-.251l-.279-.705c.236.016.442.036.627.082.523.131.884.468 1.28 1.477.788 2.001.208 2.896 1.001 4.91l-5.201 1.987c-2.064-2.522-4.494-3.269-5.144-3.682-1.283-.82-.765-1.903.248-1.903zm-1.291-5.26c-.055-.709.369-1.338 1.039-1.602.659-.262 1.403-.098 1.851.464-.05-1.118-1.185-1.865-2.24-1.453-1.051.415-1.377 1.737-.65 2.591zm-.084 3.514l-.263-.669h-9.091v-8h20v6.05c.902.564 1.371 1.477 1.685 2.271.135.341.234.658.315.958v-11.279h-24v12h10.008c.284-.583.753-1.05 1.346-1.331zm-4.354-4.669c0 .552.447 1 1 1s1-.448 1-1-.447-1-1-1-1 .448-1 1zm-3 0c0 .552.447 1 1 1s1-.448 1-1-.447-1-1-1-1 .448-1 1z"/></svg>