<svg xmlns="http://www.w3.org/2000/svg" width="24" height="24" viewBox="0 0 24 24"><path d="M1.828 6l-.458-2h21.256l-.501 2h-20.297zm1.612-4l-.439-2h17.994l-.439 2h-17.116zm-3.44 6l2.035 16h19.868l2.097-16h-24zm3.782 14.001l-1.22-10.001h18.86l-1.259 10.001h-16.381zm11.01-4c.495 0 .931-.448.974-1 .043-.552-.346-1-.87-1s-.959.448-.974 1c-.015.552.374 1 .87 1zm-9.345-4l.782 5.999h11.542l.782-5.999h-13.106zm11.521 5h-9.905l-.459-4.001h10.823l-.459 4.001zm-7.864-3c-.524 0-.913.448-.87 1 .043.552.479 1 .974 1s.884-.448.87-1c-.014-.552-.45-1-.974-1zm1.979 1c0 .552.401 1 .896 1l.021-.005.021.005c.495 0 .896-.448.896-1 0-.54-.409-.975-.917-.993-.508.018-.917.453-.917.993z"/></svg>