<svg xmlns="http://www.w3.org/2000/svg" width="24" height="24" viewBox="0 0 24 24"><path d="M24 6v12c0 1.104-.896 2-2 2h-20c-1.105 0-2-.896-2-2v-12c0-1.104.896-2 2-2h20c1.104 0 2 .896 2 2zm-7 6v-.009c0-.636-.463-1.164-1.114-1.164-.65 0-1.104.519-1.104 1.155v.01c0 .636.463 1.164 1.114 1.164.65-.001 1.104-.52 1.104-1.156zm-2.901-1.252l-.405.396c-.233-.193-.489-.317-.814-.317-.627 0-1.081.514-1.081 1.155v.01c0 .64.454 1.164 1.081 1.164.337 0 .572-.116.805-.307l.384.375c-.311.285-.666.461-1.207.461-.955 0-1.666-.743-1.666-1.683v-.009c0-.931.697-1.692 1.689-1.692.56-.002.915.181 1.214.447zm-3.248 2.879h-2.368v-.453l1.128-.959c.449-.379.613-.589.613-.884 0-.323-.229-.51-.529-.51-.3 0-.505.164-.758.491l-.407-.318c.313-.44.622-.687 1.207-.687.641 0 1.081.393 1.081.977v.009c0 .514-.271.795-.852 1.267l-.674.561h1.558v.506zm5.94-3.092c-.627-2.047-2.533-3.535-4.786-3.535-2.764 0-5.005 2.239-5.005 5s2.241 5 5.005 5c2.265 0 4.177-1.503 4.794-3.565-.259.156-.568.248-.913.248-1.006 0-1.708-.762-1.708-1.683v-.009c0-.921.711-1.692 1.717-1.692.339 0 .641.087.896.236z"/></svg>