<svg xmlns="http://www.w3.org/2000/svg" width="24" height="24" viewBox="0 0 24 24"><path d="M13.953 13.452c0 .892-1.133 1.048-2.786 1.048v-2.086c1.562 0 2.786.081 2.786 1.038zm10.047-8.452v14c0 1.104-.896 2-2 2h-20c-1.104 0-2-.896-2-2v-14c0-1.104.896-2 2-2h20c1.104 0 2 .896 2 2zm-8.25 8.326c0-1.066-.866-1.528-1.491-1.687.515-.186 1.113-.948.872-1.857-.204-.768-.916-1.45-2.714-1.51v-1.272h-.833v1.25h-.417v-1.25h-.833v1.25h-2.084v1.25h.681c.367 0 .569.238.569.585v3.704c0 .357-.211.711-.579.711h-.45l-.208 1.241h2.07v1.259h.833v-1.259h.417v1.259h.833v-1.25c2.214 0 3.334-.972 3.334-2.424zm-2.259-2.784c0-.833-.866-1.042-2.324-1.042v2.083c.921 0 2.324-.065 2.324-1.041z"/></svg>