<svg xmlns="http://www.w3.org/2000/svg" width="24" height="24" viewBox="0 0 24 24"><path d="M21.5 6c.276 0 .5.224.5.5v11c0 .276-.224.5-.5.5h-19c-.276 0-.5-.224-.5-.5v-11c0-.276.224-.5.5-.5h19zm2.5 0c0-1.104-.896-2-2-2h-20c-1.105 0-2 .896-2 2v12c0 1.104.895 2 2 2h20c1.104 0 2-.896 2-2v-12zm-14.11 5c.098 0 .174.04.232.116.79 1.085 1.33 2.237 1.616 3.455h-1.991c-.38-1.313-.924-2.429-1.638-3.344l-.029-.085c-.001-.073.058-.142.145-.142h1.665zm2.495 1.594c-.147.594-.33 1.179-.558 1.754-.237-.924-.616-1.808-1.143-2.652.121-.656.183-1.326.196-2.004.63 1.013 1.13 1.978 1.505 2.902zm.442-3.165c1.364 1.877 2.334 4.187 2.54 6.571h-2.013c-.121-1.978-.946-4.17-2.469-6.571h1.942zm3.094 2.571c0 1.263-.152 2.469-.451 3.625-.201-1.665-.732-3.277-1.603-4.835-.076-.897-.232-1.763-.473-2.607-.022-.094.045-.183.139-.183h1.603c.125 0 .241.085.272.205.343 1.219.513 2.482.513 3.795z"/></svg>