<?xml version="1.0" encoding="utf-8"?>
<!-- Generator: Adobe Illustrator 21.0.0, SVG Export Plug-In . SVG Version: 6.00 Build 0)  -->
<svg version="1.1" id="iconmonstr" xmlns="http://www.w3.org/2000/svg" xmlns:xlink="http://www.w3.org/1999/xlink" x="0px" y="0px"
	 width="24px" height="24px" viewBox="0 0 24 24" style="enable-background:new 0 0 24 24;" xml:space="preserve">
<path id="payment-14_1_" d="M22,4H2C0.896,4,0,4.896,0,6v12c0,1.104,0.896,2,2,2h20c1.104,0,2-0.896,2-2V6C24,4.896,23.104,4,22,4z
	 M22,17.5c0,0.276-0.224,0.5-0.5,0.5h-19C2.224,18,2,17.776,2,17.5v-11C2,6.224,2.224,6,2.5,6h19C21.776,6,22,6.224,22,6.5V17.5z
	 M15.833,11.254c0,0.179-0.022,0.361-0.056,0.542c-0.282,1.473-1.249,1.982-2.483,1.982h-0.191c-0.151,0-0.279,0.111-0.303,0.263
	l-0.268,1.697C12.509,15.889,12.381,16,12.23,16h-0.912c-0.13,0-0.229-0.116-0.209-0.244l0.462-2.96
	c0.002-0.011,0.01-0.019,0.021-0.019h0.718c1.745,0,2.836-0.873,3.158-2.523C15.738,10.526,15.833,10.88,15.833,11.254z
	 M11.095,12.671c0.039-0.275,0.153-0.392,0.462-0.393l0.753-0.001c1.525,0,2.399-0.697,2.674-2.13C15.251,8.769,14.283,8,12.974,8
	h-2.448c-0.172,0-0.319,0.127-0.346,0.3c-0.768,4.945-0.99,6.202-1.013,6.586c-0.007,0.121,0.09,0.224,0.212,0.224h1.33
	L11.095,12.671z"/>
</svg>
