<svg xmlns="http://www.w3.org/2000/svg" width="24" height="24" viewBox="0 0 24 24"><path d="M21.5 6c.276 0 .5.224.5.5v11c0 .276-.224.5-.5.5h-19c-.276 0-.5-.224-.5-.5v-11c0-.276.224-.5.5-.5h19zm2.5 0c0-1.104-.896-2-2-2h-20c-1.105 0-2 .896-2 2v12c0 1.104.895 2 2 2h20c1.104 0 2-.896 2-2v-12zm-9.472 6.955c-.192-.266-.397-.482-.397-.976v-1.641c0-.695.049-1.334-.464-1.813-.404-.388-1.073-.525-1.586-.525-1.002 0-2.121.374-2.355 1.613-.026.131.071.201.157.22l1.021.111c.096-.005.165-.099.183-.194.088-.426.445-.632.847-.632.217 0 .463.08.592.273.148.217.128.513.128.765v.137c-.611.068-1.409.114-1.981.365-.66.285-1.123.866-1.123 1.721 0 1.095.69 1.642 1.577 1.642.749 0 1.158-.177 1.736-.766.192.277.254.411.605.702.078.043.179.038.248-.025.21-.187.595-.517.81-.697.085-.07.07-.185.002-.28zm-1.875-1.592c0 .411.01.752-.197 1.117-.167.297-.434.479-.729.479-.405 0-.641-.308-.641-.764 0-.897.805-1.061 1.567-1.061v.229zm2.248 3.231c-.916.491-1.912.727-2.818.727-1.342 0-2.642-.464-3.694-1.235-.092-.067-.16.051-.084.139.976 1.108 2.263 1.775 3.693 1.775 1.02 0 2.205-.405 3.022-1.165.135-.125.019-.315-.119-.241zm.223.739c-.03.076.035.107.103.049.446-.373.562-1.155.47-1.268-.091-.112-.871-.209-1.347.126-.073.051-.061.122.021.112.268-.032.865-.104.971.033.107.136-.117.698-.218.948z"/></svg>