<svg xmlns="http://www.w3.org/2000/svg" width="24" height="24" viewBox="0 0 24 24"><path d="M21.5 6c.276 0 .5.224.5.5v11c0 .276-.224.5-.5.5h-19c-.276 0-.5-.224-.5-.5v-11c0-.276.224-.5.5-.5h19zm2.5 0c0-1.104-.896-2-2-2h-20c-1.105 0-2 .896-2 2v12c0 1.104.895 2 2 2h20c1.104 0 2-.896 2-2v-12zm-12.593 10c-2.213.011-4.035-1.783-4.035-3.965.001-2.386 1.822-4.035 4.035-4.035h1.037c2.187 0 4.183 1.649 4.183 4.035 0 2.182-1.996 3.965-4.183 3.965h-1.037zm.009-7.669c-2.022.001-3.661 1.64-3.661 3.662 0 2.022 1.639 3.661 3.661 3.661 2.023 0 3.662-1.639 3.662-3.661 0-2.022-1.639-3.661-3.662-3.662zm-.831 5.828v-4.332c-.87.335-1.487 1.177-1.49 2.166.002.988.62 1.831 1.49 2.166zm3.153-2.166c-.002-.989-.62-1.832-1.491-2.166v4.333c.871-.335 1.489-1.178 1.491-2.167z"/></svg>