<svg xmlns="http://www.w3.org/2000/svg" width="24" height="24" viewBox="0 0 24 24"><path d="M21.5 6c.276 0 .5.224.5.5v11c0 .276-.224.5-.5.5h-19c-.276 0-.5-.224-.5-.5v-11c0-.276.224-.5.5-.5h19zm2.5 0c0-1.104-.896-2-2-2h-20c-1.105 0-2 .896-2 2v12c0 1.104.895 2 2 2h20c1.104 0 2-.896 2-2v-12zm-6.836 5.188c0 1.761-1.427 3.188-3.188 3.188s-3.188-1.427-3.188-3.188 1.428-3.188 3.189-3.188 3.187 1.427 3.187 3.188zm-6.73 0c0-1.087.493-2.061 1.266-2.711-.487-.302-1.061-.477-1.677-.477-1.761 0-3.188 1.427-3.188 3.188s1.427 3.188 3.188 3.188c.615 0 1.19-.175 1.677-.477-.773-.65-1.266-1.624-1.266-2.711zm-1.722 4.791v-.531c0-.2-.127-.335-.333-.336-.108-.002-.22.032-.297.151-.058-.094-.151-.151-.28-.151-.09 0-.179.027-.248.126v-.104h-.184v.846h.186v-.469c0-.147.081-.225.207-.225.122 0 .184.08.184.223v.471h.186v-.469c0-.147.085-.225.207-.225.126 0 .186.08.186.223v.471h.186zm2.752-.847h-.301v-.257h-.186v.257h-.172v.168h.172v.386c0 .197.076.313.294.313.08 0 .172-.025.23-.066l-.053-.158-.163.048c-.092 0-.122-.057-.122-.142v-.382h.301v-.167zm1.57-.021c-.106 0-.175.05-.223.124v-.103h-.182v.846h.184v-.475c0-.14.06-.218.181-.218l.115.021.057-.174-.132-.021zm-2.374.089c-.089-.058-.211-.089-.345-.089-.214 0-.352.103-.352.271 0 .138.103.223.292.25l.087.012c.101.014.149.041.149.089 0 .066-.067.103-.193.103-.127 0-.22-.041-.282-.089l-.088.143c.101.074.228.11.367.11.244 0 .386-.115.386-.276 0-.149-.112-.227-.296-.253l-.087-.012c-.08-.011-.143-.027-.143-.083 0-.062.06-.099.161-.099.108 0 .212.041.264.073l.08-.15zm4.933-.089c-.106 0-.175.05-.223.124v-.103h-.182v.846h.184v-.475c0-.14.06-.218.181-.218l.115.021.057-.174-.132-.021zm-2.373.445c0 .257.179.444.452.444.127 0 .212-.028.305-.101l-.089-.149c-.069.05-.142.076-.221.076-.147-.002-.255-.108-.255-.271 0-.163.108-.269.255-.271.08 0 .152.027.221.076l.089-.149c-.092-.073-.177-.101-.305-.101-.273.001-.452.189-.452.446zm1.725 0v-.423h-.184v.103c-.058-.076-.147-.124-.267-.124-.237 0-.423.186-.423.444 0 .259.186.444.423.444.12 0 .209-.048.267-.124v.103h.184v-.423zm-.685 0c0-.149.097-.271.257-.271.152 0 .255.117.255.271 0 .154-.103.271-.255.271-.16-.001-.257-.123-.257-.271zm-2.222-.445c-.248 0-.421.181-.421.444 0 .269.181.444.434.444.127 0 .244-.032.347-.119l-.09-.136c-.071.057-.161.089-.246.089-.119 0-.227-.055-.253-.207h.629l.004-.071c-.004-.263-.167-.444-.404-.444zm-.004.165c.119 0 .195.074.214.205h-.439c.02-.122.094-.205.225-.205zm4.62.28v-.763h-.184v.443c-.058-.076-.147-.124-.267-.124-.237 0-.423.186-.423.444 0 .259.186.444.423.444.12 0 .209-.048.267-.124v.103h.184v-.423zm-.685 0c0-.149.097-.271.257-.271.152 0 .255.117.255.271 0 .154-.103.271-.255.271-.16-.001-.257-.123-.257-.271zm-6.219 0v-.423h-.185v.103c-.058-.076-.147-.124-.267-.124-.237 0-.423.186-.423.444s.186.444.423.444c.12 0 .209-.048.267-.124v.103h.185v-.423zm-.686 0c0-.149.097-.271.257-.271.152 0 .255.117.255.271 0 .154-.103.271-.255.271-.159-.001-.257-.123-.257-.271z"/></svg>