<svg xmlns="http://www.w3.org/2000/svg" width="24" height="24" viewBox="0 0 24 24"><path d="M22 4h-20c-1.104 0-2 .896-2 2v12c0 1.104.896 2 2 2h20c1.104 0 2-.896 2-2v-12c0-1.104-.896-2-2-2zm-12.55 11.315c0 .925-.751 1.667-1.667 1.667h-2.445v-3.507s.751.211 1.712.211c1.584 0 2.051-.614 2.051-1.365v-1.932h-1.428v1.941c0 .476-.311.824-.888.824-.485 0-.971-.146-1.438-.375v-4.112c0-.925.751-1.667 1.667-1.667h2.436v8.315zm4.615.018c0 .925-.751 1.667-1.667 1.667h-2.445v-3.846c.421.357 1.154.586 2.335.531.641-.027 1.31-.201 1.31-.201v-.705c-.339.165-.742.33-1.264.366-.897.073-1.438-.366-1.438-1.145 0-.769.54-1.209 1.438-1.145.522.037.925.192 1.264.366v-.705s-.678-.174-1.31-.201c-1.181-.055-1.914.174-2.335.531v-2.18c0-.924.751-1.666 1.667-1.666h2.445v8.333zm4.597-.009c0 .925-.751 1.667-1.667 1.667h-2.445v-3.388h2.582c.604 0 1.062-.33 1.062-.833 0-.467-.412-.769-.952-.806v-.018c.495-.064.76-.385.76-.76 0-.476-.394-.751-.925-.778l-.165-.009h-2.352v-1.732c0-.925.75-1.667 1.666-1.667h2.436v8.324zm-2.326-3.132l.119.009c.183.046.339.211.339.43 0 .229-.156.394-.339.43l-.119.009h-.961v-.879h.961zm-.961-.494v-.806h.87l.092.009c.183.027.339.174.339.394s-.156.366-.339.394l-.092.009h-.87z"/></svg>