<svg xmlns="http://www.w3.org/2000/svg" width="24" height="24" viewBox="0 0 24 24"><path d="M21.5 6c.276 0 .5.224.5.5v11c0 .276-.224.5-.5.5h-19c-.276 0-.5-.224-.5-.5v-11c0-.276.224-.5.5-.5h19zm2.5 0c0-1.104-.896-2-2-2h-20c-1.105 0-2 .896-2 2v12c0 1.104.895 2 2 2h20c1.104 0 2-.896 2-2v-12zm-4 6.509c0-1.137-.55-2.034-1.605-2.034-1.056 0-1.698.898-1.698 2.028 0 1.338.758 2.015 1.838 2.015.53 0 .929-.121 1.23-.288v-.894c-.303.153-.65.246-1.09.246-.433 0-.814-.153-.863-.673h2.173l.015-.4zm-2.197-.419c0-.5.308-.71.586-.71.273 0 .561.21.561.71h-1.147zm-2.822-1.615c-.435 0-.716.205-.869.348l-.058-.274h-.977v5.181l1.11-.236.002-1.256c.159.117.397.281.785.281.794 0 1.52-.639 1.52-2.049.001-1.293-.733-1.995-1.513-1.995zm-.265 3.063c-.26 0-.416-.094-.523-.211l-.007-1.649c.116-.127.275-.22.53-.22.406 0 .686.455.686 1.036 0 .597-.276 1.044-.686 1.044zm-3.169-3.327l1.114-.237v-.904l-1.114.237v.904zm0 4.228h1.114v-3.89h-1.114v3.89zm-1.194-3.562l-.07-.328h-.96v3.89h1.109v-2.637c.262-.344.705-.278.846-.232v-1.02c-.146-.054-.665-.15-.925.327zm-2.226-1.292l-1.084.23-.005 3.561c0 .657.494 1.142 1.153 1.142.363 0 .631-.066.779-.147v-.903c-.142.057-.843.261-.843-.394v-1.579h.843v-.946h-.842l-.001-.964zm-3.004 2.093c0-.173.144-.241.377-.241.338 0 .766.103 1.104.286v-1.045c-.368-.147-.735-.203-1.103-.203-.9 0-1.5.47-1.5 1.256 0 1.229 1.687 1.029 1.687 1.559 0 .205-.178.271-.426.271-.368 0-.842-.152-1.215-.354v1.06c.413.178.831.252 1.214.252.923 0 1.559-.456 1.559-1.255-.001-1.323-1.697-1.086-1.697-1.586z"/></svg>