<svg xmlns="http://www.w3.org/2000/svg" width="24" height="24" viewBox="0 0 24 24"><path d="M18.53 10.339l-1.009 1.091-.978-1.091h-3.197v3.329h3.147l1.016-1.103.978 1.103h1.022l-1.486-1.655 1.486-1.674h-.979zm-2.439 2.639h-1.956v-.665h1.743v-.677h-1.743v-.608h1.994l.871.972-.909.978zm-8.715-2.752l-.01-.02h.01v.02zm2.997 2.37l-1.041-2.257h-1.298v3.147l-1.348-3.147h-1.184l-1.423 3.329h.865l.307-.746h1.655l.307.746h1.618v-2.608l1.154 2.608h.702l1.147-2.608.006 2.608h.784v-3.329h-1.292l-.959 2.257zm-4.84-.364l.545-1.329.545 1.329h-1.09zm16.467-8.232h-20c-1.104 0-2 .896-2 2v12c0 1.104.896 2 2 2h20c1.104 0 2-.896 2-2v-12c0-1.104-.896-2-2-2zm-1 10.32h-2.859l-.633-.721-.677.721h-10.107l-.301-.74h-.69l-.301.74h-2.432l2.031-4.64h4.771l.533 1.198.52-1.198h6.056l.614.708.658-.708h2.817l-2.038 2.332 2.038 2.308z"/></svg>