<svg xmlns="http://www.w3.org/2000/svg" width="24" height="24" viewBox="0 0 24 24"><path d="M12.816 10.919v.285c0 .513.012.94-.246 1.396-.209.371-.542.599-.911.599-.506 0-.801-.385-.801-.955-.001-1.121 1.006-1.325 1.958-1.325zm11.184-5.919v14c0 1.104-.896 2-2 2h-20c-1.104 0-2-.896-2-2v-14c0-1.104.896-2 2-2h20c1.104 0 2 .896 2 2zm-11.184 4.694v.171c-.763.085-1.761.142-2.476.456-.825.356-1.404 1.083-1.404 2.151 0 1.368.863 2.052 1.971 2.052.936 0 1.448-.221 2.17-.957.24.346.318.514.756.878.097.053.223.048.31-.031.262-.234.743-.646 1.013-.871.107-.087.089-.23.004-.35-.24-.333-.497-.603-.497-1.22v-2.051c0-.869.061-1.667-.58-2.266-.504-.485-1.341-.656-1.982-.656-1.253 0-2.651.467-2.944 2.016-.032.164.089.251.197.275l1.276.139c.12-.006.206-.123.229-.242.11-.533.556-.79 1.058-.79.271 0 .579.1.739.341.185.271.16.641.16.955zm2.81 5.549c-1.145.613-2.39.909-3.522.909-1.678 0-3.303-.581-4.617-1.544-.115-.084-.201.064-.104.173 1.218 1.386 2.827 2.219 4.614 2.219 1.275 0 2.756-.506 3.777-1.456.17-.157.025-.393-.148-.301zm.996-.6c-.114-.14-1.088-.261-1.683.157-.092.064-.076.153.026.141.335-.04 1.081-.13 1.214.041.133.17-.148.872-.273 1.185-.038.095.044.133.129.061.557-.467.702-1.444.587-1.585z"/></svg>