<svg xmlns="http://www.w3.org/2000/svg" width="24" height="24" viewBox="0 0 24 24"><path d="M21.5 6c.276 0 .5.224.5.5v11c0 .276-.224.5-.5.5h-19c-.276 0-.5-.224-.5-.5v-11c0-.276.224-.5.5-.5h19zm2.5 0c0-1.104-.896-2-2-2h-20c-1.105 0-2 .896-2 2v12c0 1.104.895 2 2 2h20c1.104 0 2-.896 2-2v-12zm-9.3 6.857h.769l.095-.007c.147-.029.271-.161.271-.344 0-.176-.125-.308-.271-.344l-.095-.007h-.769v.702zm.681-4.857c-.733 0-1.333.593-1.333 1.333v1.385h1.883l.132.007c.425.022.74.242.74.623 0 .3-.212.557-.608.608v.015c.432.029.762.271.762.645 0 .403-.366.667-.85.667h-2.067v2.711h1.956c.733 0 1.333-.593 1.333-1.333v-6.661h-1.948zm.359 3.436c0-.176-.125-.293-.271-.315l-.073-.007h-.696v.645h.696l.073-.007c.146-.023.271-.14.271-.316zm-7.729-3.436c-.733 0-1.333.593-1.333 1.333v3.289c.374.183.762.3 1.15.3.462 0 .711-.278.711-.659v-1.553h1.143v1.546c0 .601-.374 1.092-1.641 1.092-.769 0-1.37-.168-1.37-.168v2.806h1.956c.733 0 1.333-.593 1.333-1.333v-6.653h-1.949zm3.685 0c-.733 0-1.333.593-1.333 1.333v1.744c.337-.286.923-.469 1.868-.425.505.022 1.048.161 1.048.161v.564c-.271-.139-.593-.264-1.011-.293-.718-.051-1.15.3-1.15.916 0 .623.432.974 1.15.916.418-.029.74-.161 1.011-.293v.564s-.535.139-1.048.161c-.945.044-1.531-.139-1.868-.425v3.077h1.956c.733 0 1.333-.593 1.333-1.333v-6.667h-1.956z"/></svg>