<svg xmlns="http://www.w3.org/2000/svg" width="24" height="24" viewBox="0 0 24 24"><path d="M15.465 16.444c0 .193-.128.339-.319.339-.199 0-.321-.153-.321-.339 0-.186.122-.339.321-.339.19.001.319.147.319.339zm-6.814-.338c-.199 0-.321.153-.321.339 0 .186.122.339.321.339.19 0 .319-.146.319-.339 0-.193-.128-.339-.319-.339zm3.391-.011c-.164 0-.257.104-.281.257h.549c-.024-.164-.119-.257-.268-.257zm5.24.011c-.199 0-.321.153-.321.339 0 .186.122.339.321.339.19 0 .319-.146.319-.339 0-.193-.129-.339-.319-.339zm6.718-10.106v12c0 1.104-.896 2-2 2h-20c-1.104 0-2-.896-2-2v-12c0-1.104.896-2 2-2h20c1.104 0 2 .896 2 2zm-18.456 4.985c0 2.201 1.784 3.985 3.985 3.985.769 0 1.487-.219 2.096-.596-.967-.813-1.582-2.03-1.582-3.389s.616-2.576 1.582-3.389c-.609-.377-1.326-.596-2.096-.596-2.2 0-3.985 1.784-3.985 3.985zm2.346 5.324c0-.25-.159-.418-.416-.421-.135-.002-.274.04-.372.188-.073-.117-.188-.188-.35-.188-.113 0-.224.033-.31.157v-.131h-.23v1.058h.232v-.587c0-.184.102-.281.259-.281.153 0 .23.1.23.279v.589h.232v-.587c0-.184.106-.281.259-.281.157 0 .232.1.232.279v.589h.234v-.663zm1.297-.394h-.23v.128c-.073-.095-.184-.155-.334-.155-.297 0-.529.232-.529.556 0 .324.232.556.529.556.151 0 .261-.06.334-.155v.128h.23v-1.058zm1.164.74c0-.186-.139-.283-.37-.317l-.108-.016c-.1-.013-.179-.033-.179-.104 0-.078.075-.124.201-.124.135 0 .266.051.33.091l.1-.186c-.111-.073-.263-.111-.432-.111-.268 0-.44.128-.44.339 0 .173.128.279.365.312l.108.016c.126.018.186.051.186.111 0 .082-.084.128-.241.128-.159 0-.274-.051-.352-.111l-.108.179c.126.094.285.138.458.138.305 0 .482-.144.482-.345zm1.025.263l-.066-.197c-.069.04-.144.06-.204.06-.115 0-.153-.071-.153-.177v-.478h.376v-.21h-.376v-.321h-.232v.321h-.215v.21h.215v.483c0 .246.095.392.367.392.1-.001.215-.032.288-.083zm1.173-.474c-.002-.33-.206-.556-.503-.556-.31 0-.527.226-.527.556 0 .336.226.556.542.556.159 0 .305-.04.434-.148l-.113-.17c-.089.071-.201.111-.308.111-.148 0-.283-.069-.317-.259h.786l.006-.09zm.908-.526l-.164-.029c-.133 0-.219.062-.279.155v-.128h-.228v1.058h.23v-.594c0-.175.075-.272.226-.272l.144.027.071-.217zm.308.526c0-.204.135-.336.319-.339.1 0 .19.033.277.095l.111-.186c-.115-.091-.221-.126-.381-.126-.341 0-.564.235-.564.556s.222.556.563.556c.159 0 .266-.035.381-.126l-.111-.186c-.086.062-.177.095-.277.095-.183-.002-.318-.135-.318-.339zm1.916-.529h-.23v.128c-.073-.095-.184-.155-.334-.155-.297 0-.529.232-.529.556 0 .323.232.556.529.556.151 0 .261-.06.334-.155v.128h.23v-1.058zm.974.003l-.164-.029c-.133 0-.219.062-.279.155v-.128h-.228v1.058h.23v-.594c0-.175.075-.272.226-.272l.144.027.071-.217zm1.162-.428h-.23v.553c-.073-.095-.184-.155-.334-.155-.297 0-.529.232-.529.556 0 .323.232.556.529.556.151 0 .261-.06.334-.155v.128h.23v-1.483zm.639-4.505c0-2.201-1.785-3.985-3.985-3.985s-3.985 1.784-3.985 3.985c0 2.201 1.784 3.985 3.985 3.985s3.985-1.784 3.985-3.985z"/></svg>