<svg xmlns="http://www.w3.org/2000/svg" width="24" height="24" viewBox="0 0 24 24"><path d="M21.5 6c.276 0 .5.224.5.5v11c0 .276-.224.5-.5.5h-19c-.276 0-.5-.224-.5-.5v-11c0-.276.224-.5.5-.5h19zm2.5 0c0-1.104-.896-2-2-2h-20c-1.105 0-2 .896-2 2v12c0 1.104.895 2 2 2h20c1.104 0 2-.896 2-2v-12zm-8 6v-.007c0-.509-.37-.931-.891-.931-.52 0-.883.415-.883.924v.008c0 .509.371.931.891.931.52-.001.883-.416.883-.925zm-2.321-1.002l-.324.316c-.187-.154-.391-.253-.652-.253-.502 0-.865.411-.865.924v.008c0 .512.363.931.865.931.27 0 .458-.093.644-.246l.307.3c-.249.228-.533.369-.966.369-.764 0-1.333-.595-1.333-1.346v-.007c0-.744.558-1.354 1.351-1.354.45-.001.734.145.973.358zm-2.599 2.304h-1.894v-.363l.902-.767c.359-.303.491-.471.491-.707 0-.258-.184-.408-.423-.408-.24 0-.404.131-.606.393l-.326-.254c.251-.352.498-.55.966-.55.513 0 .865.314.865.782v.007c0 .411-.217.636-.681 1.013l-.539.449h1.247v.405zm4.752-2.474c-.501-1.637-2.025-2.828-3.828-2.828-2.211 0-4.004 1.791-4.004 4s1.793 4 4.004 4c1.812 0 3.342-1.202 3.835-2.852-.207.125-.454.199-.73.199-.805 0-1.366-.61-1.366-1.346v-.007c0-.737.569-1.354 1.374-1.354.27-.001.512.069.715.188z"/></svg>