<svg xmlns="http://www.w3.org/2000/svg" width="24" height="24" viewBox="0 0 24 24"><path d="M21.5 6c.276 0 .5.224.5.5v11c0 .276-.224.5-.5.5h-19c-.276 0-.5-.224-.5-.5v-11c0-.276.224-.5.5-.5h19zm2.5 0c0-1.104-.896-2-2-2h-20c-1.105 0-2 .896-2 2v12c0 1.104.895 2 2 2h20c1.104 0 2-.896 2-2v-12zm-12.417 11v-1.259h-.417v1.259h-.833v-1.259h-2.07l.208-1.241h.449c.368 0 .579-.354.579-.711v-3.704c.001-.347-.201-.585-.568-.585h-.681v-1.25h2.083v-1.25h.833v1.25h.417v-1.25h.833v1.272c1.798.061 2.51.742 2.714 1.51.241.908-.357 1.671-.872 1.857.625.159 1.491.621 1.491 1.687 0 1.451-1.12 2.424-3.333 2.424v1.25h-.833zm-.416-4.586v2.086c1.654 0 2.786-.156 2.786-1.048 0-.957-1.224-1.038-2.786-1.038zm0-.831c.921 0 2.324-.065 2.324-1.042 0-.833-.866-1.042-2.324-1.042v2.084z"/></svg>