<svg xmlns="http://www.w3.org/2000/svg" width="24" height="24" viewBox="0 0 24 24"><path d="M21.5 6c.276 0 .5.224.5.5v11c0 .276-.224.5-.5.5h-19c-.276 0-.5-.224-.5-.5v-11c0-.276.224-.5.5-.5h19zm2.5 0c0-1.104-.896-2-2-2h-20c-1.105 0-2 .896-2 2v12c0 1.104.895 2 2 2h20c1.104 0 2-.896 2-2v-12zm-3.001 10.5c0 .276-.224.5-.5.5h-13.4c8.991-1.55 13.9-5.014 13.9-5.014v4.514zm-14.977-6.091c0 .385-.177.758-.475 1.005-.251.209-.538.302-.934.302h-.746v-2.618h.75c.828 0 1.405.538 1.405 1.311zm-.526-.004c0-.251-.106-.495-.283-.652-.169-.152-.369-.211-.699-.211h-.137v1.731h.137c.33 0 .538-.063.699-.208.177-.157.283-.408.283-.66zm.761 1.311h.511v-2.618h-.511v2.618zm1.759-1.613c-.306-.114-.396-.188-.396-.33 0-.165.16-.29.38-.29.153 0 .279.063.412.212l.267-.35c-.22-.192-.482-.29-.769-.29-.463 0-.817.322-.817.75 0 .361.165.545.644.718.2.071.302.118.353.149.102.067.153.161.153.271 0 .212-.169.369-.397.369-.244 0-.44-.122-.557-.349l-.33.318c.235.345.518.498.907.498.531 0 .903-.353.903-.86 0-.415-.172-.604-.753-.816zm.915.306c0 .77.604 1.366 1.382 1.366.22 0 .408-.043.64-.153v-.601c-.204.204-.385.287-.617.287-.514 0-.879-.373-.879-.903 0-.503.377-.899.856-.899.244 0 .428.087.64.295v-.601c-.224-.114-.409-.161-.628-.161-.774 0-1.394.609-1.394 1.37zm6.071.448l-.698-1.759h-.558l1.111 2.685h.275l1.131-2.685h-.553l-.708 1.759zm1.492.859h1.448v-.443h-.938v-.707h.904v-.444h-.904v-.58h.938v-.444h-1.448v2.618zm2.874-1.103l.824 1.103h-.628l-.707-1.052h-.067v1.052h-.51v-2.618h.757c.589 0 .927.283.927.773.001.401-.211.664-.596.742zm.071-.714c0-.255-.173-.388-.491-.388h-.157v.793h.149c.326-.001.499-.142.499-.405zm-6.922-.899c-.785 0-1.421.636-1.421 1.421s.636 1.421 1.421 1.421 1.421-.636 1.421-1.421-.636-1.421-1.421-1.421z"/></svg>