<svg xmlns="http://www.w3.org/2000/svg" width="24" height="24" viewBox="0 0 24 24"><path d="M22 4h-20c-1.104 0-2 .896-2 2v12c0 1.104.896 2 2 2h20c1.104 0 2-.896 2-2v-12c0-1.104-.896-2-2-2zm-11.292 11.11h-1.33c-.122 0-.219-.103-.212-.224.024-.383.246-1.641 1.014-6.586.026-.173.173-.3.346-.3h2.448c1.31 0 2.277.769 2.01 2.147-.275 1.433-1.15 2.13-2.674 2.13l-.753.001c-.309.001-.423.118-.462.393l-.387 2.439zm5.069-3.314c-.282 1.473-1.249 1.982-2.483 1.982h-.191c-.151 0-.279.111-.303.263l-.268 1.697c-.023.151-.151.262-.302.262h-.912c-.13 0-.229-.116-.209-.244l.462-2.96.021-.019h.718c1.745 0 2.836-.873 3.158-2.523.271.272.366.626.366 1-.001.178-.022.361-.057.542z"/></svg>