<svg xmlns="http://www.w3.org/2000/svg" width="24" height="24" viewBox="0 0 24 24"><path d="M12 0c-6.627 0-12 5.373-12 12s5.373 12 12 12 12-5.373 12-12-5.373-12-12-12zm-2.635 17.443h-2.327c-.214 0-.383-.18-.37-.392.039-.671.427-2.871 1.772-11.525.046-.303.303-.526.605-.526h4.284c2.292 0 3.985 1.347 3.518 3.757-.481 2.508-2.012 3.728-4.68 3.728l-1.318.001c-.54.001-.74.206-.808.688l-.676 4.269zm8.87-5.8c-.494 2.578-2.185 3.468-4.345 3.468h-.333c-.264 0-.489.195-.53.46l-.469 2.969c-.042.265-.266.46-.53.46h-1.596c-.227 0-.401-.203-.366-.427l.808-5.18.036-.033h1.257c3.054 0 4.964-1.527 5.526-4.415.474.476.64 1.095.64 1.749 0 .313-.038.633-.098.949z"/></svg>