<svg xmlns="http://www.w3.org/2000/svg" width="24" height="24" viewBox="0 0 24 24"><path d="M22 4h-20c-1.104 0-2 .896-2 2v12c0 1.104.896 2 2 2h20c1.104 0 2-.896 2-2v-12c0-1.104-.896-2-2-2zm0 13.5c0 .276-.224.5-.5.5h-19c-.276 0-.5-.224-.5-.5v-11c0-.276.224-.5.5-.5h19c.276 0 .5.224.5.5v11zm-6.167-6.246c0 .179-.022.361-.056.542-.282 1.473-1.249 1.982-2.483 1.982h-.191c-.151 0-.279.111-.303.263l-.268 1.697c-.023.151-.151.262-.302.262h-.912c-.13 0-.229-.116-.209-.244l.462-2.96.021-.019h.718c1.745 0 2.836-.873 3.158-2.523.27.272.365.626.365 1zm-4.738 1.417c.039-.275.153-.392.462-.393l.753-.001c1.525 0 2.399-.697 2.674-2.13.267-1.378-.701-2.147-2.01-2.147h-2.448c-.172 0-.319.127-.346.3-.768 4.945-.99 6.202-1.013 6.586-.007.121.09.224.212.224h1.33l.386-2.439z"/></svg>