<svg xmlns="http://www.w3.org/2000/svg" width="24" height="24" viewBox="0 0 24 24"><path d="M23.873 9.81c.085-.251.127-.509.127-.763 0-.77-.38-1.513-1.055-1.982-2.152-1.492-1.868-1.117-2.68-3.544-.338-1.014-1.321-1.7-2.429-1.696-2.653.008-2.193.153-4.335-1.354-.447-.314-.974-.471-1.501-.471s-1.054.157-1.502.471c-2.155 1.515-1.688 1.362-4.334 1.354-1.108-.003-2.09.683-2.429 1.696-.812 2.433-.534 2.055-2.68 3.544-.675.469-1.055 1.212-1.055 1.982 0 .254.042.512.127.763.83 2.428.827 1.963 0 4.38-.085.251-.127.509-.127.763 0 .77.38 1.514 1.055 1.982 2.147 1.489 1.868 1.114 2.68 3.544.338 1.014 1.321 1.7 2.429 1.696 2.654-.009 2.193-.152 4.335 1.354.447.314.974.471 1.501.471s1.054-.157 1.502-.471c2.142-1.506 1.681-1.362 4.335-1.354 1.108.003 2.09-.683 2.429-1.696.813-2.428.528-2.053 2.68-3.544.674-.468 1.054-1.212 1.054-1.982 0-.254-.042-.512-.127-.763-.831-2.427-.827-1.963 0-4.38zm-14.06 6.855h-1.995c-.183 0-.328-.155-.318-.336.034-.575.367-2.461 1.519-9.879.041-.259.261-.45.519-.45h3.672c1.964 0 3.416 1.154 3.015 3.22-.412 2.15-1.725 3.195-4.011 3.195l-1.13.001c-.463.001-.635.177-.693.59l-.578 3.659zm7.602-4.971c-.424 2.209-1.873 2.973-3.724 2.973h-.286c-.226 0-.419.167-.454.394l-.402 2.545c-.035.227-.227.394-.454.394h-1.368c-.195 0-.344-.174-.314-.366l.693-4.44.031-.028h1.077c2.618 0 4.255-1.309 4.736-3.784.406.408.549.939.549 1.499.001.267-.032.542-.084.813z"/></svg>