<svg xmlns="http://www.w3.org/2000/svg" width="24" height="24" viewBox="0 0 24 24"><path d="M12 0c-6.627 0-12 5.373-12 12s5.373 12 12 12 12-5.373 12-12-5.373-12-12-12zm0 22c-5.514 0-10-4.486-10-10s4.486-10 10-10 10 4.486 10 10-4.486 10-10 10zm5.5-11.119c0 .268-.033.542-.085.813-.424 2.209-1.873 2.973-3.724 2.973h-.286c-.226 0-.419.167-.454.394l-.402 2.545c-.035.227-.227.394-.454.394h-1.368c-.195 0-.344-.174-.314-.366l.693-4.44.031-.028h1.077c2.618 0 4.255-1.309 4.736-3.784.407.407.55.938.55 1.499zm-7.108 2.125c.058-.413.23-.589.693-.59l1.13-.001c2.287 0 3.599-1.045 4.011-3.195.4-2.066-1.051-3.22-3.015-3.22h-3.673c-.258 0-.478.191-.518.451-1.152 7.418-1.485 9.304-1.519 9.879-.011.181.134.336.318.336h1.995l.578-3.66z"/></svg>