<svg xmlns="http://www.w3.org/2000/svg" width="24" height="24" viewBox="0 0 24 24"><path d="M22 2h-14c-1.104 0-2 .896-2 2v4h16v3.5c0 .276-.224.5-.5.5h-1.5v2h2c1.104 0 2-.896 2-2v-8c0-1.104-.896-2-2-2zm0 3h-14v-.5c0-.276.224-.5.5-.5h13c.276 0 .5.224.5.5v.5zm-6 5h-14c-1.104 0-2 .896-2 2v8c0 1.104.896 2 2 2h14c1.104 0 2-.896 2-2v-8c0-1.104-.896-2-2-2zm-7.844 8.333h-.997c-.092 0-.164-.077-.159-.168.017-.288.183-1.231.76-4.939.02-.131.13-.226.259-.226h1.836c.982 0 1.708.577 1.508 1.61-.206 1.075-.862 1.598-2.006 1.598h-.565c-.232.001-.317.088-.346.295l-.29 1.83zm3.802-2.486c-.212 1.105-.937 1.486-1.862 1.486h-.143c-.113 0-.209.083-.227.197l-.201 1.273c-.018.114-.114.197-.227.197h-.684c-.097 0-.172-.087-.157-.183l.346-2.22.016-.014h.539c1.309 0 2.127-.654 2.368-1.892.203.204.274.469.274.749 0 .134-.016.271-.042.407z"/></svg>