<svg xmlns="http://www.w3.org/2000/svg" width="24" height="24" viewBox="0 0 24 24"><path d="M0 0v24h24v-24h-24zm8.654 18.22h-2.659c-.244 0-.438-.206-.423-.448.045-.767.489-3.282 2.025-13.172.053-.346.347-.6.691-.6h4.896c2.619 0 4.554 1.539 4.021 4.294-.55 2.867-2.299 4.26-5.349 4.26l-1.506.001c-.617.001-.846.236-.924.786l-.772 4.879zm10.137-6.628c-.565 2.946-2.497 3.964-4.966 3.964h-.381c-.302 0-.559.223-.606.526l-.536 3.393c-.046.302-.303.525-.604.525h-1.824c-.26 0-.459-.232-.419-.488l.924-5.92.041-.037h1.437c3.49 0 5.673-1.745 6.315-5.046.542.544.732 1.252.732 1.999 0 .357-.043.723-.113 1.084z"/></svg>