<svg xmlns="http://www.w3.org/2000/svg" width="24" height="24" viewBox="0 0 24 24"><path d="M1.185 21.986l.845.872-1 .971c-.118.114-.271.171-.423.171-.336 0-.607-.274-.607-.607 0-.159.062-.317.185-.436l1-.971zm-.185-18.613l20.654 18.734 1.346-1.48-20.658-18.734-1.342 1.48zm7.31 8.655l-3.105 3.009c-1.837 1.781-2.774 3.507-3.64 5.916l1.509 1.559c2.434-.79 4.187-1.673 6.024-3.455l3.364-3.262-4.152-3.767zm8.039.542l6.682-6.479c.645-.625.969-1.457.969-2.29 0-2.784-3.373-4.261-5.405-2.29l-6.979 6.768 4.733 4.291zm-5.596-5.074l7.274-7.055c-.284-.295-.658-.441-1.035-.441-.37 0-.743.142-1.033.424l-6.256 6.107 1.05.965z"/></svg>