<svg xmlns="http://www.w3.org/2000/svg" width="24" height="24" viewBox="0 0 24 24"><path d="M7 23v-2h6v2h-6zm-1-4.456c0 .25.203.456.455.456.115 0 .229-.042.318-.128l.748-.729-.633-.654-.75.728c-.091.089-.138.208-.138.327zm1.174-1.829l1.133 1.169c1.824-.593 3.14-1.255 4.518-2.591l2.563-2.486-2.919-3.014-2.564 2.485c-1.379 1.336-2.081 2.63-2.731 4.437zm-.174-7.715h3.013l2.058-2h-5.071v2zm12.521-7.669c-.213-.221-.495-.331-.777-.331-.277 0-.558.107-.775.318l-4.461 4.326c-.437.425-.46 1.113-.035 1.552l6.048-5.865zm-1.521 17.669v2h-3v2h5v-4h-2zm1.946-16.867l-6.604 6.405 3.326 3.434 6.604-6.403c.485-.469.728-1.093.728-1.718 0-2.088-2.53-3.196-4.054-1.718zm-1.946 14.867h2v-5.473l-2 1.938v3.535zm-18 0h2v-4h-2v4zm2-6v-2h3v-2h-5v4h2zm3 10h-3v-2h-2v4h5v-2z"/></svg>