<svg xmlns="http://www.w3.org/2000/svg" width="24" height="24" viewBox="0 0 24 24"><path d="M19.099 11.136c-1.449 1.97-3.599 3.914-6.021 3.597-.655.916-1.387 2.194-2.199 3.678l-1.879.589c1.589-3.101 3.712-6.53 5.989-9.136-.986.642-2.606 2.023-4.016 3.479-1.271-2.656.069-5.115 2.012-6.994-.056.885.337 1.692.631 2.107-.05-.74.036-2.062.576-3.207 1.082-.913 2.039-1.57 3.132-2.145-.177.647-.025 1.423.182 1.907.095-.67.494-1.937.955-2.462 1.364-.88 3.384-1.584 5.539-1.548-.238 1.328-.936 3.484-1.877 4.821-.761.489-1.766.775-2.566.913.663.186 1.407.24 2.052.192-.469.987-.946 1.891-1.667 3-.995.555-2.267.8-3.135.846.607.319 1.714.505 2.292.363zm-1.099 4.009v5.855h-16v-12h6.875c.229-.673.547-1.342.979-2h-9.854v16h20v-9.788c-.574.679-1.239 1.355-2 1.933z"/></svg>