<svg xmlns="http://www.w3.org/2000/svg" width="24" height="24" viewBox="0 0 24 24"><path d="M1 3.373l20.654 18.734 1.346-1.48-20.658-18.734-1.342 1.48zm10.616 4.906l6.979-6.768c.645-.625 1.423-.903 2.187-.903 1.645-.001 3.218 1.291 3.218 3.193 0 .833-.324 1.665-.97 2.291l-6.682 6.479-1.484-1.346 6.774-6.569c1.133-1.098-.548-2.777-1.651-1.709l-6.887 6.679-1.484-1.347zm.847 7.515l-3.364 3.262c-1.837 1.782-3.591 2.665-6.024 3.455l-1.509-1.559c.866-2.409 1.803-4.135 3.64-5.916l3.105-3.009 1.48 1.343-3.193 3.102c-1.1 1.066-1.838 2.089-2.498 3.535 1.463-.615 2.508-1.321 3.607-2.387l3.269-3.175 1.487 1.349zm-2.744-9.278l6.24-6.092c.29-.282.663-.424 1.033-.424.377 0 .751.146 1.035.44l-7.274 7.055-1.034-.979zm-8.534 15.47l.845.872-1 .971c-.118.114-.27.171-.423.171-.336 0-.607-.274-.607-.607 0-.159.062-.317.185-.436l1-.971z"/></svg>