<svg xmlns="http://www.w3.org/2000/svg" width="24" height="24" viewBox="0 0 24 24"><path d="M12 0c-6.627 0-12 5.373-12 12s5.373 12 12 12 12-5.373 12-12-5.373-12-12-12zm-.994 9.095l2.974-2.884c.144-.14.331-.211.516-.211.188 0 .375.073.518.22l-4.032 3.911c-.283-.294-.268-.752.024-1.036zm-4.49 8.819c-.06.057-.136.086-.212.086-.168 0-.304-.137-.304-.304 0-.079.031-.159.093-.218l.5-.485.422.436-.499.485zm4.034-2.386c-.919.891-1.796 1.333-3.013 1.728l-.754-.779c.433-1.205.901-2.067 1.819-2.958l1.71-1.657 1.946 2.009-1.708 1.657zm6.965-6.483l-4.402 4.269-2.218-2.29 4.402-4.27c1.016-.984 2.703-.246 2.703 1.146 0 .416-.162.832-.485 1.145z"/></svg>