<svg xmlns="http://www.w3.org/2000/svg" width="24" height="24" viewBox="0 0 24 24"><path d="M18.009 13.388c-1.771 2.408-4.399 4.783-7.359 4.396-.801 1.119-1.695 2.682-2.688 4.496l-2.296.72c1.943-3.79 4.537-7.981 7.32-11.166-1.205.785-3.185 2.473-4.908 4.253-1.554-3.246.085-6.253 2.458-8.548-.067 1.081.413 2.068.772 2.575-.062-.904.044-2.52.704-3.92 1.323-1.116 2.492-1.92 3.829-2.622-.217.791-.033 1.739.222 2.331.116-.82.603-2.368 1.167-3.01 1.667-1.075 4.135-1.936 6.77-1.892-.291 1.623-1.143 4.258-2.294 5.893-.929.597-2.157.946-3.137 1.115.811.228 1.719.293 2.509.235-.575 1.207-1.157 2.311-2.039 3.666-1.216.679-2.77.978-3.832 1.035.743.389 2.097.617 2.802.443zm-14.009 8.612h-4v1h4v-1z"/></svg>