<svg width="24" height="24" xmlns="http://www.w3.org/2000/svg" fill-rule="evenodd" clip-rule="evenodd"><path d="M2.59 1.322l2.844-1.322 4.041 7.889-2.724 1.342c-.538 1.259 2.159 6.289 3.297 6.372.09-.058 2.671-1.328 2.671-1.328l4.11 7.932s-2.764 1.354-2.854 1.396c-.604.276-1.228.402-1.862.397-5.678-.043-12.143-10.564-12.113-17.454.011-2.351.777-4.279 2.59-5.224zm1.93 1.274l-1.023.504c-5.294 2.762 4.177 21.185 9.648 18.686l.972-.474-2.271-4.383-1.026.501c-3.163 1.547-8.262-8.219-5.055-9.938l1.007-.498-2.252-4.398zm8.98 6.404c.828 0 1.5.672 1.5 1.5s-.672 1.5-1.5 1.5-1.5-.672-1.5-1.5.672-1.5 1.5-1.5zm9 0c.828 0 1.5.672 1.5 1.5s-.672 1.5-1.5 1.5-1.5-.672-1.5-1.5.672-1.5 1.5-1.5zm-4.5 0c.828 0 1.5.672 1.5 1.5s-.672 1.5-1.5 1.5-1.5-.672-1.5-1.5.672-1.5 1.5-1.5z"/></svg>