<svg width="24" height="24" xmlns="http://www.w3.org/2000/svg" fill-rule="evenodd" clip-rule="evenodd"><path d="M2.59 1.322l2.844-1.322 4.041 7.889-2.724 1.342c-.538 1.259 2.159 6.289 3.297 6.372.09-.058 2.671-1.328 2.671-1.328l4.11 7.932s-2.764 1.354-2.854 1.396c-.598.273-1.215.399-1.842.397-5.649-.019-12.086-10.43-12.133-17.33-.016-2.407.745-4.387 2.59-5.348zm1.93 1.274l-1.023.504c-5.294 2.762 4.177 21.185 9.648 18.686l.972-.474-2.271-4.383-1.026.501c-3.163 1.547-8.262-8.219-5.055-9.938l1.007-.498-2.252-4.398zm15.48 14.404h-1v-13h1v13zm-2-2h-1v-9h1v9zm4-1h-1v-7h1v7zm-6-1h-1v-5h1v5zm-2-1h-1v-3h1v3zm10 0h-1v-3h1v3zm-12-1h-1v-1h1v1z"/></svg>