<svg width="24" height="24" xmlns="http://www.w3.org/2000/svg" fill-rule="evenodd" clip-rule="evenodd"><path d="M8.26 1.289l-1.564.772c-5.793 3.02 2.798 20.944 9.31 20.944.46 0 .904-.094 1.317-.284l1.542-.755-2.898-5.594-1.54.754c-.181.087-.384.134-.597.134-2.561 0-6.841-8.204-4.241-9.596l1.546-.763-2.875-5.612zm7.746 22.711c-5.68 0-12.221-11.114-12.221-17.832 0-2.419.833-4.146 2.457-4.992l2.382-1.176 3.857 7.347-2.437 1.201c-1.439.772 2.409 8.424 3.956 7.68l2.399-1.179 3.816 7.36s-2.36 1.162-2.476 1.215c-.547.251-1.129.376-1.733.376"/></svg>