<svg width="24" height="24" xmlns="http://www.w3.org/2000/svg" fill-rule="evenodd" clip-rule="evenodd"><path d="M12 0c6.623 0 12 5.377 12 12s-5.377 12-12 12-12-5.377-12-12 5.377-12 12-12zm-7.363 18.764c1.828 1.989 4.451 3.236 7.363 3.236h.004l-4.618-7.998-2.749 4.762zm16.023-1.764h-9.233l2.749 4.762c2.767-.615 5.104-2.378 6.484-4.762zm-18.201-8c-.298.947-.459 1.955-.459 3 0 1.823.489 3.533 1.343 5.005l2.889-5.003-.001-.002.003-.002 1.731-2.998h-5.506zm18.203-1.997l-4.617 7.997h5.496c.298-.947.459-1.955.459-3 0-1.82-.487-3.526-1.338-4.997zm-6.927 1.997h-3.461l-1.733 3.002 1.731 2.998h3.464l1.731-2.999-1.732-3.001zm2.887 1.001l2.747-4.758c-1.828-1.992-4.452-3.242-7.366-3.243l4.619 8.001zm-6.792-7.764c-2.769.613-5.109 2.377-6.49 4.763h9.24l-2.75-4.763z"/></svg>