<svg xmlns="http://www.w3.org/2000/svg" width="24" height="24" viewBox="0 0 24 24"><path d="M3 5v-2c0-.552.447-1 1-1s1 .448 1 1v2c0 .552-.447 1-1 1s-1-.448-1-1zm12 1c.553 0 1-.448 1-1v-2c0-.552-.447-1-1-1s-1 .448-1 1v2c0 .552.447 1 1 1zm4 14v2h-19v-18h2v1c0 1.103.897 2 2 2s2-.897 2-2v-1h7v1c0 1.103.897 2 2 2s2-.897 2-2v-1h2l5 16h-5zm0-2h2.279l-2.279-7.295v7.295zm-2 2v-10h-15v10h15zm-11.999-6c.553 0 .999-.448.999-1s-.446-1-.999-1-1.001.448-1.001 1 .448 1 1.001 1zm9.999 4h-11l3.5-4 1.5 1.6 2-2.6 4 5z"/></svg>