<svg xmlns="http://www.w3.org/2000/svg" width="24" height="24" viewBox="0 0 24 24"><path d="M12 0c-3.313 0-6 2.687-6 6 0 2.972 2.164 5.433 5 5.91v6.09h2v-6.089c2.836-.477 5-2.938 5-5.91 0-3.314-2.687-6.001-6-6.001zm-.707 4.508c-.549.65-1.423.8-1.953.333s-.516-1.372.034-2.022c.548-.65 1.422-.799 1.952-.333.53.467.515 1.372-.033 2.022zm12.707 19.492l-6.707-2.427-5.293 2.427-5.581-2.427-6.419 2.427 4-9 5-1.979v2.125l-3.502 1.41-1.725 3.88 2.672-1.01 1.506-2.687-.635 3.044 4.189 1.789.495-2.022.465 2.024 4.15-1.89-.618-3.033 1.572 2.896 2.732.989-1.739-3.978-3.562-1.415v-2.122l5.064 1.979 3.936 9z"/></svg>