<svg xmlns="http://www.w3.org/2000/svg" width="24" height="24" viewBox="0 0 24 24"><path d="M18 6c0 2.972-2.164 5.433-5 5.91v6.09h-2v-6.089c-2.836-.477-5-2.938-5-5.911 0-3.314 2.687-6 6-6s6 2.687 6 6zm-2 0c0-2.206-1.794-4-4-4s-4 1.794-4 4 1.794 4 4 4 4-1.794 4-4zm-5.618 2.098c2.339 1.84 5.563-.722 3.858-3.539.313 2.237-1.956 4.03-3.858 3.539zm13.618 15.902l-6.707-2.427-5.293 2.427-5.581-2.427-6.419 2.427 4-9 5-1.979v2.125l-3.502 1.41-1.725 3.88 2.672-1.01 1.506-2.687-.635 3.044 4.189 1.789.495-2.022.465 2.024 4.15-1.89-.618-3.033 1.572 2.896 2.732.989-1.739-3.978-3.562-1.415v-2.122l5.064 1.979 3.936 9z"/></svg>