<svg xmlns="http://www.w3.org/2000/svg" width="24" height="24" viewBox="0 0 24 24"><path d="M12 0c-3.313 0-6 2.687-6 6 0 2.972 2.164 5.433 5 5.91v8.09h2v-8.089c2.836-.477 5-2.938 5-5.91 0-3.314-2.687-6.001-6-6.001zm-.707 4.508c-.549.65-1.423.8-1.953.333s-.516-1.372.034-2.022c.548-.65 1.422-.799 1.952-.333.53.467.515 1.372-.033 2.022zm8.707 11.492h-5v2h3.764l.5 1h-4.264v1.175l.783 1.825h-7.488l.705-1.643v-1.357h-2.042l-1.011-1h3.053v-2h-5l-4 8h24l-4-8zm-12.794 6h-3.97l1.764-3.528 1.516 1.528h1.549l-.859 2zm8.808-2h3.75l1 2h-3.892l-.858-2z"/></svg>