<svg xmlns="http://www.w3.org/2000/svg" width="24" height="24" viewBox="0 0 24 24"><path d="M18 6c0 2.972-2.164 5.433-5 5.91v8.09h-2v-8.089c-2.836-.477-5-2.938-5-5.911 0-3.314 2.687-6 6-6s6 2.687 6 6zm-2 0c0-2.206-1.794-4-4-4s-4 1.794-4 4 1.794 4 4 4 4-1.794 4-4zm-5.618 2.098c2.339 1.84 5.563-.722 3.858-3.539.313 2.237-1.956 4.03-3.858 3.539zm4.618 8.195v2.052l.438.107c1.706.493 2.496 1.027 2.507 1.547-.011.52-.801 1.054-2.507 1.547-2.097.606-4.786.604-6.874.001-1.695-.489-2.515-1.021-2.515-1.547s.82-1.058 2.516-1.548l.436-.106v-2.052c-2.932.593-5.001 2.028-5.001 3.706 0 2.209 3.581 4 8 4s8-1.791 8-4c0-1.678-2.069-3.113-5-3.707z"/></svg>