<svg xmlns="http://www.w3.org/2000/svg" width="24" height="24" viewBox="0 0 24 24"><path d="M8 17h2v5l-2 2v-7zm2-11.5c0-2.319 1.219-4.35 3.047-5.5h-9.047c.068 1.911 2.429 2.097 2.429 5 0 3.771-3.429 3.291-3.429 10h12c0-1.358-.145-2.412-.369-3.276-2.678-.803-4.631-3.284-4.631-6.224zm11 0c0 2.485-2.017 4.5-4.5 4.5s-4.5-2.015-4.5-4.5 2.017-4.5 4.5-4.5 4.5 2.015 4.5 4.5zm-3.086-2.122l-1.414 1.414-1.414-1.414-.707.708 1.414 1.414-1.414 1.414.707.708 1.414-1.415 1.414 1.414.708-.708-1.414-1.413 1.414-1.414-.708-.708z"/></svg>