<svg xmlns="http://www.w3.org/2000/svg" width="24" height="24" viewBox="0 0 24 24"><path d="M12 2c5.514 0 10 4.486 10 10s-4.486 10-10 10-10-4.486-10-10 4.486-10 10-10zm0-2c-6.627 0-12 5.373-12 12s5.373 12 12 12 12-5.373 12-12-5.373-12-12-12zm0 6c-3.313 0-6 2.686-6 6 0 2.542 1.581 4.712 3.812 5.587-.052-.475-.1-1.203.022-1.721.108-.468.703-2.982.703-2.982s-.181-.359-.181-.891c0-.834.485-1.457 1.087-1.457.512 0 .759.385.759.845 0 .516-.328 1.285-.497 1.998-.142.598.3 1.084.889 1.084 1.066 0 1.887-1.124 1.887-2.747 0-1.437-1.032-2.441-2.507-2.441-1.707 0-2.709 1.28-2.709 2.604 0 .516.199 1.068.446 1.368.049.06.056.112.041.173l-.165.68c-.027.11-.088.134-.201.081-.75-.349-1.219-1.444-1.219-2.325 0-1.893 1.375-3.63 3.964-3.63 2.082 0 3.7 1.482 3.7 3.465 0 2.068-1.304 3.732-3.114 3.732-.608 0-1.179-.315-1.375-.689l-.374 1.426c-.135.521-.501 1.175-.746 1.573.562.173 1.16.267 1.778.267 3.313 0 6-2.687 6-6 0-3.314-2.687-6-6-6z"/></svg>