<svg xmlns="http://www.w3.org/2000/svg" width="24" height="24" viewBox="0 0 24 24"><path d="M20.431 9.548c-.95-2.602-.411-3.427.589-4.478l.85-.893c-4.761-4.065-3.786-3.222-4.854-4.177-.539.557-1.193 1.428-2.42 1.428-1.26 0-2.08-.921-2.584-1.38-.557.492-1.385 1.38-2.608 1.38-1.242 0-1.92-.913-2.402-1.411l-4.871 4.16.85.893c.999 1.051 1.538 1.876.589 4.478-.843 2.309-1.57 3.991-1.57 5.817 0 3.266 2.071 5.67 5.682 6.597 2.596.666 2.989.951 4.318 2.038 1.329-1.087 1.722-1.372 4.318-2.038 3.612-.927 5.682-3.332 5.682-6.597 0-1.826-.727-3.507-1.569-5.817zm-5.832 6.452l-2.599-1.367-2.599 1.367.494-2.895-2.102-2.049 2.906-.422 1.301-2.634 1.3 2.634 2.906.422-2.104 2.049.497 2.895z"/></svg>