<svg xmlns="http://www.w3.org/2000/svg" width="24" height="24" viewBox="0 0 24 24"><path d="M20.377 11.082c-.06 1.929-2.229 3.126-8.409 3.126-6.193 0-8.358-1.203-8.409-3.139 1.508 0 4.379-1.958 8.409-1.958 3.927-.001 7.144 1.971 8.409 1.971zm-8.408 4.09c-2.062 0-3.74-.131-5.078-.397.062.555.469 3.322 2.409 3.322 1.721 0 1.673-1.316 2.721-1.316 1.047 0 1.169 1.316 2.852 1.316 2.09 0 2.46-3.063 2.494-3.389-1.387.311-3.169.464-5.398.464zm6.405-.741c-.04 2.171-.717 4.769-2.28 6.437-1.048 1.119-2.377 1.687-3.949 1.687-1.575 0-2.897-.533-3.931-1.582-1.646-1.673-2.302-4.345-2.396-6.461-.523-.158-1.01-.347-1.484-.628-.016 2.472.704 5.942 2.821 8.094 1.321 1.341 3 2.022 4.99 2.022 1.972 0 3.712-.745 5.033-2.153 2.131-2.273 2.76-5.679 2.661-8.111-.459.308-.944.521-1.465.695zm.974-11.19s-2.537-.686-7.348-3.241c-4.812 2.555-7.348 3.241-7.348 3.241s-1.295 2.4-3.652 5.016l2.361 1.985c.446-.008 1.355-.362 1.674-.514l-1.952-1.614c.618-.689 1.036-1.267 1.677-2.265.052-.081.14-.134.238-.136s.19.046.243.126l1.81 2.855-1.245-3.784c-.072-.208.016-.438.21-.548.343-.195 3.088-1.083 5.984-2.642 2.896 1.559 5.641 2.447 5.984 2.642.194.11.282.339.21.548l-1.244 3.784 1.81-2.855c.053-.081.145-.128.243-.126s.185.055.237.136c.641.998 1.059 1.576 1.678 2.265l-1.953 1.614c.319.152 1.228.506 1.674.514l2.361-1.985c-2.357-2.616-3.652-5.016-3.652-5.016zm-5.551 2.141c-.202-.54-.087-.71.125-.928l.182-.186c-1.015-.842-.807-.668-1.035-.866-.115.115-.254.296-.516.296-.269 0-.444-.191-.551-.286-.119.102-.295.286-.556.286-.265 0-.409-.189-.512-.292l-1.038.863.182.186c.213.218.327.389.125.928-.18.479-.335.828-.335 1.206 0 .677.442 1.175 1.211 1.368.553.138.637.197.92.422.284-.225.367-.284.92-.422.77-.192 1.211-.691 1.211-1.368.002-.379-.153-.728-.333-1.207zm-1.255.68l.126.721-.66-.34-.659.34.125-.721-.534-.511.738-.105.33-.656.33.656.737.105-.533.511z"/></svg>