<svg xmlns="http://www.w3.org/2000/svg" width="24" height="24" viewBox="0 0 24 24"><path d="M19.431 8.657c-1.391-.155-2.937-1.369-3.532-2.653h-7.899v5.113c2.798 0 1.686 3.634 4.996 4.146 1.988.307 3.258-.694 3.381-1.93.198-1.974 1.331-3.725 3.054-4.676zm-9.122-1.699h3.561c.189 0 .343.153.343.343 0 .189-.153.342-.343.342h-3.561v-.685zm0 1.287h3.561c.189 0 .343.153.343.342 0 .189-.153.342-.343.342h-3.561v-.684zm0 1.971v-.685h3.561c.189 0 .343.153.343.343 0 .189-.153.342-.343.342h-3.561zm3.125 4.257c-2.814-.28-2.644-3.545.518-3.057 2.192.34 2.045 3.312-.518 3.057zm-6.434-8.469v2.996h-6.014c-.06-.491-.35-1.006-.986-1.157v-1.839h7zm-4-.734h-2.297v-1.031c0-.188.188-.3.366-.204l1.931 1.235zm14.81 2.07c-.247-.179-.479-.38-.702-.618.529-.297 1.027-.494 1.681-.542.241-.018.349.273.107.376-.486.208-.818.413-1.086.784zm-3.033 5.293c-.326.57-.875 1.146-1.341 1.184-.145.012-.244-.123-.188-.253.107-.247.778-.745.622-1.552.492.08.783.331.907.621zm5.29-3.16c-1.557.802-2.597 2.354-2.738 4.11.777.323 1.671.917 1.671 2.938v2.465c0 .847.34 1.014 1.216 1.014h2.493c.99 0 1.291-.309 1.291-.999 0-1.527-.396-3.828-1.997-6.079-.782-1.101-1.803-1.85-1.936-3.449zm-.63 3.973c-.391 0-.707-.316-.707-.708s.316-.708.707-.708.708.316.708.708-.318.708-.708.708z"/></svg>