<svg xmlns="http://www.w3.org/2000/svg" width="24" height="24" viewBox="0 0 24 24"><path d="M12 24c-1.329-1.087-1.722-1.372-4.318-2.038-3.611-.927-5.682-3.332-5.682-6.597 0-1.826.727-3.507 1.57-5.817.949-2.602.41-3.427-.589-4.478l-.85-.893 4.871-4.16c.482.498 1.161 1.411 2.402 1.411 1.223 0 2.051-.888 2.608-1.38.503.458 1.325 1.38 2.584 1.38 1.226 0 1.88-.872 2.42-1.428 1.067.955.094.112 4.853 4.177l-.85.893c-.999 1.05-1.538 1.875-.588 4.478.842 2.31 1.569 3.991 1.569 5.817 0 3.266-2.071 5.67-5.682 6.597-2.596.666-2.989.951-4.318 2.038z"/></svg>