<svg xmlns="http://www.w3.org/2000/svg" width="24" height="24" viewBox="0 0 24 24"><path d="M14.706 10.471l.255-.259c-1.429-1.18-1.136-.935-1.455-1.212-.162.162-.36.415-.727.415-.379 0-.625-.268-.775-.4-.167.143-.417.4-.783.4-.372 0-.576-.265-.721-.41l-1.461 1.207.255.259c.3.305.461.544.177 1.299-.254.67-.471 1.158-.471 1.688 0 .947.621 1.645 1.705 1.915.778.193.896.276 1.295.591.398-.315.517-.397 1.295-.591 1.085-.27 1.705-.968 1.705-1.915 0-.53-.217-1.018-.471-1.688-.284-.754-.123-.994.177-1.299zm-1.942 2.251l.178 1.01-.93-.477-.929.477.178-1.01-.751-.714 1.038-.147.464-.918.465.918 1.038.147-.751.714zm8.757-11.692c-1.783 3.449-2.162 8.305 1.479 11.34v2.63h-2v-1.754c-2.226-2.25-2.968-5.167-2.74-8.005l-.871 1.941-3.174-1.339 2.521-5.821.023-.022 4.762 1.03zm-12.542.542c.918.73 1.815 1.165 2.981 1.174 1.129-.009 2.071-.423 2.982-1.098l-1.23 2.84c-.552.16-1.144.261-1.788.261-.609 0-1.164-.097-1.679-.251l-1.266-2.926zm-7.979 13.428v-2.63c3.641-3.035 3.262-7.891 1.479-11.34l4.73-1.023 2.519 5.814-3.117 1.361-.871-1.941c.228 2.837-.514 5.754-2.74 8.005v1.754h-2zm22 1v5.403c0 1.434-1.19 2.597-2.66 2.597h-16.68c-1.47 0-2.66-1.163-2.66-2.597v-5.403h6v4h-4v1.403c0 .329.296.597.66.597h16.68c.364 0 .66-.268.66-.597v-1.403h-4v-4h6z"/></svg>