<svg xmlns="http://www.w3.org/2000/svg" width="24" height="24" viewBox="0 0 24 24"><path d="M4.217 9.054c-.981.163-1.995.332-2.99 1.305-1.758 1.719-1.414 4.038-.294 5.574.034-.606.649-1.104 1.243-1.053-.739-1.099-.767-2.415.22-3.38.547-.535 1.196-.817 1.877-.817.76 0 1.535.349 2.184.982 1.052 1.029 1.513 2.656.169 3.971-.506.494-1.122.755-1.783.755-.593 0-1.22-.212-1.768-.598-.456-.322-.889-.471-1.288-.08-.338.331-.336.889.238 1.311.855.629 1.867.976 2.848.976 1.092 0 2.101-.422 2.917-1.221 1.046-1.023 1.207-2.015 1.363-2.974.148-.912.289-1.773 1.172-2.636l-3.363-3.289c-.884.864-1.788 1.015-2.745 1.174zm3.027 1.544c.063-.062.098-.147.094-.235-.004-.106.036-.214.119-.294.158-.155.414-.155.572 0s.158.405 0 .56c-.082.081-.192.12-.301.116-.09-.003-.177.03-.24.092l-.244.238-.244-.238.244-.239zm2.628-2.806l.731.873c-.253.195-.535.451-.874.778l-.808-.803c.336-.323.644-.608.951-.848zm3.531-.468l-.759.905c-.204-.07-.412-.103-.644-.103s-.439.033-.645.104l-.759-.905c.417-.209.866-.325 1.404-.325.539 0 .987.116 1.403.324zm.869 2.119c-.341-.327-.622-.583-.876-.778l.731-.873c.308.24.615.525.951.848l-.806.803zm8.502.916c-.995-.973-2.01-1.142-2.99-1.305-.958-.16-1.862-.31-2.746-1.174l-3.363 3.29c.883.863 1.023 1.725 1.172 2.636.156.959.317 1.951 1.363 2.974.816.798 1.825 1.22 2.917 1.22.981 0 1.993-.347 2.849-.976.574-.422.576-.98.238-1.311-.399-.391-.831-.243-1.288.08-.547.386-1.175.598-1.768.598-.661 0-1.277-.261-1.782-.755-1.344-1.314-.884-2.941.169-3.971.647-.633 1.423-.982 2.183-.982.681 0 1.33.282 1.877.817.987.966.959 2.282.22 3.38.594-.051 1.209.447 1.243 1.053 1.12-1.536 1.463-3.855-.294-5.574zm-6.018.716l-.243-.238c-.063-.062-.151-.095-.241-.092-.108.004-.218-.035-.301-.116-.158-.155-.158-.405 0-.56s.415-.155.573 0c.082.081.122.188.118.294-.004.088.03.173.094.235l.244.239-.244.238z"/></svg>