<svg xmlns="http://www.w3.org/2000/svg" width="24" height="24" viewBox="0 0 24 24"><path d="M12 2.631c1.648 1.064 3.545 1.049 5.038.051l1.958 1.672c-2.851 3.671 1.004 7.384 1.004 11.011 0 2.964-2.273 4.17-4.18 4.66-1.975.507-2.887.847-3.82 1.466-.934-.619-1.846-.959-3.82-1.466-1.907-.49-4.18-1.696-4.18-4.66 0-3.635 3.859-7.336 1.004-11.011l1.959-1.673c1.475.982 3.355 1.032 5.037-.05zm5.016-2.631c-1.67 1.723-2.755 2.097-5.004.048-2.244 1.982-3.292 1.742-5.01-.03l-4.871 4.16c1.651 1.734 2.563 2.285 1.439 5.37-.843 2.309-1.57 3.991-1.57 5.817 0 3.266 2.07 5.67 5.682 6.597 2.596.666 2.989.951 4.318 2.038 1.329-1.087 1.722-1.372 4.318-2.038 3.612-.927 5.682-3.332 5.682-6.597 0-1.826-.727-3.507-1.569-5.817-1.125-3.084-.214-3.635 1.438-5.371-4.76-4.065-3.785-3.222-4.853-4.177zm-2.417 16l-2.599-1.367-2.599 1.367.494-2.895-2.102-2.049 2.906-.422 1.301-2.634 1.3 2.634 2.906.422-2.104 2.049.497 2.895z"/></svg>