<svg xmlns="http://www.w3.org/2000/svg" width="24" height="24" viewBox="0 0 24 24"><path d="M16.453 14.711l-2.59 2.562s.188-.81-.611-1.6c-.019-.019-9.312-8.65-12.731-11.825-.68-.631-.697-1.694-.038-2.346l.019-.019c.666-.659 1.75-.644 2.397.039 3.219 3.394 11.919 12.566 11.937 12.584.819.81 1.617.605 1.617.605zm5.877 5.981c-.275.428-.572.635-.905.635-.263 0-.57-.126-.912-.373.284-.438.233-1.028-.154-1.411l-3.78-3.741-1.619 1.601 3.781 3.741c.379.374.955.43 1.396.17.211.854.984 1.686 2.008 1.686 1.037 0 2.065-.918 1.818-2.042-.185-.848-1.032-1.196-1.633-.266zm1.197.335c.123.559-.166 1.121-.809 1.41-.977.438-1.854-.28-2.087-.947.621.436 1.487.35 2.087-.581.291-.45.695-.409.809.118z"/></svg>