<svg xmlns="http://www.w3.org/2000/svg" width="24" height="24" viewBox="0 0 24 24"><path d="M11.327 14.859c-.217-.648.031-1.333.595-1.734.284-.202.609-.306.932-.306.317 0 .633.101.902.308-.21-.704-.851-1.127-1.516-1.127-.312 0-.63.093-.911.294-.882.629-.879 1.938-.002 2.565zm2.639 6.434c.7.235 2.868.835 5.38 2.707l4.654-3.319c-1.208-1.692-.875-2.876-2.075-4.558-.464-.652-.885-1.084-1.565-1.084-.179 0-.313.027-.573.075l.422.592c.106.148.071.355-.077.461-.149.106-.355.071-.461-.077l-.377-.528c-.109-.153-.285-.241-.469-.241-.068 0-.06-.007-.978.205l.513.718c.105.148.071.354-.077.461-.148.106-.354.072-.461-.078l-.444-.622c-.109-.153-.285-.241-.467-.241-.083 0-.067-.005-1.01.234l.543.759c.105.148.07.354-.078.461-.147.106-.354.071-.46-.077l-2.198-3.077c-.289-.406-.854-.5-1.26-.211s-.501.854-.211 1.26l3.246 4.55c-.87-.322-2.217-.463-2.467.44-.149.538.282.966.95 1.19zm2.105-17.722l1.201-1.601c2.855 1.987 4.728 5.288 4.728 9.03 0 .804-.092 1.586-.256 2.342-.395-.179-.849-.303-1.385-.303-.234 0-.428.024-.615.054.161-.673.256-1.371.256-2.093 0-3.082-1.559-5.806-3.929-7.429zm-7.071 6.429v-10h4v10h-4zm2.562 11.972l-.562.028c-6.074 0-11-4.925-11-11 0-3.75 1.881-7.059 4.747-9.044l1.232 1.578c-2.398 1.618-3.979 4.361-3.979 7.466 0 4.962 4.037 9 9 9h.011c-.071.652.093 1.36.551 1.972z"/></svg>