<svg xmlns="http://www.w3.org/2000/svg" width="24" height="24" viewBox="0 0 24 24"><path d="M18.822 4.708c-.446-.417-.928-.794-1.443-1.125l.898-1.796c.733.452 1.416.976 2.034 1.57l-1.489 1.351zm-2.327-3.83c-.799-.323-1.642-.556-2.516-.702l-.117 2.004c.599.113 1.176.283 1.732.499l.901-1.801zm-6.495 17.122h4v-12h-4v12zm11.63-13.139l-1.489 1.352c.349.49.652 1.012.909 1.561l1.895-.678c-.357-.796-.801-1.542-1.315-2.235zm.083 4.8c.181.752.287 1.532.287 2.339 0 5.514-4.486 10-10 10s-10-4.486-10-10c0-1.914.551-3.697 1.489-5.217l2.173 2.173 1.353-7.014-7.015 1.35 2.037 2.038c-1.282 1.907-2.037 4.198-2.037 6.67 0 6.627 5.373 12 12 12s12-5.373 12-12c0-1.043-.147-2.05-.397-3.016l-1.89.677zm-12.112-9.406l.398 1.964c.607-.125 1.23-.202 1.871-.211l.117-2.008c-.818.001-1.614.097-2.386.255z"/></svg>