<svg xmlns="http://www.w3.org/2000/svg" width="24" height="24" viewBox="0 0 24 24"><path d="M12 0c-6.627 0-12 5.373-12 12s5.373 12 12 12 12-5.373 12-12-5.373-12-12-12zm-10 12c0-4.092 2.473-7.612 6-9.159v5.259c0 .751.194 1.402.561 1.883.822 1.076 2.445 1.077 3.563-.046l.245-.256c.412-.439.639-.681 1.325-.681.943 0 2.306 1.068 2.306 3s-1.363 3-2.306 3c-.687 0-.913-.242-1.325-.681l-.242-.253c-.564-.567-1.242-.879-1.909-.879-1.069 0-2.218.849-2.218 2.713v5.259c-3.527-1.547-6-5.067-6-9.159zm10 10c-.685 0-1.354-.07-2-.202v-5.898c0-.475.14-.714.218-.714.094 0 .278.076.494.293l.198.207c.49.524 1.232 1.314 2.784 1.314 2.079 0 4.306-2.009 4.306-5s-2.227-5-4.306-5c-1.552 0-2.294.79-2.784 1.313l-.201.21c-.215.215-.404.291-.558.247-.036-.046-.151-.232-.151-.67v-5.898c.646-.132 1.315-.202 2-.202 5.514 0 10 4.486 10 10s-4.486 10-10 10z"/></svg>