<svg xmlns="http://www.w3.org/2000/svg" width="24" height="24" viewBox="0 0 24 24"><path d="M12.816 24h-10.816v-6.075c0-1.315 1-1.663 1.813-.847.399.398.73.922 1.708.922 1.087 0 2.479-1.108 2.479-3s-1.392-3-2.479-3c-.979 0-1.31.524-1.708.922-.813.816-1.813.469-1.813-.847v-6.075h6.075c1.315 0 1.663-1 .847-1.813-.398-.399-.922-.73-.922-1.708 0-1.087 1.108-2.479 3-2.479s3 1.392 3 2.479c0 .978-.524 1.309-.922 1.708-.816.813-.469 1.813.847 1.813h6.075v7.5c-.77-.321-1.614-.5-2.5-.5-3.59 0-6.5 2.91-6.5 6.5 0 1.748.693 3.332 1.816 4.5zm9.184-4.5c0 2.485-2.017 4.5-4.5 4.5s-4.5-2.015-4.5-4.5 2.017-4.5 4.5-4.5 4.5 2.015 4.5 4.5zm-2-.5h-5v1h5v-1z"/></svg>