<svg xmlns="http://www.w3.org/2000/svg" width="24" height="24" viewBox="0 0 24 24"><path d="M24 18v-12h-4.049c-.488 0-.426-.153-.109-.454.262-.245.658-.616.658-1.394 0-1.039-1.005-2.152-2.5-2.152s-2.5 1.113-2.5 2.152c0 .779.396 1.149.657 1.395.312.299.387.453-.106.453h-16.051v4.05c0 .932.575 1.357 1.109 1.357.333 0 .671-.156.951-.438.284-.295.39-.469.788-.469.47 0 1.152.534 1.152 1.5s-.682 1.5-1.152 1.5c-.397 0-.502-.173-.786-.467-.281-.284-.619-.439-.952-.439-.535-.001-1.11.424-1.11 1.356v4.05h4.551c.481 0 .431.144.106.453-.261.245-.657.616-.657 1.395 0 1.039 1.005 2.152 2.5 2.152s2.5-1.113 2.5-2.152c0-.779-.396-1.149-.658-1.395-.323-.31-.374-.453.108-.453h15.55zm-6.67-11.715c.181-.438.044-.943-.363-1.347-.296-.284-.467-.389-.467-.786 0-.471.534-1.152 1.5-1.152s1.5.681 1.5 1.152c0 .398-.173.501-.469.785-.407.407-.542.911-.36 1.349.185.447.664.714 1.28.714h3.049v10h-10v-3.05c0-.535.137-.44.454-.109.245.262.616.659 1.394.659 1.039 0 2.152-1.004 2.152-2.5s-1.113-2.5-2.152-2.5c-.777 0-1.148.396-1.394.659-.317.333-.454.424-.454-.109v-3.05h3.051c.616 0 1.095-.268 1.279-.715zm-9.798 12.777c.296.285.468.388.468.786 0 .471-.534 1.152-1.5 1.152s-1.5-.681-1.5-1.152c0-.396.17-.502.466-.784.408-.406.545-.91.364-1.349-.184-.447-.663-.715-1.279-.715h-3.551v-3.05c0-.529.134-.442.451-.11.246.263.618.66 1.396.66 1.04 0 2.153-1.004 2.153-2.5s-1.113-2.5-2.152-2.5c-.778 0-1.15.397-1.396.66-.314.328-.451.423-.452-.11v-3.05h11v3.05c0 .932.575 1.357 1.109 1.357.332 0 .672-.156.953-.438.283-.296.389-.469.785-.469.471 0 1.153.534 1.153 1.5s-.682 1.5-1.152 1.5c-.396 0-.501-.173-.785-.468-.281-.283-.621-.438-.953-.438-.534 0-1.109.425-1.109 1.357v3.049h-3.551c-.616 0-1.094.267-1.279.714-.181.438-.046.942.361 1.348z"/></svg>