<svg xmlns="http://www.w3.org/2000/svg" width="24" height="24" viewBox="0 0 24 24"><path d="M12 0c-6.627 0-12 5.373-12 12s5.373 12 12 12 12-5.373 12-12-5.373-12-12-12zm5 11.038c0 .658-.501.831-.905.424-.199-.2-.366-.462-.856-.462-.545 0-1.239.554-1.239 1.5s.694 1.5 1.239 1.5c.489 0 .656-.262.855-.461.405-.408.906-.235.906.423v3.038h-3.038c-.656 0-.832-.5-.422-.907.199-.199.46-.365.46-.854 0-.543-.554-1.239-1.5-1.239-.945 0-1.5.696-1.5 1.239 0 .489.262.655.461.854.408.407.234.907-.424.907h-3.037v-3.038c0-.658-.5-.831-.906-.424-.199.2-.365.462-.855.462-.544 0-1.239-.554-1.239-1.5s.695-1.5 1.239-1.5c.489 0 .655.262.854.461.407.408.907.235.907-.423v-3.038h3.037c.658 0 .832-.5.424-.907-.199-.199-.461-.364-.461-.854 0-.543.555-1.239 1.5-1.239.946 0 1.5.696 1.5 1.239 0 .489-.261.655-.46.854-.41.407-.234.907.422.907h3.038v3.038z"/></svg>