<svg xmlns="http://www.w3.org/2000/svg" width="24" height="24" viewBox="0 0 24 24"><path d="M0 0v24h24v-24h-24zm1 1h11v3.55c0 .932.575 1.357 1.109 1.357.332 0 .672-.156.953-.438.284-.296.389-.469.786-.469.47 0 1.152.534 1.152 1.5s-.682 1.5-1.152 1.5c-.396 0-.501-.173-.785-.468-.281-.283-.621-.438-.953-.438-.535-.001-1.11.424-1.11 1.356v3.55h-3.55c-.536 0-.439-.139-.108-.454.262-.245.658-.616.658-1.394 0-1.039-1.004-2.152-2.5-2.152s-2.5 1.113-2.5 2.152c0 .777.396 1.148.658 1.394.333.317.425.454-.108.454h-3.55v-11zm0 22v-10h3.55c.933 0 1.356-.575 1.356-1.109 0-.332-.155-.672-.438-.953-.294-.284-.468-.388-.468-.786 0-.47.534-1.152 1.5-1.152s1.5.682 1.5 1.152c0 .397-.174.501-.469.785-.282.281-.438.621-.438.953.001.535.425 1.11 1.357 1.11h3.55v3.55c0 .535-.137.44-.454.109-.245-.263-.616-.659-1.394-.659-1.039 0-2.152 1.004-2.152 2.5s1.113 2.5 2.152 2.5c.777 0 1.148-.396 1.394-.659.317-.333.454-.424.454.109v2.55h-11zm22 0h-10v-2.55c0-.932-.575-1.357-1.109-1.357-.332 0-.672.156-.953.438-.284.296-.389.469-.786.469-.47 0-1.152-.534-1.152-1.5s.682-1.5 1.152-1.5c.396 0 .501.173.785.468.281.283.621.438.953.438.534 0 1.109-.425 1.109-1.357v-3.549h3.55c.536 0 .439.139.108.454-.261.245-.657.616-.657 1.394 0 1.039 1.004 2.152 2.5 2.152s2.5-1.113 2.5-2.152c0-.777-.396-1.148-.658-1.394-.333-.317-.425-.454.108-.454h2.55v10zm-2.55-11c-.933 0-1.356.575-1.356 1.109 0 .332.155.672.438.953.294.284.468.388.468.786 0 .47-.534 1.152-1.5 1.152s-1.5-.682-1.5-1.152c0-.397.174-.501.469-.785.282-.281.438-.621.438-.953 0-.534-.424-1.109-1.356-1.109h-3.551v-3.551c0-.535.137-.44.454-.109.245.263.616.659 1.394.659 1.039 0 2.152-1.004 2.152-2.5s-1.113-2.5-2.152-2.5c-.777 0-1.148.396-1.394.659-.317.333-.454.424-.454-.109v-3.55h10v11h-2.55z"/></svg>