<svg xmlns="http://www.w3.org/2000/svg" width="24" height="24" viewBox="0 0 24 24"><path d="M8 23.303c-4.657-1.65-8-6.08-8-11.303s3.343-9.653 8-11.303v7.403c0 .751.194 1.402.561 1.883.822 1.076 2.445 1.077 3.563-.046l.245-.256c.412-.439.639-.681 1.325-.681.943 0 2.306 1.068 2.306 3s-1.363 3-2.306 3c-.687 0-.913-.242-1.325-.681l-.242-.253c-.564-.567-1.242-.879-1.909-.879-1.069 0-2.218.849-2.218 2.713v7.403zm4-23.303c-.684 0-1.348.07-2 .18v7.92c0 .438.115.624.151.67.153.043.343-.032.558-.247l.201-.21c.49-.523 1.232-1.313 2.784-1.313 2.079 0 4.306 2.009 4.306 5s-2.227 5-4.306 5c-1.553 0-2.294-.79-2.784-1.313l-.198-.207c-.216-.217-.4-.293-.494-.293-.078 0-.218.238-.218.713v7.92c.652.11 1.316.18 2 .18 6.627 0 12-5.373 12-12s-5.373-12-12-12z"/></svg>