<svg xmlns="http://www.w3.org/2000/svg" width="24" height="24" viewBox="0 0 24 24"><path d="M19 0h-14c-2.762 0-5 2.239-5 5v14c0 2.761 2.238 5 5 5h14c2.762 0 5-2.239 5-5v-14c0-2.761-2.238-5-5-5zm-17 19v-14c0-1.654 1.346-3 3-3h4v6.1c0 .751.194 1.402.561 1.883.822 1.076 2.445 1.077 3.563-.046l.245-.256c.412-.439.639-.681 1.325-.681.943 0 2.306 1.068 2.306 3s-1.363 3-2.306 3c-.687 0-.913-.242-1.325-.681l-.242-.253c-.564-.567-1.242-.879-1.909-.879-1.069 0-2.218.849-2.218 2.713v6.1h-4c-1.654 0-3-1.346-3-3zm20 0c0 1.654-1.346 3-3 3h-8v-6.1c0-.475.14-.714.218-.714.094 0 .278.076.494.293l.198.207c.49.524 1.232 1.314 2.784 1.314 2.079 0 4.306-2.009 4.306-5s-2.227-5-4.306-5c-1.552 0-2.294.79-2.784 1.313l-.201.21c-.215.215-.404.291-.558.247-.036-.046-.151-.232-.151-.67v-6.1h8c1.654 0 3 1.346 3 3v14z"/></svg>