<svg xmlns="http://www.w3.org/2000/svg" width="24" height="24" viewBox="0 0 24 24"><path d="M13 0h11v12h-3.55c-.933 0-1.356.575-1.356 1.109 0 .332.155.672.438.953.294.284.468.388.468.786 0 .47-.534 1.152-1.5 1.152s-1.5-.682-1.5-1.152c0-.397.174-.501.469-.785.282-.281.438-.621.438-.953 0-.534-.424-1.109-1.356-1.109h-3.551v-4.551c0-.535.137-.44.454-.109.245.263.616.659 1.394.659 1.039 0 2.152-1.004 2.152-2.5s-1.113-2.5-2.152-2.5c-.777 0-1.148.396-1.394.659-.317.333-.454.424-.454-.109v-3.55zm-8.45 12c.534 0 .441-.137.108-.454-.262-.245-.658-.616-.658-1.394 0-1.039 1.004-2.152 2.5-2.152s2.5 1.113 2.5 2.152c0 .777-.396 1.148-.658 1.394-.331.315-.427.454.108.454h3.55v-4.55c0-.932.575-1.357 1.109-1.357.332 0 .672.156.953.438.285.296.389.469.786.469.47 0 1.152-.534 1.152-1.5s-.682-1.5-1.152-1.5c-.396 0-.501.173-.785.469-.281.282-.621.438-.953.438-.535 0-1.11-.425-1.11-1.357v-3.55h-12v12h4.55zm7.45 8.45c0-.533-.137-.442-.454-.109-.245.263-.616.659-1.394.659-1.039 0-2.152-1.004-2.152-2.5s1.113-2.5 2.152-2.5c.777 0 1.148.396 1.394.659.317.331.454.425.454-.109v-3.55h-3.55c-.933 0-1.356-.575-1.356-1.109 0-.332.155-.672.438-.953.294-.284.468-.388.468-.786 0-.47-.534-1.152-1.5-1.152s-1.5.682-1.5 1.152c0 .397.174.501.469.785.282.281.438.621.438.953-.001.535-.425 1.11-1.357 1.11h-4.55v11h12v-3.55zm8.45-7.45c-.534 0-.441.137-.108.454.262.245.658.616.658 1.394 0 1.039-1.004 2.152-2.5 2.152s-2.5-1.113-2.5-2.152c0-.777.396-1.148.658-1.394.331-.315.427-.454-.108-.454h-3.55v3.55c0 .932-.575 1.357-1.109 1.357-.332 0-.672-.156-.953-.438-.285-.296-.389-.469-.786-.469-.47 0-1.152.534-1.152 1.5s.682 1.5 1.152 1.5c.396 0 .501-.173.785-.469.281-.282.621-.438.953-.438.534 0 1.109.425 1.109 1.357v3.55h11v-11h-3.549z"/></svg>