<svg xmlns="http://www.w3.org/2000/svg" width="24" height="24" viewBox="0 0 24 24"><path d="M9 0v8.1c0 .751.194 1.402.561 1.883.821 1.076 2.445 1.077 3.563-.046l.245-.256c.412-.439.639-.681 1.325-.681.943 0 2.306 1.068 2.306 3s-1.363 3-2.306 3c-.687 0-.913-.242-1.325-.681l-.242-.253c-.564-.567-1.242-.879-1.909-.879-1.069 0-2.218.849-2.218 2.713v8.1h-4c-2.762 0-5-2.239-5-5v-14c0-2.761 2.238-5 5-5h4zm2 0v8.1c0 .691.321.828.91.213.49-.523 1.232-1.313 2.784-1.313 2.079 0 4.306 2.009 4.306 5s-2.227 5-4.306 5c-1.553 0-2.294-.79-2.784-1.313-.628-.656-.91-.353-.91.213v8.1h8c2.762 0 5-2.239 5-5v-14c0-2.761-2.238-5-5-5h-8z"/></svg>