<svg xmlns="http://www.w3.org/2000/svg" width="24" height="24" viewBox="0 0 24 24"><path d="M12 13v4.05c0 .877-.667 1.108-1.209.564-.266-.264-.486-.614-1.139-.614-.724 0-1.652.739-1.652 2s.928 2 1.652 2c.652 0 .873-.35 1.139-.615.542-.544 1.209-.312 1.209.565v3.05h-12v-11h4.55c.933 0 1.356-.575 1.356-1.109 0-.463-.25-.773-.564-1.075-.221-.207-.342-.32-.342-.664 0-.47.534-1.152 1.5-1.152s1.5.682 1.5 1.152c0 .344-.121.457-.342.663-.314.302-.564.612-.564 1.075 0 .535.424 1.11 1.356 1.11h3.55zm2.185-6.341c.206.22.319.341.663.341.47 0 1.152-.534 1.152-1.5s-.682-1.5-1.152-1.5c-.344 0-.457.121-.663.341-.3.313-.612.565-1.075.565-.535.001-1.11-.424-1.11-1.356v-3.55h-12v12h4.55c.533 0 .441-.137.108-.454-.262-.245-.658-.616-.658-1.394 0-1.039 1.004-2.152 2.5-2.152s2.5 1.113 2.5 2.152c0 .777-.396 1.148-.658 1.394-.331.315-.428.454.108.454h3.55v-4.55c0-.932.575-1.357 1.109-1.357.463 0 .774.252 1.076.566zm-1.185-6.659v3.55c0 .533.137.442.454.109.245-.263.616-.659 1.394-.659 1.039 0 2.152 1.004 2.152 2.5s-1.113 2.5-2.152 2.5c-.777 0-1.148-.396-1.394-.659-.317-.331-.454-.425-.454.109v4.55h3.05c.877 0 1.109.667.564 1.209-.264.266-.614.486-.614 1.138 0 .725.739 1.653 2 1.653s2-.928 2-1.653c0-.652-.35-.873-.614-1.138-.545-.542-.313-1.209.564-1.209h4.05v-12h-11z"/></svg>