<svg xmlns="http://www.w3.org/2000/svg" width="24" height="24" viewBox="0 0 24 24"><path d="M24 19.5c0 2.485-2.017 4.5-4.5 4.5s-4.5-2.015-4.5-4.5 2.017-4.5 4.5-4.5 4.5 2.015 4.5 4.5zm-3.086-2.122l-1.414 1.414-1.414-1.414-.707.708 1.414 1.414-1.414 1.414.707.708 1.414-1.414 1.414 1.414.708-.708-1.414-1.414 1.414-1.414-.708-.708zm-6.914-11.378h1v-6h-3v1h-3v1h3v1h2v3zm-1-4v-1h1v1h-1zm-1 3h1v-1h-1v-1h-3v1h2v2h1v-1zm-6-3h-4v4h4v-4zm17 9h-1v-2h-1v3.169c-.349-.072-.707-.113-1.071-.134l.071-.035v-1h-1v-1h-2v-1h-1v1h-1v-1h-1v1h-1v-1h-1v1h-1v1h-1v-1h1v-1h-4v1h2v1h-2v1h1v2h1v-1h2v2h1v-4h1v2h2.77c-1.228.706-2.237 1.746-2.9 3h-1.87v1h1.436c-.224.633-.365 1.303-.413 2h-1.023v-2h-1v1h-1v6h5.82c-1.124-1.169-1.82-2.753-1.82-4.5 0-3.568 2.913-6.5 6.5-6.5 1.642 0 3.226.62 4.456 1.782l.044.039v-1.8210000000000002h-.801l-.199-.126v-.874h1v-2h-1v1zm-8 1h-1v-1h1v1zm-3 11h-2v-1h1v-1h-1v-1h2.0309999999999997c.072 1.078.361 2.095.843 3h-.874zm6-11h-1v-1h1v1zm-8-4h1v-2h-2v1h1v1zm12-6h-4v4h4v-4zm-9 5h1v-1h-1v1zm3-7v8h8v-8h-8zm7 7h-6v-6h6v6zm-11 1h1v-1h-1v1zm3 0v-1h-1v1h1zm-6 7v2h1v-2h-1zm-3-5v1h1v-1h-1zm14-1h-1v1h1v-1zm-19 0h-1v2h1v-1h2v1h-1v1h3v-1h-1v-1h2v-1h-5zm-1 15h8v-8h-8v8zm1-7h6v6h-6v-6zm6-2h1v-1h-1v1zm-5 7h4v-4h-4v4zm-1-9v1h-1v1h2v-1h1v1h1v-1h1v1h1v-3h-1v1h-4zm-1-1v1h1v-1h-1zm8-12h-8v8h8v-8zm-1 7h-6v-6h6v6z"/></svg>