<svg xmlns="http://www.w3.org/2000/svg" width="24" height="24" viewBox="0 0 24 24"><path d="M19.5 15c-2.486 0-4.5 2.015-4.5 4.5s2.014 4.5 4.5 4.5c2.484 0 4.5-2.015 4.5-4.5s-2.016-4.5-4.5-4.5zm-.469 6.484l-1.688-1.637.695-.697.992.94 2.115-2.169.697.696-2.811 2.867zm-5.031-15.484h1v-6h-3v1h-3v1h3v1h2v3zm-1-4v-1h1v1h-1zm-1 4h-1v-2h-2v-1h3v1h1v1h-1v1zm-6 0h-4v-4h4v4zm17 5h-1v-2h-1v3.169c-.349-.072-.707-.113-1.071-.134l.071-.035v-1h-1v-1h-2v-1h-1v1h-1v-1h-1v1h-1v-1h-1v1h-1v1h-1v-1h1v-1h-4v1h2v1h-2v1h1v2h1v-1h2v2h1v-4h1v2h2.77c-1.228.706-2.237 1.746-2.9 3h-1.87v1h1.436c-.224.633-.365 1.303-.413 2h-1.023v-2h-1v1h-1v6h5.82c-1.124-1.169-1.82-2.753-1.82-4.5 0-3.568 2.913-6.5 6.5-6.5 1.642 0 3.226.62 4.456 1.782l.044.039v-1.8210000000000002h-.801l-.199-.126v-.874h1v-2h-1v1zm-8 1h-1v-1h1v1zm-3 11h-2v-1h1v-1h-1v-1h2.0309999999999997c.072 1.078.361 2.095.843 3h-.874zm6-11h-1v-1h1v1zm-8-5h-1v-1h2v2h-1v-1zm12-1h-4v-4h4v4zm-9 0h1v1h-1v-1zm3-6v8h8v-8h-8zm7 7h-6v-6h6v6zm-11 0h1v1h-1v-1zm2 1v-1h1v1h-1zm-4 7v2h-1v-2h1zm-3-5v1h-1v-1h1zm13 0h-1v-1h1v1zm-14-1v1h-2v1h1v1h-3v-1h1v-1h-2v1h-1v-2h6zm-6 15h8v-8h-8v8zm1-7h6v6h-6v-6zm6-3h1v1h-1v-1zm-5 4h4v4h-4v-4zm3-5v-1h1v3h-1v-1h-1v1h-1v-1h-1v1h-2v-1h1v-1h4zm-4-1v1h-1v-1h1zm7-12h-8v8h8v-8zm-1 7h-6v-6h6v6z"/></svg>