<svg xmlns="http://www.w3.org/2000/svg" width="24" height="24" viewBox="0 0 24 24"><path d="M9 6h-1v-1h2v2h-1v-1zm2-1h-1v-2h-2v-1h3v1h1v1h-1v1zm2-3h-2v-1h-3v-1h4v1h1v-1h1v5h-1v-3zm-8 3h-3v-3h3v3zm7 0h1v1h-1v-1zm8 0h-3v-3h3v3zm2-5h-7v7h7v-7zm-1 6h-5v-5h5v5zm-10 0h1v1h-1v-1zm2 1v-1h1v1h-1zm-7 2v1h-1v-1h1zm1-9h-7v7h7v-7zm-1 6h-5v-5h5v5zm3 8v2h-1v-2h1zm-4-6v1h-2v1h1v1h-3v-1h1v-1h-2v-1h5zm-3 9h3v3h-3v-3zm-2 5h7v-7h-7v7zm1-6h5v5h-5v-5zm5-3h1v1h-1v-1zm-2-1v-1h1v3h-1v-1h-1v1h-1v-1h-1v1h-1v-2h4zm6.089 4.734c0-3.765 3.149-6.845 6.915-6.725 1.954.052 3.761.944 4.996 2.429v-2.4379999999999997h-1v-2h-1v1.69c-.627-.284-1.298-.483-2-.591v-.099h1v-1h-2v1h-1v-1h-1v1h-1v-1h-1v1h-1v-1h-1v1h-1v1h-1v-1h1v-1h-4v1h2v1h-2v1h1v2h1v-1h2v1.1c-.471.88-.775 1.86-.874 2.9h-.126v1h-1v5h1v-1h1.383c.239.356.495.674.791 1h1.473c-1.677-1.334-2.558-3.295-2.558-5.266zm.911-5.734v-1h1v.698c-.362.29-.695.613-1 .962v-.66zm-2 9v-1h.429c.106.345.242.677.393 1h-.822zm15 2.586l-2.832-2.832c.524-.79.832-1.735.832-2.754 0-2.761-2.239-5-5-5s-5 2.239-5 5 2.239 5 5 5c1.019 0 1.964-.308 2.754-.832l2.832 2.832 1.414-1.414zm-7-2.586c-1.654 0-3-1.346-3-3s1.346-3 3-3 3 1.346 3 3-1.346 3-3 3z"/></svg>