<svg xmlns="http://www.w3.org/2000/svg" width="24" height="24" viewBox="0 0 24 24"><path d="M6.5 10.5v.5h.5v-.5h-.167v-.167h-.166v.167h-.167zm.333.167v.167h-.166v-.167h.166zm-3.833.333h1.333v-1.333h-1.333v1.333zm.167-1.167h1v1h-1v-1zm3.333.5v-.167h.167v.167h-.167zm-3.167-.333h.667v.667h-.667v-.667zm1.334-.5v.333h-.167v-.333h.167zm.333-1.333h.167v.167h-.167v-.167zm.167-.167h.166v.167h-.166v-.167zm.166.333v-.166h.167v.167h-.167zm0-.333h.167v-1h-.5v.167h-.5v.167h.5v.166h.333v.5zm-.166-.667v-.166h.166v.167h-.166zm-1.167.667h-.667v-.667h.667v.667zm1 0h-.167v-.333h-.333v-.167h.5v.167h.167v.167h-.167v.166zm-.667-1h-1.333v1.333h1.333v-1.333zm-.166 1.167h-1v-1h1v1zm.5 0h-.167v-.167h.333v.333h-.166v-.166zm-.5.5v.167h-.167v-.167h.167zm2.5 1h.333v.5h-.167v-.167h-.333v.167h-.167v-.167h-.166v-.167h.166v-.166h.167v.167h.167v-.167zm-.667.333h-.167v.167h-.166v-.167h-.167v-.167h.167v-.166h-.334v-.167h-.166v.167h-.167v.167h-.333v.166h-.167v1h.8330000000000001v-.167h-.166v-.333h-.167v.333h-.333v-.167h.166v-.166h-.166v-.167h.5v-.167h.333v.334h-.167v.167h.167v.333h.167v-.333h.166v.167h.167v-.167h.167v-.333h.166v-.167h-.333v-.167zm-.167.5h-.166v-.167h.166v.167zm1-1v-.333h.167v.333h-.167zm-1.5.833v.167h-.166v-.167h.166zm.834.5v-.167h.166v.334h-.333v-.167h.167zm-.5-3.833v1.333h1.333v-1.333h-1.333zm1.166 1.167h-1v-1h1v1zm-.166-.167h-.667v-.667h.667v.667zm.166.667h.167v.333h-.167v.167h-.333v-.667h.167v.333h.166v-.166zm-.666 1v-.5h.166v.5h-.166zm-2.167-1.167v.167h-.333v.167h.166v.166h-.5v-.167h.167v-.166h-.333v.167h-.167v-.334h1zm-.167.667v-.167h.167v.5h-.167v-.167h-.166v.167h-.167v-.167h-.167v.167h-.333v-.167h.167v-.166h.666zm-.666-.167v.167h-.167v-.167h.167zm3.166-.333h-.166v-.167h.166v.167zm-2.166.666h.166v.167h-.166v-.167zm2.5.334h-.167v-.167h.167v.167zm-.834.166v-.166h.167v.167h-.167zm-.166-.166h.166v-.5h.334v-.167h.166v-.167h-.166v-.166h-.334v-.167h-.166v.167h-.167v-.167h-.167v.167h-.166v-.167h-.167v.167h-.167v.167h-.166v-.167h.166v-.167h-.666v.167h.333v.167h-.333v.166h.166v.334h.167v-.167h.333v.333h.167v-.667h.167v.333h.5v.167h-.334v.167h.334v.167zm.166-.834h.167v.167h-.167v-.167zm-.333.167h-.167v-.167h.167v.167zm2.38 4h-7.88v-8h9.204c.739 1.612 2.024 1.696 3.796 2.509v4.648c-1.638-.182-3.985-.26-5.12.843zm.12-7h-6v6h6v-6zm9.17-.833c-.806-1.165-5.031-1.924-6.742-2.167-.169.727.111 1.643.859 2.076.729.422 2.847 1.078 3.473 1.702.812.808 2.026 4.668.028 7.282-2.076-.589-4.24-.527-5.415-.048-1.153.47-1.013 1.908.189 2.045 3.42.39 7.587 1.161 10.322 4.943 0 0 1.821-1.885 4.115-4.426-3.668-3.053-4.198-7.606-6.829-11.407z"/></svg>