<svg xmlns="http://www.w3.org/2000/svg" width="24" height="24" viewBox="0 0 24 24"><path d="M22 6v12h-20v-12h20zm2-2h-24v16h24v-16zm-13 11v1h1v-1h-.333v-.333h-.334v.333h-.333zm.667.333v.333h-.334v-.333h.334zm-7.667.667h2.667v-2.667h-2.667v2.667zm.333-2.333h2v2h-2v-2zm6.667 1v-.333h.333v.333h-.333zm-6.333-.667h1.333v1.333h-1.333v-1.333zm2.666-1v.667h-.333v-.667h.333zm.667-2.667h.333v.333h-.333v-.333zm.333-.333h.334v.333h-.334v-.333zm.334.667v-.333h.333v.333h-.333zm0-.667h.333v-2h-1v.333h-1v.333h1v.334h.667v1zm-.334-1.333v-.334h.334v.333h-.334zm-2.333 1.333h-1.333v-1.333h1.333v1.333zm2 0h-.333v-.667h-.667v-.333h1v.333h.333v.333h-.333v.334zm-1.333-2h-2.667v2.667h2.667v-2.667zm-.334 2.333h-2v-2h2v2zm1 0h-.333v-.333h.667v.667h-.334v-.334zm-1 1v.333h-.333v-.333h.333zm5 2h.667v1h-.333v-.333h-.667v.333h-.333v-.333h-.334v-.333h.334v-.333h.333v.333h.333v-.334zm-1.333.667h-.333v.333h-.334v-.333h-.333v-.333h.333v-.333h-.666v-.334h-.334v.333h-.333v.333h-.667v.334h-.333v2h1.667v-.333h-.334v-.667h-.333v.667h-.667v-.333h.334v-.334h-.334v-.333h1v-.333h.667v.666h-.333v.333h.333v.667h.333v-.667h.334v.333h.333v-.333h.333v-.667h.334v-.333h-.667v-.333zm-.333 1h-.334v-.333h.334v.333zm2-2v-.667h.333v.667h-.333zm-3 1.667v.333h-.334v-.333h.334zm1.666 1v-.333h.334v.666h-.667v-.333h.333zm-1-7.667v2.667h2.667v-2.667h-2.667zm2.334 2.333h-2v-2h2v2zm-.334-.333h-1.333v-1.333h1.333v1.333zm.334 1.333h.333v.667h-.333v.333h-.667v-1.333h.333v.667h.334v-.334zm-1.334 2v-1h.334v1h-.334zm-4.333-2.333v.333h-.667v.333h.334v.334h-1v-.333h.333v-.333h-.667v.333h-.333v-.667h2zm-.333 1.333v-.333h.333v1h-.333v-.333h-.334v.333h-.333v-.333h-.333v.333h-.667v-.333h.333v-.333h1.334zm-1.334-.333v.333h-.333v-.333h.333zm6.334-.667h-.334v-.333h.334v.333zm-4.334 1.334h.334v.333h-.334v-.333zm5 .666h-.333v-.333h.333v.333zm-1.666.334v-.333h.333v.333h-.333zm-.334-.334h.334v-1h.666v-.333h.334v-.333h-.334v-.333h-.666v-.334h-.334v.333h-.333v-.333h-.333v.333h-.334v-.333h-.333v.333h-.333v.333h-.334v-.333h.334v-.333h-1.334v.333h.667v.333h-.667v.334h.334v.666h.333v-.333h.667v.667h.333v-1.333h.333v.667h1v.333h-.666v.333h.666v.333zm.334-1.666h.333v.333h-.333v-.333zm-.667.333h-.333v-.333h.333v.333zm11-4h-6v1h6v-1zm0 2h-6v1h6v-1zm0 2h-6v1h6v-1zm-3 2h-3v1h3v-1z"/></svg>