<svg xmlns="http://www.w3.org/2000/svg" width="24" height="24" viewBox="0 0 24 24"><path d="M7 0c-1.105 0-2 .896-2 2v18.678c-.002 2.213 3.503 3.322 7.006 3.322 3.498 0 6.994-1.106 6.994-3.322v-18.678c0-1.104-.895-2-2-2h-10zm5 22c-.553 0-1-.448-1-1s.447-1 1-1 1 .448 1 1-.447 1-1 1zm5-4h-10v-14h10v14zm-2.75-4.75v.75h.75v-.75h-.25v-.25h-.25v.25h-.25zm.5.25v.25h-.25v-.25h.25zm-5.75.5h2v-2h-2v2zm.25-1.75h1.5v1.5h-1.5v-1.5zm5 .75v-.25h.25v.25h-.25zm-4.75-.5h1v1h-1v-1zm2-.75v.5h-.25v-.5h.25zm.5-2h.25v.25h-.25v-.25zm.25-.25h.25v.25h-.25v-.25zm.25.5v-.25h.25v.25h-.25zm0-.5h.25v-1.5h-.75v.25h-.75v.25h.75v.25h.5v.75zm-.25-1v-.25h.25v.25h-.25zm-1.75 1h-1v-1h1v1zm1.5 0h-.25v-.5h-.5v-.25h.75v.25h.25v.25h-.25v.25zm-1-1.5h-2v2h2v-2zm-.25 1.75h-1.5v-1.5h1.5v1.5zm.75 0h-.25v-.25h.5v.5h-.25v-.25zm-.75.75v.25h-.25v-.25h.25zm3.75 1.5h.5v.75h-.25v-.25h-.5v.25h-.25v-.25h-.25v-.25h.25v-.25h.25v.25h.25v-.25zm-1 .5h-.25v.25h-.25v-.25h-.25v-.25h.25v-.25h-.5v-.25h-.25v.25h-.25v.25h-.5v.25h-.25v1.5h1.25v-.25h-.25v-.5h-.25v.5h-.5v-.25h.25v-.25h-.25v-.25h.75v-.25h.5v.5h-.25v.25h.25v.5h.25v-.5h.25v.25h.25v-.25h.25v-.5h.25v-.25h-.5v-.25zm-.25.75h-.25v-.25h.25v.25zm1.5-1.5v-.5h.25v.5h-.25zm-2.25 1.25v.25h-.25v-.25h.25zm1.25.75v-.25h.25v.5h-.5v-.25h.25zm-.75-5.75v2h2v-2h-2zm1.75 1.75h-1.5v-1.5h1.5v1.5zm-.25-.25h-1v-1h1v1zm.25 1h.25v.5h-.25v.25h-.5v-1h.25v.5h.25v-.25zm-1 1.5v-.75h.25v.75h-.25zm-3.25-1.75v.25h-.5v.25h.25v.25h-.75v-.25h.25v-.25h-.5v.25h-.25v-.5h1.5zm-.25 1v-.25h.25v.75h-.25v-.25h-.25v.25h-.25v-.25h-.25v.25h-.5v-.25h.25v-.25h1zm-1-.25v.25h-.25v-.25h.25zm4.75-.5h-.25v-.25h.25v.25zm-3.25 1h.25v.25h-.25v-.25zm3.75.5h-.25v-.25h.25v.25zm-1.25.25v-.25h.25v.25h-.25zm-.25-.25h.25v-.75h.5v-.25h.25v-.25h-.25v-.25h-.5v-.25h-.25v.25h-.25v-.25h-.25v.25h-.25v-.25h-.25v.25h-.25v.25h-.25v-.25h.25v-.25h-1v.25h.5v.25h-.5v.25h.25v.5h.25v-.25h.5v.5h.25v-1h.25v.5h.75v.25h-.5v.25h.5v.25zm.25-1.25h.25v.25h-.25v-.25zm-.5.25h-.25v-.25h.25v.25z"/></svg>