<svg xmlns="http://www.w3.org/2000/svg" width="24" height="24" viewBox="0 0 24 24"><path d="M5.278 6.711c-.841 1.39-1.278 2.942-1.278 4.289v2h4v6h-6v-5.391c0-2.936 1.176-5.333 3.278-6.898zm13.993.011c-.836 1.386-1.271 2.934-1.271 4.278v2h4v6h-6v-5.391c0-2.93 1.184-5.322 3.271-6.887zm3.729-3.722c-5.252 1.039-8.983 4.905-8.983 10.609v7.391h9.983v-10h-4c0-2.211 1.562-4.932 3.995-5.849l-.995-2.151zm-14 0c-5.252 1.039-9 4.905-9 10.609v7.391h9.983v-10h-3.983c0-2.211 1.563-4.932 3.996-5.849l-.996-2.151z"/></svg>