<svg width="24" height="24" xmlns="http://www.w3.org/2000/svg" fill-rule="evenodd" clip-rule="evenodd"><path d="M12 0c6.623 0 12 5.377 12 12s-5.377 12-12 12-12-5.377-12-12 5.377-12 12-12zm6.363 18.363c-1.629 1.629-3.879 2.637-6.363 2.637-4.967 0-9-4.033-9-9 0-4.28 2.994-7.866 7-8.777v1.029c-3.449.889-6 4.023-6 7.748 0 4.415 3.585 8 8 8 2.208 0 4.208-.896 5.656-2.344l.707.707zm-2.475-2.475c-.995.996-2.37 1.612-3.888 1.612-3.036 0-5.5-2.464-5.5-5.5 0-2.33 1.452-4.324 3.5-5.124v1.092c-1.481.737-2.5 2.267-2.5 4.032 0 2.484 2.016 4.5 4.5 4.5 1.242 0 2.367-.504 3.181-1.319l.707.707zm-4.888-5.62v-7.268c0-.265.105-.52.293-.707.187-.188.442-.293.707-.293.265 0 .52.105.707.293.188.187.293.442.293.707v7.268c.598.346 1 .992 1 1.732 0 1.104-.896 2-2 2s-2-.896-2-2c0-.74.402-1.386 1-1.732z"/></svg>