<svg xmlns="http://www.w3.org/2000/svg" width="24" height="24" viewBox="0 0 24 24"><path d="M12 0c-6.627 0-12 5.373-12 12 0 6.29 4.842 11.44 11 11.95v-9.133c-1.162-.414-2-1.513-2-2.817 0-1.657 1.344-3 3-3s3 1.343 3 3c0 1.304-.838 2.403-2 2.816v9.133c6.158-.51 11-5.66 11-11.95 0-6.626-5.373-11.999-12-11.999zm-5.282 12c0 1.791.887 3.397 2.282 4.498l-1.481 1.502c-1.86-1.467-3.04-3.608-3.04-6s1.18-4.533 3.04-6l1.481 1.502c-1.396 1.101-2.282 2.707-2.282 4.498zm9.763 6l-1.481-1.502c1.396-1.101 2.282-2.707 2.282-4.498s-.886-3.397-2.282-4.498l1.481-1.502c1.86 1.467 3.04 3.608 3.04 6s-1.179 4.533-3.04 6z"/></svg>