<svg xmlns="http://www.w3.org/2000/svg" width="24" height="24" viewBox="0 0 24 24"><path d="M15 11.184c0-1.657-1.344-3-3-3s-3 1.343-3 3c0 1.304.838 2.403 2 2.816v10h2v-10c1.162-.414 2-1.512 2-2.816zm-11.551 4.006c-.92-1.513-1.449-3.289-1.449-5.189 0-5.523 4.477-10.001 10-10.001s10 4.478 10 10.001c0 1.9-.529 3.676-1.451 5.189.513-1.156.797-2.434.797-3.78 0-5.163-4.184-9.347-9.346-9.347s-9.346 4.185-9.346 9.347c0 1.345.284 2.624.795 3.78zm3.108-3.78c0-3.006 2.438-5.442 5.443-5.442s5.443 2.437 5.443 5.443c0 .696-.133 1.362-.371 1.975.648-.969 1.025-2.132 1.025-3.384 0-3.368-2.73-6.099-6.098-6.099s-6.098 2.73-6.098 6.099c0 1.252.377 2.416 1.025 3.384-.237-.613-.369-1.279-.369-1.976z"/></svg>