<svg xmlns="http://www.w3.org/2000/svg" width="24" height="24" viewBox="0 0 24 24"><path d="M6 7h-3s1-1.156 1-2v-4.5c0-.276.224-.5.5-.5s.5.224.5.5v4.5c0 .891 1 2 1 2zm-4 3v12h20v-12h-20zm22 0v12c0 1.104-.896 2-2 2h-20c-1.104 0-2-.896-2-2v-12c0-1.104.896-2 2-2h20c1.104 0 2 .896 2 2zm-13.457 1h-7.543v4h2l1-2 1 2h1.396c.166-1.375 1.062-3.375 2.147-4zm1.457 5c0 2.206 1.794 4 4 4s4-1.794 4-4-1.794-4-4-4-4 1.794-4 4zm9 0c0 2.761-2.239 5-5 5s-5-2.239-5-5 2.239-5 5-5 5 2.239 5 5zm-5 0v-3h-1v4h3v-1h-2z"/></svg>