<svg xmlns="http://www.w3.org/2000/svg" width="24" height="24" viewBox="0 0 24 24"><path d="M22 8h-20c-1.104 0-2 .896-2 2v12c0 1.104.896 2 2 2h20c1.104 0 2-.896 2-2v-12c0-1.104-.896-2-2-2zm-2.255 5.163c.373 0 .676.302.676.676 0 .373-.303.675-.676.675s-.676-.302-.676-.675c0-.374.303-.676.676-.676zm-1.872 1.08c.373 0 .675.303.675.676 0 .373-.302.675-.675.675s-.677-.302-.677-.675c0-.373.304-.676.677-.676zm-4.035-2.663c.373 0 .676.302.676.675 0 .374-.303.676-.676.676s-.676-.302-.676-.676c0-.373.303-.675.676-.675zm-5.838 2.42h-2l-1-2-1 2h-2v-4h8.543c-1.085.625-2.355 2.812-2.543 4zm3 1.964c0-.373.303-.675.676-.675s.676.302.676.675c0 .374-.303.676-.676.676s-.676-.303-.676-.676zm1.255 2.874c-.373 0-.676-.302-.676-.676 0-.373.303-.675.676-.675s.676.302.676.675c0 .374-.303.676-.676.676zm0-4.324c-.373 0-.676-.302-.676-.676s.303-.676.676-.676.676.302.676.676-.303.676-.676.676zm1.583 5.907c-.373 0-.676-.302-.676-.675 0-.374.303-.676.676-.676s.676.303.676.676c0 .373-.303.675-.676.675zm.289-2.664c-.373 0-.675-.303-.675-.676s.302-.675.675-.675.677.302.677.675-.304.676-.677.676zm0-2.162c-.373 0-.675-.302-.675-.675 0-.374.302-.676.675-.676s.677.303.677.676c0 .372-.304.675-.677.675zm1.873 5.405c-.373 0-.676-.302-.676-.675s.303-.676.676-.676.675.303.675.676-.302.675-.675.675zm0-2.162c-.373 0-.676-.302-.676-.676 0-.373.303-.675.676-.675s.675.302.675.675c0 .374-.302.676-.675.676zm0-2.162c-.373 0-.676-.303-.676-.676s.303-.676.676-.676.675.303.675.676-.302.676-.675.676zm0-2.162c-.373 0-.676-.302-.676-.675 0-.374.303-.676.676-.676s.675.302.675.676c0 .372-.302.675-.675.675zm0-2.162c-.373 0-.676-.303-.676-.676s.303-.676.676-.676.675.303.675.676-.302.676-.675.676zm1.196 4.729c0-.373.304-.675.677-.675s.675.302.675.675-.302.676-.675.676-.677-.303-.677-.676zm.966 3.34c-.373 0-.676-.302-.676-.675 0-.374.303-.676.676-.676s.676.303.676.676c0 .373-.303.675-.676.675zm0-7.49c-.373 0-.676-.302-.676-.676 0-.373.303-.675.676-.675s.676.302.676.675c0 .373-.303.676-.676.676zm1.583 5.907c-.373 0-.676-.302-.676-.676 0-.373.303-.675.676-.675s.676.302.676.675c0 .374-.303.676-.676.676zm.579-2.162c-.373 0-.676-.303-.676-.676s.303-.676.676-.676.676.303.676.676-.303.676-.676.676zm-14.324-9.676h-3s1-1.156 1-2v-4.5c0-.276.224-.5.5-.5s.5.224.5.5v4.5c0 .891 1 2 1 2z"/></svg>