<svg xmlns="http://www.w3.org/2000/svg" width="24" height="24" viewBox="0 0 24 24"><path d="M6 7h-3s1-1.156 1-2v-4.5c0-.276.224-.5.5-.5s.5.224.5.5v4.5c0 .891 1 2 1 2zm18 15c0 1.104-.896 2-2 2h-20c-1.104 0-2-.896-2-2v-12c0-1.104.896-2 2-2h20c1.104 0 2 .896 2 2v12zm-13.457-12h-8.543v4h2l1-2 1 2h2c.188-1.188 1.459-3.375 2.543-4zm10.457 6c0-2.761-2.238-5-5-5s-5 2.239-5 5 2.238 5 5 5 5-2.239 5-5zm-7.826-1c.412-1.165 1.521-2 2.826-2 1.656 0 3 1.343 3 3 0 .171-.018.337-.045.5h-.381c-.284 0-.329-.127-.482-.615-.111-.354-.297-.888-.703-.888-.414 0-.574.554-.723 1.001-.082.243-.131.39-.203.39-.07 0-.104-.147-.186-.391-.154-.456-.33-1.001-.741-1.001-.427 0-.608.597-.731.977-.088.276-.116.415-.195.415-.066 0-.088-.112-.164-.336-.176-.509-.233-1.052-1.016-1.052h-.256zm5.365 2c-.574 0-.712-.275-.926-.891-.133-.382-.147-.519-.225-.519-.075 0-.097.156-.244.578-.13.369-.309.828-.682.828-.416 0-.594-.556-.746-1.019-.085-.256-.106-.373-.181-.373-.069 0-.087.105-.174.359-.159.468-.335 1.033-.753 1.033-.411 0-.6-.556-.701-.888-.152-.491-.179-.608-.453-.608h-.41c-.026.163-.044.329-.044.5 0 1.657 1.344 3 3 3 1.306 0 2.413-.835 2.826-2h-.287z"/></svg>