<svg xmlns="http://www.w3.org/2000/svg" width="24" height="24" viewBox="0 0 24 24"><path d="M6 7h-3s1-1.156 1-2v-4.5c0-.276.224-.5.5-.5s.5.224.5.5v4.5c0 .891 1 2 1 2zm-4 3v12h20v-12h-20zm22 0v12c0 1.104-.896 2-2 2h-20c-1.104 0-2-.896-2-2v-12c0-1.104.896-2 2-2h20c1.104 0 2 .896 2 2zm-13.457 1h-7.543v4h2l1-2 1 2h1.396c.166-1.375 1.063-3.375 2.147-4zm.747 3.333c.687-1.941 2.534-3.333 4.71-3.333 2.761 0 5 2.239 5 5 0 .285-.029.562-.075.833h-.635c-.474 0-.548-.212-.804-1.025-.186-.589-.495-1.479-1.172-1.479-.69 0-.957.923-1.204 1.669-.137.405-.219.65-.339.65-.117 0-.173-.245-.31-.651-.257-.759-.55-1.668-1.235-1.668-.711 0-1.014.994-1.219 1.628-.146.459-.193.691-.325.691-.111 0-.146-.188-.273-.56-.293-.85-.388-1.754-1.693-1.754h-.426zm8.941 3.334c-.957 0-1.187-.459-1.543-1.484-.221-.637-.245-.864-.374-.864-.125 0-.161.261-.407.964-.216.614-.514 1.379-1.136 1.379-.693 0-.989-.927-1.243-1.699-.142-.426-.178-.622-.302-.622-.115 0-.145.176-.289.598-.266.78-.559 1.722-1.255 1.722-.686 0-1-.927-1.169-1.48-.254-.818-.298-1.014-.755-1.014h-.684c-.045.271-.074.548-.074.833 0 2.761 2.239 5 5 5 2.176 0 4.021-1.393 4.71-3.333h-.479z"/></svg>