<svg xmlns="http://www.w3.org/2000/svg" width="24" height="24" viewBox="0 0 24 24"><path d="M15 12c0-1.657-1.344-3-3-3s-3 1.343-3 3c0 1.304.838 2.403 2 2.816v9.184h2v-9.184c1.162-.413 2-1.512 2-2.816zm-8.282 0c0-1.791.887-3.397 2.282-4.498l-1.481-1.502c-1.86 1.467-3.04 3.608-3.04 6s1.18 4.533 3.04 6l1.481-1.502c-1.396-1.101-2.282-2.707-2.282-4.498zm9.763-6l-1.481 1.502c1.396 1.101 2.282 2.707 2.282 4.498s-.886 3.397-2.282 4.498l1.481 1.502c1.86-1.467 3.04-3.608 3.04-6s-1.179-4.533-3.04-6zm7.519 6c0 5.589-3.827 10.272-9 11.606v-2.068c4.053-1.277 7-5.069 7-9.539 0-5.514-4.486-10-10-10s-10 4.487-10 10.001c0 4.469 2.948 8.261 7 9.539v2.068c-5.172-1.335-9-6.018-9-11.607 0-6.627 5.373-12 12-12s12 5.373 12 12z"/></svg>