<svg xmlns="http://www.w3.org/2000/svg" width="24" height="24" viewBox="0 0 24 24"><path d="M12 2c-.488 0-.936.266-1.168.693l-3.239 5.731-1.755-.96 3.237-5.728c.583-1.07 1.706-1.736 2.925-1.736s2.342.666 2.925 1.736l2.926 5.182 1.812-.991-1.194 4.073-4.071-1.192 1.698-.929-2.912-5.159c-.248-.454-.696-.72-1.184-.72zm-9.812 17.35c-.239-.403-.249-.909-.039-1.293l2.976-5.265 1.81.99-1.195-4.073-4.071 1.192 1.7.93-2.962 5.241c-.271.498-.407 1.047-.407 1.595 0 1.845 1.497 3.333 3.333 3.333h6.667v-2h-6.667c-.468 0-.907-.25-1.145-.65zm21.405-2.278l-3.136-5.543-1.755.96 3.135 5.542c.225.41.215.916-.023 1.317-.24.402-.679.652-1.147.652h-5.667v-2l-3 3 3 3v-2h5.667c1.837 0 3.333-1.489 3.333-3.333 0-.548-.136-1.097-.407-1.595z"/></svg>