<svg xmlns="http://www.w3.org/2000/svg" width="24" height="24" viewBox="0 0 24 24"><path d="M1.615 11.375l-1.535-.986 5.399-.618 1.924 5.023-1.518-.961c-1.482 2.402-2.843 5.215-1.979 7.896-2.503-2.122-3.906-3.753-3.906-5.723 0-1.422.924-3.339 1.615-4.631zm4.057 5.625c-.763.931-1.002 2.887-.753 4.071.114.542.592.929 1.147.929h4.934v-5h-5.328zm10.706 5.176v1.824l-3.37-4.263 3.37-4.282v1.797c2.823-.005 5.798-.333 7.622-2.479-.484 3.246-1.131 5.298-2.805 6.336-1.209.748-3.354.973-4.817 1.067zm2.672-6.413c1.193.158 2.982-.669 3.857-1.505.401-.383.478-.993.186-1.464l-2.6-4.192-4.25 2.634 2.807 4.527zm-.937-11.561l1.61-.859-2.097 5.014-5.323-.772 1.579-.856c-1.372-2.467-3.162-5.028-5.925-5.583 1.904-.711 3.438-1.146 4.737-1.146 2.238 0 3.54 1.265 5.419 4.202zm-6.889.795c-.44-1.12-2.031-2.285-3.186-2.645-.529-.165-1.1.063-1.371.547l-2.408 4.307 4.364 2.441 2.601-4.65z"/></svg>