<svg xmlns="http://www.w3.org/2000/svg" width="24" height="24" viewBox="0 0 24 24"><path d="M12 0c-6.627 0-12 5.373-12 12s5.373 12 12 12 12-5.373 12-12-5.373-12-12-12zm5.547 12.396c.146.236.107.541-.093.732-.438.418-1.332.832-1.929.753l-1.403-2.265 2.125-1.316 1.3 2.096zm-11.547 1.607c0-.711.462-1.669.808-2.315l-.768-.494 2.7-.309.962 2.512-.759-.48c-.741 1.201-1.422 2.607-.989 3.948-1.252-1.061-1.954-1.877-1.954-2.862zm5.5 2.997h-2.467c-.277 0-.517-.193-.573-.465-.125-.592-.005-1.57.376-2.035h2.664v2.5zm-1.188-6.177l-2.182-1.22 1.204-2.153c.136-.243.421-.357.686-.274.577.18 1.372.763 1.593 1.322l-1.301 2.325zm-.333-4.25c.952-.355 1.718-.573 2.369-.573 1.119 0 1.77.632 2.709 2.101l.806-.429-1.049 2.507-2.661-.387.789-.428c-.687-1.233-1.582-2.513-2.963-2.791zm6.619 9.981c-.604.375-1.677.487-2.408.534v.912l-1.685-2.132 1.685-2.141v.898c1.411-.003 2.899-.167 3.811-1.24-.243 1.624-.566 2.65-1.403 3.169z"/></svg>