<svg xmlns="http://www.w3.org/2000/svg" width="24" height="24" viewBox="0 0 24 24"><path d="M23.322 19.318l-4.072 1.192-1.193-4.072 1.763.964c.737-1.305 1.18-2.798 1.18-4.402 0-3.681-2.224-6.849-5.396-8.242l.623-1.914c3.975 1.657 6.772 5.579 6.772 10.156 0 1.953-.521 3.779-1.416 5.367l1.739.951zm-11.323 2.682c-3.332 0-6.24-1.825-7.796-4.523l1.769-1.026-4.102-1.089-1.089 4.1 1.694-.982c1.899 3.295 5.447 5.52 9.524 5.52 2.202 0 4.248-.654 5.969-1.768l-1.24-1.588c-1.376.854-2.994 1.356-4.729 1.356zm-8.994-8.876l-.006-.124c0-4.625 3.51-8.433 8.004-8.932l-.004 1.932 3.005-2.996-2.995-3.004-.003 2.05c-5.61.503-10.007 5.21-10.007 10.95l.021.402 1.985-.278zm9.472-1.72c-.015-.027.143-.042.17-.042.031.004-.082.188-.17.042zm-.897-1.279l.045-.013-.021.057.003.138-.062.039.109.036-.127.071c.04.057.344-.082.295-.073.094-.047.013-.052-.04-.08-.018-.089-.033-.228-.089-.283l.037-.042c-.086-.126-.15.15-.15.15zm5.42 2.875c0 2.761-2.238 5-5 5s-5-2.239-5-5 2.238-5 5-5 5 2.239 5 5zm-3.462-2.238c-.003-.061-.08-.119-.159-.013l-.077.232c-.043.073.236.141.236.072.011-.115.306-.026.363-.01.103.029.268-.094.088-.159-.148-.054-.227-.112-.24-.217l.045-.069c-.092.01-.256.327-.256.164zm2.623 2.238c0-.431-.074-.867-.149-1.097-.023-.072-.078-.13-.149-.157-.106-.042-.557.249-.625.105l-.238.003c-.05-.028-.189-.214-.253-.192-.128.047.198.402.287.449.084-.063.354-.194.413-.016.111.335-.307.702-.521.896-.319.29-.26-.187-.478-.354l-.229-.34c-.052-.029-.289-.302-.286-.339l-.007.069c-.039.029-.123-.112-.132-.134 0 .123.2.319.267.417.112.168.173.415.312.552.074.074.357.381.432.375l.379-.18c.269.063-.631 1.335-.717 1.493-.07.132.058.458.047.615-.012.18-.153.239-.288.337l-.231.385c-.216.133-.371.564-.677.562-.09 0-.475.15-.525.003l-.146-.293-.072-.301c-.046-.063-.198-.207-.212-.282 0-.064.049-.261.117-.295.096-.049.019-.191.007-.273-.021-.147-.111-.269-.222-.354-.162-.125-.078-.224-.04-.401 0-.085-.052-.197-.166-.163-.235.068-.163-.184-.335-.172-.123.009-.224.087-.339.122-.144.043-.292-.034-.435-.052-.586-.074-.777-.745-.624-1.228l-.021-.287c.066-.146.201-.311.318-.422l.228-.095.238-.325c.167-.136.395-.133.611-.162.116-.016.557-.111.626-.025 0 .016.08.252-.007.238.18.01.437.312.608.241.088-.037.056-.307.236-.176.109.078.598.113.7.029.062-.052.098-.388.021-.425.048.048-.255.052-.283.041l-.177.011c.049.023-.27-.148-.091-.278l-.225.044-.054.115c-.125.063-.221-.219-.268-.251-.049-.032-.423-.294-.32-.123l.328.327c-.016.011-.086-.119-.086-.024.021-.056.008.242-.044.145l.003-.111-.113-.094c-.053-.065-.191-.208-.266-.242-.021-.01-.318.037-.344.046l-.074.129-.175.089-.065.147-.32.125c.013-.031-.203-.071-.188-.134.016-.069.089-.283.069-.362-.02-.083.448.118.479-.098.012-.094.019-.203-.131-.219.028.003.29-.103.333-.15.061-.07.2-.185.302-.185.118 0 .092-.172.146-.256l.036.211c-.004-.043.186.023.204.014.044-.023.285-.01.248-.123-.042-.116.021-.082.075-.105-.01.004.142-.258.168-.172-.019-.088-.176.031-.23.026-.127-.01-.073-.217-.025-.277.037-.048-.102-.106-.103-.015-.003.137-.13.261-.101.444.045.274-.307-.066-.337-.048-.117.071-.212-.089-.152-.185l.272-.198c.043-.074.093-.16.16-.216.223-.188.284-.038.507-.017.217.02.072.052.043.135-.029.079.119.107.171.041l.124-.206c.037-.092.375-.082.139-.224-.155-.093-.835-.28-1.29-.28-.098 0-.167.109-.241.172-.149.123-.528.364-.74.291-.216-.075-.679.275-.753.277-.028-.002.001-.268.149-.288-.064.009.52-.294.504-.358-.02-.075-1.167.343-1.115.426.024.039.124.039-.007.123-.076.046-.156.334-.226.334-.21.092-.224-.181-.458.17l-.372.15c-.554.588-.937 1.332-1.075 2.16l.158.117c.047.056.047.296.069.375.058.199.2.31.309.491.064.108.171.381.137.494.046-.074.446.34.52.426.173.203.306.449.025.649-.091.065.138.47.02.57l-.15.039c-.15.092-.083.316.007.41.758.792 1.825 1.286 3.009 1.286 2.298 0 4.162-1.863 4.162-4.162zm-4.795-2.649c.053-.023.122-.022.13-.091l.033-.042-.046-.061-.062.043-.03.008-.028.036.003.02-.036.044.036.043z"/></svg>