<svg xmlns="http://www.w3.org/2000/svg" width="24" height="24" viewBox="0 0 24 24"><path d="M8.807 2.212l.269-.476c.582-1.07 1.705-1.736 2.924-1.736s2.342.666 2.925 1.736l2.926 5.182 1.812-.991-1.194 4.073-4.071-1.192 1.698-.929-2.912-5.159c-.248-.454-.696-.72-1.184-.72s-.936.266-1.168.693l-.281.497-1.744-.978zm13.13 11.933l-1.761.949.984 1.74 1.761-.95-.984-1.739zm-12.862-8.344l.984-1.74-1.745-.978-.983 1.74 1.744.978zm10.608 8.422l1.761-.949-.986-1.745-1.755.96.98 1.734zm-12.683 7.777v-2h-2v2h2zm16.414-5.244l-1.762.949.185.326c.225.41.215.916-.023 1.317-.24.402-.679.652-1.147.652h-5.667v-2l-3 3 3 3v-2h5.667c1.837 0 3.333-1.489 3.333-3.333 0-.548-.136-1.098-.407-1.595l-.179-.316zm-14.831-10.084l-1.745-.978-1 1.77 1.755.96.99-1.752zm-.583 15.328h2v-2h-2v2zm-4-2h-.667c-.468 0-.907-.25-1.146-.65-.239-.403-.249-.909-.039-1.293l2.976-5.265 1.81.99-1.194-4.073-4.071 1.192 1.7.93-2.962 5.241c-.271.498-.407 1.047-.407 1.595 0 1.845 1.497 3.333 3.333 3.333h.667v-2z"/></svg>