<svg xmlns="http://www.w3.org/2000/svg" width="24" height="24" viewBox="0 0 24 24"><path d="M6.808 11.688l-.768-.494 2.7-.309.962 2.512-.759-.48c-.741 1.201-1.422 2.607-.989 3.948-1.252-1.061-1.954-1.877-1.954-2.862 0-.711.462-1.669.808-2.315zm2.028 2.812c-.381.465-.501 1.443-.376 2.035.057.272.296.465.573.465h2.467v-2.5h-2.664zm5.353 2.588v.912l-1.685-2.132 1.685-2.141v.898c1.411-.003 2.899-.167 3.811-1.24-.242 1.623-.565 2.649-1.402 3.168-.605.376-1.677.488-2.409.535zm1.336-3.206c.597.079 1.491-.335 1.929-.753.2-.191.239-.496.093-.732l-1.3-2.096-2.125 1.316 1.403 2.265zm-.468-5.781l.806-.429-1.049 2.507-2.661-.387.789-.428c-.687-1.233-1.581-2.514-2.963-2.791.952-.355 1.718-.573 2.369-.573 1.119 0 1.769.632 2.709 2.101zm-3.445.397c-.221-.56-1.016-1.142-1.593-1.322-.264-.083-.549.031-.685.273l-1.204 2.154 2.182 1.221 1.3-2.326zm.388-6.498c5.514 0 10 4.486 10 10s-4.486 10-10 10-10-4.486-10-10 4.486-10 10-10zm0-2c-6.627 0-12 5.373-12 12s5.373 12 12 12 12-5.373 12-12-5.373-12-12-12z"/></svg>