<svg xmlns="http://www.w3.org/2000/svg" width="24" height="24" viewBox="0 0 24 24"><path d="M8 22h-1.934c-.555 0-1.033-.387-1.147-.929-.249-1.184-.01-3.14.753-4.071h2.328v5zm-2.114-8.167l1.518.961-1.925-5.023-5.399.618 1.535.986c-.691 1.292-1.615 3.209-1.615 4.631 0 1.97 1.403 3.601 3.907 5.723-.865-2.681.496-5.494 1.979-7.896zm3.114 8.167h2v-5h-2v5zm8.627-13.643l2.097-5.014-1.61.859c-1.88-2.937-3.182-4.202-5.42-4.202-1.3 0-2.833.435-4.737 1.146 2.763.555 4.553 3.116 5.926 5.583l-1.579.856 5.323.772zm-1.248 8.894v-1.797l-3.371 4.282 3.371 4.264v-1.824c1.463-.094 3.607-.318 4.816-1.067 1.674-1.038 2.32-3.09 2.805-6.336-1.823 2.146-4.799 2.473-7.621 2.478zm-6.303-10.202l1.148-2.053c-.44-1.12-2.031-2.285-3.186-2.645-.529-.165-1.1.063-1.371.547l-.956 1.71 4.365 2.441zm-4.853-1.568l-.964 1.725 4.364 2.441.964-1.724-4.364-2.442zm16.321 4.816l-1.052-1.696-4.25 2.634 1.052 1.696 4.25-2.634zm1.549 2.496l-1.021-1.646-4.25 2.634 1.229 1.982c1.193.158 2.982-.669 3.857-1.505.401-.383.477-.993.185-1.465z"/></svg>