<svg xmlns="http://www.w3.org/2000/svg" width="24" height="24" viewBox="0 0 24 24"><path d="M16.434 20.467c.552-.204 1.077-.462 1.569-.771l1.189 1.618c-.706.457-1.47.829-2.278 1.107l-.48-1.954zm-10.105-3.424l-1.2 1.775c.421.557.904 1.062 1.426 1.526l1.082-1.709c-.497-.475-.938-1.009-1.308-1.592zm-1.176-6.043c.711-3.972 4.174-7 8.347-7 4.687 0 8.5 3.813 8.5 8.5 0 2.313-.932 4.411-2.436 5.945l1.197 1.627c1.993-1.911 3.239-4.594 3.239-7.572 0-5.798-4.703-10.5-10.5-10.5-5.288 0-9.649 3.914-10.377 9h-3.123l4 5.917 4-5.917h-2.847zm5.745 9.574c-.582-.189-1.139-.429-1.658-.733l-1.065 1.683c.688.409 1.424.739 2.201.983l.522-1.933zm3.592.364c-.839.097-1.035.066-1.623.021l-.533 1.972c.946.105 1.661.092 2.636-.045l-.48-1.948z"/></svg>