<svg xmlns="http://www.w3.org/2000/svg" width="24" height="24" viewBox="0 0 24 24"><path d="M22.295 13.047c-.047 1.527.851 3.718 1.661 5.312-1.875-.338-4.429-1.032-5.991-1.768.061-.751.05-1.444-.185-2.404.86.531 1.212.76 2.871 1.29-.418-1.515-.364-2.183-.333-3.183.834-1 1.683-2.07 1.683-3.943-.001-3.501-3.59-6.351-8.001-6.351-4.035 0-7.367 2.387-7.908 5.473-.721.122-1.414.31-2.071.559.205-4.683 4.847-8.032 9.979-8.032 5.281 0 10 3.526 10 8.352 0 1.71-.615 3.39-1.705 4.695zm-6.295 2.945c0 3.422-3.218 6.652-7.941 6.652-.854 0-1.761-.106-2.704-.336-1.118.685-3.585 1.377-5.319 1.692.648-1.277 1.366-3.029 1.329-4.252-.872-1.042-1.365-2.387-1.365-3.756 0-3.86 3.775-6.681 8-6.681 4.199 0 8 2.802 8 6.681zm-6.609 3.008l-.797-1h-2.594v-3h1l-1.5-2-1.5 2h1v4h4.391zm2.609-2h-1v-4h-4.422l.797 1h2.625v3h-1l1.5 2 1.5-2z"/></svg>