<svg xmlns="http://www.w3.org/2000/svg" width="24" height="24" viewBox="0 0 24 24"><path d="M13.404 23h-2.808l-.96-2h4.728l-.96 2zm-1.419-23c-7.076 6.157-5.909 14.779-3.324 20h6.685c2.59-5.483 3.765-13.883-3.361-20zm2.051 18h-4.078c-1.157-2.884-3.008-9.642 2.036-15.216 3.906 4.26 4.166 9.88 2.042 15.216zm4.957-2.78c-.123.65-.27 1.272-.437 1.866.497.761.834 1.771.921 2.831-.41-.406-.933-.704-1.544-.916-.191.509-.387.979-.583 1.416 1.675.741 2.091 2.108 2.29 3.584.847-.985 1.36-2.396 1.36-3.912 0-1.635-.605-3.388-2.007-4.869zm-12.933 3.782c-.607.212-1.128.509-1.537.914.086-1.049.418-2.049.907-2.808-.17-.613-.304-1.248-.421-1.89-1.403 1.481-2.009 3.235-2.009 4.87 0 1.516.514 2.927 1.36 3.912.199-1.477.615-2.845 2.292-3.585-.211-.455-.408-.926-.592-1.413zm5.94-5.002c-.552 0-1-.448-1-1s.448-1 1-1 1 .448 1 1-.448 1-1 1zm0-7c-1.104 0-2 .896-2 2s.896 2 2 2 2-.896 2-2-.896-2-2-2zm0 2.7c-.386 0-.7-.314-.7-.7s.314-.7.7-.7.7.314.7.7-.314.7-.7.7z"/></svg>