<svg xmlns="http://www.w3.org/2000/svg" width="24" height="24" viewBox="0 0 24 24"><path d="M2.029 15.077l-2.029-.567 1.49-1.43-.442-1.9 1.902.435 1.424-1.333.574 1.864 1.866.567-.972 1.047c-.21-.105-.412-.251-.61-.44l.222-.239-1.104-.335-.339-1.102-.842.788-1.125-.257.262 1.124-.785.845 1.104.335.34 1.102.211-.198c.183.178.374.341.57.488l-1.144 1.07-.573-1.864zm15.971-15.077l6 6v-6h-6zm-.291 2.537l-8.303 8.304-.012.011 3.752 3.752 8.314-8.315-3.751-3.752zm-8.518 12.742c.578-.329 1.338-.886 1.855-1.399l-.821-.826c-.252.25-.925.803-1.524 1.161l.49 1.064zm-3.478-.62c-.389-.149-.78-.399-1.16-.78l-.824.824c.504.504 1.045.85 1.607 1.057l.377-1.101zm2.203-.06c-.419.16-.872.257-1.339.238l-.388 1.131c.732.092 1.482-.024 2.214-.311l-.487-1.058zm1.548 9.401l13.536-13.594-1.4-1.412-14.962 15.006h2.826z"/></svg>