<svg xmlns="http://www.w3.org/2000/svg" width="24" height="24" viewBox="0 0 24 24"><path d="M14.496 21h-4.932l1.014 2h2.904l1.014-2zm-2.514-17.769c.618.537 1.233.883 1.753 1.176 4.556 2.564 2.344 8.886.026 13.593h-3.521c-2.219-4.559-4.545-11.242-.068-13.611.537-.284 1.174-.62 1.81-1.158zm.012-3.231c-1.244 2.489-2.988 2.359-4.38 3.7-4.023 3.872-1.173 11.401 1.398 16.3h5.977c2.57-4.899 5.443-12.269 1.318-16.238-1.407-1.353-3.079-1.297-4.313-3.762zm10.006 20.349c0 .376-.132.778-.416 1.283-.617 1.097-1.418 2.368-1.418 2.368h-1.275s.312-1.096.41-1.406c.275-.881-.217-1.31-.85-1.729-.296-.195-.91-.56-1.271-.772.244-.487.452-.955.669-1.426.989.581 2.212 1.491 2.557 1.978.088-.193.094-.276.094-.294 0-.208-1.52-2.188-2.098-2.933.227-.541.45-1.081.638-1.6l1.585 2.05c.868 1.109 1.375 1.745 1.375 2.481zm-18.625-2.483l1.585-2.05c.188.519.411 1.059.638 1.6-.578.746-2.098 2.725-2.098 2.933 0 .019.006.102.094.294.345-.487 1.567-1.396 2.557-1.978.217.472.425.939.669 1.426-.36.212-.975.578-1.271.772-.633.419-1.125.849-.85 1.729.098.312.41 1.408.41 1.408h-1.275s-.801-1.271-1.418-2.368c-.284-.505-.416-.907-.416-1.283 0-.736.507-1.372 1.375-2.483zm8.625-9.366c.827 0 1.5.673 1.5 1.5s-.673 1.5-1.5 1.5-1.5-.673-1.5-1.5.673-1.5 1.5-1.5zm0-1.5c-1.654 0-3 1.346-3 3s1.346 3 3 3 3-1.346 3-3-1.346-3-3-3z"/></svg>