<svg xmlns="http://www.w3.org/2000/svg" width="24" height="24" viewBox="0 0 24 24"><path d="M10.149 7.381c-1.482-.008-3.343.795-4.763 2.214-.541.541-1.019 1.173-1.386 1.882 1.281-.969 2.647-1.273 4.247-.375.471-1.245 1.099-2.512 1.902-3.721zm8.477 8.461c-1.313.858-2.604 1.478-3.723 1.914.897 1.6.594 2.964-.376 4.244.712-.367 1.343-.844 1.884-1.386 1.425-1.423 2.229-3.288 2.215-4.772zm5.329-13.805c-.357-.025-.707-.037-1.051-.037-7.451 0-11.692 5.678-13.235 10.245l4.095 4.094c4.702-1.685 10.236-5.767 10.236-13.136 0-.38-.015-.768-.045-1.166zm-8.565 8.579c-.339-.338-.339-.886 0-1.224.338-.338.886-.338 1.224 0 .339.338.339.886 0 1.224-.339.339-.886.339-1.224 0zm2.449-2.448c-.677-.676-.677-1.772 0-2.449s1.773-.676 2.449 0c.677.676.677 1.772 0 2.449-.676.676-1.772.676-2.449 0zm-6.089 8.723c-1.469 1.797-3.812 3.084-6.126 3.084-3.2 0-5.624-2.354-5.624-5.311 0-1.485.611-3.122 2.043-4.689-3.201 5.137 1.532 9.831 7.101 4.31l.765.765c-.91 1.061-1.84 1.8-3.149 2.461 1.344.057 3.049-.568 4.195-1.416l.795.796z"/></svg>