<svg xmlns="http://www.w3.org/2000/svg" width="24" height="24" viewBox="0 0 24 24"><path d="M7.02 19.873l.393 1.532-4.032 2.595c-.138-.545-.381-1.244-.381-1.794 0-.507.15-1.011.397-1.458l2.646-4.784c.168.712.341 1.41.527 2.147l-1.763 3.187 2.213-1.425zm3.533 4.127h2.895l.552-2h-4l.553 2zm6.447-14.844c-.035 3.267-1.166 7.176-2.347 11.844h-5.273c-1.234-4.534-2.38-8.469-2.38-11.809 0-3.703 1.511-6.688 5-9.191 3.559 2.517 5.04 5.425 5 9.156zm-7.641-2.589c.569.288 1.602.433 2.641.433 1.067 0 2.117-.157 2.674-.461-.426-1.505-1.283-2.795-2.662-3.996-1.349 1.2-2.211 2.512-2.653 4.024zm5.622 2.007c-.785.278-1.771.426-2.981.426-1.212 0-2.188-.157-2.972-.436-.165 2.798.726 6.213 1.879 10.436h2.193l.09-.348c1.067-4.152 1.897-7.386 1.791-10.078zm5.645 12.174l-2.646-4.784c-.168.712-.341 1.41-.527 2.147l1.763 3.187-2.212-1.425-.393 1.532 4.032 2.595c.137-.545.357-1.244.357-1.794 0-.508-.127-1.011-.374-1.458z"/></svg>