<svg xmlns="http://www.w3.org/2000/svg" width="24" height="24" viewBox="0 0 24 24"><path d="M14.496 21h-4.932l1.014 2h2.904l1.014-2zm1.811-17.238c-1.407-1.353-3.079-1.297-4.312-3.762-1.245 2.489-2.988 2.359-4.38 3.7-4.024 3.872-1.173 11.401 1.397 16.3h5.977c2.57-4.899 5.443-12.269 1.318-16.238zm-4.307 9.238c-1.657 0-3-1.343-3-3s1.343-3 3-3c1.656 0 3 1.343 3 3s-1.344 3-3 3zm1.5-3c0 .827-.673 1.5-1.5 1.5s-1.5-.673-1.5-1.5.673-1.5 1.5-1.5 1.5.673 1.5 1.5zm-8.801 12.594c.097.31.411 1.406.411 1.406h-1.276s-.801-1.271-1.418-2.368c-.284-.505-.416-.906-.416-1.282 0-.736.507-1.372 1.375-2.483l1.591-2.058c.487 1.358 1.105 2.788 1.854 4.284-.36.212-.975.578-1.27.773-.634.418-1.126.847-.851 1.728zm17.301-2.245c0 .376-.132.778-.416 1.283-.617 1.097-1.418 2.368-1.418 2.368h-1.275s.312-1.096.41-1.406c.275-.881-.217-1.31-.85-1.729-.296-.195-.91-.56-1.271-.772.752-1.5 1.372-2.925 1.859-4.276l1.585 2.05c.869 1.11 1.376 1.746 1.376 2.482z"/></svg>