<svg xmlns="http://www.w3.org/2000/svg" width="24" height="24" viewBox="0 0 24 24"><path d="M0 3v18h24v-18h-24zm15 2h1v5h-1v-5zm-9 0h1v5h-1v-5zm-2 3h-1v-3h1v3zm4 10h-1.354v-3.889h-1.488v-1c.893-.041 1.701-.201 1.701-1.111h1.141v6zm2-10h-1v-3h1v3zm3 0h-1v-3h1v3zm4 9.974h-3.922v-.958c1.529-1.491 2.379-2.244 2.389-3.018 0-.462-.268-.717-.754-.717-.453 0-.816.245-1.168.524l-.424-1.148c.545-.453 1.191-.657 1.833-.657 1.179 0 1.941.74 1.941 1.885 0 1.155-.899 2.042-1.722 2.782h1.827v1.307zm2-9.974h-1v-3h1v3zm3 0h-1v-3h1v3z"/></svg>