<svg xmlns="http://www.w3.org/2000/svg" width="24" height="24" viewBox="0 0 24 24"><path d="M0 18.344l5.656 5.656 18.344-18.344-5.657-5.656-18.343 18.344zm21.171-12.687l-15.514 15.515-2.829-2.829 1.04-1.009 2.122 2.122.707-.707-2.122-2.122 1.414-1.414 1.414 1.414.708-.707-1.414-1.414 1.414-1.414 1.414 1.414.707-.707-1.414-1.414 1.414-1.414 2.122 2.121.707-.707-2.121-2.121 1.414-1.414 1.414 1.414.707-.707-1.414-1.414 1.414-1.414 1.414 1.414.707-.707-1.414-1.414 1.414-1.415 2.121 2.122.707-.707-2.121-2.122 1.039-1.071 2.829 2.828zm-16.241 4.929l-4.93-4.93 5.656-5.656 4.93 4.93-2.844 2.843-.707-.708 1.414-1.414-1.076-1.076-1.398 1.399-.707-.707 1.398-1.398-1.009-1.04-2.829 2.828 3.516 3.515-1.414 1.414zm11.297 5.672l.707.707 1.414-1.414 1.046 1.046-1.415 1.413.707.707 1.415-1.413 1.071 1.039-2.829 2.828-3.515-3.515-1.414 1.414 4.93 4.93 5.656-5.657-4.93-4.929-2.843 2.844z"/></svg>