<svg xmlns="http://www.w3.org/2000/svg" width="24" height="24" viewBox="0 0 24 24"><path d="M12.698 12.065c.056.378-.207.729-.585.785-.379.055-.732-.206-.788-.583-.056-.377.207-.729.586-.784.379-.057.732.205.787.582zm5.441-1.511l-.671.526.805.072c.572 3.328-1.532 6.368-4.581 7.201l-.517-.764-.13.904c-3.417.561-6.537-1.667-7.255-4.854l.691-.441-.801-.206c-.393-3.325 1.819-6.209 4.835-6.924l.425.662.157-.772c3.287-.463 6.227 1.625 7.042 4.596zm-8.19 2.639l.207-.515c-.353-1.168.473-2.36 1.684-2.46l.385-.353-1.125-2.46-.146 2.707c-.223.115-.424.266-.597.444l-1.56-.624 1.158 1.197c-.128.258-.207.543-.228.844l-2.501 1.185 2.723.035zm3.031-.298l2.073-5.174-4.034 3.698-2.11 5.25 4.071-3.774zm3.667-1.646l-2.604-.118-.192.478c.322 1.133-.454 2.276-1.61 2.422l-.426.395 1.184 2.461.063-2.752c.246-.13.465-.304.647-.51l1.589.64-1.208-1.237c.086-.2.145-.415.171-.639l2.386-1.14zm7.353-11.249v24h-24v-24h24zm-14.764 3.837c0 .322.237.602.582.742.009-.116.033-.221.069-.314-.2-.095-.334-.253-.334-.428 0-.283.351-.522.766-.522s.766.239.766.522c0 .075-.025.147-.069.212.074.08.136.174.186.273.126-.137.201-.304.201-.485-.002-.462-.487-.837-1.085-.837-.596 0-1.082.375-1.082.837zm10.556 8.399c0-4.288-3.489-7.764-7.792-7.764-.313 0-.622.019-.925.055-.115-.303-.351-.578-.667-.507-.319.071-.402.417-.397.708-3.34.876-5.803 3.905-5.803 7.508 0 4.288 3.489 7.764 7.792 7.764s7.792-3.476 7.792-7.764z"/></svg>