<svg xmlns="http://www.w3.org/2000/svg" width="24" height="24" viewBox="0 0 24 24"><path d="M11.161 6.61l-.138.681-.375-.585c-2.661.63-4.613 3.176-4.266 6.109l.707.183-.61.389c.636 2.812 3.387 4.777 6.401 4.283l.115-.798.456.674c2.689-.734 4.547-3.417 4.042-6.354l-.71-.063.592-.464c-.719-2.621-3.313-4.464-6.214-4.055zm-3.414 6.352l2.206-1.044c.02-.266.089-.517.202-.745l-1.022-1.057 1.377.551c.152-.158.33-.291.526-.392l.129-2.39.991 2.171-.338.312c-1.068.088-1.799 1.14-1.486 2.17l-.183.455-2.402-.031zm1.485 3.098l1.861-4.632 3.56-3.263-1.83 4.565-3.591 3.33zm4.724-3.776c-.025.198-.076.388-.152.564l1.065 1.091-1.401-.565c-.161.183-.354.335-.572.451l-.056 2.428-1.044-2.171.376-.349c1.02-.128 1.705-1.138 1.421-2.137l.169-.421 2.298.104-2.104 1.005zm-1.956-12.284c-6.627 0-12 5.373-12 12s5.373 12 12 12 12-5.373 12-12-5.373-12-12-12zm-1.525 4c.526 0 .956.332.956.739 0 .159-.065.307-.177.428-.044-.087-.099-.17-.165-.241.041-.058.062-.121.062-.188 0-.25-.311-.46-.677-.46s-.676.211-.676.46c0 .154.118.294.295.378l-.061.277c-.304-.122-.512-.371-.512-.654 0-.407.427-.739.955-.739zm1.484 15c-3.797 0-6.876-3.066-6.876-6.851 0-3.179 2.175-5.852 5.121-6.624-.004-.258.069-.562.351-.625.278-.062.487.18.589.447.266-.031.539-.047.815-.047 3.797 0 6.876 3.066 6.876 6.85s-3.079 6.85-6.876 6.85zm.616-7.001c.05.333-.184.644-.519.692-.333.05-.645-.181-.692-.514-.05-.333.182-.644.516-.692.335-.05.645.18.695.514z"/></svg>