<svg xmlns="http://www.w3.org/2000/svg" width="24" height="24" viewBox="0 0 24 24"><path d="M10.615 11.885l-2.979 7.411 5.747-5.327 2.927-7.304-5.695 5.22zm1.544 2.02c-.535.078-1.032-.291-1.111-.824-.079-.533.292-1.029.827-1.107.535-.078 1.033.291 1.111.824.078.534-.292 1.029-.827 1.107zm-4.061-12.723c0-.652.686-1.182 1.528-1.182s1.528.53 1.528 1.182c0 .255-.105.491-.284.685-.07-.14-.157-.272-.261-.385.062-.092.098-.194.098-.3 0-.399-.495-.737-1.081-.737s-1.081.337-1.081.737c0 .247.189.47.472.604-.05.132-.083.281-.097.444-.488-.198-.822-.593-.822-1.048zm1.006 13.208l-3.845-.049 3.532-1.672c.029-.425.141-.828.321-1.192l-1.634-1.69 2.203.882c.244-.252.528-.465.842-.627l.206-3.822 1.587 3.473-.543.498c-1.709.141-2.875 1.824-2.377 3.473l-.292.726zm2.896-12.31c-.442 0-.877.026-1.306.077-.162-.428-.495-.815-.94-.715-.451.1-.568.587-.562.998-4.714 1.237-8.192 5.514-8.192 10.6 0 6.053 4.925 10.96 11 10.96s11-4.907 11-10.96-4.925-10.96-11-10.96zm2.389 19.594l-.729-1.079-.184 1.277c-4.824.791-9.228-2.354-10.242-6.853l.977-.623-1.133-.292c-.556-4.692 2.567-8.764 6.825-9.773l.6.935.222-1.09c4.641-.653 8.792 2.294 9.942 6.489l-.947.743 1.136.101c.807 4.697-2.163 8.99-6.467 10.165zm4.172-10.028l-3.368 1.609c-.037.317-.12.621-.242.903l1.707 1.746-2.244-.904c-.257.292-.567.537-.915.72l-.089 3.885-1.671-3.475.602-.558c1.633-.205 2.728-1.82 2.274-3.419l.271-.675 3.675.168z"/></svg>