<svg xmlns="http://www.w3.org/2000/svg" width="24" height="24" viewBox="0 0 24 24"><path d="M11.097 5.958l-.157.772-.425-.662c-3.017.715-5.229 3.599-4.835 6.924l.802.207-.692.44c.719 3.187 3.838 5.414 7.254 4.854l.131-.904.516.764c3.051-.833 5.152-3.874 4.582-7.201l-.805-.072.67-.526c-.813-2.971-3.754-5.059-7.041-4.596zm-3.871 7.2l2.501-1.185c.021-.301.101-.586.229-.844l-1.159-1.197 1.561.625c.173-.178.374-.329.597-.444l.145-2.708 1.125 2.459-.385.353c-1.211.1-2.037 1.292-1.685 2.46l-.207.515-2.722-.034zm1.683 3.51l2.109-5.25 4.033-3.698-2.072 5.174-4.07 3.774zm5.352-4.279c-.025.225-.084.439-.172.639l1.211 1.237-1.59-.64c-.184.207-.402.38-.648.51l-.063 2.752-1.184-2.461.427-.395c1.156-.146 1.932-1.289 1.609-2.422l.193-.478 2.602.118-2.385 1.14zm-1.564-.324c.056.378-.206.729-.585.785s-.731-.206-.787-.583c-.056-.377.206-.729.586-.784.379-.057.732.205.786.582zm6.303-12.065h-14c-2.761 0-5 2.239-5 5v14c0 2.761 2.239 5 5 5h14c2.762 0 5-2.239 5-5v-14c0-2.761-2.238-5-5-5zm-8.682 3c.597 0 1.083.375 1.083.837 0 .181-.075.348-.201.485-.05-.099-.111-.193-.186-.273.045-.065.069-.137.069-.212 0-.283-.351-.522-.766-.522s-.764.24-.764.522c0 .175.134.333.334.428-.035.094-.06.199-.069.315-.346-.14-.582-.42-.582-.742 0-.463.486-.838 1.082-.838zm1.682 17c-4.304 0-7.792-3.476-7.792-7.764 0-3.603 2.463-6.632 5.803-7.508-.004-.291.078-.636.397-.708.315-.071.552.204.667.507.303-.035.612-.054.925-.054 4.304 0 7.792 3.476 7.792 7.764s-3.488 7.763-7.792 7.763z"/></svg>