<svg xmlns="http://www.w3.org/2000/svg" width="24" height="24" viewBox="0 0 24 24"><path d="M17.817 7.623c.196.176.384.362.558.559l-.945.947-.27-.29-.291-.269.948-.947zm-2.155-1.268c.25.087.494.19.729.307l-.522 1.234-.423-.194-.305-.113.521-1.234zm-2.557-.355h.791v1.339l-.396-.015-.395.015v-1.339zm-1.726.34l.513 1.238-.337.125-.394.178-.511-1.238c.233-.114.479-.216.729-.303zm.582 5.549l.85-.849-1.189-1.191c.53-.377 1.178-.6 1.879-.6 1.797 0 3.25 1.456 3.25 3.251 0 1.794-1.453 3.249-3.25 3.249-1.795 0-3.25-1.455-3.25-3.249 0-.661.197-1.273.535-1.787l1.175 1.176zm-2.777-4.266l.948.948-.29.269-.27.29-.947-.948c.175-.197.362-.383.559-.559zm-1.842 6.994l1.238-.512.125.339.178.39-1.238.514c-.115-.236-.216-.48-.303-.731zm1.73 2.865l-.559-.558 1.059-1.059.27.289.29.27-1.06 1.058zm2.267 1.162c-.25-.088-.495-.19-.729-.308l.523-1.235c.135.072.276.138.422.194l.305.114-.521 1.235zm2.557.356h-.791v-1.34l.395.016.396-.016v1.34zm1.725-.341l-.512-1.24.337-.124.394-.178.512 1.238c-.235.116-.481.217-.731.304zm2.196-1.288l-.948-.947.291-.27.27-.289.945.947c-.174.198-.361.384-.558.559zm1.52-1.985l-1.235-.521.194-.42.114-.308 1.234.521c-.087.25-.19.493-.307.728zm.663-2.494h-1.34l.016-.395-.016-.394h1.34v.789zm-1.58-2.002l-.124-.338-.178-.393 1.238-.511c.114.234.216.479.304.729l-1.24.513zm-4.92-8.89c-5.287 0-9.648 3.914-10.377 9h-3.123l4 5.917 4-5.917h-2.846c.711-3.972 4.174-7 8.346-7 4.688 0 8.5 3.813 8.5 8.5s-3.812 8.5-8.5 8.5c-3.014 0-5.662-1.583-7.17-3.957l-1.201 1.775c1.916 2.536 4.949 4.182 8.371 4.182 5.797 0 10.5-4.702 10.5-10.5s-4.703-10.5-10.5-10.5z"/></svg>