<svg xmlns="http://www.w3.org/2000/svg" width="24" height="24" viewBox="0 0 24 24"><path d="M18.5 15c-2.483 0-4.5 2.015-4.5 4.5s2.017 4.5 4.5 4.5 4.5-2.015 4.5-4.5-2.017-4.5-4.5-4.5zm2.122 5.914l-.708.708-1.414-1.415-1.414 1.414-.707-.708 1.414-1.414-1.414-1.414.707-.708 1.414 1.414 1.414-1.414.708.708-1.414 1.415 1.414 1.414zm-2.622-16.914h-12v3h12v-3zm-8 2h-2v-1h2v1zm3 0h-2v-1h2v1zm-.818 15h-11.182v-21h22v14.82c-.576-.554-1.252-1.006-2-1.319v-11.501h-18v17h9.025c-.047.622-.034 1.196.157 2zm-3.182-7h-3v-2h3v2zm-3 1h3v2h-3v-2zm3-4h-3v-2h3v2zm3.502 6h-2.502v-2h3.82c-.553.576-1.006 1.251-1.318 2zm5.498-6h-3v-2h3v2zm-15 11h5v2h-5v-2zm15-10v1.025c-1.078.083-2.08.429-2.948.975h-.052v-2h3zm-8 0h4v2h-4v-2zm4-1h-4v-2h4v2z"/></svg>