<svg xmlns="http://www.w3.org/2000/svg" width="24" height="24" viewBox="0 0 24 24"><path d="M14.656 8c.121.107.237.222.344.343l-.582.583-.166-.178-.179-.166.583-.582zm-1.326-.781c.154.054.305.117.449.189l-.322.76-.26-.12-.187-.069.32-.76zm-1.573-.219h.486v.824l-.243-.009-.243.009v-.824zm-1.063.21l.315.762-.207.076-.242.11-.314-.762c.144-.07.295-.133.448-.186zm.359 3.415l.522-.522-.731-.733c.326-.233.724-.37 1.156-.37 1.105 0 2 .896 2 2s-.895 2-2 2-2-.895-2-2c0-.407.121-.784.329-1.1l.724.725zm-1.709-2.625l.583.583-.179.165-.166.178-.582-.583c.107-.121.223-.236.344-.343zm-.936 1.221l.76.32-.119.26-.07.188-.76-.32c.054-.154.117-.304.189-.448zm-.408 1.535h.824l-.009.243.009.243h-.824v-.486zm.21 1.547l.763-.315.076.208.109.24-.762.316c-.07-.144-.132-.294-.186-.449zm1.065 1.763l-.344-.343.65-.652.166.178.179.166-.651.651zm1.395.715c-.154-.054-.305-.117-.449-.189l.322-.76.26.12.188.07-.321.759zm1.573.219h-.486v-.825l.243.009.243-.009v.825zm1.062-.209l-.314-.763.207-.076.242-.11.314.762c-.144.071-.295.133-.449.187zm1.351-.793l-.583-.583.179-.166.166-.178.582.583c-.107.122-.223.237-.344.344zm.936-1.221l-.76-.321.119-.259.07-.189.76.321c-.054.153-.117.303-.189.448zm.408-1.535h-.824l.009-.243-.009-.243h.824v.486zm-.973-1.233l-.076-.208-.109-.242.762-.314c.07.144.133.295.187.449l-.764.315zm-3.027-4.009c2.757 0 5 2.243 5 5s-2.243 5-5 5-5-2.243-5-5 2.243-5 5-5zm0-1c-3.316 0-6 2.683-6 6 0 3.315 2.684 6 6 6s6-2.683 6-6c0-3.315-2.684-6-6-6zm4 17h5v2h-5v-2zm-13 0h5v2h-5v-2zm18-20v17h-18v-17h18zm2-2h-22v21h22v-21z"/></svg>