<svg xmlns="http://www.w3.org/2000/svg" width="24" height="24" viewBox="0 0 24 24"><path d="M18.5 15c-2.485 0-4.5 2.015-4.5 4.5s2.015 4.5 4.5 4.5 4.5-2.015 4.5-4.5-2.015-4.5-4.5-4.5zm-.469 6.484l-1.688-1.637.696-.697.991.94 2.116-2.169.696.696-2.811 2.867zm-9.031-10.484h-3v-2h3v2zm3.182 10h-11.182v-21h22v14.82c-.576-.554-1.252-1.006-2-1.319v-11.501h-18v17h9.025c-.047.622-.034 1.196.157 2zm-3.182-7h-3v-2h3v2zm-3 1h3v2h-3v-2zm-3 7h5v2h-5v-2zm15-18h-12v3h12v-3zm-8 2h-2v-1h2v1zm3 0h-2v-1h2v1zm-.498 11h-2.502v-2h3.82c-.553.576-1.006 1.251-1.318 2zm5.498-5v1.025c-1.078.083-2.08.429-2.948.975h-.052v-2h3zm0-1h-3v-2h3v2zm-4 0h-4v-2h4v2zm-4 1h4v2h-4v-2z"/></svg>