<svg xmlns="http://www.w3.org/2000/svg" width="24" height="24" viewBox="0 0 24 24"><path d="M3 22h5v2h-5v-2zm13 2h5v-2h-5v2zm7-24v21h-22v-21h22zm-6 10.75c0-2.899-2.352-5.25-5.25-5.25-2.645 0-4.824 1.957-5.188 4.5h-1.562l2 2.958 2-2.958h-1.424c.355-1.986 2.088-3.5 4.174-3.5 2.344 0 4.25 1.906 4.25 4.25s-1.906 4.25-4.25 4.25c-1.508 0-2.831-.792-3.586-1.979l-.6.888c.958 1.268 2.475 2.091 4.186 2.091 2.898 0 5.25-2.351 5.25-5.25zm-6.935-1.965l-.473-.473-.28.279.473.474.135-.145.145-.135zm-.145 3.792l-.135-.145-.528.529.279.279.529-.529-.145-.134zm-.63-1.024l-.62.256.152.365.619-.257-.089-.195-.062-.169zm.835-.803c0 .897.727 1.625 1.625 1.625s1.625-.727 1.625-1.625-.727-1.625-1.625-1.625c-.351 0-.675.112-.939.3l.595.595-.425.424-.588-.588c-.169.257-.268.563-.268.894zm.455-2.31l.197-.089.168-.062-.256-.619-.365.151.256.619zm1.17-.278l.197.008v-.67h-.395v.67l.198-.008zm.973.19l.211.097.262-.617-.364-.153-.262.616.153.057zm.197 4.707l-.197.089-.168.062.256.62.365-.152-.256-.619zm-1.17.279l-.197-.008v.67h.395v-.67l-.198.008zm-.973-.191l-.211-.097-.262.617.364.154.261-.617-.152-.057zm4.223-2.201v-.395h-.67l.008.197-.008.198h.67zm-.795.622l-.058.154-.097.21.617.261.154-.364-.616-.261zm.625-1.88l-.152-.365-.619.255.089.196.062.169.62-.255zm-.642-1.097l-.279-.279-.474.474.146.135.135.145.472-.475zm-.753 4.121l.474.474.279-.279-.473-.474-.135.145-.145.134z"/></svg>