<svg xmlns="http://www.w3.org/2000/svg" width="24" height="24" viewBox="0 0 24 24"><path d="M10.812 12.306c.292-.209.623-.306.948-.306.692 0 1.358.44 1.577 1.173-.28-.215-.608-.32-.939-.32-.335 0-.674.107-.969.318-.586.418-.846 1.13-.62 1.805-.912-.653-.915-2.015.003-2.67zm2.744 9.367c.729.245 3.268.379 5.882 2.327l4.562-3.188c-1.257-1.761-.91-2.771-2.159-4.521-.629-.882-1.06-1.123-1.6-1.123-.19 0-.396.03-.628.073l.44.616c.189.267-.046.547-.291.547-.097 0-.195-.043-.27-.148l-.392-.549c-.13-.183-.311-.244-.517-.244-.299 0-.653.129-.989.206l.534.748c.188.266-.047.548-.292.548-.097 0-.194-.043-.269-.148l-.462-.647c-.129-.181-.306-.243-.508-.243-.312 0-.683.147-1.028.236l.563.791c.19.267-.046.547-.291.547-.098 0-.195-.043-.27-.148l-2.287-3.203c-.201-.282-.471-.399-.736-.399-.672 0-1.322.752-.795 1.491l3.378 4.736c-.362-.134-.999-.255-1.416-.255-1.282-.002-1.777 1.406-.159 1.95zm-5.556-12.673h-3v2h3v-2zm-6 15h5v-2h-5v2zm6-12h-3v2h3v-2zm9-8h-12v3h12v-3zm-8 2h-2v-1h2v1zm3 0h-2v-1h2v1zm-7 11h3v-2h-3v2zm4.935-.805c-.397-.284-.71-.656-.935-1.076v1.881h2.059l-1.124-.805zm1.129 4.078c.081-.497.332-.93.685-1.273h-9.749v-17h18v11.683l.241-.015c.725 0 1.292.246 1.759.601v-14.269h-22v21h11.068c-.042-.253-.041-.5-.004-.727zm5.936-11.273h-3v2h3v-2zm-8 0v2h1.08c.506-.323 1.08-.5 1.68-.5.44 0 .856.098 1.24.261v-1.761h-4zm8 3h-2.566c.141.229.261.475.341.744l.368 1.256h1.857v-2z"/></svg>