<svg xmlns="http://www.w3.org/2000/svg" width="24" height="24" viewBox="0 0 24 24"><path d="M13 2v9h1.172l-2.172 2.171-2.172-2.171h1.172v-9h2zm2-2h-6v9h-4l7 7 7-7h-4v-9zm3.213 1.754l-1.213 1.599c2.984 1.732 5 4.955 5 8.647 0 5.514-4.486 10-10 10s-10-4.486-10-10c0-3.692 2.016-6.915 5-8.647l-1.213-1.599c-3.465 2.103-5.787 5.897-5.787 10.246 0 6.627 5.373 12 12 12s12-5.373 12-12c0-4.349-2.322-8.143-5.787-10.246zm-9.213 15.246c-.553 0-1 .447-1 1s.447 1 1 1 1-.447 1-1-.447-1-1-1zm3 0c-.553 0-1 .447-1 1s.447 1 1 1 1-.447 1-1-.447-1-1-1zm3 0c-.553 0-1 .447-1 1s.447 1 1 1 1-.447 1-1-.447-1-1-1z"/></svg>