<svg xmlns="http://www.w3.org/2000/svg" width="24" height="24" viewBox="0 0 24 24"><path d="M23.984 11h-2.006c-.057-.557-.143-1.104-.287-1.631l1.82-.862c.245.799.401 1.632.473 2.493zm-3.035-3.493l1.81-.857c-.353-.7-.758-1.368-1.236-1.981l-1.512 1.318c.36.474.667.986.938 1.52zm.039 8.939c-.26.519-.562 1.01-.904 1.473l1.539 1.29c.465-.616.871-1.276 1.211-1.976l-1.846-.787zm-.836-13.238c-.589-.54-1.214-1.038-1.9-1.454l-1.216 1.599c.577.334 1.104.739 1.602 1.177l1.514-1.322zm-1.414 16.195c-1.779 1.608-4.129 2.597-6.713 2.597-5.525 0-10.021-4.486-10.021-10 0-3.692 2.021-6.915 5.011-8.647l-1.215-1.599c-3.473 2.103-5.8 5.897-5.8 10.246 0 6.627 5.385 12 12.025 12 3.204 0 6.107-1.259 8.264-3.297l-1.551-1.3zm3.258-6.403c-.054.54-.162 1.063-.299 1.574l1.864.795c.224-.762.372-1.553.439-2.369h-2.004zm-9.996 5l7-8h-4v-10h-6v10h-4l7 8z"/></svg>