<svg width="24" height="24" xmlns="http://www.w3.org/2000/svg" fill-rule="evenodd" clip-rule="evenodd"><path d="M17 3c0-1.104-.896-2-2-2h-7c-1.104 0-2 .896-2 2v7c0 1.104.896 2 2 2h7c1.104 0 2-.896 2-2v-7zm6 12c0-1.104-.896-2-2-2h-7c-1.104 0-2 .896-2 2v7c0 1.104.896 2 2 2h7c1.104 0 2-.896 2-2v-7zm-4.632 4.201c-.044.486-.156.777-.649.841-1.056.138-1.102-.754-1.078-1.83.033-.83.272-1.358 1.088-1.251.501.066.601.37.646.867h1.168l.009-.011c-.132-1.255-.862-1.829-1.916-1.865-1.242-.047-2.22.729-2.186 2.754.021 1.346.717 2.344 2.068 2.344 1.097.004 1.895-.534 2.026-1.841l-.008-.008h-1.168zm-4.52-10.201l.026-.037-1.858-4.963h-1.052l-1.847 4.963.026.037h1.222l.33-.99h1.597l.334.99h1.222zm-1.888-1.985h-.933l.464-1.399.469 1.399zm-.96 7.985c0-1.104-.896-2-2-2h-7c-1.104 0-2 .896-2 2v7c0 1.104.896 2 2 2h7c1.104 0 2-.896 2-2v-7zm-5.416 6c1.008-.022 1.756-.413 1.796-1.419.024-.592-.245-.984-.643-1.164.349-.223.556-.586.534-1.085-.044-.959-.811-1.292-1.763-1.328-.63-.008-1.26-.002-1.89-.002v4.998h1.966zm-.783-2.092v1.104l.792-.001c.405-.019.631-.208.603-.603-.021-.338-.206-.478-.546-.499l-.849-.001m0-1.91v1.017l.678-.001c.422-.023.657-.177.605-.604-.028-.224-.132-.395-.639-.412h-.644"/></svg>