<svg width="24" height="24" xmlns="http://www.w3.org/2000/svg" fill-rule="evenodd" clip-rule="evenodd"><path d="M17.151 9.538c1.312.051 2.319 1.104 2.338 2.454v1.126c.384.078 1.766.36 2.139.447 1.624.417 2.367 1.687 2.361 3.328-.011 1.611-.695 2.408-1.132 3.408-.258.612-.351 1.111-.367 1.775l-.001 1.924h-6.721c.004-.762-.085-1.745-.405-2.437-.429-.933-1.375-1.749-2.46-2.916-.805-.917-.904-2.016-.439-2.87.399-.733 1.174-1.206 2.225-1.125 0-.906-.011-1.812 0-2.717.07-1.477 1.194-2.412 2.462-2.397m3.438 12.462c.027-1.638.536-2.556.946-3.338.322-.614.553-1.056.553-1.772 0-.815-.26-1.146-.583-1.307-.236-.117-.508.065-.508.34v.483c0 .166-.128.301-.285.301-.159 0-.287-.135-.287-.301v-.81c0-.214-.142-.396-.339-.437-.261-.055-.505.157-.505.437v.438c0 .167-.128.302-.285.302-.159 0-.287-.135-.287-.302v-.672c0-.214-.143-.398-.341-.44-.263-.055-.508.158-.508.44v.303c0 .167-.128.302-.284.302-.16 0-.288-.135-.288-.302v-3.668c0-.273-.228-.504-.499-.504s-.5.231-.5.504v6.297c-.532-.697-1.43-1.695-2.061-1.691-.417.001-.565.362-.221.725 1.313 1.388 2.855 2.656 3.218 4.672h3.064zm3.411-9.362c-.139-.109-.285-.21-.435-.304-.483-.298-1.014-.502-1.565-.633v-9.594c-5.17.39-7.547 1.472-9 2.332v8.561c-.86.289-1.532.852-2 1.533v-10.091c-1.474-.871-3.843-1.946-9-2.335v13.704c3.724.255 6.622 1.013 8.318 1.566.041.35.125.696.248 1.026.216.583.552 1.107.971 1.564-.298-.043-.591-.129-.87-.257-2.872-1.315-6.73-1.875-10.667-1.995v-17.715c4.584.141 9.062.877 12 2.707 2.938-1.83 7.416-2.566 12-2.707v12.638zm-20 1.093c2.086.312 4.451 1.024 6 1.674v-1.065c-1.668-.622-3.881-1.314-6-1.626v1.017zm0-2.031c2.086.312 4.451 1.023 6 1.673v-1.064c-1.668-.622-3.881-1.316-6-1.625v1.016zm0-2.031c2.086.311 4.451 1.023 6 1.673v-1.064c-1.668-.622-3.881-1.316-6-1.626v1.017zm0-2.031c2.086.311 4.451 1.024 6 1.672v-1.064c-1.668-.622-3.881-1.314-6-1.625v1.017zm16-1.017c-2.12.311-4.332 1.003-6 1.625v1.064c1.548-.648 3.914-1.361 6-1.672v-1.017zm-16-2.041c2.119.309 4.332 1.003 6 1.625v1.064c-1.549-.649-3.914-1.361-6-1.673v-1.016zm16 1.016c-2.086.312-4.452 1.024-6 1.673v-1.064c1.668-.622 3.88-1.316 6-1.625v1.016z"/></svg>