<svg width="24" height="24" xmlns="http://www.w3.org/2000/svg" fill-rule="evenodd" clip-rule="evenodd"><path d="M3.405 14.899c1.974 2.021 4.28 3.15 7.095 3.15 5.243 0 9.5-4.256 9.5-9.5 0-3.04-1.25-5.209-3.198-7.14l1.409-1.409c2.306 2.098 3.779 5.119 3.789 8.48.016 5.844-4.357 10.689-10 11.44v.08c0 1.875 1.526 3 3 3h1v1h-11v-1h1c1.499 0 3-1.151 3-3v-.071c-2.755-.351-5.208-1.679-7-3.626l1.405-1.404zm-1.405-6.299c0-4.695 3.805-8.5 8.5-8.5 4.688 0 8.5 3.799 8.5 8.5 0 4.695-3.806 8.499-8.5 8.499-4.695 0-8.5-3.806-8.5-8.499m8.883-7.064c-.163.005-.278.187-.404.291-.252.209-.897.619-1.257.494-.368-.126-1.155.468-1.281.473-.047.001.002-.45.253-.483-.109.016.883-.501.856-.609-.032-.128-1.982.582-1.895.725.041.065.211.065-.012.208-.127.077-.264.567-.384.567-.357.156-.38-.307-.777.29l-.634.256c-.94.998-1.591 2.264-1.827 3.67-.009.057.237.16.268.199.08.095.08.505.119.638.098.339.339.527.524.835.109.184.29.648.233.84.077-.126.759.578.883.724.293.346.52.763.043 1.104-.154.111.233.8.034.97l-.257.065c-.252.155-.138.536.016.696 1.288 1.347 3.103 2.186 5.114 2.186 3.907 0 7.075-3.168 7.075-7.075 0-.734-.125-1.474-.253-1.864-.04-.123-.134-.222-.254-.268-.182-.07-.948.422-1.063.18l-.405.005c-.085-.046-.321-.364-.429-.326-.219.08.336.683.487.763.142-.108.603-.329.703-.027.19.569-.522 1.193-.886 1.523-.544.491-.443-.319-.813-.604-.195-.149-.193-.468-.389-.578-.084-.047-.452-.468-.486-.564l-.002-.012.002.012-.013.105c-.067.052-.208-.189-.224-.227 0 .209.341.542.453.709.191.287.294.705.529.94.126.126.609.647.734.636l.645-.307c.456.108-1.073 2.271-1.218 2.538-.12.226.096.78.08 1.046-.021.306-.262.406-.491.572-.246.18-.188.528-.394.655-.366.226-.63.959-1.149.955-.154 0-.808.255-.894.005-.066-.181-.156-.319-.25-.498-.091-.175-.01-.357-.122-.512-.078-.108-.336-.352-.359-.48-.002-.109.083-.443.198-.502.163-.082.031-.324.011-.464-.034-.251-.189-.458-.376-.603-.275-.212-.132-.38-.068-.683 0-.144-.088-.333-.283-.277-.399.117-.277-.312-.568-.292-.21.014-.382.148-.577.206-.245.074-.496-.057-.738-.088-.997-.126-1.322-1.265-1.062-2.087l-.034-.488c.112-.25.341-.529.54-.718.112-.107.255-.08.387-.162.204-.128.207-.392.405-.553.284-.231.67-.226 1.041-.275.196-.027.946-.189 1.064-.043 0 .027.128.408-.002.407l-.012-.001.012.001c.306.027.736.528 1.023.409.15-.062.095-.522.403-.299.184.133 1.016.192 1.189.049.107-.088.167-.659.036-.723.082.082-.431.088-.48.069-.081-.03-.156.071-.282.026l-.013-.005c.039.015-.452-.262-.16-.475l-.382.076-.09.193c-.214.11-.376-.371-.456-.425-.082-.054-.718-.5-.545-.209l.559.556c-.028.018-.147-.202-.147-.041.037-.095.013.41-.074.245l.004-.189c0-.061-.161-.119-.193-.16-.088-.11-.324-.352-.451-.41-.035-.017-.541.061-.584.078l-.127.22c-.105.039-.203.089-.296.151l-.111.25c-.049.043-.542.206-.545.212.021-.053-.345-.121-.321-.227.027-.117.151-.482.119-.615-.034-.14.761.201.813-.167.02-.159.031-.345-.223-.372.048.006.492-.174.566-.255.103-.119.341-.314.513-.314.201 0 .157-.292.25-.436.093.038-.05.267.062.36-.008-.073.315.039.346.023.075-.04.485-.016.421-.21-.071-.196.036-.138.129-.179-.016.006.24-.438.284-.292-.03-.15-.298.052-.391.045-.216-.018-.125-.368-.043-.472.063-.081-.172-.18-.175-.025-.004.233-.221.444-.171.754.077.467-.521-.112-.573-.081-.198.12-.36-.151-.258-.315l.462-.337c.074-.126.159-.272.273-.368.379-.318.483-.063.861-.029.369.034.124.088.074.23-.049.135.203.183.29.07.049-.065.163-.229.211-.35.063-.157.638-.139.237-.38-.265-.157-1.42-.476-2.194-.476l-.007.001zm.427 4.351c-.025-.047.242-.071.289-.071.053.006-.137.319-.289.071m1.803-1.092c-.003-.104-.134-.201-.27-.022-.095.124-.078.312-.129.395-.075.124.401.24.401.123.018-.197.519-.045.617-.018.175.048.455-.16.149-.27-.253-.092-.385-.189-.407-.37 0 0 .134-.124.075-.117-.155.018-.436.556-.436.279m-3.327-1.084l.077-.021-.037.096c.061.11.016.175.006.235l-.105.065c-.038.047.182.054.185.06.008.024-.266.063-.215.121.067.097.583-.138.501-.124.159-.08.021-.089-.068-.135-.031-.152-.056-.387-.151-.482l.062-.071c-.146-.212-.255.256-.255.256m-.365.386c-.06.025-.12-.013-.061-.073l.062-.075-.006-.034.049-.062.051-.013.105-.073c.031.006.104.066.079.104l-.057.07c-.012.118-.132.117-.22.156h-.004.002"/></svg>