<svg width="24" height="24" xmlns="http://www.w3.org/2000/svg" fill-rule="evenodd" clip-rule="evenodd"><path d="M10.523 18.05c5.243 0 9.5-4.257 9.5-9.5 0-3.023-1.254-5.182-3.189-7.149l1.399-1.401c2.306 2.098 3.757 5.12 3.767 8.48.017 5.844-4.335 10.689-9.977 11.441v.079c0 1.875 1.525 3 3 3h1v1h-11v-1h1c1.499 0 3-1.15 3-3v-.07c-2.755-.352-5.231-1.68-7.023-3.626l1.434-1.411c1.941 1.981 4.185 3.157 7.089 3.157m-8.5-9.5c0-4.694 3.806-8.5 8.5-8.5 4.688 0 8.5 3.802 8.5 8.5 0 4.695-3.806 8.5-8.5 8.5-4.693 0-8.5-3.805-8.5-8.5m11.819-1.777c.032.097.404.523.488.57.199.111.197.432.394.583.375.289.271 1.106.821.609.367-.332 1.086-.963.895-1.538-.101-.304-.566-.081-.709.028-.154-.08-.713-.69-.493-.77.109-.039.348.281.433.33l.41-.006c.116.245.89-.253 1.073-.182l.146.098c-.614-2.021-2.108-3.662-4.034-4.475.036.118-.323.135-.373.259-.048.123-.162.288-.213.354-.088.114-.342.066-.293-.071.052-.143.299-.198-.074-.232-.382-.034-.487-.292-.871.03-.114.096-.2.245-.274.371l-.467.34c-.104.166.06.44.26.318.053-.031.656.554.579.082-.05-.313.168-.526.172-.761.003-.158.241-.056.177.026-.082.104-.175.458.044.476.083.006.291-.137.364-.074-.081-.001-.271.329-.257.324-.093.041-.2-.018-.129.18.064.195-.351.172-.426.212-.03.017-.357-.097-.349-.023-.113-.094.031-.325-.063-.364-.093.145-.05.441-.253.441-.173 0-.413.196-.517.316-.075.082-.523.264-.572.258.257.027.245.215.225.376-.053.372-.854.027-.821.168.032.135-.092.503-.12.621-.025.108.345.177.324.23.002-.006.501-.171.55-.214l.113-.252c.094-.063.193-.114.299-.153l.129-.223c.043-.017.553-.095.589-.078.128.059.366.303.455.413.032.042.195.102.195.162l-.003.192c.088.166.111-.345.074-.249 0-.163.119.06.148.043l-.565-.562c-.175-.295.467.156.552.211.08.055.243.54.459.43l.092-.196.386-.077c-.294.214.195.493.163.48l-.008-.003.008.003c.132.057.212-.052.297-.021.047.019.568.013.485-.07.13.065.07.641-.037.731-.175.145-1.014.085-1.201-.051-.311-.223-.256.24-.407.303-.291.12-.725-.386-1.034-.413l-.011-.001.011.001c.132.001.002-.384.002-.411-.119-.147-.876.016-1.075.043-.373.05-.763.045-1.05.277-.202.164-.204.43-.41.559-.132.084-.277.056-.391.164-.201.19-.432.473-.545.725-.047.105.061.357.035.493-.263.83.066 1.981 1.072 2.108.245.031.499.163.745.089.198-.059.371-.193.583-.208.294-.02.171.413.575.295.195-.057.284.134.284.28-.064.306-.208.476.07.69.188.147.345.356.379.608.02.142.153.386-.011.47-.117.059-.202.396-.201.506.024.129.285.375.363.484.114.157.032.341.124.518.095.181.186.32.252.503.087.253.748-.005.903-.005.525.004.791-.735 1.159-.964.208-.128.151-.48.399-.661.23-.169.475-.27.496-.579.018-.268-.202-.828-.081-1.055.146-.271 1.691-2.455 1.231-2.564l-.653.31c-.126.011-.613-.516-.74-.643-.237-.237-.341-.659-.534-.949-.115-.169-.457-.505-.457-.716.015.039.159.281.225.23l.015-.107-.003-.012.003.012m-10.402 1.777c0-.383.039-.756.098-1.123l.207.13c.08.097.08.51.12.645.098.342.343.533.53.843.109.186.293.655.235.849.077-.127.766.583.892.731.295.349.523.771.042 1.115-.154.112.236.808.035.979l-.259.066c-.159.098-.166.283-.117.448-1.106-1.25-1.783-2.887-1.783-4.683m10.162-4.125c.058-.006-.076.119-.076.119.024.182.157.281.412.373.308.112.027.322-.151.273-.098-.027-.605-.181-.623.018 0 .118-.481 0-.406-.124.052-.084.035-.275.132-.399.136-.181.268-.082.273.023 0 .279.282-.264.439-.283m-3.86-.434l.107-.066c.009-.06.055-.126-.006-.237l.036-.097-.077.022s.11-.473.258-.259l-.063.072c.095.096.122.333.152.487.09.047.229.055.069.136.083-.014-.438.223-.506.126-.051-.059.225-.099.217-.123-.002-.007-.225-.013-.187-.061m-.314-.172l.049-.063.051-.013.107-.074c.031.006.105.067.08.105l-.058.071c-.012.12-.133.118-.222.157-.061.026-.124-.013-.064-.073l.063-.076-.006-.034m-2.276-1.497c.05.058.197.065-.019.204-.129.078-.267.573-.388.573-.361.158-.384-.311-.786.292-.055.082-.28.113-.456.168.485-.488 1.04-.905 1.649-1.237m3.602-.843l-.252.231c-.255.211-.907.625-1.271.499-.37-.127-1.165.473-1.292.477-.048.002.001-.454.254-.488-.099.015.704-.407.84-.57.481-.104.979-.161 1.49-.161l.231.012"/></svg>