<svg width="24" height="24" xmlns="http://www.w3.org/2000/svg" fill-rule="evenodd" clip-rule="evenodd"><path d="M16.112 20.985h-8.217c-1.912-.062 8.217 0 8.217 0m-7.029-18.69c.29-1.242 1.408-2.275 2.904-2.295 1.454 0 2.631 1.002 2.934 2.308 2.108.516 4.063 1.824 4.722 4.939.28 1.321.539 2.995.754 4.756.8.043 1.873.262 2.107 1.585.317 1.793.496 4.021.496 5.325 0 1.646-1.128 2.053-2.001 2.122-.048 1.708-.737 2.902-2.999 2.948-1.632.033-3.812.008-5.996 0-2.185.008-4.364.033-5.996 0-2.263-.046-2.951-1.24-3-2.948-.873-.067-2.008-.471-2.008-2.121 0-1.307.18-3.54.496-5.326.234-1.327 1.314-1.544 2.114-1.585.213-1.768.466-3.439.733-4.735.649-3.154 2.59-4.465 4.74-4.973m9.917 15.693c-.012 2.008-.987 2.939-2.888 2.997-2.739.026-5.478.028-8.217 0-1.912-.062-2.882-1.188-2.895-2.997v-3.997h14v3.997zm-8-2.998v2.998c0 .553.449.999 1 .999.552 0 1-.447 1-.999v-2.998h5v2.995c0 1.438-.547 1.963-1.908 2-2.725.026-5.451.028-8.176 0-1.21-.035-1.862-.57-1.916-1.889-.024-1.035 0-2.071 0-3.106h5zm.459-9.71c-1.876.104-2.858.83-3.466 2.298-.489 1.182-.648 2.649-.729 3.915-.061.623-.953.625-.999-.019.014-.657.163-2.022.401-3.012.435-1.81 1.27-3.278 3.055-3.879 1.25-.422 3.247-.414 4.462-.037 1.92.592 2.786 2.167 3.21 4.132.2.93.323 2.155.336 2.826-.049.612-.886.648-.994.055-.101-1-.091-1.99-.485-3.325-.607-2.063-1.718-2.86-3.775-2.959l.692 2.385c.166.746-.405 1.454-1.167 1.454-.749 0-1.321-.685-1.172-1.429l.631-2.405zm.541 2.043c.33 0 .597.267.597.597 0 .329-.267.597-.597.597-.33 0-.597-.268-.597-.597 0-.33.267-.597.597-.597m1.791-5.221c-.33-.654-.994-1.102-1.797-1.102-.822.011-1.462.465-1.781 1.096 1.067-.128 2.46-.135 3.578.006"/></svg>