<svg width="24" height="24" xmlns="http://www.w3.org/2000/svg" fill-rule="evenodd" clip-rule="evenodd"><path d="M7.902 14c-1.722-1.39-2.902-3.968-2.902-6.037 0-3.094 2.158-4.89 4.187-4.961.841-.013 1.729.199 2.394.57-.175-1.278-.747-2.259-1.344-2.958l1.367-.614c.283.407.572 1.129.761 1.979.383-.695.848-1.262 1.475-1.628.669-.391 1.778-.412 2.518-.272-.187.658-.577 1.513-1.491 2.075-.562.345-1.467.522-2.384.453.042.283.073.574.087.867.682-.364 1.44-.484 2.243-.472 2.029.071 4.187 1.867 4.187 4.961 0 2.069-1.18 4.647-2.902 6.037h6.902v2h-19.5c-.276 0-.5.224-.5.5s.224.5.5.5h19.5v2h-18.5c-.828 0-1.5.672-1.5 1.5s.672 1.5 1.5 1.5h18.5v2h-18.5c-1.932 0-3.5-1.568-3.5-3.5 0-.83.29-1.593.773-2.193-.476-.455-.773-1.097-.773-1.807 0-1.38 1.12-2.5 2.5-2.5h4.402zm15.098 7h-18v-1h18v1zm-12.624-15.6c-1.643 1.229-2.035 3.45-.42 6.6-.755-.402-2.37-2.047-2.352-3.945.016-1.676 1.413-2.73 2.772-2.655z"/></svg>