<svg width="24" height="24" xmlns="http://www.w3.org/2000/svg" fill-rule="evenodd" clip-rule="evenodd"><path d="M15 1c1.104 0 2 .896 2 2v7c0 1.104-.896 2-2 2h-7c-1.104 0-2-.896-2-2v-7c0-1.104.896-2 2-2h7zm6 12c1.104 0 2 .896 2 2v7c0 1.104-.896 2-2 2h-7c-1.104 0-2-.896-2-2v-7c0-1.104.896-2 2-2h7zm-6.5-10h-6c-.276 0-.5.224-.5.5v6c0 .276.224.5.5.5h6c.276 0 .5-.224.5-.5v-6c0-.276-.224-.5-.5-.5zm6 12h-6c-.276 0-.5.224-.5.5v6c0 .276.224.5.5.5h6c.276 0 .5-.224.5-.5v-6c0-.276-.224-.5-.5-.5zm-.964 4.201l.008.008c-.131 1.307-.929 1.845-2.026 1.841-1.351 0-2.047-.998-2.068-2.344-.034-2.025.944-2.801 2.186-2.754 1.054.036 1.784.61 1.916 1.865l-.009.011h-1.168c-.045-.497-.145-.801-.646-.867-.816-.107-1.055.421-1.088 1.251-.024 1.076.022 1.968 1.078 1.83.493-.064.605-.355.649-.841h1.168zm-7.52-15.201l1.858 4.963-.026.037h-1.222l-.334-.99h-1.597l-.33.99h-1.222l-.026-.037 1.847-4.963h1.052zm-.056 3.015l-.469-1.399-.464 1.399h.933zm-2.96 5.985c1.104 0 2 .896 2 2v7c0 1.104-.896 2-2 2h-7c-1.104 0-2-.896-2-2v-7c0-1.104.896-2 2-2h7zm-.5 2h-6c-.276 0-.5.224-.5.5v6c0 .276.224.5.5.5h6c.276 0 .5-.224.5-.5v-6c0-.276-.224-.5-.5-.5zm-2.916 6c1.008-.022 1.756-.413 1.796-1.419.024-.592-.245-.984-.643-1.164.349-.223.556-.586.534-1.085-.044-.959-.811-1.292-1.763-1.328-.63-.008-1.26-.002-1.89-.002v4.998h1.966zm-.783-2.092v1.104l.792-.001c.405-.019.631-.208.603-.603-.021-.338-.206-.478-.546-.499l-.849-.001zm0-1.91v1.017l.678-.001c.422-.023.657-.177.605-.604-.028-.224-.132-.395-.639-.412h-.644z"/></svg>