<svg xmlns="http://www.w3.org/2000/svg" width="24" height="24" viewBox="0 0 24 24"><path d="M5.485 3.567l6.488-3.279c.448-.199.904-.288 1.344-.288 1.863 0 3.477 1.629 3.287 3.616l-7.881 4.496c.118-2.088-1.173-4.035-3.238-4.545zm16.515 10.912c0 1.08-.523 2.185-1.502 2.827-.164.107.84-.506-7.997 5.065.02-.91-.293-1.836-1.061-2.71-1.422-1.623-8.513-9.85-8.531-9.873-.646-.812-.909-1.571-.909-2.225 0-2.167 2.891-3.172 4.274-1.129.799 1.18.528 3.042-.632 3.799l1.083 1.354 8.855-5.069c1.213 1.478 4.834 4.909 5.762 6.045.444.544.658 1.225.658 1.916zm-12.614-.25l6.883-4.062-.718-.737-6.83 4.031.665.768zm8.536-2.359l-.717-.738-6.951 4.101.665.768 7.003-4.131zm1.64 1.689l-.716-.737-7.07 4.171.665.769 7.121-4.203zm-11.782 4.941c-2.148 1.09-2.38 3.252-1.222 4.598.545.632 1.265.902 1.943.902 1.476 0 2.821-1.337 1.567-2.877-1.3-1.599-2.288-2.623-2.288-2.623z"/></svg>