<svg xmlns="http://www.w3.org/2000/svg" width="24" height="24" viewBox="0 0 24 24"><path d="M5.485 3.567l6.488-3.279c.448-.199.904-.288 1.344-.288 1.863 0 3.477 1.629 3.287 3.616l-7.881 4.496c.118-2.088-1.173-4.035-3.238-4.545zm15.857 8.996c-.928-1.137-4.549-4.567-5.762-6.045l-8.855 5.069-1.083-1.354c1.16-.757 1.431-2.619.632-3.799-1.383-2.042-4.274-1.037-4.274 1.129 0 .653.263 1.412.909 2.225.018.023 7.109 8.25 8.531 9.873.768.874 1.081 1.8 1.061 2.71 8.836-5.572 7.833-4.958 7.996-5.065.98-.643 1.503-1.747 1.503-2.827 0-.691-.214-1.372-.658-1.916zm-13.562 5.937c-2.148 1.09-2.38 3.252-1.222 4.598.545.632 1.265.902 1.943.902 1.476 0 2.821-1.337 1.567-2.877-1.3-1.599-2.288-2.623-2.288-2.623z"/></svg>