<svg xmlns="http://www.w3.org/2000/svg" width="24" height="24" viewBox="0 0 24 24"><path d="M24 11.614l-8.51-11.614-15.49 5.364 3.022 10.097s4.582 1.208 4.698 1.229c.969.2 1.934.908 2.95 1.622l-1.748 5.688h2.078l1.422-4.583c.705.364 1.443.618 2.233.618 3.091 0 4.291-2.764 3.637-5.05l5.708-3.371zm-16.056 3.06l-3.318-.862-2.087-7.176 12.221-4.203 6.394 8.578-3.841 2.23c-.721-.744-1.774-1.241-3.162-1.241h-.002c-1.812.033-2.88.882-3.739 1.564-.762.605-1.38 1.077-2.466 1.11zm6.299-.674c.497 0 .899.122 1.226.312l-3.817 2.217-1.002-.661c1.338-.847 1.906-1.84 3.593-1.868zm.479 4.03c-.401 0-.739-.092-1.156-.301l2.897-1.682c.028.997-.585 1.983-1.741 1.983z"/></svg>