<svg xmlns="http://www.w3.org/2000/svg" width="24" height="24" viewBox="0 0 24 24"><path d="M24 8c0-4.486-5.271-8-12-8s-12 3.514-12 8c0 3.723 3.639 6.761 8.721 7.691.836.172 1.716.756 2.575 1.359-1.476 1.721-2.296 3.915-2.296 6.95h2c0-2.572.678-4.392 1.973-5.828.837.496 1.717.863 2.683.863 2.429 0 4.336-2.309 3.763-4.714 2.802-1.451 4.581-3.72 4.581-6.321zm-12.351 6.868c1.339-.847 1.906-1.839 3.594-1.868.568 0 1.011.152 1.353.384-1.464.672-2.753 1.399-3.829 2.253-.35-.248-.769-.542-1.118-.769zm2.95 1.897c.829-.578 1.797-1.098 2.897-1.597-.019 1.315-1.239 2.332-2.897 1.597zm3.944-4.272c-.719-.866-1.843-1.493-3.392-1.493h-.002c-1.812.033-2.88.882-3.739 1.564-.773.614-1.394 1.096-2.511 1.116-3.956-.804-6.899-3.075-6.899-5.68 0-3.252 4.58-6 10-6 5.421 0 10 2.748 10 6 0 1.767-1.354 3.383-3.457 4.493z"/></svg>