<svg xmlns="http://www.w3.org/2000/svg" width="24" height="24" viewBox="0 0 24 24"><path d="M15.062 15.833c-1.581-.449-4.312-1.206-4.312-1.206l-.556 2.027 4.278 1.196c3.112.87 1.329 5.183-1.477 3.738-2.231-1.149-3.94-2.049-3.94-2.049l-.978 1.86s2.512 1.312 3.971 2.066c.722.372 1.408.535 2.044.535.512 0 .989-.106 1.425-.295 2.054-.891 3.137-3.622 2.247-5.676-.423-.971-1.288-1.793-2.702-2.196zm-3.911-.498l1.113.307-.25.917-1.117-.306.254-.918zm-2.297 5.822l.441-.842 1.023.539-.443.841-1.021-.538zm15.146-7.59l-4.633 3.272c-.324-.589-.749-1.112-1.265-1.554l3.151-2.258-6.543-10.646-12.264 4.276 2.202 8.592 3.506 1.185-.732 1.863-4.443-1.505-2.979-11.418 15.571-5.374 8.429 13.567z"/></svg>