<svg xmlns="http://www.w3.org/2000/svg" width="24" height="24" viewBox="0 0 24 24"><path d="M24 9h-24v6h24v-6zm-22 4l.863-2h1.275l-.863 2h-1.275zm2.066 0l.863-2h1.275l-.863 2h-1.275zm2.067 0l.863-2h1.275l-.864 2h-1.274zm2.066 0l.863-2h1.274l-.863 2h-1.274zm3.341 0h-1.274l.863-2h1.275l-.864 2zm9.46 0c-.552 0-1-.448-1-1s.448-1 1-1c.553 0 1 .448 1 1s-.447 1-1 1zm3 4h-24v6h24v-6zm-22 4l.863-2h1.275l-.863 2h-1.275zm2.066 0l.863-2h1.275l-.863 2h-1.275zm2.067 0l.863-2h1.275l-.864 2h-1.274zm2.066 0l.863-2h1.274l-.863 2h-1.274zm3.341 0h-1.274l.863-2h1.275l-.864 2zm9.46 0c-.552 0-1-.448-1-1s.448-1 1-1c.553 0 1 .448 1 1s-.447 1-1 1zm1-14h-20l4-6h12l4 6z"/></svg>