<svg xmlns="http://www.w3.org/2000/svg" width="24" height="24" viewBox="0 0 24 24"><path d="M19.5 15c-2.483 0-4.5 2.015-4.5 4.5s2.017 4.5 4.5 4.5 4.5-2.015 4.5-4.5-2.017-4.5-4.5-4.5zm-.875 7l.623-2h-1.248l2.291-3-.79 2h1.415l-2.291 3zm1.375-16h-18l4-6h10l4 6zm-.5 7c.886 0 1.73.179 2.5.501v-5.501h-22v7h14.82c1.184-1.23 2.843-2 4.68-2zm-17.5 0l.863-3h1.275l-.863 3h-1.275zm2.066 0l.863-3h1.275l-.863 3h-1.275zm2.067 0l.863-3h1.275l-.864 3h-1.274zm2.066 0l.863-3h1.274l-.863 3h-1.274zm4.801 6.5c0-.886.179-1.73.501-2.5h-13.501v7h14.82c-1.124-1.169-1.82-2.753-1.82-4.5zm-11 2.5l.863-3h1.275l-.863 3h-1.275zm2.066 0l.863-3h1.275l-.863 3h-1.275zm2.067 0l.863-3h1.275l-.864 3h-1.274zm3.341 0h-1.275l.863-3h1.274l-.862 3z"/></svg>