<svg xmlns="http://www.w3.org/2000/svg" width="24" height="24" viewBox="0 0 24 24"><path d="M23 17h-22v7h22v-7zm-20 5l.863-3h1.275l-.863 3h-1.275zm2.066 0l.863-3h1.275l-.863 3h-1.275zm2.067 0l.863-3h1.275l-.864 3h-1.274zm2.066 0l.863-3h1.274l-.863 3h-1.274zm3.341 0h-1.274l.863-3h1.275l-.864 3zm7.46-.5c-.552 0-1-.448-1-1s.448-1 1-1c.553 0 1 .448 1 1s-.447 1-1 1zm1-19.5v11h-18v-11h18zm2-2h-22v15h22v-15zm-13 7.5l-2.563-2.5-.771.751 1.794 1.749-1.794 1.749.771.751 2.563-2.5zm7 1.5h-5v1h5v-1z"/></svg>