<svg width="24" height="24" xmlns="http://www.w3.org/2000/svg" xmlns:serif="http://www.serif.com/" fill-rule="evenodd" clip-rule="evenodd"><path serif:id="shape 14" d="M7.611 0c-2.753 0-4.516.054-6.038 1.575-1.633 1.633-1.573 3.544-1.573 6.681v7.49c0 3.136-.061 5.044 1.573 6.68 1.523 1.525 3.284 1.574 6.075 1.574h8.721c2.777 0 4.534-.051 6.057-1.574 1.635-1.634 1.574-3.546 1.574-6.68v-7.49c0-3.101.07-5.038-1.574-6.681-1.527-1.525-3.283-1.575-6.074-1.575h-8.741zm0 2c.534.001 8.212.001 8.741 0 2.719 0 3.751.082 4.66.989.953.953.991 2.119.988 4.899v8.188c.002 2.931-.045 3.994-.988 4.935-.908.908-1.936.989-4.643.989h-8.721c-2.721 0-3.754-.081-4.66-.987-.943-.945-.99-2.007-.988-4.939v-8.142c-.002-2.937.045-4 .987-4.943.909-.908 1.932-.989 4.624-.989"/></svg>