<svg xmlns="http://www.w3.org/2000/svg" width="24" height="24" fill-rule="evenodd" clip-rule="evenodd"><path d="M11.198 21.748c.469.33 1.137.328 1.604 0 2.13-1.513 1.951-1.437 4.55-1.422.589 0 1.101-.35 1.275-.872.794-2.405.712-2.292 2.833-3.756.457-.316.647-.868.474-1.371-.833-2.418-.829-2.269 0-4.666.173-.504-.017-1.055-.473-1.371-2.137-1.47-2.041-1.358-2.834-3.754-.174-.523-.685-.873-1.271-.873-2.629.017-2.439.075-4.555-1.424-.464-.326-1.137-.328-1.603 0-2.151 1.524-1.962 1.441-4.551 1.424-.59 0-1.1.351-1.274.872-.794 2.407-.712 2.294-2.835 3.755-.455.316-.646.868-.473 1.371.834 2.414.829 2.269 0 4.665-.173.504.018 1.056.474 1.372 2.128 1.464 2.042 1.354 2.834 3.756.175.522.686.872 1.273.872 2.616-.018 2.436-.078 4.552 1.422m.801 2.252c-.705 0-1.38-.213-1.951-.615-1.728-1.222-1.254-1.074-3.393-1.058-1.457 0-2.731-.899-3.179-2.239-.622-1.888-.402-1.592-2.077-2.746-.936-.651-1.442-1.69-1.397-2.763.013-.3.069-.602.171-.9.644-1.86.646-1.504 0-3.37-.117-.341-.173-.689-.173-1.033 0-1.025.501-2.007 1.398-2.63 1.676-1.154 1.456-.86 2.078-2.745.447-1.34 1.72-2.239 3.166-2.239 2.202.014 1.58.233 3.407-1.06.571-.401 1.261-.602 1.951-.602.69 0 1.379.201 1.95.601 1.725 1.224 1.259 1.074 3.395 1.061 1.46 0 2.732.9 3.178 2.24.62 1.878.399 1.589 2.077 2.744.898.623 1.4 1.605 1.4 2.63 0 .344-.057.692-.173 1.033-.645 1.862-.647 1.5 0 3.371.116.34.173.688.173 1.032 0 1.025-.502 2.007-1.401 2.631-1.679 1.156-1.454.863-2.077 2.745-.446 1.339-1.719 2.239-3.169 2.239-2.147-.014-1.677-.164-3.401 1.059-.572.402-1.248.614-1.953.614"/></svg>