<svg width="24" height="24" xmlns="http://www.w3.org/2000/svg" xmlns:serif="http://www.serif.com/" fill-rule="evenodd" clip-rule="evenodd"><path serif:id="shape 27" d="M10.499.471c.893-.628 2.108-.628 3.002 0 2.142 1.506 1.682 1.362 4.335 1.354 1.108-.004 2.091.682 2.429 1.696.813 2.427.527 2.052 2.679 3.544.899.623 1.275 1.733.928 2.744-.826 2.417-.83 1.953 0 4.381.347 1.011-.029 2.121-.928 2.744-2.151 1.492-1.866 1.117-2.679 3.544-.338 1.014-1.321 1.7-2.429 1.697-2.654-.009-2.193-.153-4.335 1.353-.894.629-2.109.629-3.002 0-2.143-1.505-1.682-1.363-4.335-1.353-1.108.003-2.091-.683-2.429-1.697-.812-2.43-.533-2.054-2.68-3.544-.898-.623-1.274-1.733-.927-2.744.827-2.418.83-1.953 0-4.381-.347-1.011.029-2.121.927-2.744 2.146-1.489 1.867-1.112 2.68-3.544.338-1.014 1.321-1.7 2.429-1.696 2.646.008 2.18.161 4.335-1.354"/></svg>