<svg width="24" height="24" xmlns="http://www.w3.org/2000/svg" xmlns:serif="http://www.serif.com/" fill-rule="evenodd" clip-rule="evenodd"><path serif:id="shape 30" d="M12 0l-1.793 1.958-2.368-1.236-1.007 2.444-2.657-.364-.096 2.639-2.625.552.823 2.514-2.277 1.406 1.651 2.088-1.652 2.087 2.278 1.405-.822 2.515 2.624.553.096 2.638 2.657-.364 1.007 2.445 2.368-1.236 1.793 1.955 1.795-1.955 2.367 1.236 1.007-2.445 2.658.364.097-2.638 2.624-.553-.824-2.515 2.276-1.405-1.651-2.087 1.651-2.088-2.276-1.406.824-2.514-2.624-.552-.097-2.639-2.658.364-1.007-2.444-2.367 1.236-1.795-1.958zm0 2.669l1.4 1.528 1.846-.963.787 1.907 2.066-.283.074 2.057 2.037.428-.641 1.952 1.76 1.087-1.278 1.62 1.278 1.616-1.76 1.086.641 1.955-2.037.429-.074 2.055-2.066-.283-.787 1.909-1.846-.964-1.4 1.527-1.399-1.527-1.846.964-.786-1.909-2.066.283-.073-2.055-2.038-.429.64-1.955-1.761-1.086 1.279-1.616-1.28-1.619 1.763-1.088-.64-1.952 2.037-.428.073-2.057 2.066.283.786-1.907 1.846.963 1.399-1.528z"/></svg>