<svg xmlns="http://www.w3.org/2000/svg" width="24" height="24" fill-rule="evenodd" clip-rule="evenodd"><path d="M12 0l-1.796 1.961-2.371-1.237-1.008 2.448-2.657-.364-.096 2.64-2.623.552.823 2.513-2.272 1.403 1.649 2.085-1.649 2.083 2.272 1.403-.823 2.513 2.623.553.096 2.639 2.657-.363 1.008 2.448 2.371-1.237 1.796 1.96 1.797-1.96 2.37 1.237 1.01-2.448 2.656.363.096-2.639 2.623-.553-.824-2.513 2.272-1.403-1.649-2.083 1.649-2.085-2.272-1.403.824-2.513-2.623-.552-.096-2.64-2.656.364-1.01-2.448-2.37 1.237-1.797-1.961z"/></svg>