<svg xmlns="http://www.w3.org/2000/svg" width="24" height="24" viewBox="0 0 24 24"><path d="M12 0c-6.627 0-12 5.373-12 12s5.373 12 12 12 12-5.373 12-12-5.373-12-12-12zm1.58 14.727c.464-.512 1.135-.833 1.881-.833 1.402 0 2.539 1.136 2.539 2.539s-1.137 2.54-2.539 2.54-2.538-1.137-2.538-2.54v-.027l-4.817-2.379c-.433.338-.977.541-1.566.541-1.403-.001-2.54-1.137-2.54-2.54s1.137-2.539 2.539-2.539c.722 0 1.373.301 1.836.785l4.566-2.398-.019-.309c0-1.402 1.136-2.54 2.538-2.54s2.54 1.138 2.54 2.54-1.137 2.539-2.539 2.539c-.646 0-1.236-.242-1.686-.64l-4.699 2.469c.006.176-.004.35-.04.549l4.544 2.243z"/></svg>