<svg xmlns="http://www.w3.org/2000/svg" width="24" height="24" viewBox="0 0 24 24"><path d="M20 3c0-1.657-1.344-3-3-3s-3 1.343-3 3c0 .312.061.606.149.889l-4.21 3.157c.473.471.878 1.01 1.201 1.599l4.197-3.148c.477.316 1.048.503 1.663.503 1.656 0 3-1.343 3-3zm-2 0c0 .551-.448 1-1 1s-1-.449-1-1 .448-1 1-1 1 .449 1 1zm3 12.062c1.656 0 3-1.343 3-3s-1.344-3-3-3c-1.281 0-2.367.807-2.797 1.938h-6.283c.047.328.08.66.08 1s-.033.672-.08 1h6.244c.396 1.195 1.509 2.062 2.836 2.062zm-1-3c0-.551.448-1 1-1s1 .449 1 1-.448 1-1 1-1-.448-1-1zm-20-.062c0 2.761 2.238 5 5 5s5-2.239 5-5-2.238-5-5-5-5 2.239-5 5zm2 0c0-1.654 1.346-3 3-3s3 1.346 3 3-1.346 3-3 3-3-1.346-3-3zm7.939 4.955l4.21 3.157c-.088.282-.149.576-.149.888 0 1.657 1.344 3 3 3s3-1.343 3-3-1.344-3-3-3c-.615 0-1.186.187-1.662.504l-4.197-3.148c-.324.589-.729 1.127-1.202 1.599zm6.061 4.045c0-.551.448-1 1-1s1 .449 1 1-.448 1-1 1-1-.449-1-1z"/></svg>