<svg xmlns="http://www.w3.org/2000/svg" width="24" height="24" viewBox="0 0 24 24"><path d="M19 0h-14c-2.761 0-5 2.239-5 5v14c0 2.761 2.239 5 5 5h14c2.762 0 5-2.239 5-5v-14c0-2.761-2.238-5-5-5zm-4.051 15.117c.529-.585 1.297-.952 2.148-.952 1.604 0 2.902 1.299 2.902 2.901s-1.299 2.902-2.902 2.902c-1.602 0-2.9-1.3-2.9-2.902v-.031l-5.506-2.719c-.494.387-1.114.618-1.789.618-1.603 0-2.902-1.299-2.902-2.902 0-1.603 1.299-2.902 2.902-2.902.825 0 1.569.345 2.098.897l5.219-2.741-.021-.353c0-1.603 1.299-2.902 2.9-2.902 1.604 0 2.902 1.3 2.902 2.902s-1.299 2.901-2.902 2.901c-.738 0-1.412-.276-1.926-.731l-5.371 2.821c.007.201-.003.399-.045.628l5.193 2.565z"/></svg>