<svg xmlns="http://www.w3.org/2000/svg" width="24" height="24" viewBox="0 0 24 24"><path d="M12 2c5.514 0 10 4.486 10 10s-4.486 10-10 10-10-4.486-10-10 4.486-10 10-10zm0-2c-6.627 0-12 5.373-12 12s5.373 12 12 12 12-5.373 12-12-5.373-12-12-12zm2.823 13.624c-.639 0-1.214.275-1.611.714l-3.896-1.923c.031-.171.04-.319.034-.471l4.028-2.116c.385.342.891.549 1.444.549 1.202 0 2.177-.974 2.177-2.176s-.975-2.177-2.177-2.177c-1.201 0-2.175.975-2.175 2.177l.016.265-3.913 2.055c-.396-.415-.955-.673-1.573-.673-1.202 0-2.177.974-2.177 2.176 0 1.202.975 2.176 2.177 2.176.505 0 .972-.174 1.342-.464l4.13 2.039v.023c0 1.202.974 2.177 2.175 2.177 1.202 0 2.177-.975 2.177-2.177s-.976-2.174-2.178-2.174z"/></svg>