<svg xmlns="http://www.w3.org/2000/svg" width="24" height="24" viewBox="0 0 24 24"><path d="M12 2.644c2.965 2.238 6.457 3.004 8.912 3.25-.658 7.052-4.892 12.593-8.912 15.655-4.021-3.062-8.255-8.603-8.912-15.656 2.454-.245 5.947-1.011 8.912-3.249zm0-2.644c-2.996 2.995-7.486 4-11 4 0 8.583 5.067 16.097 11 20 5.932-3.903 11-11.417 11-20-3.515 0-8.006-1.005-11-4zm4 13.729l-2.771-2.736 2.733-2.761-1.233-1.232-2.737 2.773-2.77-2.735-1.222 1.222 2.774 2.747-2.736 2.771 1.223 1.222 2.745-2.773 2.762 2.735 1.232-1.233z"/></svg>