<svg xmlns="http://www.w3.org/2000/svg" width="24" height="24" viewBox="0 0 24 24"><path d="M18.649 7.585c-1.104 5.619-4.544 9.466-6.649 11.364-2.105-1.897-5.545-5.745-6.649-11.364 2.039-.39 4.415-1.13 6.649-2.519 2.233 1.389 4.609 2.13 6.649 2.519zm4.351-3.585c0 8.583-5.068 16.097-11 20-5.932-3.903-11-11.417-11-20 3.514 0 8.005-1.005 11-4 2.995 2.995 7.486 4 11 4zm-2.088 1.894c-2.455-.246-5.947-1.012-8.912-3.25-2.965 2.238-6.458 3.004-8.912 3.25.658 7.052 4.891 12.593 8.912 15.655 4.021-3.062 8.254-8.603 8.912-15.655z"/></svg>