<svg xmlns="http://www.w3.org/2000/svg" width="24" height="24" viewBox="0 0 24 24"><path d="M13.838 8.076l-.171.098v.858l.171-.098v-.858zm1.412.054l-.171.098v-.859l.171-.098v.859zm-4.367-8.13l-4.883 2.758v5.753l6.125 3.489 4.875-2.775v-5.754l-6.117-3.471zm-.001 1.149l4.557 2.585-.851.458-4.511-2.589.805-.454zm.618 9.344l-4.5-2.563v-4.095l4.5 2.609v4.049zm.509-4.91l-4.43-2.569 1.022-.584 4.409 2.61-1.001.543zm3.991 3.06l-3.5 1.993v-4.181l1-.539v1.428l1.5-.844v-1.393l1-.539v4.075zm-2.453.458l-.175.098v-.858l.175-.099v.859zm.702-.401l-.172.098v-.859l.172-.098v.859zm.287-.163l-.171.098v-.859l.171-.098v.859zm.292-.166l-.175.099v-.859l.175-.099v.859zm5.172 5.004v-3.213c0-.77.506-1.162 1.008-1.162.498 0 .992.383.992 1.163v4.086c0 .796-.071 1.179-.573 2.092-.793 1.441-2.242 4.807-2.242 7.66h-5.002s-.559-2.759-.763-3.942c-.411-2.377.126-3.471 1.109-4.485 1.021-1.053 1.527-1.551 1.995-2.035 1.081-1.121 2.552.194 1.694 1.222-.468.561-1.624 1.803-1.901 2.171-.268.356.231.857.624.447.573-.599 1.905-2.083 2.365-2.618.443-.517.694-.829.694-1.386zm-16 0v-3.213c0-.77-.506-1.162-1.008-1.162-.498 0-.992.383-.992 1.163v4.086c0 .796.071 1.179.573 2.092.793 1.441 2.242 4.461 2.242 7.66h5.002s.559-2.759.763-3.942c.411-2.377-.126-3.471-1.109-4.485-1.021-1.053-1.527-1.551-1.995-2.035-1.081-1.121-2.552.194-1.694 1.222.468.561 1.624 1.803 1.901 2.171.268.356-.231.857-.624.447-.573-.599-1.905-2.083-2.365-2.618-.443-.517-.694-.829-.694-1.386z"/></svg>