<svg xmlns="http://www.w3.org/2000/svg" width="24" height="24" viewBox="0 0 24 24"><path d="M16.334 16.347l.343-.195v1.717l-.343.195v-1.717zm-.59 2.049l.349-.195v-1.717l-.349.199v1.713zm1.985-1.127l.343-.195v-1.717l-.343.195v1.717zm1.771-2.726l-.342.195v1.717l.342-.195v-1.717zm-2.346 3.053l.344-.196v-1.717l-.344.196v1.717zm5.846-10.655v11.507l-9.75 5.552-12.25-6.978v-11.507l9.767-5.515 12.233 6.941zm-13.846-3.733l9.022 5.178 1.7-.917-9.113-5.17-1.609.909zm-3.374 12.601c-.116-.648.087-1.024.56-1.666l.294.435-.416-1.595-1.1-.654.287.433c-.531.743-.665.972.375 3.047zm1.546-.313l-1.062-.638c-.412.441-.3 1.375-.042 1.519l1.042.626.062-1.507zm0-3.05c-.23-.924-.857-1.546-.986-1.318l-.518.834.978 1.334.526-.85zm.457.693l-.325.038 1.151.832.529-1.017-.323.028c-.467-1.404-.543-1.707-2.044-2.02.441.381.659.968 1.012 2.139zm.507 1.355l.51 1.518c.636.458 1.132.131 1.002-.234l-.501-1.49-1.011.206zm1.532 1.973c-.312.276-.727.082-1.541-.417l.023-.471-.683.777.567 1.644.021-.458c.963.578 1.191.689 1.613-1.075zm5.199-6.388l-8.819-5.217-2.044 1.167 8.859 5.138 2.004-1.088zm5.979-.943l-2 1.078v2.786l-3 1.688v-2.856l-2 1.078v8.362l7-3.985v-8.151zm-2.693 7.804l.35-.199v-1.717l-.35.199v1.717z"/></svg>