<svg xmlns="http://www.w3.org/2000/svg" width="24" height="24" viewBox="0 0 24 24"><path d="M16.677 17.868l-.343.195v-1.717l.343-.195v1.717zm2.823-3.325l-.342.195v1.717l.342-.195v-1.717zm3.5-7.602v11.507l-9.75 5.552-12.25-6.978v-11.507l9.767-5.515 12.233 6.941zm-13.846-3.733l9.022 5.178 1.7-.917-9.113-5.17-1.609.909zm2.846 9.68l-9-5.218v8.19l9 5.126v-8.098zm3.021-2.809l-8.819-5.217-2.044 1.167 8.86 5.138 2.003-1.088zm5.979-.943l-2 1.078v2.786l-3 1.688v-2.856l-2 1.078v8.362l7-3.985v-8.151zm-4.907 7.348l-.349.199v1.713l.349-.195v-1.717zm1.405-.8l-.344.196v1.717l.344-.196v-1.717zm.574-.327l-.343.195v1.717l.343-.195v-1.717zm.584-.333l-.35.199v1.717l.35-.199v-1.717z"/></svg>