<svg xmlns="http://www.w3.org/2000/svg" width="24" height="24" viewBox="0 0 24 24"><path d="M13.904 9c-3.514-3.984-.1-7.598-.1-7.598l-1.393-1.389 5.589-.013v5.607l-1.372-1.391c0 .001-3.581.706-2.724 4.784zm5.752 6.024l-.35.199v1.717l.35-.199v-1.717zm.844-.481l-.342.195v1.717l.342-.195v-1.717zm-3.407 1.941l-.349.199v1.713l.349-.195v-1.717zm1.979-1.127l-.343.195v1.717l.343-.195v-1.717zm.949-10.673v2.295l.855.489-6.859 3.698-8.86-5.138 6.374-3.654-1.5-1.406-6.864 3.97-3.167 5.533 2 1.106v5.445l12.25 6.978 9.75-5.551v-11.508l-3.979-2.257zm-16.083 3.004l7.897 4.54-1.193 2.091-7.871-4.605 1.167-2.026zm9.062 13.298l-9-5.126v-3.112l5.632 3.297 1.746 1.022 1.002-1.757.62-1.088v6.764zm9-3.7l-7 3.985v-8.361l7-3.773v8.149zm-4.323-1.135l-.343.195v1.717l.343-.195v-1.717zm.821-.467l-.344.196v1.717l.344-.196v-1.717z"/></svg>