<svg xmlns="http://www.w3.org/2000/svg" width="24" height="24" viewBox="0 0 24 24"><path d="M15.744 16.683l.349-.199v1.717l-.349.195v-1.713zm3.414-.227l.342-.196v-1.717l-.343.195v1.718zm-1.429.813l.343-.195v-1.717l-.343.195v1.717zm.578-.329l.349-.199v-1.717l-.349.199v1.717zm-1.152.656l.343-.196v-1.717l-.343.196v1.717zm-.821.467l.343-.195v-1.717l-.343.195v1.717zm6.666-11.122v11.507l-9.75 5.552-12.25-6.978v-11.507l9.767-5.515 12.233 6.941zm-12.236-4.643l-2.106 1.19 8.891 5.234-.002.003 2.33-1.256-9.113-5.171zm1.236 10.59l-9-5.218v8.19l9 5.126v-8.098zm3.493-3.056l-8.847-5.208-2.488 1.405 8.86 5.138 2.475-1.335zm5.507-.696l-7 3.773v8.362l7-3.985v-8.15z"/></svg>