<svg xmlns="http://www.w3.org/2000/svg" width="24" height="24" viewBox="0 0 24 24"><path d="M24 12c0 6.627-5.373 12-12 12s-12-5.373-12-12c0-.319.023-.632.048-.944l2.076-.547c-.074.488-.124.983-.124 1.491 0 5.514 4.486 10 10 10s10-4.486 10-10-4.486-10-10-10c-2.898 0-5.509 1.242-7.335 3.219l2.241 1.96-6.906 1.821.886-7.088 2.275 1.991c2.191-2.397 5.335-3.903 8.839-3.903 6.627 0 12 5.373 12 12zm-9.162 2.076l-.171.098v.858l.171-.098v-.858zm1.412.054l-.171.098v-.859l.171-.098v.859zm-4.367-8.13l-4.883 2.758v5.753l6.125 3.489 4.875-2.775v-5.754l-6.117-3.471zm-.001 1.149l4.557 2.585-.851.458-4.511-2.589.805-.454zm.618 9.344l-4.5-2.563v-4.095l4.5 2.609v4.049zm.509-4.91l-4.43-2.569 1.022-.584 4.408 2.609-1 .544zm3.991 3.06l-3.5 1.993v-4.181l1-.539v1.428l1.5-.844v-1.393l1-.539v4.075zm-2.453.458l-.175.098v-.857l.175-.099v.858zm.702-.401l-.172.098v-.858l.172-.098v.858zm.287-.163l-.171.098v-.858l.171-.098v.858zm.292-.166l-.175.099v-.858l.175-.099v.858z"/></svg>