<svg xmlns="http://www.w3.org/2000/svg" width="24" height="24" viewBox="0 0 24 24"><path d="M15.744 16.683l.349-.199v1.717l-.349.195v-1.713zm-9.656-3.671l-.575-.33-.002.728.575.33c.5.286.493-.446.002-.728zm10.246 5.051l.343-.195v-1.717l-.343.195v1.717zm6.666-11.122v11.507l-9.75 5.552-12.25-6.978v-11.507l9.767-5.515 12.233 6.941zm-13.846-3.733l9.022 5.178 1.7-.917-9.113-5.17-1.609.909zm-4.469 8.558l-1.685-.962v2.585l.525.301v-1.068l1.002.573.001-.442-.999-.573.001-.597 1.153.661.002-.478zm2.353 3.937c-.195-.401.066-1.026-.445-1.473v-.007c.607.085.488-1.083-.317-1.545l-1.294-.738v2.584l.524.301.003-1.01.524.301c.553.316.335.792.479 1.286l.526.301zm2.17.765l-1.287-.737.002-.634 1.156.663.001-.442-1.156-.663v-.554l1.262.723.001-.478-1.791-1.023v2.584l1.812 1.039v-.478zm2.166 1.242l-1.287-.738.002-.633 1.156.663.001-.441-1.156-.663.001-.554 1.261.722.001-.478-1.792-1.023v2.585l1.812 1.038.001-.478zm3.647-7.631l-8.819-5.217-2.044 1.167 8.859 5.138 2.004-1.088zm5.979-.943l-2 1.078v2.786l-3 1.688v-2.856l-2 1.078v8.362l7-3.985v-8.151zm-3.846 8.46l.344-.196v-1.717l-.344.196v1.717zm2.346-3.053l-.342.195v1.717l.342-.195v-1.717zm-1.193 2.397l.35-.199v-1.717l-.35.199v1.717zm-.578.329l.343-.195v-1.717l-.343.195v1.717z"/></svg>