<svg xmlns="http://www.w3.org/2000/svg" width="24" height="24" viewBox="0 0 24 24"><path d="M9.939 0l-.939 4.971v1.098c0 1.066-.934 1.931-2 1.931s-2-.865-2-1.932v-1.097l2.996-4.971h1.943zm-3.052 0l-2.887 4.971v1.098c0 1.066-.934 1.931-2 1.931s-2-.865-2-1.932v-1.097l4.873-4.971h2.014zm17.113 6.068c0 1.067-.934 1.932-2 1.932s-2-.933-2-2v-1.098l-2.887-4.902h2.014l4.873 4.971v1.097zm-10-1.168v1.098c0 1.066-.934 2.002-2 2.002s-2-.933-2-2v-1.098l1.047-4.902h1.906l1.047 4.9zm2.004-4.9l2.994 5.002v1.098c0 1.067-.932 1.9-1.998 1.9s-2-.933-2-2v-1.098l-.939-4.902h1.943zm4.996 12v7h-18v-7h18zm2-2h-22v14h22v-14zm-13.751 6.054c0 .399-.228.734-.697.878-.267.082-.641.096-.967.01-.472-.123-.789-.469-.781-.985l.001-.078h.736v.079c0 .211.11.344.313.397.184.047.497.042.622-.114.046-.057.054-.178-.01-.241-.173-.168-.572-.181-1.005-.347-.352-.133-.565-.384-.565-.753 0-.435.304-.739.709-.849.275-.075.56-.064.813-.002.441.107.74.422.74.904v.079h-.732l-.004-.074c-.013-.179-.09-.282-.271-.319-.127-.026-.31-.033-.421.039-.121.079-.15.249.007.322.273.128.836.173 1.149.378.228.151.363.375.363.676zm1.892-.947h-.941v-1.042h-.756v2.875h.755v-1.171h.941v1.171h.756v-2.875h-.756v1.042zm3.833.406c0 .853-.549 1.487-1.414 1.487-.871 0-1.415-.642-1.415-1.487 0-.865.547-1.513 1.415-1.513.878 0 1.414.661 1.414 1.513zm-.755 0c0-.467-.192-.853-.659-.853-.471 0-.658.392-.658.853 0 .45.198.83.658.83.461 0 .659-.381.659-.83zm3.327-.498c0 .389-.179.713-.555.87-.129.053-.285.08-.464.08h-.55v.974h-.755v-2.875h1.305c.179 0 .335.027.464.081.375.156.555.479.555.87zm-1.568.328h.386l.185-.014c.184-.029.261-.136.261-.314s-.078-.284-.261-.313l-.185-.014h-.386v.655z"/></svg>