<svg xmlns="http://www.w3.org/2000/svg" width="24" height="24" viewBox="0 0 24 24"><path d="M2 22v-13h3v1.5c0 .276.224.5.5.5s.5-.224.5-.5v-1.5h6v1.5c0 .276.224.5.5.5s.5-.224.5-.5v-1.5h3v3h2v-5h-5v-3c0-2.209-1.791-4-4-4s-4 1.791-4 4v3h-5v17h16.69l-1.999-2h-12.691zm4-18c0-1.654 1.346-3 3-3s3 1.346 3 3v3h-6v-3zm13.899 15.899c.168.145.072.381-.132.618-.156.183-.305.283-.434.283l-.156-.06c-.157-.136-.089-.383.123-.625.144-.166.302-.276.44-.276l.159.06zm-1.421-5.899h-4.478v4.48l5.518 5.52 4.482-4.48-5.522-5.52zm-.447 3.364c.21-.245.479-.379.745-.379.188 0 .374.067.538.208.403.346.376.835.033 1.234-.234.272-.502.39-.752.39-.198 0-.385-.074-.534-.202-.354-.307-.407-.813-.03-1.251zm-2.031-.614c-.413 0-.75-.335-.75-.75s.338-.75.75-.75.75.335.75.75-.337.75-.75.75zm1.25 2.866l3.417-1.262.295.252-3.42 1.259-.292-.249zm2.944 1.225c-.233.272-.5.39-.75.39-.197 0-.384-.074-.533-.202-.353-.302-.405-.809-.032-1.25.21-.245.479-.379.745-.379.188 0 .374.066.539.208.402.345.377.834.031 1.233zm-1.864-2.516c-.158-.136-.09-.383.119-.627.144-.166.304-.275.442-.275l.157.059c.168.145.075.384-.128.621-.156.182-.307.283-.436.283l-.154-.061z"/></svg>