<svg xmlns="http://www.w3.org/2000/svg" width="24" height="24" viewBox="0 0 24 24"><path d="M9.939 0l-.939 4.971v1.098c0 1.066-.933 1.931-2 1.931s-2-.865-2-1.932v-1.097l2.996-4.971h1.943zm-3.052 0l-2.887 4.971v1.098c0 1.066-.933 1.931-2 1.931s-2-.865-2-1.932v-1.097l4.874-4.971h2.013zm17.113 6.068c0 1.067-.934 1.932-2 1.932s-2-.933-2-2v-1.098l-2.887-4.902h2.014l4.873 4.971v1.097zm-10-1.168v1.098c0 1.066-.934 2.002-2 2.002-1.067 0-2-.933-2-2v-1.098l1.047-4.902h1.905l1.048 4.9zm2.004-4.9l2.994 5.002v1.098c0 1.067-.932 1.9-1.998 1.9s-2-.933-2-2v-1.098l-.939-4.902h1.943zm4.996 12v7h-18v-7h18zm2-2h-22v14h22v-14zm-16.99 5.716h.758c-.078.875-.585 1.284-1.285 1.284-.871 0-1.415-.643-1.415-1.487 0-.859.544-1.513 1.415-1.513.663 0 1.176.372 1.265 1.156h-.759c-.049-.331-.264-.471-.506-.471-.454 0-.636.377-.636.828 0 .441.193.806.636.806.369 0 .484-.258.527-.603zm1.837-1.652h-.779v2.875h2.089v-.685h-1.31v-2.19zm2.845-.064c-.872 0-1.415.654-1.415 1.513 0 .844.543 1.487 1.415 1.487.869 0 1.416-.639 1.416-1.487 0-.863-.547-1.513-1.416-1.513zm0 2.319c-.443 0-.636-.365-.636-.806 0-.451.182-.828.636-.828s.636.377.636.828c.001.439-.191.806-.636.806zm3.639-.952c-.318-.209-.863-.246-1.139-.375-.078-.036-.095-.059-.095-.133 0-.117.098-.179.188-.198.108-.022.217-.014.306.004.173.036.243.132.255.302l.006.088h.754v-.095c0-.485-.301-.803-.743-.91-.255-.062-.537-.072-.812.002-.409.11-.714.419-.714.855 0 .261.104.464.289.605.39.299 1.057.285 1.27.493.057.056.051.166.01.218-.058.072-.152.106-.241.12-.135.02-.249.015-.358-.014-.19-.048-.298-.172-.298-.377v-.094h-.759l-.002.093c-.012.695.549 1.049 1.237 1.049.651 0 1.211-.301 1.211-.953 0-.303-.135-.529-.365-.68zm1.401.887v-.47h1.302v-.647h-1.302v-.388h1.418v-.685h-2.197v2.875h2.229v-.685h-1.45zm2.955-2.192h-1.254v2.876h1.254c.793 0 1.313-.535 1.313-1.453 0-.922-.547-1.423-1.313-1.423zm-.475.686h.328c.509 0 .681.28.681.794 0 .406-.169.711-.575.711h-.434v-1.505z"/></svg>