<svg xmlns="http://www.w3.org/2000/svg" width="24" height="24" viewBox="0 0 24 24"><path d="M10 19.5c0 .829-.672 1.5-1.5 1.5s-1.5-.671-1.5-1.5c0-.828.672-1.5 1.5-1.5s1.5.672 1.5 1.5zm3.5-1.5c-.828 0-1.5.671-1.5 1.5s.672 1.5 1.5 1.5 1.5-.671 1.5-1.5c0-.828-.672-1.5-1.5-1.5zm6.305-15l-3.432 12h-10.428l-3.777-9h-2.168l4.615 11h13.239l3.474-12h1.929l.743-2h-4.195zm-3.826 4.899c.007.34-.019.675-.079 1.009l-1.06-.272c.04-.247.056-.491.049-.736h1.09zm-.262 1.712l-1.06-.272c-.086.238-.195.465-.325.68l.891.633c.203-.325.369-.673.494-1.041zm-1.821 2.454c.332-.239.634-.517.898-.827l-.894-.635c-.168.189-.355.362-.558.516l.554.946zm-7.896-4.057c0 2.756 2.234 4.99 4.99 4.99.823 0 1.601-.2 2.286-.554l-.551-.943c-.522.26-1.111.406-1.734.406-2.154 0-3.899-1.746-3.899-3.899 0-2.154 1.746-3.899 3.899-3.899 1.061 0 2.119.423 2.822 1.11l-.869.868 3.056.558-.558-3.056-.859.859c-.9-.884-2.231-1.43-3.593-1.43-2.756 0-4.99 2.233-4.99 4.99zm6.273 1.442v-.636h-1.161v-.578l1.217-1.634h.577v1.649h.364v.562h-.364v.637h-.633zm0-1.198v-.758l-.565.758h.565zm-3.473 1.198c0-.431.123-.765.552-1.082.505-.375.89-.521.89-.867 0-.229-.138-.371-.359-.371-.309 0-.383.324-.383.631h-.636c-.027-.797.425-1.213 1.046-1.213.575 0 .992.383.992.91 0 .263-.082.472-.258.657-.278.293-.694.44-.967.752h1.24v.583h-2.117z"/></svg>