<svg xmlns="http://www.w3.org/2000/svg" width="24" height="24" viewBox="0 0 24 24"><path d="M15 4.902l-.939-4.902h1.943l2.994 5.002v1.098c0 1.067-.932 1.9-1.998 1.9s-2-.933-2-2v-1.098zm5 1.098c0 1.067.934 2 2 2s2-.865 2-1.932v-1.097l-4.873-4.971h-2.014l2.887 4.902v1.098zm-7 13.5l.025-.5h-10.025v-7h18v1.181c.721.171 1.395.459 2 .848v-4.029h-22v14h13.816c-1.123-1.168-1.816-2.752-1.816-4.5zm-1-11.5c1.066 0 2-.936 2-2.002v-1.098l-1.047-4.9h-1.906l-1.047 4.902v1.098c0 1.067.934 2 2 2zm-7-1.932c0 1.067.934 1.932 2 1.932s2-.865 2-1.932v-1.097l.939-4.971h-1.943l-2.996 4.971v1.097zm-1 0v-1.097l2.887-4.971h-2.014l-4.873 4.971v1.098c0 1.066.934 1.931 2 1.931s2-.865 2-1.932zm16.699 13.512c-.223 0-.318.246-.318.555-.004.321.105.554.318.554.205 0 .308-.208.308-.554 0-.313-.082-.555-.308-.555zm3.301.702l-.853.526.31.942-.982.208-.038.99-.995-.137-.378.918-.891-.464-.673.735-.673-.736-.891.464-.376-.918-.996.137-.036-.99-.983-.208.31-.942-.855-.525.619-.782-.619-.781.854-.526-.31-.942.983-.207.036-.99.996.137.377-.918.891.464.673-.737.673.736.891-.464.378.918.995-.137.038.99.982.207-.31.942.853.527-.619.781.619.782zm-5.567-.479c.453 0 .866-.336.866-.98 0-.525-.304-.914-.84-.914s-.875.417-.875.966c0 .578.373.928.849.928zm2.227-1.894h-.394l-1.794 3.182h.39l1.798-3.182zm.889 2.193c0-.526-.302-.914-.84-.914-.536 0-.876.417-.876.966.005.577.38.928.852.928.452 0 .864-.336.864-.98zm-3.106-1.8c-.217 0-.318.246-.318.554 0 .322.113.554.324.554.206 0 .308-.208.308-.554 0-.312-.087-.554-.314-.554z"/></svg>