<svg xmlns="http://www.w3.org/2000/svg" width="24" height="24" viewBox="0 0 24 24"><path d="M10 19.5c0 .829-.672 1.5-1.5 1.5s-1.5-.671-1.5-1.5c0-.828.672-1.5 1.5-1.5s1.5.672 1.5 1.5zm3.5-1.5c-.828 0-1.5.671-1.5 1.5s.672 1.5 1.5 1.5 1.5-.671 1.5-1.5c0-.828-.672-1.5-1.5-1.5zm6.305-15l-3.432 12h-10.428l-3.777-9h-2.168l4.615 11h13.239l3.474-12h1.929l.743-2h-4.195zm-8.783 1c-2.247 0-4.069 1.752-4.069 4h-1.053l1.714 1.787 1.717-1.787h-1.074c0-1.528 1.238-2.696 2.766-2.696.765 0 1.455.31 1.957.81l.922-.922c-.737-.736-1.756-1.192-2.88-1.192zm4.025 4c0 2.248-1.822 4-4.071 4-1.124 0-2.141-.456-2.878-1.192l.922-.922c.501.5 1.191.811 1.956.811 1.527 0 2.767-1.168 2.767-2.696h-1.074l1.717-1.787 1.714 1.786h-1.053z"/></svg>