<svg xmlns="http://www.w3.org/2000/svg" width="24" height="24" viewBox="0 0 24 24"><path d="M9.939 0l-.939 4.971v1.098c0 1.066-.933 1.931-2 1.931s-2-.865-2-1.932v-1.097l2.996-4.971h1.943zm-3.052 0l-2.887 4.971v1.098c0 1.066-.933 1.931-2 1.931s-2-.865-2-1.932v-1.097l4.874-4.971h2.013zm17.113 6.068c0 1.067-.934 1.932-2 1.932s-2-.933-2-2v-1.098l-2.887-4.902h2.014l4.873 4.971v1.097zm-10-1.168v1.098c0 1.066-.934 2.002-2 2.002-1.067 0-2-.933-2-2v-1.098l1.047-4.902h1.905l1.048 4.9zm2.004-4.9l2.994 5.002v1.098c0 1.067-.932 1.9-1.998 1.9s-2-.933-2-2v-1.098l-.939-4.902h1.943zm4.996 12v7h-18v-7h18zm2-2h-22v14h22v-14zm-14.953 4c-.871 0-1.415.654-1.415 1.513.001.841.542 1.487 1.415 1.487.865 0 1.416-.635 1.416-1.487 0-.85-.535-1.513-1.416-1.513zm0 2.319c-.446 0-.636-.37-.636-.806 0-.45.182-.828.636-.828s.637.376.637.828c0 .44-.192.806-.637.806zm3.031-2.256h-1.307v2.876h.779v-.963h.527c.658 0 1.023-.401 1.023-.956s-.364-.957-1.022-.957zm-.527.648h.365c.269 0 .426.058.426.309 0 .257-.167.309-.426.309h-.365v-.618zm2.604 1.543h1.449v.685h-2.228v-2.876h2.198v.686h-1.419v.387h1.303v.648h-1.303v.47zm4.212-2.191v2.876h-.737l-.979-1.576v1.576h-.742v-2.876h.734l.981 1.581v-1.581h.743z"/></svg>