<svg xmlns="http://www.w3.org/2000/svg" width="24" height="24" viewBox="0 0 24 24"><path d="M3 22v-13h3v1.5c0 .276.224.5.5.5s.5-.224.5-.5v-1.5h6v1.5c0 .276.224.5.5.5s.5-.224.5-.5v-1.5h3v3.585c.327-.051.659-.085 1-.085s.673.034 1 .085v-5.585h-5v-3c0-2.209-1.791-4-4-4s-4 1.791-4 4v3h-5v17h12.848c-.662-.55-1.209-1.23-1.61-2h-9.238zm4-18c0-1.654 1.346-3 3-3s3 1.346 3 3v3h-6v-3zm12.674 15.705c0 .384-.113.616-.341.616-.237 0-.358-.258-.354-.616 0-.343.106-.616.354-.616.25 0 .341.268.341.616zm2.638-.705l.688-.868-.947-.584.344-1.047-1.092-.23-.042-1.1-1.105.152-.42-1.02-.989.515-.749-.818-.748.817-.989-.515-.419 1.02-1.106-.152-.04 1.1-1.093.23.344 1.047-.949.585.688.868-.688.869.948.584-.344 1.047 1.093.23.04 1.1 1.106-.152.419 1.021.989-.516.749.817.748-.817.989.516.42-1.021 1.105.152.042-1.1 1.092-.23-.344-1.047.948-.584-.688-.869zm-6.441-.694c0-.61.377-1.073.972-1.073.597 0 .934.432.934 1.015 0 .716-.459 1.089-.962 1.089-.529-.001-.944-.39-.944-1.031zm1.42 2.462h-.433l1.993-3.535h.438l-1.998 3.535zm2.025-.011c-.524 0-.94-.39-.946-1.031 0-.61.378-1.074.973-1.074.599 0 .934.431.934 1.016-.001.716-.459 1.089-.961 1.089zm-2.142-2.472c0 .384-.112.615-.342.615-.234 0-.359-.257-.359-.615 0-.342.112-.616.354-.616.251 0 .347.269.347.616z"/></svg>