<svg xmlns="http://www.w3.org/2000/svg" width="24" height="24" viewBox="0 0 24 24"><path d="M12 19.5c0-3.59 2.91-6.5 6.5-6.5l.5.025v-7.025h-5v-2c0-2.209-1.791-4-4-4s-4 1.791-4 4v2h-5v18h12.816c-1.123-1.168-1.816-2.752-1.816-4.5zm-5-15.5c0-1.654 1.346-3 3-3s3 1.346 3 3v2h-6v-2zm-4 4h3v1.5c0 .276.224.5.5.5s.5-.224.5-.5v-1.5h6v1.5c0 .276.224.5.5.5s.5-.224.5-.5v-1.5h3v4h-14v-4zm15.5 7c-2.486 0-4.5 2.015-4.5 4.5s2.014 4.5 4.5 4.5c2.484 0 4.5-2.015 4.5-4.5s-2.016-4.5-4.5-4.5zm-.469 6.484l-1.688-1.637.695-.697.992.94 2.115-2.169.697.696-2.811 2.867z"/></svg>