<svg width="24" height="24" xmlns="http://www.w3.org/2000/svg" fill-rule="evenodd" clip-rule="evenodd"><path d="M13.5 18c-.828 0-1.5.672-1.5 1.5 0 .829.672 1.5 1.5 1.5s1.5-.671 1.5-1.5c0-.828-.672-1.5-1.5-1.5zm-3.5 1.5c0 .829-.672 1.5-1.5 1.5s-1.5-.671-1.5-1.5c0-.828.672-1.5 1.5-1.5s1.5.672 1.5 1.5zm13.257-14.5h-1.929l-3.473 12h-13.239l-4.616-11h2.169l3.776 9h10.428l3.432-12h4.195l-.743 2zm-12.257 1.475l2.475-2.475 1.414 1.414-2.475 2.475 2.475 2.475-1.414 1.414-2.475-2.475-2.475 2.475-1.414-1.414 2.475-2.475-2.475-2.475 1.414-1.414 2.475 2.475z"/></svg>