<svg xmlns="http://www.w3.org/2000/svg" width="24" height="24" viewBox="0 0 24 24"><path d="M9.939 0l-.939 4.971v1.098c0 1.066-.934 1.931-2 1.931s-2-.865-2-1.932v-1.097l2.996-4.971h1.943zm-3.052 0l-2.887 4.971v1.098c0 1.066-.934 1.931-2 1.931s-2-.865-2-1.932v-1.097l4.873-4.971h2.014zm17.113 6.068c0 1.067-.934 1.932-2 1.932s-2-.933-2-2v-1.098l-2.887-4.902h2.014l4.873 4.971v1.097zm-10-1.168v1.098c0 1.066-.934 2.002-2 2.002s-2-.933-2-2v-1.098l1.047-4.902h1.906l1.047 4.9zm2.004-4.9l2.994 5.002v1.098c0 1.067-.932 1.9-1.998 1.9s-2-.933-2-2v-1.098l-.939-4.902h1.943zm4.996 12v7h-18v-7h18zm2-2h-22v14h22v-14zm-18.5 5.836c-.128 0-.256-.049-.354-.146-.195-.195-.195-.512 0-.707l1.836-1.836c.195-.195.512-.195.707 0s.195.512 0 .707l-1.836 1.836c-.097.097-.225.146-.353.146zm.518 2.018l4.01-4.01c.195-.195.195-.512 0-.707s-.512-.195-.707 0l-4.01 4.01c-.195.195-.195.512 0 .707.097.097.225.146.353.146s.256-.049.354-.146z"/></svg>