<svg xmlns="http://www.w3.org/2000/svg" width="24" height="24" viewBox="0 0 24 24"><path d="M12.5 22h-9.5v-14h3v1.5c0 .276.224.5.5.5s.5-.224.5-.5v-1.5h6v1.5c0 .276.224.5.5.5s.5-.224.5-.5v-1.5h3v5.181c.482-.114.982-.181 1.5-.181l.5.025v-7.025h-5v-2c0-2.209-1.791-4-4-4s-4 1.791-4 4v2h-5v18h12.816c-.553-.576-1.004-1.251-1.316-2zm-5.5-18c0-1.654 1.346-3 3-3s3 1.346 3 3v2h-6v-2zm16 15.5c0 2.485-2.017 4.5-4.5 4.5s-4.5-2.015-4.5-4.5 2.017-4.5 4.5-4.5 4.5 2.015 4.5 4.5zm-3.086-2.122l-1.414 1.414-1.414-1.414-.707.708 1.414 1.414-1.414 1.414.707.708 1.414-1.414 1.414 1.414.708-.708-1.414-1.414 1.414-1.414-.708-.708z"/></svg>