<svg xmlns="http://www.w3.org/2000/svg" width="24" height="24" viewBox="0 0 24 24"><path d="M10.975 8l.025-.5c0-.517-.066-1.018-.181-1.5h5.993l-.564 2h-5.273zm-2.475 10c-.828 0-1.5.672-1.5 1.5 0 .829.672 1.5 1.5 1.5s1.5-.671 1.5-1.5c0-.828-.672-1.5-1.5-1.5zm11.305-15l-3.432 12h-10.428l-.455-1.083c-.324.049-.652.083-.99.083-.407 0-.805-.042-1.191-.114l1.306 3.114h13.239l3.474-12h1.929l.743-2h-4.195zm-6.305 15c-.828 0-1.5.671-1.5 1.5s.672 1.5 1.5 1.5 1.5-.671 1.5-1.5c0-.828-.672-1.5-1.5-1.5zm-9-15c-2.486 0-4.5 2.015-4.5 4.5s2.014 4.5 4.5 4.5c2.484 0 4.5-2.015 4.5-4.5s-2.016-4.5-4.5-4.5zm-.469 6.484l-1.687-1.636.695-.697.992.94 2.115-2.169.697.696-2.812 2.866z"/></svg>