<svg xmlns="http://www.w3.org/2000/svg" width="24" height="24" viewBox="0 0 24 24"><path d="M19.899 19.899c.168.145.072.381-.132.618-.156.183-.305.283-.434.283l-.156-.06c-.157-.136-.089-.383.123-.625.144-.166.302-.276.44-.276l.159.06zm-1.421-5.899h-4.478v4.48l5.518 5.52 4.482-4.48-5.522-5.52zm-.447 3.364c.21-.245.479-.379.745-.379.188 0 .374.067.538.208.403.346.376.835.033 1.234-.234.272-.502.39-.752.39-.198 0-.385-.074-.534-.202-.354-.307-.407-.813-.03-1.251zm-2.031-.614c-.413 0-.75-.335-.75-.75s.338-.75.75-.75.75.335.75.75-.337.75-.75.75zm1.25 2.866l3.417-1.262.295.252-3.42 1.259-.292-.249zm2.944 1.225c-.233.272-.5.39-.75.39-.197 0-.384-.074-.533-.202-.353-.302-.405-.809-.032-1.25.21-.245.479-.379.745-.379.188 0 .374.066.539.208.402.345.377.834.031 1.233zm-1.864-2.516c-.158-.136-.09-.383.119-.627.144-.166.304-.275.442-.275l.157.059c.168.145.075.384-.128.621-.156.182-.307.283-.436.283l-.154-.061zm-6.33-10.325c1.066 0 2-.936 2-2.002v-1.098l-1.047-4.9h-1.906l-1.047 4.902v1.098c0 1.067.934 2 2 2zm3-2c0 1.067.934 2 2 2s1.998-.833 1.998-1.9v-1.098l-2.994-5.002h-1.943l.939 4.902v1.098zm5 0c0 1.067.934 2 2 2s2-.865 2-1.932v-1.097l-4.873-4.971h-2.014l2.887 4.902v1.098zm-8.312 13h-8.688v-7h18v1.693l2 1.999v-5.692h-22v14h15.69l-5.002-5zm-7.688-12.932v-1.097l2.887-4.971h-2.014l-4.873 4.971v1.098c0 1.066.934 1.931 2 1.931s2-.865 2-1.932zm1 0c0 1.067.934 1.932 2 1.932s2-.865 2-1.932v-1.097l.939-4.971h-1.943l-2.996 4.971v1.097z"/></svg>