<svg xmlns="http://www.w3.org/2000/svg" width="24" height="24" viewBox="0 0 24 24"><path d="M9.939 0l-.939 4.971v1.098c0 1.066-.933 1.931-2 1.931s-2-.865-2-1.932v-1.097l2.996-4.971h1.943zm-3.052 0l-2.887 4.971v1.098c0 1.066-.933 1.931-2 1.931s-2-.865-2-1.932v-1.097l4.874-4.971h2.013zm17.113 6.068c0 1.067-.933 1.932-2 1.932s-2-.933-2-2v-1.098l-2.887-4.902h2.014l4.873 4.971v1.097zm-10-1.168v1.098c0 1.066-.933 2.002-2 2.002s-2-.933-2-2v-1.098l1.047-4.902h1.905l1.048 4.9zm2.004-4.9l2.993 5.002v1.098c.001 1.067-.93 1.9-1.997 1.9s-2-.933-2-2v-1.098l-.939-4.902h1.943zm4.996 12v10h-18v-10h18zm2-2h-22v14h22v-14zm-5.25 8h-11.5l-2.25 3h16l-2.25-3z"/></svg>