<svg xmlns="http://www.w3.org/2000/svg" width="24" height="24" viewBox="0 0 24 24"><path d="M0 0v24h24v-24h-24zm13.39 19.351c-5.133.98-9.647-3.509-8.722-8.673-2.379-3.868 2.075-8.393 5.956-6.02 5.091-.955 9.606 3.476 8.702 8.653 2.392 3.866-2.049 8.397-5.936 6.04zm2.893-5.468c0 2.026-1.615 3.354-4.026 3.354-2.121 0-4.252-.965-4.242-2.627.003-.501.376-.961.872-.961 1.249 0 1.237 1.863 3.225 1.863 1.396 0 1.872-.764 1.872-1.296 0-1.924-6.029-.745-6.029-4.362 0-1.958 1.602-3.309 4.12-3.161 2.401.142 3.809 1.202 3.944 2.193.067.647-.361 1.151-1.105 1.151-1.086 0-1.197-1.454-3.067-1.454-.844 0-1.556.352-1.556 1.116-.001 1.597 5.992.67 5.992 4.184z"/></svg>