<svg xmlns="http://www.w3.org/2000/svg" width="24" height="24" viewBox="0 0 24 24"><path d="M16.283 13.883c0 2.026-1.615 3.354-4.026 3.354-2.121 0-4.252-.965-4.242-2.627.003-.501.376-.961.872-.961 1.249 0 1.237 1.863 3.225 1.863 1.396 0 1.872-.764 1.872-1.296 0-1.924-6.03-.745-6.03-4.362 0-1.958 1.602-3.309 4.12-3.161 2.401.142 3.809 1.202 3.944 2.193.067.647-.361 1.151-1.105 1.151-1.086 0-1.196-1.454-3.067-1.454-.844 0-1.556.352-1.556 1.116 0 1.597 5.993.67 5.993 4.184zm7.717-8.883v14c0 2.761-2.238 5-5 5h-14c-2.761 0-5-2.239-5-5v-14c0-2.761 2.239-5 5-5h14c2.762 0 5 2.239 5 5zm-4.675 8.311c.904-5.177-3.61-9.608-8.702-8.653-3.881-2.374-8.335 2.151-5.956 6.02-.925 5.165 3.589 9.654 8.722 8.673 3.888 2.357 8.329-2.174 5.936-6.04z"/></svg>