<svg width="24" height="24" xmlns="http://www.w3.org/2000/svg" fill-rule="evenodd" clip-rule="evenodd"><path d="M12 0c-6.626 0-12 5.372-12 12 0 6.627 5.374 12 12 12 6.627 0 12-5.373 12-12 0-6.628-5.373-12-12-12zm6.225 14.18l-1.418.474.49 1.467c.193.594-.122 1.24-.717 1.432-.671.19-1.253-.187-1.437-.715l-.49-1.469-2.924.979.49 1.468c.228.702-.253 1.483-1.068 1.483-.514 0-.934-.329-1.085-.767l-.492-1.468-1.418.472c-.662.192-1.251-.185-1.436-.717-.192-.593.123-1.24.718-1.432l1.418-.472-.945-2.814-1.419.472c-.79.224-1.492-.344-1.492-1.073 0-.477.297-.923.774-1.077l1.419-.472-.491-1.467c-.192-.595.123-1.242.719-1.434.595-.192 1.242.122 1.435.717l.492 1.467 2.923-.978-.49-1.468c-.235-.722.283-1.489 1.075-1.489.478 0 .925.297 1.08.773l.49 1.468 1.418-.472c.595-.193 1.243.123 1.436.717.193.594-.123 1.24-.718 1.432l-1.419.472.946 2.814 1.419-.472c.725-.234 1.492.282 1.492 1.072 0 .478-.297.923-.775 1.077zm-5.245-3.749l-2.922.977.944 2.816 2.923-.976-.945-2.817z"/></svg>