<svg width="24" height="24" xmlns="http://www.w3.org/2000/svg" fill-rule="evenodd" clip-rule="evenodd"><path d="M22.5 7c.828 0 1.5.672 1.5 1.5v14c0 .826-.671 1.5-1.5 1.5h-7c-.829 0-1.5-.675-1.5-1.5v-14c0-.827.673-1.5 1.5-1.5h7zm-8.937 17h-5.563c.279-2.892 1.559-2.657 2.108-4h2.892v2.5c0 .524.182 1.175.563 1.5zm-6.563 0h-4c-.177-1.993-.667-2.729-1.413-3.408-.976-.887-1.587-2.16-1.587-3.574 0-1.413.611-2.686 1.585-3.572.748-.68 1.246-1.476 1.415-3.446h4c.202 1.97.583 2.766 1.332 3.446.833.759 1.397 1.8 1.544 2.971h.624v1.166h-.618c-.14 1.186-.709 2.242-1.552 3.009-.747.679-1.176 1.391-1.33 3.408zm12-1c-.553 0-1-.448-1-1s.447-1 1-1c.552 0 .999.448.999 1s-.447 1-.999 1zm-14-2.5c-1.933 0-3.5-1.567-3.5-3.5s1.567-3.5 3.5-3.5 3.5 1.567 3.5 3.5-1.567 3.5-3.5 3.5zm18-.5v-10.024h-8v10.024h8zm-16-2h-3v-3h1v2h2v1zm12.5-10h-1c-.276 0-.5.224-.5.5s.224.5.5.5h1c.275 0 .5-.224.5-.5s-.225-.5-.5-.5zm-14.5 1h-2v-7c0-1.104.896-2 2-2h15c1.104 0 2 .896 2 2v4h-2v-3h-15v6z"/></svg>