<svg width="24" height="24" xmlns="http://www.w3.org/2000/svg" fill-rule="evenodd" clip-rule="evenodd"><path d="M22.5 7c.828 0 1.5.672 1.5 1.5v14c0 .826-.671 1.5-1.5 1.5h-7c-.829 0-1.5-.675-1.5-1.5v-14c0-.827.673-1.5 1.5-1.5h7zm-8.907 17h-9.593l2.599-3h6.401v1.804c0 .579.336 1.09.593 1.196zm5.407-1c-.553 0-1-.448-1-1s.447-1 1-1c.552 0 .999.448.999 1s-.447 1-.999 1zm4-3v-10.024h-8v10.024h8zm-1-14h-2v-4h-18v15h11v2h-13v-19h22v6zm-2.5 3c.275 0 .5-.224.5-.5s-.225-.5-.5-.5h-1c-.276 0-.5.224-.5.5s.224.5.5.5h1z"/></svg>