<svg xmlns="http://www.w3.org/2000/svg" width="24" height="24" viewBox="0 0 24 24"><path d="M12.195 2c3.237 0 5.497.977 5.805 1.501v17.06c-.435.519-2.792 1.439-5.986 1.439-3.202 0-5.572-.922-6.014-1.443v-16.996c.438-.576 2.996-1.561 6.195-1.561zm0-2c-3.563 0-8.195 1.199-8.195 3.461v17.213c-.002 2.214 4.508 3.326 8.014 3.326 3.495 0 7.986-1.105 7.986-3.326v-17.213c0-2.348-4.371-3.461-7.805-3.461zm-.195 3c.276 0 .5.223.5.5 0 .276-.224.5-.5.5s-.5-.224-.5-.5c0-.277.224-.5.5-.5zm0 18c-.552 0-1-.448-1-1 0-.553.448-1 1-1s1 .447 1 1c0 .552-.448 1-1 1zm5-3h-10v-13h10v13z"/></svg>