<svg xmlns="http://www.w3.org/2000/svg" width="24" height="24" viewBox="0 0 24 24"><path d="M8 2c-1.105 0-2 .896-2 2v14.678c-.001 2.213 2.503 3.322 6.005 3.322 3.499 0 5.995-1.106 5.995-3.322v-14.678c0-1.104-.895-2-2-2h-8zm4 18c-.552 0-1-.448-1-1s.448-1 1-1 1 .448 1 1-.448 1-1 1zm4-4h-8v-10h8v10zm4-7.459c.496.495.803 1.179.803 1.935.001.755-.305 1.44-.8 1.936l.814.814c.703-.704 1.139-1.677 1.139-2.751-.001-1.075-.436-2.046-1.141-2.749l-.815.815zm1.427-1.426c.86.859 1.393 2.046 1.393 3.358.001 1.313-.532 2.502-1.391 3.363l.834.835c1.074-1.075 1.738-2.56 1.737-4.198 0-1.639-.664-3.121-1.737-4.193l-.836.835zm-18.241.611c-.705.703-1.14 1.674-1.141 2.748s.435 2.047 1.139 2.751l.814-.814c-.495-.496-.8-1.18-.8-1.936s.307-1.44.802-1.935l-.814-.814zm-1.447-1.447c-1.075 1.073-1.738 2.554-1.739 4.194-.001 1.638.664 3.124 1.737 4.198l.834-.835c-.859-.861-1.391-2.05-1.39-3.363 0-1.312.531-2.5 1.392-3.358l-.834-.836z"/></svg>