<svg width="24" height="24" xmlns="http://www.w3.org/2000/svg" fill-rule="evenodd" clip-rule="evenodd"><path d="M22 10h-1v-2h-11v13h5v1.617c0 .524.121 1.058.502 1.383h-5.002c-.398 0-.779-.158-1.061-.439-.281-.282-.439-.663-.439-1.061v-15c0-.398.158-.779.439-1.061.282-.281.663-.439 1.061-.439h10c.398 0 .779.158 1.061.439.281.282.439.663.439 1.061v2.5zm2 2.25c0-.69-.56-1.25-1.25-1.25h-5.5c-.69 0-1.25.56-1.25 1.25v10.5c0 .69.56 1.25 1.25 1.25h5.5c.69 0 1.25-.56 1.25-1.25v-10.5zm-15.407 11.75h-6.593l2.599-3h3.401v1.804c0 .579.337 1.09.593 1.196zm11.407-1c-.553 0-1-.448-1-1s.447-1 1-1c.552 0 .999.448.999 1s-.447 1-.999 1zm3-3v-6.024h-6v6.024h6zm-2-15h-2v-3h-17v15h6v2h-8v-19h21v5zm-.5 7h-1c-.276 0-.5.224-.5.5s.224.5.5.5h1c.275 0 .5-.224.5-.5s-.225-.5-.5-.5z"/></svg>