<svg width="24" height="24" xmlns="http://www.w3.org/2000/svg" fill-rule="evenodd" clip-rule="evenodd"><path d="M13.563 24h-11.563c-1.104 0-2-.896-2-2v-20c0-1.104.896-2 2-2h14c1.104 0 2 .896 2 2v4h-2v-3h-14v17h11v2.5c0 .524.182 1.175.563 1.5zm8.937-17c.828 0 1.5.672 1.5 1.5v14c0 .826-.671 1.5-1.5 1.5h-7c-.829 0-1.5-.675-1.5-1.5v-14c0-.827.673-1.5 1.5-1.5h7zm-13.5 14c.552 0 1 .448 1 1s-.448 1-1 1-1-.448-1-1 .448-1 1-1zm10 2c-.553 0-1-.448-1-1s.447-1 1-1c.552 0 .999.448.999 1s-.447 1-.999 1zm4-3v-10.024h-8v10.024h8zm-3.5-11c.275 0 .5-.224.5-.5s-.225-.5-.5-.5h-1c-.276 0-.5.224-.5.5s.224.5.5.5h1z"/></svg>