<svg xmlns="http://www.w3.org/2000/svg" width="24" height="24" viewBox="0 0 24 24"><path d="M6.02 7.389c.399-.285.85-.417 1.292-.417.944 0 1.852.6 2.15 1.599-.382-.294-.83-.437-1.281-.437-.458 0-.919.147-1.321.434-.799.57-1.153 1.541-.845 2.461-1.242-.89-1.247-2.747.005-3.64zm3.741 12.77c.994.334 4.071 1.186 7.635 3.841l6.604-4.71c-1.713-2.402-1.241-4.082-2.943-6.468-1.162-1.628-1.827-1.654-3.037-1.432l.599.84c.361.507-.405 1.05-.764.544l-.534-.75c-.435-.609-1.279-.229-2.053-.051l.727 1.019c.36.505-.403 1.051-.764.544l-.629-.882c-.446-.626-1.318-.208-2.095-.01l.769 1.078c.363.508-.405 1.049-.764.544l-3.118-4.366c-.968-1.358-3.088.083-2.086 1.489l4.605 6.458c-.494-.183-1.363-.349-1.93-.349-1.754 0-2.429 1.92-.222 2.661zm-3.286-2.159h-4.475v-14h10v6.688l2-.471v-8.217c0-1.104-.895-2-2-2h-10c-1.105 0-2 .896-2 2v18.678c-.001 2.213 3.503 3.322 7.005 3.322 1.812 0 3.619-.299 4.944-.894-2.121-.946-6.378-1.576-5.474-5.106z"/></svg>