<svg xmlns="http://www.w3.org/2000/svg" width="24" height="24" viewBox="0 0 24 24"><path d="M5 6c-1.105 0-2 .896-2 2v12.678c-.001 2.213 2.503 3.322 6.005 3.322 3.498 0 5.995-1.106 5.995-3.322v-12.678c0-1.104-.895-2-2-2h-8zm4 16c-.552 0-1-.448-1-1s.448-1 1-1 1 .448 1 1-.448 1-1 1zm4-4h-8v-8h8v8zm0-13.688c.944-.001 1.889.359 2.608 1.08.721.72 1.082 1.664 1.082 2.606h1.554c-.001-1.341-.514-2.684-1.538-3.707-1.025-1.022-2.365-1.533-3.706-1.532v1.553zm0-2.718c1.639-.001 3.277.623 4.53 1.874 1.251 1.25 1.877 2.892 1.878 4.531h1.592c-.001-2.047-.782-4.096-2.345-5.658-1.562-1.562-3.609-2.341-5.655-2.34v1.593z"/></svg>