<svg xmlns="http://www.w3.org/2000/svg" width="24" height="24" viewBox="0 0 24 24"><path d="M16 0c-3.169 0-6 2.113-6 5.003 0 1.025.369 2.032 1.023 2.812.027.916-.512 2.228-.996 3.184 1.301-.235 3.15-.754 3.988-1.268.708.172 1.387.251 2.028.251 3.543 0 5.956-2.418 5.956-4.98.001-2.904-2.85-5.002-5.999-5.002zm-2.5 5.75c-.414 0-.75-.336-.75-.75s.336-.75.75-.75.75.336.75.75-.336.75-.75.75zm2.5 0c-.414 0-.75-.336-.75-.75s.336-.75.75-.75.75.336.75.75-.336.75-.75.75zm2.5 0c-.414 0-.75-.336-.75-.75s.336-.75.75-.75.75.336.75.75-.336.75-.75.75zm-6.5 6.854v5.396h-8v-10h4.766c-.649-1.216-.913-2.564-.674-4h-4.092c-1.105 0-2 .896-2 2v14.678c-.002 2.213 2.503 3.322 6.006 3.322 3.498 0 5.994-1.106 5.994-3.322v-8.725c-.635.257-1.34.476-2 .651zm-4 9.396c-.553 0-1-.448-1-1s.447-1 1-1 1 .448 1 1-.447 1-1 1z"/></svg>