<svg xmlns="http://www.w3.org/2000/svg" width="24" height="24" viewBox="0 0 24 24"><path d="M12.939 21.27c-1.623-1.903-2.436-3.029-4.277-4.185-1.141-.717-2.04-1.702-2.662-2.651l.512-.512.001.001c2.482 1.961 4.757 2.255 9.434 2.255 0 0 1.226 1.214 2.42 2.623 2.74 3.229-2.233 6.215-5.428 2.469zm-2.057.664c-4.988-.559-8.882-4.798-8.882-9.934 0-5.514 4.486-10 10-10s10 4.486 10 10c0 2.168-.701 4.172-1.879 5.812.48.643.802 1.331.95 2.028 1.821-2.103 2.929-4.84 2.929-7.84 0-6.627-5.373-12-12-12s-12 5.373-12 12 5.373 12 12 12c.319 0 .633-.023.946-.048-.943-.653-1.358-1.181-2.064-2.018zm4.618-13.934c-.828 0-1.5.671-1.5 1.5s.672 1.5 1.5 1.5 1.5-.671 1.5-1.5-.672-1.5-1.5-1.5zm-7 0c-.828 0-1.5.671-1.5 1.5s.672 1.5 1.5 1.5 1.5-.671 1.5-1.5-.672-1.5-1.5-1.5z"/></svg>