<svg xmlns="http://www.w3.org/2000/svg" width="24" height="24" viewBox="0 0 24 24"><path d="M17.508 13.941l.492.493c-1.127 1.72-3.199 3.566-5.999 3.566-2.801 0-4.874-1.846-6.001-3.566l.492-.493c1.513 1.195 3.174 1.931 5.509 1.931 2.333 0 3.994-.736 5.507-1.931zm6.492-1.941c0 6.627-5.373 12-12 12s-12-5.373-12-12 5.373-12 12-12 12 5.373 12 12zm-21.159-4h2.51c.564-1.178 1.758-2 3.149-2 1.281 0 2.396.698 3.004 1.729.1.168.28.271.475.271.219 0 .423-.115.536-.302.611-1.014 1.716-1.698 2.985-1.698 1.391 0 2.585.822 3.149 2h2.51c-1.547-3.527-5.068-6-9.159-6s-7.612 2.473-9.159 6zm12.659 0c-.828 0-1.5.671-1.5 1.5s.672 1.5 1.5 1.5 1.5-.671 1.5-1.5-.672-1.5-1.5-1.5zm-7 0c-.828 0-1.5.671-1.5 1.5s.672 1.5 1.5 1.5 1.5-.671 1.5-1.5-.672-1.5-1.5-1.5zm13.5 4c0-.685-.07-1.354-.202-2h-2.849c-.245 1.691-1.691 3-3.449 3-1.552 0-2.454-.878-2.955-1.677-.11-.176-.304-.283-.512-.283-.208.001-.4.109-.51.287-.619 1.008-1.75 1.673-3.023 1.673-1.758 0-3.204-1.309-3.449-3h-2.849c-.132.646-.202 1.315-.202 2 0 5.514 4.486 10 10 10s10-4.486 10-10z"/></svg>