<svg xmlns="http://www.w3.org/2000/svg" width="24" height="24" viewBox="0 0 24 24"><path d="M12 2c5.514 0 10 4.486 10 10s-4.486 10-10 10-10-4.486-10-10 4.486-10 10-10zm0-2c-6.627 0-12 5.373-12 12s5.373 12 12 12 12-5.373 12-12-5.373-12-12-12zm4 17h-8v-2h8v2zm.5-11c-1.93 0-3.5 1.57-3.5 3.5s1.57 3.5 3.5 3.5 3.5-1.57 3.5-3.5-1.57-3.5-3.5-3.5zm0 5c-.828 0-1.5-.671-1.5-1.5s.672-1.5 1.5-1.5 1.5.671 1.5 1.5-.672 1.5-1.5 1.5zm-9-5c-1.93 0-3.5 1.57-3.5 3.5s1.57 3.5 3.5 3.5 3.5-1.57 3.5-3.5-1.57-3.5-3.5-3.5zm0 5c-.828 0-1.5-.671-1.5-1.5s.672-1.5 1.5-1.5 1.5.671 1.5 1.5-.672 1.5-1.5 1.5z"/></svg>