<svg xmlns="http://www.w3.org/2000/svg" width="24" height="24" viewBox="0 0 24 24"><path d="M15.877 6.124l-3.877 3.876-3.877-3.876 1.124-1.124 2.753 2.753 2.754-2.753 1.123 1.124zm-3.877-4.124c5.514 0 10 4.486 10 10s-4.486 10-10 10-10-4.486-10-10 4.486-10 10-10zm0-2c-6.627 0-12 5.373-12 12s5.373 12 12 12 12-5.373 12-12-5.373-12-12-12zm.001 14c-2.332 0-4.145 1.636-5.093 2.797l.471.58c1.286-.819 2.732-1.308 4.622-1.308s3.336.489 4.622 1.308l.471-.58c-.948-1.161-2.761-2.797-5.093-2.797zm-3.501-5c-.828 0-1.5.671-1.5 1.5s.672 1.5 1.5 1.5 1.5-.671 1.5-1.5-.672-1.5-1.5-1.5zm7 0c-.828 0-1.5.671-1.5 1.5s.672 1.5 1.5 1.5 1.5-.671 1.5-1.5-.672-1.5-1.5-1.5z"/></svg>