<svg xmlns="http://www.w3.org/2000/svg" width="24" height="24" viewBox="0 0 24 24"><path d="M12 2c5.514 0 10 4.486 10 10s-4.486 10-10 10-10-4.486-10-10 4.486-10 10-10zm0-2c-6.627 0-12 5.373-12 12s5.373 12 12 12 12-5.373 12-12-5.373-12-12-12zm6 10.002l-.755.506s-.503-.948-1.746-.948c-1.207 0-1.745.948-1.745.948l-.754-.506c.281-.748 1.205-2.002 2.499-2.002 1.295 0 2.218 1.254 2.501 2.002zm-7 0l-.755.506s-.503-.948-1.746-.948c-1.207 0-1.745.948-1.745.948l-.754-.506c.281-.748 1.205-2.002 2.499-2.002 1.295 0 2.218 1.254 2.501 2.002zm6.636 5.569c-1.352-.549-2.988-2.619-4.462-2.619-.406 0-.802.158-1.174.548-.387-.419-.803-.587-1.23-.587-1.7 0-3.578 2.658-4.442 2.658 2.353 1.11 2.521 3.342 5.673 3.342 2.632 0 3.462-2.173 5.673-3.342h-.038zm-5.629.658c-1.084 0-1.756-.501-2.548-.547.804-.031 1.54-.437 2.548-.404 1.009.035 1.797.318 2.625.401-.793.108-1.603.55-2.625.55z"/></svg>