<svg xmlns="http://www.w3.org/2000/svg" width="24" height="24" viewBox="0 0 24 24"><path d="M22 12c0 5.514-4.486 10-10 10s-10-4.486-10-10 4.486-10 10-10 10 4.486 10 10zm2 0c0-6.627-5.373-12-12-12s-12 5.373-12 12 5.373 12 12 12 12-5.373 12-12zm-14 6v-12c-1.465.331-4 2.827-4 6.001 0 3.134 2.521 5.665 4 5.999zm3.998 0l-.506-.755s.947-.503.947-1.746c0-1.207-.947-1.745-.947-1.745l.506-.754c.748.281 2.002 1.205 2.002 2.499 0 1.295-1.254 2.218-2.002 2.501zm0-7l-.506-.755s.947-.503.947-1.746c0-1.207-.947-1.745-.947-1.745l.506-.754c.748.281 2.002 1.205 2.002 2.499 0 1.295-1.254 2.218-2.002 2.501z"/></svg>