<svg xmlns="http://www.w3.org/2000/svg" width="24" height="24" viewBox="0 0 24 24"><path d="M20 9.352c0-4.852-4.75-8.352-10-8.352-5.281 0-10 3.527-10 8.352 0 1.71.615 3.39 1.705 4.695.047 1.527-.85 3.719-1.66 5.312 2.168-.391 5.252-1.258 6.648-2.115 7.698 1.877 13.307-2.842 13.307-7.892zm-13.92 2.21c-.347.275-.83.413-1.45.413-.53 0-1.001-.102-1.408-.306l.228-.902c.412.208.828.312 1.251.312.244 0 .435-.046.571-.139.262-.179.278-.539.02-.743-.125-.097-.337-.197-.641-.298-.915-.305-1.371-.781-1.371-1.43 0-.42.167-.765.503-1.036.337-.271.786-.407 1.344-.407.488 0 .913.083 1.279.249l-.248.873c-.334-.156-.684-.233-1.045-.233-.221 0-.396.043-.522.128-.25.169-.245.475-.03.655.106.089.356.205.759.347.442.156.767.35.973.581.205.231.308.518.308.861 0 .441-.175.799-.521 1.075zm5.531.334c-.076-1.901-.113-3.191-.113-3.868h-.023c-.114.509-.503 1.773-1.165 3.789h-.859c-.397-1.391-.981-3.789-.981-3.789h-.015l-.169 3.868h-1.025l.305-4.792h1.492l.845 3.306 1.024-3.306h1.509l.257 4.792h-1.082zm4.637-.314c-.348.277-.842.418-1.465.418-.506 0-.983-.089-1.439-.317l.241-.956c.4.205.811.325 1.269.325.237 0 .425-.044.555-.135.252-.169.262-.508.02-.7-.122-.095-.334-.193-.632-.294-.923-.306-1.392-.794-1.392-1.454 0-.425.174-.781.516-1.056.338-.275.796-.413 1.358-.413.49 0 .924.084 1.291.25l.02.01-.264.926c-.337-.159-.674-.246-1.061-.246-.215 0-.387.042-.509.124-.234.161-.229.444-.026.615.103.085.354.201.75.342.445.156.775.355.982.588.209.236.316.53.316.879.001.447-.178.815-.53 1.094zm6.636 7.939c-.029 1.001.558 2.435 1.088 3.479-1.419-.258-3.438-.824-4.352-1.385-3.279.798-6.064-.223-7.577-2.1.596-.086 1.178-.205 1.74-.364 1.824 1.552 3.962 1.374 6.089.855.687.422.773.507 1.665.813-.187-.816-.158-1.12-.138-1.865 1.793-2.14 1.213-4.104-.464-5.365.239-.455.439-.928.601-1.416 2.891 1.913 3.103 5.251 1.348 7.348z"/></svg>