<svg xmlns="http://www.w3.org/2000/svg" width="24" height="24" viewBox="0 0 24 24"><path d="M2.001 9.352c0 1.873.849 2.943 1.683 3.943.031 1 .085 1.668-.333 3.183 1.748-.558 2.038-.778 3.008-1.374 1 .244 1.474.381 2.611.491-.094.708-.081 1.275.055 2.023-.752-.06-1.528-.178-2.33-.374-1.397.857-4.481 1.725-6.649 2.115.811-1.595 1.708-3.785 1.661-5.312-1.09-1.305-1.705-2.984-1.705-4.695-.001-4.826 4.718-8.352 9.999-8.352 5.237 0 9.977 3.484 9.998 8.318-.644-.175-1.322-.277-2.021-.314-.229-3.34-3.713-6.004-7.977-6.004-4.411 0-8 2.85-8 6.352zm20.883 10.169c-.029 1.001.558 2.435 1.088 3.479-1.419-.258-3.438-.824-4.352-1.385-.772.188-1.514.274-2.213.274-3.865 0-6.498-2.643-6.498-5.442 0-3.174 3.11-5.467 6.546-5.467 3.457 0 6.546 2.309 6.546 5.467 0 1.12-.403 2.221-1.117 3.074zm-7.424-2.429c0-.206-.061-.378-.184-.517-.125-.139-.318-.255-.584-.349-.242-.085-.393-.155-.455-.208-.129-.108-.133-.292.018-.394.075-.051.18-.077.312-.077.217 0 .428.046.627.14l.15-.524c-.221-.1-.475-.149-.768-.149-.336 0-.605.082-.807.244s-.303.37-.303.622c0 .39.273.675.822.858.184.061.311.121.385.179.156.123.146.338-.012.446-.082.056-.195.083-.342.083-.255 0-.504-.062-.752-.188l-.137.542c.244.123.527.184.846.184.371 0 .662-.083.869-.248.211-.164.315-.379.315-.644zm3.656.846l-.154-2.875h-.906l-.613 1.983-.508-1.983h-.895l-.184 2.875h.615l.102-2.321h.008s.352 1.439.59 2.273h.516c.396-1.209.631-1.968.699-2.273h.014c0 .406.021 1.18.067 2.321h.649zm2.451-.846c0-.209-.064-.386-.189-.527-.124-.14-.322-.259-.59-.353-.237-.084-.389-.154-.449-.205-.123-.103-.125-.273.016-.369.072-.049.176-.074.305-.074.232 0 .435.052.637.147l.158-.556-.012-.006c-.221-.1-.48-.15-.774-.15-.338 0-.612.083-.815.248-.205.165-.311.379-.311.634 0 .396.281.688.836.872.179.061.306.12.379.177.146.115.14.318-.012.42-.078.054-.19.081-.333.081-.274 0-.521-.072-.761-.195l-.145.574c.273.136.559.19.863.19.374 0 .67-.084.879-.251.211-.167.318-.388.318-.657z"/></svg>