<svg xmlns="http://www.w3.org/2000/svg" width="24" height="24" viewBox="0 0 24 24"><path d="M15.454 0c-3.457 0-6.546 2.309-6.546 5.467 0 1.12.403 2.221 1.117 3.073.029 1.001-.558 2.435-1.088 3.479 1.419-.258 3.438-.824 4.352-1.385.772.188 1.514.274 2.213.274 3.865 0 6.498-2.643 6.498-5.442 0-3.173-3.11-5.466-6.546-5.466zm-2.308 6.756c-.207.165-.498.248-.869.248-.318 0-.602-.061-.846-.184l.137-.542c.248.125.497.188.752.188.146 0 .26-.027.342-.083.158-.107.168-.323.012-.446-.074-.058-.201-.118-.385-.179-.549-.183-.822-.468-.822-.858 0-.252.102-.459.303-.622s.471-.244.807-.244c.293 0 .547.049.768.149l-.15.524c-.199-.094-.41-.14-.627-.14-.133 0-.237.026-.312.077-.15.102-.146.285-.018.394.062.053.213.123.455.208.266.094.459.21.584.349.123.139.184.311.184.517-.002.264-.106.479-.315.644zm3.32.201c-.046-1.141-.067-1.915-.067-2.321h-.014c-.069.306-.303 1.064-.699 2.274h-.516c-.238-.834-.59-2.273-.59-2.273h-.008l-.102 2.321h-.615l.184-2.875h.895l.508 1.983.613-1.983h.906l.154 2.875h-.649zm2.782-.188c-.209.167-.505.251-.879.251-.304 0-.59-.054-.863-.19l.145-.574c.24.123.486.195.761.195.143 0 .255-.027.333-.081.151-.102.157-.305.012-.42-.073-.057-.2-.116-.379-.177-.555-.184-.836-.477-.836-.872 0-.255.105-.469.311-.634.203-.165.478-.248.815-.248.294 0 .554.05.774.15l.012.006-.158.556c-.202-.095-.404-.147-.637-.147-.129 0-.232.025-.305.074-.141.096-.139.267-.016.369.061.051.212.121.449.205.268.094.466.213.59.353.125.142.189.318.189.527 0 .268-.107.489-.318.657zm-7.248 6.548v2.683h-8v-8h3.414c-.428-1.06-.552-2.027-.478-3h-2.936c-1.104 0-2 .896-2 2v15c0 1.104.896 2 2 2h8c1.104 0 2-.896 2-2v-9.484c-.509.305-1.432.624-2 .801zm-6 7.683h-2v-1h2v1zm0-2h-2v-1h2v1zm3 2h-2v-1h2v1zm0-2h-2v-1h2v1zm3 2h-2v-1h2v1zm0-2h-2v-1h2v1z"/></svg>