<svg width="24" height="24" xmlns="http://www.w3.org/2000/svg" fill-rule="evenodd" clip-rule="evenodd"><path d="M12 0c6.623 0 12 5.377 12 12s-5.377 12-12 12-12-5.377-12-12 5.377-12 12-12zm0 2c5.519 0 10 4.481 10 10s-4.481 10-10 10-10-4.481-10-10 4.481-10 10-10zm0 3c3.311 0 6 2.689 6 6s-2.689 6-6 6-6-2.689-6-6 2.689-6 6-6zm1.596 5.856c.394-.308.644-.75.644-1.356 0-1.308-1-2-2.24-2-1.24 0-2.24.692-2.24 2 0 .606.25 1.048.644 1.356-.567.365-.875.952-.875 1.615 0 1.231.884 2.029 2.471 2.029 1.587 0 2.471-.798 2.471-2.029 0-.663-.308-1.25-.875-1.615zm-1.596 2.202c-.538 0-.933-.298-.933-.808s.395-.808.933-.808.933.298.933.808-.395.808-.933.808zm0-4.116c.433 0 .702.279.702.654s-.269.654-.702.654c-.433 0-.702-.279-.702-.654s.269-.654.702-.654z"/></svg>