<svg xmlns="http://www.w3.org/2000/svg" width="24" height="24" viewBox="0 0 24 24"><path d="M8 10v4h4l-6 8-6-8h4v-4h-4l6-8 6 8h-4zm12.206-5.236v6.236h1.794v-9h-1.462c0 1.61-2.089 1.552-2.538 1.572v1.192h2.206zm-1.396 13.451c1.006.896 2.661 1.016 3.486-.021-.055 1.139-.254 2.417-1.409 2.417-.583 0-.937-.355-1.014-.855h-1.688c.153 1.472 1.344 2.244 2.626 2.244 2.432 0 3.189-2.163 3.189-4.596 0-1.073-.139-1.938-.416-2.595-.909-2.167-3.585-2.155-4.771-.881-1.034 1.11-1.112 3.298-.003 4.287zm1.231-1.051c-.42-.516-.478-1.928.176-2.438.448-.353 1.248-.354 1.678.185.465.582.529 1.946-.234 2.435-.515.333-1.275.24-1.62-.182z"/></svg>