<svg xmlns="http://www.w3.org/2000/svg" width="24" height="24" viewBox="0 0 24 24"><path d="M12 2c5.514 0 10 4.486 10 10s-4.486 10-10 10-10-4.486-10-10 4.486-10 10-10zm0-2c-6.627 0-12 5.373-12 12s5.373 12 12 12 12-5.373 12-12-5.373-12-12-12zm-2.709 15h-.541v-4.4c.167-.126.347-.234.541-.309v4.709zm1.625 0h.543v-5.031c-.125.145-.24.299-.337.468l-.206-.101v4.664zm-1.082 0h.541v-4.826c-.274-.043-.337-.027-.541-.005v4.831zm-2.168 0h.543v-3.829c-.17.25-.302.529-.375.836l-.168-.099v3.092zm-1.625-2.863c-.329.298-.541.738-.541 1.236 0 .499.212.938.541 1.238v-2.474zm10.227-.366c-.11-1.548-1.302-2.771-2.772-2.771-.554 0-1.064.179-1.496.479v5.521h4.924c.87 0 1.576-.76 1.576-1.695 0-1.218-1.174-2.056-2.232-1.534zm-9.143-.016c-.163-.014-.285-.017-.541.066v3.103c.241.078.345.076.541.076v-3.245z"/></svg>