<svg xmlns="http://www.w3.org/2000/svg" width="24" height="24" viewBox="0 0 24 24"><path d="M7.694 21c-1.965 0-3.089-1.547-3.688-3.46-.219-.704-.425-1.461-1.417-2.472-1.656-1.69-2.589-3.951-2.589-6.015 0-3.443 2.713-6.053 5.693-6.053 3.532 0 6.206 3.094 4.449 7.927l-1.877-.673c1.24-3.496-.417-5.269-2.547-5.269-1.711 0-3.416 1.421-3.687 3.456-.228 1.71.513 3.732 1.981 5.229 1.377 1.404 1.677 2.506 1.94 3.397.291.973.79 1.912 1.8 1.912 1.083 0 1.918-1.224.703-2.826l1.752-.985c2.022 3.098-.019 5.832-2.513 5.832zm-.238-7.232c-1.014.536-1.932-.236-2.34-1.181-.389-.901-.153-1.933.628-2.761.537-.57.792-1.22.68-1.74-.042-.198-.16-.462-.479-.593-.318-.131-.604-.123-.87.025-.427.237-.765.814-.883 1.505l-1.21-.206c.181-1.066.742-1.953 1.498-2.372.598-.331 1.266-.361 1.932-.086.625.257 1.066.792 1.212 1.47.2.929-.16 1.964-.987 2.841 1.684.419 1.89 2.445.819 3.098zm7.903 3.81l1.081-6.964 1.104 4.742c.109.486.784.541.968.073l1.001-2.557.934 2.176c.155.361.644.417.876.1l.85-1.156h1.337c.271 0 .49-.22.49-.492 0-.271-.22-.49-.49-.49h-1.599c-.162 0-.315.078-.41.208l-.472.612-1.071-2.496c-.179-.417-.773-.408-.939.016l-.848 2.168-1.308-6.102c-.123-.548-.907-.517-.996.03l-1.084 7-1.108-4.118c-.124-.492-.817-.52-.975-.032l-.825 2.704h-1.664c-.271 0-.49.22-.49.49v.012c0 .271.22.49.49.49h2.063c.184 0 .382-.148.434-.324l.411-1.387 1.247 5.338c.135.537.905.501.993-.041z"/></svg>