<svg xmlns="http://www.w3.org/2000/svg" width="24" height="24" viewBox="0 0 24 24"><path d="M19.803 13.207l-.829 1.093-1.554-3.826c-.077-.189-.244-.306-.437-.306-.157 0-.356.084-.444.321l-1.356 3.664-1.872-8.759c-.062-.291-.288-.394-.462-.394-.203 0-.428.131-.473.424l-1.629 10.581-1.658-6.968c-.067-.282-.291-.382-.463-.382-.167 0-.374.092-.453.349l-1.453 4.753-1.07-2.53c-.078-.185-.245-.299-.436-.299-.154 0-.294.076-.385.209l-1.257 1.805-.087.058h-2.985c-.276 0-.5.224-.5.5s.224.5.5.5h3.284c.152 0 .296-.074.386-.206l.948-1.353 1.24 2.929c.079.187.241.299.433.299.211 0 .39-.138.455-.35l1.324-4.332 1.814 7.629c.068.283.282.384.46.384.203 0 .428-.131.473-.425l1.605-10.425 1.673 7.83c.058.272.277.395.467.395.202 0 .366-.12.441-.321l1.5-4.049 1.426 3.51c.077.189.245.306.438.306.152 0 .292-.075.382-.206l1.146-1.583.087-.046h3.026c.272 0 .492-.22.492-.492s-.22-.494-.492-.494h-3.322c-.151 0-.294.077-.383.207z"/></svg>