<svg xmlns="http://www.w3.org/2000/svg" width="24" height="24" viewBox="0 0 24 24"><path d="M0 0v24h24v-24h-24zm4.667 15.524c-.405-.365-.667-.903-.667-1.512 0-.608.262-1.146.667-1.512v3.024zm1.333.476c-.243 0-.369.003-.667-.092v-3.792c.316-.101.465-.097.667-.081v3.965zm1.333 0h-.666v-3.778l.206.121c.091-.375.253-.718.461-1.023v4.68zm1.334 0h-.667v-5.378c.206-.154.426-.286.667-.377v5.755zm1.333 0h-.667v-5.905c.251-.027.328-.046.667.006v5.899zm1.333 0h-.667v-5.7l.253.123c.119-.207.261-.395.414-.572v6.149zm6.727 0h-6.06v-6.748c.532-.366 1.16-.585 1.841-.585 1.809 0 3.275 1.494 3.411 3.386 1.302-.638 2.748.387 2.748 1.876 0 1.143-.869 2.071-1.94 2.071z"/></svg>