<svg xmlns="http://www.w3.org/2000/svg" width="24" height="24" viewBox="0 0 24 24"><path d="M20 9.352c0-4.852-4.751-8.352-10-8.352-5.281 0-10 3.526-10 8.352 0 1.711.615 3.391 1.705 4.695.047 1.527-.851 3.718-1.661 5.312 2.168-.391 5.252-1.258 6.649-2.115 7.697 1.877 13.307-2.842 13.307-7.892zm-14.5 1.38c-.689 0-1.25-.56-1.25-1.25s.561-1.25 1.25-1.25 1.25.56 1.25 1.25-.561 1.25-1.25 1.25zm4.5 0c-.689 0-1.25-.56-1.25-1.25s.561-1.25 1.25-1.25 1.25.56 1.25 1.25-.561 1.25-1.25 1.25zm4.5 0c-.689 0-1.25-.56-1.25-1.25s.561-1.25 1.25-1.25 1.25.56 1.25 1.25-.561 1.25-1.25 1.25zm8.383 8.789c-.029 1.001.558 2.435 1.088 3.479-1.419-.258-3.438-.824-4.352-1.385-3.365.818-6.114-.29-7.573-2.1 4.557-.66 8.241-3.557 9.489-7.342 1.48.979 2.465 2.491 2.465 4.274 0 1.12-.403 2.221-1.117 3.074z"/></svg>