<svg xmlns="http://www.w3.org/2000/svg" width="24" height="24" viewBox="0 0 24 24"><path d="M17.454 12.537c2.782 0 5.046 1.779 5.046 3.967 0 1.12-.462 1.745-1.102 2.509-.021.746-.049 1.054.139 1.866-.891-.306-.986-.396-1.666-.813-.894.218-1.489.38-2.465.38-3.087 0-4.998-2.046-4.998-3.942 0-2.188 2.264-3.967 5.046-3.967zm0-1.5c-3.436 0-6.546 2.292-6.546 5.467 0 2.799 2.633 5.442 6.498 5.442.699 0 1.44-.087 2.213-.275.914.561 2.933 1.128 4.352 1.385-.53-1.044-1.117-2.479-1.088-3.479.714-.853 1.117-1.953 1.117-3.073 0-3.158-3.089-5.467-6.546-5.467zm-8.485 4.614c-1.138-.11-1.611-.247-2.611-.491-.97.596-1.26.815-3.008 1.374.418-1.514.364-2.183.333-3.183-.834-1-1.683-2.07-1.683-3.943 0-3.502 3.589-6.352 8-6.352 4.264 0 7.748 2.664 7.978 6.004.698.038 1.377.14 2.021.315-.022-4.834-4.762-8.319-9.999-8.319-5.281 0-10 3.527-10 8.352 0 1.71.615 3.391 1.705 4.695.047 1.527-.851 3.718-1.661 5.313 2.168-.391 5.252-1.258 6.649-2.115.802.196 1.578.314 2.33.374-.135-.749-.148-1.317-.054-2.024z"/></svg>