<svg width="24" height="24" xmlns="http://www.w3.org/2000/svg" fill-rule="evenodd" clip-rule="evenodd"><path d="M24 0v24h-24v-24h24zm-12 4c-4.418 0-8 3.582-8 8 0 4.419 3.582 8 8 8s8-3.581 8-8c0-4.418-3.582-8-8-8zm3.669 11.539c-.144.236-.451.31-.686.166-1.878-1.148-4.243-1.408-7.028-.772-.268.062-.535-.106-.597-.375-.061-.268.106-.535.375-.596 3.048-.697 5.662-.397 7.771.891.235.144.309.451.165.686zm.979-2.178c-.181.293-.565.385-.858.205-2.15-1.322-5.428-1.704-7.972-.932-.33.099-.678-.087-.778-.416-.1-.33.086-.677.416-.778 2.905-.881 6.517-.454 8.987 1.063.293.181.385.565.205.858zm.084-2.269c-2.578-1.531-6.832-1.672-9.294-.925-.395.12-.813-.103-.933-.498-.12-.396.103-.814.499-.934 2.826-.858 7.523-.692 10.492 1.07.356.211.472.671.262 1.026-.211.355-.671.472-1.026.261z"/></svg>