<svg xmlns="http://www.w3.org/2000/svg" width="24" height="24" viewBox="0 0 24 24"><path d="M19 0h-14c-2.761 0-5 2.239-5 5v14c0 2.761 2.239 5 5 5h14c2.762 0 5-2.239 5-5v-14c0-2.761-2.238-5-5-5zm-8.512 8.272l5.532 3.243-.686 1.162-5.533-3.243.687-1.162zm-1.456 3.113l6.185 1.739-.332 1.23-6.204-1.667.351-1.302zm-.672 2.813l6.498.65-.117 1.28-6.504-.586.123-1.344zm-.193 2.469h6.667v1.333h-6.667v-1.333zm8.833 3.333h-11v-7h1v6h9v-6h1v7zm-.852-8.704l-3.56-5.219 1.115-.76 3.559 5.219-1.114.76zm1.356-.841l-1.08-6.224 1.328-.231 1.082 6.224-1.33.231z"/></svg>