<svg xmlns="http://www.w3.org/2000/svg" width="24" height="24" viewBox="0 0 24 24"><path d="M12 0c-6.627 0-12 5.373-12 12s5.373 12 12 12 12-5.373 12-12-5.373-12-12-12zm0 22c-4.738 0-8.71-3.317-9.735-7.749l3.752 1.578c.244 1.235 1.338 2.182 2.67 2.171 1.477-.014 2.662-1.211 2.672-2.682l.006-.003 3.087-2.301c1.975.021 3.548-1.571 3.548-3.506 0-1.937-1.572-3.508-3.508-3.508-1.915 0-3.47 1.535-3.506 3.441l-2.263 3.166c-.572-.012-1.087.145-1.535.438l-5.123-2.155c.555-4.994 4.797-8.89 9.935-8.89 5.514 0 10 4.486 10 10s-4.486 10-10 10zm-2.753-8.091l-1.322-.555c.249-.094.492-.137.738-.137 1.138 0 2.074.926 2.084 2.065.01 1.153-.912 2.094-2.066 2.104-.867.004-1.602-.513-1.928-1.248l1.324.556c.769.323 1.653-.039 1.977-.807.324-.768-.037-1.654-.807-1.978zm2.861-4.401c0-1.315 1.069-2.384 2.384-2.384s2.384 1.069 2.384 2.384c0 1.314-1.069 2.385-2.384 2.385s-2.384-1.07-2.384-2.385zm2.384 1.801c-.994 0-1.802-.807-1.802-1.8s.808-1.801 1.802-1.801c.993 0 1.8.809 1.8 1.801 0 .992-.807 1.8-1.8 1.8z"/></svg>