<svg xmlns="http://www.w3.org/2000/svg" width="24" height="24" viewBox="0 0 24 24"><path d="M20 11.92v5.444c-.004 3.11-2.34 4.636-4.479 4.636-1.806 0-3.521-1.089-3.521-3.232 0-2.477 3.025-4.729 6-4.141v-2.707c.737.107 1.263.107 2 0zm-7.925-7.89l-6.071 1.555v11.04c-2.979-.589-6.004 1.671-6.004 4.154 0 2.137 1.671 3.221 3.485 3.221 2.155 0 4.512-1.528 4.515-4.638v-8.9l5.37-1.32c-1.053-1.428-1.561-3.205-1.295-5.112zm2.642-.697c1.306 0 1.398.905 1.691 1.755.129.373.164.56.275.56.13 0 .177-.23.324-.691.204-.633.509-1.628 1.22-1.628.685 0 .978.91 1.235 1.669.137.406.191.65.308.65.122 0 .202-.245.339-.65.248-.747.516-1.669 1.205-1.669.678 0 .985.891 1.171 1.479.256.814.332 1.025.806 1.025h.635c.045-.271.074-.548.074-.833 0-2.761-2.238-5-5-5-2.177 0-4.023 1.392-4.711 3.333h.428zm8.992 3.334c-.687 1.941-2.532 3.333-4.709 3.333-2.762 0-5-2.239-5-5 0-.285.029-.562.074-.833h.684c.458 0 .503.196.755 1.014.171.553.484 1.479 1.171 1.479.694 0 .988-.941 1.253-1.722.145-.423.176-.598.291-.598.123 0 .158.195.3.622.256.771.55 1.698 1.243 1.698.622 0 .92-.765 1.136-1.379.247-.702.282-.964.408-.964.128 0 .152.228.373.864.358 1.026.586 1.485 1.543 1.485h.478z"/></svg>