<svg xmlns="http://www.w3.org/2000/svg" width="24" height="24" viewBox="0 0 24 24"><path d="M12 2c5.514 0 10 4.486 10 10s-4.486 10-10 10-10-4.486-10-10 4.486-10 10-10zm0-2c-6.627 0-12 5.373-12 12s5.373 12 12 12 12-5.373 12-12-5.373-12-12-12zm.636 10.62l.79.439 1.25-.422v-.848c0-1.463-1.221-2.601-2.676-2.601-1.449 0-2.678 1.065-2.678 2.585v3.874c0 .351-.284.635-.635.635-.35 0-.635-.284-.635-.635v-1.642h-2.052v1.664c0 1.481 1.201 2.682 2.682 2.682 1.47 0 2.662-1.18 2.683-2.644v-3.826c0-.352.286-.636.636-.636s.636.284.636.636v.739zm3.311 1.385v1.719c0 .351-.285.635-.635.635-.351 0-.637-.284-.637-.635v-1.687l-1.25.424-.79-.441v1.672c.012 1.471 1.208 2.659 2.683 2.659 1.48 0 2.682-1.201 2.682-2.682v-1.664h-2.053z"/></svg>