<svg xmlns="http://www.w3.org/2000/svg" width="24" height="24" viewBox="0 0 24 24"><path d="M12 0c-6.627 0-12 5.373-12 12s5.373 12 12 12 12-5.373 12-12-5.373-12-12-12zm0 8.792c-.408 0-.742.332-.742.741v4.464c-.023 1.708-1.414 3.084-3.129 3.084-1.728.001-3.129-1.4-3.129-3.128v-1.941h2.395v1.915c0 .409.333.741.741.741.409 0 .74-.332.74-.741v-4.52s1.434-3.016 3.124-3.016c1.697 0 3.122 1.328 3.122 3.035v.989l-1.459.493-.921-.513v-.862c0-.409-.334-.741-.742-.741zm7 5.161c0 1.729-1.401 3.129-3.129 3.129-1.72 0-3.115-1.386-3.129-3.102v-1.951l.921.514 1.459-.494v1.967c0 .409.333.741.742.741.408 0 .741-.332.741-.741v-2.005h2.395v1.942z"/></svg>