<svg xmlns="http://www.w3.org/2000/svg" width="24" height="24" viewBox="0 0 24 24"><path d="M19 0h-14c-2.761 0-5 2.239-5 5v14c0 2.761 2.239 5 5 5h14c2.762 0 5-2.239 5-5v-14c0-2.761-2.238-5-5-5zm-7 8.338c-.467 0-.847.379-.847.847v5.103c-.027 1.951-1.618 3.525-3.576 3.525-1.975-.001-3.577-1.602-3.577-3.577v-2.218h2.737v2.189c0 .468.38.847.847.847s.846-.379.846-.847v-5.166s1.638-3.447 3.57-3.447c1.939 0 3.568 1.518 3.568 3.468v1.13l-1.668.564-1.053-.587v-.984c0-.468-.38-.847-.847-.847zm8 5.898c0 1.976-1.602 3.577-3.576 3.577-1.965 0-3.56-1.584-3.577-3.545v-2.229l1.053.587 1.668-.564v2.248c0 .468.381.847.848.847s.848-.379.848-.847v-2.292h2.736v2.218z"/></svg>