<svg xmlns="http://www.w3.org/2000/svg" width="24" height="24" viewBox="0 0 24 24"><path d="M12 2c5.514 0 10 4.486 10 10s-4.486 10-10 10-10-4.486-10-10 4.486-10 10-10zm0-2c-6.627 0-12 5.373-12 12s5.373 12 12 12 12-5.373 12-12-5.373-12-12-12zm-2.527 7.708c.741-.444 1.6-.708 2.527-.708 2.757 0 5 2.243 5 5h2c0-3.86-3.141-7-7-7-1.336 0-2.58.385-3.641 1.038l-1.359-2.038-1.719 6h5.719l-1.527-2.292zm5.054 8.584c-.741.444-1.6.708-2.527.708-2.757 0-5-2.243-5-5h-2c0 3.86 3.141 7 7 7 1.336 0 2.58-.385 3.641-1.038l1.359 2.038 1.719-6h-5.719l1.527 2.292z"/></svg>