<svg xmlns="http://www.w3.org/2000/svg" width="24" height="24" viewBox="0 0 24 24"><path d="M18.312 5.595l1.296-1.527c.727.698 1.354 1.495 1.869 2.369l-1.776.931c-.39-.648-.853-1.246-1.389-1.773zm3.844 2.179l-1.787.937c.255.647.435 1.33.533 2.039h2.021c-.117-1.043-.378-2.042-.767-2.976zm-14.81-3.46c1.358-.83 2.948-1.314 4.654-1.314 1.919 0 3.695.608 5.157 1.636l1.298-1.529c-1.814-1.319-4.04-2.107-6.455-2.107-2.131 0-4.106.624-5.789 1.673l-1.85-2.673-2.152 7h6.994l-1.857-2.686zm13.642 7.936c-.027.962-.206 1.885-.514 2.75h2.101c.249-.878.401-1.798.425-2.75h-2.012zm-15.3 6.155l-1.295 1.527c-.727-.698-1.355-1.495-1.869-2.369l1.775-.931c.39.648.853 1.246 1.389 1.773zm-3.844-2.179l1.787-.937c-.254-.647-.434-1.33-.533-2.039h-2.022c.119 1.043.379 2.042.768 2.976zm14.81 3.46c-1.357.83-2.947 1.314-4.654 1.314-1.918 0-3.695-.608-5.156-1.636l-1.299 1.529c1.814 1.319 4.041 2.107 6.455 2.107 2.131 0 4.107-.624 5.789-1.673l1.85 2.673 2.152-7h-6.994l1.857 2.686zm-13.642-7.936c.027-.962.207-1.885.513-2.75h-2.1c-.249.878-.402 1.798-.425 2.75h2.012z"/></svg>