<svg xmlns="http://www.w3.org/2000/svg" width="24" height="24" viewBox="0 0 24 24"><path d="M12 1c6.074 0 11 4.925 11 11 0 1.042-.154 2.045-.425 3h-2.101c.335-.94.526-1.947.526-3 0-4.962-4.037-9-9-9-1.706 0-3.296.484-4.654 1.314l1.857 2.686h-6.994l2.152-7 1.85 2.673c1.683-1.049 3.658-1.673 5.789-1.673zm4.646 18.692c-1.357.826-2.944 1.308-4.646 1.308-4.963 0-9-4.038-9-9 0-1.053.191-2.06.525-3h-2.1c-.271.955-.425 1.958-.425 3 0 6.075 4.925 11 11 11 2.127 0 4.099-.621 5.78-1.667l1.853 2.667 2.152-6.989h-6.994l1.855 2.681zm-6.54-4.7c.485-.514 1.154-.832 1.894-.832s1.408.318 1.894.832l-1.894 2.008-1.894-2.008zm-.874-.927c.709-.751 1.688-1.215 2.768-1.215s2.059.465 2.768 1.216l1.164-1.236c-1.006-1.067-2.396-1.727-3.932-1.727s-2.926.66-3.932 1.727l1.164 1.235zm-2.038-2.163c1.23-1.304 2.929-2.11 4.806-2.11s3.576.807 4.806 2.111l1.194-1.267c-1.535-1.629-3.656-2.636-6-2.636s-4.465 1.007-6 2.636l1.194 1.266z"/></svg>