<svg xmlns="http://www.w3.org/2000/svg" width="24" height="24" viewBox="0 0 24 24"><path d="M2.955 18.251c-1.23-1.775-1.955-3.927-1.955-6.251 0-1.042.154-2.045.425-3h2.101c-.335.94-.526 1.947-.526 3 0 1.73.5 3.343 1.35 4.717l-1.395 1.534zm4.39-13.937c1.359-.83 2.949-1.314 4.655-1.314 1.426 0 2.771.342 3.97.935l1.394-1.534c-1.588-.889-3.415-1.401-5.364-1.401-2.131 0-4.106.624-5.79 1.673l-1.849-2.673-2.152 7h6.994l-1.858-2.686zm15.23 10.686c.271-.955.425-1.958.425-3 0-2.865-1.113-5.457-2.91-7.412l2.91-3.242-1.448-1.346-20.552 22.654 1.422 1.346 2.962-3.236c1.841 1.397 4.126 2.236 6.616 2.236 2.127 0 4.099-.621 5.78-1.667l1.853 2.667 2.152-6.989h-6.994l1.854 2.681c-1.356.826-2.943 1.308-4.645 1.308-1.969 0-3.785-.643-5.266-1.721l12.011-13.212c1.4 1.584 2.255 3.658 2.255 5.933 0 1.053-.191 2.06-.525 3h2.1z"/></svg>