<svg xmlns="http://www.w3.org/2000/svg" width="24" height="24" viewBox="0 0 24 24"><path d="M11.602 21.564l-1.368 1.436-10.234-10.258v-7.742h2v6.891l9.602 9.673zm12.398-8.454l-9.027 9.027-10.973-11.123v-9.014h8.877l11.123 11.11zm-14.263-5.374c.684-.684.682-1.791-.001-2.475-.684-.684-1.791-.684-2.475 0s-.684 1.791 0 2.475 1.793.684 2.476 0zm4.421 6.848l-3.535-3.537-.707.707 3.535 3.537.707-.707zm2.828 0l-4.949-4.951-.707.707 4.949 4.951.707-.707zm1.415-1.416l-4.95-4.949-.707.707 4.95 4.949.707-.707z"/></svg>