<svg xmlns="http://www.w3.org/2000/svg" width="24" height="24" viewBox="0 0 24 24"><path d="M9.777 2l11.395 11.395-7.779 7.777-11.393-11.39v-7.782h7.777zm.828-2l-10.604.001v10.609l13.392 13.39 10.607-10.605-13.395-13.395zm-6.019 7.414c-.78-.781-.779-2.047.002-2.827.781-.782 2.047-.781 2.826-.003.783.783.782 2.049 0 2.83-.779.781-2.045.781-2.828 0zm5.824 7.947l-3.537-3.535.709-.707 3.535 3.535-.707.707zm4.242 0l-5.658-5.656.708-.708 5.657 5.657-.707.707zm2.121-2.121l-5.657-5.657.707-.707 5.657 5.657-.707.707z"/></svg>