<svg xmlns="http://www.w3.org/2000/svg" width="24" height="24" viewBox="0 0 24 24"><path d="M9.777 2l11.394 11.395-7.78 7.777-11.391-11.391v-7.781h7.777zm.828-2h-10.605v10.609l13.391 13.391 10.609-10.604-13.395-13.396zm-4.104 5c.4 0 .776.156 1.059.438.585.586.585 1.539.001 2.123-.285.283-.661.439-1.061.439s-.777-.156-1.06-.438c-.585-.586-.586-1.538-.001-2.123.284-.283.661-.439 1.062-.439zm0-1c-.641 0-1.28.244-1.769.732-.977.976-.977 2.558 0 3.536.489.488 1.128.732 1.768.732s1.279-.244 1.768-.733c.977-.977.977-2.558 0-3.537-.488-.486-1.127-.73-1.767-.73z"/></svg>