<svg xmlns="http://www.w3.org/2000/svg" width="24" height="24" viewBox="0 0 24 24"><path d="M13.679 15c-.893 4.057-3.544 7-6.679 7-3.866 0-7-4.477-7-10s3.134-10 7-10c3.135 0 5.786 2.943 6.679 7h-1.491c-.834-2.928-2.843-5-5.188-5-3.088 0-5.6 3.589-5.6 8s2.512 8 5.6 8c2.345 0 4.354-2.072 5.188-5h1.491zm-6.679-9c-2.32 0-4.2 2.686-4.2 6s1.88 6 4.2 6c1.555 0 2.907-1.208 3.634-3h-1.802c-.492.615-1.128 1-1.832 1-1.544 0-2.8-1.794-2.8-4s1.256-4 2.8-4c.704 0 1.34.385 1.832 1h1.802c-.727-1.792-2.079-3-3.634-3zm17 3h-5.718c-.623.937-2.006 2-3.131 2h-6.945c-.242-.595-.689-1-1.206-1-.773 0-1.4.896-1.4 2s.627 2 1.4 2c.517 0 .964-.405 1.206-1h6.938c1.128 0 2.507 1.067 3.129 2h5.704l-1.943-2.944 1.966-3.056z"/></svg>