<svg xmlns="http://www.w3.org/2000/svg" width="24" height="24" viewBox="0 0 24 24"><path d="M12 15c-1.654 0-3 1.346-3 3s1.346 3 3 3 3-1.346 3-3-1.346-3-3-3zm0 5c-1.104 0-2-.896-2-2s.896-2 2-2 2 .896 2 2-.896 2-2 2zm1-2c0 .551-.449 1-1 1s-1-.449-1-1 .449-1 1-1 1 .449 1 1zm5.617-4.428c-2.58-.596-4.98-1.118-3.818-3.313 3.539-6.684.938-10.259-2.799-10.259-3.812 0-6.348 3.711-2.799 10.259 1.197 2.209-1.294 2.731-3.818 3.313-2.339.54-2.383 1.957-2.383 4.428v6h18v-6c0-2.471.016-3.874-2.383-4.428zm-6.617 8.428c-2.209 0-4-1.791-4-4s1.791-4 4-4 4 1.791 4 4-1.791 4-4 4z"/></svg>