<svg xmlns="http://www.w3.org/2000/svg" width="24" height="24" viewBox="0 0 24 24"><path d="M12.943 17.721c.028.09.057.18.057.279 0 .551-.449 1-1 1s-1-.449-1-1 .449-1 1-1c.099 0 .189.03.279.057-.164.082-.279.247-.279.443 0 .276.224.5.5.5.196 0 .361-.115.443-.279zm2.057.279c0 .912-.418 1.721-1.062 2.271-.084-.159-.246-.271-.438-.271-.276 0-.5.224-.5.5 0 .108.042.203.1.285-.341.135-.711.215-1.1.215-1.654 0-3-1.346-3-3 0-.389.08-.758.215-1.1.082.058.177.1.285.1.276 0 .5-.224.5-.5 0-.192-.112-.354-.271-.438.55-.644 1.359-1.062 2.271-1.062 1.654 0 3 1.346 3 3zm-1 0c0-1.104-.896-2-2-2s-2 .896-2 2 .896 2 2 2 2-.896 2-2zm7 0v6h-18v-6c0-2.471.044-3.888 2.383-4.428 2.524-.583 5.016-1.104 3.818-3.313-3.549-6.548-1.013-10.259 2.799-10.259 3.737 0 6.338 3.575 2.799 10.259-1.162 2.196 1.238 2.718 3.818 3.313 2.399.554 2.383 1.957 2.383 4.428zm-14-1.5c0-.276-.224-.5-.5-.5s-.5.224-.5.5.224.5.5.5.5-.224.5-.5zm1 5c0-.276-.224-.5-.5-.5s-.5.224-.5.5.224.5.5.5.5-.224.5-.5zm8-3.5c0-2.209-1.791-4-4-4s-4 1.791-4 4 1.791 4 4 4 4-1.791 4-4zm2 .5c0-.276-.224-.5-.5-.5s-.5.224-.5.5.224.5.5.5.5-.224.5-.5z"/></svg>