<svg xmlns="http://www.w3.org/2000/svg" width="24" height="24" viewBox="0 0 24 24"><path d="M15 11c0 1.657-1.343 3-3 3s-3-1.343-3-3 1.343-3 3-3 3 1.343 3 3zm4.528 8.006l1.446 4.484c.123.383-.35.679-.64.399l-3.26-3.136c-1.518.793-3.242 1.247-5.074 1.247s-3.556-.454-5.075-1.247l-3.26 3.136c-.29.28-.763-.017-.64-.399l1.446-4.484c-2.132-2.006-3.471-4.846-3.471-8.006 0-6.076 4.924-11 11-11s11 4.924 11 11c0 3.16-1.339 6-3.472 8.006zm-7.528.994c4.962 0 9-4.038 9-9s-4.038-9-9-9-9 4.038-9 9 4.038 9 9 9zm7-9c0 3.866-3.134 7-7 7s-7-3.134-7-7 3.134-7 7-7 7 3.134 7 7zm-2 0c0-2.757-2.243-5-5-5s-5 2.243-5 5 2.243 5 5 5 5-2.243 5-5z"/></svg>