<svg xmlns="http://www.w3.org/2000/svg" width="24" height="24" viewBox="0 0 24 24"><path d="M10 16.999c-.553 0-1 .448-1 1s.447 1 1 1 1-.448 1-1v-.008l7.68-5.014c.488-.283 1.352-.168 1.855.079l2.465-1.431-1.578-.784.084-1.816-2.473 1.436c-.035.561-.367 1.368-.852 1.65l-7.691 5.021c-.144-.082-.31-.133-.49-.133zm1.91 1.592l1.078-.704.012.113c0 1.654-1.346 3-3 3s-3-1.346-3-3 1.346-3 3-3c.502 0 .969.136 1.385.354l-1.037.676v.004l-.348-.034c-1.104 0-2 .896-2 2s.896 2 2 2c.884 0 1.625-.578 1.89-1.373l.02-.036zm7.09-.591v6h-18v-6c0-2.471.044-3.888 2.383-4.428 2.524-.583 5.016-1.104 3.818-3.313-3.549-6.548-1.013-10.259 2.799-10.259 3.737 0 6.338 3.575 2.799 10.259-.877 1.658.277 2.361 2.006 2.863l-2.49 1.625c-.655-.466-1.45-.747-2.315-.747-2.209 0-4 1.791-4 4s1.791 4 4 4 4-1.791 4-4c0-.249-.029-.489-.073-.726l4.359-2.846c.704.764.714 1.926.714 3.572z"/></svg>