<?xml version="1.0" encoding="UTF-8" standalone="no"?><!DOCTYPE svg PUBLIC "-//W3C//DTD SVG 1.1//EN" "http://www.w3.org/Graphics/SVG/1.1/DTD/svg11.dtd"><svg width="24px" height="24px" version="1.1" xmlns="http://www.w3.org/2000/svg" xmlns:xlink="http://www.w3.org/1999/xlink" xml:space="preserve" xmlns:serif="http://www.serif.com/" style="fill-rule:evenodd;clip-rule:evenodd;stroke-linejoin:round;stroke-miterlimit:1.41421;"><path id="telegram-2" d="M24,24l-24,0l0,-24l24,0l0,24Zm-7.744,-5.148c0.215,0.153 0.491,0.191 0.738,0.097c0.246,-0.093 0.428,-0.304 0.483,-0.56c0.579,-2.722 1.985,-9.614 2.512,-12.09c0.039,-0.187 -0.027,-0.381 -0.173,-0.506c-0.147,-0.124 -0.351,-0.16 -0.532,-0.093c-2.795,1.034 -11.404,4.264 -14.923,5.567c-0.223,0.082 -0.368,0.297 -0.361,0.533c0.008,0.235 0.167,0.44 0.395,0.509c1.578,0.471 3.65,1.128 3.65,1.128c0,0 0.967,2.924 1.472,4.41c0.063,0.187 0.21,0.334 0.402,0.384c0.193,0.05 0.397,-0.002 0.541,-0.138c0.811,-0.765 2.064,-1.948 2.064,-1.948c0,0 2.381,1.746 3.732,2.707Zm-7.34,-5.784l1.119,3.692l0.249,-2.338c0,0 4.324,-3.9 6.79,-6.124c0.072,-0.065 0.082,-0.174 0.022,-0.251c-0.06,-0.077 -0.169,-0.095 -0.251,-0.043c-2.857,1.825 -7.929,5.064 -7.929,5.064Z"/></svg>