<svg xmlns="http://www.w3.org/2000/svg" width="24" height="24" viewBox="0 0 24 24"><path d="M13.846 9.812l.775-.776c-.671-.672-1.597-1.087-2.621-1.087-1.023 0-1.949.415-2.621 1.086l.776.776c.473-.471 1.124-.763 1.845-.763.722 0 1.373.292 1.846.764zm-5.846-2.155l.796.796c.82-.82 1.953-1.327 3.205-1.327 1.251 0 2.384.507 3.204 1.327l.795-.796c-1.023-1.024-2.438-1.657-3.999-1.657-1.562 0-2.977.633-4.001 1.657zm8 5.187v10.156h-8v-10.156c.772-1.229 2.386-1.844 4-1.844 1.613 0 3.227.615 4 1.844zm-5 1.157c0 .552.447 1 1 1s1-.448 1-1c0-.553-.447-1.001-1-1.001s-1 .448-1 1.001zm3 4.999c0-1.104-.895-2-1.998-2-1.106 0-2.002.896-2.002 2 0 1.105.896 2 2.002 2 1.103 0 1.998-.895 1.998-2zm-2-1c-.553 0-1 .448-1 1s.447 1 1 1 1-.448 1-1-.447-1-1-1zm12-17v16h-6v-2h4v-12h-20v12h4v2h-6v-16h24z"/></svg>