<svg xmlns="http://www.w3.org/2000/svg" width="24" height="24" viewBox="0 0 24 24"><path d="M9.791 19.769c.565-.571 1.347-.924 2.209-.924s1.644.353 2.209.924l-2.209 2.231-2.209-2.231zm-1.019-1.03c.825-.834 1.967-1.351 3.228-1.351s2.402.516 3.228 1.351l1.359-1.373c-1.174-1.186-2.796-1.919-4.587-1.919s-3.413.733-4.587 1.919l1.359 1.373zm-2.378-2.403c1.435-1.449 3.418-2.346 5.606-2.346s4.171.896 5.606 2.346l1.394-1.407c-1.791-1.81-4.267-2.929-7-2.929s-5.209 1.119-7 2.929l1.394 1.407zm-6.394-14.336v16h5.289l-1.976-2h-1.313v-12h20v12h-1.313l-1.976 2h5.289v-16h-24z"/></svg>