<svg xmlns="http://www.w3.org/2000/svg" width="24" height="24" viewBox="0 0 24 24"><path d="M22 4v12h-20v-12h20zm2-2h-24v16h24v-16zm-9.497 5h-2.602v5.989h2.602c1.683 0 2.73-1.16 2.73-3.026 0-1.827-1.047-2.963-2.73-2.963zm-1.075 1.325h.764c1.048 0 1.517.542 1.517 1.757 0 .475-.127 1.582-1.294 1.582h-.986v-3.339zm-2.457 2.853c0 1.09-.965 1.822-2.402 1.822-.625 0-1.258-.127-1.802-.455l.335-1.244c.428.239.878.409 1.373.409.544 0 .882-.23.882-.601 0-.493-.525-.668-.976-.668h-.663v-1.197h.638c.316 0 .849-.106.849-.506 0-.284-.251-.446-.687-.446-.445 0-.855.174-1.23.405l-.34-1.204c.557-.359 1.269-.493 1.866-.493 1.362 0 1.969.762 1.969 1.517 0 .559-.271 1-.775 1.272.588.233.963.756.963 1.389zm-3.971 8.822c1 1.194 2.862 2 5 2s4-.806 5-2h-10z"/></svg>