<svg width="24" height="24" xmlns="http://www.w3.org/2000/svg" fill-rule="evenodd" clip-rule="evenodd"><path d="M23.769 14.359c-1.097 5.495-5.952 9.641-11.768 9.641-6.623 0-12-5.377-12-12s5.377-12 12-12c2.68 0 5.656 1.047 7.598 2.774-2.604-.958-5.138-.87-6.553-.626-3.951.757-6.731 3.32-7.972 6.232-2.447 5.743 1.359 10.347 5.599 10.343 2.746 0 5.152-1.853 6.583-4.202 1.099-1.802 2.308-2.388 3.187-2.357 1.259.044 2.089.566 3.326 2.195zm.231-2.541c-.981-.94-2.085-1.612-3.535-1.662-1.903-.065-3.726 1.37-4.916 3.323-1.007 1.652-2.444 2.795-3.941 3.136-3.359.765-6.683-2.785-4.694-7.451 3.461-8.121 13.861-4.826 14.826-3.618.798.999 2.219 3.515 2.26 6.272z"/></svg>