<svg xmlns="http://www.w3.org/2000/svg" width="24" height="24" viewBox="0 0 24 24"><path d="M18 12c-2.435 3.599-4 5.85-4 8.037 0 2.19 1.79 3.963 4 3.963s4-1.773 4-3.963c0-2.187-1.565-4.438-4-8.037zm-.014 2.56c.234.363.514.994.514 1.66 0 1.954-2 2.274-2 1.085 0-.817.994-2.022 1.486-2.745zm-7.986 5.314v-16.874h-4c-1.604 0-2.001 1.826-2.001 3h-1.999v-6h19.999l.001 6h-1.98c0-1.174-.371-3-2.02-3h-4v11.448c-1.244 2.038-2 3.749-2 5.589 0 1.522.582 2.908 1.529 3.963h-6.529v-2h1c1.175 0 2-.952 2-2.126z"/></svg>