<svg xmlns="http://www.w3.org/2000/svg" width="24" height="24" viewBox="0 0 24 24"><path d="M18.287 11.121c1.588-1.121 2.713-3.018 2.713-5.093 0-2.946-1.918-5.951-7.093-6.028h-11.907v2.042c1.996 0 3 .751 3 2.683v14.667c0 1.689-.558 2.608-3 2.608v2h11.123c6.334 0 8.877-3.599 8.877-7.038 0-2.538-1.417-4.67-3.713-5.841zm-8.287-8.121h2.094c2.357 0 4.126 1.063 4.126 3.375 0 2.035-1.452 3.625-3.513 3.625h-2.707v-7zm2.701 18h-2.701v-8h2.781c2.26.024 3.927 1.636 3.927 3.667 0 2.008-1.226 4.333-4.007 4.333z"/></svg>