<svg xmlns="http://www.w3.org/2000/svg" width="24" height="24" viewBox="0 0 24 24"><path d="M24 22.469h-2.311c1.041-.867 2.178-1.907 2.178-3.26 0-1.342-.963-2.209-2.453-2.209-.813 0-1.631.238-2.318.769l.535 1.345c.445-.327.905-.614 1.477-.614.615 0 .954.299.954.84-.012.907-1.129 1.79-3.062 3.536v1.124h5v-1.531zm-7-6.469v2h-4.778l-3.751-5.938-3.521 5.938h-4.95v-2h1.08c.654 0 1.259-.358 1.594-.914l3.634-6.091-3.73-6.144c-.341-.531-.932-.853-1.568-.853h-1.01v-1.998h4.611l3.86 5.964 4.09-5.964h4.439v1.998h-.838c-.637 0-1.228.322-1.568.853l-3.96 6.144 3.864 6.091c.334.556.94.914 1.594.914h.908z"/></svg>