<svg xmlns="http://www.w3.org/2000/svg" width="24" height="24" viewBox="0 0 24 24"><path d="M24 5.469h-2.31c1.041-.867 2.178-1.907 2.178-3.26 0-1.342-.964-2.209-2.454-2.209-.813 0-1.63.238-2.317.769l.535 1.345c.444-.327.904-.614 1.475-.614.616 0 .955.299.955.84-.012.907-1.129 1.79-3.062 3.536v1.124h5v-1.531zm-7 16.531v2h-4.778l-3.751-5.938-3.521 5.938h-4.95v-2h1.08c.654 0 1.259-.358 1.594-.914l3.634-6.091-3.73-6.144c-.341-.531-.932-.853-1.568-.853h-1.01v-1.998h4.611l3.86 5.964 4.09-5.964h4.439v1.998h-.838c-.636 0-1.227.322-1.567.853l-3.96 6.144 3.864 6.091c.334.556.939.914 1.593.914h.908z"/></svg>