<svg xmlns="http://www.w3.org/2000/svg" width="24" height="24" viewBox="0 0 24 24"><path d="M12 2c5.514 0 10 4.486 10 10s-4.486 10-10 10-10-4.486-10-10 4.486-10 10-10zm0-2c-6.627 0-12 5.373-12 12s5.373 12 12 12 12-5.373 12-12-5.373-12-12-12zm4.178 8.333c0-.466-.826-1.333-2.426-1.333-2.502 0-3.408 1.5-6.752 1.5v4.964c1.766.271 3.484.817 4.344 3.802.239.831.39 1.734 1.187 1.734 1.188 0 1.297-2.562.844-4.391.656-.344 1.875-.468 2.489-.442.886.036 1.136-.409 1.136-.745 0-.505-.416-.675-.677-.755-.305-.094-.444-.404-.016-.461.418-.056.63-.328.63-.61 0-.323-.277-.66-.844-.705-.348-.027-.434-.312-.016-.406.351-.08.549-.326.549-.591 0-.314-.279-.654-.913-.771-.383-.07-.421-.445-.016-.477.345-.027.481-.146.481-.313z"/></svg>