<svg xmlns="http://www.w3.org/2000/svg" width="24" height="24" viewBox="0 0 24 24"><path d="M22.351 12l1.649-2.084-2.272-1.403.825-2.513-2.624-.553-.098-2.64-2.655.364-1.009-2.448-2.37 1.237-1.797-1.96-1.797 1.961-2.37-1.237-1.009 2.447-2.655-.363-.098 2.64-2.624.552.825 2.513-2.272 1.403 1.649 2.084-1.649 2.084 2.272 1.403-.825 2.513 2.624.553.098 2.64 2.655-.364 1.009 2.448 2.37-1.237 1.797 1.96 1.797-1.96 2.37 1.237 1.009-2.448 2.655.364.098-2.64 2.624-.553-.825-2.513 2.272-1.403-1.649-2.084zm-6.043-.206c.418.056.63.328.63.61 0 .323-.277.66-.844.705-.348.027-.434.312-.016.406.351.08.549.326.549.591 0 .314-.279.654-.913.771-.383.07-.421.445-.016.477.344.026.479.146.479.312 0 .466-.826 1.333-2.426 1.333-2.501.001-3.407-1.499-6.751-1.499v-4.964c1.766-.271 3.484-.817 4.344-3.802.239-.831.39-1.734 1.187-1.734 1.188 0 1.297 2.562.844 4.391.656.344 1.875.468 2.489.442.886-.036 1.136.409 1.136.745 0 .505-.416.675-.677.755-.304.094-.444.404-.015.461z"/></svg>