<svg xmlns="http://www.w3.org/2000/svg" width="24" height="24" viewBox="0 0 24 24"><path d="M12 2.96l1.36 1.484 1.792-.935.764 1.853 1.998-.274.074 1.994 1.968.415-.62 1.89 1.701 1.05-1.237 1.563 1.237 1.563-1.701 1.05.62 1.89-1.968.415-.074 1.994-1.998-.274-.764 1.854-1.792-.935-1.36 1.483-1.36-1.484-1.792.935-.764-1.854-1.998.274-.074-1.994-1.968-.415.62-1.89-1.701-1.05 1.237-1.562-1.237-1.563 1.701-1.05-.62-1.89 1.968-.415.074-1.994 1.998.274.764-1.852 1.792.935 1.36-1.485zm0-2.96l-1.797 1.961-2.37-1.237-1.009 2.447-2.655-.363-.098 2.64-2.624.552.825 2.513-2.272 1.403 1.649 2.084-1.649 2.084 2.272 1.403-.825 2.513 2.624.553.098 2.64 2.655-.364 1.009 2.448 2.37-1.237 1.797 1.96 1.797-1.96 2.37 1.237 1.009-2.448 2.655.364.098-2.64 2.624-.553-.825-2.513 2.272-1.403-1.649-2.084 1.649-2.084-2.272-1.403.825-2.513-2.624-.553-.098-2.64-2.655.364-1.009-2.448-2.37 1.237-1.797-1.96zm3.082 14.629c-.338-.026-.307-.339.013-.397.528-.098.761-.381.761-.643 0-.221-.165-.426-.457-.493-.349-.079-.276-.315.013-.338.473-.038.703-.318.703-.587 0-.235-.177-.462-.524-.509-.357-.047-.241-.306.013-.384.218-.066.564-.208.564-.629 0-.28-.209-.651-.946-.621-.513.021-1.528-.082-2.075-.369.376-1.524.286-3.659-.705-3.659-.664 0-.79.753-.989 1.445-.716 2.487-1.981 2.943-3.453 3.168v4.137c2.787 0 3.375 1.25 5.46 1.25 1.333 0 2.021-.723 2.021-1.111 0-.139-.113-.238-.399-.26z"/></svg>