<svg xmlns="http://www.w3.org/2000/svg" width="24" height="24" viewBox="0 0 24 24"><path d="M12 2.96l1.36 1.484 1.792-.935.764 1.853 1.998-.274.074 1.994 1.968.415-.62 1.89 1.701 1.05-1.237 1.563 1.237 1.563-1.701 1.05.62 1.89-1.968.415-.074 1.994-1.998-.274-.764 1.854-1.792-.935-1.36 1.483-1.36-1.484-1.792.935-.764-1.854-1.998.274-.074-1.994-1.968-.415.62-1.89-1.701-1.05 1.237-1.562-1.237-1.563 1.701-1.05-.62-1.89 1.968-.415.074-1.994 1.998.274.764-1.852 1.792.935 1.36-1.485zm0-2.96l-1.797 1.961-2.37-1.237-1.009 2.447-2.655-.363-.098 2.64-2.624.552.825 2.513-2.272 1.403 1.649 2.084-1.649 2.084 2.272 1.403-.825 2.513 2.624.553.098 2.64 2.655-.364 1.009 2.448 2.37-1.237 1.797 1.96 1.797-1.96 2.37 1.237 1.009-2.448 2.655.364.098-2.64 2.624-.553-.825-2.513 2.272-1.403-1.649-2.084 1.649-2.084-2.272-1.403.825-2.513-2.624-.553-.098-2.64-2.655.364-1.009-2.448-2.37 1.237-1.797-1.96zm3.481 9.111c0-.388-.688-1.111-2.021-1.111-2.085 0-2.673 1.25-5.46 1.25v4.137c1.472.225 2.737.681 3.453 3.168.199.692.325 1.445.989 1.445.99 0 1.081-2.135.703-3.659.547-.287 1.562-.39 2.075-.369.737.03.946-.341.946-.621 0-.421-.347-.562-.564-.629-.254-.078-.37-.337-.013-.384.348-.047.524-.273.524-.509 0-.269-.23-.55-.703-.587-.289-.023-.361-.26-.013-.338.292-.066.457-.272.457-.493 0-.262-.232-.545-.761-.643-.319-.059-.351-.371-.013-.397.288-.022.401-.121.401-.26z"/></svg>