<svg xmlns="http://www.w3.org/2000/svg" width="24" height="24" viewBox="0 0 24 24"><path d="M3.291 4.604c.062.811.812.734.953-.031.234-1.268.914-1.826 1.543-1.826.529 0 1.022.396 1.182 1.098.189.837.758.664.812-.031.09-1.133.764-1.688 1.41-1.688.564 0 1.108.424 1.221 1.26.114.857.734.578.922-.031.16-.522.499-1.355 1.51-1.355.672 0 1.562.5 1.49 2.271-.051 1.228.197 3.666.885 4.979 3.656-.906 8.781-.688 8.781 1.688 0 1.594-1.807 1.896-3.469 2.375-5.969 1.719-7.062 5.156-7.604 8.688h-9.927c0-6.688-3-8.5-3-13.505 0-3.198 1.734-4.852 2.666-4.852.334 0 .572.272.625.96z"/></svg>