<svg xmlns="http://www.w3.org/2000/svg" width="24" height="24" viewBox="0 0 24 24"><path d="M12.352 2.107c2.481 1.759 2.474 1.736 5.493 1.718.244 0 .459.136.524.331.917 2.789.942 2.838 3.438 4.554.176.122.227.307.174.453-.971 2.801-.979 2.834 0 5.676.053.145.003.33-.175.453-2.469 1.699-2.505 1.73-3.437 4.553-.065.195-.28.331-.526.331-2.995-.019-3-.049-5.49 1.717-.205.145-.501.144-.704 0-2.475-1.751-2.463-1.739-5.493-1.717-.244 0-.459-.136-.523-.329-.826-2.499-.907-2.82-2.925-4.202l-.514-.354c-.176-.122-.227-.307-.174-.453.866-2.504.999-2.805.193-5.114-.146-.424-.374-.769-.019-1.016 2.458-1.691 2.506-1.722 3.437-4.553.065-.195.28-.331.526-.331 3.009.021 2.996.048 5.491-1.717.206-.145.503-.141.704 0zm-.352-2.107c-.527 0-1.055.157-1.502.471-1.757 1.236-1.77 1.362-3.152 1.362l-1.183-.008h-.008c-1.104 0-2.083.685-2.421 1.696-.812 2.433-.533 2.055-2.68 3.544-.675.468-1.054 1.212-1.054 1.982 0 .254.041.512.127.763.83 2.428.827 1.963 0 4.38-.086.251-.127.508-.127.763 0 .77.379 1.514 1.055 1.982 2.147 1.489 1.869 1.114 2.68 3.544.338 1.011 1.316 1.696 2.421 1.696h.008c2.652-.008 2.189-.155 4.335 1.354.446.313.974.471 1.501.471s1.055-.157 1.502-.471c1.76-1.238 1.762-1.361 3.181-1.361l1.154.007h.008c1.104 0 2.083-.685 2.421-1.696.812-2.428.528-2.053 2.68-3.544.675-.469 1.054-1.212 1.054-1.982 0-.254-.041-.512-.127-.763-.831-2.428-.827-1.963 0-4.38.086-.251.127-.509.127-.763 0-.77-.379-1.514-1.055-1.982-2.152-1.492-1.868-1.117-2.68-3.544-.338-1.011-1.316-1.696-2.421-1.696h-.008l-1.156.007c-1.416 0-1.42-.124-3.179-1.361-.446-.314-.974-.471-1.501-.471zm3.698 15.354c-.405-.031-.367-.406.016-.477.634-.117.913-.457.913-.771 0-.265-.198-.511-.549-.591-.418-.095-.332-.379.016-.406.566-.045.844-.382.844-.705 0-.282-.212-.554-.63-.61-.429-.057-.289-.367.016-.461.261-.08.677-.25.677-.755 0-.336-.25-.781-1.136-.745-.614.025-1.833-.099-2.489-.442.452-1.829.343-4.391-.845-4.391-.797 0-.948.903-1.188 1.734-.859 2.984-2.577 3.531-4.343 3.802v4.964c3.344 0 4.25 1.5 6.752 1.5 1.6 0 2.426-.867 2.426-1.333 0-.167-.136-.287-.48-.313z"/></svg>