<svg xmlns="http://www.w3.org/2000/svg" width="24" height="24" viewBox="0 0 24 24"><path d="M14.442 4.594c-.06-1.426-.858-2.594-2.506-2.594-1 0-6.373.986-8.25 1.486-2.69.714-3.686 2.471-3.686 5.009 0 2.283.617 4.079 1.158 5.336 1.113 2.585 1.842 4.665 1.842 8.169h9.928c.401-3.086.955-6.43 7.744-8.4 1.66-.483 3.328-.972 3.328-2.833 0-3.448-5.531-3.005-8.814-2.196-.465-1.107-.692-2.767-.744-3.977zm-1.993.207c.154 2.749 1.014 5.06 1.557 6.12 1.747-.431 3.462-.921 5.533-.921 2.506 0 3.666.781.574 1.679-6.859 1.993-8.365 5.057-9.113 8.321h-6c-.072-2.521-1.041-4.72-2.005-6.959-.745-1.731-1.495-4.849-.614-6.416.836-1.295 1.734-1.114 1.66-.292l-.031.771c-.094.816 1.068.92 1.14.11 0 0 .062-1.321.115-1.745.123-.976 1.607-1.028 1.551.04-.023.457-.041 1.142-.041 1.142-.031.797 1.079.875 1.172.141 0 0 .006-.714.1-1.761s1.609-1.078 1.562.004c-.037.868-.026 1.069-.026 1.069.005.75 1.028.874 1.114.141l.168-1.394c.129-1.075 1.526-1.105 1.584-.05z"/></svg>