<svg xmlns="http://www.w3.org/2000/svg" width="24" height="24" viewBox="0 0 24 24"><path d="M19.406 9.558c-1.21-.051-2.87-.278-3.977-.744.2-.812.42-2.114.477-2.595.118-1.007-1.099-1.978-2.847-2.184-2.807-.337-3.321 1.205-3.321 1.205-2.006 4.976-4.974 5.473-7.738 5.832v9.928c3.503 0 5.584.729 8.169 1.842 1.257.541 3.053 1.158 5.336 1.158 2.538 0 4.295-.997 5.009-3.686.5-1.877 1.486-7.25 1.486-8.25 0-1.648-1.168-2.446-2.594-2.506zm-5.195-4.182c.778.411.789.905-.071 1.104-.895.208-2.093.035-2.715-.292-.71-.373-.697-.886.011-1.08.798-.217 2.033-.124 2.775.268zm3.685 9.041s.201.01 1.069-.027c1.082-.046 1.051 1.469.004 1.563l-1.761.099c-.734.094-.656 1.203.141 1.172 0 0 .686-.017 1.143-.041 1.068-.056 1.016 1.429.04 1.551-.424.053-1.745.115-1.745.115-.811.072-.706 1.235.109 1.141l.771-.031c.822-.074 1.003.825-.292 1.661-1.567.881-4.685.131-6.416-.614-2.239-.965-4.438-1.934-6.959-2.006v-6c2.477-.568 4.835-1.59 6.701-5.042.772.404 1.81.589 2.741.547-.117.5-.241.995-.363 1.489 1.061.543 3.371 1.402 6.12 1.556 1.055.059 1.024 1.455-.051 1.584l-1.394.167s-.608 1.111.142 1.116zm-3.878-11.861c-.047.271-.305.455-.578.409-.271-.045-.456-.305-.409-.577l.335-1.972c.049-.286.263-.416.481-.416.282 0 .568.217.506.583l-.335 1.973zm3.297-.496c.201-.188.209-.505.021-.705-.192-.202-.509-.21-.708-.021l-1.456 1.372c-.201.188-.209.506-.021.706.189.201.504.211.706.021l1.458-1.373zm-6.048-1.645c-.102-.257-.392-.382-.647-.281-.259.103-.383.394-.282.649l.739 1.858c.102.257.392.384.648.281.258-.103.383-.394.282-.649l-.74-1.858z"/></svg>