<svg width="24" height="24" xmlns="http://www.w3.org/2000/svg" fill-rule="evenodd" clip-rule="evenodd"><path d="M22.002 13c0-5.522-4.475-10.001-10.002-10.001-5.523 0-10.001 4.479-10.001 10.001 0 4.316 3.087 10 10.001 10 6.93 0 10.002-5.693 10.002-10zm-10.002 8c-4.411 0-8.001-3.59-8.001-8 0-4.413 3.59-8.001 8.001-8.001 4.412 0 8.002 3.588 8.002 8.001 0 4.41-3.59 8-8.002 8zm1.001-9h3v2h-3v3h-2v-3h-3v-2h3v-3h2v3zm-12.198-3.285c-.535-.824-.802-1.772-.802-2.718 0-2.757 2.233-4.995 4.991-4.995.948 0 1.896.268 2.721.803-3.172 1.217-5.692 3.739-6.91 6.91zm18.201-7.715c-.947 0-1.895.268-2.719.803 3.17 1.218 5.694 3.739 6.914 6.909.534-.823.801-1.77.801-2.717 0-2.761-2.236-4.995-4.996-4.995z"/></svg>