<svg width="24" height="24" xmlns="http://www.w3.org/2000/svg" fill-rule="evenodd" clip-rule="evenodd"><path d="M22.001 12.942c0-5.522-4.475-10.001-10.002-10.001-5.523 0-10.001 4.479-10.001 10.001 0 4.316 3.087 10 10.001 10 6.93 0 10.002-5.693 10.002-10zm-7.01-4h-5.992v1.604h3.821l-3.821 4.825-.005 1.571h6.005v-1.581h-3.787l3.779-4.84v-1.579zm-14.189-.285c-.535-.824-.802-1.772-.802-2.718 0-2.757 2.233-4.995 4.991-4.995.948 0 1.896.268 2.721.803-3.172 1.217-5.692 3.739-6.91 6.91zm18.201-7.715c-.947 0-1.895.268-2.719.803 3.17 1.218 5.694 3.739 6.914 6.909.534-.823.801-1.77.801-2.717 0-2.761-2.236-4.995-4.996-4.995z"/></svg>