<svg xmlns="http://www.w3.org/2000/svg" width="24" height="24" viewBox="0 0 24 24"><path d="M13 12v-5h-1.999v6.999h5.999v-1.999h-4zm-12.197-4.285c-1.261-1.944-1.035-4.569.675-6.266 1.7-1.687 4.305-1.896 6.235-.645-3.171 1.219-5.692 3.741-6.91 6.911zm18.428 11.18c1.715-1.794 2.771-4.219 2.771-6.896 0-5.522-4.477-10-10.002-10-5.522 0-10 4.477-10 10 0 2.678 1.059 5.104 2.772 6.898l-1.736 4.506c-.159.394.288.759.643.522l3.581-3.122c1.412.761 3.026 1.195 4.742 1.195 1.717 0 3.334-.434 4.744-1.195l3.582 3.122c.355.237.803-.128.643-.522l-1.74-4.508zm-7.23 1.103c-4.412 0-8.001-3.588-8.001-8s3.589-8 8.001-8c4.412 0 8.002 3.588 8.002 8s-3.59 8-8.002 8zm10.553-18.52c-1.697-1.71-4.324-1.937-6.268-.675 3.17 1.218 5.693 3.739 6.912 6.91 1.25-1.931 1.041-4.535-.644-6.235z"/></svg>