<svg xmlns="http://www.w3.org/2000/svg" width="24" height="24" viewBox="0 0 24 24"><path d="M23.27 19.743l-11.946-11.945c-.557-.557-.842-1.331-.783-2.115.115-1.485-.395-3.009-1.529-4.146-1.03-1.028-2.376-1.537-3.723-1.537-.507 0-1.015.072-1.505.216l3.17 3.17c.344 1.589-1.959 3.918-3.567 3.567l-3.169-3.17c-.145.492-.218 1-.218 1.509 0 1.347.51 2.691 1.538 3.721 1.135 1.136 2.66 1.646 4.146 1.53.783-.06 1.557.226 2.113.783l11.946 11.944c.468.468 1.103.73 1.763.73 1.368 0 2.494-1.108 2.494-2.494 0-.638-.244-1.276-.73-1.763zm-1.77 2.757c-.553 0-1-.448-1-1s.447-1 1-1 1 .448 1 1-.447 1-1 1zm-8.773-16.135l6.365-6.365 4.908 4.95-6.348 6.348-1.393-1.393 4.955-4.955-2.121-2.121-2.121 2.121.707.707-.708.708-.707-.707-.707.707.707.707-.707.707-.707-.708-.707.707-1.404-1.394-.012-.019zm-1.43 11.287l-6.347 6.348-4.95-4.908 6.365-6.365.018.012 1.395 1.403-.707.708.707.707-.707.707-.707-.707-.707.707.707.707-.707.707-.707-.707-.707.707.707.707-.707.707-.707-.707-.707.708 2.121 2.121 4.954-4.954 1.393 1.392zm7.442-12.349c-.195-.195-.195-.512 0-.707s.512-.195.707 0 .195.512 0 .707-.511.196-.707 0z"/></svg>