<svg xmlns="http://www.w3.org/2000/svg" width="24" height="24" viewBox="0 0 24 24"><path d="M17 12.014l-4.556-1.966c-.206-.089-.425-.146-.647-.17l-.452-.047-1.229-1.082.324-.749 1.647.116.344.297c.17.146.355.25.561.339l1.961.857 2.047 2.405zm1.263-.019l-6.91-7.995h1.302c.893 0 1.741.392 2.32 1.071l6.025 6.924h-2.737zm-2.581-4.968c.098-.083.109-.23.026-.329l-1.049-1.233c-.083-.098-.23-.11-.328-.027-.099.083-.11.23-.026.329l1.048 1.233c.084.099.23.11.329.027zm-12.682 4.969l2.215-.001 1.503-2.299c.16-.245.42-.408.711-.445.549-.072 1.065-.373 1.393-.874.426-.651.416-1.461.042-2.086l-.969 1.48c-.472.128-1.366-.456-1.437-.939l.969-1.48c-.724-.092-1.47.223-1.896.874-.327.5-.397 1.094-.242 1.626.082.281.036.584-.124.829l-2.165 3.315zm18 2.004h-18c-1.657 0-3 1.343-3 3s1.343 3 3 3h18c1.657 0 3-1.343 3-3s-1.343-3-3-3zm-18 4c-.553 0-1-.448-1-1s.447-1 1-1 1 .448 1 1-.447 1-1 1zm18 0c-.553 0-1-.448-1-1s.447-1 1-1 1 .448 1 1-.447 1-1 1z"/></svg>