<svg xmlns="http://www.w3.org/2000/svg" width="24" height="24" viewBox="0 0 24 24"><path d="M9 6h-2v-2c0-1.104.896-2 2-2h6c1.104 0 2 .896 2 2v2h-2v-1.51c0-.27-.22-.49-.49-.49h-5.02c-.27 0-.49.22-.49.49v1.51zm-9 1v6h24v-6h-24zm21 13h-5.824l-2.401-2.4c-.186-.186-.28-.444-.261-.705.038-.495-.132-1.003-.51-1.382-.343-.344-.792-.513-1.241-.513-.169 0-.338.024-.502.072l1.057 1.057c.115.53-.652 1.306-1.188 1.189l-1.057-1.057c-.049.164-.073.333-.073.503 0 .449.17.897.513 1.24.378.379.887.549 1.382.51.261-.02.519.075.704.261l1.225 1.225h-9.824v-5h-2v7h22v-7h-2v5z"/></svg>