<svg xmlns="http://www.w3.org/2000/svg" width="24" height="24" viewBox="0 0 24 24"><path d="M6.914 2.741l15.557 15.556-4.243 4.243-15.556-15.557 4.242-4.242zm-.707-.707l-2.033-2.034-4.174 4.243 1.965 2.034 4.242-4.243zm12.821 21.119l4.972.847-.918-4.901-4.054 4.054zm-4.567-15.694l.389-.388.707.707.707-.707-.707-.707.707-.707.707.707.708-.708-.707-.706 2.121-2.121 2.121 2.121-4.631 4.631 1.393 1.393 6.024-6.024-4.908-4.95-6.045 6.045 1.414 1.414zm-4.949 9.193l-4.562 4.561-2.121-2.121.707-.708.707.707.707-.707-.707-.707.707-.707.707.707.707-.707-.707-.707.707-.707.707.707.707-.707-.707-.706.319-.319-1.415-1.415-5.975 5.976 4.95 4.908 5.955-5.955-1.393-1.393zm9.934-11.349c.195-.195.195-.512 0-.707s-.512-.195-.707 0-.195.512 0 .707.512.196.707 0z"/></svg>