<svg xmlns="http://www.w3.org/2000/svg" width="24" height="24" viewBox="0 0 24 24"><path d="M9 6h-2v-2c0-1.104.896-2 2-2h6c1.104 0 2 .896 2 2v2h-2v-1.51c0-.27-.22-.49-.49-.49h-5.02c-.27 0-.49.22-.49.49v1.51zm-8 16h12.824l-2.226-2.225c-.186-.186-.443-.281-.704-.261-.495.039-1.004-.131-1.382-.51-.342-.343-.512-.791-.512-1.24 0-.169.024-.338.072-.502l1.057 1.057c.536.117 1.304-.659 1.188-1.189l-1.057-1.057c.165-.049.334-.073.503-.073.449 0 .898.169 1.241.513.378.378.548.887.51 1.382-.02.261.075.52.261.705l3.401 3.4h6.824v-7h-22v7zm-1-15v6h24v-6h-24z"/></svg>