<svg xmlns="http://www.w3.org/2000/svg" width="24" height="24" viewBox="0 0 24 24"><path d="M20 4h-20v-2h5.711c.9 0 1.631-1.099 1.631-2h5.316c0 .901.73 2 1.631 2h5.711v2zm-7 15.5c0-1.267.37-2.447 1-3.448v-6.052c0-.552.447-1 1-1s1 .448 1 1v4.032c.879-.565 1.901-.922 3-1.006v-7.026h-18v18h13.82c-1.124-1.169-1.82-2.753-1.82-4.5zm-7 .5c0 .552-.447 1-1 1s-1-.448-1-1v-10c0-.552.447-1 1-1s1 .448 1 1v10zm5 0c0 .552-.447 1-1 1s-1-.448-1-1v-10c0-.552.447-1 1-1s1 .448 1 1v10zm13-.5c0 2.485-2.017 4.5-4.5 4.5s-4.5-2.015-4.5-4.5 2.017-4.5 4.5-4.5 4.5 2.015 4.5 4.5zm-3.086-2.122l-1.414 1.414-1.414-1.414-.707.708 1.414 1.414-1.414 1.414.707.708 1.414-1.414 1.414 1.414.708-.708-1.414-1.414 1.414-1.414-.708-.708z"/></svg>