<svg xmlns="http://www.w3.org/2000/svg" width="24" height="24" viewBox="0 0 24 24"><path d="M17.573 1.848c.083.699-.476 1.152-1.182 1.152h-8.774c-.704 0-1.266-.452-1.182-1.156-1.329.281-4.435 1.159-4.435 2.516 0 .303.103.7.235 1.361 3.175 2.953 15.758 3.088 19.476.244.159-.824.289-1.278.289-1.611 0-1.333-3.091-2.223-4.427-2.506zm3.113 6.897c-.868 4.587-2.184 10.54-2.709 13.287-1.079 1.312-3.545 1.968-6.013 1.968s-4.935-.656-6.013-1.968c-.529-2.884-1.834-8.868-2.684-13.414.679.274 1.408.492 2.149.67 0 0 2.132 10.441 2.382 11.747.722.514 2.237.965 4.166.965 1.933 0 3.452-.454 4.17-.969.224-1.131 2.411-11.661 2.411-11.661.733-.165 1.46-.367 2.141-.625zm-13.069-6.763c.922 0 1.669-1.08 1.669-1.982h5.437c0 .902.747 1.982 1.668 1.982h-8.774z"/></svg>