<svg xmlns="http://www.w3.org/2000/svg" width="24" height="24" viewBox="0 0 24 24"><path d="M16.019 2.614l1.598-1.505 2.383 2.891h-2.686l-1.295-1.386zm-3.332-2.139l3.112 3.525h-3.225l-1.633-1.867 1.746-1.658zm-5.199-.475l3.446 4h-6.934l3.488-4zm4.512 10c-.553 0-1 .448-1 1v8c0 .552.447 1 1 1s1-.448 1-1v-8c0-.552-.447-1-1-1zm-4 0c-.553 0-1 .448-1 1v8c0 .552.447 1 1 1s1-.448 1-1v-8c0-.552-.447-1-1-1zm-5-4v18h18v-18h-18zm2 16v-14h14v14h-14zm11-12c-.553 0-1 .448-1 1v8c0 .552.447 1 1 1s1-.448 1-1v-8c0-.552-.447-1-1-1z"/></svg>