<svg xmlns="http://www.w3.org/2000/svg" width="24" height="24" viewBox="0 0 24 24"><path d="M19 0h-14c-2.761 0-5 2.239-5 5v14c0 2.761 2.239 5 5 5h14c2.762 0 5-2.239 5-5v-14c0-2.761-2.238-5-5-5zm-1.105 18.739c-.524.691-2.29 1.261-3.889 1.261-3.979 0-6.006-1.466-6.006-4.573v-4.104h-1.933l-.067-.067v-3.16l.045-.064.178-.059c1.597-.534 2.624-1.432 2.851-3.284.055-.447.431-.689.757-.689h4.767l.066.067v3.211l.066.067h2.535l.068.067v3.844l-.068.067h-2.545l-.067.067v3.81c.002.103.006.414.109.414h2.182l.064.046.992 2.941-.105.138zm-1.309-2.278l.664 1.967-.016.07c-.5.48-1.703.837-2.686.854l-.111.001c-3.232 0-3.788-2.468-3.788-3.926v-4.692l-.066-.067h-1.854l-.067-.067-.016-2.041.042-.062c1.67-.65 2.604-1.73 2.849-3.729.014-.111.105-.114.106-.114h2.298l.067.067v3.211l.068.067h2.535l.066.067v2.534l-.066.067h-2.547l-.064.067v4.47c.016.959.477 1.445 1.377 1.445.362 0 .744-.084 1.123-.229l.086.04z"/></svg>