<svg xmlns="http://www.w3.org/2000/svg" width="24" height="24" viewBox="0 0 24 24"><path d="M12 2c5.514 0 10 4.486 10 10s-4.486 10-10 10-10-4.486-10-10 4.486-10 10-10zm0-2c-6.627 0-12 5.373-12 12s5.373 12 12 12 12-5.373 12-12-5.373-12-12-12zm3.756 14.745l-.049-.034h-1.636c-.077 0-.081-.233-.082-.311v-2.857l.051-.051h1.909l.051-.05v-2.883l-.051-.05h-1.901l-.05-.05v-2.409l-.05-.05h-3.575c-.245 0-.526.181-.567.517-.17 1.389-.941 2.063-2.139 2.463l-.134.044-.033.048v2.37l.05.05h1.45v3.079c0 2.329 1.521 3.429 4.504 3.429 1.2 0 2.524-.427 2.917-.945l.079-.104-.744-2.206zm.17 2.129c-.375.36-1.277.628-2.014.641l-.084.001c-2.424 0-2.84-1.852-2.84-2.944v-3.52l-.051-.051h-1.39l-.051-.05-.012-1.531.032-.046c1.253-.488 1.953-1.298 2.136-2.797.011-.083.08-.086.081-.086h1.723l.051.051v2.408l.05.05h1.902l.049.05v1.9l-.049.05h-1.91l-.049.051v3.353c.012.719.357 1.084 1.033 1.084.271 0 .558-.064.842-.173l.064.031.498 1.475-.011.053z"/></svg>