<svg xmlns="http://www.w3.org/2000/svg" width="24" height="24" viewBox="0 0 24 24"><path d="M12 0c-6.627 0-12 5.373-12 12s5.373 12 12 12 12-5.373 12-12-5.373-12-12-12zm5.158 17.897c-.459.604-2.004 1.103-3.403 1.103-3.482 0-5.255-1.283-5.255-4.001v-3.592h-1.691l-.059-.059v-2.764l.039-.056.156-.052c1.398-.466 2.296-1.252 2.494-2.873.049-.392.377-.603.663-.603h4.172l.058.059v2.81l.058.059h2.219l.06.059v3.363l-.06.059h-2.229l-.06.059v3.332c.002.09.006.362.096.362h1.909l.057.04.868 2.574-.092.121zm-1.145-1.994l.581 1.721-.014.062c-.438.421-1.49.733-2.35.748l-.098.001c-2.828 0-3.313-2.16-3.313-3.435v-4.106l-.059-.059h-1.622l-.059-.059-.014-1.786.037-.054c1.462-.569 2.278-1.514 2.492-3.263.013-.097.093-.1.094-.1h2.011l.059.059v2.81l.059.059h2.219l.058.059v2.217l-.058.059h-2.229l-.057.059v3.911c.014.839.417 1.265 1.205 1.265.316 0 .65-.074.982-.201l.076.033z"/></svg>