<svg xmlns="http://www.w3.org/2000/svg" width="24" height="24" viewBox="0 0 24 24"><path d="M16.586 16.461l.664 1.967-.016.07c-.5.48-1.703.837-2.686.854l-.11.001c-3.232 0-3.788-2.468-3.788-3.926v-4.692l-.066-.067h-1.855l-.067-.067-.016-2.041.042-.062c1.67-.65 2.604-1.73 2.849-3.729.014-.111.105-.114.106-.114h2.298l.067.067v3.211l.068.067h2.535l.067.067v2.534l-.067.067h-2.546l-.064.067v4.47c.016.959.477 1.445 1.376 1.445.363 0 .744-.084 1.124-.229l.085.04zm7.414-16.461v24h-24v-24h24zm-6 18.601l-.992-2.941-.064-.046h-2.183c-.103 0-.107-.312-.108-.414v-3.81l.067-.067h2.546l.067-.067v-3.844l-.067-.067h-2.535l-.067-.067v-3.211l-.067-.067h-4.766c-.326 0-.702.242-.757.689-.227 1.852-1.254 2.75-2.85 3.284l-.179.059-.045.064v3.16l.067.067h1.933v4.104c0 3.107 2.027 4.573 6.005 4.573 1.601 0 3.365-.57 3.89-1.261l.105-.138z"/></svg>