<svg xmlns="http://www.w3.org/2000/svg" width="24" height="24" viewBox="0 0 24 24"><path d="M24 12.5c0 5.798-4.703 10.5-10.5 10.5-3.423 0-6.455-1.646-8.371-4.182l1.2-1.775c1.509 2.374 4.156 3.957 7.171 3.957 4.687 0 8.5-3.813 8.5-8.5s-3.813-8.5-8.5-8.5c-4.173 0-7.636 3.028-8.347 7h2.847l-4 5.917-4-5.917h3.123c.728-5.086 5.089-9 10.377-9 5.797 0 10.5 4.702 10.5 10.5zm-7.239-3.512l.221-.374c.115-.196.048-.446-.152-.559-.2-.113-.455-.046-.569.15l-.22.373c-2.606-1.229-4.913-.14-6.04 1.259 1.232-.567 2.775.306 2.891 1.635 1.215-.559 2.744.286 2.859 1.619 1.231-.567 2.804.323 2.92 1.653.666-1.641.46-4.146-1.91-5.756zm-2.11 3.577l-2.36 3.821c-.339.587-1.09.788-1.677.449s-.788-1.089-.449-1.676l.204-.354.709.409-.205.354c-.111.195-.045.446.149.558.196.113.447.046.56-.149l2.366-3.829c.287.059.499.174.703.417z"/></svg>