<svg xmlns="http://www.w3.org/2000/svg" width="24" height="24" viewBox="0 0 24 24"><path d="M12.011 3.981c3.005 0 6.033 1.069 8.21 3.974-1.605-.054-3.101.402-4.301 1.229-1.131-.785-2.508-1.223-3.955-1.223-1.451 0-2.833.438-3.965 1.221-1.264-.875-2.783-1.281-4.239-1.227 2.14-2.888 5.156-3.997 8.25-3.974zm-.011-3.981c-.552 0-1 .448-1 1v1.052c-6.916.522-10.372 5.594-11 9.906 1.865-2.677 6.136-2.677 8 0 1.836-2.637 6.044-2.689 7.917 0 1.865-2.677 6.219-2.677 8.083 0-.625-4.292-4.125-9.333-11-9.902v-1.056c0-.552-.448-1-1-1zm1 12.157v8.843c0 1.657-1.343 3-3 3s-3-1.343-3-3v-1h2v1c0 .551.449 1 1 1s1-.449 1-1v-8.866c.68-.226 1.27-.242 2 .023z"/></svg>