<svg xmlns="http://www.w3.org/2000/svg" width="24" height="24" viewBox="0 0 24 24"><path d="M14.763 9.901l.415-.72c.218-.376.089-.858-.287-1.075-.377-.218-.858-.089-1.076.288l-.415.717c-4.92-2.366-9.273-.269-11.4 2.425 2.325-1.091 5.238.59 5.455 3.149 2.293-1.076 5.18.55 5.398 3.117 2.325-1.092 5.295.622 5.512 3.182 1.263-3.172.862-7.988-3.602-11.083zm-3.978 6.888l-3.48 6.03c-.652 1.129-2.097 1.517-3.227.864-1.129-.652-1.517-2.097-.864-3.226l.394-.682 1.363.788-.393.682c-.218.375-.088.857.287 1.073.377.218.859.089 1.076-.287l3.49-6.045c.553.113.962.335 1.354.803zm11.098-11.789c-1.787.869-2.921 1.403-3.422 2.268-.5.868-.197 1.979.678 2.484.875.506 1.99.213 2.49-.654.5-.866.395-2.116.254-4.098zm-7.98-3.979c-1.787.869-2.921 1.403-3.421 2.268-.501.868-.197 1.979.678 2.484.875.506 1.988.213 2.489-.654.501-.866.396-2.116.254-4.098zm6.006-1.021c-1.43.695-2.337 1.122-2.737 1.814-.4.694-.158 1.583.543 1.987.699.405 1.591.17 1.991-.523.4-.693.316-1.692.203-3.278z"/></svg>