<svg xmlns="http://www.w3.org/2000/svg" width="24" height="24" viewBox="0 0 24 24"><path d="M17.527 3.415l.539-.915c.281-.479.115-1.09-.373-1.366s-1.111-.112-1.392.366l-.537.911c-6.373-3.005-12.008-.341-14.764 3.079 3.012-1.386 6.783.749 7.064 3.999 2.971-1.367 6.709.698 6.99 3.957 3.012-1.386 6.855.791 7.139 4.041 1.631-4.012 1.126-10.135-4.666-14.072zm-5.156 8.744l-5.771 9.341c-.828 1.435-2.664 1.925-4.1 1.098-1.434-.828-1.926-2.663-1.098-4.097l.5-.866 1.732 1-.5.866c-.275.476-.111 1.089.366 1.365.479.275 1.092.111 1.367-.365l5.783-9.361c.702.144 1.221.425 1.721 1.019z"/></svg>