<svg xmlns="http://www.w3.org/2000/svg" width="24" height="24" viewBox="0 0 24 24"><path d="M13 2.056v-1.056c0-.552-.447-1-1-1s-1 .448-1 1v1.052c-6.916.522-10.371 5.594-11 9.906 1.865-2.677 6.136-2.677 8 0 1.836-2.637 6.045-2.689 7.917 0 1.864-2.677 6.219-2.677 8.083 0-.625-4.291-4.125-9.333-11-9.902zm-9.238 5.899c1.95-2.633 4.631-3.775 7.434-3.941-2.007 1.622-3.023 4.083-3.196 5.169-1.264-.876-2.783-1.282-4.238-1.228zm12.158 1.229c-.165-1.064-1.123-3.54-3.113-5.167 2.736.177 5.43 1.289 7.414 3.938-1.605-.054-3.101.402-4.301 1.229zm-2.92 2.973v8.843c0 1.657-1.344 3-3 3s-3-1.343-3-3v-1h2v1c0 .551.449 1 1 1s1-.449 1-1v-8.866c.68-.226 1.27-.242 2 .023z"/></svg>