<svg xmlns="http://www.w3.org/2000/svg" width="24" height="24" viewBox="0 0 24 24"><path d="M12 0c-6.627 0-12 5.373-12 12s5.373 12 12 12 12-5.373 12-12-5.373-12-12-12zm-1.955 16.318c-.377.652-1.211.875-1.864.499-.651-.376-.875-1.21-.499-1.862l.228-.394.788.454-.228.395c-.125.216-.051.495.166.62.218.125.496.051.621-.166l2.629-4.255c.318.065.555.193.782.463l-2.623 4.246zm7.089-1.824c-.129-1.477-1.876-2.467-3.245-1.837-.128-1.481-1.828-2.419-3.178-1.798-.128-1.478-1.842-2.448-3.211-1.818 1.253-1.555 3.814-2.765 6.711-1.399l.244-.414c.128-.217.411-.292.633-.167s.298.403.17.621l-.245.416c2.633 1.789 2.862 4.572 2.121 6.396z"/></svg>