<svg xmlns="http://www.w3.org/2000/svg" width="24" height="24" viewBox="0 0 24 24"><path d="M15.013 8.098l.245-.416c.128-.218.052-.496-.17-.621s-.505-.051-.633.167l-.244.414c-2.897-1.366-5.459-.156-6.711 1.399 1.369-.63 3.083.34 3.211 1.817 1.351-.621 3.05.317 3.178 1.798 1.369-.63 3.116.36 3.245 1.837.741-1.823.512-4.606-2.121-6.395zm-2.345 3.974l-2.623 4.246c-.377.652-1.211.875-1.864.499-.651-.376-.875-1.21-.499-1.862l.228-.394.788.454-.228.395c-.125.216-.051.495.166.62.218.125.496.051.621-.166l2.629-4.255c.319.065.555.193.782.463zm-.668-10.072c5.514 0 10 4.486 10 10s-4.486 10-10 10-10-4.486-10-10 4.486-10 10-10zm0-2c-6.627 0-12 5.373-12 12s5.373 12 12 12 12-5.373 12-12-5.373-12-12-12z"/></svg>