<svg xmlns="http://www.w3.org/2000/svg" width="24" height="24" viewBox="0 0 24 24"><path d="M13 12.157v8.843c0 1.657-1.343 3-3 3s-3-1.343-3-3v-1h2v1c0 .551.449 1 1 1s1-.449 1-1v-8.866c.68-.226 1.27-.242 2 .023zm0-10.101v-1.056c0-.552-.448-1-1-1s-1 .448-1 1v1.052c-6.916.522-10.372 5.594-11 9.906 1.473-2.115 4.444-2.552 6.548-1.325.888-2.731 2.932-5.798 4.38-6.633-1.263 1.664-2.523 4.242-2.771 7.763 1.887-2.409 5.841-2.414 7.691.109-.229-3.576-1.5-6.191-2.775-7.872 1.441.832 3.475 3.876 4.369 6.598 2.122-1.182 5.101-.734 6.559 1.36-.626-4.291-4.126-9.333-11.001-9.902z"/></svg>