<svg xmlns="http://www.w3.org/2000/svg" width="24" height="24" viewBox="0 0 24 24"><path d="M13.33 10.824c2.049 1.183 3.693 3.105 4.033 5.943-1.072-.669-2.271-.947-3.416-.855-.463-.98-1.229-1.822-2.215-2.391-.99-.572-2.104-.817-3.186-.729-.517-1.095-1.393-1.97-2.406-2.506 2.596-1.126 5.089-.695 7.19.538zm1.56-2.719c-.376-.217-.858-.088-1.075.289l-.415.716c-4.921-2.365-9.274-.268-11.401 2.426 2.326-1.092 5.237.59 5.456 3.149 2.289-1.075 5.18.546 5.398 3.117 2.324-1.092 5.293.623 5.512 3.182 1.263-3.172.861-7.988-3.604-11.083l.416-.72c.218-.376.089-.858-.287-1.076zm-4.105 8.684l-3.48 6.03c-.652 1.129-2.098 1.517-3.227.864-1.131-.652-1.518-2.097-.865-3.227l.395-.682 1.363.788-.395.682c-.217.376-.087.858.289 1.075.375.218.858.088 1.075-.288l3.491-6.045c.552.113.962.335 1.354.803zm8.215-15.215c.014.553-.021.965-.16 1.204-.125.218-.404.285-.626.157-.222-.127-.3-.406-.177-.621.139-.238.479-.474.963-.74zm-5.997 1.007c.046.955.017 1.629-.22 2.038-.23.397-.733.513-1.124.288-.399-.23-.534-.731-.312-1.117.237-.408.806-.771 1.656-1.209zm7.979 3.979c.046.955.017 1.629-.22 2.038-.229.397-.733.513-1.124.288-.397-.229-.535-.73-.312-1.117.236-.408.807-.771 1.656-1.209zm-1.073-6.56c-1.43.695-2.337 1.122-2.737 1.814-.4.694-.158 1.583.543 1.987.698.404 1.59.172 1.991-.523.4-.693.316-1.692.203-3.278zm-6.006 1.021c-1.787.869-2.921 1.403-3.421 2.268-.501.868-.197 1.979.678 2.484.872.506 1.99.212 2.489-.654.501-.866.396-2.116.254-4.098zm7.98 3.979c-1.787.869-2.921 1.403-3.422 2.268-.5.868-.197 1.979.678 2.484.872.504 1.988.218 2.49-.654.5-.866.395-2.116.254-4.098z"/></svg>