<svg xmlns="http://www.w3.org/2000/svg" width="24" height="24" viewBox="0 0 24 24"><path d="M20.699 1.414l-1.414-1.414-3.563 3.565c-.841-.249-1.743-.428-2.722-.509v-1.056c0-.552-.447-1-1-1s-1 .448-1 1v1.052c-6.916.522-10.371 5.594-11 9.906 1.634-2.346 5.114-2.635 7.205-.871l-6.201 6.206 1.414 1.414 18.281-18.293zm-12.699 8.769c-1.264-.876-2.783-1.282-4.238-1.228 2.138-2.888 5.155-3.997 8.249-3.974.704 0 1.409.063 2.104.193l-4.058 4.06c-.739.206-1.437.52-2.057.949zm16 2.775c-1.864-2.677-6.219-2.677-8.083 0-.813-1.168-2.068-1.818-3.378-1.964l1.66-1.662c.613.206 1.195.487 1.721.851 1.2-.827 2.696-1.283 4.301-1.229-.877-1.17-1.896-2.03-2.991-2.654l1.434-1.435c3.183 1.976 4.915 5.202 5.336 8.093zm-11 .199v7.843c0 1.657-1.344 3-3 3s-3-1.343-3-3v-1h2v1c0 .551.449 1 1 1s1-.449 1-1v-7.866c.68-.226 1.27-.242 2 .023z"/></svg>