<svg xmlns="http://www.w3.org/2000/svg" width="24" height="24" viewBox="0 0 24 24"><path d="M15.707 4.596c2.543 1.466 4.803 3.938 5.234 7.581-1.357-.864-2.943-1.263-4.501-1.133-1.214-2.554-4.001-4.208-6.989-3.959-.645-1.36-1.742-2.483-3.096-3.194 3.394-1.441 6.659-.816 9.352.705zm.594-3.096l-.537.911c-1.947-.918-3.825-1.307-5.573-1.307-3.975 0-7.276 2.01-9.19 4.385 3.011-1.386 6.783.749 7.064 3.999 2.97-1.366 6.709.698 6.99 3.957 3.009-1.386 6.855.789 7.139 4.041 1.631-4.012 1.126-10.135-4.666-14.071l.538-.915c.281-.479.115-1.09-.373-1.366-.494-.278-1.113-.108-1.392.366zm-3.93 10.659l-5.771 9.341c-.828 1.435-2.664 1.925-4.1 1.098-1.434-.828-1.926-2.663-1.098-4.097l.5-.866 1.732 1-.5.866c-.275.476-.111 1.089.366 1.365.479.275 1.092.111 1.367-.365l5.783-9.361c.702.144 1.221.425 1.721 1.019z"/></svg>