<svg width="24" height="24" xmlns="http://www.w3.org/2000/svg" fill-rule="evenodd" clip-rule="evenodd"><path d="M8.82 20.829c-1.56 1.561-4.094 1.562-5.656 0-.801-.8-1.184-1.854-1.165-2.901.018-.999.403-1.994 1.165-2.756l3.856-3.903-.707-.707-3.856 3.903c-.957.957-1.439 2.207-1.457 3.463-.019 1.304.463 2.614 1.457 3.608.975.976 2.255 1.464 3.535 1.464 1.28 0 2.56-.488 3.535-1.464l3.856-3.903-.707-.707-3.856 3.903zm9.16-5.671l3.712.995.259-.967-3.712-.994-.259.966zm-1.767 1.768l2.717 2.717.707-.707-2.717-2.717-.707.707zm-2.027 1.319l.994 3.713.966-.259-.994-3.713-.966.259zm-8.227-9.451l-3.712-.995-.259.966 3.712.995.259-.966zm9.214-5.623c1.561-1.563 4.095-1.562 5.657 0 1.563 1.562 1.563 4.095 0 5.657l-3.91 3.855.707.707 3.909-3.855c.976-.976 1.464-2.256 1.464-3.536 0-1.28-.488-2.559-1.464-3.535-.974-.976-2.311-1.464-3.589-1.464-1.28 0-2.507.488-3.481 1.464l-3.911 3.855.707.707 3.911-3.855zm-7.446 3.855l-2.718-2.717-.707.707 2.718 2.717.707-.707zm1.061-1.06l-.995-3.713.966-.259.995 3.713-.966.259z"/></svg>