<svg xmlns="http://www.w3.org/2000/svg" width="24" height="24" viewBox="0 0 24 24"><path d="M9 17h-5l8-8 8 8h-5v7h-6v-7zm-3.518-4.315c-.583-1.13-1.201-2.824-.872-4.936.233-1.492.939-2.829 1.935-3.887l.671-.271c.421-.632.445-.141.824-.306.126 0 .271-.52.406-.601.236-.152.056-.152.012-.221-.092-.151 1.973-.902 2.007-.768.028.114-1.022.661-.907.645-.266.036-.317.514-.267.512.133-.004.967-.633 1.355-.5.381.132 1.064-.303 1.332-.524.135-.112.259-.309.436-.309.819 0 2.042.336 2.322.503.426.254-.184.236-.25.402-.051.128-.171.302-.224.371-.092.12-.359.069-.307-.074.053-.15.312-.208-.079-.244-.4-.036-.51-.306-.912.031-.121.101-.211.257-.289.39-.111.189-.378.18-.49.356-.106.175.065.463.275.336.055-.034.688.58.606.085-.053-.328.177-.551.181-.798.002-.165.251-.06.185.027-.086.109-.183.48.045.499.087.007.306-.143.382-.077-.085-.001-.284.345-.27.339-.097.043-.21-.018-.136.189.067.205-.367.18-.446.222-.033.018-.375-.102-.367-.025-.118-.098.033-.341-.065-.38-.098.151-.052.461-.265.461-.182 0-.433.206-.542.332-.078.086-.548.276-.6.271.27.028.257.226.235.394-.054.39-.896.029-.86.177.034.142-.097.527-.126.651-.026.112.362.185.34.241.003-.006.525-.179.577-.225l.118-.264c.099-.066.203-.119.314-.161l.134-.232c.045-.018.581-.101.618-.083.135.062.384.318.478.435.034.043.205.105.205.169l-.005.201c.093.174.118-.361.079-.26 0-.17.126.063.155.044l-.592-.589c-.183-.308.49.165.577.222.085.057.256.566.482.451.143-.071-.003-.125.096-.206l.404-.081c-.321.234.25.542.163.5.145.067.229-.052.319-.019.05.02.596.013.509-.074.137.068.074.672-.039.766-.183.152-1.063.089-1.26-.052-.325-.235-.268.251-.426.317-.308.127-.771-.417-1.095-.434.157.024.014-.401.014-.43-.125-.154-.918.017-1.127.045-.391.052-.8.047-1.101.291-.211.171-.214.45-.429.586-.139.087-.292.058-.41.171-.211.2-.453.497-.571.76l.037.516c-.071.224-.099.47-.086.714l3.105-3.105 4.897 4.898c.497-.777 1.164-1.888.83-1.967l-.683.324c-.133.012-.643-.541-.777-.673-.249-.249-.358-.691-.561-.995-.119-.178-.479-.53-.479-.751.016.041.167.294.237.241l.012-.125c-.004.067.423.558.516.61.208.116.206.453.413.611.393.302.285 1.16.86.639.386-.349 1.139-1.009.938-1.612-.105-.32-.593-.086-.744.028-.16-.084-.747-.723-.516-.807.114-.041.364.295.454.345l.429-.006c.123.257.933-.265 1.125-.19.127.049.227.153.27.284.136.415.269 1.199.269 1.975 0 1.341-.357 2.598-.975 3.687l1.098 1.098c.874-1.388 1.387-3.024 1.387-4.785 0-4.971-4.03-9-9-9-4.971 0-9 4.029-9 9 0 1.761.513 3.398 1.387 4.785l1.095-1.1zm9.747-8.009c.062-.007-.08.125-.08.125.024.19.165.294.432.391.324.117.028.337-.158.286-.104-.028-.634-.189-.653.019 0 .124-.503.001-.425-.13.054-.088.037-.287.138-.417.144-.189.282-.086.287.023-.002.292.294-.278.459-.297zm-4.08-.263c.072.102.618-.146.531-.132.168-.084.022-.093-.072-.143-.032-.161-.06-.41-.16-.51l.066-.076c-.156-.224-.271.271-.271.271l.081-.023-.038.102c.064.116.016.186.005.249l-.112.069c-.04.05.193.057.196.064.01.026-.279.067-.226.129zm2.016 1.639c-.05 0-.333.026-.307.076.16.262.362-.069.307-.076zm-2.372-1.897c-.063.063.002.104.066.077.094-.041.22-.04.233-.165l.06-.075c.026-.039-.05-.103-.083-.109l-.112.077-.055.014-.051.065.005.036-.063.08z"/></svg>