<svg xmlns="http://www.w3.org/2000/svg" width="24" height="24" viewBox="0 0 24 24"><path d="M20.822 18.096c-3.439-.794-6.641-1.49-5.09-4.418.4-.756.74-1.481 1.027-2.178-.866.496-1.833.88-2.359 1.011l-.224-1.066c1.148-.328 2.388-.939 3.252-1.838 1.836-6.283-1.267-9.607-5.428-9.607-5.082 0-8.465 4.949-3.732 13.678 1.598 2.945-1.725 3.641-5.09 4.418-2.979.688-3.178 2.143-3.178 4.663l.005 1.241h23.99l.005-1.241c0-2.52-.199-3.975-3.178-4.663zm-8.814-4.776c-.441.091-.873-.194-.963-.636-.092-.442.193-.874.634-.965l1.753-.389.329 1.6-1.753.39z"/></svg>