<svg xmlns="http://www.w3.org/2000/svg" width="24" height="24" viewBox="0 0 24 24"><path d="M23 18h-5v-1h5v1zm-15.998-10c-2.494 0-4.227 2.383-1.867 6.839.775 1.464-.826 1.812-2.545 2.209-1.491.345-1.59 1.074-1.59 2.337l.002.615h1.33c0-1.918-.186-1.385 1.824-1.973 1.014-.295 1.91-.723 2.316-1.612.211-.463.355-1.22-.162-2.197-.953-1.798-1.219-3.374-.713-4.215.547-.909 2.27-.908 2.82.015.935 1.567-.794 3.982-1.021 4.982h1.396c.442-1 1.208-2.208 1.208-3.9 0-2.01-1.312-3.1-2.998-3.1zm7.754-1.556c.895-1.487 3.609-1.494 4.512.022.77 1.291.422 3.484-.949 6.017-.098.18-.17.351-.232.517h1.463c3.057-5.744.816-9-2.547-9-3.324 0-5.635 3.177-2.488 9.119 1.033 1.952-1.102 2.416-3.395 2.946-1.986.459-2.118 1.429-2.118 3.111l.003.825h1.33c0-2.069-.08-2.367 1.174-2.657 1.918-.442 3.729-.86 4.389-2.305.242-.527.402-1.397-.205-2.543-1.363-2.573-1.705-4.778-.937-6.052z"/></svg>