<svg width="24" height="24" xmlns="http://www.w3.org/2000/svg" fill-rule="evenodd" clip-rule="evenodd"><path d="M24 24h-24v-24h24v24zm-5.806-17.791c-.419-.386-2.114-1.616-5.887-1.633 0 0-4.451-.268-6.62 1.722-1.207 1.208-1.632 2.974-1.677 5.166-.045 2.192-.103 6.298 3.855 7.411l.004.001-.002 1.699s-.025.688.427.828c.548.17.87-.353 1.393-.916.287-.309.683-.764.982-1.111 2.707.227 4.789-.293 5.026-.37.547-.178 3.639-.574 4.142-4.679.519-4.234-.251-6.911-1.643-8.118zm.458 7.812c-.425 3.428-2.933 3.645-3.395 3.793-.197.063-2.026.518-4.325.368 0 0-1.714 2.067-2.249 2.605-.083.084-.181.118-.247.102-.092-.023-.118-.132-.116-.291l.014-2.824c-3.348-.93-3.153-4.425-3.115-6.255.038-1.83.382-3.33 1.403-4.338 1.835-1.662 5.615-1.414 5.615-1.414 3.192.014 4.722.976 5.077 1.298 1.177 1.008 1.777 3.421 1.338 6.956zm-6.025.206s.3.026.461-.174l.315-.396c.152-.196.519-.322.878-.122.475.268 1.09.69 1.511 1.083.232.196.286.484.128.788l-.002.006c-.162.288-.38.557-.655.807l-.006.005c-.309.258-.665.408-1.046.284l-.007-.01c-.683-.193-2.322-1.029-3.367-1.862-1.709-1.349-2.923-3.573-3.26-4.765l-.01-.007c-.124-.382.027-.738.284-1.046l.005-.006c.251-.275.52-.492.807-.655l.006-.001c.304-.159.592-.105.788.127.258.267.743.908 1.083 1.511.2.359.075.726-.122.878l-.396.315c-.2.161-.174.461-.174.461s.586 2.219 2.779 2.779zm3.451-1.84c.118-.001.213-.097.212-.215-.011-1.404-.441-2.531-1.278-3.348-.835-.814-1.887-1.231-3.126-1.24h-.001c-.117 0-.213.094-.214.212 0 .118.094.214.212.215 1.125.008 2.078.384 2.831 1.119.753.734 1.139 1.759 1.149 3.046.001.117.096.211.213.211h.002zm-1.123-.438h-.005c-.118-.003-.211-.1-.208-.218.016-.73-.192-1.32-.637-1.806-.443-.484-1.051-.749-1.86-.808-.117-.009-.206-.111-.197-.228.009-.118.111-.206.228-.198.91.067 1.631.385 2.144.946.515.562.767 1.27.748 2.103-.002.117-.097.209-.213.209zm-1.095-.367c-.113 0-.207-.089-.213-.203-.036-.724-.377-1.079-1.074-1.116-.117-.007-.208-.107-.201-.225.006-.117.106-.208.224-.201.919.049 1.43.575 1.477 1.521.006.118-.084.218-.202.224h-.011z"/></svg>