<svg width="24" height="24" xmlns="http://www.w3.org/2000/svg" fill-rule="evenodd" clip-rule="evenodd"><path d="M12 0c-6.627 0-12 5.373-12 12s5.373 12 12 12 12-5.373 12-12-5.373-12-12-12zm0 2c5.514 0 10 4.486 10 10s-4.486 10-10 10-10-4.486-10-10 4.486-10 10-10zm4.645 5.906c-.314-.289-1.585-1.211-4.415-1.224 0 0-3.338-.201-4.965 1.292-.905.905-1.224 2.23-1.258 3.874-.033 1.644-.077 4.723 2.892 5.558l.003.001-.002 1.274s-.019.516.321.622c.411.127.652-.265 1.044-.688.216-.232.513-.573.737-.833 2.03.17 3.592-.22 3.769-.277.41-.134 2.73-.431 3.107-3.51.389-3.175-.189-5.183-1.233-6.089zm.344 5.86c-.319 2.571-2.199 2.733-2.546 2.845-.148.047-1.52.388-3.244.276 0 0-1.285 1.55-1.686 1.953-.063.063-.137.089-.186.077-.069-.017-.088-.099-.087-.219l.011-2.117h-.001c-2.511-.698-2.364-3.319-2.336-4.692.029-1.372.287-2.497 1.053-3.253 1.376-1.247 4.211-1.06 4.211-1.06 2.394.01 3.541.731 3.807.973.883.756 1.333 2.565 1.004 5.217zm-4.519.154s.225.02.346-.13l.237-.297c.113-.148.388-.242.658-.092.356.202.817.518 1.133.812.174.148.214.364.096.592l-.001.004c-.122.216-.285.417-.492.606l-.004.003c-.232.194-.499.306-.784.213l-.006-.008c-.512-.144-1.741-.771-2.525-1.396-1.282-1.012-2.193-2.68-2.445-3.574l-.008-.005c-.093-.286.02-.553.213-.784l.004-.005c.188-.206.39-.369.605-.491l.005-.001c.228-.119.444-.079.591.096.193.199.557.68.812 1.133.15.269.056.544-.091.658l-.298.236c-.15.121-.13.346-.13.346s.44 1.664 2.084 2.084zm2.589-1.379h-.002c-.088 0-.159-.071-.16-.159-.007-.965-.297-1.734-.861-2.285-.566-.551-1.28-.833-2.124-.839-.088-.001-.159-.073-.158-.161 0-.088.072-.159.16-.159h.001c.929.007 1.718.32 2.344.93.628.613.95 1.458.958 2.511.001.089-.07.161-.158.162zm-.843-.329h-.003c-.089-.002-.159-.076-.157-.164.013-.547-.144-.99-.477-1.354-.333-.364-.789-.562-1.395-.606-.088-.007-.154-.083-.148-.171.006-.089.083-.155.171-.148.682.05 1.223.288 1.608.709.386.422.575.952.561 1.577-.002.087-.073.157-.16.157zm-.821-.276c-.085 0-.155-.066-.16-.152-.027-.543-.283-.809-.805-.837-.088-.005-.156-.08-.151-.168.005-.089.08-.156.168-.152.69.038 1.073.432 1.108 1.141.004.089-.064.164-.152.168h-.008z"/></svg>