<svg xmlns="http://www.w3.org/2000/svg" width="24" height="24" viewBox="0 0 24 24"><path d="M10 6c0-2.761-2.239-5-5-5s-5 2.238-5 5c0 1.151.259 1.889.557 2.466.294.569.443 1.191.443 1.831v8.703c0 2.209 1.791 4 4 4s4-1.791 4-4v-8.825c0-.652.159-1.298.465-1.874.301-.566.535-1.186.535-2.301zm-5-3c1.654 0 3 1.346 3 3s-1.346 3-3 3-3-1.346-3-3 1.346-3 3-3zm1 3c0 .552-.447 1-1 1s-1-.448-1-1 .447-1 1-1 1 .448 1 1zm3.89-5c1.299 1.271 2.11 3.042 2.11 5 0 2.022-.734 3.469-.979 4h10.979c1.104 0 2-.896 2-2v-5c0-1.104-.896-2-2-2h-12.11zm11.11 4h-6v-1h6v1z"/></svg>