<svg xmlns="http://www.w3.org/2000/svg" width="24" height="24" viewBox="0 0 24 24"><path d="M21 9.236v3.528l-2-1v-1.528l2-1zm2-3.236l-6 3v4l6 3v-10zm-12.617 11h-2.766l-5.588 5.586 1.414 1.414 4.557-4.556v4.553h2v-4.553l4.557 4.556 1.414-1.414-5.588-5.586zm3.117-15c.827 0 1.5.673 1.5 1.5s-.673 1.5-1.5 1.5-1.5-.673-1.5-1.5.673-1.5 1.5-1.5zm-9 0c.827 0 1.5.673 1.5 1.5s-.673 1.5-1.5 1.5-1.5-.673-1.5-1.5.673-1.5 1.5-1.5zm9-2c-1.933 0-3.5 1.567-3.5 3.5s1.567 3.5 3.5 3.5 3.5-1.567 3.5-3.5-1.567-3.5-3.5-3.5zm-9 0c-1.933 0-3.5 1.567-3.5 3.5s1.567 3.5 3.5 3.5 3.5-1.567 3.5-3.5-1.567-3.5-3.5-3.5zm9 9c-.169 0-.335-.016-.5-.031v3.531c0 .276-.224.5-.5.5h-7c-.276 0-.5-.224-.5-.5v-3.531c-.165.015-.331.031-.5.031-.521 0-1.022-.078-1.5-.213v4.713c0 .829.672 1.5 1.5 1.5h9c.828 0 1.5-.671 1.5-1.5v-4.713c-.478.135-.979.213-1.5.213z"/></svg>