<svg xmlns="http://www.w3.org/2000/svg" width="24" height="24" viewBox="0 0 24 24"><path d="M2.184 7.874l-2.184-.918 2.967-2.956.933 2.164-1.716 1.71zm21.816 2.126l-3 2v4l3 2v-8zm-7-2h-7.018l.79.787c.356.355.629.769.831 1.213h4.897c.276 0 .5.224.5.5v7c0 .276-.224.5-.5.5h-11c-.276 0-.5-.224-.5-.5v-2.909l-.018-.014-1.982-1.975v5.398c0 1.104.896 2 2 2h12c1.104 0 2-.896 2-2v-8c0-1.104-.896-2-2-2zm-14.65 1.13l2.967-2.956 4.044 4.029c.819.816.819 2.14 0 2.956-.819.816-2.147.815-2.967 0l-4.044-4.029z"/></svg>