<svg xmlns="http://www.w3.org/2000/svg" width="24" height="24" viewBox="0 0 24 24"><path d="M21 6c.552 0 1 .449 1 1v10c0 .551-.448 1-1 1h-18c-.552 0-1-.449-1-1v-10c0-.551.448-1 1-1h18zm0-2h-18c-1.657 0-3 1.343-3 3v10c0 1.657 1.343 3 3 3h18c1.657 0 3-1.343 3-3v-10c0-1.657-1.343-3-3-3zm-4.638 5h-2.797l-1.33 6h2.37c1.336 0 2.845.025 3.901-1.343 1.112-1.42 1.203-4.657-2.144-4.657zm-.407 4.334c-.245.051-1.376.042-1.376.042l.624-2.83h.733c2.038.041 1.401 2.5.019 2.788zm-3.643-4.334l-1.349 6h-1.99l.534-2.4h-2.137l-.552 2.4h-2.018l1.367-6h2.01l-.409 1.8h2.146l.407-1.8h1.991z"/></svg>