<svg xmlns="http://www.w3.org/2000/svg" width="24" height="24" viewBox="0 0 24 24"><path d="M13.5 11c.276 0 .5.224.5.5v7c0 .276-.224.5-.5.5h-11c-.276 0-.5-.224-.5-.5v-7c0-.276.224-.5.5-.5h11zm2.5 0c0-1.104-.896-2-2-2h-12c-1.104 0-2 .896-2 2v8c0 1.104.896 2 2 2h12c1.104 0 2-.896 2-2v-8zm-4 3h-8v-1h8v1zm-3.757-10h2.757v2h-2.103c-.887 0-1.245.423-1.85 1h-3.047l2.121-2.121c.563-.563 1.326-.879 2.122-.879zm9.817 1c0 1.104-.896 2-2 2h-4.06v-4h4.06c1.104 0 2 .895 2 2zm3.94 8.236v3.528l-2-1v-1.528l2-1zm2-3.236l-6 3v4l6 3v-10z"/></svg>