<svg xmlns="http://www.w3.org/2000/svg" width="24" height="24" viewBox="0 0 24 24"><path d="M5 3c1.654 0 3 1.346 3 3 0 1.519-1 1.939-1 4.176v8.824c0 1.103-.897 2-2 2s-2-.897-2-2v-8.703c0-2.34-1-2.553-1-4.297 0-1.654 1.346-3 3-3zm0-2c-2.761 0-5 2.238-5 5 0 2.372 1 2.445 1 4.298v8.702c0 2.209 1.791 4 4 4s4-1.791 4-4v-8.825c0-1.923 1-1.852 1-4.175 0-2.762-2.239-5-5-5zm1 5c0 .552-.447 1-1 1s-1-.448-1-1 .447-1 1-1 1 .448 1 1zm15.5-3c.276 0 .5.224.5.5v4c0 .276-.224.5-.5.5h-7.696c.331-1.691.256-3.388-.315-5h8.011zm2.5 0c0-1.104-.896-2-2-2h-12.11c2.146 2.099 2.871 5.215 1.132 9h10.978c1.104 0 2-.896 2-2v-5zm-3 2h-6v-1h6v1z"/></svg>