<svg xmlns="http://www.w3.org/2000/svg" width="24" height="24" viewBox="0 0 24 24"><path d="M19.5 15c-2.485 0-4.5 2.015-4.5 4.5s2.015 4.5 4.5 4.5 4.5-2.015 4.5-4.5-2.015-4.5-4.5-4.5zm-.469 6.484l-1.688-1.637.696-.697.991.94 2.116-2.169.696.696-2.811 2.867zm-6.031-1.984c0-3.584 2.916-6.5 6.5-6.5 1.173 0 2.271.317 3.223.863.716-.287 1.277-.958 1.277-1.863 0-1.686-1.926-2.605-3.236-1.623-.694.519-1.537.801-2.404.801-1.607 0-2.414-1.963-1.281-3.095.613-.615 1.405-1.009 2.266-1.133 1.621-.233 2.334-2.244 1.142-3.437s-3.203-.479-3.437 1.142c-.123.857-.52 1.653-1.133 2.266-1.138 1.138-3.095.329-3.095-1.282 0-.869.28-1.708.802-2.403.981-1.312.06-3.236-1.624-3.236-1.683 0-2.605 1.923-1.623 3.237.52.693.802 1.537.802 2.403 0 1.61-1.956 2.421-3.095 1.282-.615-.614-1.01-1.406-1.133-2.266-.233-1.621-2.244-2.334-3.436-1.141s-.48 3.203 1.141 3.436c.857.123 1.653.52 2.266 1.132 1.139 1.139.33 3.095-1.281 3.095-.869 0-1.707-.28-2.403-.801-1.314-.983-3.238-.061-3.238 1.623 0 1.683 1.924 2.606 3.237 1.623.693-.519 1.536-.801 2.403-.801 1.609 0 2.42 1.956 1.281 3.095-.613.615-1.405 1.009-2.266 1.133-1.621.233-2.334 2.244-1.142 3.437s3.203.479 3.437-1.142c.123-.857.52-1.653 1.133-2.266 1.139-1.138 3.095-.329 3.095 1.282 0 .869-.28 1.708-.802 2.404-.98 1.308-.064 3.235 1.624 3.235.901 0 1.574-.559 1.863-1.277-.546-.951-.863-2.05-.863-3.223zm1.447-8.396c.547 0 .99.443.99.99s-.443.99-.99.99-.99-.443-.99-.99.443-.99.99-.99zm-3.669 4.305c-.727 0-1.315-.589-1.315-1.315s.589-1.315 1.315-1.315 1.315.589 1.315 1.315-.588 1.315-1.315 1.315zm.519-3.879c-.857 0-1.553-.695-1.553-1.553s.695-1.553 1.553-1.553 1.554.695 1.554 1.553-.696 1.553-1.554 1.553z"/></svg>