<svg xmlns="http://www.w3.org/2000/svg" width="24" height="24" viewBox="0 0 24 24"><path d="M10.382 15.188c-.347.26-.769.401-1.202.401-.803 0-1.207-.981-.641-1.547.307-.307.702-.505 1.133-.566.811-.117 1.167-1.122.57-1.718-.596-.597-1.601-.24-1.718.571-.062.429-.261.827-.566 1.133-.569.568-1.548.164-1.548-.642 0-.435.141-.854.4-1.202.493-.656.032-1.618-.81-1.618s-1.303.961-.811 1.618c.259.347.4.769.4 1.202 0 .805-.979 1.21-1.548.641-.308-.307-.505-.702-.566-1.133-.117-.811-1.122-1.167-1.718-.571-.597.596-.24 1.601.57 1.718.428.062.826.26 1.133.566.569.569.165 1.547-.641 1.547-.435 0-.854-.14-1.202-.401-.655-.49-1.617-.029-1.617.813 0 .841.962 1.303 1.618.812.347-.26.769-.401 1.202-.401.805 0 1.21.978.641 1.547-.307.307-.702.505-1.133.566-.811.117-1.167 1.122-.57 1.718.596.597 1.601.24 1.718-.571.062-.429.261-.827.566-1.133.569-.568 1.548-.164 1.548.642 0 .435-.141.854-.4 1.202-.492.655-.034 1.618.81 1.618.839 0 1.306-.96.811-1.62-.26-.344-.4-.764-.4-1.195 0-.807.979-1.216 1.548-.647.308.308.505.703.566 1.134.117.811 1.122 1.167 1.718.571.596-.595.242-1.603-.572-1.718-.426-.061-.822-.258-1.127-.562-.572-.571-.169-1.551.637-1.551.435 0 .854.14 1.202.401.654.489 1.617.031 1.617-.813 0-.843-.963-1.303-1.618-.812zm-5.364 2.148c-.273 0-.495-.221-.495-.495 0-.273.222-.495.495-.495s.495.222.495.495c0 .274-.222.495-.495.495zm.63-1.571c-.429 0-.775-.348-.775-.776 0-.429.347-.777.775-.777s.777.348.777.777c.001.428-.348.776-.777.776zm1.464 1.484c-.363 0-.657-.294-.657-.657s.294-.658.657-.658.657.295.657.658-.293.657-.657.657zm16.888-14.249v11.535c0 4.603-3.203 5.804-9 9.465-1.318-.833-2.496-1.535-3.539-2.183.575-.481.894-1.055 1.021-1.726.731.456 1.564.962 2.519 1.551 5.313-3.281 7-4.065 7-7.107v-9.575c-2.446-.124-4.5-.611-7-2.416-2.5 1.805-4.554 2.292-7 2.416v3.806c-.541-.484-1.244-.766-2.001-.766v-5c3.516 0 5.629-.134 9-3 3.371 2.866 5.484 3 9 3zm-4 11.535c0 1.606-.415 1.935-5 4.76v-14.353c1.827 1.105 3.474 1.6 5 1.833v7.76z"/></svg>