<svg xmlns="http://www.w3.org/2000/svg" width="24" height="24" viewBox="0 0 24 24"><path d="M14.707 7.351c-.492.368-1.088.567-1.702.567-1.139 0-1.71-1.39-.907-2.192.434-.435.994-.714 1.604-.802 1.147-.166 1.652-1.589.809-2.435-.845-.845-2.269-.339-2.435.809-.087.607-.368 1.171-.802 1.605-.806.806-2.192.232-2.192-.908 0-.616.198-1.21.567-1.703.697-.929.043-2.292-1.149-2.292-1.191 0-1.846 1.362-1.149 2.293.368.492.567 1.089.567 1.702 0 1.142-1.385 1.715-2.192.909-.435-.436-.714-.996-.802-1.606-.166-1.148-1.589-1.653-2.435-.809-.844.846-.339 2.269.809 2.435.607.087 1.172.368 1.606.802.805.807.232 2.192-.909 2.192-.615 0-1.209-.198-1.702-.567-.93-.697-2.293-.043-2.293 1.149 0 1.191 1.362 1.846 2.293 1.149.492-.368 1.089-.567 1.702-.567 1.142 0 1.715 1.385.909 2.192-.436.435-.996.714-1.605.802-1.148.166-1.654 1.589-.809 2.435.846.845 2.269.339 2.435-.809.087-.607.368-1.171.802-1.605.807-.805 2.192-.232 2.192.908 0 .616-.198 1.21-.567 1.703-.697.927-.047 2.292 1.148 2.292 1.188 0 1.85-1.359 1.148-2.295-.367-.488-.566-1.082-.566-1.693 0-1.144 1.385-1.722 2.192-.916.435.436.715.996.802 1.605.166 1.148 1.59 1.654 2.435.809.843-.843.342-2.271-.812-2.435-.604-.085-1.166-.365-1.598-.797-.809-.808-.239-2.197.903-2.197.616 0 1.209.198 1.702.567.929.697 2.294.047 2.294-1.148 0-1.194-1.364-1.845-2.293-1.149zm-7.599 3.043c-.388 0-.702-.314-.702-.702s.314-.701.702-.701c.387 0 .701.314.701.701s-.313.702-.701.702zm.894-2.227c-.608 0-1.1-.493-1.1-1.1 0-.608.492-1.101 1.1-1.101.607 0 1.1.493 1.1 1.101 0 .607-.492 1.1-1.1 1.1zm2.073 2.103c-.515 0-.932-.417-.932-.932s.417-.931.932-.931.933.417.933.931-.418.932-.933.932zm12.576 8.054c-.288.217-.64.334-1.001.334-.669 0-1.006-.817-.535-1.289.257-.256.586-.421.945-.473.675-.098.972-.935.475-1.432-.497-.497-1.334-.2-1.431.476-.053.357-.219.689-.473.943-.475.475-1.29.138-1.29-.533 0-.363.117-.712.333-1.002.411-.547.028-1.348-.674-1.348s-1.085.801-.675 1.348c.215.29.333.641.333 1.002 0 .67-.815 1.008-1.289.533-.258-.255-.421-.584-.473-.943-.098-.676-.936-.973-1.432-.476-.498.497-.2 1.334.477 1.432.355.051.687.217.943.473.474.474.137 1.289-.533 1.289-.364 0-.713-.117-1.004-.334-.546-.41-1.347-.025-1.347.676 0 .701.801 1.086 1.348.676.291-.217.643-.334 1.004-.334.67 0 1.008.815.533 1.289-.257.256-.588.421-.943.473-.677.098-.975.935-.477 1.432.496.497 1.334.2 1.432-.476.052-.357.218-.689.472-.943.475-.475 1.29-.138 1.29.533 0 .363-.117.712-.333 1.002-.411.545-.029 1.348.674 1.348.698 0 1.089-.8.675-1.35-.216-.286-.333-.637-.333-.996 0-.672.815-1.013 1.29-.54.257.256.42.586.473.945.097.676.934.973 1.431.476.497-.496.201-1.336-.478-1.432-.354-.051-.685-.215-.938-.469-.478-.476-.142-1.293.531-1.293.362 0 .71.117 1.001.334.546.409 1.348.028 1.348-.675 0-.703-.802-1.086-1.349-.676zm-4.47 1.79c-.227 0-.411-.184-.411-.413 0-.228.185-.413.411-.413.229 0 .414.185.414.413 0 .229-.186.413-.414.413zm.526-1.31c-.356 0-.646-.29-.646-.647 0-.358.289-.647.646-.647.357 0 .648.289.648.647 0 .357-.291.647-.648.647zm1.22 1.237c-.303 0-.547-.245-.547-.547s.244-.549.547-.549.548.246.548.549-.246.547-.548.547z"/></svg>