<svg xmlns="http://www.w3.org/2000/svg" width="24" height="24" viewBox="0 0 24 24"><path d="M11.362 2c4.156 0 2.638 6 2.638 6s6-1.65 6 2.457v11.543h-16v-20h7.362zm.827-2h-10.189v24h20v-14.386c0-2.391-6.648-9.614-9.811-9.614zm3.462 14.324c-.289.216-.641.334-1.002.334-.669 0-1.006-.818-.533-1.29.255-.256.585-.42.943-.472.676-.098.973-.935.476-1.432-.496-.497-1.334-.2-1.432.476-.051.357-.217.689-.472.944-.475.474-1.29.137-1.29-.534 0-.362.117-.711.334-1.001.411-.547.026-1.349-.675-1.349s-1.086.801-.676 1.349c.216.289.334.641.334 1.001 0 .671-.815 1.009-1.29.534-.256-.256-.421-.585-.472-.944-.098-.675-.936-.973-1.432-.476-.497.497-.2 1.334.476 1.432.356.051.688.216.943.472.475.475.138 1.29-.533 1.29-.362 0-.712-.117-1.002-.334-.546-.41-1.348-.026-1.348.676 0 .701.802 1.086 1.349.676.289-.216.641-.334 1.002-.334.67 0 1.008.815.533 1.29-.255.256-.585.42-.943.472-.676.098-.973.935-.476 1.432.496.497 1.334.2 1.432-.476.051-.357.217-.689.472-.944.475-.474 1.29-.137 1.29.534 0 .362-.117.711-.334 1.001-.41.546-.028 1.349.675 1.349.699 0 1.088-.8.676-1.35-.217-.287-.334-.636-.334-.996 0-.673.815-1.013 1.29-.539.256.256.421.586.472.945.098.675.936.973 1.432.476.496-.496.202-1.336-.477-1.432-.355-.05-.686-.215-.939-.469-.477-.476-.141-1.292.53-1.292.362 0 .712.117 1.002.334.545.408 1.348.026 1.348-.677 0-.702-.803-1.085-1.349-.676zm-4.469 1.79c-.229 0-.413-.185-.413-.413 0-.228.185-.413.413-.413.228 0 .412.185.412.413 0 .228-.185.413-.412.413zm.525-1.31c-.357 0-.646-.29-.646-.647s.289-.647.646-.647.647.29.647.647-.29.647-.647.647zm1.22 1.237c-.303 0-.548-.245-.548-.548s.245-.548.548-.548.548.246.548.548-.246.548-.548.548z"/></svg>