<svg xmlns="http://www.w3.org/2000/svg" width="24" height="24" viewBox="0 0 24 24"><path d="M24 21.172l-5.66-5.659c1.047-1.581 1.66-3.475 1.66-5.513 0-5.523-4.477-10-10-10s-10 4.477-10 10 4.477 10 10 10c2.038 0 3.932-.613 5.512-1.66l5.66 5.66 2.828-2.828zm-22-11.172c0-4.411 3.589-8 8-8s8 3.589 8 8-3.589 8-8 8-8-3.589-8-8zm11.651-.676c-.288.217-.64.334-1.001.334-.67 0-1.006-.818-.535-1.289.257-.256.586-.421.945-.473.675-.097.972-.935.475-1.432-.497-.497-1.334-.2-1.432.476-.052.357-.217.688-.472.943-.475.475-1.29.138-1.29-.533 0-.363.117-.712.334-1.002.41-.547.027-1.348-.675-1.348s-1.085.801-.676 1.349c.216.289.334.64.334 1.002 0 .67-.815 1.008-1.29.533-.257-.255-.42-.585-.472-.944-.097-.675-.934-.973-1.431-.476s-.2 1.334.475 1.432c.357.051.688.217.945.473.473.474.136 1.289-.535 1.289-.361 0-.71-.117-1.001-.334-.547-.41-1.349-.025-1.349.676s.802 1.086 1.349.676c.288-.217.64-.334 1.001-.334.672 0 1.009.815.535 1.289-.257.256-.586.421-.945.473-.675.097-.972.935-.475 1.432.497.497 1.334.2 1.432-.476.052-.357.217-.688.472-.943.475-.475 1.29-.138 1.29.533 0 .363-.117.712-.334 1.002-.41.545-.028 1.348.675 1.348.699 0 1.088-.8.675-1.35-.216-.287-.333-.637-.333-.996 0-.672.815-1.013 1.29-.539.257.256.42.586.472.944.098.676.935.973 1.432.476.497-.496.201-1.336-.478-1.432-.354-.051-.685-.215-.938-.469-.478-.476-.141-1.293.531-1.293.361 0 .71.117 1.001.334.546.41 1.348.028 1.348-.675 0-.703-.802-1.086-1.349-.676zm-4.47 1.79c-.227 0-.412-.184-.412-.413 0-.228.186-.413.412-.413.229 0 .413.185.413.413 0 .229-.185.413-.413.413zm.526-1.31c-.357 0-.646-.29-.646-.647 0-.358.289-.647.646-.647s.648.289.648.647c0 .358-.291.647-.648.647zm1.22 1.237c-.303 0-.547-.245-.547-.547s.244-.549.547-.549.548.246.548.549-.246.547-.548.547z"/></svg>