<svg xmlns="http://www.w3.org/2000/svg" width="24" height="24" viewBox="0 0 24 24"><path d="M12 2c5.514 0 10 4.486 10 10s-4.486 10-10 10-10-4.486-10-10 4.486-10 10-10zm0-2c-6.627 0-12 5.373-12 12s5.373 12 12 12 12-5.373 12-12-5.373-12-12-12zm4.382 11.188c-.347.26-.769.401-1.202.401-.804 0-1.207-.981-.641-1.547.307-.308.703-.505 1.133-.566.811-.117 1.167-1.122.571-1.718s-1.602-.24-1.718.571c-.062.429-.26.827-.566 1.133-.569.569-1.547.165-1.547-.641 0-.435.14-.854.401-1.202.49-.657.029-1.619-.813-1.619-.841 0-1.303.962-.812 1.619.26.347.401.768.401 1.202 0 .805-.978 1.21-1.547.641-.308-.308-.505-.704-.566-1.134-.117-.81-1.122-1.167-1.719-.571s-.24 1.602.571 1.718c.429.062.827.26 1.133.566.569.569.165 1.547-.641 1.547-.435 0-.854-.14-1.202-.401-.656-.49-1.618-.029-1.618.813 0 .841.962 1.303 1.619.812.347-.26.768-.401 1.202-.401.805 0 1.21.978.641 1.547-.307.308-.703.505-1.133.566-.811.117-1.167 1.122-.571 1.718s1.602.24 1.718-.571c.062-.429.26-.827.566-1.133.569-.569 1.547-.165 1.547.641 0 .435-.14.854-.401 1.202-.49.656-.032 1.619.812 1.619.839 0 1.306-.959.811-1.62-.259-.344-.4-.764-.4-1.194 0-.808.978-1.216 1.547-.647.308.307.505.703.566 1.133.117.811 1.122 1.167 1.718.571.595-.595.242-1.603-.573-1.718-.427-.061-.823-.258-1.127-.562-.571-.571-.168-1.551.637-1.551.435 0 .854.14 1.202.401.656.489 1.619.031 1.619-.813 0-.843-.963-1.303-1.618-.812zm-5.364 2.149c-.273 0-.495-.222-.495-.495s.222-.495.495-.495.495.222.495.495-.222.495-.495.495zm.63-1.572c-.429 0-.776-.348-.776-.777 0-.429.348-.776.776-.776.429 0 .777.348.777.776 0 .429-.347.777-.777.777zm1.464 1.484c-.363 0-.658-.294-.658-.657s.294-.658.658-.658.658.295.658.658-.294.657-.658.657z"/></svg>