<svg xmlns="http://www.w3.org/2000/svg" width="24" height="24" viewBox="0 0 24 24"><path d="M20.763 10.377c-.694.519-1.537.801-2.403.801-1.607 0-2.415-1.963-1.282-3.095.614-.615 1.406-1.009 2.266-1.133 1.621-.233 2.334-2.244 1.142-3.437s-3.203-.479-3.437 1.142c-.123.857-.52 1.653-1.132 2.266-1.138 1.138-3.095.329-3.095-1.282 0-.869.28-1.708.801-2.403.983-1.312.061-3.236-1.623-3.236-1.683 0-2.606 1.923-1.623 3.237.519.693.801 1.537.801 2.403 0 1.61-1.956 2.421-3.095 1.282-.614-.614-1.008-1.405-1.132-2.266-.233-1.621-2.243-2.334-3.436-1.141s-.48 3.203 1.141 3.436c.857.123 1.653.52 2.266 1.132 1.138 1.139.329 3.095-1.282 3.095-.869 0-1.707-.28-2.403-.801-1.313-.983-3.237-.061-3.237 1.623 0 1.683 1.923 2.606 3.237 1.623.693-.519 1.537-.801 2.403-.801 1.61 0 2.421 1.956 1.282 3.095-.614.615-1.406 1.009-2.266 1.133-1.621.233-2.334 2.244-1.142 3.437s3.203.479 3.437-1.142c.123-.857.52-1.653 1.132-2.266 1.139-1.138 3.095-.329 3.095 1.282 0 .869-.28 1.708-.801 2.404-.981 1.308-.064 3.235 1.623 3.235 1.677 0 2.611-1.919 1.621-3.24-.518-.689-.799-1.528-.799-2.39 0-1.615 1.957-2.432 3.095-1.293.615.615 1.009 1.406 1.133 2.267.233 1.621 2.244 2.334 3.437 1.142 1.19-1.19.483-3.206-1.146-3.437-.854-.121-1.646-.515-2.255-1.125-1.143-1.141-.337-3.102 1.274-3.102.87 0 1.708.28 2.404.801 1.309.981 3.236.064 3.236-1.623 0-1.686-1.926-2.605-3.237-1.623zm-10.728 4.296c-.547 0-.99-.443-.99-.99s.443-.99.99-.99.99.443.99.99-.443.99-.99.99zm1.262-3.143c-.858 0-1.553-.695-1.553-1.553s.695-1.553 1.553-1.553 1.553.695 1.553 1.553-.695 1.553-1.553 1.553zm2.928 2.969c-.727 0-1.315-.589-1.315-1.315s.589-1.315 1.315-1.315 1.315.589 1.315 1.315-.589 1.315-1.315 1.315z"/></svg>