<svg xmlns="http://www.w3.org/2000/svg" width="24" height="24" viewBox="0 0 24 24"><path d="M11.048 9.614c0 .121-.098.219-.219.219s-.219-.098-.219-.219.098-.219.219-.219.219.098.219.219zm-4.435-4.035c.209-.209.428-.404.654-.583l-2.99-2.996h-2.477l4.231 4.231c.18-.226.374-.444.582-.652zm-4.894-2.023c1.046 1.56 1.718 2.536 1.718 3.485 0 .949-.769 1.718-1.718 1.718s-1.719-.769-1.719-1.718.673-1.925 1.719-3.485zm-.006 1.11c-.179.294-.287.439-.444.779-.373.808.321.965.568.346.165-.413.023-.895-.124-1.125zm8.417 4.866c-.091 0-.165.074-.165.165 0 .091.074.165.165.165.091 0 .165-.074.165-.165 0-.091-.073-.165-.165-.165zm.211-.712c-.143 0-.259.116-.259.259 0 .144.116.259.259.259s.259-.115.259-.259c0-.142-.116-.259-.259-.259zm4.07 6.673l2.141-2.141-.617-.618-2.142 2.141.618.618zm8.56 1.829l-.721.72c-.322.322-.846.322-1.168 0l-1.298-1.298-2.005 2.005 1.298 1.298c.322.322.323.845 0 1.168l-.721.72 1.031 1.065 4.613-4.648-1.029-1.03zm-1.109-4.302l-7.808 7.807-1.03-1.03.602-.601c.322-.323.322-.846 0-1.168l-7.879-7.878c-.02-2.722 2.715-5.457 5.438-5.437l7.878 7.878c.323.323.846.323 1.169 0l.601-.601 1.029 1.03zm-9.99-2.189c.199-.198.081-.534-.191-.573-.142-.02-.274-.086-.375-.188-.191-.19-.056-.517.212-.517.145 0 .284.047.4.134.219.164.54.011.54-.271 0-.281-.321-.434-.54-.271-.115.086-.256.134-.4.134-.268 0-.402-.328-.214-.516.103-.103.234-.168.378-.188.27-.039.389-.374.19-.573s-.534-.08-.573.19c-.021.143-.086.275-.188.378-.19.189-.516.055-.516-.214 0-.145.047-.284.134-.4.164-.219.01-.54-.271-.54s-.434.321-.271.54c.086.115.134.256.134.4 0 .269-.326.403-.516.214-.102-.102-.168-.234-.188-.378-.039-.27-.374-.389-.573-.19s-.08.534.19.573c.143.021.275.086.378.188.189.191.055.517-.214.517-.145 0-.284-.047-.4-.134-.219-.164-.54-.01-.54.271s.321.434.54.271c.115-.086.256-.134.4-.134.269 0 .403.326.214.516-.103.103-.234.168-.378.188-.27.039-.389.374-.19.573s.534.08.573-.19c.021-.143.086-.275.188-.378.19-.189.516-.055.516.214 0 .145-.047.284-.134.4-.164.219-.011.54.271.54.28 0 .435-.32.27-.54-.086-.115-.133-.254-.133-.398 0-.27.326-.405.516-.216.103.103.168.234.188.378.039.27.374.388.573.19zm6.649 3.386l-3.728-3.728-3.269 3.269 3.728 3.728 3.269-3.269zm-5.232.153l2.141-2.141-.618-.618-2.141 2.141.618.618z"/></svg>