<svg xmlns="http://www.w3.org/2000/svg" width="24" height="24" viewBox="0 0 24 24"><path d="M12 0c-6.627 0-12 5.373-12 12 0 6.616 5.408 12 12 12 6.627 0 12-5.373 12-12s-5.373-12-12-12zm-11 12c0-6.065 4.935-11 11-11v2c-4.962 0-9 4.038-9 9 0 2.547 1.075 4.838 2.781 6.477l-1.47 1.36c-2.036-1.997-3.311-4.766-3.311-7.837zm11 8c-4.336 0-8-3.562-8-8 0-4.411 3.589-8 8-8s8 3.589 8 8-3.589 8-8 8zm3.651-8.676c-.289.216-.64.334-1.001.334-.67 0-1.006-.818-.535-1.29.256-.256.586-.42.945-.472.675-.098.972-.935.475-1.432-.496-.497-1.334-.2-1.432.476-.051.357-.217.689-.472.944-.474.474-1.29.137-1.29-.534 0-.362.117-.711.334-1.001.411-.547.027-1.349-.675-1.349-.701 0-1.085.802-.676 1.349.216.289.334.64.334 1.001 0 .671-.815 1.008-1.29.534-.256-.256-.42-.585-.472-.944-.097-.675-.935-.972-1.432-.476-.497.497-.2 1.334.476 1.432.357.051.689.216.944.472.474.475.137 1.29-.534 1.29-.362 0-.711-.117-1.001-.334-.547-.409-1.349-.026-1.349.676 0 .701.802 1.085 1.349.676.289-.216.64-.334 1.001-.334.671 0 1.008.815.534 1.29-.256.256-.585.42-.944.472-.675.098-.972.935-.476 1.432.497.497 1.334.2 1.432-.476.051-.357.216-.689.472-.944.475-.474 1.29-.137 1.29.534 0 .362-.117.711-.334 1.001-.409.546-.027 1.349.676 1.349.699 0 1.088-.8.675-1.35-.216-.287-.333-.636-.333-.995 0-.673.815-1.013 1.29-.54.257.256.421.586.472.945.098.675.936.972 1.432.476.496-.496.201-1.336-.477-1.432-.355-.05-.686-.215-.939-.469-.477-.476-.141-1.292.531-1.292.361 0 .711.117 1.001.334.545.408 1.348.026 1.348-.677 0-.702-.803-1.085-1.349-.676zm-4.47 1.79c-.228 0-.413-.185-.413-.413 0-.228.185-.413.413-.413.228 0 .413.185.413.413 0 .228-.185.413-.413.413zm.526-1.31c-.357 0-.647-.29-.647-.647 0-.357.29-.647.647-.647s.647.29.647.647c0 .358-.29.647-.647.647zm1.22 1.237c-.303 0-.548-.245-.548-.548s.245-.548.548-.548.548.246.548.548-.246.548-.548.548z"/></svg>