<svg xmlns="http://www.w3.org/2000/svg" width="24" height="24" viewBox="0 0 24 24"><path d="M11.786 7.892c-.261.195-.576.3-.901.3-.603 0-.905-.736-.481-1.16.231-.23.527-.378.851-.425.607-.087.875-.841.427-1.289-.447-.447-1.201-.18-1.289.429-.046.321-.195.62-.424.85-.427.427-1.161.123-1.161-.48 0-.327.105-.641.3-.902.37-.494.023-1.215-.608-1.215s-.978.721-.608 1.214c.195.26.3.577.3.901 0 .604-.733.908-1.16.481-.23-.231-.378-.527-.425-.85-.088-.608-.841-.875-1.289-.428-.447.448-.18 1.201.429 1.289.321.046.62.195.85.425.426.427.123 1.161-.481 1.161-.326 0-.64-.105-.901-.3-.494-.371-1.215-.024-1.215.607s.721.978 1.214.608c.26-.195.577-.3.901-.3.604 0 .908.733.481 1.16-.231.23-.527.378-.85.425-.608.087-.876.841-.429 1.289.448.447 1.201.18 1.289-.429.046-.321.195-.62.425-.85.427-.426 1.161-.123 1.161.48 0 .327-.105.641-.3.902-.369.492-.025 1.215.608 1.215.629 0 .979-.72.608-1.215-.195-.258-.3-.573-.3-.896 0-.605.733-.912 1.161-.485.231.231.378.527.424.85.088.608.841.876 1.289.429.447-.447.181-1.203-.43-1.289-.319-.045-.616-.193-.845-.422-.429-.428-.126-1.163.478-1.163.325 0 .639.105.901.3.491.368 1.214.024 1.214-.609 0-.632-.722-.977-1.214-.608zm-4.022 1.61c-.206 0-.372-.167-.372-.372s.166-.371.372-.371c.205 0 .371.167.371.371 0 .206-.167.372-.371.372zm.472-1.178c-.321 0-.582-.261-.582-.582 0-.322.261-.583.582-.583.322 0 .583.26.583.583 0 .321-.261.582-.583.582zm1.098 1.113c-.272 0-.494-.221-.494-.493s.221-.493.494-.493.493.221.493.493-.22.493-.493.493zm11.835 10.317c.522-.79.831-1.735.831-2.754 0-2.761-2.238-5-5-5s-5 2.239-5 5 2.238 5 5 5c1.019 0 1.964-.309 2.755-.832l2.831 2.832 1.414-1.414-2.831-2.832zm-4.169.246c-1.654 0-3-1.346-3-3s1.346-3 3-3 3 1.346 3 3-1.346 3-3 3zm-4.89 2h-7.11l2.599-3h2.696c.345 1.152.976 2.18 1.815 3zm-2.11-5h-10v-17h22v12.11c-.574-.586-1.251-1.068-2-1.425v-8.685h-18v13h8.295c-.19.634-.295 1.305-.295 2z"/></svg>