<svg xmlns="http://www.w3.org/2000/svg" width="24" height="24" viewBox="0 0 24 24"><path d="M13.744 8s1.522-8-3.335-8h-8.409v24h20v-13c0-3.419-5.247-3.745-8.256-3zm1.907 7.676c-.29-.217-.64-.334-1.002-.334-.671 0-1.007.817-.53 1.292.254.254.584.418.939.469.679.096.973.936.477 1.432-.496.497-1.334.2-1.432-.476-.051-.359-.216-.688-.472-.945-.475-.474-1.29-.134-1.29.539 0 .359.117.709.334.996.413.551.024 1.351-.675 1.351-.703 0-1.085-.803-.676-1.349.217-.29.334-.64.334-1.001 0-.671-.815-1.008-1.29-.534-.255.255-.421.587-.472.944-.098.675-.936.973-1.432.476-.497-.497-.2-1.334.476-1.432.358-.051.688-.216.943-.472.475-.475.137-1.29-.533-1.29-.361 0-.713.118-1.002.334-.546.41-1.348.025-1.348-.676 0-.702.802-1.086 1.349-.676.29.217.64.334 1.002.334.671 0 1.008-.815.533-1.29-.255-.255-.587-.42-.943-.472-.676-.098-.973-.935-.476-1.432.496-.497 1.334-.2 1.432.476.051.359.216.688.472.944.475.475 1.29.137 1.29-.534 0-.361-.118-.712-.334-1.001-.411-.548-.026-1.349.675-1.349s1.086.802.676 1.349c-.217.29-.334.64-.334 1.001 0 .671.815 1.008 1.29.534.255-.255.421-.587.472-.944.098-.675.936-.973 1.432-.476.497.497.2 1.334-.476 1.432-.358.051-.688.216-.943.472-.473.472-.136 1.29.533 1.29.361 0 .713-.118 1.002-.334.545-.409 1.348-.026 1.348.676 0 .703-.803 1.085-1.349.676zm-1.083-15.601c2.202 1.174 5.938 4.883 7.432 6.881-1.286-.9-4.044-1.657-6.091-1.179.222-1.468-.185-4.534-1.341-5.702zm-2.214 14.082c0 .357-.29.647-.647.647s-.646-.29-.646-.647.289-.647.646-.647.647.29.647.647zm-.76 1.544c0 .228-.185.413-.412.413-.229 0-.413-.185-.413-.413 0-.228.185-.413.413-.413.227.001.412.186.412.413zm1.881-.208c0 .303-.245.548-.548.548s-.548-.245-.548-.548.245-.548.548-.548.548.245.548.548z"/></svg>