<svg width="24" height="24" xmlns="http://www.w3.org/2000/svg" fill-rule="evenodd" clip-rule="evenodd"><path d="M14.562 21.656c-1.515-.3-3.017-1.102-4.232-2.304 5.223-2.042 9.338-5.582 11.381-9.701 1.311 5.447-2.036 10.649-7.149 12.005m-12.371-11.587c1.579.57 2.568 1.441 3.468 2.496-.111 4.025 1.862 7.31 4.534 9.263-5.379-.984-9.093-6.194-8.002-11.759m3.269-5.62c2.23.772 4.523 2.499 6.129 4.611-1.464 1.144-2.977 1.95-4.172 2.484-1.127-1.372-2.449-2.614-4.648-3.386.6-1.439 1.531-2.703 2.691-3.709m10.664-1.55c-.651 1.948-1.757 3.545-3.035 4.83-1.515-1.948-3.552-3.6-5.652-4.619 2.709-1.394 5.879-1.488 8.687-.211m4.513 4.079c-1.404 4.508-5.887 8.644-11.619 10.724-.733-1.173-1.221-2.555-1.339-4.093 2.876-1.199 8.14-4.087 10.203-9.682 1.117.815 2.056 1.853 2.755 3.051m3.363 5.022c0-6.623-5.376-12-12-12-6.623 0-12 5.377-12 12s5.377 12 12 12c6.538 0 12-5.318 12-12"/></svg>