<svg xmlns="http://www.w3.org/2000/svg" width="24" height="24" viewBox="0 0 24 24"><path d="M17.917 9.03c-3.298-2.941-8.355-2.653-11.296.645-2.941 3.297-2.652 8.354.645 11.295 3.297 2.94 8.354 2.652 11.295-.645 2.941-3.297 2.652-8.354-.644-11.295zm-4.294 2.468c-.551.619-1.5.672-2.118.121-.618-.552-.672-1.499-.121-2.117.552-.619 1.5-.672 2.118-.121.618.552.673 1.5.121 2.117zm-.751-11.462c-15.949 1.51-16.236 20.096-5.48 22.964-5.588-2.968-6.137-10.894-1.879-15.167 1.839-1.845 4.43-2.815 7.091-2.815 2.689 0 5.45.99 7.582 3.067l3.814-5.332c-3.559-1.882-7.094-2.97-11.128-2.717zm6.921 5.161c-1.996-1.344-4.337-2.091-6.793-2.164v-.999l.029-.004c2.788-.168 5.336.377 7.959 1.496l-1.195 1.671z"/></svg>