<svg xmlns="http://www.w3.org/2000/svg" width="24" height="24" viewBox="0 0 24 24"><path d="M11.271 4.473v-2.473h1.459v2.473c-.243-.018-.486-.028-.73-.028s-.487.01-.729.028zm-3.588 1.002l-.948-2.287c.436-.212.886-.398 1.349-.558l.946 2.287c-.21.068-.418.145-.624.228-.247.1-.488.21-.723.33zm7.346-.538l.962-2.28c.462.162.91.352 1.345.567l-.962 2.279c-.254-.13-.514-.25-.779-.358-.187-.076-.375-.145-.566-.208zm5.495 4.744l2.287-.947c.212.436.398.885.559 1.348l-2.288.947c-.068-.21-.145-.418-.228-.625-.1-.247-.21-.487-.33-.723zm-2.303-2.934l1.749-1.748c.364.323.708.667 1.031 1.031l-1.749 1.749c-.158-.184-.323-.362-.496-.535s-.352-.339-.535-.497zm-13.473 1.031l-1.749-1.748c.322-.364.667-.709 1.031-1.031l1.749 1.748c-.183.158-.362.323-.535.496s-.338.352-.496.535zm-1.272 10.537l-2.287.946c-.212-.435-.398-.885-.559-1.348l2.288-.947c.068.21.145.418.228.625.1.247.21.488.33.724zm17.586-1.289l2.28.962c-.162.461-.352.91-.567 1.344l-2.279-.961c.13-.254.25-.514.358-.78.076-.186.145-.375.208-.565zm2.938-2.299h-2.474c.019-.242.027-.485.027-.73 0-.244-.009-.487-.027-.729h2.474v1.459zm-4.748 5.49l1.749 1.749c-.323.364-.667.709-1.032 1.032l-1.748-1.749c.184-.158.362-.324.535-.497s.338-.352.496-.535zm-16.314-9.248l-2.28-.962c.162-.461.352-.91.567-1.344l2.279.961c-.13.254-.25.514-.358.78-.076.186-.145.375-.208.565zm-.464 3.758h-2.474v-1.459h2.474c-.019.242-.027.485-.027.729-.001.245.008.488.027.73zm3.305 6.522l-1.752 1.751-1.031-1.031 1.752-1.752c.158.184.323.362.496.535s.352.338.535.497zm6.221-14.806c-4.165 0-7.554 3.389-7.554 7.554s3.389 7.554 7.554 7.554 7.554-3.389 7.554-7.554-3.389-7.554-7.554-7.554zm0 13.108c-3.062 0-5.554-2.491-5.554-5.554 0-1.126.339-2.173.917-3.05l2.361 2.359 1.414-1.414-2.39-2.388c.916-.664 2.037-1.061 3.252-1.061 3.062 0 5.554 2.491 5.554 5.554s-2.492 5.554-5.554 5.554z"/></svg>