<svg xmlns="http://www.w3.org/2000/svg" width="24" height="24" viewBox="0 0 24 24"><path d="M22.266 14.724c-.064.898-.242 1.766-.522 2.586l1.601.675c-.163.461-.353.909-.568 1.344l-1.602-.676c-.383.751-.855 1.448-1.402 2.078l1.229 1.229c-.323.364-.667.709-1.032 1.032l-2.262-2.262c1.874-1.59 3.125-4.039 3.125-6.735 0-4.878-3.954-8.832-8.832-8.832s-8.832 3.954-8.832 8.832c0 2.505 1.107 5.024 3.125 6.735l-2.292 2.27-1.032-1.031 1.259-1.238c-.562-.647-1.045-1.365-1.434-2.139l-1.605.665c-.213-.436-.4-.885-.559-1.348l1.604-.664c-.268-.802-.438-1.646-.501-2.521h-1.734v-1.459h1.734c.063-.897.242-1.765.522-2.585l-1.601-.675c.163-.461.353-.91.568-1.344l1.602.675c.383-.75.854-1.448 1.402-2.078l-1.228-1.229c.323-.365.667-.709 1.032-1.031l1.229 1.229c.648-.563 1.367-1.045 2.14-1.433l-.664-1.606c.435-.212.885-.399 1.348-.558l.664 1.604c.802-.267 1.646-.438 2.522-.5v-1.734h1.459v1.733c.899.063 1.767.242 2.587.522l.675-1.6c.462.162.911.353 1.345.567l-.676 1.602c.751.383 1.449.854 2.08 1.402l1.229-1.229c.365.322.709.666 1.032 1.03l-1.229 1.229c.562.647 1.045 1.366 1.434 2.14l1.606-.665c.212.436.399.885.558 1.348l-1.604.664c.269.802.439 1.646.501 2.521h1.733v1.459h-1.734zm-10.266-7.561c-3.768 0-6.832 3.065-6.832 6.832s3.064 6.832 6.832 6.832 6.832-3.065 6.832-6.832-3.064-6.832-6.832-6.832zm0 11.664c-2.664 0-4.832-2.167-4.832-4.832 0-.936.279-1.803.742-2.544l2.147 2.148 1.414-1.414-2.184-2.185c.775-.527 1.708-.837 2.713-.837 2.664 0 4.832 2.167 4.832 4.832s-2.168 4.832-4.832 4.832z"/></svg>