<svg xmlns="http://www.w3.org/2000/svg" width="24" height="24" viewBox="0 0 24 24"><path d="M15 17h3l-6 7 2-5h-3l2.802-6h3.042l-1.844 4zm9-5.278c0 2.362-1.95 4.278-4.355 4.278h-2.535l2.031-4.5h-6.328l-2.079 4.5h-1.38c-2.339 0-4.23-1.814-4.335-4.087-2.822-.466-5.025-2.907-5.019-5.934 4.18.605 5.91-1.979 4.563-5.812.487-.113.966-.167 1.434-.167 2.216 0 4.149 1.209 5.189 2.999.946-.629 2.085-.999 3.314-.999 3.172 0 5.753 2.443 5.922 5.516 2.033.359 3.578 2.105 3.578 4.206zm-14.328-7.275c-.496-1.166-1.52-2.057-2.778-2.346.612 2.883-1.536 5.61-4.452 5.729.58 1.127 1.679 1.933 2.964 2.125.583-1.253 1.752-2.188 3.172-2.439.063-1.141.459-2.194 1.094-3.069z"/></svg>