<svg xmlns="http://www.w3.org/2000/svg" width="24" height="24" viewBox="0 0 24 24"><path d="M11 11h-11v-2h11c.552 0 1-.448 1-1s-.448-1-1-1c-.403 0-.747.242-.905.587l-1.749-.956c.499-.965 1.494-1.631 2.654-1.631 3.971 0 3.969 6 0 6zm7 7c0-1.656-1.344-3-3-3h-15v2h15c.552 0 1 .448 1 1s-.448 1-1 1c-.403 0-.747-.242-.905-.587l-1.749.956c.499.965 1.494 1.631 2.654 1.631 1.656 0 3-1.344 3-3zm1.014-7.655c.082-.753.712-1.345 1.486-1.345.827 0 1.5.673 1.5 1.5s-.673 1.5-1.5 1.5h-20.5v2h20.5c1.932 0 3.5-1.568 3.5-3.5s-1.568-3.5-3.5-3.5c-1.624 0-2.977 1.116-3.372 2.617l1.886.728zm-13.764-7.845c-.415 0-.75.336-.75.75s.335.75.75.75.75-.336.75-.75-.335-.75-.75-.75zm-3.5-1.5c-.415 0-.75.336-.75.75s.335.75.75.75.75-.336.75-.75-.335-.75-.75-.75zm.5 18.5c-.415 0-.75.336-.75.75s.335.75.75.75.75-.336.75-.75-.335-.75-.75-.75zm10.5 2c-.415 0-.75.336-.75.75s.335.75.75.75.75-.336.75-.75-.335-.75-.75-.75zm-3-3c-.415 0-.75.336-.75.75s.335.75.75.75.75-.336.75-.75-.335-.75-.75-.75zm11 .5c-.415 0-.75.336-.75.75s.335.75.75.75.75-.336.75-.75-.335-.75-.75-.75zm-.5-4c-.415 0-.75.336-.75.75s.335.75.75.75.75-.336.75-.75-.335-.75-.75-.75zm-1.5 6.5c-.415 0-.75.336-.75.75s.335.75.75.75.75-.336.75-.75-.335-.75-.75-.75zm-13-3c-.415 0-.75.336-.75.75s.335.75.75.75.75-.336.75-.75-.335-.75-.75-.75zm17.5-2c-.415 0-.75.336-.75.75s.335.75.75.75.75-.336.75-.75-.335-.75-.75-.75zm-17-11c-.415 0-.75.336-.75.75s.335.75.75.75.75-.336.75-.75-.335-.75-.75-.75zm-4 0c-.415 0-.75.336-.75.75s.335.75.75.75.75-.336.75-.75-.335-.75-.75-.75zm6-4.5c-.415 0-.75.336-.75.75s.335.75.75.75.75-.336.75-.75-.335-.75-.75-.75zm3 1.5c-.415 0-.75.336-.75.75s.335.75.75.75.75-.336.75-.75-.335-.75-.75-.75zm12 .969c-.415 0-.75.336-.75.75s.335.75.75.75.75-.337.75-.75-.335-.75-.75-.75zm-3 1.031c-.415 0-.75.336-.75.75s.335.75.75.75.75-.336.75-.75-.335-.75-.75-.75zm0-3.5c-.415 0-.75.336-.75.75s.335.75.75.75.75-.336.75-.75-.335-.75-.75-.75zm-4.5 8.5c-.415 0-.75.336-.75.75s.335.75.75.75.75-.336.75-.75-.335-.75-.75-.75zm1.5-7c-.415 0-.75.336-.75.75s.335.75.75.75.75-.336.75-.75-.335-.75-.75-.75zm-1 3c-.415 0-.75.336-.75.75s.335.75.75.75.75-.336.75-.75-.335-.75-.75-.75zm-2-4c-.415 0-.75.336-.75.75s.335.75.75.75.75-.336.75-.75-.335-.75-.75-.75zm-9.5 20c-.415 0-.75.336-.75.75s.335.75.75.75.75-.336.75-.75-.335-.75-.75-.75zm3.5 0c-.415 0-.75.336-.75.75s.335.75.75.75.75-.336.75-.75-.335-.75-.75-.75zm15 0c-.415 0-.75.336-.75.75s.335.75.75.75.75-.336.75-.75-.335-.75-.75-.75z"/></svg>