<svg xmlns="http://www.w3.org/2000/svg" width="24" height="24" viewBox="0 0 24 24"><path d="M20.422 7.516c-.169-3.073-2.75-5.516-5.922-5.516-1.229 0-2.368.37-3.313.999-1.041-1.79-2.974-2.999-5.19-2.999-.468 0-.947.054-1.434.167 1.347 3.833-.383 6.417-4.563 5.812-.006 3.027 2.197 5.469 5.02 5.935.104 2.272 1.996 4.086 4.334 4.086h10.291c2.406 0 4.355-1.916 4.355-4.278 0-2.101-1.545-3.847-3.578-4.206zm-11.844 0c-1.42.252-2.589 1.187-3.172 2.439-1.285-.192-2.384-.998-2.964-2.125 2.916-.119 5.063-2.846 4.451-5.729 1.259.289 2.282 1.18 2.778 2.346-.634.875-1.03 1.928-1.093 3.069zm-3.225 13.417l1.59-1.59.707.707-1.59 1.59-.707-.707zm4.715.699l1.59-1.591-.707-.707-1.59 1.591.707.707zm-2.418-2.996l.707.707 1.635-1.636-.707-.707-1.635 1.636zm-3.004 3.004l-1.646 1.645.707.707 1.646-1.646-.707-.706zm9.425.011l1.591-1.591-.707-.707-1.591 1.591.707.707zm-5.417-.019l-1.654 1.653.707.707 1.654-1.653-.707-.707zm7.008-2.986l.707.707 1.639-1.639-.707-.707-1.639 1.639zm-3.004 3.005l-1.642 1.642.707.707 1.642-1.642-.707-.707z"/></svg>