<svg xmlns="http://www.w3.org/2000/svg" width="24" height="24" viewBox="0 0 24 24"><path d="M22.602 4.961l1.398 1.414-3.264 3.278c-1.551 1.551-2.535 4.262-2.801 6.44-.529 4.378-4.259 7.907-8.935 7.907-4.971 0-9-4.029-9-9 0-4.668 3.523-8.405 7.906-8.937 2.184-.265 4.889-1.245 6.445-2.801l3.278-3.262 1.414 1.399-3.277 3.277c-1.857 1.858-5.005 3.056-7.618 3.372-3.505.426-6.148 3.414-6.148 6.952 0 3.86 3.141 7 7 7 1.922 0 3.682-.78 4.957-2.055 3.191-3.192.865-7.206 5.365-11.707l3.28-3.277zm1.398-3.547l-1.414-1.414-9.457 9.461 1.414 1.414 9.457-9.461zm-15 19.086c-3.032 0-5.5-2.467-5.5-5.5s2.468-5.5 5.5-5.5 5.5 2.467 5.5 5.5-2.468 5.5-5.5 5.5zm0-9c-1.93 0-3.5 1.57-3.5 3.5s1.57 3.5 3.5 3.5 3.5-1.57 3.5-3.5-1.57-3.5-3.5-3.5zm-1 3.25c0-.414-.336-.75-.75-.75s-.75.336-.75.75.336.75.75.75.75-.336.75-.75zm2 2.25c0-.552-.447-1-1-1s-1 .448-1 1 .447 1 1 1 1-.448 1-1zm1-3c0-.552-.448-1-1-1s-1 .448-1 1 .448 1 1 1 1-.448 1-1z"/></svg>