<svg xmlns="http://www.w3.org/2000/svg" width="24" height="24" viewBox="0 0 24 24"><path d="M14.664 13.432c-.759.771-2.571.755-4.042-.036-1.475-.792-2.046-2.058-1.286-2.829.759-.771 2.568-.755 4.043.037 1.469.792 2.046 2.057 1.285 2.828zm4.43-5.636c1.156 0 3.323.558 4.906 2.204 0-3.938-5.069-9-11.993-9-5.678 0-10.007 4.022-10.007 8.858 0 2.617.911 4.664 2.906 6.346-1.156 0-3.323-.558-4.906-2.204 0 3.938 5.069 9 11.993 9 5.678 0 10.007-4.022 10.007-8.858 0-1.99-.755-4.533-2.906-6.346zm-7.101 13.204c-3.02 0-5.82-1.101-7.78-2.924 2.405.792 5.974 1.111 8.021-.458-4.267-.811-8.234-3.339-8.234-7.764 0-3.701 3.405-6.854 8.007-6.854 3.02 0 5.82 1.101 7.78 2.924-2.405-.792-5.974-1.111-8.021.458 4.257.809 8.234 3.456 8.234 7.764 0 3.701-3.405 6.854-8.007 6.854z"/></svg>