<svg xmlns="http://www.w3.org/2000/svg" width="24" height="24" viewBox="0 0 24 24"><path d="M7 8c0 .551-.449 1-1 1-.551 0-1-.449-1-1s.449-1 1-1c.551 0 1 .449 1 1zm17 4c0 6.627-5.373 12-12 12s-12-5.373-12-12 5.373-12 12-12 12 5.373 12 12zm-16-4c0-1.105-.895-2-2-2s-2 .895-2 2 .895 2 2 2 2-.895 2-2zm2.901 4.393v-.882c.011-1.208.215-2.1.614-2.675.398-.575.999-.862 1.801-.862.738 0 1.288.17 1.648.509.361.34.571.886.63 1.64h2.406c-.128-1.305-.604-2.318-1.428-3.04s-1.909-1.083-3.257-1.083c-.973 0-1.828.229-2.563.686s-1.3 1.114-1.696 1.969c-.396.856-.593 1.845-.593 2.968v.714c0 1.76.429 3.143 1.287 4.151.858 1.008 2.036 1.512 3.533 1.512 1.369 0 2.472-.361 3.309-1.083.837-.722 1.301-1.711 1.392-2.968h-2.406c-.054.711-.263 1.237-.63 1.576s-.921.509-1.665.509c-.823 0-1.427-.292-1.809-.874-.382-.582-.573-1.505-.573-2.767z"/></svg>