<svg xmlns="http://www.w3.org/2000/svg" width="24" height="24" viewBox="0 0 24 24"><path d="M20.422 7.516c-.178-3.232-3.031-5.777-6.432-5.491-1.087-1.24-2.693-2.025-4.49-2.025-3.172 0-5.754 2.443-5.922 5.516-2.033.359-3.578 2.105-3.578 4.206 0 2.362 1.949 4.278 4.354 4.278h1.326c.771 1.198 2.124 2 3.674 2h10.291c2.406 0 4.355-1.916 4.355-4.278 0-2.101-1.545-3.847-3.578-4.206zm-15.395 4.484h-.673c-1.297 0-2.354-1.021-2.354-2.278 0-2.118 2.104-2.597 3.488-2.513-.05-1.355.137-5.209 4.012-5.209.967 0 1.714.25 2.29.645-1.823.921-3.096 2.745-3.212 4.871-2.022.357-3.697 2.127-3.551 4.484zm.326 8.933l1.59-1.59.707.707-1.59 1.59-.707-.707zm4.715.699l1.59-1.591-.707-.707-1.59 1.591.707.707zm-2.418-2.996l.707.707 1.635-1.636-.707-.707-1.635 1.636zm-3.004 3.004l-1.646 1.645.707.707 1.646-1.646-.707-.706zm9.425.011l1.591-1.591-.707-.707-1.591 1.591.707.707zm-5.417-.019l-1.654 1.653.707.707 1.654-1.653-.707-.707zm7.008-2.986l.707.707 1.639-1.639-.707-.707-1.639 1.639zm-3.004 3.005l-1.642 1.642.707.707 1.642-1.642-.707-.707z"/></svg>