<svg xmlns="http://www.w3.org/2000/svg" width="24" height="24" viewBox="0 0 24 24"><path d="M20 6.093l-3-3v-2.093h3v5.093zm1 11.349c.813.315 1.732.558 3 .558v2c-3.896 0-5.083-2-8.002-2-3.04 0-4.436 2-8.002 2-3.684 0-4.376-2-7.996-2v-2c1.275 0 2.217.184 3 .438v-4.438h-3l12-12 12 12h-3v5.442zm-5.002-1.442c1.269 0 2.183.255 3.002.581v-6.763l-7-6.99-7 6.912v7.543c.849.39 1.711.717 2.996.717.749 0 1.396-.124 2.004-.308v-4.692h4v3.242c.598-.14 1.242-.242 1.998-.242zm-8.002 6c-3.184 0-3.767-2-7.996-2v2c3.62 0 4.312 2 7.996 2 3.566 0 4.962-2 8.002-2 2.919 0 4.106 2 8.002 2v-2c-3.649 0-4.438-2-8.002-2-3.581 0-4.977 2-8.002 2z"/></svg>