<svg xmlns="http://www.w3.org/2000/svg" width="24" height="24" viewBox="0 0 24 24"><path d="M9.019 15.404c-.194 0-.335-.121-.422-.364-.087-.242-.131-.61-.131-1.102s.044-.858.131-1.097c.087-.238.228-.358.422-.358.372 0 .558.485.558 1.454 0 .979-.186 1.467-.558 1.467zm5.957.477c-.194 0-.335.119-.422.358-.087.239-.131.604-.131 1.097s.044.86.131 1.102c.087.242.228.364.422.364.372 0 .558-.489.558-1.466 0-.97-.186-1.455-.558-1.455zm5.024.194c0 4.378-3.579 7.925-8 7.925-4.421 0-8-3.547-8-7.925 0-5.887 5.667-7.117 8-16.075 2.333 8.958 8 10.188 8 16.075zm-10.993.533c.667 0 1.173-.224 1.518-.672.345-.448.518-1.118.518-2.01 0-.853-.175-1.51-.526-1.969-.351-.46-.854-.689-1.51-.689-1.338 0-2.007.886-2.007 2.659 0 .869.174 1.533.524 1.992.349.46.843.689 1.483.689zm6.038-5.218h-1.396l-4.718 8.505h1.396l4.718-8.505zm1.955 5.934c0-.853-.176-1.51-.527-1.969-.351-.46-.854-.689-1.51-.689-1.338 0-2.007.886-2.007 2.658 0 .865.174 1.527.523 1.987.35.459.845.689 1.485.689.667 0 1.173-.224 1.518-.672.345-.448.518-1.116.518-2.004z"/></svg>