<svg xmlns="http://www.w3.org/2000/svg" width="24" height="24" viewBox="0 0 24 24"><path d="M4.069 13h-4.069v-2h4.069c-.041.328-.069.661-.069 1s.028.672.069 1zm1.618 3.897l-2.879 2.88 1.414 1.414 2.879-2.88c-.527-.411-1.001-.885-1.414-1.414zm1.416-11.209l-2.88-2.881-1.415 1.414 2.881 2.881c.411-.529.885-1.003 1.414-1.414zm11.208 1.414l2.881-2.881-1.414-1.414-2.881 2.881c.529.411 1.003.886 1.414 1.414zm-5.311-3.033v-4.069h-2v4.069c.328-.041.66-.069 1-.069.34 0 .672.028 1 .069zm3.898 14.243l2.88 2.88 1.415-1.414-2.881-2.88c-.411.528-.885 1.002-1.414 1.414zm3.033-7.312c.041.328.069.661.069 1s-.028.672-.069 1h4.069v-2h-4.069zm-8.931 8.931v4.069h2v-4.069c-.328.041-.66.069-1 .069-.34 0-.672-.028-1-.069zm7-7.931c0 3.314-2.686 6-6 6-3.315 0-6-2.686-6-6s2.685-6 6-6c3.314 0 6 2.686 6 6zm-2 0c0-2.19-1.818-3.963-4-3.994 2.533 1.816 2.61 6.119 0 7.988 2.182-.031 4-1.804 4-3.994z"/></svg>