<svg xmlns="http://www.w3.org/2000/svg" width="24" height="24" viewBox="0 0 24 24"><path d="M21 4.5c0 2.485-2.015 4.5-4.5 4.5-2.328 0-4.344-2.031-6.5 2h-1c-.511-2.095-1.821-2.668-3.014-3.188-1.127-.49-1.986-1.513-1.986-2.812 0-1.967 1.828-3.219 3.527-2.997.412-1.164 1.512-2.003 2.817-2.003 1.179 0 2.188.687 2.679 1.676.825-1.015 2.067-1.676 3.477-1.676 2.485 0 4.5 2.015 4.5 4.5zm3 19.5h-24l8-12c.364.316.932.474 1.5.474s1.136-.158 1.5-.474l3.846 5.769 2.154-2.769 7 9zm-10.942-5.309l-2.845-4.267c-.464.066-.963.066-1.425 0l-2.728 4.092 2.502-1.516 1 1.021.958-1.042 2.526 1.708.012.004zm6.036 2.2l-2.156-2.656-.947 1.287 3.103 1.369z"/></svg>