<svg xmlns="http://www.w3.org/2000/svg" width="24" height="24" viewBox="0 0 24 24"><path d="M20.422 7.516c-.169-3.073-2.75-5.516-5.922-5.516-1.229 0-2.368.37-3.313.999-1.041-1.79-2.974-2.999-5.19-2.999-.468 0-.947.054-1.434.167 1.347 3.833-.383 6.417-4.563 5.812-.006 3.027 2.197 5.469 5.02 5.935.104 2.272 1.996 4.086 4.334 4.086h10.291c2.406 0 4.355-1.916 4.355-4.278 0-2.101-1.545-3.847-3.578-4.206zm-15.016 2.439c-1.285-.192-2.384-.998-2.964-2.125 2.916-.119 5.063-2.846 4.451-5.729 1.259.289 2.282 1.18 2.778 2.346-.634.875-1.03 1.928-1.093 3.069-1.42.252-2.589 1.186-3.172 2.439zm14.24 4.045h-10.292c-1.297 0-2.354-1.021-2.354-2.278 0-2.118 2.104-2.597 3.488-2.513-.05-1.355.137-5.209 4.012-5.209 3.771 0 4.229 3.771 4.012 5.209 1.509-.105 3.488.437 3.488 2.513 0 1.257-1.057 2.278-2.354 2.278zm-4.646 8.5c0 .828-.67 1.5-1.5 1.5s-1.5-.672-1.5-1.5.67-1.5 1.5-1.5 1.5.672 1.5 1.5zm1.199-1.287l2.801-4.197-.016-.016-4.176 2.813c.608.298 1.098.791 1.391 1.4zm-6.199 1.287c0 .828-.67 1.5-1.5 1.5s-1.5-.672-1.5-1.5.67-1.5 1.5-1.5 1.5.672 1.5 1.5zm1.199-1.287l2.801-4.197-.016-.016-4.176 2.813c.608.298 1.098.791 1.391 1.4zm-6.199 1.287c0 .828-.67 1.5-1.5 1.5s-1.5-.672-1.5-1.5.67-1.5 1.5-1.5 1.5.672 1.5 1.5zm1.199-1.287l2.801-4.197-.016-.016-4.176 2.813c.608.298 1.098.791 1.391 1.4z"/></svg>