<svg xmlns="http://www.w3.org/2000/svg" width="24" height="24" viewBox="0 0 24 24"><path d="M5.582 23l-1.41-1.41 3.59-3.59 1.41 1.41-3.59 3.59zm8.543-3.59l-1.41-1.41-3.59 3.59 1.41 1.41 3.59-3.59zm4.875 0l-1.41-1.41-3.59 3.59 1.41 1.41 3.59-3.59zm5-6.688c0 2.362-1.949 4.278-4.355 4.278h-10.291c-1.55 0-2.902-.802-3.674-2h-1.326c-2.405 0-4.354-1.916-4.354-4.278 0-2.101 1.545-3.846 3.578-4.206.168-3.073 2.75-5.516 5.922-5.516 1.797 0 3.403.785 4.49 2.024 3.4-.286 6.254 2.258 6.432 5.492 2.033.359 3.578 2.105 3.578 4.206zm-15.422-4.206c.116-2.126 1.389-3.95 3.212-4.872-.576-.394-1.323-.644-2.29-.644-3.875 0-4.062 3.854-4.012 5.209-1.384-.084-3.488.395-3.488 2.513 0 1.256 1.057 2.278 2.354 2.278h.674c-.147-2.357 1.528-4.126 3.55-4.484z"/></svg>