<svg xmlns="http://www.w3.org/2000/svg" width="24" height="24" viewBox="0 0 24 24"><path d="M11.234 14.141c0 .714-.138 1.249-.414 1.608-.276.358-.681.538-1.215.538-.512 0-.907-.184-1.187-.552-.278-.367-.418-.899-.418-1.594 0-1.418.535-2.127 1.606-2.127.524 0 .927.184 1.208.552.28.368.42.893.42 1.575zm-2.061.01c0 .394.035.688.105.882.07.194.182.291.337.291.298 0 .447-.391.447-1.173 0-.776-.149-1.163-.447-1.163-.155 0-.268.095-.337.286-.07.19-.105.483-.105.877zm5.263-2.039l-3.774 6.804h-1.117l3.774-6.804h1.117zm1.564 4.747c0 .711-.138 1.245-.414 1.603-.276.359-.681.538-1.215.538-.512 0-.908-.184-1.187-.552-.279-.368-.419-.897-.419-1.589 0-1.418.535-2.127 1.606-2.127.524 0 .927.184 1.208.552.281.367.421.893.421 1.575zm-2.062.009c0 .394.035.688.105.882.07.194.182.291.337.291.298 0 .447-.391.447-1.173 0-.776-.149-1.163-.447-1.163-.155 0-.268.095-.337.286-.07.191-.105.484-.105.877zm-1.938-11.308c2.725 5.186 6 6.718 6 10.515 0 3.267-2.691 5.925-6 5.925s-6-2.658-6-5.925c0-3.797 3.274-5.327 6-10.515zm0-5.56c-2.333 8.958-8 10.188-8 16.075 0 4.378 3.579 7.925 8 7.925 4.421 0 8-3.547 8-7.925 0-5.887-5.667-7.117-8-16.075z"/></svg>