<svg xmlns="http://www.w3.org/2000/svg" width="24" height="24" viewBox="0 0 24 24"><path d="M11.5 20.75c0 .689-.559 1.25-1.25 1.25s-1.25-.561-1.25-1.25.559-1.25 1.25-1.25 1.25.561 1.25 1.25zm1.25-3.75c-.691 0-1.25.561-1.25 1.25s.559 1.25 1.25 1.25 1.25-.561 1.25-1.25-.559-1.25-1.25-1.25zm-7.5 2.5c-.691 0-1.25.561-1.25 1.25s.559 1.25 1.25 1.25 1.25-.561 1.25-1.25-.559-1.25-1.25-1.25zm10 0c-.691 0-1.25.561-1.25 1.25s.559 1.25 1.25 1.25 1.25-.561 1.25-1.25-.559-1.25-1.25-1.25zm-7.5-2.5c-.691 0-1.25.561-1.25 1.25s.559 1.25 1.25 1.25 1.25-.561 1.25-1.25-.559-1.25-1.25-1.25zm16.25-5.278c0 2.362-1.949 4.278-4.354 4.278h-19.646l7.5-13 1.525 2.644c.882-2.131 2.988-3.644 5.475-3.644 3.172 0 5.753 2.443 5.922 5.516 2.033.359 3.578 2.105 3.578 4.206zm-12.463 2.278l-4.037-6.998-4.037 6.998h8.074zm6.213 3c-.691 0-1.25.561-1.25 1.25s.559 1.25 1.25 1.25 1.25-.561 1.25-1.25-.559-1.25-1.25-1.25zm-10.75-5h1v-3h-1v3zm.479.375c-.333 0-.604.271-.604.604 0 .333.271.604.604.604.334 0 .604-.271.604-.604 0-.333-.27-.604-.604-.604z"/></svg>