<svg xmlns="http://www.w3.org/2000/svg" width="24" height="24" viewBox="0 0 24 24"><path d="M13.802 13h3.042l-1.844 4h3l-6 7 2-5h-3l2.802-6zm6.62-5.484c-.178-3.232-3.031-5.777-6.432-5.491-1.087-1.24-2.693-2.025-4.49-2.025-3.172 0-5.754 2.443-5.922 5.516-2.033.359-3.578 2.105-3.578 4.206 0 2.362 1.949 4.278 4.354 4.278h1.326c.771 1.198 2.124 2 3.674 2h1.381l.935-2h-2.316c-1.297 0-2.354-1.021-2.354-2.278 0-2.118 2.104-2.597 3.488-2.513-.05-1.355.137-5.209 4.012-5.209 3.771 0 4.229 3.771 4.012 5.209 1.509-.105 3.488.437 3.488 2.513 0 1.257-1.057 2.278-2.355 2.278h-1.598l-.922 2h2.52c2.406 0 4.355-1.916 4.355-4.278 0-2.101-1.545-3.847-3.578-4.206zm-11.844 0c-2.022.357-3.697 2.127-3.551 4.484h-.673c-1.297 0-2.354-1.021-2.354-2.278 0-2.118 2.104-2.597 3.488-2.513-.05-1.355.137-5.209 4.012-5.209.967 0 1.714.25 2.29.645-1.823.921-3.096 2.745-3.212 4.871z"/></svg>