<svg xmlns="http://www.w3.org/2000/svg" width="24" height="24" viewBox="0 0 24 24"><path d="M2.396 9h-2.396v-2h2.396v2zm7.604-6.458v-2.542h-2v2.542h2zm-4.793.876l-1.859-1.859-1.414 1.414 1.859 1.859 1.414-1.414zm9.222-2.156l-1.875 1.875 1.414 1.414 1.875-1.875-1.414-1.414zm-11.46 10.667l-2.053 1.773 1.303 1.517 2.053-1.773-1.303-1.517zm21.031 2.793c0 2.362-1.949 4.278-4.354 4.278h-10.292c-2.405 0-4.354-1.916-4.354-4.278 0-.77.211-1.49.574-2.113-.965-.907-1.574-2.18-1.574-3.609 0-2.762 2.238-5 5-5 1.328 0 2.523.528 3.414 1.376.648-.24 1.35-.376 2.086-.376 3.172 0 5.753 2.443 5.922 5.516 2.033.359 3.578 2.105 3.578 4.206zm-18-5.722c0 .86.37 1.628.955 2.172.484-.316 1.029-.551 1.623-.656.089-1.61.844-3.042 1.994-4.046-.459-.288-.99-.47-1.572-.47-1.654 0-3 1.346-3 3zm16 5.722c0-2.076-1.979-2.618-3.488-2.512.217-1.439-.241-5.21-4.012-5.21-3.875 0-4.062 3.854-4.012 5.209-1.384-.084-3.488.395-3.488 2.513 0 1.256 1.057 2.278 2.354 2.278h10.291c1.298 0 2.355-1.022 2.355-2.278zm-15.58 9.278l-1.41-1.41 2.59-2.59 1.41 1.41-2.59 2.59zm7.543-2.59l-1.41-1.41-2.59 2.59 1.41 1.41 2.59-2.59zm4.875 0l-1.41-1.41-2.59 2.59 1.41 1.41 2.59-2.59z"/></svg>