<svg xmlns="http://www.w3.org/2000/svg" width="24" height="24" viewBox="0 0 24 24"><path d="M13.776 9.557c0 .968-.436 1.692-1.197 1.692-.754 0-1.212-.688-1.212-1.663 0-.968.443-1.692 1.205-1.692.775.001 1.204.769 1.204 1.663zm5.224 5.443c.514 2.179-1.372 4.446-4.189 3.965-1.243 1.19-1.874 2.629-1.874 5.035h-1.937c0-2.468-.767-4.055-1.913-5.152-2.587 1.183-5.556-.817-5.087-3.848l.01-.1c-2.287-.46-4.01-2.478-4.01-4.9s1.723-4.44 4.01-4.9l-.01-.1c0-2.761 2.239-5 5-5 2.003 0 3.719 1.186 4.517 2.887 2.265-2.2 6.14-.856 6.37 2.202 2.336.42 4.113 2.453 4.113 4.911 0 2.761-2.239 5-5 5zm-11.818-5.421c0-1.108.695-1.648 1.589-1.648.399 0 .717.089.946.185l.229-.895c-.2-.102-.643-.221-1.227-.221-1.508 0-2.719.946-2.719 2.646 0 1.419.886 2.49 2.608 2.49.606 0 1.071-.111 1.278-.214l-.17-.879c-.222.089-.599.163-.938.163-1.005-.001-1.596-.629-1.596-1.627zm7.783-.059c0-1.375-.835-2.52-2.365-2.52-1.47 0-2.423 1.116-2.423 2.609 0 1.418.864 2.534 2.342 2.534 1.456 0 2.446-.99 2.446-2.623zm3.035 2.832h-1.271s1.208-.883 1.208-1.722c0-.612-.419-1.058-1.182-1.058-.457 0-.851.156-1.105.348l.223.565c.176-.135.43-.28.721-.28.389 0 .555.218.555.493-.013.494-.579.956-1.541 1.826v.476h2.392v-.648z"/></svg>