<svg xmlns="http://www.w3.org/2000/svg" width="24" height="24" viewBox="0 0 24 24"><path d="M22.601 4.961l1.399 1.414-3.264 3.278c-1.551 1.551-2.536 4.262-2.801 6.44-.53 4.378-4.259 7.907-8.935 7.907-4.971 0-9-4.029-9-9 0-4.668 3.523-8.405 7.906-8.937 2.184-.265 4.889-1.245 6.444-2.801l3.278-3.262 1.414 1.399-3.277 3.277c-1.857 1.858-5.004 3.056-7.618 3.372-3.504.426-6.147 3.414-6.147 6.952 0 3.86 3.14 7 7 7 1.922 0 3.682-.78 4.956-2.055 3.192-3.192.865-7.206 5.366-11.707l3.279-3.277zm1.399-3.547l-1.414-1.414-9.458 9.461 1.414 1.414 9.458-9.461zm-9.5 13.586c0 3.038-2.463 5.5-5.5 5.5-3.038 0-5.5-2.462-5.5-5.5s2.462-5.5 5.5-5.5c3.037 0 5.5 2.462 5.5 5.5zm-7.25-.5c0-.414-.336-.75-.75-.75s-.75.336-.75.75.336.75.75.75.75-.336.75-.75zm2.75 2.5c0-.552-.448-1-1-1s-1 .448-1 1 .448 1 1 1 1-.448 1-1zm2-3.5c0-.829-.671-1.5-1.5-1.5s-1.5.671-1.5 1.5.671 1.5 1.5 1.5 1.5-.671 1.5-1.5z"/></svg>