<svg xmlns="http://www.w3.org/2000/svg" width="24" height="24" viewBox="0 0 24 24"><path d="M4.069 17c-.041.328-.069.661-.069 1s.028.672.069 1h-4.069v-2h4.069zm6.931-7h2v-5h3l-4-4-4 4h3v5zm-3.897 1.688l-2.88-2.881-1.415 1.414 2.881 2.881c.411-.529.885-1.003 1.414-1.414zm12.828 5.312c.041.328.069.661.069 1s-.028.672-.069 1h4.069v-2h-4.069zm-1.931 1c0 .341-.035.674-.09 1h-11.82c-.055-.326-.09-.659-.09-1 0-3.314 2.686-6 6-6s6 2.686 6 6zm-2.142-1c-.448-1.72-2.001-3-3.858-3-1.858 0-3.41 1.28-3.857 3h7.715zm3.92-8.193l-2.881 2.881c.528.411 1.003.886 1.414 1.414l2.881-2.881-1.414-1.414zm4.222 12.193h-24v2h24v-2z"/></svg>