<svg xmlns="http://www.w3.org/2000/svg" width="24" height="24" viewBox="0 0 24 24"><path d="M19.672 7.984c.109 1.286 1.031 2.375 2.203 3.234-2.051-.277-3.885-1.373-4.834-2.768-3.646 4.06-5.446 8.694-5.543 12.668.361.053.709.123 1.041.21.836-2.892 3.039-5.155 4.477-5.783.32-1.874 2.381-2.918 3.61-2.285-.957.04-1.648.702-1.836 1.348 1.073.082 1.784.55 2.21 1.352-.734-.454-1.586-.591-2.348-.111.214.705.857 1.202 1.613 1.543-1.176.088-2.33-.305-3.024-.971-1.499.757-2.909 3.671-3.077 5.508 1.082.546 1.9 1.282 2.386 2.069h-13.1c.857-1.391 2.743-2.622 5.319-2.926.521-4.065 3.917-10.184 7.641-13.476-.752-2.166.778-6.158 5.59-6.596-2.062.979-3.406 2.625-3.266 3.719 1.688-1.844 4.11-1.547 5.266-.453-1.656-.281-2.859.422-3.641 1.641 1.812.531 2.859 1.594 3.297 3.125-1.094-1.048-2.505-1.594-3.984-1.048zm-14.65-7.984c-1.16 0-2.155.666-2.654 1.631l1.749.956c.158-.345.502-.587.905-.587.552 0 1 .448 1 1s-.448 1-1 1h-5.022v2h5.022c3.969 0 3.971-6 0-6zm.978 16c-1.16 0-2.155-.666-2.654-1.631l1.749-.956c.158.345.502.587.905.587.552 0 1-.448 1-1s-.448-1-1-1h-6v-2h6c1.656 0 3 1.344 3 3s-1.344 3-3 3zm8-10c0-1.5-.992-3-2.978-3-1.16 0-2.155.666-2.654 1.631l1.749.956c.158-.345.502-.587.905-.587.552 0 1 .448 1 1s-.448 1-1 1h-11.022v2h11.022c1.985 0 2.978-1.5 2.978-3z"/></svg>