<svg xmlns="http://www.w3.org/2000/svg" width="24" height="24" viewBox="0 0 24 24"><path d="M15 17h3l-6 7 2-5h-3l2.802-6h3.042l-1.844 4zm-5-17h-2v2.542h2v-2.542zm-4.793 3.418l-2.156-2.156-1.414 1.414 2.156 2.156 1.414-1.414zm10.875-.981l-1.414-1.414-2.114 2.114 1.414 1.414 2.114-2.114zm-13.686 4.563h-2.396v2h2.396v-2zm-1.626 6.848l1.303 1.517 2.199-1.919-1.303-1.517-2.199 1.919zm19.652-3.332c-.169-3.073-2.75-5.516-5.922-5.516-.736 0-1.438.137-2.086.377-.891-.849-2.086-1.377-3.414-1.377-2.762 0-5 2.238-5 5 0 1.429.609 2.702 1.574 3.608-.363.624-.574 1.343-.574 2.114 0 2.36 1.945 4.273 4.348 4.277l.892-1.999h-.886c-1.297 0-2.354-1.021-2.354-2.278 0-2.118 2.104-2.597 3.488-2.513-.05-1.355.137-5.209 4.012-5.209 3.771 0 4.229 3.771 4.012 5.209 1.509-.105 3.488.437 3.488 2.513 0 1.146-.881 2.087-2.02 2.245l-1.711 2.033h1.377c2.405 0 4.354-1.916 4.354-4.278 0-2.101-1.545-3.847-3.578-4.206zm-11.844 0c-.594.105-1.139.34-1.623.656-.585-.544-.955-1.312-.955-2.172 0-1.654 1.346-3 3-3 .582 0 1.113.182 1.572.47-1.15 1.004-1.905 2.436-1.994 4.046z"/></svg>