<svg xmlns="http://www.w3.org/2000/svg" width="24" height="24" viewBox="0 0 24 24"><path d="M22 22h-1c0-5.394-3.327-8-7-8-3.608 0-7 2.558-7 8h-1c0-6.117 3.935-9 8-9 4.035 0 8 2.877 8 9zm-8-11c-5.046 0-10 3.661-10 11h1c0-6.724 4.475-10 9-10 4.524 0 9 3.257 9 10h1c0-7.382-5.017-11-10-11zm0 4c-3.176 0-6 2.205-6 7h1c0-4.111 2.264-6 5-6 2.607 0 5 1.747 5 6h1c0-4.831-2.875-7-6-7zm-9.671-1.002c-1.286-.014-2.329-1.029-2.329-2.276 0-2.118 2.103-2.597 3.488-2.512-.051-1.356.137-5.21 4.012-5.21 3.622 0 4.185 3.472 4.032 5.022 1.812-.071 3.448.234 5.042.892-.59-1.231-1.748-2.149-3.152-2.397-.169-3.074-2.75-5.517-5.922-5.517-3.172 0-5.753 2.443-5.922 5.516-2.033.36-3.578 2.105-3.578 4.206 0 1.996 1.397 3.658 3.278 4.131.306-.664.654-1.287 1.051-1.855z"/></svg>