<svg xmlns="http://www.w3.org/2000/svg" width="24" height="24" viewBox="0 0 24 24"><path d="M21.192 6.221l-2.881 2.881c-.411-.528-.885-1.002-1.414-1.414l2.881-2.881 1.414 1.414zm-8.192-.152v-4.069h-2v4.069c.328-.041.66-.069 1-.069s.672.028 1 .069zm6.931 6.931c.041.328.069.66.069 1s-.028.672-.069 1h4.069v-2h-4.069zm-1.931 1c0 .342-.035.674-.09 1h-11.82c-.055-.326-.09-.658-.09-1 0-3.314 2.686-6 6-6s6 2.686 6 6zm-2.142-1c-.448-1.721-2.001-3-3.858-3-1.858 0-3.41 1.279-3.857 3h7.715zm-8.754-5.312l-2.881-2.881-1.415 1.414 2.881 2.881c.411-.529.885-1.003 1.415-1.414zm-7.104 5.312v2h4.069c-.041-.328-.069-.66-.069-1s.028-.672.069-1h-4.069zm22 6h-20v-2h20v2zm-3 3h-14v-2h14v2z"/></svg>