<svg xmlns="http://www.w3.org/2000/svg" width="24" height="24" viewBox="0 0 24 24"><path d="M20 6.093l-3-3v-2.093h3v5.093zm1 11.349c.813.315 1.732.558 3 .558v2c-3.896 0-5.083-2-8.002-2-3.04 0-4.436 2-8.002 2-3.684 0-4.376-2-7.996-2v-2c1.275 0 2.217.184 3 .438v-4.438h-3l12-12 12 12h-3v5.442zm-11-3.442v3.692c1.327-.403 2.469-1.089 4-1.45v-2.242h-4zm-2.004 8c-3.184 0-3.767-2-7.996-2v2c3.62 0 4.312 2 7.996 2 3.566 0 4.962-2 8.002-2 2.919 0 4.106 2 8.002 2v-2c-3.649 0-4.438-2-8.002-2-3.581 0-4.977 2-8.002 2z"/></svg>