<svg xmlns="http://www.w3.org/2000/svg" width="24" height="24" viewBox="0 0 24 24"><path d="M7 12l13-4v-4l-13-4-5 5v-2h-2v21h2v-17l5 5zm8-8.492l2 .615v3.754l-2 .615v-4.984zm-5-1.539l2 .615v6.831l-2 .615v-8.061zm-3-.555v9.172l-4.586-4.586 4.586-4.586zm17 12.086c0 1.932-1.568 3.5-3.5 3.5h-15.5v-2h15.5c.827 0 1.5-.673 1.5-1.5s-.673-1.5-1.5-1.5c-.774 0-1.404.592-1.486 1.345l-1.886-.727c.395-1.502 1.748-2.618 3.372-2.618 1.932 0 3.5 1.568 3.5 3.5zm-6 7.5c0 1.656-1.344 3-3 3-1.16 0-2.155-.666-2.654-1.631l1.749-.956c.158.345.502.587.905.587.552 0 1-.448 1-1s-.448-1-1-1h-10v-2h10c1.656 0 3 1.344 3 3z"/></svg>