<svg xmlns="http://www.w3.org/2000/svg" width="24" height="24" viewBox="0 0 24 24"><path d="M20.422 9.516c-.169-3.073-2.75-5.516-5.922-5.516-1.229 0-2.368.37-3.313.999-1.041-1.79-2.974-2.999-5.19-2.999-.468 0-.947.054-1.434.167 1.347 3.833-.383 6.416-4.563 5.812-.006 3.027 2.197 5.468 5.02 5.935.104 2.271 1.996 4.086 4.334 4.086h10.291c2.406 0 4.355-1.916 4.355-4.278 0-2.101-1.545-3.847-3.578-4.206zm-15.016 2.439c-1.285-.192-2.384-.997-2.964-2.125 2.916-.12 5.064-2.846 4.452-5.729 1.259.29 2.282 1.18 2.778 2.346-.635.875-1.031 1.928-1.094 3.069-1.42.251-2.589 1.186-3.172 2.439zm1.014 11.045l-1.41-1.41 2.59-2.59 1.41 1.41-2.59 2.59zm7.543-2.59l-1.41-1.41-2.59 2.59 1.41 1.41 2.59-2.59zm4.875 0l-1.41-1.41-2.59 2.59 1.41 1.41 2.59-2.59z"/></svg>