<svg xmlns="http://www.w3.org/2000/svg" width="24" height="24" viewBox="0 0 24 24"><path d="M21.95 15.668c.041.271.222 1.109-.854 1.661v-2.329h1l-4-4-4 4h1v2.002c-1.667-1.053-2.562-2.944-2.562-4.75 0-1.304.778-3.243 2.146-3.243 1 0 2.369.617 3.869-.196 1.143-.619 1.762-1.722 1.818-3.136.046-1.141-.37-2.229-1.173-3.064-.998-1.041-2.529-1.613-4.31-1.613-9.955 0-14.486 17.768-14.884 22h19.368c2.9 0 4.632-2.068 4.632-4.067 0-1.364-.747-2.554-2.05-3.265zm-4.854-.668h2v2h-2v-2zm4.904 3.933c0 1.002-.923 2.067-2.632 2.067h-16.935c1.668-7.236 5.346-18 12.451-18 1.231 0 2.251.354 2.868.998.428.445.642.998.617 1.599-.064 1.571-1.383 1.935-2.856 1.487-2.84-.863-6.994.622-8.515 5.575 1.312-1.644 2.739-2.697 4.188-3.253-.427.866-.652 1.87-.652 2.846 0 5.622 4.361 7.561 7.875 7.561 1.438 0 2.688-.281 3.592-.914l-.001.034z"/></svg>