<svg xmlns="http://www.w3.org/2000/svg" width="24" height="24" viewBox="0 0 24 24"><path d="M3.833 6.248l-2.197-2.198 1.415-1.415 2.197 2.197c-.562.373-1.043.854-1.415 1.416zm8.167 2.752c0 .425-.084.828-.207 1.212-1.999.374-3.826 1.24-5.345 2.474-1.438-.605-2.448-2.028-2.448-3.686 0-2.209 1.791-4 4-4s4 1.791 4 4zm-2 0c0-1.103-.897-2-2-2s-2 .897-2 2 .897 2 2 2 2-.897 2-2zm6 1v-2h-3.101c.066.323.101.658.101 1s-.035.677-.101 1h3.101zm-3.833-3.753l2.197-2.197-1.414-1.414-2.197 2.197c.561.372 1.042.853 1.414 1.414zm-3.167-2.146v-3.101h-2v3.101c.323-.066.658-.101 1-.101.342 0 .677.035 1 .101zm5 9.899c-4.065 0-8 2.883-8 9h1c0-5.442 3.392-8 7-8 3.673 0 7 2.606 7 8h1c0-6.123-3.965-9-8-9zm0-2c-5.046 0-10 3.661-10 11h1c0-6.724 4.476-10 9-10s9 3.257 9 10h1c0-7.382-5.017-11-10-11zm-10.167-.247l-2.196 2.197 1.414 1.414 2.197-2.197c-.561-.372-1.043-.853-1.415-1.414zm-.833-2.753c0-.342.035-.677.101-1h-3.101v2h3.101c-.066-.323-.101-.658-.101-1zm11 7c-3.176 0-6 2.205-6 7h1c0-4.111 2.264-6 5-6 2.607 0 5 1.747 5 6h1c0-4.831-2.875-7-6-7z"/></svg>