<svg xmlns="http://www.w3.org/2000/svg" width="24" height="24" viewBox="0 0 24 24"><path d="M20.422 11.516c-.178-3.233-3.031-5.778-6.432-5.492-1.087-1.239-2.693-2.024-4.49-2.024-3.172 0-5.754 2.443-5.922 5.516-2.033.359-3.578 2.105-3.578 4.206 0 2.362 1.949 4.278 4.354 4.278h1.326c.771 1.198 2.124 2 3.674 2h10.291c2.406 0 4.355-1.916 4.355-4.278 0-2.101-1.545-3.847-3.578-4.206zm-15.395 4.484h-.673c-1.297 0-2.354-1.022-2.354-2.278 0-2.118 2.104-2.597 3.488-2.512-.05-1.356.137-5.21 4.012-5.21.967 0 1.714.25 2.29.644-1.823.922-3.096 2.746-3.212 4.872-2.022.358-3.697 2.127-3.551 4.484zm14.618 2h-10.291c-1.297 0-2.354-1.022-2.354-2.278 0-2.118 2.104-2.597 3.488-2.512-.05-1.356.137-5.21 4.012-5.21 3.771 0 4.229 3.771 4.012 5.209 1.509-.105 3.488.437 3.488 2.513 0 1.256-1.057 2.278-2.355 2.278z"/></svg>