<svg xmlns="http://www.w3.org/2000/svg" width="24" height="24" viewBox="0 0 24 24"><path d="M18.014 11.421l-2.656-4.625.867-.498 2.656 4.625-.867.498zm3.298 1.579l-2.656-4.625.867-.498 2.656 4.625-.867.498zm-.209 1.598c-.509-1.504-2.306-2.497-3.806-1.91l-6.235-10.688-11.062 20h20.25c2.067 0 3.75-1.682 3.75-3.75 0-1.774-1.239-3.265-2.897-3.652zm-.853 5.402h-16.858l4.822-8.718 1.067 2.135 1.922-3.651 1.67 2.815 1.116-1.597 2.636 4.516c.875-1.781 3.328-.688 2.688 1.104 1.271-.5 2.687.224 2.687 1.646 0 .965-.785 1.75-1.75 1.75z"/></svg>