<svg xmlns="http://www.w3.org/2000/svg" width="24" height="24" viewBox="0 0 24 24"><path d="M10.545 11h-2.215c-.158-1.234-.428-1.971-2.092-2.691-1.38-.598-2.238-1.83-2.238-3.218 0-2.021 1.652-3.317 3.286-3.459.625-.999 1.731-1.632 2.94-1.632.877 0 1.697.325 2.323.892.793-.576 1.747-.892 2.743-.892 2.596 0 4.708 2.1 4.708 4.682s-2.112 4.682-4.708 4.682c-.606 0-1.165-.129-1.658-.242-1.001-.231-2.327-.563-3.089 1.878zm-4.533-5.909c0 .871.788 1.279 1.029 1.384.84.364 1.926.834 2.609 2.102.815-1.108 1.755-1.632 2.904-1.632.858 0 2.083.419 2.737.419 1.487 0 2.697-1.203 2.697-2.682 0-2.79-3.694-3.635-5.517-1.166-.707-2.031-3.865-1.937-3.887.219-.67-.61-2.572-.331-2.572 1.356zm10.988 8.909l-2.154 3-3.846-5c-.364.316-.932.474-1.5.474s-1.136-.158-1.5-.474l-8 12h24l-7-10zm-9.995 3.097l1.12.903 1.5-1.604 1.667 1.604 1.083-.933 2.527 3.285 2.078-2.894 3.179 4.542h-16.422l3.268-4.903z"/></svg>