<svg xmlns="http://www.w3.org/2000/svg" width="24" height="24" viewBox="0 0 24 24"><path d="M14 24h-4c0-1.319.062-3.172-.958-4.557-1.589.428-3.344-.101-4.407-1.341-.649-.758-.997-1.699-1.011-2.708-2.144-.806-3.624-2.88-3.624-5.226 0-2.383 1.526-4.488 3.723-5.267.363-2.794 2.704-4.901 5.527-4.901 1.748 0 3.384.836 4.427 2.202.655-.36 1.392-.551 2.155-.551 2.074 0 3.794 1.334 4.274 3.204 2.294.721 3.894 2.853 3.894 5.313 0 2.712-1.944 4.979-4.512 5.479-.048.797-.342 1.571-.858 2.223-.824 1.039-2.147 1.66-3.673 1.566-.988 1.267-.957 2.957-.957 4.564zm-4.469-6.912c1.157.808 2.071 1.967 2.438 4.346.327-2.166 1.178-3.413 2.282-4.118.979.268 1.962.234 2.813-.689.577-.626.952-1.595.593-2.689 2.374-.032 4.343-1.355 4.343-3.77 0-1.75-1.062-3.252-3.71-3.652.085-1.058-.334-2.323-1.496-2.722-1.812-.623-3.023.54-3.713 1.552-.185-1.117-1.205-3.346-3.831-3.346-1.914 0-3.582 1.261-3.582 4.399-1.189.08-3.668.931-3.668 3.769 0 2.2 1.646 3.436 3.674 3.672-.195 1.201-.253 2.104.479 2.96 1.079 1.26 2.555.867 3.378.288zm.356-5.167c-.207.104-.672.214-1.278.214-1.723.001-2.609-1.071-2.609-2.489 0-1.7 1.211-2.646 2.719-2.646.584 0 1.027.119 1.227.222l-.229.894c-.229-.096-.547-.185-.946-.185-.894 0-1.589.54-1.589 1.648 0 .998.591 1.626 1.596 1.626.34 0 .717-.074.938-.163l.171.879zm5.078-2.401c0 1.633-.99 2.623-2.446 2.623-1.478 0-2.342-1.116-2.342-2.534 0-1.493.953-2.609 2.424-2.609 1.529 0 2.364 1.146 2.364 2.52zm-3.598.066c0 .975.458 1.663 1.212 1.663.761 0 1.197-.724 1.197-1.692 0-.894-.429-1.662-1.205-1.662-.761 0-1.204.724-1.204 1.691zm4.242 3.414v-.477c.962-.87 1.528-1.333 1.541-1.826 0-.275-.166-.493-.555-.493-.291 0-.544.146-.721.28l-.224-.565c.254-.192.648-.348 1.105-.348.763 0 1.182.446 1.182 1.058 0 .839-1.208 1.722-1.208 1.722h1.271v.649h-2.391z"/></svg>