<svg xmlns="http://www.w3.org/2000/svg" width="24" height="24" viewBox="0 0 24 24"><path d="M11 11h-11v-2h11c.552 0 1-.448 1-1s-.448-1-1-1c-.403 0-.747.242-.905.587l-1.749-.956c.499-.965 1.494-1.631 2.654-1.631 3.971 0 3.969 6 0 6zm7 7c0-1.656-1.344-3-3-3h-15v2h15c.552 0 1 .448 1 1s-.448 1-1 1c-.403 0-.747-.242-.905-.587l-1.749.956c.499.965 1.494 1.631 2.654 1.631 1.656 0 3-1.344 3-3zm1.014-7.655c.082-.753.712-1.345 1.486-1.345.827 0 1.5.673 1.5 1.5s-.673 1.5-1.5 1.5h-20.5v2h20.5c1.932 0 3.5-1.568 3.5-3.5s-1.568-3.5-3.5-3.5c-1.624 0-2.977 1.116-3.372 2.617l1.886.728zm-16.764-8.345c-.691 0-1.25.561-1.25 1.25s.559 1.25 1.25 1.25 1.25-.561 1.25-1.25-.559-1.25-1.25-1.25zm0 17.5c-.691 0-1.25.561-1.25 1.25s.559 1.25 1.25 1.25 1.25-.561 1.25-1.25-.559-1.25-1.25-1.25zm7.75 0c-.691 0-1.25.561-1.25 1.25s.559 1.25 1.25 1.25 1.25-.561 1.25-1.25-.559-1.25-1.25-1.25zm10 0c-.691 0-1.25.561-1.25 1.25s.559 1.25 1.25 1.25 1.25-.561 1.25-1.25-.559-1.25-1.25-1.25zm-14-1.75c-.691 0-1.25.561-1.25 1.25s.559 1.25 1.25 1.25 1.25-.561 1.25-1.25-.559-1.25-1.25-1.25zm16.75-1.75c-.691 0-1.25.561-1.25 1.25s.559 1.25 1.25 1.25 1.25-.561 1.25-1.25-.559-1.25-1.25-1.25zm-17.75-11.25c-.691 0-1.25.561-1.25 1.25s.559 1.25 1.25 1.25 1.25-.561 1.25-1.25-.559-1.25-1.25-1.25zm3-2.75c-.691 0-1.25.561-1.25 1.25s.559 1.25 1.25 1.25 1.25-.561 1.25-1.25-.559-1.25-1.25-1.25zm13.75 0c-.691 0-1.25.561-1.25 1.25s.559 1.25 1.25 1.25 1.25-.561 1.25-1.25-.559-1.25-1.25-1.25zm-3.75 1.75c-.691 0-1.25.561-1.25 1.25s.559 1.25 1.25 1.25 1.25-.561 1.25-1.25-.559-1.25-1.25-1.25zm-4-1.75c-.691 0-1.25.561-1.25 1.25s.559 1.25 1.25 1.25 1.25-.561 1.25-1.25-.559-1.25-1.25-1.25z"/></svg>