<svg xmlns="http://www.w3.org/2000/svg" width="24" height="24" viewBox="0 0 24 24"><path d="M10.043 18.153c-.291-1.201-1.262-5.528-1.262-5.528-.186.232-.471.375-.781.375h-3c-.552 0-1-.448-1-1s.448-1 1-1h2.279l.772-2.316c.154-.461.521-.683.886-.683.402 0 .803.269.917.782.217.98.958 4.404.958 4.404s1.077-7.229 1.229-8.325c.079-.567.526-.859.973-.859.417 0 .834.255.952.779l1.249 6.598c.186-.235.473-.38.785-.38h3c.552 0 1 .448 1 1s-.448 1-1 1h-2.279l-.772 2.316c-.317.95-1.48 1.027-1.761-.098-.293-1.173-1.094-5-1.094-5s-.962 6.786-1.115 7.885c-.08.573-.524.889-.972.889-.411.001-.825-.264-.964-.839zm-8.043-6.153c0 5.514 4.486 10 10 10s10-4.486 10-10-4.486-10-10-10-10 4.486-10 10zm22 0c0 6.627-5.373 12-12 12s-12-5.373-12-12 5.373-12 12-12 12 5.373 12 12z"/></svg>