<svg xmlns="http://www.w3.org/2000/svg" width="24" height="24" viewBox="0 0 24 24"><path d="M9.125 19.41l-3.59 3.59-1.41-1.41 3.59-3.59 1.41 1.41zm1.125 1.09c-.691 0-1.25.56-1.25 1.25s.559 1.25 1.25 1.25 1.25-.56 1.25-1.25-.559-1.25-1.25-1.25zm13.75-7.778c0 2.362-1.949 4.278-4.355 4.278h-10.291c-1.55 0-2.902-.802-3.674-2h-1.326c-2.405 0-4.354-1.916-4.354-4.278 0-2.101 1.545-3.846 3.578-4.206.168-3.073 2.75-5.516 5.922-5.516 1.797 0 3.403.785 4.49 2.024 3.4-.286 6.254 2.258 6.432 5.492 2.033.359 3.578 2.105 3.578 4.206zm-15.422-4.206c.116-2.126 1.389-3.95 3.212-4.872-.576-.394-1.323-.644-2.29-.644-3.875 0-4.062 3.854-4.012 5.209-1.384-.084-3.488.395-3.488 2.513 0 1.256 1.057 2.278 2.354 2.278h.674c-.147-2.357 1.528-4.126 3.55-4.484zm13.422 4.206c0-2.076-1.979-2.618-3.488-2.512.217-1.439-.241-5.21-4.012-5.21-3.875 0-4.062 3.854-4.012 5.209-1.384-.084-3.488.395-3.488 2.513 0 1.256 1.057 2.278 2.354 2.278h10.291c1.298 0 2.355-1.022 2.355-2.278zm-9.25 5.278c-.691 0-1.25.56-1.25 1.25s.559 1.25 1.25 1.25 1.25-.56 1.25-1.25-.559-1.25-1.25-1.25zm1.25 3.59l1.41 1.41 3.59-3.59-1.41-1.41-3.59 3.59zm2.479-12.838l-1.479.881v-1.633h-1v1.633l-1.494-.896-.506.867 1.499.896-1.499.865.537.867 1.463-.865v1.633h1v-1.633l1.467.869.533-.867-1.499-.869 1.499-.88-.521-.868z"/></svg>