<svg xmlns="http://www.w3.org/2000/svg" width="24" height="24" viewBox="0 0 24 24"><path d="M14 19.25c0 .689-.559 1.25-1.25 1.25s-1.25-.561-1.25-1.25.559-1.25 1.25-1.25 1.25.561 1.25 1.25zm-3.75 1.25c-.691 0-1.25.561-1.25 1.25s.559 1.25 1.25 1.25 1.25-.561 1.25-1.25-.559-1.25-1.25-1.25zm8.75-1.25c0 .689-.559 1.25-1.25 1.25s-1.25-.561-1.25-1.25.559-1.25 1.25-1.25 1.25.561 1.25 1.25zm-3.75 1.25c-.691 0-1.25.561-1.25 1.25s.559 1.25 1.25 1.25 1.25-.561 1.25-1.25-.559-1.25-1.25-1.25zm-6.25-1.25c0 .689-.559 1.25-1.25 1.25s-1.25-.561-1.25-1.25.559-1.25 1.25-1.25 1.25.561 1.25 1.25zm-3.75 1.25c-.691 0-1.25.561-1.25 1.25s.559 1.25 1.25 1.25 1.25-.561 1.25-1.25-.559-1.25-1.25-1.25zm18.75-7.778c0 2.362-1.949 4.278-4.355 4.278h-10.291c-1.55 0-2.902-.802-3.674-2h-1.326c-2.405 0-4.354-1.916-4.354-4.278 0-2.101 1.545-3.847 3.578-4.206.168-3.073 2.75-5.516 5.922-5.516 1.797 0 3.403.785 4.49 2.024 3.4-.286 6.254 2.259 6.432 5.491 2.033.36 3.578 2.106 3.578 4.207zm-12.21-9.077c-.576-.395-1.323-.645-2.29-.645-3.875 0-4.062 3.854-4.012 5.209-1.384-.084-3.488.395-3.488 2.513 0 1.257 1.057 2.278 2.354 2.278h.674c-.146-2.357 1.528-4.127 3.551-4.484.115-2.126 1.388-3.95 3.211-4.871zm3.711 6.855l1.499-.881-.521-.867-1.479.881v-1.633h-1v1.633l-1.494-.896-.506.867 1.499.896-1.499.865.537.867 1.463-.865v1.633h1v-1.633l1.467.869.533-.867-1.499-.869z"/></svg>