<svg xmlns="http://www.w3.org/2000/svg" width="24" height="24" viewBox="0 0 24 24"><path d="M16.5 2c.276 0 .5.224.5.5v14.519c0 2.747-2.243 4.981-5 4.981s-5-2.234-5-4.981v-14.519c0-.276.224-.5.5-.5h9zm2.5 0c0-1.104-.896-2-2-2h-10c-1.105 0-2 .896-2 2v15.019c0 3.856 3.145 6.981 7 6.981s7-3.125 7-6.981v-15.019zm-7 14c.552 0 1 .449 1 1s-.448 1-1 1-1-.449-1-1 .448-1 1-1m0-2c-1.656 0-3 1.343-3 3s1.344 3 3 3 3-1.343 3-3-1.344-3-3-3zm0-10c.553 0 1 .448 1 1 0 .553-.447 1-1 1s-1-.447-1-1c0-.552.447-1 1-1z"/></svg>