<svg xmlns="http://www.w3.org/2000/svg" width="24" height="24" viewBox="0 0 24 24"><path d="M12 0c-4.971 0-9 4.03-9 9 0 4.971 4.029 9 9 9s9-4.03 9-9-4.029-9-9-9zm0 13c-2.209 0-4-1.791-4-4s1.791-4 4-4 4 1.791 4 4-1.791 4-4 4zm2-4c0 1.103-.896 2-2 2-1.103 0-2-.897-2-2s.897-2 2-2c1.104 0 2 .897 2 2zm6.596 12.501c1.005 1.14-.01 2.678-1.448 2.481-1.795-.245-3.236-1.702-7.147-1.702s-5.352 1.458-7.147 1.702c-1.439.197-2.454-1.342-1.448-2.481l2.794-3.171c1.687 1.052 3.67 1.67 5.8 1.67s4.113-.619 5.8-1.671l2.796 3.172z"/></svg>