<svg xmlns="http://www.w3.org/2000/svg" width="24" height="24" viewBox="0 0 24 24"><path d="M18 0c-3.17 0-6 2.115-6 5.004 0 1.025.369 2.033 1.025 2.812.023.914-.515 2.232-.996 3.188 1.3-.234 3.146-.756 3.984-1.271 4.624 1.124 7.987-1.7 7.987-4.729 0-2.906-2.848-5.004-6-5.004zm-2.502 5.754c-.41 0-.75-.34-.75-.75 0-.416.34-.75.75-.75.416 0 .75.334.75.75 0 .41-.334.75-.75.75zm2.502 0c-.416 0-.75-.34-.75-.75 0-.416.334-.75.75-.75s.75.334.75.75c0 .41-.334.75-.75.75zm2.502 0c-.416 0-.75-.34-.75-.75 0-.416.334-.75.75-.75.41 0 .75.334.75.75 0 .41-.34.75-.75.75zm-20.502 6.371c0-3.934 3.191-7.125 7.125-7.125 1.041 0 2.027.229 2.918.63.08.802.312 1.576.68 2.288-.969-.83-2.225-1.335-3.598-1.335-3.056 0-5.542 2.485-5.542 5.542s2.485 5.542 5.542 5.542c2.782 0 5.084-2.062 5.476-4.736.45-.087 1.02-.216 1.627-.384-.219 3.737-3.312 6.703-7.104 6.703-3.933 0-7.124-3.191-7.124-7.125zm11.328 7.492l2.922 4.383h-14.25l2.922-4.383c.449.282.928.519 1.431.708l-1.394 2.092h8.332l-1.394-2.092c.503-.189.982-.426 1.431-.708zm-7.37-7.492c0 1.75 1.417 3.167 3.167 3.167s3.167-1.417 3.167-3.167-1.417-3.167-3.167-3.167-3.167 1.417-3.167 3.167zm4.75 0c0 .873-.711 1.583-1.583 1.583s-1.583-.711-1.583-1.583.711-1.583 1.583-1.583 1.583.71 1.583 1.583z"/></svg>