<svg xmlns="http://www.w3.org/2000/svg" width="24" height="24" viewBox="0 0 24 24"><path d="M17.387 18.581m-10.774 0 9.387-9.581c0 2.209-1.791 4-4 4s-4-1.791-4-4 1.791-4 4-4 4 1.791 4 4zm-2 0c0-1.103-.897-2-2-2s-2 .897-2 2 .897 2 2 2 2-.897 2-2zm1.501 10.357l1.762 2.643h-10.526l1.762-2.643c-.636-.238-1.241-.538-1.808-.894l-3.691 5.537h18l-3.691-5.537c-.567.357-1.172.656-1.808.894zm-10.501-10.357c0 3.86 3.14 7 7 7s7-3.14 7-7-3.14-7-7-7-7 3.14-7 7zm16 0c0 4.97-4.03 9-9 9s-9-4.03-9-9 4.03-9 9-9 9 4.03 9 9z"/></svg>