<svg width="24" height="24" xmlns="http://www.w3.org/2000/svg" fill-rule="evenodd" clip-rule="evenodd"><path d="M12 0c-6.627 0-12 5.373-12 12s5.373 12 12 12 12-5.373 12-12-5.373-12-12-12zm0 2c5.514 0 10 4.486 10 10s-4.486 10-10 10-10-4.486-10-10 4.486-10 10-10zm5.147 14.076c.826-.598 1.353-1.483 1.353-2.466 0-1.803-1.753-3.263-3.916-3.263-2.162 0-3.915 1.46-3.915 3.263 0 1.802 1.753 3.262 3.915 3.262.447 0 .879-.063 1.279-.178l.115-.018c.075 0 .143.023.208.061l.857.495.075.024c.072 0 .131-.059.131-.131l-.021-.095-.177-.658-.014-.084c0-.087.044-.165.11-.212zm-6.948-9.332c-2.595 0-4.699 1.753-4.699 3.916 0 1.18.633 2.242 1.623 2.959.08.057.132.15.132.256l-.016.099-.212.79-.025.115c0 .086.07.156.156.156l.091-.029 1.028-.594c.078-.045.16-.072.25-.072l.138.021c.48.138.998.214 1.534.214l.258-.006c-.102-.305-.158-.627-.158-.959 0-1.973 1.919-3.572 4.285-3.572l.256.007c-.354-1.87-2.297-3.301-4.641-3.301zm3.08 6.344c-.288 0-.522-.234-.522-.523 0-.288.234-.522.522-.522.289 0 .522.234.522.522 0 .289-.233.523-.522.523zm2.611 0c-.289 0-.522-.234-.522-.523 0-.288.233-.522.522-.522.288 0 .522.234.522.522 0 .289-.234.523-.522.523zm-7.257-3.055c-.346 0-.627-.28-.627-.626s.281-.627.627-.627c.345 0 .626.281.626.627s-.281.626-.626.626zm3.132 0c-.346 0-.627-.28-.627-.626s.281-.627.627-.627.627.281.627.627-.281.626-.627.626z"/></svg>