<svg width="24" height="24" xmlns="http://www.w3.org/2000/svg" fill-rule="evenodd" clip-rule="evenodd"><path d="M7.467 0c1.102.018 5.555 2.549 6.386 8.558.905-.889 1.409-3.664 1.147-4.843 3.952 2.969 6 6.781 6 11.034 0 5.094-3.43 9.251-8.963 9.251-5.728 0-9.037-3.753-9.037-8.276 0-6.26 5.052-7.62 4.467-15.724zm3.262 19.743c-.749.848-.368 1.945.763 2.045 1.035.093 1.759-.812 2.032-1.792.273-.978.09-2.02-.369-2.893-.998 1.515-1.52 1.64-2.426 2.64zm4.42 1.608c2.49-1.146 3.852-3.683 3.852-6.58 0-2.358-.94-4.977-2.5-7.04-.743 2.867-2.924 3.978-4.501 4.269.05-3.219-.318-6.153-2.602-8.438-.296 4.732-4.321 7.63-4.398 12.114-.029 1.511.514 3.203 1.73 4.415.491.489 1.054.871 1.664 1.16-.121-.608-.062-1.254.195-1.848.911-2.106 3.333-2.321 4.202-5.754.952.749 3.275 3.503 2.778 6.358-.082.469-.224.923-.42 1.344z"/></svg>