<svg width="24" height="24" xmlns="http://www.w3.org/2000/svg" fill-rule="evenodd" clip-rule="evenodd"><path d="M12 20c.828 0 1.5.672 1.5 1.5s-.672 1.5-1.5 1.5-1.5-.672-1.5-1.5.672-1.5 1.5-1.5zm-3.659-3.254c1.013-.781 2.282-1.246 3.659-1.246 1.376 0 2.645.464 3.657 1.245l-.572.821c-.85-.667-1.921-1.066-3.085-1.066s-2.237.399-3.087 1.068l-.572-.822zm-2.859-4.105c1.825-1.346 4.079-2.141 6.518-2.141 2.437 0 4.691.794 6.515 2.139l-.572.821c-1.662-1.232-3.718-1.96-5.943-1.96-2.226 0-4.284.729-5.946 1.962l-.572-.821zm-2.858-4.104c2.635-1.91 5.875-3.037 9.376-3.037 3.499 0 6.737 1.125 9.371 3.034l-.571.821c-2.472-1.796-5.513-2.855-8.8-2.855-3.288 0-6.331 1.06-8.804 2.858l-.572-.821zm-2.624-3.768c3.402-2.375 7.54-3.769 12-3.769 4.458 0 8.593 1.392 11.994 3.765l-.571.82c-3.239-2.259-7.178-3.585-11.423-3.585-4.248 0-8.188 1.327-11.429 3.589l-.571-.82z"/></svg>