<svg width="24" height="24" xmlns="http://www.w3.org/2000/svg" fill-rule="evenodd" clip-rule="evenodd"><path d="M16 10.174v-2.174h3v2.174c.689.163 1.335.436 1.92.799l.816-.973 1.532 1.286-.83.989c.974 1.137 1.562 2.613 1.562 4.225 0 3.587-2.913 6.5-6.5 6.5s-6.5-2.913-6.5-6.5c0-3.071 2.135-5.648 5-6.326zm7-9.174v7h-2v-2h-19v15h8.289c.472.754 1.059 1.429 1.736 2h-12.025v-22h23zm-5.5 11c2.484 0 4.5 2.016 4.5 4.5s-2.016 4.5-4.5 4.5-4.5-2.016-4.5-4.5 2.016-4.5 4.5-4.5zm2.368 1.49l-2.076 1.562c-.503-.103-1.045.051-1.413.461-.548.615-.496 1.558.119 2.107.614.55 1.558.497 2.107-.117.367-.412.459-.967.3-1.456l1.303-2.255-.34-.302z"/></svg>