<svg width="24" height="24" xmlns="http://www.w3.org/2000/svg" fill-rule="evenodd" clip-rule="evenodd"><path d="M0 1h24v22h-24v-22zm22 20v-15h-20v15h20zm-5.455-10.48l-4.143 3.579c-.675-.138-1.401.068-1.894.618-.735.824-.665 2.088.159 2.824.823.736 2.088.665 2.824-.158.492-.551.616-1.296.402-1.951l3.107-4.507-.455-.405zm-9.545 6.48h-3c0-4.415 3.585-8 8-8 1.163 0 2.269.249 3.267.696l-2.79 2.326-.477-.022c-2.759 0-5 2.24-5 5zm13 0h-3c0-.864-.219-1.676-.605-2.385l1.729-2.761c1.17 1.392 1.876 3.187 1.876 5.146z"/></svg>