<svg xmlns="http://www.w3.org/2000/svg" width="24" height="24" viewBox="0 0 24 24"><path d="M12 3c3.947 0 7.678 1.507 10.604 4.263l-.667.703c-2.751-2.539-6.242-3.924-9.937-3.924s-7.186 1.385-9.937 3.924l-.667-.703c2.926-2.756 6.657-4.263 10.604-4.263zm0 5.411c2.577 0 5.019.948 6.968 2.687l-.726.765c-1.757-1.509-3.938-2.329-6.242-2.329s-4.485.82-6.243 2.329l-.726-.765c1.95-1.739 4.392-2.687 6.969-2.687zm0 5.512c1.179 0 2.304.385 3.248 1.1l-.705.744c-.751-.504-1.626-.775-2.542-.775s-1.792.271-2.542.775l-.705-.744c.942-.715 2.067-1.1 3.246-1.1zm0 5.231c.509 0 .923.414.923.923 0 .509-.414.923-.923.923s-.923-.414-.923-.923c0-.509.414-.923.923-.923zm0-17.154c-4.686 0-8.929 2.004-12 5.244l2.039 2.15c2.549-2.688 6.071-4.352 9.961-4.352s7.412 1.664 9.961 4.353l2.039-2.151c-3.071-3.24-7.313-5.244-12-5.244zm0 5.411c-3.27 0-6.23 1.398-8.373 3.659l2.093 2.208c1.607-1.696 3.827-2.744 6.28-2.744s4.673 1.048 6.28 2.744l2.093-2.208c-2.143-2.261-5.103-3.659-8.373-3.659zm0 5.512c-1.827 0-3.481.782-4.678 2.044l2.057 2.17c.671-.708 1.598-1.145 2.622-1.145 1.023 0 1.951.437 2.622 1.145l2.057-2.17c-1.199-1.262-2.853-2.044-4.68-2.044zm0 5.231c-1.062 0-1.923.861-1.923 1.923s.861 1.923 1.923 1.923 1.923-.861 1.923-1.923-.861-1.923-1.923-1.923z"/></svg>