<svg xmlns="http://www.w3.org/2000/svg" width="24" height="24" viewBox="0 0 24 24"><path d="M4.504 13.572l-1.505-1.489c2.201-2.805 5.413-4.583 9.001-4.583s6.8 1.779 9 4.583l-1.504 1.489c-1.835-2.338-4.512-3.822-7.496-3.822s-5.661 1.484-7.496 3.822zm7.496.678c1.791 0 3.397.891 4.498 2.293l1.502-1.488c-1.467-1.869-3.608-3.055-6-3.055s-4.533 1.186-6 3.055l1.502 1.488c1.101-1.402 2.707-2.293 4.498-2.293zm0 2.25c-1.196 0-2.258.602-2.99 1.536l2.99 2.964 2.99-2.963c-.732-.935-1.794-1.537-2.99-1.537zm0-11.25c4.179 0 7.927 2.078 10.495 5.351l1.505-1.491c-2.935-3.739-7.217-6.11-12-6.11s-9.065 2.371-12 6.11l1.505 1.491c2.568-3.273 6.316-5.351 10.495-5.351z"/></svg>