<svg xmlns="http://www.w3.org/2000/svg" width="24" height="24" viewBox="0 0 24 24"><path d="M12 2c5.514 0 10 4.486 10 10s-4.486 10-10 10-10-4.486-10-10 4.486-10 10-10zm0-2c-6.627 0-12 5.373-12 12s5.373 12 12 12 12-5.373 12-12-5.373-12-12-12zm-1.894 14.992c.485-.514 1.154-.832 1.894-.832s1.408.318 1.894.832l-1.894 2.008-1.894-2.008zm-.874-.927c.709-.751 1.688-1.215 2.768-1.215s2.059.465 2.768 1.216l1.164-1.236c-1.006-1.067-2.396-1.727-3.932-1.727s-2.926.66-3.932 1.727l1.164 1.235zm-2.038-2.163c1.23-1.304 2.929-2.11 4.806-2.11s3.576.807 4.806 2.111l1.194-1.267c-1.535-1.629-3.656-2.636-6-2.636s-4.465 1.007-6 2.636l1.194 1.266z"/></svg>