<svg xmlns="http://www.w3.org/2000/svg" width="24" height="24" viewBox="0 0 24 24"><path d="M12 5.321c-3.683 0-6.679 2.997-6.679 6.679 0 3.683 2.996 6.68 6.679 6.68s6.679-2.997 6.679-6.68-2.996-6.679-6.679-6.679zm-6.005 6.679c0-.87.188-1.697.52-2.444l2.865 7.849c-2.004-.974-3.385-3.028-3.385-5.405zm6.005 6.005c-.59 0-1.158-.086-1.696-.244l1.802-5.236c.033.09 1.839 5.059 1.889 5.14-.624.219-1.296.34-1.995.34zm.828-8.82c.361-.02.687-.058.687-.058.324-.038.286-.514-.038-.495-1.274.1-1.892.1-3.182 0-.323-.019-.362.476-.038.495 0 0 .306.038.63.058l.936 2.563-1.314 3.941-2.189-6.504c.362-.02.688-.058.688-.058.323-.038.285-.514-.038-.495-1.118.088-1.622.081-1.988.069 1.075-1.63 2.92-2.706 5.018-2.706 1.563 0 2.987.597 4.056 1.577-.651-.036-1.087.49-1.087 1.061 0 .495.286.914.59 1.409.229.4.495.914.495 1.656 0 .513-.197 1.11-.456 1.941l-.6 2.001-2.17-6.455zm4.442-.066c.469.855.736 1.837.736 2.88 0 2.216-1.202 4.15-2.987 5.191l1.835-5.303c.358-.897.546-1.805.416-2.768zm-5.27-9.119c-6.627 0-12 5.373-12 12s5.373 12 12 12 12-5.373 12-12-5.373-12-12-12zm0 19c-3.859 0-7-3.14-7-7s3.141-7 7-7 7 3.14 7 7-3.141 7-7 7z"/></svg>