<svg xmlns="http://www.w3.org/2000/svg" width="24" height="24" viewBox="0 0 24 24"><path d="M19 0h-14c-2.761 0-5 2.239-5 5v14c0 2.761 2.239 5 5 5h14c2.762 0 5-2.239 5-5v-14c0-2.761-2.238-5-5-5zm-7 20c-4.411 0-8-3.589-8-8s3.589-8 8-8 8 3.588 8 8c0 4.411-3.589 8-8 8zm0-15.633c-4.208 0-7.633 3.424-7.633 7.633s3.424 7.634 7.633 7.634 7.633-3.425 7.633-7.634c0-4.209-3.424-7.633-7.633-7.633zm-6.862 7.633c0-.995.213-1.939.594-2.793l3.274 8.97c-2.29-1.113-3.868-3.461-3.868-6.177zm6.862 6.863c-.673 0-1.324-.099-1.938-.279l2.059-5.983c.038.103 2.101 5.781 2.159 5.874-.714.25-1.481.388-2.28.388zm.946-10.081c.413-.022.785-.065.785-.065.37-.043.326-.587-.044-.565-1.456.114-2.162.114-3.637 0-.37-.022-.413.543-.043.565 0 0 .35.043.72.065l1.069 2.929-1.502 4.504-2.499-7.433c.414-.022.786-.065.786-.065.369-.044.326-.588-.044-.566-1.278.1-1.854.092-2.271.079 1.227-1.863 3.337-3.093 5.734-3.093 1.787 0 3.414.683 4.635 1.802-.744-.041-1.242.561-1.242 1.212 0 .565.327 1.044.675 1.61.261.457.565 1.044.565 1.893 0 .587-.226 1.269-.521 2.218l-.686 2.287-2.48-7.377zm5.076-.074c.536.978.841 2.099.841 3.292 0 2.532-1.373 4.743-3.413 5.932l2.097-6.061c.409-1.025.625-2.063.475-3.163z"/></svg>