<svg xmlns="http://www.w3.org/2000/svg" width="24" height="24" viewBox="0 0 24 24"><path d="M11.362 2c4.156 0 2.638 6 2.638 6s6-1.65 6 2.457v11.543h-16v-20h7.362zm.827-2h-10.189v24h20v-14.386c0-2.391-6.648-9.614-9.811-9.614zm-3.002 10.125l1.832 1.832c.199.918-1.132 2.264-2.061 2.061l-1.832-1.832c-.084.284-.126.577-.126.871 0 .779.295 1.556.889 2.15.656.656 1.538.951 2.396.884.453-.034.9.131 1.221.452l3.034 3.034c.28.282.649.423 1.018.423.809 0 1.459-.663 1.442-1.472-.009-.358-.149-.714-.422-.988l-3.034-3.034c-.321-.322-.487-.769-.452-1.222.066-.858-.229-1.739-.884-2.395-.596-.595-1.373-.889-2.152-.889-.293 0-.586.042-.869.125zm6.841 8.417c0 .269-.219.486-.486.486-.269 0-.486-.218-.486-.486s.218-.485.486-.485.486.217.486.485z"/></svg>