<svg xmlns="http://www.w3.org/2000/svg" width="24" height="24" viewBox="0 0 24 24"><path d="M17.959 24c-1.729 0-3.376-.742-4.522-2.037-1.146-1.293-1.683-3.018-1.474-4.731.042-.343-.08-.693-.325-.938l-4.198-4.208c-.274-.274-.654-.432-1.043-.432l-.111.004c-1.683.129-3.373-.481-4.584-1.692-1.098-1.099-1.702-2.561-1.702-4.117 0-1.044.293-2.385.715-3.278l3.81 3.811c.435-.074.967-.394 1.404-.935.283-.35.427-.675.466-.91l-3.826-3.827c.889-.418 2.219-.71 3.255-.71 1.533 0 3.043.601 4.143 1.702 1.239 1.241 1.82 2.881 1.679 4.743-.023.328.096.651.329.885l4.3 4.31c.248.249.593.369.943.325 3.609-.46 6.782 2.411 6.782 5.994 0 3.331-2.71 6.041-6.041 6.041zm-11.563-14.343c.915 0 1.81.371 2.456 1.018l4.2 4.208c.676.678 1.009 1.646.892 2.593-.139 1.145.221 2.299.987 3.165.768.867 1.871 1.363 3.027 1.363 2.229 0 4.044-1.814 4.044-4.043 0-2.398-2.123-4.323-4.536-4.013-.981.122-1.923-.212-2.606-.896l-4.3-4.312c-.643-.647-.973-1.537-.906-2.445.097-1.283-.273-2.353-1.1-3.181-.493-.492-1.098-.833-1.758-1l1.49 1.491c.217 1 .125 1.946-.804 3.097-1.004 1.246-2.297 1.93-3.878 1.585l-1.49-1.491c.166.661.508 1.266 1 1.76.797.795 1.9 1.201 3.017 1.112l.265-.011zm11.275 7.222l1.079.289.289 1.079-.791.791-1.079-.29-.29-1.079.792-.79zm-.447-1.671l-2.015 2.014.737 2.75 2.749.738 2.014-2.014-.736-2.75-2.749-.738z"/></svg>