<svg xmlns="http://www.w3.org/2000/svg" width="24" height="24" viewBox="0 0 24 24"><path d="M12 0c-.883 0-1.742.102-2.57.283l.349 1.974c.715-.163 1.456-.257 2.221-.257 5.514 0 10 4.486 10 10 0 1.679-.421 3.26-1.154 4.65l-1.377-1.376c-.662-.661-1.002-1.581-.93-2.514.137-1.767-.471-3.58-1.82-4.93-1.225-1.224-2.825-1.83-4.428-1.83-.604 0-1.207.086-1.791.257l3.771 3.771c.408 1.889-2.33 4.66-4.242 4.242l-3.771-3.77c-.172.584-.258 1.188-.258 1.792 0 1.602.607 3.202 1.83 4.426 1.35 1.351 3.164 1.958 4.93 1.821.934-.072 1.852.269 2.514.931l1.376 1.376c-1.391.734-2.971 1.154-4.65 1.154-5.514 0-10-4.486-10-10 0-1.914.551-3.697 1.489-5.217l2.173 2.173 1.353-7.014-7.015 1.35 2.037 2.038c-1.282 1.907-2.037 4.198-2.037 6.67 0 6.627 5.373 12 12 12s12-5.373 12-12-5.373-12-12-12z"/></svg>