<svg xmlns="http://www.w3.org/2000/svg" width="24" height="24" viewBox="0 0 24 24"><path d="M18.15 24c-1.556 0-3.018-.607-4.117-1.705-1.207-1.206-1.824-2.876-1.693-4.586.033-.428-.122-.85-.427-1.155l-4.473-4.471c-.274-.275-.655-.433-1.043-.433l-.112.005c-1.681.13-3.373-.48-4.585-1.692-1.096-1.099-1.7-2.561-1.7-4.117 0-1.046.334-2.463.715-3.279l3.809 3.811c.438-.073.968-.394 1.405-.935.283-.351.427-.675.466-.91l-3.827-3.826c.823-.382 2.223-.707 3.256-.707 1.533 0 3.043.598 4.143 1.699 1.208 1.209 1.823 2.88 1.691 4.584-.032.428.124.851.429 1.156l4.471 4.472c.274.274.656.431 1.049.431l.111-.004c1.664-.134 3.368.483 4.579 1.691 1.099 1.099 1.703 2.562 1.703 4.12 0 1.052-.203 2.082-.708 3.28l-3.813-3.812c-.436.077-.982.403-1.418.943-.277.344-.418.666-.457.898l3.825 3.823c-1.213.517-2.227.719-3.279.719zm-11.753-14.346c.914 0 1.81.37 2.455 1.017l4.474 4.472c.717.719 1.083 1.709 1.006 2.72-.087 1.126.318 2.227 1.113 3.019.493.493 1.098.834 1.759 1.001l-1.49-1.49c-.217-.993-.133-1.938.791-3.086.989-1.229 2.292-1.946 3.891-1.598l1.489 1.489c-.166-.66-.509-1.265-1-1.756-.795-.795-1.894-1.205-3.016-1.112-1.052.08-2.018-.3-2.724-1.007l-4.471-4.472c-.714-.716-1.082-1.706-1.008-2.718.088-1.127-.318-2.227-1.111-3.023-.493-.492-1.098-.833-1.758-1l1.49 1.491c.218 1 .124 1.946-.804 3.096-1.009 1.251-2.296 1.928-3.88 1.586l-1.489-1.49c.167.66.507 1.265.999 1.759.796.795 1.895 1.201 3.018 1.111l.266-.009z"/></svg>