<svg xmlns="http://www.w3.org/2000/svg" width="24" height="24" viewBox="0 0 24 24"><path d="M12 0c-6.627 0-12 5.373-12 12s5.373 12 12 12 12-5.373 12-12-5.373-12-12-12zm-10 12c0-5.514 4.486-10 10-10s10 4.486 10 10c0 1.679-.421 3.26-1.155 4.651l-1.377-1.377c-.662-.661-1.002-1.581-.93-2.514.137-1.767-.471-3.58-1.82-4.93-1.226-1.224-2.825-1.83-4.428-1.83-.603 0-1.206.086-1.79.257l3.77 3.771c.41 1.889-2.33 4.66-4.242 4.242l-3.77-3.77c-.172.584-.259 1.188-.259 1.792 0 1.602.606 3.202 1.829 4.426 1.352 1.351 3.164 1.958 4.932 1.821.932-.072 1.852.269 2.514.931l1.377 1.376c-1.391.734-2.972 1.154-4.651 1.154-5.514 0-10-4.486-10-10z"/></svg>