<svg xmlns="http://www.w3.org/2000/svg" width="24" height="24" viewBox="0 0 24 24"><path d="M23.131 18.937l-9.662-9.663c-.662-.661-1.002-1.581-.93-2.514.137-1.767-.471-3.58-1.82-4.93-1.225-1.224-2.825-1.83-4.428-1.83-.603 0-1.207.086-1.791.257l3.771 3.771c.408 1.889-2.33 4.66-4.242 4.242l-3.771-3.77c-.172.584-.258 1.188-.258 1.792 0 1.602.607 3.202 1.83 4.426 2.616 2.619 4.932 2.103 7.857 2.262 3.37.184 6.562 2.729 6.279 7.183l2.969 2.969c.581.578 1.339.868 2.098.868 1.797 0 2.967-1.467 2.967-2.989 0-.731-.27-1.474-.869-2.074zm-2.131 3.063c-.553 0-1-.448-1-1s.447-1 1-1 1 .447 1 1-.447 1-1 1zm-7-2.5c0 2.485-2.017 4.5-4.5 4.5s-4.5-2.015-4.5-4.5 2.017-4.5 4.5-4.5 4.5 2.015 4.5 4.5zm-3.086-2.122l-1.414 1.414-1.414-1.414-.707.708 1.414 1.414-1.414 1.414.707.708 1.414-1.415 1.414 1.414.708-.708-1.414-1.413 1.414-1.414-.708-.708z"/></svg>