<svg xmlns="http://www.w3.org/2000/svg" width="24" height="24" viewBox="0 0 24 24"><path d="M24 20.283c0 .934-.355 1.869-1.07 2.599-.705.721-1.649 1.118-2.658 1.118-.993 0-1.927-.387-2.629-1.089l-1.842-1.842c.241-.972.252-1.839.088-2.736l3.166 3.166c.655.656 1.8.649 2.447-.013.326-.333.501-.774.49-1.241-.01-.444-.188-.864-.504-1.179l-8.858-8.858c-.813-.812-1.23-1.938-1.143-3.087.107-1.391-.395-2.752-1.379-3.737-.758-.76-1.731-1.23-2.785-1.354l2.163 2.163c.23 1.065.137 2.147-.93 3.468-1.105 1.371-2.59 2.222-4.373 1.833l-2.162-2.162c.125 1.039.59 2.023 1.352 2.786 1.521 1.521 3.038 1.368 4.039 1.368 1.037 0 2.052.421 2.785 1.154l.471.471c-1.302-.236-2.538-.079-3.655.385-1.881.075-3.713-.625-5.053-1.966-1.519-1.52-1.96-3.282-1.96-4.806 0-1.649.518-3.018.743-3.496l4.39 4.389c.558-.044 1.328-.54 1.869-1.21.355-.44.576-.909.605-1.267l-4.388-4.39c.99-.422 2.342-.75 3.538-.75 1.802 0 3.493.699 4.765 1.969 1.396 1.399 2.111 3.332 1.959 5.304-.044.565.161 1.12.562 1.521l8.859 8.859c.732.733 1.098 1.681 1.098 2.63zm-2.842-.033c0-.507-.409-.916-.916-.916s-.917.41-.917.917.41.917.917.917c.507 0 .916-.411.916-.918zm-7.158-.75c0 2.485-2.017 4.5-4.5 4.5s-4.5-2.015-4.5-4.5 2.017-4.5 4.5-4.5 4.5 2.015 4.5 4.5zm-3.086-2.122l-1.414 1.414-1.414-1.414-.707.708 1.414 1.414-1.414 1.414.707.708 1.414-1.415 1.414 1.414.708-.708-1.414-1.413 1.414-1.414-.708-.708z"/></svg>