<svg xmlns="http://www.w3.org/2000/svg" width="24" height="24" viewBox="0 0 24 24"><path d="M16.028 16.542c0 .269-.219.486-.486.486-.269 0-.486-.218-.486-.486s.218-.485.486-.485.486.217.486.485zm7.972-11.542v17h-24v-20h7c1.695 1.942 2.371 3 4 3h13zm-7 11.528c-.009-.358-.149-.714-.422-.988l-2.034-2.034c-.321-.322-.487-.769-.452-1.222.066-.858-.229-1.739-.885-2.395-.595-.595-1.372-.889-2.15-.889-.293 0-.586.042-.87.125l1.831 1.832c.199.918-1.131 2.264-2.061 2.061l-1.832-1.832c-.083.284-.125.577-.125.871 0 .779.295 1.556.889 2.15.656.656 1.537.951 2.396.884.453-.034.899.131 1.222.452l2.033 2.034c.28.282.649.423 1.018.423.808 0 1.459-.663 1.442-1.472z"/></svg>