<svg xmlns="http://www.w3.org/2000/svg" width="24" height="24" viewBox="0 0 24 24"><path d="M17.826 13.042c-.714.089-1.428-.157-1.936-.666l-4.69-4.702c-.478-.479-.723-1.142-.672-1.816.137-1.813-.443-3.246-1.517-4.32-1.029-1.029-2.374-1.538-3.722-1.538-.507 0-1.015.072-1.506.216l3.17 3.17c.344 1.589-1.959 3.918-3.566 3.567l-3.17-3.17c-.145.492-.217 1-.217 1.509 0 1.347.51 2.691 1.537 3.721 1.135 1.136 2.66 1.646 4.146 1.53.783-.06 1.557.226 2.113.783l4.58 4.589c.504.505.75 1.217.663 1.925-.397 3.274 2.163 6.16 5.461 6.16 3.037 0 5.5-2.462 5.5-5.5 0-3.33-2.93-5.867-6.174-5.458zm1.477 8.458l-2.999-.805-.804-2.998 2.197-2.197 2.999.805.804 2.999-2.197 2.196z"/></svg>