<svg xmlns="http://www.w3.org/2000/svg" width="24" height="24" viewBox="0 0 24 24"><path d="M16.028 18.542c0 .269-.219.486-.486.486-.268 0-.486-.218-.486-.486s.218-.485.486-.485.486.217.486.485zm5.972-7.542v13h-20v-24h8.409c4.857 0 3.335 8 3.335 8 3.009-.745 8.256-.419 8.256 3zm-5 7.528c-.009-.358-.149-.714-.422-.988l-3.034-3.034c-.322-.322-.487-.769-.453-1.222.067-.858-.229-1.739-.884-2.395-.595-.595-1.372-.889-2.151-.889-.293 0-.586.042-.87.125l1.832 1.832c.199.918-1.132 2.264-2.061 2.061l-1.832-1.832c-.083.284-.125.577-.125.871 0 .779.295 1.556.889 2.15.656.656 1.538.951 2.396.884.453-.034.9.131 1.221.452l3.034 3.034c.281.282.649.423 1.018.423.808 0 1.459-.663 1.442-1.472zm-1.091-12.751c2.047-.478 4.805.279 6.091 1.179-1.494-1.998-5.23-5.708-7.432-6.881 1.156 1.168 1.563 4.234 1.341 5.702z"/></svg>