<svg xmlns="http://www.w3.org/2000/svg" width="24" height="24" viewBox="0 0 24 24"><path d="M22.462 14.988c-1.136-1.134-2.661-1.645-4.146-1.529-.784.059-1.559-.226-2.115-.782l-4.877-4.878c-.557-.557-.841-1.331-.782-2.115.115-1.485-.396-3.009-1.529-4.146-1.031-1.029-2.377-1.538-3.724-1.538-.507 0-1.015.072-1.505.216l3.17 3.17c.344 1.589-1.959 3.918-3.567 3.567l-3.169-3.17c-.145.492-.218 1-.218 1.509 0 1.347.51 2.691 1.538 3.721 1.135 1.136 2.66 1.646 4.146 1.53.783-.06 1.557.226 2.113.783l4.878 4.878c.557.557.842 1.33.783 2.113-.116 1.486.394 3.012 1.53 4.146 1.03 1.027 2.373 1.537 3.721 1.537.508 0 1.016-.073 1.508-.217l-3.17-3.169c-.352-1.608 1.978-3.911 3.566-3.567l3.171 3.17c.144-.491.216-.999.216-1.506 0-1.347-.509-2.693-1.538-3.723z"/></svg>