<svg xmlns="http://www.w3.org/2000/svg" width="24" height="24" viewBox="0 0 24 24"><path d="M20.297 24c-.989 0-1.919-.385-2.618-1.084l-8.9-8.811c-.401-.401-.945-.608-1.515-.561-1.973.15-3.888-.558-5.282-1.952-1.278-1.278-1.982-2.968-1.982-4.76 0-1.324.451-2.87.9-3.708l3.085 3.085 5.557-5.551c2.599 1.284 4.129 3.888 3.912 6.693-.043.563.161 1.116.562 1.516l8.899 8.811c.7.7 1.084 1.63 1.084 2.619.001 2.042-1.66 3.703-3.702 3.703zm-10.111-11.302l8.9 8.811c.324.324.754.502 1.211.502.945 0 1.713-.769 1.713-1.713 0-.458-.179-.888-.502-1.212l-8.9-8.81c-.812-.812-1.226-1.934-1.138-3.076.115-1.488-.474-2.98-1.667-3.989l-5.819 5.812-1.99-1.99c.05 1.185.541 2.298 1.395 3.152.982.982 2.326 1.483 3.721 1.375 1.143-.089 2.258.319 3.076 1.138zm10.992 7.567c0 .504-.409.914-.913.914-.505 0-.914-.41-.914-.914s.409-.913.914-.913c.504 0 .913.408.913.913zm-11.812-12.185l-.696.694-1.557-1.557.696-.696 1.557 1.559zm-2.732-.384l-.696.695 1.558 1.558.696-.695-1.558-1.558zm1.964-7.351l-2.642 2.642-2.204-2.203c.871-.508 1.867-.784 2.891-.784.645 0 1.302.11 1.944.34l.011.005z"/></svg>