<svg xmlns="http://www.w3.org/2000/svg" width="24" height="24" viewBox="0 0 24 24"><path d="M14 6h-3.999v-1h3.999v1zm0-2h-3.999v-1h3.999v1zm0 3h-3.999v1h3.999v-1zm0 2h-3.999v1h3.999v-1zm-1.999 11c-2.088 0-3.521-1.163-3.117-3.214.409-2.078 1.117-5.786 1.117-5.786h4s.729 3.792 1.117 5.786c.399 2.049-1.027 3.214-3.117 3.214zm1.924-2.495c0-1.724-3.852-1.685-3.852.003 0 1.627 3.852 1.639 3.852-.003zm5.075-15.505c1.654 0 3 1.346 3 3v14c0 1.654-1.346 3-3 3h-14c-1.654 0-3-1.346-3-3v-14c0-1.654 1.346-3 3-3h14zm0-2h-14c-2.762 0-5 2.239-5 5v14c0 2.761 2.238 5 5 5h14c2.762 0 5-2.239 5-5v-14c0-2.761-2.238-5-5-5z"/></svg>