<svg xmlns="http://www.w3.org/2000/svg" width="24" height="24" viewBox="0 0 24 24"><path d="M10.999 6h-2.998v-1h2.998v1zm0 1h-2.998v1h2.998v-1zm0-4h-2.998v1h2.998v-1zm0 6h-2.998v1h2.998v-1zm0 2h-2.998v1h2.998v-1zm-1.499 9c-1.624 0-2.818-.922-2.425-2.5l.926-4.5h2.998l.926 4.5c.392 1.576-.799 2.5-2.425 2.5zm1.497-1.94c0-1.341-2.996-1.311-2.996.003 0 1.264 2.996 1.273 2.996-.003zm.365-16.06c4.156 0 2.638 6 2.638 6s6-1.65 6 2.457v11.543h-16v-20h7.362zm.827-2h-10.189v24h20v-14.386c0-2.391-6.648-9.614-9.811-9.614z"/></svg>