<svg xmlns="http://www.w3.org/2000/svg" width="24" height="24" viewBox="0 0 24 24"><path d="M17.005 2.73l-1.726-.999.996-1.731 1.725.999-.995 1.731zm-.87 1.669l-1.809-.678-.681 1.88 1.808.677.682-1.879zm-1.148 3.601h-1.987v2h1.987v-2zm-8.987-7.001l1.725-.999.996 1.731-1.726.999-.995-1.731zm2.547 5.28l1.808-.677-.681-1.88-1.809.677.682 1.88zm.466 3.721h1.987v-2h-1.987v2zm7.837 9l-1.852-7h-5.996l-1.852 7c-.786 3.156 1.602 5 4.85 5 3.252 0 5.635-1.848 4.85-5zm-7.848 1.125c0-2.627 5.992-2.688 5.992-.007 0 2.555-5.992 2.536-5.992.007z"/></svg>