<svg xmlns="http://www.w3.org/2000/svg" width="24" height="24" viewBox="0 0 24 24"><path d="M17.005 2.73l-1.726-.999.996-1.731 1.725.999-.995 1.731zm-.87 1.669l-1.809-.678-.681 1.88 1.808.677.682-1.879zm-1.148 3.601h-1.987v2h1.987v-2zm-8.987-7.001l1.725-.999.996 1.731-1.726.999-.995-1.731zm2.547 5.28l1.808-.677-.681-1.88-1.809.677.682 1.88zm.466 3.721h1.987v-2h-1.987v2zm4.446 4l1.449 5.484c.469 1.88-1.088 2.516-2.908 2.516-1.81 0-3.377-.64-2.916-2.489l1.457-5.511h2.918zm1.539-2h-5.996l-1.852 7c-.786 3.156 1.602 5 4.85 5 3.252 0 5.635-1.848 4.85-5l-1.852-7zm-2.998 7c-1.104 0-2 .447-2 1s.896 1 2 1 2-.447 2-1-.896-1-2-1z"/></svg>